<svg xmlns="http://www.w3.org/2000/svg" viewBox="0 0 1960.69 328.41"><defs><style>.cls-1{fill:#654ec5;}</style></defs><g id="Layer_2" data-name="Layer 2"><g id="Layer_1-2" data-name="Layer 1"><path class="cls-1" d="M1928.61,162.88c-66.77-98.14-199.38-66.58-289.57-24-75.2,35.52-145.7,75.67-231.54,65.22C1308,192,1224.64,135.89,1132.37,102.25,1041.27,69,939.7,64.52,846.24,90.67c-55.48,15.53-107.35,41.18-162,59.22C567.33,188.53,438.34,208.05,315,186.36,252,175.3,191.24,153.29,136.59,120.11,83.88,88.1,46.16,39.76,0,0,0,0,.82,153.79,1.75,328.41H1955.46C1966.5,271.3,1961.17,210.74,1928.61,162.88Z"/></g></g></svg>