<svg xmlns="http://www.w3.org/2000/svg" viewBox="0 0 411.7 161.99"><defs><style>.cls-1{fill:#537a6e;}.cls-2{fill:#2d2d2d;}.cls-3{fill:#5e887c;}.cls-4{fill:#b0c1b8;}.cls-5{fill:#8d9e96;}</style></defs><g id="Layer_2" data-name="Layer 2"><g id="Layer_1-2" data-name="Layer 1"><path class="cls-1" d="M1.82,14.85,1.56.94c0-.63.34-.94,1-.94s1,.32,1,1l.15,8.5L9.8,4.68c.68-.54,1.22-.54,1.64,0s.27,1.06-.39,1.56l-5.17,4,4.52,3.59c.62.52.71,1,.26,1.51s-1,.45-1.69-.11L4.32,11.49l-.52.42.05,2.94a.91.91,0,0,1-1,1C2.19,15.89,1.85,15.54,1.82,14.85Z"/><path class="cls-1" d="M18.38,15.86a5.2,5.2,0,0,1-3.77-1.48,5.69,5.69,0,0,1-1.51-3.82,5.93,5.93,0,0,1,1.2-4.32,5.86,5.86,0,0,1,3.46-1.95,6.3,6.3,0,0,1,1.3-.13,5.51,5.51,0,0,1,2,.36,3.58,3.58,0,0,1,2.26,3.67,3.24,3.24,0,0,1-1.22,2.55,5.51,5.51,0,0,1-3.67,1,10.13,10.13,0,0,1-3.3-.6,3.35,3.35,0,0,0,1,2,3.28,3.28,0,0,0,2.21.83,7,7,0,0,0,3.82-.88c.66-.38,1.16-.3,1.49.26s.11,1-.6,1.4A8.89,8.89,0,0,1,18.38,15.86ZM19,6.06a4.09,4.09,0,0,0-3,1.17,3.44,3.44,0,0,0-.93,2,7,7,0,0,0,2.75.65,4.83,4.83,0,0,0,2.65-.34,1.5,1.5,0,0,0,.81-1.38,1.91,1.91,0,0,0-1.27-1.92A2.91,2.91,0,0,0,19,6.06Z"/><path class="cls-1" d="M32.84,4.81q.44-1.12,1.38-.75c.62.26.79.73.52,1.43l-5,12.37c-.29.76-.76,1-1.4.81s-.8-.74-.47-1.54l1.54-3.82L25.14,5.72c-.45-.8-.38-1.35.21-1.66s1.09-.12,1.51.59L30.37,11Z"/><path class="cls-1" d="M40.14,15.24,36.4,5.49A.88.88,0,0,1,37,4.19a.94.94,0,0,1,1.33.65l2.75,7.54,2.19-6.22a1.08,1.08,0,0,1,1.09-.83,1,1,0,0,1,1,.81l2.29,6.21,2.71-7.46a1,1,0,0,1,1.35-.7.88.88,0,0,1,.57,1.3l-3.74,9.77a.92.92,0,0,1-.91.65.86.86,0,0,1-.89-.7L44.33,8.42l-2.39,6.82a.93.93,0,0,1-.91.67A.88.88,0,0,1,40.14,15.24Z"/><path class="cls-1" d="M64.87,10.37a5.47,5.47,0,0,1-.43,2.15,5.35,5.35,0,0,1-1.16,1.75,5.47,5.47,0,0,1-1.76,1.19,5.52,5.52,0,0,1-4.27,0,5.63,5.63,0,0,1-1.77-1.19,5.33,5.33,0,0,1-1.15-1.75,5.57,5.57,0,0,1,0-4.29,5.37,5.37,0,0,1,1.15-1.76,5.77,5.77,0,0,1,1.77-1.18,5.52,5.52,0,0,1,4.27,0,5.61,5.61,0,0,1,1.76,1.18,5.61,5.61,0,0,1,1.59,3.9Zm-2,0A3.75,3.75,0,0,0,62.57,9a3.7,3.7,0,0,0-.74-1.17A3.21,3.21,0,0,0,60.72,7a3.38,3.38,0,0,0-1.34-.27A3.45,3.45,0,0,0,58,7a3.27,3.27,0,0,0-1.1.77A3.7,3.7,0,0,0,56.2,9a3.79,3.79,0,0,0,0,2.81A3.7,3.7,0,0,0,56.94,13a3.24,3.24,0,0,0,1.1.76,3.29,3.29,0,0,0,1.34.28,3.22,3.22,0,0,0,1.34-.28A3.18,3.18,0,0,0,61.83,13a3.7,3.7,0,0,0,.74-1.17A3.76,3.76,0,0,0,62.84,10.37Z"/><path class="cls-1" d="M67.63,14.85,67.5,5.2c0-.62.32-.94,1-.94s1,.32,1,1l0,1.61a4.26,4.26,0,0,1,2.68-1.59,5.16,5.16,0,0,1,4.39,1.07c.54.48.62,1,.24,1.45s-.91.53-1.51.08a3.63,3.63,0,0,0-2.65-.78,3.11,3.11,0,0,0-2.34,1.64,6.61,6.61,0,0,0-.76,2.65l.05,3.49a.9.9,0,0,1-1,1A.92.92,0,0,1,67.63,14.85Z"/><path class="cls-1" d="M87.46,1c0-.64.37-1,1.1-1a.82.82,0,0,1,.91.94l-.26,14c0,.62-.33.94-1,.94a.89.89,0,0,1-1-1v-.65a5,5,0,0,1-3.58,1.48,5,5,0,0,1-2.07-.44,5.36,5.36,0,0,1-1.68-1.2,5.47,5.47,0,0,1-1.16-1.74,5.54,5.54,0,0,1-.42-2.13,5.47,5.47,0,0,1,.42-2.13,5.63,5.63,0,0,1,1.16-1.75,5.18,5.18,0,0,1,1.68-1.19,5.07,5.07,0,0,1,4.13,0,5.18,5.18,0,0,1,1.68,1.19Zm-7.15,9.26a3.49,3.49,0,0,0,.28,1.39,3.77,3.77,0,0,0,.74,1.16,3.56,3.56,0,0,0,1.09.78,3.17,3.17,0,0,0,1.33.28,3.13,3.13,0,0,0,1.32-.28,3.58,3.58,0,0,0,1.83-1.94,3.59,3.59,0,0,0,0-2.78,3.49,3.49,0,0,0-.74-1.16,3.4,3.4,0,0,0-1.09-.78,3.14,3.14,0,0,0-1.32-.29,3.18,3.18,0,0,0-1.33.29,3.4,3.4,0,0,0-1.09.78,3.66,3.66,0,0,0-.74,1.16A3.45,3.45,0,0,0,80.31,10.22Z"/><path class="cls-1" d="M90.44,162a58.65,58.65,0,1,1,58.65-58.65A58.72,58.72,0,0,1,90.44,162Zm0-111.3a52.65,52.65,0,1,0,52.65,52.65A52.71,52.71,0,0,0,90.44,50.69Z"/><path class="cls-2" d="M79.18,97.46A1.4,1.4,0,0,1,80.5,98a1.13,1.13,0,0,1,0,1.22l-2.33,3.6,4,2.52c.6.38.73.82.41,1.32s-.78.55-1.39.17l-3.94-2.55L75.44,107a.89.89,0,0,1-1.32.39c-.52-.31-.58-.75-.2-1.32l4.44-6.82L74,99.28q-1,0-1-.84c0-.56.34-.84,1-.86Zm6.94-.14,0,3.07h2.69c.64,0,1,.29,1,.89s-.32.91-1,.91H86.19l.07,4.34a.86.86,0,0,1-.94,1c-.61,0-.92-.3-.93-.94l-.15-9.24a.94.94,0,1,1,1.88,0Z"/><path class="cls-2" d="M99.84,97.58a3.59,3.59,0,0,1-1.09,2.66,4,4,0,0,1-5.5,0,3.63,3.63,0,0,1-1.09-2.66,3.67,3.67,0,0,1,1.09-2.68,4,4,0,0,1,5.5,0A3.64,3.64,0,0,1,99.84,97.58Zm-1.8,0a2,2,0,0,0-2-2,1.93,1.93,0,0,0-1.45.58A2,2,0,0,0,94,97.58a1.92,1.92,0,0,0,2,2A2,2,0,0,0,97.47,99,1.94,1.94,0,0,0,98,97.58Zm7.15,11.69-6.76.14c-.84,0-1.26-.36-1.27-1.17l-.1-4a.84.84,0,0,1,.91-1,.82.82,0,0,1,1,.91l.07,3.48,6.12-.07c.61,0,.92.26.94.84S105.79,109.25,105.19,109.27ZM104,102.09v-2h-2.79c-.6,0-.91-.28-.91-.84s.31-.84.91-.84H104V96.79h-2.79c-.6,0-.91-.28-.91-.84s.31-.84.91-.84H104V93.4a.84.84,0,0,1,.94-1c.6,0,.91.32.91,1v8.69c0,.64-.31,1-.91,1A.84.84,0,0,1,104,102.09Z"/><path class="cls-3" d="M221.74,162a58.65,58.65,0,1,1,58.65-58.65A58.72,58.72,0,0,1,221.74,162Zm0-111.3a52.65,52.65,0,1,0,52.65,52.65A52.71,52.71,0,0,0,221.74,50.69Z"/><path class="cls-2" d="M205.18,97.58l4.42-.12a1.36,1.36,0,0,1,1.32.58,1.15,1.15,0,0,1,0,1.22l-2,3.53,3.5,2.54c.59.45.71.91.36,1.37s-.84.5-1.42.07L208,104.35l-1.39,2.47c-.37.66-.82.84-1.34.55s-.6-.73-.24-1.37l3.74-6.79-3.6.07c-.64,0-1-.27-1-.86S204.54,97.6,205.18,97.58Zm13,9v-4h-2.33l0,3.77c0,.64-.3,1-.91,1s-.91-.32-.91-1L214,97.53c0-.64.31-1,.91-1s.92.32.92,1l0,3.31h2.33v-3.5c0-.64.3-1,.91-1s.91.32.91,1v9.21c0,.65-.3,1-.91,1S218.19,107.2,218.19,106.55Z"/><path class="cls-2" d="M224,105.83l-.33-6.4c-.05-.8.25-1.2.89-1.2h6.19q1.08,0,1.08,1.2v6.4a.79.79,0,0,1-.89.89h-6.1C224.37,106.72,224.09,106.43,224,105.83Zm1.54-5.87.26,5H230v-5ZM237,97.32l.14,9.21a.85.85,0,0,1-.93,1c-.61,0-.92-.3-.94-.94l-.14-9.24a.94.94,0,1,1,1.87,0Z"/><path class="cls-4" d="M353,162a58.65,58.65,0,1,1,58.66-58.65A58.72,58.72,0,0,1,353,162Zm0-111.3a52.65,52.65,0,1,0,52.66,52.65A52.71,52.71,0,0,0,353,50.69Z"/><path class="cls-2" d="M340.8,93.71l-1.08,3.08,4.92,3.26q.89.6.39,1.35c-.34.48-.8.52-1.39.12l-4.54-2.93-1,2.73c-.26.71-.68,1-1.27.8s-.82-.66-.58-1.4l2.64-7.51c.26-.75.7-1,1.32-.79A.88.88,0,0,1,340.8,93.71Zm7.47,15.56-6.53.14a1.07,1.07,0,0,1-1.27-1.17l-.1-4a.84.84,0,0,1,.91-1,.82.82,0,0,1,1,.91l.07,3.48,5.88-.07c.61,0,.92.26.94.84S348.86,109.25,348.27,109.27Zm-1.18-7.18V93.4a.84.84,0,0,1,.94-1c.61,0,.91.32.91,1v3l2.21.1a.82.82,0,0,1,.89.93.81.81,0,0,1-.94.87l-2.16-.1v3.91c0,.64-.3,1-.91,1A.84.84,0,0,1,347.09,102.09Z"/><path class="cls-2" d="M358.32,91.36v2.23l.82,0a1.38,1.38,0,0,1,1.32.58,1.13,1.13,0,0,1,0,1.22l-1.85,2.76,3.27,2.07c.65.43.81.88.48,1.36s-.84.54-1.47.12l-3.24-2.06-1.46,2.18c-.42.61-.87.76-1.37.46s-.56-.77-.14-1.39l3.69-5.55-3.64.08q-1,0-1-.87t1-.84l1.77,0V91.36a.94.94,0,1,1,1.87,0Zm8.07,17.6-.12-3.75h-6c-.64,0-1-.29-1-.89s.32-.86,1-.86h6.65a1.05,1.05,0,0,1,1.2,1.13l.12,4.32a.8.8,0,0,1-.89.93A.84.84,0,0,1,366.39,109Zm1.29-11.14h-2.35v2.59c0,.64-.3,1-.91,1s-.91-.32-.91-1V93.28c0-.64.3-1,.91-1s.91.32.91,1v2.81h2.35V93.28c0-.64.31-1,.92-1s.91.32.91,1v7.23c0,.64-.31,1-.91,1s-.92-.32-.92-1Z"/><rect class="cls-5" y="27.19" width="3" height="1"/><path class="cls-5" d="M399.69,28.19h-6v-1h6Zm-12,0h-6v-1h6Zm-12,0h-6v-1h6Zm-12,0h-6v-1h6Zm-12,0h-6v-1h6Zm-12,0h-6v-1h6Zm-12,0h-6v-1h6Zm-12,0h-6v-1h6Zm-12,0h-6v-1h6Zm-12,0h-6v-1h6Zm-12,0h-6v-1h6Zm-12,0h-6v-1h6Zm-12,0h-6v-1h6Zm-12,0h-6v-1h6Zm-12,0h-6v-1h6Zm-12,0h-6v-1h6Zm-12,0h-6v-1h6Zm-12,0h-6v-1h6Zm-12,0h-6v-1h6Zm-12,0h-6v-1h6Zm-12,0h-6v-1h6Zm-12,0h-6v-1h6Zm-12,0h-6v-1h6Zm-12,0h-6v-1h6Zm-12,0h-6v-1h6Zm-12,0h-6v-1h6Zm-12,0h-6v-1h6Zm-12,0h-6v-1h6Zm-12,0h-6v-1h6Zm-12,0h-6v-1h6Zm-12,0h-6v-1h6Zm-12,0H21v-1h6Zm-12,0H9v-1h6Z"/><rect class="cls-5" x="405.7" y="27.19" width="3" height="1"/></g></g></svg>