<svg xmlns="http://www.w3.org/2000/svg" viewBox="0 0 236.93 154"><defs><style>.cls-1{fill:#fff;}</style></defs><g id="Layer_2" data-name="Layer 2"><g id="Layer_1-2" data-name="Layer 1"><path class="cls-1" d="M3,15.78c-1.22-.07-1.82-.49-1.82-1.25L1,2.5c0-.78.47-1.18,1.52-1.2q9.78-.15,10,7.08Q12.93,16.45,3,15.78Zm0-12.66L3.08,14q7.89.77,7.55-5.6Q10.33,3,2.93,3.12Z"/><path class="cls-1" d="M19.75,15.7a5,5,0,0,1-3.62-1.42,5.42,5.42,0,0,1-1.45-3.68,5.65,5.65,0,0,1,1.15-4.15,5.56,5.56,0,0,1,3.32-1.87,5.9,5.9,0,0,1,1.25-.13,5.25,5.25,0,0,1,2,.35,3.43,3.43,0,0,1,2.18,3.53,3.13,3.13,0,0,1-1.18,2.45,5.3,5.3,0,0,1-3.52,1,9.93,9.93,0,0,1-3.18-.58,3.24,3.24,0,0,0,1,1.88,3.18,3.18,0,0,0,2.12.8A6.8,6.8,0,0,0,23.43,13c.63-.37,1.1-.29,1.42.25s.11,1-.57,1.34A8.46,8.46,0,0,1,19.75,15.7Zm.6-9.42A3.92,3.92,0,0,0,17.5,7.4a3.35,3.35,0,0,0-.9,1.93,6.74,6.74,0,0,0,2.65.62,4.62,4.62,0,0,0,2.55-.33,1.43,1.43,0,0,0,.78-1.32,1.83,1.83,0,0,0-1.23-1.85A2.66,2.66,0,0,0,20.35,6.28Z"/><path class="cls-1" d="M28.53,12.3a3.52,3.52,0,0,0,2.6,1.7,3.16,3.16,0,0,0,2-.45,1.51,1.51,0,0,0,.75-1.3q0-.71-.93-1.17a10.66,10.66,0,0,0-2.2-.75c-2.52-.55-3.82-1.65-3.9-3.28a3.24,3.24,0,0,1,.7-2.35A4.08,4.08,0,0,1,30.4,3.3a7.53,7.53,0,0,1,2.45.18,4.83,4.83,0,0,1,2,1c.57.51.64,1,.23,1.47s-.86.44-1.43,0A4.7,4.7,0,0,0,31,5.08a2.5,2.5,0,0,0-1.55.45,1.45,1.45,0,0,0-.63,1.22c0,.83.83,1.48,2.5,1.95a18.85,18.85,0,0,1,2.93,1.05,2.74,2.74,0,0,1,1.6,2.48,3.19,3.19,0,0,1-1.23,2.6,4.92,4.92,0,0,1-3.5,1,5.4,5.4,0,0,1-2.47-.75,4.47,4.47,0,0,1-1.78-1.8c-.33-.62-.23-1.07.3-1.37S28.11,11.73,28.53,12.3Z"/><path class="cls-1" d="M41.13,1.55a1.48,1.48,0,0,1-.49,1.09,1.62,1.62,0,0,1-1.16.46,1.57,1.57,0,0,1-1.15-.46,1.48,1.48,0,0,1,0-2.18A1.57,1.57,0,0,1,39.48,0a1.62,1.62,0,0,1,1.16.46A1.48,1.48,0,0,1,41.13,1.55Zm-2.7,13.13.07-8a.88.88,0,0,1,1-1c.65,0,1,.33,1,1l-.05,8c0,.66-.34,1-1,1A.89.89,0,0,1,38.43,14.68Z"/><path class="cls-1" d="M43.8,14.68,43.68,5.4c0-.58.31-.87,1-.87s1,.3,1,.9l0,1.77a3.48,3.48,0,0,1,3-2.22,4,4,0,0,1,3.8,1.82,10.57,10.57,0,0,1,1.25,5.7v2.18a1,1,0,1,1-1.95,0l0-2.58q0-5.29-2.9-5.3t-3.12,6l0,1.88a.86.86,0,0,1-1,1A.88.88,0,0,1,43.8,14.68Z"/><path class="cls-1" d="M66.13,5l.4,8.8a6,6,0,0,1-.78,3.48,4.83,4.83,0,0,1-3.15,2.07,6.18,6.18,0,0,1-4.72-.67c-.59-.37-.73-.81-.43-1.33s.77-.57,1.45-.2a4.49,4.49,0,0,0,3.15.45,3.27,3.27,0,0,0,2.08-1.37,4.53,4.53,0,0,0,.52-2.68V13.4a5.09,5.09,0,0,1-1.57,1,5.06,5.06,0,0,1-3.8,0,5.14,5.14,0,0,1-1.58-1,5.14,5.14,0,0,1-1-1.56A4.8,4.8,0,0,1,56.3,10a4.88,4.88,0,0,1,.38-1.9,5.07,5.07,0,0,1,1-1.57,5,5,0,0,1,1.58-1,5.06,5.06,0,0,1,3.8,0,6,6,0,0,1,1.15.67l0-1.07a.83.83,0,0,1,.92-1A.89.89,0,0,1,66.13,5Zm-1.68,5,0-.45a2.86,2.86,0,0,0-.88-1.75,3.24,3.24,0,0,0-4.44,0A2.91,2.91,0,0,0,58.23,10a2.91,2.91,0,0,0,.88,2.17,3.24,3.24,0,0,0,4.44,0A2.85,2.85,0,0,0,64.45,10Z"/><path class="cls-1" d="M85.68,2a6.22,6.22,0,0,1,2.59,3c.24.63.09,1-.44,1.25a1,1,0,0,1-1.35-.55A5.06,5.06,0,0,0,82.1,2.83,4.26,4.26,0,0,0,78,5.35a7.56,7.56,0,0,0-.6,4.05,5.76,5.76,0,0,0,1.53,3.5,4.26,4.26,0,0,0,3.3,1.43,4.8,4.8,0,0,0,4.7-3.13,1,1,0,0,1,1.32-.62c.62.23.78.68.5,1.35a6.62,6.62,0,0,1-6.65,4.22,6.09,6.09,0,0,1-4.55-1.87A7.7,7.7,0,0,1,75.38,9.2a8.48,8.48,0,0,1,1-5,6,6,0,0,1,3.75-2.95A7,7,0,0,1,85.68,2Z"/><path class="cls-1" d="M101.23,10.43a5.23,5.23,0,0,1-.42,2.06,5.07,5.07,0,0,1-1.11,1.69A5.21,5.21,0,0,1,98,15.31a5.21,5.21,0,0,1-4.1,0,5.21,5.21,0,0,1-1.7-1.13,5.07,5.07,0,0,1-1.11-1.69,5.29,5.29,0,0,1,0-4.13A5,5,0,0,1,92.2,6.68a5.31,5.31,0,0,1,7.5,0,5,5,0,0,1,1.11,1.68A5.25,5.25,0,0,1,101.23,10.43Zm-2,0A3.68,3.68,0,0,0,98.3,8a3.17,3.17,0,0,0-1.06-.74,3.33,3.33,0,0,0-2.58,0A3.17,3.17,0,0,0,93.6,8a3.44,3.44,0,0,0-.71,1.13,3.46,3.46,0,0,0-.27,1.35,3.7,3.7,0,0,0,1,2.47,3.17,3.17,0,0,0,1.06.74,3.33,3.33,0,0,0,2.58,0,3.17,3.17,0,0,0,1.06-.74,3.62,3.62,0,0,0,1-2.47Z"/><path class="cls-1" d="M103.88,14.68l-.13-9.28c0-.58.32-.87,1-.87s1,.3,1,.9l0,1.77a3.45,3.45,0,0,1,3-2.22,4,4,0,0,1,3.8,1.82,10.57,10.57,0,0,1,1.25,5.7v2.18a1,1,0,1,1-2,0l0-2.58q0-5.29-2.9-5.3t-3.12,6l0,1.88a.86.86,0,0,1-1,1A.87.87,0,0,1,103.88,14.68Z"/><path class="cls-1" d="M124.82,5.33A5.65,5.65,0,0,1,127,7.55a.77.77,0,0,1-.37,1.2,1,1,0,0,1-1.38-.45,4,4,0,0,0-3.32-2,3.35,3.35,0,0,0-2.88,1.32,3.76,3.76,0,0,0-.75,2.28,3.72,3.72,0,0,0,1.1,3,3.94,3.94,0,0,0,2.63.88,3.72,3.72,0,0,0,3.55-2.1,1,1,0,0,1,1.17-.6c.7.2.9.65.58,1.37a5.54,5.54,0,0,1-1.53,2,6,6,0,0,1-3.9,1.17,5.38,5.38,0,0,1-3.82-1.34,5.34,5.34,0,0,1-1.68-3.48,5.9,5.9,0,0,1,.7-3.7,5.44,5.44,0,0,1,4.78-2.55A5.73,5.73,0,0,1,124.82,5.33Z"/><path class="cls-1" d="M134.67,15.7a5,5,0,0,1-3.62-1.42,5.42,5.42,0,0,1-1.45-3.68,5.65,5.65,0,0,1,1.15-4.15,5.56,5.56,0,0,1,3.32-1.87,6,6,0,0,1,1.25-.13,5.25,5.25,0,0,1,2,.35,3.42,3.42,0,0,1,2.18,3.53,3.1,3.1,0,0,1-1.18,2.45,5.28,5.28,0,0,1-3.52,1,9.93,9.93,0,0,1-3.18-.58,3.3,3.3,0,0,0,1,1.88,3.18,3.18,0,0,0,2.12.8,6.78,6.78,0,0,0,3.68-.85c.63-.37,1.11-.29,1.42.25s.11,1-.57,1.34A8.41,8.41,0,0,1,134.67,15.7Zm.6-9.42a3.92,3.92,0,0,0-2.85,1.12,3.35,3.35,0,0,0-.9,1.93,6.74,6.74,0,0,0,2.65.62,4.64,4.64,0,0,0,2.56-.33,1.44,1.44,0,0,0,.77-1.32,1.83,1.83,0,0,0-1.23-1.85A2.62,2.62,0,0,0,135.27,6.28Z"/><path class="cls-1" d="M144.07,5.68l0,1.05a5,5,0,0,1,5.7-1.24,4.78,4.78,0,0,1,1.62,1.13,4.9,4.9,0,0,1,1.1,1.69,5.53,5.53,0,0,1,0,4.13,4.76,4.76,0,0,1-1.1,1.68,4.67,4.67,0,0,1-1.62,1.14,4.88,4.88,0,0,1-2,.42,4.76,4.76,0,0,1-2-.43,4.64,4.64,0,0,1-1.62-1.13l.07,4.36a.87.87,0,0,1-1,1,.88.88,0,0,1-1-1l-.2-12.8a1,1,0,1,1,1.95,0Zm6.9,4.7A3.63,3.63,0,0,0,150.72,9,3.27,3.27,0,0,0,150,7.9,3.17,3.17,0,0,0,149,7.16a3.34,3.34,0,0,0-1.29-.26,3.29,3.29,0,0,0-1.28.26,3.21,3.21,0,0,0-1.07.74,3.42,3.42,0,0,0-.7,1.13,3.85,3.85,0,0,0-.25,1.35,3.93,3.93,0,0,0,.25,1.35,3.48,3.48,0,0,0,.7,1.12,3.21,3.21,0,0,0,1.07.74,3.29,3.29,0,0,0,1.28.26,3.34,3.34,0,0,0,1.29-.26,3.17,3.17,0,0,0,1.06-.74,3.32,3.32,0,0,0,.7-1.12A3.71,3.71,0,0,0,151,10.38Z"/><path class="cls-1" d="M162.8,8.25h-4l-.08,2.48a4.6,4.6,0,0,0,.4,2.65,1.53,1.53,0,0,0,1.3.52,2.56,2.56,0,0,0,1.38-.52.76.76,0,0,1,1.12.22.78.78,0,0,1-.12,1.2,3.52,3.52,0,0,1-2.6.93,3,3,0,0,1-3-1.8,9,9,0,0,1-.4-3.73l0-1.95h-1.23c-.66,0-1-.31-1-.92s.34-.9,1-.9h1.28l.1-3c.05-.67.39-1,1-1s.95.36.93,1l-.1,3h4c.67,0,1,.3,1,.9S163.47,8.25,162.8,8.25Z"/><path class="cls-1" d="M1.86,38.78l3-.05v-1c0-.42.2-.64.6-.64s.61.22.61.64l0,4.44a.53.53,0,0,1-.6.6H1.28a.54.54,0,0,1-.61-.62l-.05-4.4q0-.65.6-.66a.55.55,0,0,1,.62.61Zm3,1.12-3,.05,0,1.66h3ZM8.53,48l-4.35.1c-.56,0-.84-.24-.85-.78l-.07-2.69a.56.56,0,0,1,.61-.66.55.55,0,0,1,.64.61l0,2.32,3.92,0a.53.53,0,0,1,.62.56A.51.51,0,0,1,8.53,48Zm-.79-4.78V37.39a.56.56,0,0,1,.63-.64c.4,0,.61.21.61.64v2l1.47.07a.55.55,0,0,1,.59.62.53.53,0,0,1-.62.58L9,40.57v2.61c0,.43-.21.64-.61.64A.56.56,0,0,1,7.74,43.18Z"/><path class="cls-1" d="M18.46,46.11l-4.4.14c-.42,0-.65-.14-.68-.48L13.2,43a.56.56,0,0,1,.59-.69l3-.11V40.41H13.49c-.43,0-.64-.19-.64-.57s.21-.56.64-.56h3.74c.51,0,.77.23.77.7l0,2.83c0,.3-.19.46-.59.48l-3,.1.1,1.69L18.42,45c.42,0,.64.17.65.56S18.88,46.1,18.46,46.11ZM21.87,40l.1,6.14a.57.57,0,0,1-.63.66c-.4,0-.61-.2-.62-.63l0-1.76H19.15c-.42,0-.64-.19-.64-.57s.22-.56.64-.56h1.52V42.14H19.15c-.42,0-.64-.19-.64-.58s.22-.56.64-.56h1.49l0-1a.63.63,0,1,1,1.25,0Z"/><path class="cls-1" d="M25.66,37.24l3.44,0c.64,0,.92.36.84,1.06l-.52,3.87a.62.62,0,1,1-1.24-.14l.46-3.62-3-.05c-.43,0-.63-.21-.62-.61S25.24,37.23,25.66,37.24ZM33.71,48l-4.51.1a.72.72,0,0,1-.85-.78l-.06-2.69a.63.63,0,1,1,1.25-.05l0,2.32,4.08,0c.41,0,.62.18.63.56S34.11,48,33.71,48Zm-.78-4.78V41.56H31.1c-.42,0-.64-.18-.64-.56s.22-.56.64-.56h1.83V39.36H31.07c-.42,0-.64-.19-.64-.56s.22-.56.64-.56h1.86v-.85a.56.56,0,0,1,.62-.64c.41,0,.61.21.61.64v5.79c0,.43-.2.64-.61.64A.56.56,0,0,1,32.93,43.18Z"/><path class="cls-1" d="M42.93,45.52c.42,0,.64.19.64.59a.56.56,0,0,1-.64.61H37.38c-.43,0-.64-.21-.64-.61s.21-.59.64-.59h1.37V42.44a.63.63,0,1,1,1.25,0v3.08Zm-5.43-7H42q.81,0,.75.84L42.4,43c0,.43-.25.64-.66.6s-.59-.27-.56-.72l.24-3.23H37.5c-.42,0-.64-.2-.64-.59S37.08,38.52,37.5,38.52Zm8.24.8,0,2.4H47.2a.6.6,0,0,1,0,1.2H45.79l.05,3.17c0,.44-.21.66-.62.66a.56.56,0,0,1-.63-.63l-.09-6.78c0-.43.19-.64.62-.64A.55.55,0,0,1,45.74,39.32Z"/><path class="cls-1" d="M56.42,36.54v1.58H58c.43,0,.64.19.64.56s-.21.58-.64.58h-.54a2.18,2.18,0,0,1,0,3.14,2.53,2.53,0,0,1-3.36,0,2.08,2.08,0,0,1-.68-1.59A2,2,0,0,1,54,39.26h-.69c-.42,0-.64-.19-.64-.58s.22-.56.64-.56h1.83V36.54a.63.63,0,1,1,1.25,0Zm.48,4.19a1.2,1.2,0,0,0-.32-.84,1.11,1.11,0,0,0-.84-.34,1.07,1.07,0,0,0-.83.34,1.2,1.2,0,0,0-.32.84,1.16,1.16,0,0,0,.32.83,1.07,1.07,0,0,0,.83.34,1.11,1.11,0,0,0,.84-.34A1.16,1.16,0,0,0,56.9,40.73ZM56,47.61l-.2-2.81c0-.53.16-.79.61-.79h4c.49,0,.73.27.73.8v2.77a.54.54,0,0,1-.61.61h-4C56.22,48.19,56.05,48,56,47.61Zm1-2.45L57.2,47h2.74V45.16Zm3.36-2.78v-5a.56.56,0,0,1,.63-.64c.4,0,.6.21.6.64V39l1.48.07a.6.6,0,1,1,0,1.2l-1.44-.07v2.21c0,.43-.2.64-.6.64A.56.56,0,0,1,60.43,42.38Z"/><path class="cls-1" d="M66,45.79l.51-4.23H65c-.43,0-.64-.19-.64-.57s.21-.58.64-.58h1.84c.65,0,.94.32.86,1l-.56,4.57c-.05.44-.28.64-.68.59S65.91,46.24,66,45.79Zm2.65-4.9h1.44q.94,0,.84.93l-.13,1.07h1.39V40.51c0-.4.2-.59.61-.59a.53.53,0,0,1,.61.59V46a.61.61,0,0,1-1.22,0v-2H70.62l-.25,2.18c-.06.45-.29.66-.69.62s-.58-.3-.53-.77L69.63,42h-1c-.42,0-.64-.19-.64-.58S68.2,40.89,68.62,40.89Zm5.8,5.68V40.51a.52.52,0,0,1,.6-.59c.41,0,.61.19.61.59v6.06c0,.4-.2.59-.61.59A.52.52,0,0,1,74.42,46.57Z"/><path class="cls-1" d="M80.73,38.12v2.15h1.6c.43,0,.65.19.65.57s-.22.6-.65.6H77.65c-.43,0-.64-.2-.64-.6s.21-.57.64-.57h1.84V38.12a.62.62,0,1,1,1.24,0Zm1.73,6.5a2.25,2.25,0,0,1-.69,1.68,2.31,2.31,0,0,1-1.71.67,2.35,2.35,0,0,1-1.71-.67,2.25,2.25,0,0,1-.69-1.68A2.22,2.22,0,0,1,78.35,43a2.35,2.35,0,0,1,1.71-.67,2.31,2.31,0,0,1,1.71.67A2.22,2.22,0,0,1,82.46,44.62Zm-1.21,0a1.19,1.19,0,1,0-2.37,0,1.12,1.12,0,0,0,.34.85,1.23,1.23,0,0,0,1.68,0A1.12,1.12,0,0,0,81.25,44.64Zm3.37.94V39.77a.63.63,0,1,1,1.25,0v1.87h1.79c.43,0,.64.2.64.6s-.21.6-.64.6H85.87v2.74a.63.63,0,1,1-1.25,0Z"/><path class="cls-1" d="M98.19,42.83c.43,0,.64.2.64.59s-.21.61-.64.61h-8.3c-.43,0-.64-.2-.64-.61s.21-.59.64-.59ZM91.1,37a.56.56,0,0,1,.61-.66.55.55,0,0,1,.64.61l.08,2.89,3.81-.06a.54.54,0,0,1,.62.58.51.51,0,0,1-.57.59L92.05,41a.73.73,0,0,1-.85-.79Zm.4,8.89a.55.55,0,0,1,.61-.65.55.55,0,0,1,.64.6l0,2.44,4-.08c.4,0,.61.19.62.57a.51.51,0,0,1-.57.59l-4.44.1a.72.72,0,0,1-.84-.78Z"/><path class="cls-1" d="M105.79,38.78l3-.05,0-1c0-.42.2-.64.61-.64a.56.56,0,0,1,.61.64l0,4.44a.53.53,0,0,1-.61.6h-4.18c-.4,0-.6-.2-.6-.62l0-4.4c0-.43.19-.65.59-.66s.61.2.62.61Zm3,1.12-3,.05v1.66h3ZM112.46,48l-4.35.1a.72.72,0,0,1-.85-.78l-.06-2.69a.56.56,0,0,1,.61-.66.55.55,0,0,1,.64.61l0,2.32,3.93,0a.53.53,0,0,1,.62.56C113.05,47.76,112.86,48,112.46,48Zm-.78-4.78V37.39a.56.56,0,0,1,.62-.64c.41,0,.61.21.61.64v2l1.47.07c.41,0,.61.23.59.62a.53.53,0,0,1-.62.58l-1.44-.07v2.61c0,.43-.2.64-.61.64A.56.56,0,0,1,111.68,43.18Z"/><path class="cls-1" d="M122.4,46.11l-4.4.14q-.65,0-.69-.48L117.13,43a.56.56,0,0,1,.6-.69l3-.11V40.41h-3.3c-.42,0-.64-.19-.64-.57s.22-.56.64-.56h3.75c.51,0,.76.23.76.7v2.83c0,.3-.2.46-.59.48l-3,.1.1,1.69,3.92-.09c.43,0,.65.17.66.56S122.81,46.1,122.4,46.11ZM125.81,40l.09,6.14a.56.56,0,0,1-.62.66c-.41,0-.61-.2-.63-.63l0-1.76h-1.53c-.43,0-.64-.19-.64-.57s.21-.56.64-.56h1.52l0-1.14h-1.5c-.43,0-.64-.19-.64-.58s.21-.56.64-.56h1.48V40a.55.55,0,0,1,.62-.64A.56.56,0,0,1,125.81,40Z"/><path class="cls-1" d="M134.08,40.17a2.38,2.38,0,0,1-.73,1.78,2.69,2.69,0,0,1-3.66,0,2.54,2.54,0,0,1,0-3.56,2.66,2.66,0,0,1,3.66,0A2.4,2.4,0,0,1,134.08,40.17Zm-1.2,0a1.33,1.33,0,0,0-1.36-1.36,1.28,1.28,0,0,0-1,.39,1.33,1.33,0,0,0-.38,1,1.3,1.3,0,0,0,1.35,1.35,1.33,1.33,0,0,0,1-.38A1.28,1.28,0,0,0,132.88,40.17ZM137.65,48l-4.52.1a.71.71,0,0,1-.84-.78l-.07-2.69a.56.56,0,0,1,.61-.66.55.55,0,0,1,.64.61l.05,2.32,4.08,0a.53.53,0,0,1,.62.56A.51.51,0,0,1,137.65,48Zm-.79-4.78V37.39a.56.56,0,0,1,.63-.64c.4,0,.6.21.6.64v5.79c0,.43-.2.64-.6.64A.56.56,0,0,1,136.86,43.18Z"/><path class="cls-1" d="M141.07,42.25h8.26c.42,0,.64.19.64.58s-.22.59-.64.59h-8.26c-.43,0-.64-.2-.64-.59S140.64,42.25,141.07,42.25Zm6.45-1.33-4.59.15c-.45,0-.69-.17-.71-.58l-.06-3.31a.61.61,0,0,1,.69-.7l3.88,0c.43,0,.65.2.65.58s-.21.59-.63.59l-3.33,0,0,2.24,4-.13c.43,0,.65.18.66.56S147.92,40.91,147.52,40.92Zm1.09,9.44-5.16.16c-.4,0-.61-.16-.62-.52l-.08-2.26c0-.41.19-.62.64-.64L146.8,47l0-1.35H143c-.42,0-.64-.18-.64-.56s.22-.54.64-.54h4.39a.61.61,0,0,1,.69.7v2.21c0,.39-.2.58-.6.59l-3.45.1v1.22l4.56-.1c.42,0,.63.16.64.53S149,50.35,148.61,50.36Z"/><path class="cls-1" d="M156.29,43.2a2.43,2.43,0,0,1-.71,1.76A2.52,2.52,0,0,1,152,45a2.42,2.42,0,0,1-.7-1.76,2.47,2.47,0,0,1,.7-1.78,2.5,2.5,0,0,1,3.55,0A2.48,2.48,0,0,1,156.29,43.2Zm-1.2,0a1.38,1.38,0,0,0-.37-1,1.21,1.21,0,0,0-.91-.39,1.18,1.18,0,0,0-.91.39,1.47,1.47,0,0,0,0,1.93,1.21,1.21,0,0,0,.91.38,1.24,1.24,0,0,0,.91-.38A1.37,1.37,0,0,0,155.09,43.2ZM158.21,46l0-2.26h-1c-.43,0-.64-.19-.64-.57s.21-.58.64-.58h1l0-2.48c0-.43.21-.64.61-.64s.61.21.61.64l0,5.89c0,.42-.2.64-.61.64S158.21,46.45,158.21,46Zm2.27.13V40c0-.43.2-.64.61-.64s.6.21.6.64v6.15c0,.42-.2.64-.6.64S160.48,46.58,160.48,46.16Z"/><path class="cls-1" d="M164.11,40.54l3,.05c.64,0,.92.36.83,1l-.61,4.5a.55.55,0,0,1-.7.53c-.43-.06-.61-.29-.54-.71l.56-4.2-2.61,0c-.43,0-.64-.22-.63-.61S163.68,40.53,164.11,40.54ZM170.17,46V43.87H169c-.43,0-.64-.2-.64-.59s.21-.58.64-.58h1.2l0-2.56c0-.43.21-.64.61-.64s.61.21.61.64l0,5.89c0,.42-.2.64-.61.64A.56.56,0,0,1,170.17,46Zm2.47.13V40c0-.43.2-.64.61-.64s.6.21.6.64v6.15c0,.42-.2.64-.6.64S172.64,46.58,172.64,46.16Z"/><path class="cls-1" d="M.72,69H4.61V66.89c0-.43.2-.64.61-.64s.6.21.6.64V69H9c.43,0,.64.19.64.59s-.21.61-.64.61H.72c-.43,0-.64-.21-.64-.61S.29,69,.72,69Zm.58-5.7H3.41c.54,0,.79.28.75.83L3.9,67.16c0,.45-.25.66-.65.63s-.61-.27-.58-.72l.19-2.71H1.3c-.43,0-.64-.18-.64-.56S.87,63.26,1.3,63.26ZM6.67,75.4l-.08-2.59h-4c-.42,0-.64-.2-.64-.59s.22-.58.64-.58H7a.71.71,0,0,1,.8.76l.08,3a.54.54,0,0,1-.59.63A.57.57,0,0,1,6.67,75.4ZM5.36,63.07H7.47c.55,0,.8.27.75.83l-.28,3.46c0,.43-.25.64-.66.6s-.59-.27-.56-.72l.21-3H5.36c-.43,0-.64-.19-.64-.56S4.93,63.07,5.36,63.07Z"/><path class="cls-1" d="M16.58,67.07l-.1-2.8h-.42c-.42,0-.64-.2-.64-.59s.22-.58.64-.58h5c.42,0,.64.19.64.58s-.22.59-.64.59h-.47v2.8h.59c.43,0,.64.19.64.57s-.21.58-.64.58H15.94c-.43,0-.64-.19-.64-.58s.21-.57.64-.57Zm1.13-2.8.1,2.8h1.55v-2.8Zm6.43,11-4.59.16c-.44,0-.67-.16-.69-.53l-.17-2.27c0-.42.15-.64.56-.66l3.29-.11.07-1.35H19c-.41,0-.62-.19-.62-.57s.21-.56.64-.56h4.21c.48,0,.7.24.67.72l-.21,2.37c0,.29-.23.45-.59.46l-3.2.1L20,74.3l4.12-.14c.44,0,.68.16.7.52S24.6,75.25,24.14,75.28Zm-.56-7.48-.09-4.59a.56.56,0,0,1,.62-.64c.41,0,.61.22.61.64l.1,4.59c0,.43-.21.64-.61.64A.56.56,0,0,1,23.58,67.8Z"/><path class="cls-1" d="M34.5,67a2.51,2.51,0,0,1-.8,1.91l-.32.25h0a.54.54,0,0,1,.61.61V72H36c.43,0,.64.19.64.59s-.21.61-.64.61h-8.3c-.43,0-.64-.21-.64-.61s.21-.59.64-.59H29.5V69.74a.54.54,0,0,1,.61-.61h0a3.31,3.31,0,0,1-.3-.25,2.69,2.69,0,0,1,0-3.83,2.7,2.7,0,0,1,1.92-.75,2.74,2.74,0,0,1,1.93.75A2.5,2.5,0,0,1,34.5,67Zm-1.24,0a1.44,1.44,0,0,0-1.5-1.5,1.42,1.42,0,0,0-1.07.42,1.6,1.6,0,0,0,0,2.16,1.43,1.43,0,0,0,1.07.43A1.45,1.45,0,0,0,33.26,67Zm-.4,2.45a2.87,2.87,0,0,1-1.1.21,2.84,2.84,0,0,1-1.1-.21.73.73,0,0,1,.06.32V72H32.8V69.74A.73.73,0,0,1,32.86,69.42Z"/><path class="cls-1" d="M41.38,62.54v1.58H43c.43,0,.64.19.64.56s-.21.58-.64.58h-.54a2.18,2.18,0,0,1,0,3.14,2.53,2.53,0,0,1-3.36,0,2.08,2.08,0,0,1-.68-1.59A2,2,0,0,1,39,65.26H38.3c-.42,0-.64-.19-.64-.58s.22-.56.64-.56h1.83V62.54a.63.63,0,1,1,1.25,0Zm.47,4.19a1.2,1.2,0,0,0-.31-.84,1.11,1.11,0,0,0-.84-.34,1.07,1.07,0,0,0-.83.34,1.2,1.2,0,0,0-.32.84,1.16,1.16,0,0,0,.32.83,1.07,1.07,0,0,0,.83.34,1.11,1.11,0,0,0,.84-.34A1.16,1.16,0,0,0,41.85,66.73ZM46.18,74l-4.36.1a.71.71,0,0,1-.84-.78l-.07-2.69a.56.56,0,0,1,.61-.66.55.55,0,0,1,.64.61l.05,2.32,3.92,0a.53.53,0,0,1,.62.56A.51.51,0,0,1,46.18,74Zm-.79-4.78V63.39a.56.56,0,0,1,.63-.64c.4,0,.6.21.6.64v2l1.48.07a.55.55,0,0,1,.59.62.54.54,0,0,1-.63.58l-1.44-.07v2.61c0,.43-.2.64-.6.64A.56.56,0,0,1,45.39,69.18Z"/><path class="cls-1" d="M55.71,64.78l3,0,0-1c0-.42.2-.64.61-.64a.56.56,0,0,1,.61.64l0,4.44a.53.53,0,0,1-.61.6H55.14a.54.54,0,0,1-.61-.62l-.05-4.4c0-.43.19-.65.59-.66s.61.2.63.61Zm3,1.12-3,0v1.66h3ZM62.38,74l-4.35.1a.72.72,0,0,1-.85-.78l-.06-2.69a.56.56,0,0,1,.61-.66.55.55,0,0,1,.64.61l.05,2.32,3.92,0a.53.53,0,0,1,.62.56C63,73.76,62.78,74,62.38,74Zm-.78-4.78V63.39a.56.56,0,0,1,.62-.64c.41,0,.61.21.61.64v2l1.47.07a.55.55,0,0,1,.6.62.54.54,0,0,1-.63.58l-1.44-.07v2.61c0,.43-.2.64-.61.64A.56.56,0,0,1,61.6,69.18Z"/><path class="cls-1" d="M72.32,72.11l-4.4.14q-.65,0-.69-.48L67.06,69a.55.55,0,0,1,.59-.69l3-.11V66.41h-3.3c-.42,0-.64-.19-.64-.57s.22-.56.64-.56h3.75c.51,0,.77.23.77.7l0,2.83c0,.3-.2.46-.59.48l-3,.1.09,1.69L72.27,71c.43,0,.65.17.66.56S72.74,72.1,72.32,72.11ZM75.73,66l.09,6.14a.56.56,0,0,1-.62.66c-.41,0-.61-.2-.62-.63l0-1.76H73c-.43,0-.64-.19-.64-.57s.21-.56.64-.56h1.52l0-1.14H73c-.43,0-.64-.19-.64-.58S72.58,67,73,67H74.5l0-1a.55.55,0,0,1,.62-.64A.56.56,0,0,1,75.73,66Z"/><path class="cls-1" d="M79.52,63.24l3.44,0c.64,0,.92.36.83,1.06l-.51,3.87A.63.63,0,1,1,82,68.08l.47-3.62-3,0c-.43,0-.64-.21-.63-.61S79.09,63.23,79.52,63.24Zm8,10.72-4.51.1c-.56,0-.84-.24-.85-.78l-.07-2.69a.56.56,0,0,1,.61-.66.55.55,0,0,1,.64.61l0,2.32,4.08,0a.53.53,0,0,1,.62.56A.51.51,0,0,1,87.57,74Zm-.79-4.78V67.56H85c-.43,0-.64-.18-.64-.56s.21-.56.64-.56h1.82V65.36H84.93c-.43,0-.64-.19-.64-.56s.21-.56.64-.56h1.85v-.85a.56.56,0,0,1,.63-.64c.4,0,.61.21.61.64v5.79c0,.43-.21.64-.61.64A.56.56,0,0,1,86.78,69.18Z"/><path class="cls-1" d="M97.93,63.6l-.72,2,3.28,2.18c.4.27.48.56.26.9s-.53.34-.93.08l-3-2-.64,1.83c-.17.47-.45.64-.85.53s-.54-.44-.38-.93l1.76-5c.17-.5.46-.68.88-.53S98.08,63.16,97.93,63.6Zm5,10.36-4.35.1c-.56,0-.84-.24-.85-.78l-.06-2.69q0-.65.6-.66a.55.55,0,0,1,.64.61l0,2.32,3.92,0c.41,0,.62.18.63.56S103.31,74,102.91,74Zm-.78-4.78V63.39c0-.43.2-.64.62-.64s.61.21.61.64v2l1.47.07a.54.54,0,0,1,.59.62.53.53,0,0,1-.62.58l-1.44-.07v2.61c0,.43-.2.64-.61.64S102.13,69.61,102.13,69.18Z"/><path class="cls-1" d="M109.61,62v1.49l.55,0a.92.92,0,0,1,.88.38.76.76,0,0,1,0,.82l-1.24,1.84L112,67.92c.44.28.54.59.32.91s-.56.36-1,.08l-2.16-1.38-1,1.46c-.28.4-.58.5-.91.3s-.38-.51-.1-.93l2.46-3.69-2.43,0c-.42,0-.64-.19-.64-.58s.22-.55.64-.56l1.19,0V62c0-.43.2-.64.62-.64S109.61,61.6,109.61,62ZM115,73.76l-.08-2.5h-4c-.43,0-.64-.2-.64-.59s.21-.58.64-.58h4.43a.7.7,0,0,1,.8.75l.08,2.88a.54.54,0,0,1-.59.63A.56.56,0,0,1,115,73.76Zm.86-7.43h-1.56v1.73c0,.43-.21.64-.61.64s-.61-.21-.61-.64V63.31c0-.43.2-.64.61-.64s.61.21.61.64v1.87h1.56V63.31c0-.43.21-.64.61-.64s.61.21.61.64v4.81c0,.43-.2.64-.61.64s-.61-.21-.61-.64Z"/><path class="cls-1" d="M128.64,69.2a2.42,2.42,0,0,1-.75,1.79,2.7,2.7,0,0,1-3.69,0,2.52,2.52,0,0,1,0-3.59,2.64,2.64,0,0,1,3.69,0A2.42,2.42,0,0,1,128.64,69.2Zm-1.2,0a1.35,1.35,0,0,0-.4-1,1.38,1.38,0,0,0-1-.4,1.35,1.35,0,0,0-1,.4,1.38,1.38,0,0,0-.39,1,1.33,1.33,0,0,0,1.38,1.37,1.37,1.37,0,0,0,1-.39A1.3,1.3,0,0,0,127.44,69.2Zm5-3.2.1,6.14a.57.57,0,0,1-.63.66c-.4,0-.61-.2-.62-.63l0-2.38h-1.57c-.43,0-.64-.2-.64-.59s.21-.58.64-.58h1.55l0-2.61a.63.63,0,1,1,1.25,0Z"/><path class="cls-1" d="M135.57,68.25h8.25c.43,0,.64.19.64.58s-.21.59-.64.59h-8.25c-.43,0-.64-.2-.64-.59S135.14,68.25,135.57,68.25Zm2-2.29-.09-2.33H137c-.42,0-.64-.2-.64-.59s.22-.58.64-.58h5.16c.42,0,.64.19.64.58s-.22.59-.64.59h-.56V66h.68c.43,0,.64.2.64.58s-.21.58-.64.58h-5.4c-.43,0-.64-.2-.64-.58s.21-.58.64-.58Zm5.52,10.4-5.15.16c-.41,0-.61-.16-.62-.52l-.08-2.26c0-.41.19-.62.64-.64l3.4-.11V71.64h-3.81c-.43,0-.64-.18-.64-.56s.21-.54.64-.54h4.38a.61.61,0,0,1,.69.7v2.21A.53.53,0,0,1,142,74l-3.46.1,0,1.22,4.56-.1c.42,0,.63.16.64.53S143.52,76.35,143.1,76.36Zm-4.38-12.73.09,2.33h1.52V63.63Z"/><path class="cls-1" d="M152,72.11l-4.4.14q-.65,0-.69-.48L146.7,69a.56.56,0,0,1,.59-.69l3-.11V66.41H147c-.43,0-.64-.19-.64-.57s.21-.56.64-.56h3.74c.52,0,.77.23.77.7v2.83q0,.45-.6.48l-3,.1.1,1.69,3.92-.09c.43,0,.64.17.65.56S152.38,72.1,152,72.11ZM155.34,66l.1,6.14a.57.57,0,0,1-.63.66c-.4,0-.61-.2-.62-.63l-.1-6.16a.63.63,0,1,1,1.25,0Z"/><path class="cls-1" d="M158.61,66.54l3.07,0c.64,0,.92.36.83,1l-.61,4.58a.63.63,0,0,1-1.25-.18l.23-1.69h-2.13c-.43,0-.64-.18-.64-.56s.21-.56.64-.56l2.27,0,.19-1.45-2.64-.05c-.42,0-.63-.22-.62-.61S158.18,66.53,158.61,66.54ZM164.67,72l0-2.16h-1.2c-.42,0-.64-.2-.64-.59s.22-.58.64-.58h1.2V66.14c0-.43.2-.64.61-.64s.6.21.6.64l0,5.89a.56.56,0,0,1-.61.64C164.87,72.67,164.67,72.45,164.67,72Zm2.46.13V66c0-.43.21-.64.61-.64s.61.21.61.64v6.15c0,.42-.2.64-.61.64A.56.56,0,0,1,167.13,72.16Z"/><path class="cls-1" d="M175.84,69.2a2.42,2.42,0,0,1-.75,1.79,2.7,2.7,0,0,1-3.69,0,2.52,2.52,0,0,1,0-3.59,2.64,2.64,0,0,1,3.69,0A2.42,2.42,0,0,1,175.84,69.2Zm-1.2,0a1.37,1.37,0,0,0-1.39-1.4,1.35,1.35,0,0,0-1,.4,1.38,1.38,0,0,0-.39,1,1.33,1.33,0,0,0,1.38,1.37,1.37,1.37,0,0,0,1-.39A1.34,1.34,0,0,0,174.64,69.2Zm5-3.2.1,6.14a.57.57,0,0,1-.63.66c-.4,0-.61-.2-.62-.63l-.1-6.16a.63.63,0,1,1,1.25,0Z"/><path class="cls-1" d="M186,63.6l-.72,2,3.28,2.18c.4.27.48.56.26.9s-.54.34-.93.08l-3-2-.64,1.83c-.17.47-.46.64-.85.53s-.55-.44-.39-.93l1.76-5c.17-.5.47-.68.88-.53S186.13,63.16,186,63.6ZM191.5,74l-4.51.1a.72.72,0,0,1-.85-.78l-.06-2.69a.56.56,0,0,1,.61-.66.55.55,0,0,1,.64.61l0,2.32,4.08,0c.41,0,.62.18.63.56S191.9,74,191.5,74Zm-.78-4.78V67.07h-2.11c-.43,0-.64-.19-.64-.56s.21-.55.64-.55h2.11v-.73h-2.24c-.43,0-.64-.19-.64-.56s.21-.55.64-.55h2.24v-.73a.56.56,0,0,1,.62-.64c.41,0,.61.21.61.64v5.79c0,.43-.2.64-.61.64A.56.56,0,0,1,190.72,69.18Z"/><path class="cls-1" d="M204.14,65.93a2.38,2.38,0,0,1-.73,1.78,2.48,2.48,0,0,1-1.83.72,2.51,2.51,0,0,1-1.83-.72,2.54,2.54,0,0,1,0-3.56,2.48,2.48,0,0,1,1.83-.73,2.45,2.45,0,0,1,1.83.73A2.4,2.4,0,0,1,204.14,65.93Zm-1.2,0a1.32,1.32,0,0,0-1.36-1.36,1.3,1.3,0,0,0-1,.39,1.32,1.32,0,0,0-.37,1,1.3,1.3,0,0,0,.37,1,1.33,1.33,0,0,0,1,.38,1.35,1.35,0,0,0,1-.38A1.31,1.31,0,0,0,202.94,65.93Zm.47,4.77,3,0V70c0-.42.2-.64.61-.64s.58.22.59.64l0,3.38a.54.54,0,0,1-.61.61h-4.2c-.41,0-.61-.21-.61-.63l-.05-3.34c0-.43.19-.65.59-.66s.6.2.61.61Zm3,1.06-3,0,0,1.08h3Zm.48-3.78V63.15c0-.43.2-.64.62-.64s.61.21.61.64V68c0,.43-.2.64-.61.64S206.93,68.41,206.93,68Z"/><path class="cls-1" d="M211.49,67.1q0-.64.6-.66a.55.55,0,0,1,.64.61l.08,4,3.51-.06a.54.54,0,0,1,.62.58.51.51,0,0,1-.57.59l-3.94.08a.73.73,0,0,1-.85-.79Zm8.7-1.1.1,6.14a.57.57,0,0,1-.63.66c-.4,0-.61-.2-.62-.63l-.1-6.16a.63.63,0,1,1,1.25,0Z"/><path class="cls-1" d="M228.22,72.22l-4.27.06c-.46,0-.69-.19-.7-.6l-.08-4.48a.61.61,0,0,1,.68-.71l3.84,0c.43,0,.64.19.64.58s-.2.59-.62.59l-3.28.05,0,3.44,3.68-.05c.42,0,.64.18.65.56S228.63,72.21,228.22,72.22ZM231.47,66l0,2h1.79c.43,0,.64.2.64.6s-.21.6-.64.6h-1.77l0,2.9a.57.57,0,0,1-.63.66c-.4,0-.61-.2-.62-.63l-.1-6.16a.63.63,0,1,1,1.25,0Z"/><path class="cls-1" d="M236.93,72.4a.88.88,0,0,1-.3.66,1,1,0,0,1-.71.28,1,1,0,0,1-.71-.28.89.89,0,0,1,0-1.33,1,1,0,0,1,.71-.28,1,1,0,0,1,.71.28A.89.89,0,0,1,236.93,72.4Z"/><path class="cls-1" d="M1.86,90.78l3,0v-1c0-.42.2-.64.6-.64s.61.22.61.64l0,4.44a.53.53,0,0,1-.6.6H1.28a.54.54,0,0,1-.61-.62l-.05-4.4q0-.64.6-.66a.55.55,0,0,1,.62.61Zm3,1.12-3,0,0,1.66h3ZM8.53,100l-4.35.1c-.56,0-.84-.24-.85-.78l-.07-2.69a.56.56,0,0,1,.61-.66.55.55,0,0,1,.64.61l0,2.32,3.92,0a.53.53,0,0,1,.62.56A.51.51,0,0,1,8.53,100Zm-.79-4.78V89.39a.56.56,0,0,1,.63-.64c.4,0,.61.21.61.64v2l1.47.07a.55.55,0,0,1,.59.62.53.53,0,0,1-.62.58L9,92.57v2.61c0,.43-.21.64-.61.64A.56.56,0,0,1,7.74,95.18Z"/><path class="cls-1" d="M18.46,98.11l-4.4.14c-.42,0-.65-.14-.68-.48L13.2,95a.56.56,0,0,1,.59-.69l3-.11V92.41H13.49c-.43,0-.64-.19-.64-.57s.21-.56.64-.56h3.74c.51,0,.77.23.77.7l0,2.83c0,.3-.19.46-.59.48l-3,.1.1,1.69L18.42,97c.42,0,.64.17.65.56S18.88,98.1,18.46,98.11ZM21.87,92l.1,6.14a.57.57,0,0,1-.63.66c-.4,0-.61-.2-.62-.63l0-1.76H19.15c-.42,0-.64-.19-.64-.57s.22-.56.64-.56h1.52V94.14H19.15c-.42,0-.64-.19-.64-.58s.22-.56.64-.56h1.49l0-1a.63.63,0,1,1,1.25,0Z"/><path class="cls-1" d="M31.42,93l-1.69,0v2.29h3.5c.43,0,.64.2.64.59s-.21.61-.64.61H25c-.43,0-.64-.2-.64-.61s.21-.59.64-.59h3.5V93.05l-1.65,0c-.45,0-.68-.17-.7-.58l-.07-3.34a.61.61,0,0,1,.69-.7l3.89,0c.43,0,.64.2.64.58s-.21.59-.62.59l-3.33,0,0,2.27,4-.13c.43,0,.64.18.66.56S31.83,93,31.42,93Zm.34,6.88a2.05,2.05,0,0,1-.19.88,2.66,2.66,0,0,1-.51.73,2.7,2.7,0,0,1-.75.49,2.34,2.34,0,0,1-1.8,0,2.46,2.46,0,0,1-.73-.49,2.5,2.5,0,0,1-.52-.73,2.21,2.21,0,0,1-.19-.88,2.17,2.17,0,0,1,.19-.88,2.42,2.42,0,0,1,.52-.74,2.46,2.46,0,0,1,.73-.49,2.34,2.34,0,0,1,1.8,0,2.7,2.7,0,0,1,.75.49,2.57,2.57,0,0,1,.51.74A2,2,0,0,1,31.76,99.84Zm-1.23,0a1.16,1.16,0,0,0-.31-.8,1,1,0,0,0-.81-.34,1,1,0,0,0-.8.34,1.12,1.12,0,0,0-.31.8,1.13,1.13,0,0,0,.31.8,1,1,0,0,0,.8.33,1.07,1.07,0,0,0,.81-.33A1.18,1.18,0,0,0,30.53,99.84Z"/><path class="cls-1" d="M35.7,94.12H44c.43,0,.64.2.64.58s-.21.59-.64.59h-3.5v1.25H42a.61.61,0,0,1,.69.7v2.21a.53.53,0,0,1-.59.59l-3.46.1,0,1.22,4.56-.1c.42,0,.63.16.64.53s-.19.56-.61.57l-5.15.16c-.41,0-.61-.16-.62-.52l-.08-2.26c0-.41.19-.62.64-.64l3.4-.11V97.64H37.6c-.43,0-.64-.18-.64-.56s.21-.54.64-.54h1.6V95.29H35.7c-.43,0-.64-.2-.64-.59S35.27,94.12,35.7,94.12Zm1.36-1.66-.23-3.22c0-.52.16-.78.61-.78h4.29c.49,0,.73.27.73.8v3.17a.54.54,0,0,1-.6.61H37.58C37.26,93,37.09,92.84,37.06,92.46Zm1-2.85.16,2.27h2.95V89.61Z"/><path class="cls-1" d="M50.91,95.2a2.42,2.42,0,0,1-.7,1.76,2.52,2.52,0,0,1-3.55,0A2.43,2.43,0,0,1,46,95.2a2.48,2.48,0,0,1,.71-1.78,2.5,2.5,0,0,1,3.55,0A2.47,2.47,0,0,1,50.91,95.2Zm-1.2,0a1.34,1.34,0,0,0-.37-1,1.2,1.2,0,0,0-.91-.39,1.17,1.17,0,0,0-.9.39,1.47,1.47,0,0,0,0,1.93,1.2,1.2,0,0,0,.9.38,1.22,1.22,0,0,0,.91-.38A1.33,1.33,0,0,0,49.71,95.2ZM52.83,98V95.77h-1c-.43,0-.64-.19-.64-.57s.21-.58.64-.58h1l0-2.48c0-.43.2-.64.61-.64s.61.21.61.64l0,5.89a.56.56,0,0,1-.61.64C53,98.67,52.83,98.45,52.83,98Zm2.27.13V92c0-.43.21-.64.61-.64s.61.21.61.64v6.15c0,.42-.2.64-.61.64A.56.56,0,0,1,55.1,98.16Z"/><path class="cls-1" d="M67,98.22l-3.83.06c-.46,0-.69-.19-.7-.6l-.08-4.48a.62.62,0,0,1,.69-.71l3.39,0c.42,0,.64.19.64.58s-.21.59-.63.59l-2.83.05,0,3.44,3.23-.05c.43,0,.65.18.66.56S67.38,98.21,67,98.22Zm4.33-.06V95.52H69.76l0,2.51a.56.56,0,0,1-.61.64c-.41,0-.61-.22-.61-.64l0-5.89c0-.43.2-.64.61-.64s.6.21.6.64l0,2.21h1.55V92c0-.43.2-.64.61-.64s.61.21.61.64v6.15a.56.56,0,0,1-.61.64C71.51,98.8,71.31,98.58,71.31,98.16Z"/><path class="cls-1" d="M77.85,88.54v1.58h1.59c.43,0,.64.19.64.56s-.21.58-.64.58H78.9a2.18,2.18,0,0,1,0,3.14,2.52,2.52,0,0,1-3.36,0,2.08,2.08,0,0,1-.68-1.59,2,2,0,0,1,.65-1.55h-.69c-.42,0-.64-.19-.64-.58s.22-.56.64-.56h1.83V88.54a.56.56,0,0,1,.62-.64C77.65,87.9,77.85,88.11,77.85,88.54Zm.48,4.19a1.2,1.2,0,0,0-.31-.84,1.11,1.11,0,0,0-.84-.34,1.07,1.07,0,0,0-.83.34,1.2,1.2,0,0,0-.32.84,1.16,1.16,0,0,0,.32.83,1.07,1.07,0,0,0,.83.34,1.11,1.11,0,0,0,.84-.34A1.16,1.16,0,0,0,78.33,92.73ZM82.66,100l-4.36.1a.71.71,0,0,1-.84-.78l-.07-2.69a.56.56,0,0,1,.61-.66.55.55,0,0,1,.64.61l0,2.32,3.92,0a.53.53,0,0,1,.62.56A.51.51,0,0,1,82.66,100Zm-.79-4.78V89.39a.56.56,0,0,1,.63-.64c.4,0,.6.21.6.64v2l1.48.07a.55.55,0,0,1,.59.62.54.54,0,0,1-.63.58l-1.44-.07v2.61c0,.43-.2.64-.6.64A.56.56,0,0,1,81.87,95.18Z"/><path class="cls-1" d="M91.69,92.54l3.36,0q1,0,.84,1l-.61,4.5A.63.63,0,0,1,94,98l.56-4.2-2.93-.05c-.42,0-.63-.22-.62-.61S91.27,92.53,91.69,92.54Zm8.36-.54.09,6.14a.56.56,0,0,1-.62.66c-.41,0-.61-.2-.63-.63L98.8,92a.55.55,0,0,1,.62-.64A.56.56,0,0,1,100.05,92Z"/><path class="cls-1" d="M110,93.52l-2.07.06v1.7h3.51c.42,0,.64.19.64.59a.56.56,0,0,1-.64.61h-8.26c-.43,0-.64-.21-.64-.61s.21-.59.64-.59h3.5V93.63l-1.55.05c-.4,0-.61-.17-.62-.53l-.08-2.07c0-.42.19-.65.64-.67l3.41-.11,0-1h-3.81c-.42,0-.64-.2-.64-.58s.22-.56.64-.56H109c.46,0,.68.23.68.7v2a.53.53,0,0,1-.59.6l-3.45.1v1l4.28-.1c.41,0,.62.17.63.55S110.38,93.5,110,93.52Zm-.8,8.09-.08-2.43h-4c-.43,0-.64-.2-.64-.59s.21-.58.64-.58h4.41a.7.7,0,0,1,.8.75l.09,2.82a.54.54,0,0,1-.6.62A.56.56,0,0,1,109.17,101.61Z"/><path class="cls-1" d="M113.87,94.25h8.26c.42,0,.64.19.64.58s-.22.59-.64.59h-8.26c-.43,0-.64-.2-.64-.59S113.44,94.25,113.87,94.25Zm6.45-1.33-4.59.15c-.45,0-.69-.17-.71-.58L115,89.18a.61.61,0,0,1,.69-.7l3.88,0c.43,0,.64.2.64.58s-.2.59-.62.59l-3.33,0,0,2.24,4-.13c.43,0,.65.18.66.56S120.72,92.91,120.32,92.92Zm1.09,9.44-5.16.16c-.4,0-.61-.16-.62-.52l-.08-2.26c0-.41.19-.62.64-.64L119.6,99l0-1.35h-3.81c-.42,0-.64-.18-.64-.56s.22-.54.64-.54h4.39a.61.61,0,0,1,.69.7v2.21c0,.39-.2.58-.6.59l-3.45.1v1.22l4.56-.1c.42,0,.63.16.64.53S121.82,102.35,121.41,102.36Z"/><path class="cls-1" d="M124.59,94.25h8.26c.42,0,.64.19.64.58s-.22.59-.64.59h-8.26c-.43,0-.64-.2-.64-.59S124.16,94.25,124.59,94.25Zm7.54,8.11-5.16.16c-.4,0-.61-.16-.62-.52l-.08-2.26c0-.41.19-.62.64-.64l3.41-.11,0-1.35h-3.81c-.42,0-.64-.18-.64-.56s.22-.54.64-.54h4.39a.61.61,0,0,1,.69.7v2.21c0,.39-.2.58-.6.59l-3.45.1v1.22l4.56-.1c.42,0,.63.16.64.53S132.54,102.35,132.13,102.36Zm-.9-11.52a2.27,2.27,0,0,1-.72,1.68,2.45,2.45,0,0,1-1.76.69,2.38,2.38,0,0,1-1.73-.69,2.29,2.29,0,0,1-.7-1.68,2.32,2.32,0,0,1,.7-1.71,2.35,2.35,0,0,1,1.73-.7,2.42,2.42,0,0,1,1.76.7A2.3,2.3,0,0,1,131.23,90.84Zm-1.22,0a1.19,1.19,0,0,0-.37-.88,1.23,1.23,0,0,0-.89-.38,1.12,1.12,0,0,0-.85.38,1.19,1.19,0,0,0-.37.88,1.25,1.25,0,0,0,1.22,1.22,1.25,1.25,0,0,0,.89-.36A1.15,1.15,0,0,0,130,90.84Z"/><path class="cls-1" d="M3.73,116.12v2.15h1.6c.42,0,.64.19.64.57s-.22.6-.64.6H.64c-.43,0-.64-.2-.64-.6s.21-.57.64-.57H2.48v-2.15a.56.56,0,0,1,.62-.64A.56.56,0,0,1,3.73,116.12Zm1.73,6.5a2.25,2.25,0,0,1-.69,1.68,2.35,2.35,0,0,1-1.71.67,2.35,2.35,0,0,1-1.72-.67,2.25,2.25,0,0,1-.68-1.68A2.21,2.21,0,0,1,1.34,121a2.35,2.35,0,0,1,1.72-.67,2.35,2.35,0,0,1,1.71.67A2.22,2.22,0,0,1,5.46,122.62Zm-1.22,0a1.2,1.2,0,0,0-.34-.87,1.17,1.17,0,0,0-.84-.33,1.15,1.15,0,0,0-.84.33,1.17,1.17,0,0,0-.35.87,1.12,1.12,0,0,0,.35.85,1.15,1.15,0,0,0,.84.33,1.17,1.17,0,0,0,.84-.33A1.15,1.15,0,0,0,4.24,122.64Zm3.38.94v-5.81c0-.43.2-.64.62-.64s.62.21.62.64v1.87h1.8c.42,0,.64.2.64.6s-.22.6-.64.6H8.86v2.74c0,.43-.2.64-.62.64S7.62,124,7.62,123.58Z"/><path class="cls-1" d="M12.75,119.1a.56.56,0,0,1,.61-.66.55.55,0,0,1,.64.61l.08,4,3.47-.06c.41,0,.62.19.63.58a.52.52,0,0,1-.58.59l-3.9.08a.73.73,0,0,1-.85-.79ZM21,118l0,2h1.8c.42,0,.64.2.64.6s-.22.6-.64.6H21l.05,2.9a.57.57,0,0,1-.63.66c-.4,0-.61-.2-.62-.63l-.1-6.16A.63.63,0,1,1,21,118Z"/><path class="cls-1" d="M31.2,123.44c.43,0,.64.19.64.59s-.21.61-.64.61H25.52c-.43,0-.64-.21-.64-.61s.21-.59.64-.59Zm-.34-4.37a2.44,2.44,0,0,1-.77,1.83,2.71,2.71,0,0,1-3.7,0,2.57,2.57,0,0,1,0-3.67,2.68,2.68,0,0,1,3.7,0A2.44,2.44,0,0,1,30.86,119.07Zm-1.2,0a1.39,1.39,0,0,0-.4-1,1.45,1.45,0,0,0-2,0,1.42,1.42,0,0,0-.39,1,1.4,1.4,0,0,0,.39,1,1.42,1.42,0,0,0,2.44-1Zm4.39-1.75.09,6.77c0,.44-.2.66-.62.66a.55.55,0,0,1-.62-.63l-.1-6.78a.63.63,0,1,1,1.25,0Z"/><path class="cls-1" d="M46.42,121.2a2.42,2.42,0,0,1-.75,1.79A2.7,2.7,0,0,1,42,123a2.52,2.52,0,0,1,0-3.59,2.64,2.64,0,0,1,3.69,0A2.42,2.42,0,0,1,46.42,121.2Zm-1.2,0a1.38,1.38,0,0,0-1.4-1.4,1.34,1.34,0,0,0-1,.4,1.38,1.38,0,0,0-.39,1,1.39,1.39,0,0,0,2.36,1A1.31,1.31,0,0,0,45.22,121.2Zm5-3.2.09,6.14a.56.56,0,0,1-.62.66c-.4,0-.61-.2-.62-.63l0-2.38H47.49c-.43,0-.64-.2-.64-.59s.21-.58.64-.58H49L49,118a.63.63,0,1,1,1.25,0Z"/><path class="cls-1" d="M53.34,120.25H61.6c.43,0,.64.19.64.58s-.21.59-.64.59H53.34c-.42,0-.64-.2-.64-.59S52.92,120.25,53.34,120.25Zm2-2.29-.1-2.33h-.51c-.43,0-.64-.2-.64-.59s.21-.58.64-.58H59.9c.43,0,.64.19.64.58s-.21.59-.64.59h-.56V118H60c.43,0,.64.2.64.58s-.21.58-.64.58H54.62c-.42,0-.64-.2-.64-.58s.22-.58.64-.58Zm5.52,10.4-5.15.16c-.41,0-.62-.16-.63-.52L55,125.74c0-.41.2-.62.64-.64l3.41-.11v-1.35H55.25c-.43,0-.64-.18-.64-.56s.21-.54.64-.54h4.38a.61.61,0,0,1,.69.7v2.21a.53.53,0,0,1-.59.59l-3.46.1,0,1.22,4.56-.1c.41,0,.63.16.64.53S61.3,128.35,60.88,128.36ZM56.5,115.63l.09,2.33h1.52v-2.33Z"/><path class="cls-1" d="M68.56,121.2a2.43,2.43,0,0,1-.71,1.76,2.52,2.52,0,0,1-3.55,0,2.42,2.42,0,0,1-.7-1.76,2.47,2.47,0,0,1,.7-1.78,2.5,2.5,0,0,1,3.55,0A2.48,2.48,0,0,1,68.56,121.2Zm-1.2,0a1.34,1.34,0,0,0-.37-1,1.2,1.2,0,0,0-.91-.39,1.21,1.21,0,0,0-.91.39,1.47,1.47,0,0,0,0,1.93,1.24,1.24,0,0,0,.91.38,1.22,1.22,0,0,0,.91-.38A1.33,1.33,0,0,0,67.36,121.2ZM70.48,124l0-2.26h-1c-.42,0-.64-.19-.64-.57s.22-.58.64-.58h1v-2.48c0-.43.2-.64.61-.64s.6.21.6.64l0,5.89c0,.42-.2.64-.6.64S70.48,124.45,70.48,124Zm2.27.13V118c0-.43.2-.64.61-.64s.61.21.61.64v6.15a.56.56,0,0,1-.61.64C73,124.8,72.75,124.58,72.75,124.16Z"/><path class="cls-1" d="M79.49,118.92l-.75,2.21,3.32,2.24c.4.27.48.57.26.9s-.53.34-.93.08l-3.06-2-.63,1.87c-.18.47-.46.65-.85.53s-.55-.44-.39-.93l1.78-5.23c.17-.5.46-.68.88-.53A.59.59,0,0,1,79.49,118.92Zm5.79-.92.1,6.14a.57.57,0,0,1-.63.66c-.4,0-.61-.2-.62-.63l0-2.49H81.66c-.42,0-.64-.2-.64-.6s.22-.57.64-.57h2.4l0-2.5a.63.63,0,1,1,1.25,0Z"/><path class="cls-1" d="M92.72,118.54l3.36,0c.64,0,.92.36.83,1l-.61,4.5a.55.55,0,0,1-.7.53c-.43-.06-.61-.29-.54-.71l.56-4.2-2.93-.05c-.43,0-.64-.22-.63-.61S92.29,118.53,92.72,118.54Zm7.89-.54,0,2h1.79c.43,0,.64.2.64.6s-.21.6-.64.6h-1.77l0,2.9a.56.56,0,0,1-.62.66c-.41,0-.61-.2-.62-.63l-.1-6.16a.55.55,0,0,1,.62-.64A.56.56,0,0,1,100.61,118Z"/><path class="cls-1" d="M104.59,120.91h8.26c.42,0,.64.2.64.59s-.22.61-.64.61h-8.26c-.43,0-.64-.2-.64-.61S104.16,120.91,104.59,120.91Zm1.28-6a.56.56,0,0,1,.61-.66.55.55,0,0,1,.64.61l.08,2.89,3.81-.06a.54.54,0,0,1,.62.58c0,.38-.18.58-.58.59l-4.24.08a.73.73,0,0,1-.84-.79Zm5.51,10.88a2.06,2.06,0,0,1-.2.88,2.66,2.66,0,0,1-.51.73,2.51,2.51,0,0,1-.74.49,2.34,2.34,0,0,1-.91.18,2.18,2.18,0,0,1-.89-.18,2.51,2.51,0,0,1-.74-.49,2.66,2.66,0,0,1-.51-.73,2.05,2.05,0,0,1-.19-.88,2,2,0,0,1,.19-.88,2.57,2.57,0,0,1,.51-.74,2.51,2.51,0,0,1,.74-.49,2.18,2.18,0,0,1,.89-.18,2.34,2.34,0,0,1,.91.18,2.51,2.51,0,0,1,.74.49,2.57,2.57,0,0,1,.51.74A2,2,0,0,1,111.38,125.84Zm-1.24,0a1.12,1.12,0,0,0-.31-.8,1,1,0,0,0-.81-.34,1,1,0,0,0-.8.34,1.15,1.15,0,0,0-.3.8,1.17,1.17,0,0,0,.3.8,1,1,0,0,0,.8.33,1.07,1.07,0,0,0,.81-.33A1.13,1.13,0,0,0,110.14,125.84Z"/><path class="cls-1" d="M118.38,116.12v2.15H120c.43,0,.64.19.64.57s-.21.6-.64.6h-4.69q-.63,0-.63-.6t.63-.57h1.85v-2.15a.62.62,0,1,1,1.24,0Zm1.73,6.5a2.25,2.25,0,0,1-.69,1.68,2.52,2.52,0,0,1-3.42,0,2.25,2.25,0,0,1-.69-1.68A2.22,2.22,0,0,1,116,121a2.52,2.52,0,0,1,3.42,0A2.22,2.22,0,0,1,120.11,122.62Zm-1.21,0a1.19,1.19,0,1,0-2.37,0,1.12,1.12,0,0,0,.34.85,1.23,1.23,0,0,0,1.68,0A1.12,1.12,0,0,0,118.9,122.64Zm3.37.94v-5.81a.63.63,0,1,1,1.25,0v1.87h1.79c.43,0,.64.2.64.6s-.21.6-.64.6h-1.79v2.74a.63.63,0,1,1-1.25,0Z"/><path class="cls-1" d="M134.17,121.5l-1.63,0V124h3.3c.43,0,.64.19.64.59s-.21.61-.64.61h-8.31a.56.56,0,0,1-.64-.61c0-.4.22-.59.64-.59h3.76v-2.42l-2.06.06c-.45,0-.68-.17-.7-.57l-.07-4a.61.61,0,0,1,.69-.7l4.24,0c.43,0,.64.2.64.58s-.21.59-.62.59l-3.68,0,0,2.9,4.35-.13c.43,0,.65.17.66.56S134.58,121.49,134.17,121.5Z"/><path class="cls-1" d="M145,119.52l-2.07.06v1.7h3.51c.42,0,.64.19.64.59a.56.56,0,0,1-.64.61h-8.26c-.43,0-.64-.21-.64-.61s.21-.59.64-.59h3.5v-1.65l-1.55.05c-.4,0-.61-.17-.62-.53l-.08-2.07c0-.42.19-.65.64-.67l3.41-.11,0-1h-3.81c-.42,0-.64-.2-.64-.58s.22-.56.64-.56h4.39c.46,0,.68.23.68.7v2a.53.53,0,0,1-.59.6l-3.45.1v1l4.28-.1c.41,0,.62.17.63.55S145.42,119.5,145,119.52Zm-.8,8.09-.08-2.43h-4c-.43,0-.64-.2-.64-.59s.21-.58.64-.58h4.41a.71.71,0,0,1,.81.75l.08,2.82a.54.54,0,0,1-.6.62A.56.56,0,0,1,144.21,127.61Z"/><path class="cls-1" d="M6,150.22l-4.31.06c-.46,0-.69-.19-.7-.6L.93,145.2a.62.62,0,0,1,.69-.71l3.87,0c.42,0,.64.19.64.58s-.21.59-.63.59l-3.31.05.05,3.44L6,149.07c.43,0,.65.18.66.56S6.42,150.21,6,150.22ZM9.71,144l.1,6.14a.57.57,0,0,1-.63.66c-.4,0-.61-.2-.62-.63L8.46,144a.55.55,0,0,1,.63-.64A.55.55,0,0,1,9.71,144Z"/><path class="cls-1" d="M16.37,144.09a.92.92,0,0,1,.88.39.75.75,0,0,1,0,.81l-1.56,2.4,2.64,1.68c.4.26.49.55.28.88s-.53.37-.93.11L15,148.67l-1.15,1.76a.59.59,0,0,1-.88.25c-.34-.2-.38-.49-.13-.88l3-4.54-2.88.05c-.42,0-.64-.19-.64-.56s.23-.57.68-.58ZM21,144l0,2h1.8c.42,0,.64.2.64.6s-.22.6-.64.6H21l.05,2.9a.57.57,0,0,1-.63.66c-.4,0-.61-.2-.62-.63l-.1-6.16A.63.63,0,1,1,21,144Z"/><path class="cls-1" d="M30.14,144.17a2.41,2.41,0,0,1-.72,1.78,2.7,2.7,0,0,1-3.67,0,2.54,2.54,0,0,1,0-3.56,2.67,2.67,0,0,1,3.67,0A2.43,2.43,0,0,1,30.14,144.17Zm-1.2,0a1.29,1.29,0,0,0-.38-1,1.32,1.32,0,0,0-1-.39,1.27,1.27,0,0,0-1,.39,1.29,1.29,0,0,0-.38,1,1.27,1.27,0,0,0,.38,1,1.3,1.3,0,0,0,1,.38,1.35,1.35,0,0,0,1-.38A1.27,1.27,0,0,0,28.94,144.17ZM33.71,152l-4.51.1a.72.72,0,0,1-.85-.78l-.06-2.69a.63.63,0,1,1,1.25-.05l0,2.32,4.08-.05c.41,0,.62.18.63.56S34.11,152,33.71,152Zm-.78-4.78v-5.79a.56.56,0,0,1,.62-.64c.41,0,.61.21.61.64v5.79c0,.43-.2.64-.61.64A.56.56,0,0,1,32.93,147.18Z"/><path class="cls-1" d="M43.94,142.16v2.14h1.4c.43,0,.64.19.64.58s-.21.59-.64.59H41c-.43,0-.64-.2-.64-.59s.21-.58.64-.58h1.65v-2.14a.63.63,0,1,1,1.25,0Zm1.64,6.48a2.15,2.15,0,0,1-.68,1.67,2.45,2.45,0,0,1-3.28,0,2.4,2.4,0,0,1,0-3.35,2.42,2.42,0,0,1,3.28,0A2.16,2.16,0,0,1,45.58,148.64Zm-1.21,0a1.23,1.23,0,0,0-.31-.84,1.06,1.06,0,0,0-.8-.33,1,1,0,0,0-.79.33,1.18,1.18,0,0,0-.31.84,1.13,1.13,0,0,0,.31.82,1,1,0,0,0,.79.33,1.06,1.06,0,0,0,.8-.33A1.18,1.18,0,0,0,44.37,148.64Zm5.5.94v-2.32H48.32v2.19a.56.56,0,0,1-.62.64c-.4,0-.6-.21-.6-.64V143.9c0-.43.2-.64.6-.64a.56.56,0,0,1,.62.64v2.19h1.55v-2.32c0-.43.2-.64.59-.64a.56.56,0,0,1,.63.64v5.81a.56.56,0,0,1-.63.64C50.07,150.22,49.87,150,49.87,149.58Z"/><path class="cls-1" d="M55.66,143.82l3.38,0,0-.94c0-.43.21-.64.61-.64s.61.21.61.64l0,4.32a.54.54,0,0,1-.61.61H58.42V150h3.29c.43,0,.64.19.64.59s-.21.61-.64.61h-8.3c-.43,0-.64-.21-.64-.61s.21-.59.64-.59h3.76v-2.24H55.09c-.41,0-.61-.21-.61-.63l0-4.29a.61.61,0,1,1,1.22,0ZM59,144.94l-3.36.05,0,1.61h3.36Z"/><path class="cls-1" d="M68.91,144.17a2.38,2.38,0,0,1-.73,1.78,2.69,2.69,0,0,1-3.66,0,2.54,2.54,0,0,1,0-3.56,2.66,2.66,0,0,1,3.66,0A2.4,2.4,0,0,1,68.91,144.17Zm-1,6.93-1-.53-.75,1.22c-.29.46-.61.58-1,.37s-.37-.53-.1-1L67,148.09c.27-.46.6-.57,1-.35s.35.54.08,1l-.51.83,1,.49c.44.25.57.54.38.88S68.36,151.33,67.92,151.1Zm-.21-6.93a1.32,1.32,0,0,0-1.36-1.36,1.3,1.3,0,0,0-1,.39,1.32,1.32,0,0,0-.37,1,1.3,1.3,0,0,0,.37,1,1.33,1.33,0,0,0,1,.38,1.35,1.35,0,0,0,1-.38A1.31,1.31,0,0,0,67.71,144.17ZM71,150l2.17,1.11c.46.23.61.53.44.88s-.5.42-1,.19l-2.27-1.17-.77,1.25c-.27.46-.58.59-.93.38s-.41-.52-.13-1l2.14-3.49c.28-.45.61-.57,1-.35s.35.54.08,1Zm.11-3.66v-5a.56.56,0,0,1,.62-.64c.41,0,.61.21.61.64V143l1.47.07c.41,0,.61.22.6.62a.54.54,0,0,1-.63.58l-1.44-.07v2.21c0,.43-.2.64-.61.64A.56.56,0,0,1,71.15,146.38Z"/><path class="cls-1" d="M76.22,146.91h8.26c.43,0,.64.2.64.59s-.21.61-.64.61H76.22c-.42,0-.64-.2-.64-.61S75.8,146.91,76.22,146.91Zm4.48-6.58-.49,1.2,3.77,2.1c.44.25.56.55.37.88s-.53.38-1,.13l-3.62-2-1,2.56c-.21.49-.5.66-.9.52s-.47-.45-.27-.94l2-4.86c.19-.46.48-.62.85-.48S80.87,139.88,80.7,140.33ZM79,150.62l3.24-.05V150a.56.56,0,0,1,.61-.64c.39,0,.58.22.59.64l0,3.41a.54.54,0,0,1-.61.61l-4.43,0c-.41,0-.61-.21-.61-.63l0-3.39c0-.43.19-.65.59-.66s.6.2.61.61Zm3.26,1.06-3.25,0,0,1.12h3.25Z"/><path class="cls-1" d="M87.29,145.1a.56.56,0,0,1,.61-.66.55.55,0,0,1,.64.61l.08,3.95,3.51-.06a.54.54,0,0,1,.62.58c0,.38-.18.58-.58.59l-3.93.08a.73.73,0,0,1-.85-.79ZM96,144l.09,6.14a.56.56,0,0,1-.62.66c-.4,0-.61-.2-.62-.63l-.1-6.16A.63.63,0,1,1,96,144Z"/><path class="cls-1" d="M104,150.22l-4.27.06c-.46,0-.69-.19-.7-.6L99,145.2a.61.61,0,0,1,.68-.71l3.84,0c.43,0,.64.19.64.58s-.2.59-.62.59l-3.28.05.05,3.44,3.68-.05c.42,0,.64.18.65.56S104.44,150.21,104,150.22Zm3.25-6.22,0,2h1.79c.43,0,.64.2.64.6s-.21.6-.64.6h-1.77l0,2.9a.57.57,0,0,1-.63.66c-.4,0-.61-.2-.62-.63L106,144a.55.55,0,0,1,.62-.64A.56.56,0,0,1,107.28,144Z"/><path class="cls-1" d="M112.74,150.4a.88.88,0,0,1-.3.66,1,1,0,0,1-.71.28,1,1,0,0,1-.71-.28.89.89,0,0,1,0-1.33,1,1,0,0,1,.71-.28,1,1,0,0,1,.71.28A.89.89,0,0,1,112.74,150.4Z"/></g></g></svg>