<svg xmlns="http://www.w3.org/2000/svg" viewBox="0 0 506.1 211.32"><defs><style>.cls-1{fill:#1e0800;}.cls-2{fill:#e5ad62;}.cls-3{fill:#ffb48f;}.cls-4{fill:#040809;}.cls-5{opacity:0.15;}.cls-6{fill:#cd7d48;}.cls-7{fill:#1c120f;}.cls-8{fill:#537a6e;}.cls-9{fill:#8d9e96;}.cls-10{fill:#51504f;}</style></defs><g id="Layer_2" data-name="Layer 2"><g id="Layer_1-2" data-name="Layer 1"><rect class="cls-1" x="-9.69" y="158.74" width="270.4" height="0.75" transform="translate(-51.45 60.34) rotate(-22.56)"/><path class="cls-2" d="M187.61,138.24c-1-9.58,5.11-18.83,3.48-29-4.72-29.4-32.94-49.28-63-44.4S77.41,97.55,82.14,127A52.8,52.8,0,0,0,98.05,157l19.78,2.69a64.63,64.63,0,0,0,5.75,7.33,17,17,0,0,0,10.2,4.94c5.26.73,10.63-.15,15.83-1,4.43-.72,8.84-1.6,13.28-2.34,4-.66,8.21-.81,11.88-2.68,3.15-1.59,5.21-4.47,6.78-7.53a81.66,81.66,0,0,0,4.52-9.84A24.12,24.12,0,0,0,187.61,138.24Z"/><path class="cls-1" d="M137.93,172.64a29.63,29.63,0,0,1-4.2-.28,17.35,17.35,0,0,1-10.42-5.06,63.89,63.89,0,0,1-5.69-7.23l-19.74-2.69-.09-.08a53,53,0,0,1-16-30.29C77,97.45,97.76,69.41,128,64.51a55.63,55.63,0,0,1,41.82,9.78,53.25,53.25,0,0,1,21.63,34.93c.87,5.42-.43,10.61-1.69,15.62-1.15,4.58-2.23,8.9-1.79,13.36a24.23,24.23,0,0,1-1.55,10.53,79.29,79.29,0,0,1-4.4,9.59l-.15.29c-2,3.85-4.18,6.3-6.94,7.7s-6.09,1.89-9.21,2.31c-.93.12-1.86.25-2.78.4-2.16.36-4.31.75-6.46,1.14s-4.55.83-6.82,1.2A73.33,73.33,0,0,1,137.93,172.64Zm-39.71-16,19.83,2.7.09.13a62.56,62.56,0,0,0,5.72,7.29,16.63,16.63,0,0,0,10,4.83c5.2.72,10.53-.15,15.69-1,2.3-.37,4.57-.78,6.83-1.2s4.31-.78,6.48-1.14c.92-.15,1.86-.28,2.8-.4,3.05-.41,6.21-.84,9-2.24s4.72-3.67,6.62-7.37l.14-.29a77.69,77.69,0,0,0,4.36-9.5,23.4,23.4,0,0,0,1.51-10.21c-.45-4.59.7-9.17,1.81-13.61,1.25-4.94,2.53-10,1.68-15.32A52.5,52.5,0,0,0,169.39,74.9a54.89,54.89,0,0,0-41.26-9.65c-29.84,4.83-50.3,32.49-45.62,61.64A52.17,52.17,0,0,0,98.22,156.67Z"/><path class="cls-2" d="M240.6,146.73h0c2.78-26.86-28.74-37.53-28.74-37.53-6.73-18-32.31-25-32.31-25s-.12,34.06,10.15,38.34c-5.16,6.18-12.34,18.31-4.3,31.58h0l-1.11,1.7C170.11,182.59,197.84,191,197.84,191c20.44,18.82,34.93-2.58,34.93-2.58C264.36,173,240.6,146.73,240.6,146.73Z"/><path class="cls-3" d="M149.49,168.39a14.43,14.43,0,0,0,1.78,3.5,8.07,8.07,0,0,0,1.06,1.47c.31.31.89.53,1,1l.55-.42a1.73,1.73,0,0,1-.62-.95.37.37,0,0,0-.72.2,2.55,2.55,0,0,0,1,1.4c.26.2.65-.13.55-.43a2.31,2.31,0,0,0-1-1.08,5.1,5.1,0,0,1-1.09-1.36,14,14,0,0,1-1.82-3.5c-.14-.46-.87-.26-.72.2Z"/><path class="cls-1" d="M239.19,155.61l-.7-.25c3.17-9,2.94-17.34-.68-24.77-7.2-14.8-25.58-21.17-25.76-21.24l-.17,0-.06-.17C205.24,91.56,180,84.48,179.76,84.41l.2-.72c.25.07,25.69,7.2,32.5,25,1.89.69,19.06,7.24,26,21.55C242.2,137.88,242.43,146.41,239.19,155.61Z"/><path class="cls-1" d="M214.66,199.63c-5.66,0-11.37-2.61-17-7.79-1.08-.35-12.29-4.22-16.32-13.9-2.61-6.25-1.73-13.57,2.6-21.75l1.13-1.72.63.41-1.11,1.69c-4.21,8-5.07,15.05-2.56,21.09,4.08,9.79,15.81,13.45,15.93,13.49l.15.08c6.2,5.71,12.45,8.24,18.59,7.53,9.63-1.12,15.71-9.95,15.77-10l.06-.08.09,0c9.16-4.47,14.49-10.29,15.85-17.3,2.33-12.06-8-23.69-8.14-23.81l.56-.5c.11.12,10.71,12,8.31,24.46-1.39,7.23-6.83,13.21-16.16,17.79-.67.93-6.8,9.18-16.25,10.28A18.83,18.83,0,0,1,214.66,199.63Z"/><path class="cls-1" d="M188.87,160c-5.4-6-7.9-12.48-7.42-19.26.9-12.65,12.05-22.1,12.16-22.19l.48.57c-.11.09-11,9.35-11.89,21.68-.46,6.57,2,12.86,7.23,18.7Z"/><path class="cls-3" d="M166.56,165.74a1.35,1.35,0,0,0-1-2.22,1.39,1.39,0,0,0-.3,0,3.72,3.72,0,0,0-2.4-.83.28.28,0,0,0-.18-.14,1.78,1.78,0,0,1-.33-.09l-.15-.08,0,0-.16-.18a3.77,3.77,0,0,0-.78-.71.79.79,0,0,0-.27-.1c-.2-.25-.38-.51-.56-.77a.35.35,0,0,0-.43-.13.31.31,0,0,0-.14-.2.33.33,0,0,0-.45.12c-.32.7-1,1.08-1.58,1.62a8.68,8.68,0,0,0-1,.79,2.6,2.6,0,0,1-.5.31,1.88,1.88,0,0,0-.54.38,2.43,2.43,0,0,0-.24.3h0l-.11.07a1.42,1.42,0,0,0-.41.4h0l0,0a7,7,0,0,1-1.06.9,7.63,7.63,0,0,1-1.13,1.26,4.54,4.54,0,0,1-1.53.86,5.23,5.23,0,0,0-1.34.66,4.13,4.13,0,0,0,1.16,3,3.76,3.76,0,0,0,2.12,3,3.53,3.53,0,0,0,2.23,2.18,3.53,3.53,0,0,0,2.69,1.62,3.75,3.75,0,0,0,2.36.76,4.33,4.33,0,0,0,1.12-.15,3.53,3.53,0,0,0,2.81-1.78,4,4,0,0,0,1.19-2.5,4.44,4.44,0,0,0,.46-2,4.36,4.36,0,0,0,.47-2.14,4.6,4.6,0,0,0,.06-2.33A4.68,4.68,0,0,0,166.56,165.74Z"/><rect class="cls-1" x="158.99" y="155.07" width="0.75" height="4.96" transform="translate(-17.84 20.38) rotate(-6.93)"/><path class="cls-1" d="M138.29,170.78c-9.77,0-13.1-9.16-13.14-9.26a.38.38,0,0,1,.23-.48.38.38,0,0,1,.48.23c.15.42,3.75,10.28,14.93,8.56,9.28-1.43,10.84-2.9,15-6.82,1-.95,2.16-2,3.6-3.29l.29-.25.25.3s3.9,4.67,9.87,3.71a13.52,13.52,0,0,0,9.27-6,11.24,11.24,0,0,0,.7-9.7.36.36,0,0,1,.23-.47.38.38,0,0,1,.48.23,12,12,0,0,1-.76,10.32,14.24,14.24,0,0,1-9.8,6.41,11.88,11.88,0,0,1-10.31-3.69c-1.31,1.15-2.37,2.14-3.31,3-4.31,4-5.92,5.56-15.43,7A17.18,17.18,0,0,1,138.29,170.78Z"/><path class="cls-1" d="M157.07,143.69c-3.13.69-6.09,2.39-7.28,4.61a4.82,4.82,0,0,0-.57,2.88c.62,5,6.48,7.44,10.13,6.85s7.28-3.11,7.43-8.73C166.93,143.93,161.82,142.64,157.07,143.69Z"/><path class="cls-1" d="M158.21,158.24a10.6,10.6,0,0,1-6.09-2.06,7.3,7.3,0,0,1-3-5,5,5,0,0,1,.58-2.95c1.14-2.13,4-3.92,7.37-4.67h0c3.25-.72,6.24-.28,8,1.18a5.38,5.38,0,0,1,1.86,4.55c-.13,4.8-2.95,8.11-7.54,8.85A7.27,7.27,0,0,1,158.21,158.24ZM160,143.48a13.76,13.76,0,0,0-2.92.33h0c-3.28.72-6.11,2.51-7.2,4.55a4.65,4.65,0,0,0-.55,2.8,7.11,7.11,0,0,0,2.92,4.82,10,10,0,0,0,7.06,1.93c4.46-.73,7.2-3.95,7.33-8.62a5.15,5.15,0,0,0-1.76-4.35A7.67,7.67,0,0,0,160,143.48Z"/><path class="cls-2" d="M158.34,151.72a6.91,6.91,0,0,1-4.65-1.25,3.7,3.7,0,0,1-1.64-2.52,1.5,1.5,0,0,1,.2-.87c.56-1,2.49-2.29,5.1-2.85q.32-.07.63-.12c1.94-.32,3.7-.09,4.49.57.16.14.59.51.55,1.69C162.91,149.44,161.34,151.24,158.34,151.72Z"/><path class="cls-4" d="M117.2,124.91c-4.62,1-8.48,5.79-9.3,10.08s.66,8.88,4.61,11.27c4.52,2.74,12.2,1.88,15.46-2.5s1.3-11.65-2.15-15.48a10.86,10.86,0,0,0-4.51-3.12A7.82,7.82,0,0,0,117.2,124.91Z"/><path class="cls-4" d="M171.55,111.19a6.38,6.38,0,0,0-2.75,1.17c-2.8,2.11-3.16,6.18-2.85,9.42.53,5.44,2.37,13.94,9.65,12.42,9.49-2,7.5-18.17.64-22.15A7.08,7.08,0,0,0,171.55,111.19Z"/><g class="cls-5"><ellipse class="cls-6" cx="152.54" cy="135.07" rx="14.77" ry="6.1" transform="translate(-24.17 33.64) rotate(-11.67)"/></g><path class="cls-2" d="M95.58,83.13S66.8,81,59.24,94.88c0,0-23.22-7.25-35.91,16,0,0-17.95.33-22.79,23.76C-1.4,148.4,14.21,156.3,14.21,156.3s.51,19.7,15.28,24.57c0,0,11.44,9.35,25.18,2.15s8.74-20.15,8.74-20.15,12.77,6.88,23.44-17.48a32.23,32.23,0,0,0-1-25.6s18.07-13.16,12.88-29Z"/><path class="cls-1" d="M44,186.1a25.57,25.57,0,0,1-14.68-4.89C15.37,176.56,14,158.73,13.85,156.53c-1.82-1-15.52-8.92-13.68-21.91C4.72,112.57,21,110.7,23.1,110.55,35,88.9,56.3,93.71,59.06,94.44c7.79-13.65,35.37-11.77,36.55-11.68l0,.75c-.29,0-28.64-2-36,11.55l-.15.27-.29-.09c-.23-.07-23.08-6.88-35.47,15.86l-.1.19h-.22c-.18,0-17.72.62-22.43,23.46C-1,148,14.23,155.89,14.38,156l.2.1v.22c0,.2.67,19.5,15,24.23l.12.06c.11.09,11.42,9.11,24.77,2.11s8.76-19.17,8.56-19.69l-.36-.94.89.48a10.8,10.8,0,0,0,8,.17c5.65-2,10.65-7.84,14.87-17.47a32,32,0,0,0-1-25.28l-.14-.29.26-.18c.18-.13,17.79-13.19,12.74-28.58l.72-.23c4.87,14.88-10.59,27.53-12.77,29.22a32.89,32.89,0,0,1,.91,25.64c-4.31,9.84-9.47,15.86-15.34,17.89a11.86,11.86,0,0,1-7.84.1c.82,3,2.74,13.58-9.16,19.82A23.13,23.13,0,0,1,44,186.1Z"/><path class="cls-3" d="M153,174a.38.38,0,0,0,0-.75.38.38,0,0,0,0,.75Z"/><path class="cls-3" d="M155.57,176.41a.38.38,0,0,0,0-.75.38.38,0,0,0,0,.75Z"/><path class="cls-3" d="M158.2,178a.38.38,0,0,0,0-.75.38.38,0,0,0,0,.75Z"/><path class="cls-2" d="M58.63,186.56l-1-1.43C78,207.62,99.94,190,99.94,190c2.62,1.83,16.13,2.43,22.57-7.9,12.1-18.23-5.64-23.1-5.64-23.1-6.25-20.26-26.6-11.74-26.6-11.74-14.31-8.71-26.81,2.63-26.81,2.63-27-8.3-29.63,17.22-29.63,17.22C23.15,175.41,28.59,193,28.59,193L20,202.7"/><path class="cls-7" d="M20,203.07a.4.4,0,0,1-.25-.09.39.39,0,0,1,0-.53l8.47-9.51c-.56-2-4.67-18.12,5.31-26,.18-1.36,1.72-11.05,9.25-16,5.26-3.48,12.2-4,20.64-1.4,1.53-1.28,13.5-10.67,26.93-2.63,1.37-.54,9.87-3.6,17.37-.09,4.46,2.09,7.66,6.11,9.5,11.95,1.19.37,7.17,2.47,9.25,8,1.62,4.32.41,9.57-3.59,15.6A19.43,19.43,0,0,1,109.94,191c-4.27.88-8.31.44-10-.5-2.28,1.69-22.3,15.53-41.18-3.54a.39.39,0,0,1-.45-.13l-1-1.43.58-.47c19.88,22,41.6,5,41.82,4.82l.21-.17.24.16c1.12.78,5,1.49,9.62.53a18.71,18.71,0,0,0,12.42-8.33c3.86-5.82,5-10.84,3.52-14.92-2.13-5.68-8.88-7.6-9-7.62l-.2,0-.06-.2c-1.76-5.73-4.85-9.66-9.16-11.68-7.7-3.6-16.85.14-16.94.18l-.18.07-.16-.1c-13.9-8.46-26.23,2.48-26.36,2.59l-.16.14-.2-.06c-8.3-2.55-15.1-2.13-20.2,1.25-7.78,5.14-8.93,15.55-8.95,15.65v.16l-.13.1c-10.36,8-5.16,25.35-5.11,25.52l.06.2L20.26,203A.36.36,0,0,1,20,203.07Z"/><path class="cls-3" d="M153.09,174.26h0l-.07-.06,0,0-.06-.07.22.3a.36.36,0,0,0,.1.11.31.31,0,0,0,.13.06.26.26,0,0,0,.15,0,.37.37,0,0,0,.14,0l.07-.06a.37.37,0,0,0,.1-.17v-.1a.34.34,0,0,0,0-.19l-.13-.18-.07-.08-.08-.12,0,0,0,0-.05,0a.24.24,0,0,0-.14-.05.26.26,0,0,0-.15,0,.19.19,0,0,0-.12.07.19.19,0,0,0-.1.1l0,.09a.34.34,0,0,0,0,.2l0,.09a.33.33,0,0,0,.13.13Z"/><path class="cls-3" d="M155.09,176.11l.23.15-.08-.06.08.07a.42.42,0,0,0,.12.08.4.4,0,0,0,.15,0,.32.32,0,0,0,.14,0,.25.25,0,0,0,.12-.08l.06-.07A.34.34,0,0,0,156,176v-.1a.37.37,0,0,0-.1-.17,2.66,2.66,0,0,0-.38-.28.25.25,0,0,0-.14,0h-.15l-.13.07a.36.36,0,0,0-.1.11l0,.09a.34.34,0,0,0,0,.2l0,.09a.44.44,0,0,0,.14.13Z"/><path class="cls-3" d="M157.6,177.81a3.6,3.6,0,0,0,.58.2c.17.05.35.08.52.12a.48.48,0,0,0,.29,0,.39.39,0,0,0,.17-.23.37.37,0,0,0,0-.29.4.4,0,0,0-.23-.17,4.52,4.52,0,0,1-1-.25l.09,0-.06,0a.39.39,0,0,0-.28,0,.36.36,0,0,0-.23.17.41.41,0,0,0,0,.29.39.39,0,0,0,.18.22Z"/><path class="cls-3" d="M165.52,171.58a2.28,2.28,0,0,1,0,.26v-.1a2.48,2.48,0,0,1-.18.66l0-.09a.2.2,0,0,1,0,.08.42.42,0,0,0,0,.29.36.36,0,0,0,.17.23.41.41,0,0,0,.29,0,.39.39,0,0,0,.22-.18,2.86,2.86,0,0,0,.29-1.19.38.38,0,0,0-.37-.37.38.38,0,0,0-.38.37Z"/><path class="cls-1" d="M160.76,178.88c-4.52,0-10.29-5.8-11.6-10.68a.25.25,0,1,1,.48-.13c1.34,5,7.43,11,11.82,10.25,3.65-.59,5.38-5.72,4.89-14.44a.25.25,0,0,1,.23-.26.25.25,0,0,1,.27.24c.65,11.55-2.53,14.51-5.31,14.95A4,4,0,0,1,160.76,178.88Z"/><path class="cls-8" d="M29.86,24.27h.58V4a11.32,11.32,0,0,1,.1-1.47A3,3,0,0,1,31,1.32a2.26,2.26,0,0,1,1-.82A4.2,4.2,0,0,1,33.68.2a5.09,5.09,0,0,1,1.94.3,2.43,2.43,0,0,1,1.08.82,2.76,2.76,0,0,1,.46,1.21A11.32,11.32,0,0,1,37.26,4V28.76c0,.72,0,1.41-.07,2.07a5.53,5.53,0,0,1-.38,1.8,2.73,2.73,0,0,1-1.06,1.27,3.8,3.8,0,0,1-2.07.48H30.49a3.62,3.62,0,0,1-1.89-.46,4.37,4.37,0,0,1-1.27-1.1,5.9,5.9,0,0,1-.81-1.35c-.2-.47-.36-.87-.47-1.2l-7.3-20h-.58V30.57A11.38,11.38,0,0,1,18.08,32a3,3,0,0,1-.43,1.21,2.23,2.23,0,0,1-1,.82,4.19,4.19,0,0,1-1.75.31,5.26,5.26,0,0,1-2-.31,2.41,2.41,0,0,1-1.09-.82A2.64,2.64,0,0,1,11.41,32a11.32,11.32,0,0,1-.1-1.47V5.81c0-.7,0-1.39.06-2.06a5.53,5.53,0,0,1,.4-1.81A2.84,2.84,0,0,1,12.85.67,3.81,3.81,0,0,1,14.94.2h3.19a3.6,3.6,0,0,1,2,.47,5.28,5.28,0,0,1,1.25,1,5.4,5.4,0,0,1,.84,1.51Z"/><path class="cls-8" d="M65.27,22c0,1.11.08,2.24.12,3.4s.08,2.27.08,3.34v.73q0,.93-.06,1.8A4.58,4.58,0,0,1,65,32.85,2.52,2.52,0,0,1,64,34a3.63,3.63,0,0,1-1.91.42A3.69,3.69,0,0,1,60.2,34a2.58,2.58,0,0,1-1-1.1,4.21,4.21,0,0,1-.39-1.56c0-.59-.06-1.19-.06-1.81V26.07H49.09v3.42c0,.62,0,1.22-.06,1.81a4.21,4.21,0,0,1-.39,1.56,2.52,2.52,0,0,1-1,1.1,4.64,4.64,0,0,1-3.86,0,2.52,2.52,0,0,1-1-1.11,4.58,4.58,0,0,1-.37-1.56c0-.58,0-1.18,0-1.8v-.73c0-.5,0-1,0-1.61l0-1.73c0-.59,0-1.17,0-1.75s0-1.13.05-1.65c.81-2.83,1.65-5.7,2.54-8.6s1.73-5.79,2.53-8.63A15.6,15.6,0,0,1,48.17,3a5.18,5.18,0,0,1,.9-1.47,4.17,4.17,0,0,1,1.42-1A5.65,5.65,0,0,1,52.71.2h2.42a5.7,5.7,0,0,1,2.21.37,4.16,4.16,0,0,1,1.44,1A4.91,4.91,0,0,1,59.66,3c.21.56.41,1.14.59,1.75ZM50.1,19.63h7.69L54.21,6.54h-.53Z"/><path class="cls-8" d="M93.15,32.13a5.22,5.22,0,0,1-.06.73,1.86,1.86,0,0,1-.32.79,2,2,0,0,1-.73.65,2.72,2.72,0,0,1-1.31.27,3.42,3.42,0,0,1-1.45-.26,2.2,2.2,0,0,1-.81-.63,2.16,2.16,0,0,1-.36-.79,3.58,3.58,0,0,1-.08-.76V30.66a9.27,9.27,0,0,1-3,2.82,8.39,8.39,0,0,1-4.43,1.09c-.31,0-.79,0-1.43-.07a12.83,12.83,0,0,1-4.66-1.35,7.83,7.83,0,0,1-2.33-1.77,9,9,0,0,1-1.73-2.83,11.22,11.22,0,0,1-.67-4.14V10.74A11.94,11.94,0,0,1,70.3,7.2a9.71,9.71,0,0,1,1.27-2.67,8.22,8.22,0,0,1,1.8-1.91,12,12,0,0,1,2.07-1.28A14.8,14.8,0,0,1,81.07,0a15.05,15.05,0,0,1,4.59.61A11.39,11.39,0,0,1,88.9,2.2,8.35,8.35,0,0,1,91,4.41a11.36,11.36,0,0,1,1.23,2.5,11.72,11.72,0,0,1,.57,2.44,18,18,0,0,1,.13,2,8.09,8.09,0,0,1-.06.89,2,2,0,0,1-.42,1,2.58,2.58,0,0,1-1.15.8,5.92,5.92,0,0,1-2.23.33c-.34,0-.75,0-1.25-.06a5.53,5.53,0,0,1-1.41-.3,3.21,3.21,0,0,1-1.16-.72A1.76,1.76,0,0,1,84.79,12a15.05,15.05,0,0,0-.16-2.35,5.05,5.05,0,0,0-.56-1.77,2.77,2.77,0,0,0-1.14-1.11,3.89,3.89,0,0,0-1.86-.38,3,3,0,0,0-1.82.48A3.09,3.09,0,0,0,78.32,8a3.9,3.9,0,0,0-.39,1.56V25.15a3.72,3.72,0,0,0,.28,1.46,3.46,3.46,0,0,0,.78,1.2,3.66,3.66,0,0,0,1.2.8,3.73,3.73,0,0,0,1.51.3,3.66,3.66,0,0,0,1.75-.43,5.28,5.28,0,0,0,1.41-1.15A9.4,9.4,0,0,0,86,25.7a16.79,16.79,0,0,0,.88-1.92H84.55a3.11,3.11,0,0,1-1.23-.37,2.37,2.37,0,0,1-.86-.73,2.14,2.14,0,0,1-.38-1.34,2.34,2.34,0,0,1,.38-1.43,2.4,2.4,0,0,1,.86-.74,3.1,3.1,0,0,1,1.23-.32h6.28a3.9,3.9,0,0,1,.54.06,1.91,1.91,0,0,1,.78.35,2.6,2.6,0,0,1,.69.87,3.34,3.34,0,0,1,.31,1.6Z"/><path class="cls-8" d="M119.86,22c0,1.11.07,2.24.12,3.4s.07,2.27.07,3.34v.73q0,.93-.06,1.8a4.58,4.58,0,0,1-.37,1.56,2.52,2.52,0,0,1-1,1.11,4.6,4.6,0,0,1-3.84,0,2.52,2.52,0,0,1-1-1.1,4.21,4.21,0,0,1-.39-1.56c0-.59-.06-1.19-.06-1.81V26.07h-9.66v3.42c0,.62,0,1.22-.06,1.81a4.21,4.21,0,0,1-.39,1.56,2.58,2.58,0,0,1-1,1.1,4.67,4.67,0,0,1-3.87,0,2.52,2.52,0,0,1-1-1.11A4.35,4.35,0,0,1,97,31.29c0-.58-.05-1.18-.05-1.8v-.73c0-.5,0-1,0-1.61s0-1.15,0-1.73,0-1.17,0-1.75,0-1.13,0-1.65c.8-2.83,1.65-5.7,2.53-8.6s1.73-5.79,2.54-8.63A13.8,13.8,0,0,1,102.76,3a5.15,5.15,0,0,1,.89-1.47,4.21,4.21,0,0,1,1.43-1A5.65,5.65,0,0,1,107.3.2h2.42a5.7,5.7,0,0,1,2.21.37,4.21,4.21,0,0,1,1.43,1A4.72,4.72,0,0,1,114.24,3c.22.56.42,1.14.6,1.75Zm-15.17-2.39h7.68L108.8,6.54h-.53Z"/><path class="cls-8" d="M136.33,7.57,136,7.18h-7a17.82,17.82,0,0,1-1.93-.1,5.83,5.83,0,0,1-1.75-.43,3,3,0,0,1-1.28-1,2.84,2.84,0,0,1-.5-1.77,3.61,3.61,0,0,1,.5-2A3.15,3.15,0,0,1,125.31.77a5.31,5.31,0,0,1,1.75-.48C127.7.23,128.35.2,129,.2H141.7a3.71,3.71,0,0,1,1.63.33,3.47,3.47,0,0,1,1.19.86,3.94,3.94,0,0,1,.74,1.2,3.63,3.63,0,0,1,.25,1.32,3.2,3.2,0,0,1-.07.7,2.09,2.09,0,0,1-.22.61L132.81,27.05l.34.34h6.95c.63,0,1.27,0,1.91.1a6.07,6.07,0,0,1,1.76.45,2.86,2.86,0,0,1,1.79,2.92,3.29,3.29,0,0,1-.49,1.92,3.19,3.19,0,0,1-1.3,1,6.07,6.07,0,0,1-1.76.45c-.64.06-1.28.1-1.91.1H127.4a4.12,4.12,0,0,1-1.63-.31,3.84,3.84,0,0,1-1.21-.79,3.46,3.46,0,0,1-.76-1.13,3.25,3.25,0,0,1-.27-1.29,4.38,4.38,0,0,1,.06-.77,2.32,2.32,0,0,1,.28-.7Z"/><path class="cls-8" d="M171.7,22c0,1.11.07,2.24.12,3.4s.07,2.27.07,3.34v.73q0,.93-.06,1.8a4.58,4.58,0,0,1-.38,1.56,2.52,2.52,0,0,1-1,1.11,3.61,3.61,0,0,1-1.91.42,3.69,3.69,0,0,1-1.93-.42,2.58,2.58,0,0,1-1-1.1,4.21,4.21,0,0,1-.39-1.56c0-.59-.06-1.19-.06-1.81V26.07h-9.66v3.42c0,.62,0,1.22-.06,1.81a4.42,4.42,0,0,1-.38,1.56,2.61,2.61,0,0,1-1,1.1,4.64,4.64,0,0,1-3.86,0,2.52,2.52,0,0,1-1-1.11,4.35,4.35,0,0,1-.36-1.56c0-.58,0-1.18,0-1.8v-.73c0-.5,0-1,0-1.61s0-1.15,0-1.73,0-1.17,0-1.75,0-1.13.05-1.65c.81-2.83,1.65-5.7,2.54-8.6s1.73-5.79,2.53-8.63A15.6,15.6,0,0,1,154.59,3a5.18,5.18,0,0,1,.9-1.47,4.17,4.17,0,0,1,1.42-1A5.65,5.65,0,0,1,159.13.2h2.42a5.67,5.67,0,0,1,2.21.37,4.16,4.16,0,0,1,1.44,1A4.91,4.91,0,0,1,166.08,3c.22.56.41,1.14.59,1.75Zm-15.17-2.39h7.68L160.63,6.54h-.53Z"/><rect class="cls-9" x="306.8" y="78.87" width="3" height="0.7"/><path class="cls-9" d="M497.25,79.57h-5.86v-.7h5.86Zm-11.72,0h-5.86v-.7h5.86Zm-11.71,0H468v-.7h5.86Zm-11.72,0h-5.86v-.7h5.86Zm-11.72,0h-5.85v-.7h5.85Zm-11.71,0h-5.86v-.7h5.86Zm-11.72,0H421.1v-.7H427Zm-11.71,0h-5.86v-.7h5.86Zm-11.72,0h-5.85v-.7h5.85Zm-11.71,0H386v-.7h5.86Zm-11.72,0h-5.86v-.7h5.86Zm-11.71,0h-5.86v-.7h5.86Zm-11.72,0H350.8v-.7h5.86Zm-11.71,0h-5.86v-.7H345Zm-11.72,0h-5.86v-.7h5.86Zm-11.72,0h-5.85v-.7h5.85Z"/><rect class="cls-9" x="503.1" y="78.87" width="3" height="0.7"/><path class="cls-10" d="M307.92,104.64l2.94-.08a.92.92,0,0,1,.88.38.76.76,0,0,1,0,.82l-1.33,2.35,2.34,1.7c.39.3.47.6.24.91s-.56.34-.95,0l-2.2-1.62-.93,1.65c-.25.44-.54.56-.9.37s-.39-.49-.16-.91l2.5-4.53-2.4,0c-.43,0-.64-.19-.64-.58S307.49,104.65,307.92,104.64Zm6.21,5.86,0-2.26h-1.68c-.43,0-.64-.19-.64-.58s.21-.57.64-.57h1.68l0-2.48c0-.43.21-.64.61-.64s.61.21.61.64l0,5.89c0,.42-.2.64-.6.64S314.13,110.92,314.13,110.5Zm2.46.12v-6.14c0-.43.2-.64.61-.64s.61.21.61.64v6.14c0,.43-.21.64-.61.64S316.59,111.05,316.59,110.62Z"/><path class="cls-10" d="M320.35,105l3.36,0c.64,0,.92.36.83,1l-.6,4.5a.56.56,0,0,1-.71.53c-.43-.06-.61-.29-.54-.71l.56-4.21-2.93,0c-.43,0-.64-.22-.62-.61S319.92,105,320.35,105Zm7.89-.55,0,2.05h1.79c.43,0,.64.2.64.59s-.21.61-.64.61h-1.77l0,2.9a.56.56,0,0,1-.63.65c-.4,0-.61-.19-.62-.62l-.1-6.16a.63.63,0,1,1,1.25,0Z"/><path class="cls-10" d="M337,105l3.4,0c.64,0,.91.36.83,1l-.61,4.58a.63.63,0,0,1-1.25-.18l.23-1.69h-2.45c-.43,0-.64-.18-.64-.56s.21-.56.64-.56l2.59,0,.19-1.46-3,0c-.42,0-.63-.22-.62-.61S336.55,105,337,105Zm8.36-.55.09,6.15a.56.56,0,0,1-.62.65c-.41,0-.62-.19-.63-.62l-.09-6.16a.63.63,0,1,1,1.25,0Z"/><path class="cls-10" d="M348.49,108.88h8c.42,0,.64.2.64.59s-.22.61-.64.61h-3.06v3.14a.63.63,0,1,1-1.25,0v-3.14h-3.73a.53.53,0,0,1-.59-.61A.52.52,0,0,1,348.49,108.88Zm6.79-4.11a2.71,2.71,0,0,1-4.59,1.85,2.7,2.7,0,0,1,0-3.71,2.67,2.67,0,0,1,4.59,1.86Zm-1.23,0a1.47,1.47,0,0,0-.4-1,1.39,1.39,0,0,0-1-.42,1.37,1.37,0,0,0-1,.42,1.46,1.46,0,0,0-.39,1,1.48,1.48,0,0,0,.39,1,1.36,1.36,0,0,0,1,.41,1.38,1.38,0,0,0,1-.41A1.48,1.48,0,0,0,354.05,104.77Z"/><path class="cls-10" d="M367.52,110.46c.42,0,.64.2.64.6s-.22.6-.64.6h-8.31c-.42,0-.64-.2-.64-.6s.22-.6.64-.6H362v-3.08a.63.63,0,1,1,1.25,0v3.08Zm-7-7.45h4.78c.55,0,.8.28.75.83l-.32,3.81c0,.44-.25.64-.65.61s-.59-.28-.56-.72l.24-3.36h-4.24c-.43,0-.64-.2-.64-.6S360.13,103,360.56,103Z"/><path class="cls-10" d="M379.09,104.64a2.44,2.44,0,0,1-.73,1.78,2.7,2.7,0,0,1-3.67,0,2.56,2.56,0,0,1,0-3.56,2.67,2.67,0,0,1,3.67,0A2.44,2.44,0,0,1,379.09,104.64Zm-1.2,0a1.32,1.32,0,0,0-1.36-1.36,1.31,1.31,0,0,0-1,.38,1.37,1.37,0,0,0-.38,1,1.38,1.38,0,0,0,2.32,1A1.28,1.28,0,0,0,377.89,104.64Zm.67,6.93-1-.53-.75,1.22c-.29.45-.61.58-1,.36s-.37-.52-.1-1l1.91-3.09c.27-.46.6-.58,1-.35s.35.54.08,1l-.51.84.94.49c.45.25.58.54.39.88S379,111.8,378.56,111.57Zm3.12-1.06,2.17,1.11c.46.23.61.52.44.88s-.5.42-1,.19l-2.28-1.17-.76,1.25c-.27.46-.58.58-.93.38s-.41-.52-.13-1l2.14-3.49c.28-.46.61-.57,1-.35s.35.54.08,1Zm.19-3.66v-5a.56.56,0,0,1,.62-.64c.41,0,.61.21.61.64v5c0,.43-.2.64-.61.64A.56.56,0,0,1,381.87,106.85Z"/><path class="cls-10" d="M394.45,107.3c.42,0,.64.19.64.59a.56.56,0,0,1-.64.61h-8.31a.56.56,0,0,1-.64-.61c0-.4.22-.59.64-.59Zm-7.09-5.88a.63.63,0,1,1,1.25,0l.08,2.89,3.8-.06q.61,0,.63.57a.52.52,0,0,1-.58.6l-4.24.08a.74.74,0,0,1-.85-.79Zm.4,8.9a.63.63,0,1,1,1.25,0l0,2.43,4-.08a.55.55,0,0,1,.63.58c0,.38-.18.58-.58.59l-4.43.1a.73.73,0,0,1-.85-.79Z"/><path class="cls-10" d="M401.21,101.71l3.44.05c.64,0,.92.36.84,1.06l-.52,3.87a.62.62,0,1,1-1.24-.15l.46-3.61-3-.05c-.42,0-.63-.21-.62-.61S400.79,101.7,401.21,101.71Zm7.41,9a2,2,0,0,1-.65,1.53,2.19,2.19,0,0,1-1.59.63,2.16,2.16,0,0,1-1.57-.63,2.08,2.08,0,0,1-.64-1.53,2.13,2.13,0,0,1,.64-1.56,2.19,2.19,0,0,1,1.57-.62,2.22,2.22,0,0,1,1.59.62A2.06,2.06,0,0,1,408.62,110.66Zm-1.21,0a1,1,0,0,0-.3-.74,1,1,0,0,0-.73-.29,1,1,0,0,0-.7.29,1.05,1.05,0,0,0,0,1.45.91.91,0,0,0,.7.29,1,1,0,0,0,1-1Zm.52-3.52v-5.28a.56.56,0,0,1,.63-.64c.4,0,.61.21.61.64v1.77h1.42c.43,0,.64.2.64.59s-.21.61-.64.61h-1.42v2.31a.56.56,0,0,1-.61.64A.56.56,0,0,1,407.93,107.14Z"/><path class="cls-10" d="M417.92,107.66a2.42,2.42,0,0,1-.75,1.8,2.7,2.7,0,0,1-3.69,0,2.42,2.42,0,0,1-.75-1.8,2.45,2.45,0,0,1,.75-1.8,2.67,2.67,0,0,1,3.69,0A2.45,2.45,0,0,1,417.92,107.66Zm-1.2,0a1.37,1.37,0,0,0-1.39-1.39,1.35,1.35,0,0,0-1,.4,1.37,1.37,0,0,0-.39,1,1.33,1.33,0,0,0,1.38,1.38,1.37,1.37,0,0,0,1-.39A1.35,1.35,0,0,0,416.72,107.66Zm4.46-3.2,0,2.05H423c.42,0,.64.2.64.59s-.22.61-.64.61h-1.78l0,2.9a.56.56,0,0,1-.63.65c-.4,0-.61-.19-.62-.62l-.1-6.16a.63.63,0,1,1,1.25,0Z"/><path class="cls-10" d="M429.15,104.56a.94.94,0,0,1,.88.38.76.76,0,0,1,0,.82l-1.55,2.4,2.64,1.68c.39.26.48.55.27.88s-.52.37-.93.11l-2.62-1.69-1.16,1.76a.59.59,0,0,1-.88.25c-.34-.2-.38-.49-.12-.88l3-4.54-2.88,0c-.43,0-.64-.19-.64-.56s.22-.57.67-.58Zm5.07-.1.1,6.15a.56.56,0,0,1-.63.65c-.4,0-.61-.19-.62-.62l-.1-6.16a.63.63,0,1,1,1.25,0Z"/><path class="cls-10" d="M437.61,105l3.36,0q1,0,.84,1l-.61,4.5a.56.56,0,0,1-.71.53.55.55,0,0,1-.54-.71l.56-4.21-2.93,0c-.43,0-.63-.22-.62-.61S437.19,105,437.61,105Zm7.89-.55,0,2.05h1.8c.42,0,.64.2.64.59s-.22.61-.64.61h-1.78l.05,2.9a.56.56,0,0,1-.63.65c-.4,0-.61-.19-.62-.62l-.1-6.16a.63.63,0,1,1,1.25,0Z"/><path class="cls-10" d="M310.8,121.26l-.72,2,3.28,2.18c.39.26.48.56.25.89s-.53.35-.92.08l-3-1.95-.64,1.83c-.17.47-.45.64-.85.52s-.54-.43-.38-.92l1.76-5c.17-.5.46-.68.88-.53A.59.59,0,0,1,310.8,121.26Zm5,10.37-4.36.1a.72.72,0,0,1-.85-.79l-.06-2.68a.56.56,0,0,1,.61-.66.55.55,0,0,1,.64.61l.05,2.32,3.92-.05a.53.53,0,0,1,.62.56A.51.51,0,0,1,315.78,131.63Zm-.79-4.78v-5.79a.56.56,0,0,1,.62-.64c.41,0,.61.21.61.64v2l1.48.06a.55.55,0,0,1,.59.63.53.53,0,0,1-.63.57l-1.44-.06v2.61c0,.43-.2.64-.61.64A.56.56,0,0,1,315,126.85Z"/><path class="cls-10" d="M322.48,119.7v1.48H323a.92.92,0,0,1,.88.38.76.76,0,0,1,0,.82l-1.23,1.84,2.18,1.37c.43.29.54.6.31.92s-.55.35-1,.08L322,125.2l-1,1.46c-.27.4-.58.5-.91.3s-.37-.51-.09-.93l2.46-3.69-2.43,0c-.43,0-.64-.18-.64-.57s.21-.55.64-.56l1.18,0V119.7a.63.63,0,1,1,1.25,0Zm5.38,11.72-.08-2.49h-4c-.43,0-.64-.2-.64-.59s.21-.58.64-.58h4.43a.7.7,0,0,1,.8.75l.08,2.88a.54.54,0,0,1-.59.63A.56.56,0,0,1,327.86,131.42Zm.86-7.42h-1.57v1.73c0,.43-.2.64-.61.64s-.6-.21-.6-.64V121c0-.43.2-.64.6-.64s.61.21.61.64v1.87h1.57V121c0-.43.2-.64.61-.64s.61.21.61.64v4.81c0,.43-.21.64-.61.64s-.61-.21-.61-.64Z"/><path class="cls-10" d="M336.56,124.21l3.36.05c.64,0,.92.36.83,1l-.61,4.5a.63.63,0,0,1-1.25-.18l.56-4.21-2.92,0c-.43,0-.64-.22-.63-.61S336.13,124.2,336.56,124.21Zm7.89-.55,0,2h1.79c.43,0,.64.2.64.59s-.21.61-.64.61h-1.78l.05,2.9a.56.56,0,0,1-.62.65c-.41,0-.62-.19-.63-.62l-.09-6.16a.63.63,0,1,1,1.25,0Z"/><path class="cls-10" d="M349.13,124.21l3.36.05q1,0,.84,1l-.61,4.5a.56.56,0,0,1-.71.53.55.55,0,0,1-.54-.71l.56-4.21-2.93,0c-.43,0-.63-.22-.62-.61S348.71,124.2,349.13,124.21Zm8.36-.55.09,6.15a.56.56,0,0,1-.62.65c-.41,0-.62-.19-.63-.62l-.09-6.16a.63.63,0,1,1,1.25,0Z"/><path class="cls-10" d="M367.92,124.06l2.62,1.62c.4.26.49.55.27.88s-.52.37-.92.11L367.28,125l-1.17,1.72c-.25.37-.54.46-.88.25s-.38-.49-.13-.88l3-4.35-2.88,0c-.42,0-.64-.19-.64-.56s.23-.57.67-.58l3.4-.08a.93.93,0,0,1,.88.39.77.77,0,0,1,0,.81Zm5.45,7.57-4.51.1a.72.72,0,0,1-.85-.79l-.06-2.68a.56.56,0,0,1,.61-.66.55.55,0,0,1,.64.61l.05,2.32,4.08-.05a.53.53,0,0,1,.62.56C374,131.42,373.77,131.62,373.37,131.63Zm-.78-4.78v-2.61h-2.37c-.42,0-.64-.19-.64-.58s.22-.57.64-.57h2.37v-2a.56.56,0,0,1,.62-.64c.41,0,.61.21.61.64v5.79c0,.43-.2.64-.61.64A.56.56,0,0,1,372.59,126.85Z"/><path class="cls-10" d="M380.78,124.77a.56.56,0,0,1,.61-.66.55.55,0,0,1,.64.61l.08,3.95,3.47-.06q.62,0,.63.57a.52.52,0,0,1-.58.6l-3.9.08a.73.73,0,0,1-.85-.79Zm8.24-1.11,0,2h1.8c.42,0,.64.2.64.59s-.22.61-.64.61h-1.78l.05,2.9a.56.56,0,0,1-.63.65c-.4,0-.61-.19-.62-.62l-.1-6.16a.63.63,0,1,1,1.25,0Z"/><path class="cls-10" d="M393.29,124.21l3.36.05q1,0,.84,1l-.61,4.5a.56.56,0,0,1-.71.53.55.55,0,0,1-.54-.71l.56-4.21-2.93,0c-.42,0-.63-.22-.62-.61S392.87,124.2,393.29,124.21Zm7.89-.55,0,2H403c.42,0,.64.2.64.59s-.22.61-.64.61h-1.78l0,2.9a.56.56,0,0,1-.63.65c-.4,0-.61-.19-.62-.62l-.1-6.16a.63.63,0,1,1,1.25,0Z"/><path class="cls-10" d="M408.72,123.76a1,1,0,0,1,.88.38.76.76,0,0,1,0,.82l-1.56,2.4,2.64,1.68c.4.26.49.55.27.88s-.52.37-.92.11l-2.63-1.69-1.15,1.76a.59.59,0,0,1-.88.25c-.34-.2-.38-.49-.13-.88l3-4.54-2.88,0c-.42,0-.64-.19-.64-.56s.23-.57.68-.58Zm4.62-.1,0,2h1.8c.42,0,.64.2.64.59s-.22.61-.64.61h-1.78l.05,2.9a.56.56,0,0,1-.63.65c-.4,0-.61-.19-.62-.62l-.1-6.16a.63.63,0,1,1,1.25,0Z"/><path class="cls-10" d="M425.69,129.66c.43,0,.64.2.64.6s-.21.6-.64.6h-8.3c-.43,0-.64-.2-.64-.6s.21-.6.64-.6h2.8v-3.08a.63.63,0,1,1,1.25,0v3.08Zm-7-7.45h4.79c.54,0,.79.28.75.83l-.32,3.81c0,.44-.25.64-.66.61s-.59-.28-.56-.72l.24-3.36h-4.24c-.42,0-.64-.2-.64-.6S418.31,122.21,418.73,122.21Z"/><path class="cls-10" d="M435.17,121.79v2.15h1.59c.43,0,.65.19.65.57s-.22.59-.65.59h-4.68c-.43,0-.64-.19-.64-.59s.21-.57.64-.57h1.84v-2.15a.63.63,0,1,1,1.25,0Zm1.72,6.5a2.28,2.28,0,0,1-.68,1.68,2.53,2.53,0,0,1-3.43,0,2.25,2.25,0,0,1-.69-1.68,2.22,2.22,0,0,1,.69-1.67,2.53,2.53,0,0,1,3.43,0A2.25,2.25,0,0,1,436.89,128.29Zm-1.21,0a1.15,1.15,0,0,0-.35-.86,1.21,1.21,0,0,0-1.68,0,1.14,1.14,0,0,0-.34.86,1.12,1.12,0,0,0,.34.86,1.23,1.23,0,0,0,1.68,0A1.13,1.13,0,0,0,435.68,128.3Zm3.37.95v-5.81a.63.63,0,1,1,1.25,0v1.87h1.79c.43,0,.64.2.64.59s-.21.61-.64.61H440.3v2.74a.63.63,0,1,1-1.25,0Z"/><path class="cls-10" d="M452.62,126.5c.43,0,.64.19.64.59s-.21.61-.64.61h-8.3c-.43,0-.64-.21-.64-.61s.21-.59.64-.59Zm-7.09-5.88a.56.56,0,0,1,.61-.65.55.55,0,0,1,.64.61l.08,2.89,3.81-.06c.4,0,.61.19.62.57a.52.52,0,0,1-.57.6l-4.24.08a.73.73,0,0,1-.85-.79Zm.4,8.9a.57.57,0,0,1,.61-.66.55.55,0,0,1,.64.61l.05,2.43,4-.08a.54.54,0,0,1,.62.58.51.51,0,0,1-.57.59l-4.44.1a.73.73,0,0,1-.84-.79Z"/><path class="cls-10" d="M460.24,126.69l-.23-3.86c0-.52.17-.78.61-.78h4.58c.49,0,.73.27.73.8v3.81a.53.53,0,0,1-.6.6h-1.24v2.4h3.3c.43,0,.64.2.64.6s-.21.6-.64.6h-8.3c-.43,0-.65-.2-.65-.6s.22-.6.65-.6h3.75v-2.4h-2.08C460.44,127.26,460.27,127.07,460.24,126.69Zm1-3.47.17,2.89h3.3v-2.89Z"/><path class="cls-10" d="M473,121.26l-.72,2,3.28,2.18c.39.26.48.56.25.89s-.53.35-.93.08l-3-1.95-.64,1.83c-.17.47-.45.64-.85.52s-.54-.43-.38-.92l1.76-5c.17-.5.46-.68.88-.53A.59.59,0,0,1,473,121.26Zm5.52,10.37-4.51.1a.72.72,0,0,1-.85-.79l-.07-2.68a.56.56,0,0,1,.61-.66.55.55,0,0,1,.64.61l.05,2.32,4.08-.05a.53.53,0,0,1,.62.56A.51.51,0,0,1,478.48,131.63Zm-.79-4.78v-2.11h-2.11c-.43,0-.64-.19-.64-.56s.21-.55.64-.55h2.11v-.73h-2.24c-.42,0-.64-.19-.64-.56s.22-.55.64-.55h2.24v-.73a.56.56,0,0,1,.63-.64c.4,0,.6.21.6.64v5.79c0,.43-.2.64-.6.64A.56.56,0,0,1,477.69,126.85Z"/><path class="cls-10" d="M486.4,126.86a2.44,2.44,0,0,1-.71,1.77,2.52,2.52,0,0,1-3.55,0,2.43,2.43,0,0,1-.7-1.77,2.46,2.46,0,0,1,.7-1.77,2.5,2.5,0,0,1,3.55,0A2.47,2.47,0,0,1,486.4,126.86Zm-1.2,0a1.37,1.37,0,0,0-.37-1,1.22,1.22,0,0,0-.91-.4,1.19,1.19,0,0,0-.91.4,1.36,1.36,0,0,0-.36,1,1.33,1.33,0,0,0,.36,1,1.18,1.18,0,0,0,.91.39,1.21,1.21,0,0,0,.91-.39A1.34,1.34,0,0,0,485.2,126.86Zm3.12,2.84,0-2.26h-1c-.43,0-.64-.19-.64-.58s.21-.57.64-.57h1l0-2.48c0-.43.21-.64.61-.64s.61.21.61.64l0,5.89c0,.42-.2.64-.61.64S488.32,130.12,488.32,129.7Zm2.27.12v-6.14c0-.43.2-.64.61-.64s.6.21.6.64v6.14c0,.43-.2.64-.6.64S490.59,130.25,490.59,129.82Z"/><path class="cls-10" d="M497.33,124.59l-.76,2.21L499.9,129c.4.27.48.57.26.9s-.54.34-.93.08l-3.06-2-.64,1.87c-.17.47-.45.64-.85.53s-.54-.44-.38-.93l1.78-5.23c.17-.51.46-.68.88-.53A.6.6,0,0,1,497.33,124.59Zm5.79-.93.09,6.15a.56.56,0,0,1-.62.65c-.41,0-.61-.19-.62-.62l0-2.5H499.5c-.43,0-.64-.19-.64-.59s.21-.57.64-.57h2.4l0-2.5a.63.63,0,1,1,1.25,0Z"/><path class="cls-10" d="M309.12,145.89,308.9,142c0-.52.17-.78.6-.78h4.58c.49,0,.74.27.74.8v3.81a.54.54,0,0,1-.61.6H313v2.4h3.3c.43,0,.64.2.64.6s-.21.6-.64.6H308c-.43,0-.64-.2-.64-.6s.21-.6.64-.6h3.76v-2.4h-2.08C309.33,146.46,309.15,146.27,309.12,145.89Zm1-3.47.17,2.89h3.3v-2.89Z"/><path class="cls-10" d="M323.37,146.1l-3.2,0,0,1.76,4.06,0q.64,0,.66.57c0,.39-.19.58-.59.59l-4.5.08a.72.72,0,0,1-.85-.78l-.08-5.46a.62.62,0,0,1,.69-.7l3.87,0c.43,0,.64.19.64.56s-.2.56-.62.57l-3.33.05,0,1.7,3.18,0q.66,0,.66.54C324,145.89,323.79,146.09,323.37,146.1Zm4.31-3.24.09,6.15c0,.43-.19.64-.62.66s-.61-.2-.62-.63l-.1-6.16a.63.63,0,1,1,1.25,0Z"/><path class="cls-10" d="M339.15,148.86c.43,0,.64.2.64.6s-.21.6-.64.6h-8.3c-.43,0-.64-.2-.64-.6s.21-.6.64-.6Zm-6-6.11,3.38,0,0-1c0-.43.21-.64.61-.64s.61.21.61.64l0,4.44a.54.54,0,0,1-.61.61h-4.57a.54.54,0,0,1-.61-.62l-.05-4.42a.61.61,0,1,1,1.22,0Zm3.38,1.12-3.36,0v1.68h3.36Z"/><path class="cls-10" d="M341.5,145.36h8.26c.42,0,.64.19.64.58s-.22.59-.64.59H341.5c-.42,0-.64-.2-.64-.59S341.08,145.36,341.5,145.36Zm6.82-1.17-4.87.16c-.4,0-.61-.16-.62-.52l-.08-2c0-.43.19-.65.64-.68l3.41-.11,0-.93H343c-.42,0-.64-.19-.64-.57s.22-.56.64-.56h4.39a.61.61,0,0,1,.69.7v1.86a.55.55,0,0,1-.6.61l-3.45.09v.91l4.28-.09c.41,0,.63.17.64.54S348.73,144.18,348.32,144.19Zm.72,9.09-5.15.16c-.41,0-.62-.16-.63-.53l-.08-2.17c0-.41.19-.62.64-.64l3.41-.12,0-1.26h-3.8c-.43,0-.64-.19-.64-.56s.21-.54.64-.54h4.38a.61.61,0,0,1,.69.7v2.13a.53.53,0,0,1-.59.59l-3.46.1,0,1.13,4.56-.09c.41,0,.63.16.64.53S349.45,153.27,349,153.28Z"/><path class="cls-10" d="M361.44,143a2.38,2.38,0,0,1-.73,1.78,2.51,2.51,0,0,1-1.83.72,2.48,2.48,0,0,1-1.83-.72,2.54,2.54,0,0,1,0-3.56,2.45,2.45,0,0,1,1.83-.73,2.48,2.48,0,0,1,1.83.73A2.4,2.4,0,0,1,361.44,143Zm-1.2,0a1.32,1.32,0,0,0-1.36-1.36,1.31,1.31,0,0,0-1,.38,1.37,1.37,0,0,0-.38,1,1.38,1.38,0,0,0,2.32,1A1.28,1.28,0,0,0,360.24,143Zm4.67,8-4.5.08a.71.71,0,0,1-.84-.78l-.08-2.74a.61.61,0,0,1,.68-.7l4,0c.42,0,.64.19.64.57s-.21.6-.63.6l-3.47,0,.05,1.84,4.05,0c.42,0,.64.18.65.57S365.32,151,364.91,151Zm-.69-5.77v-1.63h-1.71c-.43,0-.64-.2-.64-.58s.21-.58.64-.58h1.71v-2.2a.56.56,0,0,1,.63-.64c.4,0,.6.21.6.64v5c0,.43-.2.64-.6.64A.56.56,0,0,1,364.22,145.25Z"/><path class="cls-10" d="M373.66,146.06a2.45,2.45,0,0,1-.74,1.8,2.71,2.71,0,0,1-3.7,0,2.45,2.45,0,0,1-.74-1.8,2.48,2.48,0,0,1,.74-1.8,2.68,2.68,0,0,1,3.7,0A2.48,2.48,0,0,1,373.66,146.06Zm-1.2,0a1.37,1.37,0,0,0-1.39-1.39,1.33,1.33,0,0,0-1,.4,1.34,1.34,0,0,0-.4,1,1.35,1.35,0,0,0,1.38,1.38,1.34,1.34,0,0,0,1-.39A1.31,1.31,0,0,0,372.46,146.06Zm5-3.2.09,6.15a.57.57,0,0,1-.62.66q-.61,0-.63-.63l0-2.38h-1.57c-.42,0-.64-.2-.64-.6s.22-.57.64-.57h1.56l-.05-2.61a.63.63,0,1,1,1.25,0Z"/><path class="cls-10" d="M390,149.09l-4.31.06c-.45,0-.69-.19-.7-.61l-.08-4.48a.62.62,0,0,1,.69-.7l3.87,0c.43,0,.64.19.64.57a.54.54,0,0,1-.62.6l-3.32,0,.05,3.44,3.71,0c.43,0,.65.18.66.56S390.4,149.08,390,149.09Zm3.69-6.23.1,6.15a.57.57,0,0,1-.62.66q-.62,0-.63-.63l-.09-6.16a.62.62,0,1,1,1.24,0Z"/><path class="cls-10" d="M400.35,143a.94.94,0,0,1,.88.38.76.76,0,0,1,0,.82l-1.55,2.4,2.64,1.68c.39.26.48.55.27.88s-.52.37-.93.11L399,147.54l-1.16,1.76a.58.58,0,0,1-.88.25c-.34-.2-.38-.49-.12-.88l3-4.54-2.88.05c-.43,0-.64-.19-.64-.56s.22-.57.67-.58Zm4.62-.1,0,2h1.79c.42,0,.64.2.64.59s-.22.61-.64.61H405l.05,2.9a.57.57,0,0,1-.62.66q-.61,0-.63-.63l-.09-6.16a.62.62,0,1,1,1.24,0Z"/><path class="cls-10" d="M414.13,143a2.42,2.42,0,0,1-.73,1.78,2.7,2.7,0,0,1-3.67,0,2.56,2.56,0,0,1,0-3.56,2.67,2.67,0,0,1,3.67,0A2.44,2.44,0,0,1,414.13,143Zm-1.2,0a1.32,1.32,0,0,0-1.36-1.36,1.31,1.31,0,0,0-1,.38,1.37,1.37,0,0,0-.38,1,1.38,1.38,0,0,0,2.32,1A1.28,1.28,0,0,0,412.93,143Zm4.76,7.79-4.51.1a.72.72,0,0,1-.85-.79l-.06-2.68a.56.56,0,0,1,.61-.66.55.55,0,0,1,.64.61l.05,2.32,4.08,0a.53.53,0,0,1,.62.56C418.28,150.62,418.09,150.82,417.69,150.83Zm-.78-4.78v-5.79a.56.56,0,0,1,.62-.64c.41,0,.61.21.61.64v5.79c0,.43-.2.64-.61.64A.56.56,0,0,1,416.91,146.05Z"/><path class="cls-10" d="M424.19,139.41V141h1.58c.43,0,.64.19.64.56s-.21.58-.64.58h-.54a2,2,0,0,1,.66,1.55,2.05,2.05,0,0,1-.69,1.58,2.53,2.53,0,0,1-3.36,0,2.05,2.05,0,0,1-.69-1.58,2,2,0,0,1,.66-1.55h-.69c-.43,0-.64-.19-.64-.58s.21-.56.64-.56h1.82v-1.58a.63.63,0,1,1,1.25,0Zm.48,4.19a1.2,1.2,0,0,0-.32-.84,1.18,1.18,0,0,0-1.66,0,1.16,1.16,0,0,0-.32.84,1.12,1.12,0,0,0,.32.83,1.18,1.18,0,0,0,1.66,0A1.16,1.16,0,0,0,424.67,143.6Zm4.32,7.23-4.35.1a.72.72,0,0,1-.85-.79l-.06-2.68q0-.65.6-.66a.55.55,0,0,1,.64.61l0,2.32,3.92,0a.53.53,0,0,1,.63.56A.52.52,0,0,1,429,150.83Zm-.78-4.78v-5.79c0-.43.2-.64.62-.64s.61.21.61.64v2l1.47.06a.55.55,0,0,1,.59.63.52.52,0,0,1-.62.57l-1.44-.06v2.61c0,.43-.21.64-.61.64S428.21,146.48,428.21,146.05Z"/><path class="cls-10" d="M444.14,146.77l-1.74.06v2.23h3.29c.43,0,.64.19.64.59s-.21.61-.64.61h-8.3c-.43,0-.64-.21-.64-.61s.21-.59.64-.59h3.76v-2.2l-1.87.07c-.41,0-.62-.17-.63-.53l-.08-2.34a.58.58,0,0,1,.64-.67l3.41-.11V142H438.8c-.43,0-.64-.19-.64-.58s.21-.56.64-.56h4.38a.62.62,0,0,1,.69.71v2.24a.54.54,0,0,1-.59.6l-3.46.1,0,1.28,4.27-.09c.42,0,.63.17.64.54S444.56,146.76,444.14,146.77Z"/><path class="cls-10" d="M456.41,148.86c.43,0,.64.2.64.6s-.21.6-.64.6h-8.3c-.43,0-.64-.2-.64-.6s.21-.6.64-.6h2.8v-3.08a.63.63,0,1,1,1.25,0v3.08Zm-7-7.45h4.79c.54,0,.79.28.75.83l-.32,3.81c0,.44-.25.64-.66.61s-.59-.28-.56-.72l.24-3.36h-4.24c-.42,0-.64-.2-.64-.6S449,141.41,449.45,141.41Z"/><path class="cls-10" d="M463.93,142.8a2.43,2.43,0,0,1-.72,1.78,2.7,2.7,0,0,1-3.67,0,2.54,2.54,0,0,1,0-3.56,2.67,2.67,0,0,1,3.67,0A2.43,2.43,0,0,1,463.93,142.8Zm-1.2,0a1.29,1.29,0,0,0-.38-1,1.32,1.32,0,0,0-1-.39,1.27,1.27,0,0,0-1,.39,1.29,1.29,0,0,0-.38,1,1.27,1.27,0,0,0,.38,1,1.3,1.3,0,0,0,1,.37,1.34,1.34,0,0,0,1-.37A1.27,1.27,0,0,0,462.73,142.8Zm.47,4.77,3,0v-.61c0-.42.2-.64.61-.64s.58.22.59.64l0,3.38a.54.54,0,0,1-.6.61h-4.21c-.41,0-.61-.21-.61-.63l0-3.34c0-.43.19-.65.59-.66s.6.19.61.61Zm3,1.05-3,0,0,1.08h3Zm.48-3.77V140a.56.56,0,0,1,.62-.64c.41,0,.61.21.61.64v4.83c0,.43-.2.64-.61.64A.56.56,0,0,1,466.72,144.85Z"/><path class="cls-10" d="M471.28,144q0-.65.6-.66a.56.56,0,0,1,.65.61l.08,4,3.5-.06c.4,0,.61.19.62.57a.52.52,0,0,1-.57.6l-3.94.08a.73.73,0,0,1-.85-.79Zm8.7-1.11.1,6.15a.57.57,0,0,1-.63.66c-.4,0-.61-.2-.62-.63l-.1-6.16a.63.63,0,1,1,1.25,0Z"/><path class="cls-10" d="M488,149.09l-4.27.06c-.46,0-.69-.19-.7-.61l-.08-4.48a.62.62,0,0,1,.69-.7l3.84,0c.42,0,.64.19.64.57s-.21.6-.63.6l-3.28,0,0,3.44,3.68,0c.43,0,.64.18.66.56S488.42,149.08,488,149.09Zm3.25-6.23,0,2h1.8c.42,0,.64.2.64.59s-.22.61-.64.61h-1.78l.05,2.9a.57.57,0,0,1-.63.66c-.4,0-.61-.2-.62-.63l-.1-6.16a.63.63,0,1,1,1.25,0Z"/><path class="cls-10" d="M496.72,149.26a.89.89,0,0,1-.3.67,1,1,0,0,1-.71.28,1,1,0,0,1-.71-.28.89.89,0,0,1,0-1.33,1,1,0,0,1,.71-.28,1,1,0,0,1,.71.28A.88.88,0,0,1,496.72,149.26Z"/><path class="cls-8" d="M318.84,67.29l-9.1.25c-.78,0-1.17-.36-1.17-1.19L308.36,53c0-.62.34-.93,1-.93s1,.32,1,1l.15,12.48,8.27-.13c.69,0,1.05.3,1.07.91S319.55,67.25,318.84,67.29Z"/><path class="cls-8" d="M331,61.9a5.65,5.65,0,0,1-.43,2.15,5.51,5.51,0,0,1-1.16,1.75A5.41,5.41,0,0,1,327.65,67a5.49,5.49,0,0,1-4.26,0,5.41,5.41,0,0,1-1.77-1.19,5.35,5.35,0,0,1-1.16-1.75,5.57,5.57,0,0,1,0-4.29A5.4,5.4,0,0,1,321.62,58a5.54,5.54,0,0,1,1.77-1.18,5.49,5.49,0,0,1,4.26,0,5.33,5.33,0,0,1,2.93,2.94A5.6,5.6,0,0,1,331,61.9Zm-2,0a3.57,3.57,0,0,0-.28-1.4,3.53,3.53,0,0,0-.74-1.17,3.27,3.27,0,0,0-1.1-.77,3.41,3.41,0,0,0-1.34-.27,3.36,3.36,0,0,0-2.45,1,3.89,3.89,0,0,0-.74,1.17,3.79,3.79,0,0,0,0,2.81,3.89,3.89,0,0,0,.74,1.17,3.38,3.38,0,0,0,1.11.76,3.22,3.22,0,0,0,1.34.28,3.42,3.42,0,0,0,2.44-1,3.53,3.53,0,0,0,.74-1.17A3.58,3.58,0,0,0,329,61.9Z"/><path class="cls-8" d="M343.41,56.26l.41,9.15A6.2,6.2,0,0,1,343,69a5,5,0,0,1-3.28,2.15,6.38,6.38,0,0,1-4.91-.7c-.61-.38-.76-.84-.45-1.37s.8-.59,1.51-.21a4.79,4.79,0,0,0,3.28.47,3.37,3.37,0,0,0,2.16-1.44,4.67,4.67,0,0,0,.54-2.78V65a5.22,5.22,0,0,1-5.59,1.06,4.67,4.67,0,0,1-2.7-2.69,5,5,0,0,1-.39-2,5.14,5.14,0,0,1,.39-2,4.65,4.65,0,0,1,2.7-2.7,5.22,5.22,0,0,1,4,0,5.64,5.64,0,0,1,1.19.7l-.05-1.12a.87.87,0,0,1,1-1A.93.93,0,0,1,343.41,56.26Zm-1.74,5.17,0-.46a3,3,0,0,0-.91-1.82,3.2,3.2,0,0,0-2.32-.91,3.15,3.15,0,0,0-2.3.91,3.24,3.24,0,0,0,0,4.52,3.15,3.15,0,0,0,2.3.91,3.2,3.2,0,0,0,2.32-.91A3,3,0,0,0,341.67,61.43Z"/><path class="cls-8" d="M357.45,61.9a5.65,5.65,0,0,1-.43,2.15,5.35,5.35,0,0,1-1.16,1.75A5.41,5.41,0,0,1,354.09,67a5.48,5.48,0,0,1-2.13.43,5.55,5.55,0,0,1-2.13-.43,5.41,5.41,0,0,1-1.77-1.19,5.51,5.51,0,0,1-1.16-1.75,5.57,5.57,0,0,1,0-4.29,5.33,5.33,0,0,1,2.93-2.94,5.37,5.37,0,0,1,2.13-.43,5.3,5.3,0,0,1,2.13.43A5.54,5.54,0,0,1,355.86,58,5.4,5.4,0,0,1,357,59.76,5.6,5.6,0,0,1,357.45,61.9Zm-2,0a3.73,3.73,0,0,0-1-2.57,3.27,3.27,0,0,0-1.1-.77,3.38,3.38,0,0,0-1.34-.27,3.41,3.41,0,0,0-1.34.27,3.27,3.27,0,0,0-1.1.77,3.53,3.53,0,0,0-.74,1.17,3.67,3.67,0,0,0,0,2.81,3.53,3.53,0,0,0,.74,1.17,3.39,3.39,0,0,0,4.88,0,3.73,3.73,0,0,0,1-2.58Z"/><path class="cls-8" d="M375.39,52.49c0-.64.36-1,1.09-1a.81.81,0,0,1,.91.93l-.26,14c0,.62-.33.94-1,.94a.88.88,0,0,1-1-1v-.65a5.28,5.28,0,0,1-1.51,1,5.11,5.11,0,0,1-2.08.44,5,5,0,0,1-2.07-.44,5.61,5.61,0,0,1-3.26-5.07,5.3,5.3,0,0,1,.43-2.13,5.43,5.43,0,0,1,1.15-1.75,5.18,5.18,0,0,1,1.68-1.19,4.87,4.87,0,0,1,2.07-.44,4.8,4.8,0,0,1,2.06.44,5.08,5.08,0,0,1,1.68,1.19Zm-7.15,9.26a3.66,3.66,0,0,0,.27,1.39,3.61,3.61,0,0,0,.74,1.15,3.72,3.72,0,0,0,1.09.79,3.17,3.17,0,0,0,1.33.28,3.1,3.1,0,0,0,1.32-.28,3.64,3.64,0,0,0,1.84-1.94,3.66,3.66,0,0,0,.27-1.39,3.62,3.62,0,0,0-.27-1.39,3.84,3.84,0,0,0-.74-1.16,3.56,3.56,0,0,0-1.1-.78,3.1,3.1,0,0,0-1.32-.29,3.18,3.18,0,0,0-1.33.29,3.51,3.51,0,0,0-1.09.78,3.73,3.73,0,0,0-1,2.55Z"/><path class="cls-8" d="M385.34,67.39a5.22,5.22,0,0,1-3.77-1.48,5.64,5.64,0,0,1-1.5-3.83,5.5,5.5,0,0,1,4.65-6.26,6.37,6.37,0,0,1,1.3-.13,5.51,5.51,0,0,1,2,.36,3.56,3.56,0,0,1,2.26,3.67,3.26,3.26,0,0,1-1.22,2.55,5.51,5.51,0,0,1-3.67,1,10.13,10.13,0,0,1-3.3-.6,3.41,3.41,0,0,0,1,1.95,3.28,3.28,0,0,0,2.21.83,7,7,0,0,0,3.83-.88c.65-.38,1.15-.3,1.48.26s.11,1-.6,1.4A8.84,8.84,0,0,1,385.34,67.39Zm.63-9.8a4.09,4.09,0,0,0-3,1.17,3.44,3.44,0,0,0-.93,2,7,7,0,0,0,2.75.65,4.89,4.89,0,0,0,2.66-.34,1.51,1.51,0,0,0,.8-1.38A1.91,1.91,0,0,0,387,57.77,2.87,2.87,0,0,0,386,57.59Z"/><path class="cls-8" d="M394.47,63.85a3.64,3.64,0,0,0,2.7,1.77,3.23,3.23,0,0,0,2.08-.47A1.55,1.55,0,0,0,400,63.8c0-.48-.32-.89-1-1.22a11.12,11.12,0,0,0-2.29-.78c-2.61-.57-4-1.71-4-3.41a3.38,3.38,0,0,1,.73-2.44,4.21,4.21,0,0,1,3-1.46,8.13,8.13,0,0,1,2.55.18,5.28,5.28,0,0,1,2.08,1c.59.54.67,1,.23,1.54s-.89.46-1.48,0a4.89,4.89,0,0,0-2.78-.94,2.61,2.61,0,0,0-1.61.47,1.51,1.51,0,0,0-.65,1.27c0,.87.86,1.54,2.6,2a18.52,18.52,0,0,1,3,1.09,2.83,2.83,0,0,1,1.66,2.58,3.28,3.28,0,0,1-1.27,2.7,5.09,5.09,0,0,1-3.64,1,5.63,5.63,0,0,1-2.58-.78,4.6,4.6,0,0,1-1.84-1.87c-.35-.64-.24-1.12.31-1.43S394,63.26,394.47,63.85Z"/><path class="cls-8" d="M407.57,52.67a1.48,1.48,0,0,1-.5,1.13,1.71,1.71,0,0,1-1.21.49,1.67,1.67,0,0,1-1.2-.49,1.51,1.51,0,0,1-.49-1.13,1.52,1.52,0,0,1,.49-1.13,1.66,1.66,0,0,1,1.2-.48,1.7,1.7,0,0,1,1.21.48A1.5,1.5,0,0,1,407.57,52.67Zm-2.8,13.65.07-8.32a1,1,0,1,1,2,0l-.05,8.32c0,.7-.35,1-1,1A.91.91,0,0,1,404.77,66.32Z"/><path class="cls-8" d="M410.36,66.32l-.13-9.64c0-.61.32-.91,1-.91s1,.31,1,.93l0,1.85a3.63,3.63,0,0,1,3.15-2.31,4.14,4.14,0,0,1,3.95,1.89,11.05,11.05,0,0,1,1.3,5.93v2.26a1,1,0,1,1-2,0l0-2.68c0-3.67-1-5.51-3-5.51s-3,2.08-3.25,6.24l0,1.95a.89.89,0,0,1-1,1C410.69,67.36,410.36,67,410.36,66.32Z"/><path class="cls-8" d="M433.57,56.26l.42,9.15a6.28,6.28,0,0,1-.81,3.62,5,5,0,0,1-3.27,2.15,6.41,6.41,0,0,1-4.92-.7c-.6-.38-.75-.84-.44-1.37s.8-.59,1.51-.21a4.79,4.79,0,0,0,3.28.47,3.38,3.38,0,0,0,2.15-1.44,4.6,4.6,0,0,0,.55-2.78V65a5.2,5.2,0,0,1-1.64,1.06,5.2,5.2,0,0,1-3.95,0,4.67,4.67,0,0,1-2.7-2.69,5,5,0,0,1-.39-2,5.14,5.14,0,0,1,.39-2,4.65,4.65,0,0,1,2.7-2.7,5.2,5.2,0,0,1,3.95,0,5.71,5.71,0,0,1,1.2.7l-.05-1.12a.87.87,0,0,1,1-1A.92.92,0,0,1,433.57,56.26Zm-1.74,5.17,0-.46a3,3,0,0,0-.91-1.82,3.2,3.2,0,0,0-2.32-.91,3.14,3.14,0,0,0-2.3.91,3.24,3.24,0,0,0,0,4.52,3.14,3.14,0,0,0,2.3.91,3.2,3.2,0,0,0,2.32-.91A3,3,0,0,0,431.83,61.43Z"/></g></g></svg>