<svg xmlns="http://www.w3.org/2000/svg" viewBox="0 0 181.22 195.75"><defs><style>.cls-1{fill:#537a6e;}.cls-2{fill:#51504f;}.cls-3{fill:#8d9e96;}</style></defs><g id="Layer_2" data-name="Layer 2"><g id="Layer_1-2" data-name="Layer 1"><path class="cls-1" d="M6.53,15.37,6.32,2.57H1.56c-.69,0-1-.32-1-1s.35-.93,1-.93H13.81c.69,0,1,.31,1,.93s-.35,1-1,1H8.35l.18,12.77a.89.89,0,0,1-1,1A.92.92,0,0,1,6.53,15.37Z"/><path class="cls-1" d="M22.51,4.81q.45-1.12,1.38-.75c.63.26.8.73.52,1.43l-5,12.37c-.29.76-.76,1-1.4.81s-.8-.74-.47-1.54l1.53-3.82L14.82,5.72c-.45-.8-.38-1.35.21-1.66s1.09-.12,1.51.59L20,11Z"/><path class="cls-1" d="M28.73,5.43l0,1.1A5.16,5.16,0,0,1,32.6,4.81a5.1,5.1,0,0,1,2.08.43,5,5,0,0,1,1.69,1.18,5.22,5.22,0,0,1,1.15,1.76,5.82,5.82,0,0,1,0,4.29,5.17,5.17,0,0,1-1.15,1.75,5,5,0,0,1-1.69,1.18,5.1,5.1,0,0,1-2.08.43,4.75,4.75,0,0,1-2.05-.44,4.93,4.93,0,0,1-1.69-1.17l.08,4.53a1,1,0,1,1-2,0L26.7,5.46a.9.9,0,0,1,1-1A.92.92,0,0,1,28.73,5.43Zm7.17,4.89a3.74,3.74,0,0,0-.26-1.4,3.49,3.49,0,0,0-.72-1.17A3.31,3.31,0,0,0,33.81,7a3.38,3.38,0,0,0-1.34-.27A3.41,3.41,0,0,0,31.13,7a3.27,3.27,0,0,0-1.1.77,3.51,3.51,0,0,0-.73,1.17,3.93,3.93,0,0,0,0,2.81A3.51,3.51,0,0,0,30,12.9a3.24,3.24,0,0,0,1.1.76,3.42,3.42,0,0,0,1.34.28,3.39,3.39,0,0,0,1.34-.28,3.28,3.28,0,0,0,1.11-.76,3.49,3.49,0,0,0,.72-1.17A3.75,3.75,0,0,0,35.9,10.32Z"/><path class="cls-1" d="M51.09,10.37a5.47,5.47,0,0,1-.43,2.15,5.35,5.35,0,0,1-1.16,1.75,5.41,5.41,0,0,1-1.77,1.19,5.48,5.48,0,0,1-2.13.43,5.45,5.45,0,0,1-5.06-3.37,5.69,5.69,0,0,1,0-4.29A5.56,5.56,0,0,1,41.7,6.47a5.66,5.66,0,0,1,1.77-1.18,5.37,5.37,0,0,1,2.13-.43,5.3,5.3,0,0,1,2.13.43A5.54,5.54,0,0,1,49.5,6.47a5.61,5.61,0,0,1,1.59,3.9Zm-2,0A3.75,3.75,0,0,0,48.79,9a3.7,3.7,0,0,0-.74-1.17A3.31,3.31,0,0,0,46.94,7a3.38,3.38,0,0,0-1.34-.27A3.41,3.41,0,0,0,44.26,7a3.27,3.27,0,0,0-1.1.77A3.7,3.7,0,0,0,42.42,9a3.67,3.67,0,0,0,0,2.81A3.7,3.7,0,0,0,43.16,13a3.37,3.37,0,0,0,3.78.76A3.28,3.28,0,0,0,48.05,13a3.7,3.7,0,0,0,.74-1.17A3.76,3.76,0,0,0,49.06,10.37Z"/><path class="cls-1" d="M63.49,4.73l.42,9.15a6.28,6.28,0,0,1-.81,3.62,5,5,0,0,1-3.28,2.16A6.43,6.43,0,0,1,54.91,19c-.61-.38-.75-.84-.44-1.37s.79-.59,1.51-.21a4.76,4.76,0,0,0,3.27.47,3.4,3.4,0,0,0,2.16-1.43A4.7,4.7,0,0,0,62,13.62v-.15a5.32,5.32,0,0,1-1.64,1.06,5.2,5.2,0,0,1-4,0,5.2,5.2,0,0,1-1.64-1.06,5.3,5.3,0,0,1-1.07-1.63,5,5,0,0,1-.39-2,5.17,5.17,0,0,1,1.46-3.61A5.23,5.23,0,0,1,56.37,5.2a5.2,5.2,0,0,1,4,0,5.64,5.64,0,0,1,1.19.7l0-1.12a.88.88,0,0,1,1-1A.93.93,0,0,1,63.49,4.73ZM61.75,9.91l0-.47a3,3,0,0,0-.91-1.82,3.16,3.16,0,0,0-2.31-.91,3.12,3.12,0,0,0-2.3.91,3,3,0,0,0-.93,2.26,3,3,0,0,0,.93,2.26,3.12,3.12,0,0,0,2.3.91,3.16,3.16,0,0,0,2.31-.91A3,3,0,0,0,61.75,9.91Z"/><path class="cls-1" d="M67.13,14.85,67,5.2c0-.62.33-.94,1-.94s1,.32,1,1l0,1.61a4.26,4.26,0,0,1,2.68-1.59,5.18,5.18,0,0,1,4.4,1.07c.53.48.61,1,.23,1.45s-.9.53-1.51.08a3.61,3.61,0,0,0-2.65-.78,3.15,3.15,0,0,0-2.34,1.64,6.79,6.79,0,0,0-.75,2.65l0,3.49a.91.91,0,0,1-1,1C67.48,15.89,67.15,15.54,67.13,14.85Z"/><path class="cls-1" d="M86.94,13.81c-.1.12-.21.23-.31.33a4.71,4.71,0,0,1-1.7,1.17,5.39,5.39,0,0,1-2.1.42,5.3,5.3,0,0,1-2.08-.42,4.67,4.67,0,0,1-1.69-1.17,5.08,5.08,0,0,1-1.13-1.76,6,6,0,0,1-.4-2.16,5.87,5.87,0,0,1,.4-2.16,5.22,5.22,0,0,1,1.13-1.77,4.93,4.93,0,0,1,1.69-1.17,5.29,5.29,0,0,1,2.08-.41,5.47,5.47,0,0,1,2.11.41,5,5,0,0,1,1.59,1.07l0-.42a.89.89,0,0,1,1-1.06.87.87,0,0,1,1,.93l.5,9.13c0,.69-.27,1.06-.91,1.12A.91.91,0,0,1,87,15Zm-.31-3.59a4.06,4.06,0,0,0-.26-1.42,3.46,3.46,0,0,0-.73-1.18,3.39,3.39,0,0,0-1.16-.76,3.81,3.81,0,0,0-1.39-.26,3.85,3.85,0,0,0-1.39.26,3.44,3.44,0,0,0-1.15.76,3.31,3.31,0,0,0-.73,1.18,3.84,3.84,0,0,0-.26,1.42,3.79,3.79,0,0,0,.26,1.41,3.35,3.35,0,0,0,.73,1.19,3.27,3.27,0,0,0,1.15.75,3.85,3.85,0,0,0,2.78,0,3.23,3.23,0,0,0,1.16-.75,3.5,3.5,0,0,0,.73-1.19A4,4,0,0,0,86.63,10.22Z"/><path class="cls-1" d="M94,5.43l0,1.1A5.19,5.19,0,0,1,100,5.24a5,5,0,0,1,1.69,1.18,5.35,5.35,0,0,1,1.14,1.76,5.69,5.69,0,0,1,0,4.29,5.3,5.3,0,0,1-1.14,1.75A5,5,0,0,1,100,15.4a5.1,5.1,0,0,1-2.08.43,4.8,4.8,0,0,1-2.06-.44,4.93,4.93,0,0,1-1.69-1.17l.08,4.53a.9.9,0,0,1-1,1,.92.92,0,0,1-1-1L92,5.46a1,1,0,1,1,2,0Zm7.18,4.89a4,4,0,0,0-.26-1.4,3.51,3.51,0,0,0-.73-1.17A3.27,3.27,0,0,0,99.1,7a3.41,3.41,0,0,0-1.34-.27A3.38,3.38,0,0,0,96.42,7a3.31,3.31,0,0,0-1.11.77,3.49,3.49,0,0,0-.72,1.17,3.93,3.93,0,0,0,0,2.81,3.49,3.49,0,0,0,.72,1.17,3.28,3.28,0,0,0,1.11.76,3.39,3.39,0,0,0,1.34.28,3.42,3.42,0,0,0,1.34-.28,3.24,3.24,0,0,0,1.1-.76,3.51,3.51,0,0,0,.73-1.17A4,4,0,0,0,101.19,10.32Z"/><path class="cls-1" d="M106,14.85,105.77.94a.84.84,0,0,1,1-.94c.71,0,1.06.32,1.06,1l.11,7A3.35,3.35,0,0,1,111,5.8q5.05,0,5,7.56v1.51a1,1,0,1,1-2,0V13.52q0-5.82-2.86-5.82c-1.75,0-2.83,2-3.22,5.92l0,1.23a.91.91,0,0,1-1,1C106.33,15.89,106,15.54,106,14.85Z"/><path class="cls-1" d="M126.36,4.81c.29-.75.75-1,1.37-.75s.8.73.52,1.43l-5,12.37c-.29.76-.76,1-1.4.81s-.8-.74-.47-1.54l1.53-3.82-4.26-7.59c-.45-.8-.38-1.35.21-1.66s1.09-.12,1.51.59L123.89,11Z"/><path class="cls-2" d="M10.24,93l-1.63,0v2.45h3.3c.42,0,.64.2.64.59s-.22.61-.64.61H3.6c-.42,0-.64-.2-.64-.61s.22-.59.64-.59H7.36V93.11l-2.06.07c-.45,0-.68-.17-.71-.58l-.06-4a.61.61,0,0,1,.69-.7l4.24,0c.42,0,.64.19.64.57s-.21.59-.63.59l-3.68,0,0,2.9,4.35-.13c.43,0,.64.18.65.56S10.65,93,10.24,93Z"/><path class="cls-2" d="M19.3,92.18,15,92.25c-.45,0-.69-.19-.7-.61l-.08-4.13a.61.61,0,0,1,.69-.7l3.87,0c.43,0,.64.19.64.57s-.21.59-.62.59l-3.32,0,0,3.09,3.71,0c.43,0,.65.19.66.56S19.7,92.17,19.3,92.18Zm-2.37,5-.19-2.81c0-.52.16-.79.61-.79h4c.49,0,.74.27.74.8v2.77a.54.54,0,0,1-.61.61h-4C17.14,97.72,17,97.53,16.93,97.14ZM18,94.7l.12,1.87h2.74V94.7Zm3.36-2.79v-5c0-.43.2-.64.62-.64s.61.21.61.64V88.5l1.47.07a.54.54,0,0,1,.59.62.53.53,0,0,1-.62.58l-1.44-.06v2.2c0,.43-.2.64-.61.64S21.35,92.34,21.35,91.91Z"/><path class="cls-2" d="M33.12,93l-1.63,0v2.45h3.3c.42,0,.64.2.64.59s-.22.61-.64.61H26.48c-.42,0-.64-.2-.64-.61s.22-.59.64-.59h3.76V93.11l-2.06.07c-.45,0-.68-.17-.71-.58l-.06-4a.61.61,0,0,1,.69-.7l4.24,0c.42,0,.64.19.64.57s-.21.59-.63.59l-3.68,0,0,2.9,4.35-.13c.43,0,.64.18.65.56S33.53,93,33.12,93Z"/><path class="cls-2" d="M42.18,92.18l-4.31.07c-.45,0-.69-.19-.7-.61l-.08-4.13a.61.61,0,0,1,.69-.7l3.87,0c.43,0,.64.19.64.57s-.21.59-.62.59l-3.32,0,0,3.09,3.71,0c.43,0,.65.19.66.56S42.58,92.17,42.18,92.18Zm-2.37,5-.19-2.81c0-.52.16-.79.61-.79h4c.49,0,.74.27.74.8v2.77a.54.54,0,0,1-.61.61h-4C40,97.72,39.84,97.53,39.81,97.14Zm1.06-2.44L41,96.57h2.74V94.7Zm3.36-2.79v-5c0-.43.2-.64.62-.64s.61.21.61.64V88.5l1.47.07a.55.55,0,0,1,.59.62.53.53,0,0,1-.62.58l-1.44-.06v2.2c0,.43-.2.64-.61.64S44.23,92.34,44.23,91.91Z"/><path class="cls-2" d="M3.83,114.07l3.39.05c.64,0,.92.36.83,1.06l-.61,4.57a.55.55,0,0,1-.7.53.55.55,0,0,1-.55-.7l.23-1.7L4,117.9c-.43,0-.64-.19-.64-.56s.21-.56.64-.56l2.59,0,.19-1.46-3-.05c-.42,0-.63-.21-.62-.61S3.4,114.06,3.83,114.07Zm7.88-.54,0,2h1.79c.42,0,.64.19.64.59a.56.56,0,0,1-.64.61H11.76l.05,2.89a.57.57,0,0,1-.62.66.55.55,0,0,1-.63-.62l-.09-6.17a.54.54,0,0,1,.62-.63A.54.54,0,0,1,11.71,113.53Z"/><path class="cls-2" d="M16.21,118.68l-.11-3.41h-.29c-.43,0-.64-.19-.64-.59s.21-.58.64-.58h4.48c.43,0,.64.2.64.58s-.21.59-.64.59H20v3.41h.46c.43,0,.64.19.64.58s-.21.57-.64.57H15.68c-.42,0-.64-.19-.64-.57s.22-.58.64-.58Zm1.12-3.41.11,3.41h1.3v-3.41Zm4.78,4.29v-2H21c-.43,0-.65-.2-.65-.59s.22-.58.65-.58h1.1l0-2.72a.56.56,0,0,1,.61-.64c.41,0,.61.22.61.64l0,5.89c0,.43-.2.64-.61.64S22.11,120,22.11,119.56Zm2.36.13v-6.15c0-.42.2-.63.61-.63s.6.21.6.63v6.15c0,.43-.2.64-.6.64S24.47,120.12,24.47,119.69Z"/><path class="cls-2" d="M33.52,119.42c.43,0,.64.19.64.57s-.21.59-.64.59H28.47c-.36,0-.56-.14-.61-.44s.1-.51.46-.76A14.24,14.24,0,0,0,31,117.06a3.9,3.9,0,0,0,1.14-2.64,1.3,1.3,0,0,0-.92-1.42,1.77,1.77,0,0,0-1.77.29,1.74,1.74,0,0,0-.59,1.41.53.53,0,0,1-.61.59.55.55,0,0,1-.64-.58,2.56,2.56,0,0,1,.72-2.09,2.85,2.85,0,0,1,1.53-.83,3.74,3.74,0,0,1,1.73.08,2.33,2.33,0,0,1,1.09.67,2.56,2.56,0,0,1,.7,1.79,5.08,5.08,0,0,1-.89,2.83,9,9,0,0,1-2.29,2.26Z"/><path class="cls-2" d="M40,120.31v-1.53l-3.71-.1a.64.64,0,0,1-.67-.35.72.72,0,0,1,.11-.75l4.13-5.84a.77.77,0,0,1,.88-.34.69.69,0,0,1,.51.75v5.47l1.09,0c.42,0,.64.2.64.58s-.22.6-.66.59l-1.07,0v1.53a.63.63,0,1,1-1.25,0Zm0-2.72v-4.25l-2.85,4.17Z"/><path class="cls-2" d="M51,114.49l-1.7.05v2.29h3.51c.42,0,.64.19.64.59s-.22.6-.64.6H44.56c-.42,0-.64-.2-.64-.6s.22-.59.64-.59h3.51v-2.25l-1.65,0c-.45,0-.68-.17-.71-.57l-.06-3.35a.61.61,0,0,1,.69-.7l3.89,0c.42,0,.64.19.64.57s-.21.59-.63.59l-3.33,0,0,2.27,4-.12c.42,0,.64.17.65.56S51.42,114.48,51,114.49Zm.34,6.88a2.06,2.06,0,0,1-.2.88,2.19,2.19,0,0,1-.51.73,2.33,2.33,0,0,1-.74.49,2.15,2.15,0,0,1-.91.19,2.06,2.06,0,0,1-.89-.19,2.45,2.45,0,0,1-.74-.49,2.52,2.52,0,0,1-.51-.73,2.13,2.13,0,0,1,0-1.76,2.71,2.71,0,0,1,.51-.74,2.89,2.89,0,0,1,.74-.49,2.21,2.21,0,0,1,.89-.18,2.31,2.31,0,0,1,.91.18,2.72,2.72,0,0,1,.74.49,2.33,2.33,0,0,1,.51.74A2.06,2.06,0,0,1,51.35,121.37Zm-1.24,0a1.12,1.12,0,0,0-.31-.8,1,1,0,0,0-.81-.34,1,1,0,0,0-.8.34,1.15,1.15,0,0,0-.3.8,1.17,1.17,0,0,0,.3.8,1,1,0,0,0,.8.33,1.07,1.07,0,0,0,.81-.33A1.13,1.13,0,0,0,50.11,121.37Z"/><path class="cls-2" d="M61.73,114.49l-1.7.05v2.29h3.51c.42,0,.64.19.64.59s-.22.6-.64.6H55.28c-.42,0-.64-.2-.64-.6s.22-.59.64-.59h3.51v-2.25l-1.65,0c-.45,0-.68-.17-.71-.57l-.06-3.35a.61.61,0,0,1,.69-.7L61,110c.42,0,.64.19.64.57s-.21.59-.63.59l-3.33,0,0,2.27,4-.12c.42,0,.64.17.65.56S62.13,114.48,61.73,114.49Zm.34,6.88a2.06,2.06,0,0,1-.2.88,2.19,2.19,0,0,1-.51.73,2.33,2.33,0,0,1-.74.49,2.18,2.18,0,0,1-.91.19,2,2,0,0,1-.89-.19,2.33,2.33,0,0,1-.74-.49,2.52,2.52,0,0,1-.51-.73,2.13,2.13,0,0,1,0-1.76,2.35,2.35,0,0,1,1.25-1.23,2.18,2.18,0,0,1,.89-.18,2.34,2.34,0,0,1,.91.18,2.72,2.72,0,0,1,.74.49,2.33,2.33,0,0,1,.51.74A2.06,2.06,0,0,1,62.07,121.37Zm-1.24,0a1.12,1.12,0,0,0-.31-.8,1,1,0,0,0-.81-.34,1,1,0,0,0-.8.34,1.15,1.15,0,0,0-.3.8,1.17,1.17,0,0,0,.3.8,1,1,0,0,0,.8.33,1.07,1.07,0,0,0,.81-.33A1.13,1.13,0,0,0,60.83,121.37Z"/><path class="cls-2" d="M10.23,136.41a2.31,2.31,0,0,1-.72,1.74,2.65,2.65,0,0,1-.88.55v1.79h3.28c.42,0,.64.2.64.59s-.22.61-.64.61H3.6c-.42,0-.64-.2-.64-.61s.22-.59.64-.59H7.36v-1.66a2.38,2.38,0,0,1-1.42-.68,2.47,2.47,0,0,1,0-3.49,2.43,2.43,0,0,1,1.77-.7,2.47,2.47,0,0,1,1.79.7A2.34,2.34,0,0,1,10.23,136.41Zm-5,7a.56.56,0,0,1,.61-.65.55.55,0,0,1,.64.61l0,2.43,4-.08q.62,0,.63.57a.52.52,0,0,1-.58.6L6.13,147a.73.73,0,0,1-.85-.78Zm3.79-7a1.25,1.25,0,0,0-.37-.92,1.32,1.32,0,0,0-1.85,0,1.28,1.28,0,0,0-.36.92,1.24,1.24,0,0,0,.36.91,1.22,1.22,0,0,0,.92.37,1.23,1.23,0,0,0,.93-.37A1.21,1.21,0,0,0,9,136.41Z"/><path class="cls-2" d="M14.26,139.66h8.25c.43,0,.64.19.64.57s-.21.6-.64.6H14.26c-.43,0-.64-.2-.64-.6S13.83,139.66,14.26,139.66Zm1.55-5.22h4.5c.54,0,.79.28.75.83l-.29,3.19c0,.43-.25.64-.66.6s-.59-.27-.56-.72l.21-2.75h-4c-.43,0-.64-.19-.64-.57S15.38,134.44,15.81,134.44Zm6,13.33-5.15.16c-.4,0-.61-.17-.62-.53l-.08-2.26c0-.4.19-.61.64-.64l3.41-.11,0-1.34H16.16c-.42,0-.64-.19-.64-.56s.22-.55.64-.55h4.39a.62.62,0,0,1,.68.71v2.21a.53.53,0,0,1-.59.59l-3.45.09v1.22l4.56-.09c.42,0,.63.16.64.52S22.21,147.76,21.79,147.77Z"/><path class="cls-2" d="M30.15,137.71a2.41,2.41,0,0,1-.73,1.77,2.7,2.7,0,0,1-3.67,0,2.41,2.41,0,0,1-.72-1.77,2.45,2.45,0,0,1,.72-1.79,2.67,2.67,0,0,1,3.67,0A2.46,2.46,0,0,1,30.15,137.71Zm-1.2,0a1.33,1.33,0,0,0-1.36-1.37,1.28,1.28,0,0,0-1,.39,1.33,1.33,0,0,0-.38,1,1.3,1.3,0,0,0,1.35,1.34,1.33,1.33,0,0,0,1-.38A1.27,1.27,0,0,0,29,137.71Zm-.07,6.86-.08-1.89h-.52c-.43,0-.65-.19-.65-.58s.22-.56.65-.56h5.21c.43,0,.64.19.64.56s-.21.58-.64.58H33v1.89h.54c.43,0,.64.19.64.57s-.21.58-.64.58H28.24c-.42,0-.64-.19-.64-.58s.22-.57.64-.57ZM30,142.68l.08,1.89h1.63v-1.89Zm2.89-2.77v-5a.56.56,0,0,1,.62-.64c.41,0,.61.21.61.64v5c0,.43-.2.64-.61.64A.56.56,0,0,1,32.93,139.91Z"/><path class="cls-2" d="M41.28,139.66l-.22-4.07c0-.52.16-.78.61-.78h4.09c.49,0,.74.27.74.8v4a.54.54,0,0,1-.61.61l-4.08,0C41.49,140.23,41.31,140,41.28,139.66Zm1-3.7.16,3.12,2.81,0V136Zm6.75,9.54-4.35.09c-.56,0-.84-.24-.85-.78l-.07-2.69a.57.57,0,0,1,.61-.66.55.55,0,0,1,.64.61l.05,2.32,3.92,0c.41,0,.61.18.62.57A.51.51,0,0,1,49.06,145.5Zm-.79-4.79v-5.79a.56.56,0,0,1,.63-.64c.4,0,.61.21.61.64v2L51,137a.55.55,0,0,1,.59.62.53.53,0,0,1-.62.58l-1.44-.07v2.61c0,.43-.21.64-.61.64A.56.56,0,0,1,48.27,140.71Z"/><path class="cls-2" d="M53.41,141.94h8c.43,0,.64.2.64.6s-.21.6-.64.6h-3v3.14a.63.63,0,1,1-1.25,0v-3.14H53.41a.6.6,0,0,1,0-1.2Zm6.64-1.68-4.94.15c-.45,0-.69-.17-.71-.58L54.34,136a.61.61,0,0,1,.69-.7l4.24,0c.42,0,.64.19.64.57s-.21.59-.63.59l-3.68.05,0,2.77,4.36-.13c.42,0,.64.18.65.56S60.46,140.25,60.05,140.26Z"/><path class="cls-2" d="M65.43,138l-.23-3.24c0-.53.16-.79.61-.79H70.1c.49,0,.73.27.73.8V138a.53.53,0,0,1-.6.61H68.82v2.23h3.5c.43,0,.64.19.64.59s-.21.6-.64.6H64.07c-.43,0-.64-.2-.64-.6s.21-.59.64-.59h3.5V138.6H66C65.63,138.6,65.46,138.41,65.43,138Zm5.42,7.35a2.05,2.05,0,0,1-.19.88,2.52,2.52,0,0,1-.51.73,2.49,2.49,0,0,1-.75.49,2.23,2.23,0,0,1-1.8,0,2.29,2.29,0,0,1-.73-.49,2.37,2.37,0,0,1-.52-.73,2.13,2.13,0,0,1,0-1.76,2.54,2.54,0,0,1,.52-.74,2.67,2.67,0,0,1,.73-.49,2.34,2.34,0,0,1,1.8,0,2.94,2.94,0,0,1,.75.49,2.71,2.71,0,0,1,.51.74A2.05,2.05,0,0,1,70.85,145.37Zm-4.37-10.23.16,2.31h3v-2.31Zm3.14,10.23a1.16,1.16,0,0,0-.31-.8,1,1,0,0,0-.81-.34,1,1,0,0,0-.8.34,1.16,1.16,0,0,0-.31.8,1.18,1.18,0,0,0,.31.8,1,1,0,0,0,.8.33,1.07,1.07,0,0,0,.81-.33A1.18,1.18,0,0,0,69.62,145.37Z"/><path class="cls-2" d="M75.49,138.07l3.39.05c.64,0,.92.36.83,1.06l-.6,4.57a.56.56,0,0,1-.71.53.54.54,0,0,1-.54-.7l.22-1.7-2.45,0c-.42,0-.64-.19-.64-.56s.22-.56.64-.56l2.6,0,.19-1.46-3,0c-.43,0-.64-.21-.63-.61S75.06,138.06,75.49,138.07Zm8.35-.54.1,6.14a.57.57,0,0,1-.63.66c-.4,0-.61-.2-.62-.62l-.1-6.17q0-.63.63-.63A.55.55,0,0,1,83.84,137.53Z"/><path class="cls-2" d="M10,162.49l-1.7,0v2.29h3.5c.43,0,.64.19.64.59s-.21.6-.64.6H3.54c-.43,0-.64-.2-.64-.6s.21-.59.64-.59H7v-2.25l-1.65,0c-.44,0-.68-.17-.7-.57l-.06-3.35a.61.61,0,0,1,.68-.7l3.89,0c.43,0,.64.19.64.57s-.21.59-.62.59l-3.33.05,0,2.27,4-.12c.43,0,.65.17.66.56S10.39,162.48,10,162.49Zm.33,6.88a2.05,2.05,0,0,1-.19.88,2.52,2.52,0,0,1-.51.73,2.33,2.33,0,0,1-.74.49,2.18,2.18,0,0,1-.91.19,2.11,2.11,0,0,1-.9-.19,2.4,2.4,0,0,1-.73-.49,2.19,2.19,0,0,1-.51-.73,2,2,0,0,1,0-1.76,2.33,2.33,0,0,1,.51-.74,2.83,2.83,0,0,1,.73-.49,2.26,2.26,0,0,1,.9-.18,2.34,2.34,0,0,1,.91.18,2.72,2.72,0,0,1,.74.49,2.71,2.71,0,0,1,.51.74A2.05,2.05,0,0,1,10.32,169.37Zm-1.23,0a1.12,1.12,0,0,0-.31-.8,1,1,0,0,0-.81-.34,1,1,0,0,0-.8.34,1.15,1.15,0,0,0-.3.8,1.17,1.17,0,0,0,.3.8,1,1,0,0,0,.8.33,1.07,1.07,0,0,0,.81-.33A1.13,1.13,0,0,0,9.09,169.37Z"/><path class="cls-2" d="M14.26,163.66h8.25c.43,0,.64.19.64.57s-.21.6-.64.6H14.26c-.43,0-.64-.2-.64-.6S13.83,163.66,14.26,163.66Zm1.55-5.22h4.5c.54,0,.79.28.75.83l-.29,3.19c0,.43-.25.64-.66.6s-.59-.27-.56-.72l.21-2.75h-4c-.43,0-.64-.19-.64-.57S15.38,158.44,15.81,158.44Zm6,13.33-5.15.16c-.4,0-.61-.17-.62-.53l-.08-2.26c0-.4.19-.61.64-.64l3.41-.11,0-1.34H16.16c-.42,0-.64-.19-.64-.56s.22-.55.64-.55h4.39a.62.62,0,0,1,.68.71v2.21a.53.53,0,0,1-.59.59l-3.45.09v1.22l4.56-.09c.42,0,.63.16.64.52S22.21,171.76,21.79,171.77Z"/><path class="cls-2" d="M27.39,160v1.86l.55,0a.92.92,0,0,1,.88.38.76.76,0,0,1,0,.82l-1.3,2.18,2.3,1.61c.41.29.49.59.25.92s-.57.33-.95,0l-2.19-1.55L26,167.87c-.26.43-.57.55-.92.36s-.38-.48-.14-.91l2.49-4.27-2.43,0c-.42,0-.64-.18-.64-.58s.22-.55.64-.56l1.19,0V160a.56.56,0,0,1,.62-.64C27.19,159.4,27.39,159.61,27.39,160Zm3.81,7.52v-2.22H29.54c-.43,0-.64-.2-.64-.58s.21-.58.64-.58h1.65l0-2.51c0-.42.2-.64.61-.64a.56.56,0,0,1,.61.64l0,5.89c0,.43-.2.64-.61.64S31.2,168,31.2,167.56Zm2.47.13v-6.15c0-.42.2-.63.61-.63s.6.21.6.63v6.15c0,.43-.2.64-.6.64S33.67,168.12,33.67,167.69Z"/><path class="cls-2" d="M3.47,186.63a.56.56,0,0,1,.61-.65.55.55,0,0,1,.64.6l.08,4,3.47-.07a.55.55,0,0,1,.63.58c0,.38-.18.58-.58.59l-3.9.08a.73.73,0,0,1-.85-.78Zm8.24-1.1,0,2.05h1.79c.42,0,.64.19.64.59a.56.56,0,0,1-.64.61H11.76l.05,2.89a.57.57,0,0,1-.62.66.55.55,0,0,1-.63-.62l-.09-6.17a.54.54,0,0,1,.62-.63A.54.54,0,0,1,11.71,185.53Z"/><path class="cls-2" d="M15.76,188.06h8c.43,0,.64.19.64.59s-.21.61-.64.61H20.74v2a1,1,0,0,1,0,.16h1.47c.5,0,.74.26.74.8v2.7a.54.54,0,0,1-.61.61H17.83c-.34,0-.52-.19-.53-.58l-.13-2.75c0-.52.17-.78.61-.78h1.73a1,1,0,0,1,0-.16v-2H15.76a.53.53,0,0,1-.59-.61A.52.52,0,0,1,15.76,188.06ZM17,182.49a.56.56,0,0,1,.61-.66.55.55,0,0,1,.64.61l.08,2.9,3.8-.07c.41,0,.62.19.63.58s-.18.58-.58.59l-4.24.08a.72.72,0,0,1-.84-.78Zm1.52,10.08.06,1.81h3.12v-1.81Z"/><path class="cls-2" d="M34.79,191.53c.42,0,.64.2.64.59s-.22.61-.64.61H26.48c-.42,0-.64-.2-.64-.61s.22-.59.64-.59Zm-4.5-6.05,4.05,2.37c.44.25.55.55.35.9s-.53.37-1,.11l-3.87-2.28-1.12,2.84c-.19.49-.48.66-.88.52s-.48-.45-.29-.94l2.2-5.47q.29-.69.84-.48c.38.15.48.45.31.89Z"/><path class="cls-2" d="M39,192.58v-3H37.33c-.43,0-.64-.2-.64-.59s.21-.58.64-.58h4.85c.42,0,.64.19.64.58s-.22.59-.64.59H40.24v3a.63.63,0,1,1-1.25,0Zm-1.24-6.94,3,0,.08-1.11H37.59c-.43,0-.64-.19-.64-.59s.21-.57.64-.57h3.76c.54,0,.79.27.75.83l-.27,3.1c0,.44-.25.64-.66.61s-.59-.27-.56-.72l0-.41H37.75c-.43,0-.64-.19-.64-.56S37.32,185.64,37.75,185.64Zm6.86-1.18.11,7.84c0,.43-.2.65-.61.65s-.6-.2-.6-.62l0-.8H41.83c-.43,0-.64-.19-.64-.56s.21-.56.64-.56h1.64l-.08-5.94a.55.55,0,0,1,.61-.64C44.41,183.83,44.61,184,44.61,184.46Zm2.26,0L47,192.3c0,.43-.2.65-.61.65a.54.54,0,0,1-.61-.62l-.11-7.86a.61.61,0,1,1,1.22,0Z"/><path class="cls-2" d="M54.53,188.73a2.45,2.45,0,0,1-.74,1.79,2.68,2.68,0,0,1-3.7,0,2.55,2.55,0,0,1,0-3.59,2.66,2.66,0,0,1,3.7,0A2.45,2.45,0,0,1,54.53,188.73Zm-1.2,0a1.31,1.31,0,0,0-.4-1,1.34,1.34,0,0,0-1-.4,1.33,1.33,0,0,0-1,.4,1.44,1.44,0,0,0,0,2,1.36,1.36,0,0,0,1,.39,1.37,1.37,0,0,0,1-.39A1.3,1.3,0,0,0,53.33,188.73Zm5-3.2.1,6.14a.57.57,0,0,1-.62.66.55.55,0,0,1-.63-.62l0-2.39H55.6c-.42,0-.64-.2-.64-.59s.22-.58.64-.58h1.55l0-2.61a.62.62,0,1,1,1.24,0Z"/><path class="cls-2" d="M106.88,91a.56.56,0,0,1,.61-.65.55.55,0,0,1,.64.6l.08,4,3.47-.07a.55.55,0,0,1,.63.58.52.52,0,0,1-.58.59l-3.9.08a.73.73,0,0,1-.85-.78Zm8.24-1.1,0,2H117c.42,0,.64.19.64.59a.56.56,0,0,1-.64.61h-1.78l0,2.89a.57.57,0,0,1-.63.66c-.4,0-.61-.2-.62-.63l-.1-6.16a.63.63,0,1,1,1.25,0Z"/><path class="cls-2" d="M119.39,90.43l3.36,0c.64,0,.92.36.84,1.06L123,96a.56.56,0,0,1-.71.53.55.55,0,0,1-.54-.7l.56-4.21-2.93-.05c-.42,0-.63-.21-.62-.61S119,90.42,119.39,90.43Zm7.89-.54,0,2h1.8c.42,0,.64.19.64.59a.56.56,0,0,1-.64.61h-1.78l0,2.89a.57.57,0,0,1-.63.66c-.4,0-.61-.2-.62-.63L126,89.9a.63.63,0,1,1,1.25,0Z"/><path class="cls-2" d="M134.82,90a.93.93,0,0,1,.88.39.75.75,0,0,1,0,.81l-1.56,2.4,2.64,1.68c.4.26.49.55.28.88s-.53.37-.93.12l-2.63-1.7-1.15,1.76a.6.6,0,0,1-.88.26c-.34-.21-.38-.5-.13-.88l3-4.55-2.88,0c-.42,0-.64-.19-.64-.56s.23-.56.67-.58Zm4.62-.09,0,2h1.79c.43,0,.65.19.65.59s-.22.61-.65.61h-1.77l0,2.89a.57.57,0,0,1-.63.66c-.4,0-.61-.2-.62-.63l-.1-6.16a.63.63,0,1,1,1.25,0Z"/><path class="cls-2" d="M107.87,113.42a.67.67,0,0,1,.24-.39.6.6,0,0,1,.4-.15.59.59,0,0,1,.52.19.84.84,0,0,1,.12.45c0,.18,0,.42,0,.73s0,.63,0,1v1.1q0,.57,0,1.08c0,.4.1.67.25.78a1.06,1.06,0,0,0,.66.19,15.43,15.43,0,0,0,1.66,0c.59,0,1.14-.08,1.67-.13a.57.57,0,0,1,.42.15.62.62,0,0,1,.17.41.57.57,0,0,1-.13.46.74.74,0,0,1-.4.18c-.61.06-1.22.11-1.84.14s-1.24,0-1.87,0a2.35,2.35,0,0,1-1.23-.36,1.59,1.59,0,0,1-.63-1.14,15.26,15.26,0,0,1-.12-1.65V114C107.84,113.76,107.85,113.56,107.87,113.42Zm8-.33a.69.69,0,0,1,.2-.41.54.54,0,0,1,.42-.18.8.8,0,0,1,.43.14.47.47,0,0,1,.24.42v.83c0,.34,0,.74,0,1.2h2.17a.46.46,0,0,1,.42.23,1,1,0,0,1,.13.46.65.65,0,0,1-.17.43.54.54,0,0,1-.43.19h-2.16l-.08,2.48a.68.68,0,0,1-.2.52.66.66,0,0,1-.4.15.89.89,0,0,1-.47-.15.48.48,0,0,1-.22-.47Z"/><path class="cls-2" d="M122.21,113.74a.67.67,0,0,1-.49-1.09.6.6,0,0,1,.54-.22l4.36,0a2.33,2.33,0,0,1,.66.07.75.75,0,0,1,.37.24.92.92,0,0,1,.16.45,6.75,6.75,0,0,1,0,.71,10,10,0,0,1-.15,1.62c-.1.59-.23,1.18-.38,1.76s-.33,1.1-.51,1.59a5.81,5.81,0,0,1-.53,1.11.43.43,0,0,1-.39.2.91.91,0,0,1-.5-.13.89.89,0,0,1-.35-.37.58.58,0,0,1,.06-.56,7.43,7.43,0,0,0,.47-1.06,12.78,12.78,0,0,0,.45-1.4,13,13,0,0,0,.31-1.51,5.85,5.85,0,0,0,.06-1.43Zm8.48-.65a.75.75,0,0,1,.2-.41.54.54,0,0,1,.42-.18.86.86,0,0,1,.44.14.47.47,0,0,1,.24.42v.83c0,.34,0,.74,0,1.2h1.81a.43.43,0,0,1,.41.23.89.89,0,0,1,.13.46.6.6,0,0,1-.17.43.52.52,0,0,1-.42.19h-1.79l-.08,2.48a.61.61,0,0,1-.61.67.86.86,0,0,1-.46-.15.47.47,0,0,1-.23-.47Z"/><path class="cls-2" d="M136.55,113.55a.73.73,0,0,1-.47-.2.55.55,0,0,1-.17-.37.59.59,0,0,1,.16-.46.69.69,0,0,1,.54-.23l.74,0,1.12,0,1.16,0a7.85,7.85,0,0,1,.87.06,1.23,1.23,0,0,1,.65.33.68.68,0,0,1,.15.66,6.68,6.68,0,0,1-.43,1.23,11.91,11.91,0,0,1-.64,1.22l2.25,2.16a.62.62,0,0,1,0,.93.6.6,0,0,1-.36.16.51.51,0,0,1-.4-.11l-2.16-2.08c-.4.53-.79,1-1.18,1.44s-.72.76-1,1a.68.68,0,0,1-.56.15.59.59,0,0,1-.47-.23,1.07,1.07,0,0,1-.14-.39.59.59,0,0,1,.19-.47c.34-.32.69-.69,1.06-1.09s.7-.83,1-1.27a11.89,11.89,0,0,0,.84-1.3,6.1,6.1,0,0,0,.52-1.18c-.21,0-.48,0-.79,0l-1,0-.9,0Zm8.54-.62a.75.75,0,0,1,.2-.41.54.54,0,0,1,.42-.18.83.83,0,0,1,.44.14.46.46,0,0,1,.24.42v.83c0,.34,0,.74,0,1.2h1.81a.43.43,0,0,1,.41.23.89.89,0,0,1,.13.46.6.6,0,0,1-.17.43.52.52,0,0,1-.42.19h-1.79l-.08,2.48a.61.61,0,0,1-.61.67.86.86,0,0,1-.46-.15.49.49,0,0,1-.23-.47Z"/><path class="cls-2" d="M106.18,139a.29.29,0,0,1,.17-.05.35.35,0,0,1,.23.16l.11.13,0,.91c0,.36,0,.89,0,1.57,0,.44,0,.67,0,.7a1.32,1.32,0,0,1,0,.36,1.31,1.31,0,0,0,.06.36,2.89,2.89,0,0,0,.74,0,5.2,5.2,0,0,0,.86-.06.86.86,0,0,1,.35,0,.82.82,0,0,0,.44,0,.76.76,0,0,1,.57.08.33.33,0,0,1,.18.27.31.31,0,0,1-.15.26,3.24,3.24,0,0,1-.88.07,3.81,3.81,0,0,0-1,.08,3.45,3.45,0,0,1-.72.06l-.66,0a.34.34,0,0,1-.28-.12.43.43,0,0,1-.13-.22,11.17,11.17,0,0,1-.07-1.24c0-.75,0-1.18,0-1.27s0-.41,0-1,0-.82,0-.88A.39.39,0,0,1,106.18,139Zm6.38-.42a.31.31,0,0,1,.34.08l.11.07,0,1.23a6.34,6.34,0,0,0,.06,1.3.66.66,0,0,0,.43.13,2,2,0,0,0,.61,0,.28.28,0,0,1,.31,0,.42.42,0,0,1,.2.4q0,.21-.09.27a.26.26,0,0,1-.31.05,1.88,1.88,0,0,0-.67-.07H113l0,1v1l-.11.23a.5.5,0,0,1-.21.28.28.28,0,0,1-.24,0,.4.4,0,0,1-.15-.25,3.16,3.16,0,0,1,0-.66,11.6,11.6,0,0,0,0-1.94,4.41,4.41,0,0,1,0-.91,6.72,6.72,0,0,1,.07-1,.86.86,0,0,0,0-.45.72.72,0,0,1,0-.62C112.47,138.61,112.53,138.54,112.56,138.54Z"/><path class="cls-2" d="M115.2,138.43l.11-.08h.63a7.86,7.86,0,0,1,1,.07,3,3,0,0,0,.67,0l.93,0a1.83,1.83,0,0,1,.8.12.3.3,0,0,1,.14.25,3.36,3.36,0,0,1-.16.88,1.23,1.23,0,0,0-.06.39.85.85,0,0,1-.06.35,1.36,1.36,0,0,0-.1.43.86.86,0,0,1-.11.38.72.72,0,0,0-.08.26.87.87,0,0,1-.1.3.89.89,0,0,0-.08.34,1.09,1.09,0,0,1-.09.34,1.76,1.76,0,0,0-.12.4,4.42,4.42,0,0,1-.24,1,1.85,1.85,0,0,0-.08.52,1.32,1.32,0,0,1-.12.6c-.14.26-.27.35-.39.28a.66.66,0,0,1-.16-.15c-.12-.13-.12-.37,0-.73a5.1,5.1,0,0,0,.12-.63,2.91,2.91,0,0,1,.12-.61.79.79,0,0,0,.08-.32,1.4,1.4,0,0,1,.06-.24,1.44,1.44,0,0,0,.08-.33,2.55,2.55,0,0,1,.12-.31,2.21,2.21,0,0,0,.1-.46,3.09,3.09,0,0,1,.21-.64,1.92,1.92,0,0,0,.1-.45,1.56,1.56,0,0,1,.08-.48,1.47,1.47,0,0,0,.06-.46v-.29l-.13-.06a2.16,2.16,0,0,0-.83-.1c-.63,0-1.13,0-1.5,0l-.8,0-.16-.11a.36.36,0,0,1-.15-.23C115.06,138.57,115.11,138.5,115.2,138.43Zm6.74-.53a.26.26,0,0,1,.16-.09.26.26,0,0,1,.27.22,11.58,11.58,0,0,1,0,1.57v1.47l.08.08a.64.64,0,0,0,.37.11h.3c.55,0,.91-.08,1.06-.08a.49.49,0,0,1,.32.23.34.34,0,0,1,0,.28.34.34,0,0,1-.23.2,2.26,2.26,0,0,1-.67.05,8,8,0,0,1-.83-.08.74.74,0,0,0-.35,0,3.58,3.58,0,0,0,0,.89q0,.88,0,1.35a1.36,1.36,0,0,1-.13.64c-.19.3-.38.32-.55.06a.43.43,0,0,1-.06-.29c.06-.47.1-1.66.1-3.58q0-2.07,0-2.25a1.12,1.12,0,0,1,.06-.45A.71.71,0,0,1,121.94,137.9Z"/><path class="cls-2" d="M125.36,138.63h.85l.88,0a.48.48,0,0,0,.24,0,.69.69,0,0,1,.5,0,2,2,0,0,0,.65.07h.58l.09.15c.08.08.11.15.1.19a.91.91,0,0,0-.1.16,1.46,1.46,0,0,1-.09.16,2.9,2.9,0,0,1-.13.27l-.18.31a2.76,2.76,0,0,0-.16.27c0,.09-.08.15-.11.16a.32.32,0,0,0-.09.13,4,4,0,0,1-.4.65c-.11.14-.2.26-.28.35a.27.27,0,0,0,.12.37l.38.27a2.3,2.3,0,0,0,.43.26,3,3,0,0,0,.34.19,3.72,3.72,0,0,0,.49.24c.32.15.48.29.48.4a.29.29,0,0,1-.16.27c-.06,0-.17,0-.32,0a1.72,1.72,0,0,1-.39-.11l-.2-.09a.71.71,0,0,1-.16-.07,1.4,1.4,0,0,0-.3-.17l-.37-.21-.24-.15a2.06,2.06,0,0,1-.35-.27c-.14-.1-.24-.15-.31-.14a1.55,1.55,0,0,0-.27.32,3.41,3.41,0,0,1-.29.33,2.59,2.59,0,0,0-.28.36c-.26.36-.47.55-.63.56a.33.33,0,0,1-.27,0c-.19-.13-.15-.35.13-.64a3.14,3.14,0,0,0,.54-.7,2.58,2.58,0,0,1,.27-.32,5.88,5.88,0,0,0,.74-1l.32-.45a3.31,3.31,0,0,0,.24-.38,3,3,0,0,1,.18-.29l.27-.43c.07-.16.1-.26.07-.29a6.54,6.54,0,0,0-1.13-.1h-.53l-.48,0h-.22a1.29,1.29,0,0,1-.64-.14c-.17-.11-.17-.24,0-.4A.5.5,0,0,1,125.36,138.63Zm6.45-.44a.54.54,0,0,1,.16-.08.35.35,0,0,1,.14.07l.13.12s0,.54,0,1.48a7.16,7.16,0,0,0,.06,1.45,4.24,4.24,0,0,0,1,.05h.91l.13.11c.18.16.19.32,0,.47l-.14.14-.93,0a4,4,0,0,0-1,.05s0,.37,0,1.08,0,1.11,0,1.22a1.48,1.48,0,0,1-.06.37.72.72,0,0,1-.19.29c-.22.07-.35,0-.42-.15s0-.38,0-.89c0,0,0-.58,0-1.7a10.46,10.46,0,0,1,.07-1.23,5,5,0,0,0,0-.55,5.22,5.22,0,0,1-.05-.86v-.83A.63.63,0,0,1,131.81,138.19Z"/><path class="cls-2" d="M106.64,164.43a.53.53,0,0,1,.55-.54.49.49,0,0,1,.37.16.54.54,0,0,1,.15.38V166a1.16,1.16,0,0,0,.13.5c.09.17.28.25.58.25h1.87a.57.57,0,0,1,.38.13.53.53,0,0,1,0,.74.57.57,0,0,1-.38.14h-2.77a.87.87,0,0,1-.61-.24.81.81,0,0,1-.27-.66Zm5.07-.41a.5.5,0,0,1,.16-.39.56.56,0,0,1,.39-.14.5.5,0,0,1,.41.15.6.6,0,0,1,.12.38v.92a.84.84,0,0,0,.07.37c0,.11.18.16.41.16h.54a.47.47,0,0,1,.39.16.56.56,0,0,1,.12.34q0,.48-.51.48h-.54c-.21,0-.34,0-.4.13a.74.74,0,0,0-.08.36v1.59a.49.49,0,0,1-.16.38.47.47,0,0,1-.37.16.55.55,0,0,1-.55-.54Z"/><path class="cls-2" d="M118.9,167.34a.58.58,0,0,1-.16.4.57.57,0,0,1-.4.15.52.52,0,0,1-.38-.15.57.57,0,0,1-.15-.4v-1.52a1.08,1.08,0,0,0-.14-.53.6.6,0,0,0-.56-.25h-1.76a.54.54,0,0,1-.4-.14.51.51,0,0,1,0-.72.55.55,0,0,1,.4-.15H118a.92.92,0,0,1,.63.23.79.79,0,0,1,.27.65ZM120,164a.5.5,0,0,1,.16-.39.56.56,0,0,1,.39-.14.5.5,0,0,1,.41.15.6.6,0,0,1,.12.38v.92a.84.84,0,0,0,.07.37c0,.11.18.16.4.16h.55a.47.47,0,0,1,.39.16.56.56,0,0,1,.12.34q0,.48-.51.48h-.55c-.2,0-.33,0-.39.13a.64.64,0,0,0-.08.36v1.59a.53.53,0,0,1-.16.38.47.47,0,0,1-.37.16.55.55,0,0,1-.55-.54Z"/><path class="cls-2" d="M126.69,165c-.14,0-.22,0-.25.13a.47.47,0,0,0,0,.19,1.24,1.24,0,0,0,.37.56,5.82,5.82,0,0,0,.66.52c.24.17.44.31.6.44a.36.36,0,0,1,.16.32.52.52,0,0,1-.16.38.47.47,0,0,1-.34.15.54.54,0,0,1-.4-.13l-.88-.82a.79.79,0,0,0-.54-.26,1,1,0,0,0-.56.28l-.94.85a.58.58,0,0,1-.4.13.57.57,0,0,1-.36-.13.64.64,0,0,1-.16-.41.35.35,0,0,1,.15-.34l.62-.44a4.78,4.78,0,0,0,.65-.52,1.27,1.27,0,0,0,.38-.58.25.25,0,0,0,0-.22.27.27,0,0,0-.24-.1h-.86a.48.48,0,0,1-.51-.51.49.49,0,0,1,.14-.36.53.53,0,0,1,.37-.14h3.46a.49.49,0,0,1,.36.14.46.46,0,0,1,.15.36.5.5,0,0,1-.15.37.49.49,0,0,1-.36.14Zm2.38-1a.5.5,0,0,1,.16-.39.56.56,0,0,1,.39-.14.5.5,0,0,1,.41.15.6.6,0,0,1,.12.38v.92a.84.84,0,0,0,.07.37c.05.11.18.16.41.16h.54a.47.47,0,0,1,.39.16.56.56,0,0,1,.12.34q0,.48-.51.48h-.54c-.21,0-.34,0-.4.13a.64.64,0,0,0-.08.36v1.59a.53.53,0,0,1-.16.38.47.47,0,0,1-.37.16.55.55,0,0,1-.55-.54Z"/><path class="cls-2" d="M108.64,183.55v6.75c0,.24.1.34.34.34a39.68,39.68,0,0,0,5.55-.35.57.57,0,0,1,.64.59c0,.38-.09.74-.44.78a45.57,45.57,0,0,1-6.47.36c-.93,0-1.23-.29-1.23-1.21v-7.26c0-.48.38-.69.8-.69S108.64,183.07,108.64,183.55Zm9.14-1v4.16h1.76c.42,0,.6.3.6.69s-.18.7-.6.7h-1.76v6.93c0,.47-.38.68-.8.68s-.8-.21-.8-.68V182.59c0-.47.39-.67.8-.67S117.78,182.12,117.78,182.59Z"/><path class="cls-2" d="M126.9,183c.93,0,1.23.29,1.23,1.2V186c0,2.67-.78,3.55-5.66,6.56a.75.75,0,0,1-1-.27.72.72,0,0,1,.13-1c4.5-2.75,4.91-3.28,4.91-5.35v-1.2c0-.24-.08-.32-.33-.32h-4.13c-.4,0-.58-.32-.58-.69s.18-.7.58-.7Zm5.44-.43v4.16h1.76c.42,0,.6.3.6.69s-.18.7-.6.7h-1.76v6.93c0,.47-.38.68-.8.68s-.8-.21-.8-.68V182.59c0-.47.39-.67.8-.67S132.34,182.12,132.34,182.59Z"/><path class="cls-2" d="M143.91,183.72c0,.37-.18.69-.56.69h-2.61v1.51A3.72,3.72,0,0,0,142,189c.67.69,1.34,1.33,1.87,1.78a.68.68,0,0,1,0,1,.7.7,0,0,1-1,.1c-.46-.42-1-1-1.7-1.62-.91-.93-1.12-1.31-1.18-1.65h0c-.08.37-.27.75-1.2,1.68-.64.64-1.25,1.24-1.92,1.83a.72.72,0,0,1-1-.15.68.68,0,0,1,0-1c.73-.66,1.39-1.28,2.06-2a3.72,3.72,0,0,0,1.22-3.1v-1.51h-2.69c-.4,0-.58-.32-.58-.69s.18-.68.58-.68h6.93C143.73,183,143.91,183.36,143.91,183.72Zm3-1.13v4.16h1.76c.42,0,.6.3.6.69s-.18.7-.6.7H146.9v6.93c0,.47-.38.68-.8.68s-.8-.21-.8-.68V182.59c0-.47.39-.67.8-.67S146.9,182.12,146.9,182.59Z"/><path class="cls-2" d="M6.78,50.16a5,5,0,0,1,1.48.19,3.67,3.67,0,0,1,1.05.51,2.68,2.68,0,0,1,.68.71,3.47,3.47,0,0,1,.39.8,3.36,3.36,0,0,1,.18.78,5.57,5.57,0,0,1,0,.65c0,.07,0,.17,0,.28a.78.78,0,0,1-.14.33.9.9,0,0,1-.37.26,1.94,1.94,0,0,1-.72.11l-.39,0a1.8,1.8,0,0,1-.46-.1,1,1,0,0,1-.37-.24A.54.54,0,0,1,8,54a5.7,5.7,0,0,0-.05-.76,1.59,1.59,0,0,0-.18-.57.86.86,0,0,0-.37-.36,1.34,1.34,0,0,0-.6-.12.92.92,0,0,0-.59.16,1,1,0,0,0-.3.34,1.24,1.24,0,0,0-.13.51v5a1.65,1.65,0,0,0,.13.6,1.06,1.06,0,0,0,.3.41.82.82,0,0,0,.59.19,1,1,0,0,0,1-.56,1.83,1.83,0,0,0,.18-.6A5.24,5.24,0,0,0,8,57.5a.67.67,0,0,1,0-.24A.49.49,0,0,1,8.2,57a1.22,1.22,0,0,1,.41-.18,3,3,0,0,1,.75-.07,1.94,1.94,0,0,1,.72.11,1,1,0,0,1,.37.24.61.61,0,0,1,.14.26c0,.09,0,.15,0,.17a4,4,0,0,1-.29,1.54,3.27,3.27,0,0,1-.82,1.14A3.71,3.71,0,0,1,8.24,61a5.07,5.07,0,0,1-1.6.24l-.46,0a4.31,4.31,0,0,1-.71-.13,4.16,4.16,0,0,1-.8-.3,2.57,2.57,0,0,1-.75-.57,2.7,2.7,0,0,1-.56-.9A3.53,3.53,0,0,1,3.14,58V53.59a3.91,3.91,0,0,1,.15-1.13,3.81,3.81,0,0,1,.41-.86,2.59,2.59,0,0,1,.59-.6A3.4,3.4,0,0,1,5,50.58,4.73,4.73,0,0,1,6.78,50.16Z"/><path class="cls-2" d="M11.72,56.28a3.36,3.36,0,0,1,.19-1.22,2.54,2.54,0,0,1,.51-.83,2.28,2.28,0,0,1,.68-.53,4.06,4.06,0,0,1,.75-.28,4.65,4.65,0,0,1,.68-.12l.5,0,.49,0a4.53,4.53,0,0,1,.67.12,3.57,3.57,0,0,1,.72.28,2.17,2.17,0,0,1,.65.53,2.48,2.48,0,0,1,.48.83,3.36,3.36,0,0,1,.19,1.22v1.94A3.4,3.4,0,0,1,18,59.44a2.48,2.48,0,0,1-.48.83,2.17,2.17,0,0,1-.65.53,4.28,4.28,0,0,1-.72.28,3.46,3.46,0,0,1-.67.11l-.49,0-.5,0a3.55,3.55,0,0,1-.68-.11,4.93,4.93,0,0,1-.75-.28,2.28,2.28,0,0,1-.68-.53,2.54,2.54,0,0,1-.51-.83,3.4,3.4,0,0,1-.19-1.22Zm2.4,2.48a.82.82,0,0,0,.11.4.8.8,0,0,0,.27.28,1,1,0,0,0,.53.12.86.86,0,0,0,.5-.12.69.69,0,0,0,.26-.28.82.82,0,0,0,.11-.4V55.94a1,1,0,0,0-.11-.43.81.81,0,0,0-.26-.3.79.79,0,0,0-.5-.13.88.88,0,0,0-.53.13,1,1,0,0,0-.27.3,1,1,0,0,0-.11.43Z"/><path class="cls-2" d="M26.39,59.37a4.68,4.68,0,0,1,0,.66,1.72,1.72,0,0,1-.17.57,1,1,0,0,1-.37.4,1.19,1.19,0,0,1-.64.16,1.13,1.13,0,0,1-.63-.16.93.93,0,0,1-.36-.4A1.51,1.51,0,0,1,24,60a4.68,4.68,0,0,1,0-.66v-3c0-.15,0-.29,0-.43a1,1,0,0,0-.09-.37.52.52,0,0,0-.2-.26.63.63,0,0,0-.38-.1.66.66,0,0,0-.51.21,1.39,1.39,0,0,0-.31.58,3.49,3.49,0,0,0-.15.86c0,.33,0,.69,0,1.07v1.48a4.68,4.68,0,0,1,0,.66,1.72,1.72,0,0,1-.17.57,1,1,0,0,1-.37.4,1.19,1.19,0,0,1-.64.16,1.13,1.13,0,0,1-.63-.16.93.93,0,0,1-.36-.4,1.51,1.51,0,0,1-.16-.57,4.68,4.68,0,0,1,0-.66V55.11c0-.23,0-.44,0-.65a1.49,1.49,0,0,1,.14-.57.87.87,0,0,1,.35-.39,1.17,1.17,0,0,1,.67-.16,1.26,1.26,0,0,1,.67.15,1,1,0,0,1,.36.34,1,1,0,0,1,.16.43,3.28,3.28,0,0,1,0,.4,1.86,1.86,0,0,1,.19-.47,2.24,2.24,0,0,1,.34-.42,1.92,1.92,0,0,1,.5-.31,1.74,1.74,0,0,1,.67-.12,2.87,2.87,0,0,1,.86.14,2.05,2.05,0,0,1,.77.47,2.42,2.42,0,0,1,.56.86,3.39,3.39,0,0,1,.22,1.31Z"/><path class="cls-2" d="M30.33,58.45a2,2,0,0,0,0,.32,1,1,0,0,0,.11.37.87.87,0,0,0,.25.32.72.72,0,0,0,.46.13,1.34,1.34,0,0,0,.54-.08A.64.64,0,0,0,32,59.3a.68.68,0,0,0,.11-.32,2.38,2.38,0,0,0,0-.39,1.11,1.11,0,0,1,0-.23.59.59,0,0,1,.17-.24,1,1,0,0,1,.4-.19,2.68,2.68,0,0,1,.71-.07,1.78,1.78,0,0,1,.64.09.86.86,0,0,1,.33.22.54.54,0,0,1,.12.27c0,.09,0,.16,0,.22a2.33,2.33,0,0,1-.15.87,2,2,0,0,1-.41.66,2.31,2.31,0,0,1-.6.47,3.41,3.41,0,0,1-.71.29,4.05,4.05,0,0,1-.77.16,6.59,6.59,0,0,1-.75,0A4.4,4.4,0,0,1,30,61a3.06,3.06,0,0,1-1-.51,2.74,2.74,0,0,1-.73-.91A3,3,0,0,1,28,58.25V56.42a3.9,3.9,0,0,1,.18-1.26,2.79,2.79,0,0,1,.45-.86,2.13,2.13,0,0,1,.64-.53,3.32,3.32,0,0,1,.71-.29,3.43,3.43,0,0,1,.68-.11l.56,0a5.38,5.38,0,0,1,1.21.12,3.78,3.78,0,0,1,.9.31,2.31,2.31,0,0,1,.62.45,2.46,2.46,0,0,1,.39.54,2.35,2.35,0,0,1,.2.56,3.37,3.37,0,0,1,0,.52c0,.09,0,.18,0,.3a.7.7,0,0,1-.12.32.91.91,0,0,1-.33.26,1.62,1.62,0,0,1-.65.11h-.37a1.65,1.65,0,0,1-.43-.09.84.84,0,0,1-.36-.22.54.54,0,0,1-.15-.42,2.17,2.17,0,0,0,0-.36.64.64,0,0,0-.11-.31.59.59,0,0,0-.29-.21,1.23,1.23,0,0,0-.53-.09,1,1,0,0,0-.46.1.7.7,0,0,0-.25.23.68.68,0,0,0-.11.3,1.42,1.42,0,0,0,0,.28Z"/><path class="cls-2" d="M42.42,56.7c0,.09,0,.18,0,.3a.7.7,0,0,1-.12.32.91.91,0,0,1-.33.26,1.53,1.53,0,0,1-.64.11H38.2v.75a1.89,1.89,0,0,0,0,.39,1,1,0,0,0,.16.37.74.74,0,0,0,.3.28.83.83,0,0,0,.46.11,1.22,1.22,0,0,0,.48-.07.77.77,0,0,0,.27-.19,2,2,0,0,0,.17-.23.9.9,0,0,1,.21-.23.87.87,0,0,1,.36-.19,2.1,2.1,0,0,1,.63-.07,2.34,2.34,0,0,1,.38,0,.93.93,0,0,1,.33.12.52.52,0,0,1,.22.24.75.75,0,0,1,.09.39,1.21,1.21,0,0,1-.32.85,2.39,2.39,0,0,1-.81.54,4.26,4.26,0,0,1-1,.29,6.67,6.67,0,0,1-1.05.09A5,5,0,0,1,37.84,61a2.83,2.83,0,0,1-1-.5,2.48,2.48,0,0,1-.72-.9,3.09,3.09,0,0,1-.26-1.36V56.41A3.84,3.84,0,0,1,36,55.15a2.69,2.69,0,0,1,.46-.86,2.27,2.27,0,0,1,.63-.54,3,3,0,0,1,.71-.28,4.55,4.55,0,0,1,.69-.12c.21,0,.4,0,.55,0a5.28,5.28,0,0,1,1.35.14,3.42,3.42,0,0,1,.94.36,2.18,2.18,0,0,1,.59.53,2.8,2.8,0,0,1,.33.61,2.94,2.94,0,0,1,.14.64c0,.22,0,.42,0,.61Zm-4.22-.19h1.95c0-.24,0-.46,0-.65a1.31,1.31,0,0,0-.11-.48.69.69,0,0,0-.31-.3,1.49,1.49,0,0,0-.59-.1,1.13,1.13,0,0,0-.5.1.78.78,0,0,0-.28.26,1,1,0,0,0-.12.32c0,.12,0,.22,0,.31Z"/><path class="cls-2" d="M49.09,54.51a1.19,1.19,0,0,1-.3.9,1.25,1.25,0,0,1-.86.28h-.22l-.31.06a1.21,1.21,0,0,0-.33.15,1.23,1.23,0,0,0-.31.26,1.34,1.34,0,0,0-.22.43,1.89,1.89,0,0,0-.09.62v2.23c0,.22,0,.42,0,.63a1.55,1.55,0,0,1-.17.54,1,1,0,0,1-.35.39,1.19,1.19,0,0,1-.64.15,1.08,1.08,0,0,1-.61-.15.94.94,0,0,1-.35-.39,1.79,1.79,0,0,1-.16-.54c0-.21,0-.41,0-.63V55.08c0-.22,0-.43,0-.64a1.77,1.77,0,0,1,.16-.55.94.94,0,0,1,.35-.39,1.17,1.17,0,0,1,.61-.14,1,1,0,0,1,.62.17,1.07,1.07,0,0,1,.31.46,2,2,0,0,1,.12.61c0,.23,0,.45,0,.66h.12a3.69,3.69,0,0,1,.29-.79,2.51,2.51,0,0,1,.4-.6,1.67,1.67,0,0,1,.47-.38,1,1,0,0,1,.5-.13,1.68,1.68,0,0,1,.49.06.68.68,0,0,1,.3.21.73.73,0,0,1,.15.36A2.68,2.68,0,0,1,49.09,54.51Z"/><path class="cls-2" d="M51.28,53.34V52c0-.22,0-.43,0-.64a1.84,1.84,0,0,1,.16-.56,1.07,1.07,0,0,1,.36-.4,1.19,1.19,0,0,1,.64-.15,1.14,1.14,0,0,1,.62.15.93.93,0,0,1,.36.4,1.59,1.59,0,0,1,.15.56,4.49,4.49,0,0,1,0,.64v1.37h.64l.4,0a.9.9,0,0,1,.37.12.71.71,0,0,1,.26.28,1.21,1.21,0,0,1,.09.52,1.23,1.23,0,0,1-.09.51.78.78,0,0,1-.26.28,1.07,1.07,0,0,1-.37.12,2.69,2.69,0,0,1-.4,0h-.64V58c0,.11,0,.22,0,.33a.89.89,0,0,0,.08.33.61.61,0,0,0,.21.24.68.68,0,0,0,.4.1,2.14,2.14,0,0,1,.48,0,.63.63,0,0,1,.33.15.58.58,0,0,1,.19.3,1.75,1.75,0,0,1,.06.5,1,1,0,0,1-.14.54,1.29,1.29,0,0,1-.39.38,1.86,1.86,0,0,1-.56.21,2.93,2.93,0,0,1-.67.08,3.28,3.28,0,0,1-1-.12,2,2,0,0,1-.66-.33,1.72,1.72,0,0,1-.41-.52,2.72,2.72,0,0,1-.23-.68,4.89,4.89,0,0,1-.09-.8c0-.29,0-.6,0-.91V55.22h-.44a2.69,2.69,0,0,1-.4,0,1.09,1.09,0,0,1-.36-.12.69.69,0,0,1-.25-.28,1.38,1.38,0,0,1,0-1,.63.63,0,0,1,.25-.28.9.9,0,0,1,.36-.12l.4,0Z"/><path class="cls-2" d="M63.11,53.31A3.3,3.3,0,0,1,63.33,52a2.7,2.7,0,0,1,.55-.87,2.82,2.82,0,0,1,.75-.56,5,5,0,0,1,.8-.3,4.11,4.11,0,0,1,.7-.12,4.5,4.5,0,0,1,.46,0h.27a4.5,4.5,0,0,1,.46,0,3.85,3.85,0,0,1,.69.12,5,5,0,0,1,.8.3,2.63,2.63,0,0,1,.74.56,2.68,2.68,0,0,1,.54.87,3.3,3.3,0,0,1,.22,1.28V58a3.44,3.44,0,0,1-.22,1.32,2.69,2.69,0,0,1-1.28,1.46,4.23,4.23,0,0,1-.8.31,3.13,3.13,0,0,1-.69.12l-.46,0h-.27l-.46,0a3.31,3.31,0,0,1-.7-.12,4.23,4.23,0,0,1-.8-.31,2.87,2.87,0,0,1-.75-.57,2.69,2.69,0,0,1-.55-.89A3.44,3.44,0,0,1,63.11,58Zm2.59,5a1.2,1.2,0,0,0,.13.51,1,1,0,0,0,.31.35,1,1,0,0,0,.59.16,1,1,0,0,0,.58-.16.9.9,0,0,0,.3-.35,1.37,1.37,0,0,0,.14-.51V53.19a1.37,1.37,0,0,0-.14-.51,1,1,0,0,0-.3-.35.91.91,0,0,0-.58-.16.94.94,0,0,0-.59.16,1.12,1.12,0,0,0-.31.35,1.2,1.2,0,0,0-.13.51Z"/><path class="cls-2" d="M78.65,59.37a4.68,4.68,0,0,1,0,.66,1.72,1.72,0,0,1-.16.57,1,1,0,0,1-.37.4,1.2,1.2,0,0,1-.65.16A1.17,1.17,0,0,1,76.8,61a1.07,1.07,0,0,1-.36-.4,2,2,0,0,1-.16-.57q0-.31,0-.66v-3c0-.15,0-.29,0-.43a1.67,1.67,0,0,0-.09-.37.61.61,0,0,0-.21-.26.58.58,0,0,0-.37-.1.69.69,0,0,0-.52.21,1.38,1.38,0,0,0-.3.58,4,4,0,0,0-.16.86c0,.33,0,.69,0,1.07v1.48a4.68,4.68,0,0,1,0,.66,1.72,1.72,0,0,1-.16.57A1,1,0,0,1,74,61a1.36,1.36,0,0,1-1.28,0,1.07,1.07,0,0,1-.36-.4,2,2,0,0,1-.16-.57q0-.31,0-.66V55.11c0-.23,0-.44,0-.65a1.7,1.7,0,0,1,.14-.57,1,1,0,0,1,.36-.39,1.17,1.17,0,0,1,.67-.16,1.28,1.28,0,0,1,.67.15,1,1,0,0,1,.36.34,1.16,1.16,0,0,1,.15.43,3.28,3.28,0,0,1,0,.4,2.37,2.37,0,0,1,.2-.47,1.9,1.9,0,0,1,.34-.42,1.77,1.77,0,0,1,.5-.31,1.71,1.71,0,0,1,.67-.12,2.92,2.92,0,0,1,.86.14,2.13,2.13,0,0,1,.77.47,2.56,2.56,0,0,1,.56.86,3.6,3.6,0,0,1,.21,1.31Z"/><path class="cls-2" d="M86.87,56.7c0,.09,0,.18,0,.3a.7.7,0,0,1-.12.32,1,1,0,0,1-.34.26,1.53,1.53,0,0,1-.64.11H82.65v.75a1.89,1.89,0,0,0,0,.39,1.22,1.22,0,0,0,.16.37.89.89,0,0,0,.3.28.85.85,0,0,0,.46.11,1.22,1.22,0,0,0,.48-.07.77.77,0,0,0,.27-.19,2,2,0,0,0,.17-.23,1.51,1.51,0,0,1,.21-.23,1,1,0,0,1,.36-.19,2.18,2.18,0,0,1,.64-.07,2.43,2.43,0,0,1,.38,0,.82.82,0,0,1,.32.12.59.59,0,0,1,.23.24.87.87,0,0,1,.08.39,1.17,1.17,0,0,1-.32.85,2.45,2.45,0,0,1-.8.54,4.52,4.52,0,0,1-1,.29,6.79,6.79,0,0,1-1.06.09A5,5,0,0,1,82.29,61a2.83,2.83,0,0,1-1-.5,2.48,2.48,0,0,1-.72-.9,3.23,3.23,0,0,1-.26-1.36V56.41a4.13,4.13,0,0,1,.17-1.26,2.69,2.69,0,0,1,.46-.86,2.27,2.27,0,0,1,.63-.54,3.17,3.17,0,0,1,.71-.28,4.55,4.55,0,0,1,.69-.12c.21,0,.4,0,.56,0a5.25,5.25,0,0,1,1.34.14,3.3,3.3,0,0,1,.94.36,2,2,0,0,1,.59.53,2.15,2.15,0,0,1,.33.61,2.94,2.94,0,0,1,.14.64c0,.22,0,.42,0,.61Zm-4.22-.19h2c0-.24,0-.46,0-.65a1.3,1.3,0,0,0-.12-.48.72.72,0,0,0-.3-.3,1.53,1.53,0,0,0-.59-.1,1.15,1.15,0,0,0-.51.1.88.88,0,0,0-.28.26.76.76,0,0,0-.11.32,1.89,1.89,0,0,0,0,.31Z"/><rect class="cls-3" y="27.35" width="3" height="0.67"/><path class="cls-3" d="M172.18,28h-6.05v-.67h6.05Zm-12.09,0h-6v-.67h6ZM148,28h-6v-.67h6Zm-12.09,0h-6v-.67h6Zm-12.08,0h-6v-.67h6Zm-12.08,0h-6.05v-.67h6.05ZM99.67,28h-6v-.67h6ZM87.59,28h-6v-.67h6ZM75.5,28h-6v-.67h6ZM63.42,28h-6v-.67h6ZM51.34,28H45.29v-.67h6.05ZM39.25,28h-6v-.67h6ZM27.17,28h-6v-.67h6ZM15.08,28H9v-.67h6Z"/><rect class="cls-3" x="178.22" y="27.35" width="3" height="0.67"/></g></g></svg>