<svg xmlns="http://www.w3.org/2000/svg" viewBox="0 0 341.8 94.92"><defs><style>.cls-1{fill:#537a6e;}.cls-2{fill:#8d9e96;}.cls-3{fill:#fff;}.cls-4{fill:none;}.cls-5{fill:#51504f;}</style></defs><g id="Layer_2" data-name="Layer 2"><g id="Layer_1-2" data-name="Layer 1"><path class="cls-1" d="M3.59,1,3.85,14.9c0,.6-.38.91-1.15.91s-.94-.4-1-1.2L1.56.94A.83.83,0,0,1,2.5,0C3.22,0,3.59.32,3.59,1Z"/><path class="cls-1" d="M15.26,4.52a5.93,5.93,0,0,1,2.29,2.32.81.81,0,0,1-.39,1.25,1.06,1.06,0,0,1-1.43-.47,4.25,4.25,0,0,0-3.46-2.06,3.49,3.49,0,0,0-3,1.38A3.92,3.92,0,0,0,8.5,9.31,3.85,3.85,0,0,0,9.65,12.4a4,4,0,0,0,2.73.91,3.89,3.89,0,0,0,3.69-2.18,1,1,0,0,1,1.22-.63c.73.21.93.69.6,1.43A5.59,5.59,0,0,1,16.3,14a6.21,6.21,0,0,1-4.05,1.23,5.58,5.58,0,0,1-4-1.41,5.49,5.49,0,0,1-1.74-3.61,6.07,6.07,0,0,1,.72-3.85,5.64,5.64,0,0,1,5-2.65A6.06,6.06,0,0,1,15.26,4.52Z"/><path class="cls-1" d="M31.17,9.83A5.42,5.42,0,0,1,30.74,12a5.37,5.37,0,0,1-1.15,1.76,5.66,5.66,0,0,1-1.77,1.18,5.37,5.37,0,0,1-2.13.43,5.3,5.3,0,0,1-2.13-.43,5.54,5.54,0,0,1-1.77-1.18,5.61,5.61,0,0,1-1.59-3.9,5.47,5.47,0,0,1,.43-2.15,5.35,5.35,0,0,1,1.16-1.75,5.23,5.23,0,0,1,1.77-1.18,5.3,5.3,0,0,1,2.13-.43,5.39,5.39,0,0,1,5,3.36A5.47,5.47,0,0,1,31.17,9.83Zm-2,0a3.81,3.81,0,0,0-.28-1.41,3.7,3.7,0,0,0-.74-1.17,3.37,3.37,0,0,0-3.78-.76,3.28,3.28,0,0,0-1.11.76,3.89,3.89,0,0,0-.74,1.17,3.8,3.8,0,0,0-.27,1.41,3.75,3.75,0,0,0,.27,1.4,3.89,3.89,0,0,0,.74,1.17,3.31,3.31,0,0,0,1.11.77,3.38,3.38,0,0,0,1.34.27A3.41,3.41,0,0,0,27,13.17a3.27,3.27,0,0,0,1.1-.77,3.7,3.7,0,0,0,.74-1.17A3.76,3.76,0,0,0,29.15,9.83Z"/><path class="cls-1" d="M33.93,14.25,33.8,4.6c0-.6.33-.91,1-.91s1,.31,1,.94l0,1.84A3.65,3.65,0,0,1,39,4.16a4.14,4.14,0,0,1,4,1.9A10.94,10.94,0,0,1,44.25,12v2.26a1,1,0,1,1-2,0l0-2.68c0-3.67-1-5.51-3-5.51s-3,2.08-3.25,6.24l0,1.95a1,1,0,1,1-2,0Z"/><rect class="cls-2" y="26.68" width="2.74" height="0.91"/><path class="cls-2" d="M333.14,27.6h-5.51v-.92h5.51Zm-11,0h-5.51v-.92h5.51Zm-11,0h-5.5v-.92h5.5Zm-11,0h-5.51v-.92h5.51Zm-11,0h-5.51v-.92h5.51Zm-11,0h-5.5v-.92h5.5Zm-11,0h-5.51v-.92h5.51Zm-11,0h-5.51v-.92h5.51Zm-11,0h-5.5v-.92H245Zm-11,0h-5.51v-.92H234Zm-11,0H217.5v-.92H223Zm-11,0h-5.5v-.92H212Zm-11,0h-5.51v-.92H201Zm-11,0h-5.51v-.92H190Zm-11,0h-5.5v-.92H179Zm-11,0h-5.51v-.92h5.51Zm-11,0h-5.51v-.92h5.51Zm-11,0h-5.5v-.92h5.5Zm-11,0h-5.51v-.92h5.51Zm-11,0h-5.51v-.92h5.51Zm-11,0h-5.5v-.92h5.5Zm-11,0H96.35v-.92h5.51Zm-11,0H85.34v-.92h5.51Zm-11,0h-5.5v-.92h5.5Zm-11,0H63.31v-.92h5.51Zm-11,0H52.3v-.92h5.51Zm-11,0h-5.5v-.92h5.5Zm-11,0H30.27v-.92h5.51Zm-11,0H19.26v-.92h5.51Zm-11,0H8.25v-.92h5.5Z"/><rect class="cls-2" x="338.65" y="26.68" width="2.74" height="0.91"/><path class="cls-1" d="M29.48,79.56a.53.53,0,0,0,.35-.91L16.48,66.35a2.24,2.24,0,0,0-3.22,0L.17,78.36a.52.52,0,0,0,.34.91l2.3,0V89.87A4.25,4.25,0,0,0,7,94.17H22.73a4.25,4.25,0,0,0,4.2-4.3V79.53Z"/><path class="cls-3" d="M11,93.72V88.23a4,4,0,1,1,8,0s0,5.49,0,5.49"/><path class="cls-1" d="M64.67,89.73a10.49,10.49,0,0,1-.34,2.17c-.77,2.14-3,2.78-5.29,1.57-.72-.37-1.31-.89-2-1.3a4.61,4.61,0,0,0-4.78,0c-.71.38-1.27.93-2,1.32-2.19,1.25-4.12.85-5.18-1-2.41-4.27,2.36-11.72,8.11-12.63A8.94,8.94,0,0,1,60,81.41,10.56,10.56,0,0,1,64.67,89.73Z"/><ellipse class="cls-1" cx="43.53" cy="79.18" rx="3.2" ry="4.45" transform="translate(-32.72 30.7) rotate(-28.76)"/><ellipse class="cls-1" cx="66.43" cy="79.64" rx="4.32" ry="3.06" transform="translate(-37.14 85.08) rotate(-53.17)"/><ellipse class="cls-1" cx="50.84" cy="73.79" rx="3.66" ry="5.01" transform="translate(-7.17 5.5) rotate(-5.78)"/><ellipse class="cls-1" cx="59.58" cy="73.81" rx="5.21" ry="3.72" transform="translate(-26.55 113.54) rotate(-75.85)"/><path class="cls-1" d="M85.94,94.86a4.48,4.48,0,0,1-1.44-.24,4.64,4.64,0,0,1-2.66-2.4,5.86,5.86,0,0,1-.37-4,5.17,5.17,0,0,1-1.69-6.27A5.31,5.31,0,0,1,87,79.87a5.94,5.94,0,0,1,2.09,1.69l9.43-3.29a6.09,6.09,0,0,1,.62-2.39,5.94,5.94,0,0,1,3-2.9A4.63,4.63,0,0,1,106,73a5.15,5.15,0,0,1,2.43,6A5.26,5.26,0,0,1,109.93,86a4.72,4.72,0,0,1-3,2,5.8,5.8,0,0,1-4.33-.88A5.88,5.88,0,0,1,101,85.73l-9.68,3.38A6,6,0,0,1,91,90.93,5.58,5.58,0,0,1,85.94,94.86Zm-1.6-14.23A3.61,3.61,0,0,0,81,82.54a3.85,3.85,0,0,0,1.63,4.82l.52.33-.28.55a4.51,4.51,0,0,0,.18,3.37,3.29,3.29,0,0,0,1.87,1.71c1.88.64,4-.63,4.78-2.84A4.7,4.7,0,0,0,90,88.66l0-.52,11.66-4.07.29.48A4.79,4.79,0,0,0,103.31,86a4.46,4.46,0,0,0,3.3.68,3.39,3.39,0,0,0,2.17-1.44,3.94,3.94,0,0,0-1.45-5.32l-.51-.26.2-.57a3.85,3.85,0,0,0-1.59-4.83,3.33,3.33,0,0,0-2.78,0,4.53,4.53,0,0,0-2.3,2.23,4.71,4.71,0,0,0-.49,2.26l0,.5-11.38,4-.29-.46a4.55,4.55,0,0,0-1.85-1.65A4.66,4.66,0,0,0,84.34,80.63Z"/><path class="cls-1" d="M135.14,94.92c-6.24,0-10.08-2.94-10.66-8.1a5.75,5.75,0,0,1-2.65-.83,5.1,5.1,0,0,1-2.47-3.22c-.36-1.62.17-3.46,1.58-5.46,2.44-3.51,7.71-7.56,10.82-5.73l.15.09a7.25,7.25,0,0,1,6.3-.07l0,0c3.11-1.83,8.38,2.22,10.82,5.73h0c1.41,2,1.94,3.84,1.58,5.46A5.1,5.1,0,0,1,148.17,86a5.91,5.91,0,0,1-2.36.8C145.24,92,141.39,94.92,135.14,94.92Zm-9.26-9.68,0,.78c.24,4.77,3.52,7.4,9.22,7.4s9-2.63,9.23-7.39l0-.71h.84a4.33,4.33,0,0,0,2.17-.63,3.6,3.6,0,0,0,1.77-2.25c.26-1.19-.19-2.64-1.35-4.28h0c-2.33-3.35-6.87-6.46-8.83-5.3a1,1,0,0,0-.2.15l-.39.36-.47-.25a5.78,5.78,0,0,0-5.76.1l-.5.28-.4-.41a1.35,1.35,0,0,0-.28-.23c-2-1.15-6.5,1.95-8.83,5.3-1.16,1.64-1.61,3.09-1.35,4.28a3.6,3.6,0,0,0,1.77,2.25,4.26,4.26,0,0,0,2.51.61Z"/><ellipse class="cls-1" cx="130.72" cy="81.41" rx="1.74" ry="1.7"/><ellipse class="cls-1" cx="139.21" cy="81.41" rx="1.74" ry="1.7"/><path class="cls-1" d="M141.39,85.68a.49.49,0,0,0-.57.39s-.43,2.16-1.84,2.66a2.59,2.59,0,0,1-2-.23,7.67,7.67,0,0,1-1.37-.85V85.76a2.45,2.45,0,0,0,1.65-2c0-.82-1-.87-2.18-.87s-2.18.05-2.18.87a2.47,2.47,0,0,0,1.69,2v1.87a7.2,7.2,0,0,1-1.43.88,2.54,2.54,0,0,1-1.91.2c-1.41-.5-1.83-2.64-1.83-2.66a.5.5,0,0,0-.58-.39.48.48,0,0,0-.4.56c0,.11.53,2.7,2.46,3.4a3,3,0,0,0,1,.17,3.73,3.73,0,0,0,1-.16,7,7,0,0,0,2.18-1.16,7.18,7.18,0,0,0,2.14,1.15,3.71,3.71,0,0,0,1.06.17,2.94,2.94,0,0,0,1-.17c1.94-.7,2.44-3.29,2.46-3.4A.48.48,0,0,0,141.39,85.68Z"/><path class="cls-1" d="M183,81.88l.2-.08,0,0A1,1,0,0,1,183,81.88Z"/><path class="cls-1" d="M184.45,81.26a2,2,0,0,0,.49-.07,2.24,2.24,0,0,0-.51.07Z"/><path class="cls-1" d="M164.59,80.93a2,2,0,0,1-.82-1.63,1.9,1.9,0,0,1,1.83-2,1.66,1.66,0,0,1,.5.09l.58.09,0-.61a1.91,1.91,0,0,1,1.83-2,1.75,1.75,0,0,1,1.31.61l.33.36.32-.36a1.76,1.76,0,0,1,1.31-.61h.44V74.5a1.9,1.9,0,0,1,1.83-2,1.85,1.85,0,0,1,1.79,1.63l.19,1.22.62-1.07a1.79,1.79,0,0,1,1.55-.94A1.87,1.87,0,0,1,180,75l.12.64.55-.36a1.75,1.75,0,0,1,1-.3,1.91,1.91,0,0,1,1.83,2l0,.7.58-.18a1.6,1.6,0,0,1,.49-.09,1.9,1.9,0,0,1,1.83,2,2,2,0,0,1-1.34,1.89,2.28,2.28,0,0,1,1.23.28,2.9,2.9,0,0,0,1-2.17,2.73,2.73,0,0,0-2.9-2.82,2.76,2.76,0,0,0-2.67-2.41,2.69,2.69,0,0,0-.93.17,2.7,2.7,0,0,0-2.48-1.72,2.6,2.6,0,0,0-1.76.69A2.66,2.66,0,0,0,174,71.67a2.74,2.74,0,0,0-2.67,2.43,2.59,2.59,0,0,0-1.23.55,2.59,2.59,0,0,0-1.64-.58,2.76,2.76,0,0,0-2.67,2.41,2.73,2.73,0,0,0-2.9,2.82,2.86,2.86,0,0,0,.86,2.06l.13-.11A2.28,2.28,0,0,1,164.59,80.93Z"/><path class="cls-1" d="M189.81,89.88l-2.59-7.14a2.87,2.87,0,0,0-.18-.4,2.08,2.08,0,0,0-.87-.87,2.28,2.28,0,0,0-1.23-.28,2,2,0,0,1-.49.07h0a2.22,2.22,0,0,0-.49.18c-.23.13-.48.24-.74.36l-.2.08a20.39,20.39,0,0,1-7.6,1.34,18.37,18.37,0,0,1-9-2l-.19-.1a2.47,2.47,0,0,0-1.66-.19,2.28,2.28,0,0,0-.69.32l-.13.11a3.14,3.14,0,0,0-1,1.38l-2.59,7.14a3.21,3.21,0,0,0,3,4.29h23.58A3.21,3.21,0,0,0,189.81,89.88Z"/><path class="cls-1" d="M169.25,78.53a.38.38,0,0,1-.35-.24,2.57,2.57,0,0,1,0-2,3.35,3.35,0,0,1,1.85-1.79,3,3,0,0,1,4,1.35.37.37,0,0,1-.2.49.39.39,0,0,1-.49-.21,2.27,2.27,0,0,0-3-.94,2.64,2.64,0,0,0-1.45,1.39,1.82,1.82,0,0,0,0,1.41.39.39,0,0,1-.21.49A.32.32,0,0,1,169.25,78.53Z"/><path class="cls-3" d="M180.8,89.15h0a1.94,1.94,0,0,0,0-2.58,2,2,0,0,0-2.81.17,2.33,2.33,0,0,0-.58,1h-4.75a2.28,2.28,0,0,0-.61-1.07,2,2,0,0,0-2.81-.18,2,2,0,0,0,0,2.59h0a1.87,1.87,0,1,0,2.94,2.28,2.3,2.3,0,0,0,.41-.81h4.87a2.33,2.33,0,0,0,.44.91,1.87,1.87,0,1,0,2.94-2.28Z"/><path class="cls-1" d="M285.16,75.08a3.37,3.37,0,0,1-6,0h6M286.3,74h-8.25a3.07,3.07,0,0,0-.05.53c0,1.92,1.87,3.48,4.18,3.48s4.17-1.56,4.17-3.48a3.07,3.07,0,0,0-.05-.53Z"/><path class="cls-1" d="M292.14,75.08a2.43,2.43,0,0,1-4.69,0h4.69m1.13-1.1h-6.95a3.07,3.07,0,0,0-.05.53,3.53,3.53,0,0,0,7.05,0,3.07,3.07,0,0,0-.05-.53Z"/><path class="cls-1" d="M298.82,75.08a2.3,2.3,0,0,1-4.49,0h4.49M300,74H293.2a4.55,4.55,0,0,0,0,.53,3.42,3.42,0,1,0,6.84,0A3.07,3.07,0,0,0,300,74Z"/><path class="cls-1" d="M306.8,75.08a3.37,3.37,0,0,1-6,0h6M308,74H299.7a3.07,3.07,0,0,0-.05.53c0,1.92,1.87,3.48,4.17,3.48S308,76.43,308,74.51A3.07,3.07,0,0,0,308,74Z"/><path class="cls-1" d="M302.37,68.76l3.32,4.12H280.31l.49-.62,2.83-3.5h18.74m.53-1.11H283.1l-3.16,3.92-1.87,2.33s0,0,0,.08H308l-5.1-6.33Z"/><rect class="cls-1" x="284.54" y="70.33" width="6.09" height="1.1" transform="translate(106.31 305.12) rotate(-66.11)"/><rect class="cls-1" x="298.49" y="67.83" width="1.1" height="6.09" transform="translate(-3.08 127.22) rotate(-23.9)"/><rect class="cls-1" x="292.76" y="67.99" width="1.1" height="5.93"/><path class="cls-1" d="M302.87,94.72H283.51a2.64,2.64,0,0,1-2.71-2.56v-15h1.11v15a1.53,1.53,0,0,0,1.6,1.46h19.36a1.53,1.53,0,0,0,1.6-1.46v-15h1.11v15A2.64,2.64,0,0,1,302.87,94.72Z"/><path class="cls-1" d="M297.88,89.69a4.79,4.79,0,0,1-.16,1,1.68,1.68,0,0,1-2.57.76c-.35-.18-.64-.43-1-.63a2.27,2.27,0,0,0-2.32,0c-.34.19-.61.45-.95.65a1.68,1.68,0,0,1-2.52-.51c-1.16-2.08,1.15-5.69,3.94-6.13a4.33,4.33,0,0,1,3.27.79A5.15,5.15,0,0,1,297.88,89.69Z"/><ellipse class="cls-1" cx="287.62" cy="84.57" rx="1.55" ry="2.16" transform="translate(-5.21 148.8) rotate(-28.76)"/><ellipse class="cls-1" cx="298.74" cy="84.79" rx="2.1" ry="1.49" transform="translate(51.8 273.09) rotate(-53.17)"/><ellipse class="cls-1" cx="291.17" cy="81.95" rx="1.78" ry="2.43" transform="translate(-6.77 29.74) rotate(-5.78)"/><ellipse class="cls-1" cx="295.41" cy="81.96" rx="2.53" ry="1.81" transform="translate(143.74 348.39) rotate(-75.85)"/><path class="cls-1" d="M341.75,84.45l-.06-.15-.3-.47a3.36,3.36,0,0,0-1.86-.83c-2.41-.45-6.39.12-10.19,1.22s-7.44,2.76-9.25,4.43A3.47,3.47,0,0,0,319,90.29V91s0,0,0,.06a1.36,1.36,0,0,0,.28.53c.94,1.13,3.69,1.29,6.95.83a5.1,5.1,0,0,1-.3-1.08,12,12,0,0,1-5.35-.13c-.29-.13-.48-.28-.53-.46a.79.79,0,0,1,.16-.58c.76-1.23,4.13-3.34,9.44-4.89v1.9a3.6,3.6,0,0,0-2.25,3.35,3.43,3.43,0,0,0,.05.56h0a3.77,3.77,0,0,0,.2.75,3.73,3.73,0,0,0,.16.35,3.6,3.6,0,0,0,6.81-1.67c0-.09,0-.18,0-.28a2.35,2.35,0,0,0-.05-.37,3.21,3.21,0,0,0-.21-.75h0a3.71,3.71,0,0,0-1.4-1.66,3.6,3.6,0,0,0-1.92-.56l-.26,0V85c4.66-1.22,8.15-1.24,9.43-.69a.85.85,0,0,1,.53.45.73.73,0,0,1-.16.59c-.5.82-2.17,2-4.8,3.2a5.49,5.49,0,0,1,.31,1.07c3.21-1.41,5.63-3.11,5.75-4.64A1.3,1.3,0,0,0,341.75,84.45Zm-10.9,3.63H331a2.46,2.46,0,0,1,2.24,1.46.08.08,0,0,0,0,0,2.73,2.73,0,0,1,.19.76c0,.07,0,.13,0,.2s0,.1,0,.14A2.44,2.44,0,0,1,329,92a2.19,2.19,0,0,1-.17-.29,2.35,2.35,0,0,1-.24-.75s0,0,0,0,0-.22,0-.33a2.46,2.46,0,0,1,1.27-2.15A2.34,2.34,0,0,1,330.85,88.08Z"/><path class="cls-1" d="M336.46,76.27l-.7-2.4a9.09,9.09,0,0,0-8.7-6.55l-.52,0A1.62,1.62,0,0,0,325,66.17a1.65,1.65,0,0,0-1.64,1.65,2.58,2.58,0,0,0,0,.29,9.13,9.13,0,0,0-5,10.88l.7,2.4-.1,8.9a3.47,3.47,0,0,1,1.12-1.64h0V87.21h0l.07-5.81v-.17l-.05-.16-.7-2.4a8,8,0,0,1,.66-6.09,7.83,7.83,0,0,1,3.74-3.45l.79-.36-.16-.85a.58.58,0,0,1,0-.1.54.54,0,0,1,.54-.54.54.54,0,0,1,.51.38l.26.83.86,0h.45a8,8,0,0,1,7.65,5.75l.69,2.4.05.15.09.14,3.2,4.91.81,1.22a3.47,3.47,0,0,1,1.84.83Z"/><circle class="cls-1" cx="330.99" cy="90.54" r="2.79"/><path class="cls-3" d="M229.69,88.07l-4.17-4.89c1.2-1,3.13-3,3.13-5a6.44,6.44,0,1,0-12.88,0c0,2,1.93,4.06,3.12,5l-4.16,4.89a1.67,1.67,0,0,0,1.36,2.64h12.24A1.67,1.67,0,0,0,229.69,88.07Z"/><path class="cls-2" d="M228.33,91.46H216.08a2.43,2.43,0,0,1-2-3.82l3.73-4.38c-1.07-1-2.82-2.94-2.82-5.11a7.19,7.19,0,1,1,14.38,0c0,2.17-1.75,4.12-2.82,5.11l3.72,4.38a2.42,2.42,0,0,1-2,3.82Zm-6.12-19a5.71,5.71,0,0,0-5.69,5.73c0,1.57,1.53,3.38,2.85,4.45l.59.48-4.66,5.48a.93.93,0,0,0,.78,1.4h12.25a.89.89,0,0,0,.81-.49.91.91,0,0,0,0-.94l-4.63-5.45.59-.48c1.31-1.07,2.85-2.88,2.85-4.45A5.72,5.72,0,0,0,222.21,72.42Z"/><path class="cls-3" d="M200.31,88.07l4.17-4.89c-1.2-1-3.13-3-3.13-5a6.44,6.44,0,1,1,12.88,0c0,2-1.93,4.06-3.12,5l4.16,4.89a1.67,1.67,0,0,1-1.36,2.64H201.67A1.67,1.67,0,0,1,200.31,88.07Z"/><path class="cls-2" d="M213.92,91.46H201.67a2.42,2.42,0,0,1-2-3.82l0,0,3.68-4.33c-1.07-1-2.82-2.94-2.82-5.11a7.19,7.19,0,1,1,14.38,0c0,2.17-1.75,4.12-2.82,5.11l3.68,4.33a2.42,2.42,0,0,1-1.92,3.87Zm-13-2.93a.91.91,0,0,0,0,.94.89.89,0,0,0,.81.49h12.25a.89.89,0,0,0,.8-.49.92.92,0,0,0-.06-1L210,83.08l.59-.48c1.32-1.07,2.85-2.88,2.85-4.45a5.69,5.69,0,1,0-11.38,0c0,1.57,1.54,3.38,2.85,4.45l.59.48Z"/><path class="cls-3" d="M223.19,91.43l-4.52-5.09c1.3-1,3.39-3.12,3.39-5.23a7,7,0,0,0-14,0c0,2.11,2.09,4.22,3.39,5.23l-4.53,5.09a1.73,1.73,0,0,0,1.48,2.74h13.31A1.73,1.73,0,0,0,223.19,91.43Z"/><path class="cls-1" d="M221.72,94.92H208.41a2.56,2.56,0,0,1-2.3-1.39,2.45,2.45,0,0,1,.22-2.55l4-4.56c-1.15-1-3.06-3-3.06-5.31a7.75,7.75,0,0,1,15.49,0c0,2.26-1.91,4.29-3.07,5.31L223.8,91a2.43,2.43,0,0,1,.21,2.55A2.54,2.54,0,0,1,221.72,94.92Zm-6.66-19.79a6.12,6.12,0,0,0-6.24,6c0,1.64,1.67,3.53,3.1,4.64l.63.49-5.06,5.68a.89.89,0,0,0,0,.93,1,1,0,0,0,1,.57h13.31a1,1,0,0,0,1-.57.91.91,0,0,0-.07-.95l-5-5.66.64-.49c1.43-1.11,3.1-3,3.1-4.64A6.12,6.12,0,0,0,215.06,75.13Z"/><path class="cls-4" d="M262.33,88.64l.21.13a2.25,2.25,0,0,0-.12-.21Z"/><path class="cls-1" d="M261.56,87.78l-1.46-.72a4.22,4.22,0,0,0-3.85.07l-.41.21L241.26,69.87a1.88,1.88,0,0,1,.06-2.55,1.86,1.86,0,0,1,2.52,0l17.21,14.95-.19.39a4.2,4.2,0,0,0,0,3.68Zm-19-19.84a.64.64,0,0,0-.46.18.76.76,0,0,0,0,1l14,16.77a5.28,5.28,0,0,1,3.3-.3,5.65,5.65,0,0,1-.13-1.16,5.4,5.4,0,0,1,.37-2L243.13,68.15A.93.93,0,0,0,242.57,67.94Z"/><circle class="cls-1" cx="253.38" cy="79.7" r="1.07"/><polygon class="cls-1" points="259.96 86.96 255.67 82.89 255.67 79.01 256.8 79.01 256.8 82.41 260.73 86.15 259.96 86.96"/><path class="cls-1" d="M258.29,94.73a4.6,4.6,0,1,1,4.6-4.6A4.6,4.6,0,0,1,258.29,94.73Zm0-8.08a3.48,3.48,0,1,0,3.48,3.48A3.48,3.48,0,0,0,258.29,86.65Z"/><path class="cls-1" d="M258.29,92.61h-.23a2.49,2.49,0,0,1-2.24-2.7,2.49,2.49,0,0,1,2.7-2.24,2.49,2.49,0,0,1,2.24,2.7h0a2.48,2.48,0,0,1-2.47,2.25Zm0-3.84A1.34,1.34,0,0,0,256.94,90a1.36,1.36,0,0,0,1.22,1.48,1.38,1.38,0,0,0,1.48-1.22,1.36,1.36,0,0,0-1.22-1.48Z"/><path class="cls-1" d="M264,86.94h-.23a2.49,2.49,0,0,1-2.24-2.7,2.49,2.49,0,0,1,2.7-2.24,2.49,2.49,0,0,1,2.24,2.7A2.48,2.48,0,0,1,264,86.94Zm0-3.84a1.4,1.4,0,1,0,.13,0Z"/><path class="cls-1" d="M264,89.06a4.6,4.6,0,1,1,4.6-4.6A4.6,4.6,0,0,1,264,89.06ZM264,81a3.48,3.48,0,1,0,3.48,3.48A3.48,3.48,0,0,0,264,81Z"/><path class="cls-1" d="M246,91.49a4.49,4.49,0,0,1-3.19-1.32L239.6,87l.8-.79,3.16,3.16a3.47,3.47,0,0,0,4.79,0l15-15a3.37,3.37,0,0,0,0-4.79l-3.16-3.16.8-.8,3.16,3.16a4.53,4.53,0,0,1,0,6.39l-15,15A4.51,4.51,0,0,1,246,91.49Z"/><rect class="cls-1" x="242.72" y="84.5" width="1.12" height="4.88" transform="translate(9.8 197.53) rotate(-45.01)"/><rect class="cls-1" x="244.45" y="82.77" width="1.12" height="4.88" transform="translate(11.52 198.24) rotate(-45.01)"/><rect class="cls-1" x="246.24" y="80.98" width="1.12" height="4.88" transform="translate(13.3 198.95) rotate(-45)"/><rect class="cls-1" x="247.97" y="79.25" width="1.12" height="4.88" transform="translate(15.03 199.66) rotate(-45)"/><rect class="cls-1" x="254.83" y="72.4" width="1.12" height="4.88" transform="translate(21.9 202.54) rotate(-45.01)"/><rect class="cls-1" x="256.55" y="70.67" width="1.12" height="4.88" transform="translate(23.61 203.22) rotate(-45)"/><rect class="cls-1" x="258.27" y="68.95" width="1.12" height="4.88" transform="translate(25.33 203.93) rotate(-45)"/><rect class="cls-1" x="260" y="67.22" width="1.12" height="4.88" transform="translate(27.06 204.65) rotate(-45)"/><path class="cls-5" d="M6.46,48.61l-4.3.07c-.46,0-.69-.19-.7-.61l-.08-4.48a.61.61,0,0,1,.68-.7l3.88,0c.42,0,.64.2.64.58S6.37,44,6,44l-3.31,0,0,3.44,3.71,0c.43,0,.64.19.66.56S6.87,48.6,6.46,48.61Zm3.7-6.22.1,6.14a.57.57,0,0,1-.63.66c-.4,0-.61-.2-.62-.62l-.1-6.16a.55.55,0,0,1,.63-.64A.55.55,0,0,1,10.16,42.39Z"/><path class="cls-5" d="M16.82,42.49a.93.93,0,0,1,.88.38.76.76,0,0,1,0,.82l-1.55,2.4,2.64,1.68c.4.25.49.55.27.88s-.52.36-.92.11l-2.63-1.7-1.15,1.76c-.25.38-.54.46-.88.26s-.38-.5-.13-.88l3-4.55-2.88.05c-.42,0-.64-.18-.64-.56s.23-.56.67-.57Zm4.62-.1,0,2h1.79c.43,0,.64.2.64.59s-.21.61-.64.61H21.49l.05,2.89a.57.57,0,0,1-.63.66c-.4,0-.61-.2-.62-.62l-.1-6.16a.55.55,0,0,1,.63-.64A.55.55,0,0,1,21.44,42.39Z"/><path class="cls-5" d="M30.59,42.57a2.38,2.38,0,0,1-.73,1.77,2.48,2.48,0,0,1-1.83.72,2.51,2.51,0,0,1-1.83-.72,2.38,2.38,0,0,1-.73-1.77,2.42,2.42,0,0,1,.73-1.79A2.52,2.52,0,0,1,28,40.05a2.49,2.49,0,0,1,1.83.73A2.42,2.42,0,0,1,30.59,42.57Zm-1.2,0a1.35,1.35,0,0,0-.38-1,1.31,1.31,0,0,0-1-.38,1.29,1.29,0,0,0-1,.38,1.34,1.34,0,0,0-.37,1A1.28,1.28,0,0,0,28,43.91a1.3,1.3,0,0,0,1.36-1.34Zm4.77,7.79-4.51.09a.71.71,0,0,1-.85-.78L28.74,47a.55.55,0,0,1,.6-.65.55.55,0,0,1,.64.6L30,49.25l4.08,0c.41,0,.62.17.63.56A.52.52,0,0,1,34.16,50.36Zm-.78-4.79V39.78a.56.56,0,0,1,.62-.64c.41,0,.61.22.61.64v5.79c0,.43-.2.64-.61.64S33.38,46,33.38,45.57Z"/><path class="cls-5" d="M42.32,39.64l3.47,0c.64,0,.92.36.83,1.05l-.51,3.95a.56.56,0,0,1-.69.56.56.56,0,0,1-.56-.7L45,43.21H42.46c-.42,0-.64-.18-.64-.56s.22-.56.64-.56l2.71,0,.16-1.22-3,0c-.43,0-.64-.22-.63-.61S41.89,39.63,42.32,39.64Zm8,10.72-4.51.09a.71.71,0,0,1-.85-.78L44.94,47a.56.56,0,0,1,.61-.65.55.55,0,0,1,.64.6l.05,2.32,4.08,0c.4,0,.61.17.62.56A.51.51,0,0,1,50.37,50.36Zm-.79-4.79v-2.8H47.7c-.43,0-.64-.19-.64-.57s.21-.58.64-.58h1.88V39.78a.56.56,0,0,1,.63-.64.56.56,0,0,1,.61.64v5.79c0,.43-.21.64-.61.64A.56.56,0,0,1,49.58,45.57Z"/><path class="cls-5" d="M56.24,39.75l-.64,2.13,3,2.11c.37.27.44.56.21.88s-.54.35-.91.08l-2.67-1.84-.52,1.71c-.14.47-.41.65-.81.53s-.56-.41-.43-.88L55,39.41c.15-.49.43-.67.83-.54S56.37,39.29,56.24,39.75Zm2.14,7.34,3.19,0v-.61c0-.43.2-.64.61-.64s.58.21.59.64l0,3.37a.54.54,0,0,1-.61.61H57.82a.54.54,0,0,1-.6-.62l0-3.35c0-.42.18-.64.59-.65s.6.19.61.61ZM60,44.21v-1.8H58.08c-.43,0-.64-.2-.64-.58s.21-.58.64-.58H60V39.46c0-.42.2-.64.61-.64a.56.56,0,0,1,.61.64v4.75c0,.43-.21.64-.61.64S60,44.64,60,44.21Zm1.63,3.94-3.18.05,0,1.07H61.6Zm.87-3.87V39.46c0-.42.2-.64.61-.64s.6.22.6.64v4.82c0,.43-.2.64-.6.64S62.45,44.71,62.45,44.28Z"/><path class="cls-5" d="M70.45,45.59a2.47,2.47,0,0,1-.71,1.77,2.52,2.52,0,0,1-3.55,0,2.6,2.6,0,0,1,0-3.55,2.52,2.52,0,0,1,3.55,0A2.49,2.49,0,0,1,70.45,45.59Zm-1.2,0a1.35,1.35,0,0,0-.37-1,1.21,1.21,0,0,0-.91-.39,1.18,1.18,0,0,0-.91.39,1.39,1.39,0,0,0-.36,1,1.36,1.36,0,0,0,.36,1,1.17,1.17,0,0,0,.91.38,1.2,1.2,0,0,0,.91-.38A1.33,1.33,0,0,0,69.25,45.59Zm3.12,2.83,0-2.25h-1c-.43,0-.64-.2-.64-.58s.21-.58.64-.58h1V42.53c0-.42.2-.64.6-.64s.61.22.61.64l0,5.89c0,.43-.2.64-.6.64S72.37,48.85,72.37,48.42Zm2.27.13V42.41c0-.43.2-.64.61-.64s.61.21.61.64v6.14c0,.43-.21.64-.61.64S74.64,49,74.64,48.55Z"/><path class="cls-5" d="M82.25,44.52,82,40.45c0-.52.16-.78.61-.78h4.09c.5,0,.74.27.74.8v4a.54.54,0,0,1-.61.61l-4.08,0C82.46,45.09,82.29,44.9,82.25,44.52Zm1-3.7.16,3.12,2.81,0V40.82Zm4.8,7.73,2.83,1.22c.46.2.6.49.43.86s-.48.45-.94.24l-3.15-1.39L86,50.85c-.31.36-.62.4-.94.15s-.31-.56,0-.91l2.48-2.69-2.72.05c-.41,0-.63-.18-.64-.56s.2-.59.64-.6l3.64-.08a.71.71,0,0,1,.75.42.8.8,0,0,1-.18.82Zm1.17-3.78v-5a.56.56,0,0,1,.62-.64c.41,0,.61.22.61.64v1.59l1.47.06a.54.54,0,0,1,.59.62.53.53,0,0,1-.62.58l-1.44-.06v2.2c0,.43-.2.64-.61.64A.56.56,0,0,1,89.25,44.77Z"/><path class="cls-5" d="M94.48,42.93l3,0c.64,0,.92.36.83,1.06l-.61,4.49a.63.63,0,0,1-1.24-.17l.55-4.21-2.6,0c-.43,0-.64-.21-.63-.61S94.05,42.92,94.48,42.93Zm6.06,5.49V46.26h-1.2c-.43,0-.64-.2-.64-.59s.21-.58.64-.58h1.2l0-2.56c0-.42.2-.64.61-.64a.56.56,0,0,1,.61.64l0,5.89c0,.43-.2.64-.61.64S100.54,48.85,100.54,48.42Zm2.47.13V42.41c0-.43.2-.64.61-.64s.6.21.6.64v6.14c0,.43-.2.64-.6.64S103,49,103,48.55Z"/><path class="cls-5" d="M116.75,47.83c.43,0,.64.2.64.59s-.21.61-.64.61h-5.68c-.43,0-.64-.2-.64-.61s.21-.59.64-.59Zm-.33-4.37a2.38,2.38,0,0,1-.78,1.83,2.71,2.71,0,0,1-3.7,0,2.41,2.41,0,0,1-.77-1.83,2.46,2.46,0,0,1,.77-1.84,2.71,2.71,0,0,1,3.7,0A2.43,2.43,0,0,1,116.42,43.46Zm-1.21,0a1.4,1.4,0,0,0-.4-1,1.36,1.36,0,0,0-1-.41,1.39,1.39,0,0,0-1,.41,1.44,1.44,0,0,0-.39,1,1.37,1.37,0,0,0,1.41,1.41,1.38,1.38,0,0,0,1.42-1.41Zm4.39-1.74.1,6.77a.57.57,0,0,1-.63.65.55.55,0,0,1-.62-.62l-.1-6.79a.63.63,0,1,1,1.25,0Z"/><path class="cls-5" d="M123.12,48.07l-.23-4.27c0-.54.17-.8.6-.8h4.13c.47,0,.71.26.71.8v4.27a.52.52,0,0,1-.59.59h-4.06C123.34,48.66,123.15,48.46,123.12,48.07Zm1-3.92.18,3.36h2.8V44.15Zm7.6-1.76.1,6.14a.57.57,0,0,1-.63.66c-.4,0-.61-.2-.62-.62l-.09-6.16c0-.43.19-.64.62-.64A.54.54,0,0,1,131.74,42.39Z"/><path class="cls-5" d="M142.17,42.79l2.63,1.62c.39.25.48.55.27.88s-.52.36-.93.11l-2.6-1.65-1.17,1.71c-.25.38-.54.46-.88.26s-.39-.5-.13-.88l3-4.35-2.88,0c-.43,0-.64-.18-.64-.56s.22-.56.67-.57l3.39-.08a.94.94,0,0,1,.88.38.76.76,0,0,1,0,.82Zm5.46,7.57-4.51.09a.71.71,0,0,1-.85-.78L142.21,47a.63.63,0,0,1,1.25,0l0,2.32,4.08,0c.41,0,.62.17.63.56S148,50.35,147.63,50.36Zm-.78-4.79V43h-2.37c-.43,0-.64-.2-.64-.58s.21-.58.64-.58h2.37v-2a.56.56,0,0,1,.62-.64c.41,0,.61.22.61.64v5.79c0,.43-.2.64-.61.64S146.85,46,146.85,45.57Z"/><path class="cls-5" d="M156.06,44.52l-4.27.06c-.46,0-.69-.19-.7-.61L151,40.2a.61.61,0,0,1,.68-.71l3.84,0c.43,0,.64.19.64.58s-.2.59-.62.59l-3.28,0,0,2.73,3.68,0c.42,0,.64.18.65.56S156.47,44.51,156.06,44.52Zm2.75,7.15-4.35.16c-.44,0-.66-.15-.69-.53L153.6,49a.54.54,0,0,1,.56-.66l3.05-.11.07-1.34H153.9c-.41,0-.62-.19-.62-.58s.21-.56.64-.56h4c.48,0,.7.24.67.72l-.21,2.37c0,.3-.23.45-.59.46l-3,.1.09,1.26,3.88-.14c.44,0,.68.17.7.53S159.27,51.65,158.81,51.67Zm-.67-7.36v-4.8a.56.56,0,0,1,.63-.64c.4,0,.6.21.6.64v1.78l1.48.06a.55.55,0,0,1,.59.62.53.53,0,0,1-.63.58l-1.44-.06v1.82c0,.43-.2.64-.6.64A.56.56,0,0,1,158.14,44.31Z"/><path class="cls-5" d="M168.45,45.59a2.42,2.42,0,0,1-.75,1.79,2.67,2.67,0,0,1-3.69,0,2.42,2.42,0,0,1-.75-1.79,2.6,2.6,0,0,1,5.19,0Zm-1.2,0a1.38,1.38,0,0,0-.4-1,1.35,1.35,0,0,0-1-.4,1.3,1.3,0,0,0-1,.4,1.37,1.37,0,0,0-.39,1,1.32,1.32,0,0,0,.39,1,1.3,1.3,0,0,0,1,.4,1.35,1.35,0,0,0,1-.4A1.33,1.33,0,0,0,167.25,45.59Zm5-3.2.1,6.14a.57.57,0,0,1-.63.66c-.4,0-.61-.2-.62-.62l-.1-6.16a.55.55,0,0,1,.63-.64A.55.55,0,0,1,172.27,42.39Z"/><path class="cls-5" d="M179.71,42.93l3.36,0c.64,0,.92.36.83,1.06l-.61,4.49a.63.63,0,0,1-1.24-.17l.56-4.21-2.93,0c-.43,0-.64-.21-.63-.61S179.28,42.92,179.71,42.93Zm7.89-.54,0,2h1.79c.43,0,.64.2.64.59s-.21.61-.64.61h-1.77l0,2.89a.56.56,0,0,1-.62.66c-.4,0-.61-.2-.62-.62l-.1-6.16a.63.63,0,1,1,1.25,0Z"/><path class="cls-5" d="M191.58,45.3h8.26c.42,0,.64.2.64.59s-.22.61-.64.61h-8.26c-.42,0-.64-.2-.64-.61S191.16,45.3,191.58,45.3Zm1.28-5.95a.56.56,0,0,1,.61-.66.55.55,0,0,1,.64.61l.08,2.9,3.81-.07a.54.54,0,0,1,.62.58.51.51,0,0,1-.57.59l-4.24.08a.73.73,0,0,1-.85-.78Zm5.51,10.88a2.06,2.06,0,0,1-.2.88,2.33,2.33,0,0,1-.51.74,2.48,2.48,0,0,1-.74.48,2.15,2.15,0,0,1-.91.19,2.06,2.06,0,0,1-.89-.19,2.62,2.62,0,0,1-.74-.48,2.71,2.71,0,0,1-.51-.74,2.13,2.13,0,0,1,0-1.76,2.71,2.71,0,0,1,.51-.74,2.62,2.62,0,0,1,.74-.48,2.06,2.06,0,0,1,.89-.19,2.15,2.15,0,0,1,.91.19,2.48,2.48,0,0,1,.74.48,2.33,2.33,0,0,1,.51.74A2.06,2.06,0,0,1,198.37,50.23Zm-1.24,0a1.12,1.12,0,0,0-.31-.8,1.08,1.08,0,0,0-.81-.34,1.06,1.06,0,0,0-.8.34,1.22,1.22,0,0,0,0,1.6,1.06,1.06,0,0,0,.8.34,1.08,1.08,0,0,0,.81-.34A1.12,1.12,0,0,0,197.13,50.23Z"/><path class="cls-5" d="M205.37,40.52v2.14H207c.43,0,.64.19.64.58s-.21.59-.64.59h-4.68c-.43,0-.64-.2-.64-.59s.21-.58.64-.58h1.84V40.52c0-.43.2-.64.62-.64S205.37,40.09,205.37,40.52ZM207.1,47a2.22,2.22,0,0,1-.69,1.68,2.49,2.49,0,0,1-3.42,0,2.38,2.38,0,0,1,0-3.35,2.55,2.55,0,0,1,3.42,0A2.23,2.23,0,0,1,207.1,47Zm-1.21,0a1.19,1.19,0,1,0-2,.86,1.26,1.26,0,0,0,1.68,0A1.15,1.15,0,0,0,205.89,47Zm3.37.94v-5.8a.63.63,0,1,1,1.25,0V44h1.79c.43,0,.64.2.64.59s-.21.61-.64.61h-1.79V48a.63.63,0,1,1-1.25,0Z"/><path class="cls-5" d="M221.17,45.89l-1.64,0v2.45h3.3c.43,0,.64.2.64.59s-.21.61-.64.61h-8.3c-.43,0-.64-.2-.64-.61s.21-.59.64-.59h3.76V46l-2.07.07c-.45,0-.68-.17-.7-.58l-.07-4a.62.62,0,0,1,.69-.7l4.24,0c.43,0,.64.19.64.57a.54.54,0,0,1-.62.6l-3.68,0,0,2.9,4.35-.13c.43,0,.65.18.66.56S221.57,45.88,221.17,45.89Z"/><path class="cls-5" d="M232,43.91l-2.07.06v1.7h3.51c.42,0,.64.2.64.59s-.22.61-.64.61h-8.26c-.42,0-.64-.2-.64-.61s.22-.59.64-.59h3.51V44l-1.56,0c-.4,0-.61-.16-.62-.53l-.08-2.06c0-.43.19-.65.64-.67l3.41-.12,0-1h-3.81c-.42,0-.64-.19-.64-.58s.22-.56.64-.56H231a.62.62,0,0,1,.69.71v1.95a.55.55,0,0,1-.6.61l-3.45.09v1l4.28-.09c.41,0,.63.17.64.54S232.41,43.9,232,43.91Zm-.8,8.1-.08-2.44h-4c-.43,0-.64-.19-.64-.59s.21-.57.64-.57h4.42a.71.71,0,0,1,.8.75l.08,2.81a.54.54,0,0,1-.6.63A.56.56,0,0,1,231.2,52Z"/><path class="cls-5" d="M243.23,42.79l2.62,1.62c.4.25.49.55.28.88s-.53.36-.93.11l-2.61-1.65-1.17,1.71a.59.59,0,0,1-.88.26c-.34-.2-.38-.5-.13-.88l3-4.35-2.88,0c-.42,0-.64-.18-.64-.56s.23-.56.68-.57l3.39-.08a1,1,0,0,1,.88.38.76.76,0,0,1,0,.82Zm4.19,7.36-.08-2.5h-3.82c-.43,0-.64-.19-.64-.59s.21-.57.64-.57h4.27a.7.7,0,0,1,.8.75l.08,2.88a.54.54,0,0,1-.59.62A.56.56,0,0,1,247.42,50.15Zm.48-5.38V43h-2.37c-.42,0-.64-.2-.64-.58s.22-.58.64-.58h2.37v-2a.56.56,0,0,1,.63-.64c.4,0,.6.22.6.64v5c0,.43-.2.64-.6.64A.56.56,0,0,1,247.9,44.77Z"/><path class="cls-5" d="M258.8,41.27a2.29,2.29,0,0,1-.72,1.74,2.12,2.12,0,0,1-.24.2.53.53,0,0,1,.57.6v1.91h2c.42,0,.64.2.64.59s-.22.61-.64.61h-8.26c-.43,0-.64-.2-.64-.61s.21-.59.64-.59h2V43.81a.53.53,0,0,1,.57-.6,2,2,0,0,1-.22-.2,2.29,2.29,0,0,1-.72-1.74,2.33,2.33,0,0,1,.72-1.75,2.44,2.44,0,0,1,1.78-.7,2.47,2.47,0,0,1,1.78.7A2.34,2.34,0,0,1,258.8,41.27Zm.09,9a2.05,2.05,0,0,1-.19.88,2.71,2.71,0,0,1-.51.74,2.48,2.48,0,0,1-.74.48,2.18,2.18,0,0,1-.91.19,2,2,0,0,1-.89-.19,2.48,2.48,0,0,1-.74-.48,2.71,2.71,0,0,1-.51-.74,2.13,2.13,0,0,1,0-1.76,2.71,2.71,0,0,1,.51-.74,2.48,2.48,0,0,1,.74-.48,2,2,0,0,1,.89-.19,2.18,2.18,0,0,1,.91.19,2.48,2.48,0,0,1,.74.48,2.71,2.71,0,0,1,.51.74A2.05,2.05,0,0,1,258.89,50.23Zm-1.31-9a1.25,1.25,0,0,0-.37-.92,1.23,1.23,0,0,0-.92-.38,1.21,1.21,0,0,0-.92.38,1.28,1.28,0,0,0-.36.92,1.24,1.24,0,0,0,.36.91,1.21,1.21,0,0,0,.92.37,1.26,1.26,0,0,0,1.29-1.28Zm-.33,2.27a2.76,2.76,0,0,1-1,.16,2.69,2.69,0,0,1-1-.16.77.77,0,0,1,0,.27v1.91h1.83V43.81A.59.59,0,0,1,257.25,43.54Zm.41,6.69a1.12,1.12,0,0,0-.31-.8,1.08,1.08,0,0,0-.81-.34,1,1,0,0,0-.8.34,1.22,1.22,0,0,0,0,1.6,1,1,0,0,0,.8.34,1.08,1.08,0,0,0,.81-.34A1.12,1.12,0,0,0,257.66,50.23Z"/><path class="cls-5" d="M265.9,40.52v2.14h1.6c.43,0,.64.19.64.58s-.21.59-.64.59h-4.69c-.42,0-.64-.2-.64-.59s.22-.58.64-.58h1.84V40.52a.63.63,0,1,1,1.25,0ZM267.63,47a2.22,2.22,0,0,1-.69,1.68,2.49,2.49,0,0,1-3.42,0,2.38,2.38,0,0,1,0-3.35,2.55,2.55,0,0,1,3.42,0A2.23,2.23,0,0,1,267.63,47Zm-1.22,0a1.18,1.18,0,1,0-2,.86,1.26,1.26,0,0,0,1.68,0A1.14,1.14,0,0,0,266.41,47Zm3.38.94v-5.8a.63.63,0,1,1,1.25,0V44h1.79c.43,0,.64.2.64.59s-.21.61-.64.61H271V48a.63.63,0,1,1-1.25,0Z"/><path class="cls-5" d="M280.16,42.57a2.38,2.38,0,0,1-.73,1.77,2.51,2.51,0,0,1-1.83.72,2.48,2.48,0,0,1-1.83-.72,2.38,2.38,0,0,1-.73-1.77,2.42,2.42,0,0,1,.73-1.79,2.49,2.49,0,0,1,1.83-.73,2.52,2.52,0,0,1,1.83.73A2.42,2.42,0,0,1,280.16,42.57Zm-1.2,0a1.32,1.32,0,0,0-.39-1,1.29,1.29,0,0,0-1-.38,1.27,1.27,0,0,0-1,.38,1.35,1.35,0,0,0-.38,1,1.3,1.3,0,0,0,.38,1,1.27,1.27,0,0,0,1,.38,1.29,1.29,0,0,0,1-.38A1.27,1.27,0,0,0,279,42.57Zm.67,6.92-1-.52-.75,1.21c-.29.46-.61.58-1,.37s-.37-.53-.1-1l1.91-3.08c.28-.46.6-.58,1-.36s.35.54.08,1l-.51.83.95.5c.44.24.57.54.38.88S280.07,49.73,279.63,49.49Zm3.12-1.05,2.18,1.1c.45.24.6.53.43.88s-.5.43-1,.19l-2.27-1.16-.77,1.24q-.41.69-.93.39c-.36-.19-.41-.52-.13-1l2.15-3.49c.27-.46.6-.58,1-.35s.35.54.08,1Zm.19-3.67v-.56h-1.85c-.41,0-.61-.18-.61-.56s.2-.56.61-.56h1.85V42h-1.85c-.41,0-.61-.19-.61-.56s.2-.56.61-.56h1.85V39.78a.56.56,0,0,1,.63-.64c.4,0,.6.22.6.64v5c0,.43-.2.64-.6.64A.56.56,0,0,1,282.94,44.77Z"/><path class="cls-5" d="M287.15,45.3h8.26c.42,0,.63.2.63.59s-.21.61-.63.61h-8.26c-.43,0-.64-.2-.64-.61S286.72,45.3,287.15,45.3Zm4.48-6.57-.5,1.2L294.91,42c.44.26.56.55.37.88s-.54.39-1,.13l-3.62-2-1.06,2.56c-.2.49-.5.67-.89.53s-.48-.45-.27-.95l2-4.86c.19-.46.47-.62.85-.48S291.8,38.28,291.63,38.73ZM289.9,49l3.25,0v-.61c0-.43.2-.64.61-.64s.58.21.59.64l0,3.41a.53.53,0,0,1-.61.6l-4.43,0a.55.55,0,0,1-.61-.62l-.05-3.4a.55.55,0,0,1,.6-.65c.39,0,.59.19.6.61Zm3.27,1.06-3.25,0v1.12h3.25Z"/><path class="cls-5" d="M298.22,43.49a.56.56,0,0,1,.61-.65.55.55,0,0,1,.64.61l.08,3.95,3.5-.07a.55.55,0,0,1,.63.58c0,.38-.18.58-.58.59l-3.93.08a.73.73,0,0,1-.85-.78Zm8.71-1.1.09,6.14a.57.57,0,0,1-.62.66.55.55,0,0,1-.63-.62l-.09-6.16a.63.63,0,1,1,1.25,0Z"/><path class="cls-5" d="M315,48.61l-4.27.07c-.46,0-.7-.19-.71-.61l-.08-4.48a.61.61,0,0,1,.69-.7l3.84,0c.43,0,.64.2.64.58s-.21.59-.62.59l-3.28,0,0,3.44,3.68,0c.43,0,.65.19.66.56S315.36,48.6,315,48.61Zm3.25-6.22,0,2H320c.43,0,.64.2.64.59s-.21.61-.64.61h-1.78l.05,2.89a.57.57,0,0,1-.62.66.55.55,0,0,1-.63-.62L317,42.41a.63.63,0,1,1,1.25,0Z"/><path class="cls-5" d="M323.66,48.79a.88.88,0,0,1-.29.66,1.05,1.05,0,0,1-1.43,0,.88.88,0,0,1,0-1.32,1.05,1.05,0,0,1,1.43,0A.88.88,0,0,1,323.66,48.79Z"/></g></g></svg>