<svg xmlns="http://www.w3.org/2000/svg" viewBox="0 0 431.41 171.98"><defs><style>.cls-1{fill:#537a6e;}.cls-2{fill:#8d9e96;}.cls-3{fill:#51504f;}.cls-4{fill:#b0c1b8;}.cls-5{fill:#999;}.cls-6{fill:#2d2d2d;}.cls-7{fill:#5e887c;}</style></defs><g id="Layer_2" data-name="Layer 2"><g id="Layer_1-2" data-name="Layer 1"><path class="cls-1" d="M11.78,1.61a6.47,6.47,0,0,1,2.7,3.07c.24.66.09,1.09-.47,1.3a1.06,1.06,0,0,1-1.4-.57c-1.2-2-2.71-2.94-4.55-2.94A4.42,4.42,0,0,0,3.74,5.1a7.83,7.83,0,0,0-.62,4.21A6,6,0,0,0,4.71,13a4.42,4.42,0,0,0,3.43,1.48A5,5,0,0,0,13,11.18a1,1,0,0,1,1.37-.65c.64.24.82.71.52,1.4A6.87,6.87,0,0,1,8,16.33a6.32,6.32,0,0,1-4.73-1.95A8,8,0,0,1,1.07,9.1a8.87,8.87,0,0,1,1-5.17A6.29,6.29,0,0,1,6,.86,7.32,7.32,0,0,1,11.78,1.61Z"/><path class="cls-1" d="M28,10.37a5.47,5.47,0,0,1-.43,2.15,5.35,5.35,0,0,1-1.16,1.75,5.47,5.47,0,0,1-1.76,1.19,5.52,5.52,0,0,1-4.27,0,5.63,5.63,0,0,1-1.77-1.19,5.33,5.33,0,0,1-1.15-1.75,5.57,5.57,0,0,1,0-4.29,5.37,5.37,0,0,1,1.15-1.76,5.77,5.77,0,0,1,1.77-1.18,5.52,5.52,0,0,1,4.27,0,5.61,5.61,0,0,1,1.76,1.18A5.61,5.61,0,0,1,28,10.37Zm-2,0A3.75,3.75,0,0,0,25.65,9a3.7,3.7,0,0,0-.74-1.17A3.21,3.21,0,0,0,23.8,7a3.38,3.38,0,0,0-1.34-.27A3.45,3.45,0,0,0,21.12,7,3.27,3.27,0,0,0,20,7.8,3.7,3.7,0,0,0,19.28,9a3.79,3.79,0,0,0,0,2.81A3.7,3.7,0,0,0,20,13a3.24,3.24,0,0,0,1.1.76,3.29,3.29,0,0,0,1.34.28,3.22,3.22,0,0,0,1.34-.28A3.18,3.18,0,0,0,24.91,13a3.7,3.7,0,0,0,.74-1.17A3.76,3.76,0,0,0,25.92,10.37Z"/><path class="cls-1" d="M30.86,14.82,30.6.94c0-.63.34-.94,1-.94s1,.32,1,1l.23,13.86c0,.69-.31,1-1,1A.91.91,0,0,1,30.86,14.82Z"/><path class="cls-1" d="M46.51,10.37a5.47,5.47,0,0,1-.43,2.15,5.33,5.33,0,0,1-1.15,1.75,5.5,5.5,0,0,1-7.8,0A5.35,5.35,0,0,1,36,12.52a5.57,5.57,0,0,1,0-4.29,5.4,5.4,0,0,1,1.16-1.76,5.61,5.61,0,0,1,1.76-1.18,5.52,5.52,0,0,1,4.27,0,5.66,5.66,0,0,1,1.77,1.18,5.37,5.37,0,0,1,1.15,1.76A5.42,5.42,0,0,1,46.51,10.37Zm-2,0A3.76,3.76,0,0,0,44.21,9a3.7,3.7,0,0,0-.74-1.17A3.27,3.27,0,0,0,42.37,7,3.41,3.41,0,0,0,41,6.76,3.38,3.38,0,0,0,39.69,7a3.21,3.21,0,0,0-1.11.77A3.7,3.7,0,0,0,37.84,9a3.79,3.79,0,0,0,0,2.81A3.7,3.7,0,0,0,38.58,13a3.18,3.18,0,0,0,1.11.76A3.22,3.22,0,0,0,41,14a3.42,3.42,0,0,0,2.44-1,3.7,3.7,0,0,0,.74-1.17A3.77,3.77,0,0,0,44.49,10.37Z"/><path class="cls-1" d="M49.27,14.85,49.14,5.2c0-.62.33-.94,1-.94s1,.32,1,1l0,1.61a4.26,4.26,0,0,1,2.68-1.59,5.18,5.18,0,0,1,4.4,1.07c.53.48.61,1,.23,1.45s-.9.53-1.51.08a3.61,3.61,0,0,0-2.65-.78A3.15,3.15,0,0,0,52,8.71a6.79,6.79,0,0,0-.75,2.65l0,3.49a.91.91,0,0,1-1,1C49.62,15.89,49.29,15.54,49.27,14.85Z"/><rect class="cls-2" y="27.18" width="3.06" height="1.02"/><path class="cls-2" d="M415,28.2h-6.06v-1H415Zm-12.12,0h-6.06v-1h6.06Zm-12.11,0h-6.06v-1h6.06Zm-12.12,0h-6.06v-1h6.06Zm-12.12,0h-6v-1h6Zm-12.11,0h-6.06v-1h6.06Zm-12.12,0h-6.06v-1h6.06Zm-12.11,0h-6.06v-1h6.06Zm-12.12,0H312v-1h6.06ZM306,28.2H299.9v-1H306Zm-12.11,0h-6.06v-1h6.06Zm-12.12,0h-6.06v-1h6.06Zm-12.11,0h-6.06v-1h6.06Zm-12.12,0h-6.06v-1h6.06Zm-12.11,0h-6.06v-1h6.06Zm-12.12,0H227.2v-1h6.06Zm-12.12,0h-6.06v-1h6.06ZM209,28.2H203v-1H209Zm-12.12,0h-6.06v-1h6.06Zm-12.12,0h-6v-1h6Zm-12.11,0h-6.06v-1h6.06Zm-12.12,0H154.5v-1h6.06Zm-12.11,0h-6.06v-1h6.06Zm-12.12,0h-6.06v-1h6.06Zm-12.11,0h-6.06v-1h6.06Zm-12.12,0H106v-1h6.06ZM100,28.2h-6v-1h6Zm-12.11,0H81.81v-1h6.06Zm-12.12,0H69.69v-1h6.06Zm-12.11,0H57.58v-1h6.06Zm-12.12,0H45.46v-1h6.06Zm-12.12,0h-6v-1h6Zm-12.11,0H21.23v-1h6.06Zm-12.12,0H9.11v-1h6.06Z"/><rect class="cls-2" x="421.05" y="27.18" width="3.06" height="1.02"/><path class="cls-3" d="M186.79,61.51a.92.92,0,0,1,.88.38.76.76,0,0,1,0,.82l-1.55,2.4,2.64,1.68c.39.25.48.55.27.88s-.52.36-.93.11l-2.62-1.7-1.16,1.76a.58.58,0,0,1-.87.26c-.35-.2-.39-.5-.13-.88l3-4.55-2.88,0c-.43,0-.64-.18-.64-.56s.22-.56.67-.57Zm4.63-.1,0,2.05h1.79c.43,0,.64.2.64.59s-.21.61-.64.61h-1.78l0,2.89a.57.57,0,0,1-.62.66.55.55,0,0,1-.63-.62l-.09-6.16a.63.63,0,1,1,1.25,0Z"/><path class="cls-3" d="M200.57,61.59a2.41,2.41,0,0,1-.73,1.77,2.7,2.7,0,0,1-3.67,0,2.41,2.41,0,0,1-.72-1.77,2.45,2.45,0,0,1,.72-1.79,2.67,2.67,0,0,1,3.67,0A2.46,2.46,0,0,1,200.57,61.59Zm-1.2,0a1.32,1.32,0,0,0-.39-1,1.29,1.29,0,0,0-1-.38,1.27,1.27,0,0,0-1,.38,1.35,1.35,0,0,0-.38,1,1.3,1.3,0,0,0,.38,1,1.27,1.27,0,0,0,1,.38,1.29,1.29,0,0,0,1-.38A1.27,1.27,0,0,0,199.37,61.59Zm4.76,7.79-4.51.09a.71.71,0,0,1-.84-.78L198.71,66a.56.56,0,0,1,.61-.65A.55.55,0,0,1,200,66l0,2.31,4.08,0c.4,0,.61.17.62.56S204.53,69.37,204.13,69.38Zm-.78-4.79V63.23H201.5c-.41,0-.61-.18-.61-.56s.2-.56.61-.56h1.85v-1H201.5c-.41,0-.61-.19-.61-.56s.2-.56.61-.56h1.85V58.8a.56.56,0,0,1,.62-.64c.41,0,.61.22.61.64v5.79c0,.43-.2.64-.61.64A.56.56,0,0,1,203.35,64.59Z"/><path class="cls-3" d="M207.56,63.67h8.25c.43,0,.64.19.64.57s-.21.59-.64.59h-8.25c-.43,0-.64-.19-.64-.59S207.13,63.67,207.56,63.67Zm7.53,8.11-5.15.16c-.4,0-.61-.17-.62-.53l-.08-2.26c0-.4.19-.61.64-.64l3.41-.11,0-1.34h-3.81c-.42,0-.64-.19-.64-.56s.22-.54.64-.54h4.39a.61.61,0,0,1,.68.7v2.21a.53.53,0,0,1-.59.59l-3.45.09v1.22l4.56-.1c.42,0,.63.17.64.53S215.51,71.77,215.09,71.78Zm-.89-11.52a2.23,2.23,0,0,1-.72,1.67,2.46,2.46,0,0,1-1.76.7,2.39,2.39,0,0,1-1.73-.7,2.25,2.25,0,0,1-.7-1.67,2.32,2.32,0,0,1,.7-1.71,2.36,2.36,0,0,1,1.73-.71,2.43,2.43,0,0,1,1.76.71A2.3,2.3,0,0,1,214.2,60.26Zm-1.22,0A1.28,1.28,0,0,0,211.72,59a1.16,1.16,0,0,0-.86.38,1.25,1.25,0,0,0-.36.89,1.14,1.14,0,0,0,.36.85,1.18,1.18,0,0,0,.86.36,1.25,1.25,0,0,0,.89-.36A1.11,1.11,0,0,0,213,60.26Z"/><path class="cls-3" d="M227.5,61.59a2.41,2.41,0,0,1-.73,1.77,2.7,2.7,0,0,1-3.67,0,2.41,2.41,0,0,1-.72-1.77,2.45,2.45,0,0,1,.72-1.79,2.67,2.67,0,0,1,3.67,0A2.46,2.46,0,0,1,227.5,61.59Zm-1.21,0a1.3,1.3,0,0,0-1.36-1.36,1.27,1.27,0,0,0-1,.38,1.35,1.35,0,0,0-.38,1,1.3,1.3,0,0,0,.38,1,1.27,1.27,0,0,0,1,.38,1.31,1.31,0,0,0,1-.38A1.27,1.27,0,0,0,226.29,61.59Zm4.77,7.79-4.51.09a.71.71,0,0,1-.85-.78L225.64,66a.63.63,0,1,1,1.25,0l0,2.31,4.08,0c.41,0,.62.17.63.56S231.46,69.37,231.06,69.38Zm-.78-4.79V63.23h-1.86c-.4,0-.61-.18-.61-.56s.21-.56.61-.56h1.86v-1h-1.86c-.4,0-.61-.19-.61-.56s.21-.56.61-.56h1.86V58.8a.56.56,0,0,1,.62-.64c.41,0,.61.22.61.64v5.79c0,.43-.2.64-.61.64A.56.56,0,0,1,230.28,64.59Z"/><path class="cls-3" d="M237.38,59l-.72,2.05,3.28,2.17c.4.27.48.57.26.9s-.54.35-.93.08l-3-1.95-.64,1.82c-.17.47-.46.65-.85.53s-.55-.44-.39-.93l1.76-5c.17-.5.47-.67.88-.52S237.53,58.57,237.38,59Zm4.88,8.59a2,2,0,0,1-.65,1.54,2.22,2.22,0,0,1-1.59.62,2.19,2.19,0,0,1-1.57-.62,2.18,2.18,0,0,1,0-3.09,2.15,2.15,0,0,1,1.57-.62,2.18,2.18,0,0,1,1.59.62A2,2,0,0,1,242.26,67.6Zm-1.21,0a1,1,0,0,0-.3-.73,1,1,0,0,0-.73-.29.91.91,0,0,0-.7.29,1,1,0,0,0-.29.73,1,1,0,0,0,.29.71.92.92,0,0,0,.7.3,1,1,0,0,0,.73-.3A.94.94,0,0,0,241.05,67.6Zm.52-3.52V58.8a.56.56,0,0,1,.63-.64.56.56,0,0,1,.61.64v1.78h1.42c.43,0,.64.2.64.59s-.21.61-.64.61h-1.42v2.3c0,.43-.21.64-.61.64A.56.56,0,0,1,241.57,64.08Z"/><path class="cls-3" d="M246.81,62l3.07,0c.64,0,.91.37.83,1.06l-.61,4.57a.63.63,0,0,1-1.25-.17l.23-1.7-2.13,0c-.43,0-.64-.19-.64-.56s.21-.56.64-.56l2.27,0,.19-1.46-2.64-.05c-.42,0-.63-.21-.62-.61S246.38,61.94,246.81,62Zm6.06,5.48,0-2.16h-1.2c-.42,0-.64-.2-.64-.59s.22-.58.64-.58h1.2V61.55c0-.42.2-.63.61-.63s.6.21.6.63l0,5.89c0,.43-.21.64-.61.64S252.87,67.87,252.87,67.44Zm2.46.13V61.43c0-.43.21-.64.61-.64s.61.21.61.64v6.14c0,.43-.2.64-.61.64S255.33,68,255.33,67.57Z"/><path class="cls-3" d="M261.88,59.54v2.14h1.6c.42,0,.64.2.64.58s-.22.59-.64.59h-4.69c-.43,0-.64-.2-.64-.59s.21-.58.64-.58h1.84V59.54a.63.63,0,1,1,1.25,0ZM263.61,66a2.22,2.22,0,0,1-.69,1.68,2.5,2.5,0,0,1-3.43,0,2.4,2.4,0,0,1,0-3.35,2.56,2.56,0,0,1,3.43,0A2.23,2.23,0,0,1,263.61,66Zm-1.22,0a1.19,1.19,0,1,0-2,.86,1.26,1.26,0,0,0,1.68,0A1.14,1.14,0,0,0,262.39,66.05Zm3.38.94v-5.8c0-.43.2-.64.62-.64s.62.21.62.64v1.87h1.8c.42,0,.64.2.64.59s-.22.61-.64.61H267V67c0,.43-.2.64-.62.64S265.77,67.42,265.77,67Z"/><path class="cls-3" d="M279.33,64.24c.43,0,.64.2.64.59s-.21.61-.64.61H271c-.43,0-.64-.2-.64-.61s.21-.59.64-.59Zm-7.08-5.87a.56.56,0,0,1,.6-.66.55.55,0,0,1,.64.61l.08,2.9,3.81-.07a.55.55,0,0,1,.63.58c0,.38-.18.58-.58.59l-4.24.08a.73.73,0,0,1-.85-.78Zm.4,8.9q0-.64.6-.66a.55.55,0,0,1,.64.61l.05,2.43,4-.08c.41,0,.62.19.63.58a.52.52,0,0,1-.58.59l-4.43.09a.73.73,0,0,1-.85-.78Z"/><path class="cls-3" d="M287,58.37a.57.57,0,0,1,.61-.66.55.55,0,0,1,.64.61l.08,2.9,3.81-.07a.54.54,0,0,1,.62.58.51.51,0,0,1-.57.59l-1.71,0v2.1H294c.43,0,.64.2.64.59s-.21.61-.64.61h-8.26c-.42,0-.64-.2-.64-.61s.22-.59.64-.59h3.51V62.37l-1.28,0a.73.73,0,0,1-.85-.78ZM291.75,71l-.08-2.59h-4c-.42,0-.64-.2-.64-.6s.22-.57.64-.57h4.42a.7.7,0,0,1,.8.75l.08,3a.54.54,0,0,1-.59.62A.56.56,0,0,1,291.75,71Z"/><path class="cls-3" d="M298.9,59l-.64,2.13,3,2.11c.38.27.45.56.21.88s-.54.35-.91.08l-2.67-1.84-.51,1.71c-.14.47-.41.65-.82.53s-.56-.41-.43-.88l1.53-5.06q.23-.73.84-.54C298.89,58.26,299,58.55,298.9,59Zm5.35,10.16-.08-2.5h-4c-.43,0-.64-.19-.64-.59s.21-.57.64-.57h4.43a.7.7,0,0,1,.8.75l.08,2.88a.53.53,0,0,1-.59.62A.56.56,0,0,1,304.25,69.17Zm.86-7.42h-1.57v1.72c0,.43-.2.64-.61.64s-.6-.21-.6-.64V58.72c0-.42.2-.64.6-.64s.61.22.61.64v1.87h1.57V58.72c0-.42.2-.64.61-.64a.56.56,0,0,1,.61.64v4.82c0,.43-.21.64-.61.64s-.61-.21-.61-.64Z"/><path class="cls-3" d="M308.61,63.67h8.26c.43,0,.64.19.64.57s-.21.59-.64.59h-8.26c-.42,0-.64-.19-.64-.59S308.19,63.67,308.61,63.67Zm7.54,8.11-5.15.16c-.41,0-.62-.17-.63-.53l-.08-2.26c0-.4.2-.61.64-.64l3.41-.11V67.06h-3.81c-.43,0-.64-.19-.64-.56s.21-.54.64-.54h4.38a.61.61,0,0,1,.69.7v2.21a.53.53,0,0,1-.59.59l-3.46.09,0,1.22,4.56-.1c.41,0,.63.17.64.53S316.57,71.77,316.15,71.78Zm-.9-11.52a2.23,2.23,0,0,1-.72,1.67,2.45,2.45,0,0,1-1.76.7,2.35,2.35,0,0,1-1.72-.7,2.26,2.26,0,0,1-.71-1.67,2.42,2.42,0,0,1,2.43-2.42,2.41,2.41,0,0,1,1.76.71A2.3,2.3,0,0,1,315.25,60.26Zm-1.21,0a1.23,1.23,0,0,0-.38-.89,1.21,1.21,0,0,0-.89-.38,1.14,1.14,0,0,0-.85.38,1.25,1.25,0,0,0-.36.89,1.14,1.14,0,0,0,.36.85,1.16,1.16,0,0,0,.85.36,1.23,1.23,0,0,0,.89-.36A1.12,1.12,0,0,0,314,60.26Z"/><path class="cls-3" d="M323.27,67.09,323,62.82c0-.53.17-.8.6-.8h3.65c.48,0,.71.27.71.8v1.29h1.59l0-2.56a.55.55,0,0,1,.61-.63c.41,0,.61.21.61.63l0,5.89c0,.43-.2.64-.61.64s-.6-.21-.6-.64l0-2.16H328v1.81a.52.52,0,0,1-.59.59h-3.58C323.49,67.68,323.3,67.49,323.27,67.09Zm1-3.92.18,3.36h2.32V63.17Zm7.78,4.4V61.43c0-.43.2-.64.61-.64s.61.21.61.64v6.14c0,.43-.21.64-.61.64S332.07,68,332.07,67.57Z"/><path class="cls-3" d="M340.71,61.59a2.38,2.38,0,0,1-.73,1.77,2.69,2.69,0,0,1-3.66,0,2.38,2.38,0,0,1-.73-1.77,2.42,2.42,0,0,1,.73-1.79,2.66,2.66,0,0,1,3.66,0A2.42,2.42,0,0,1,340.71,61.59Zm-1.2,0a1.35,1.35,0,0,0-.38-1,1.33,1.33,0,0,0-1-.38,1.27,1.27,0,0,0-1,.38,1.34,1.34,0,0,0-.37,1,1.3,1.3,0,0,0,.37,1,1.27,1.27,0,0,0,1,.38,1.33,1.33,0,0,0,1-.38A1.3,1.3,0,0,0,339.51,61.59Zm4.77,7.79-4.51.09a.71.71,0,0,1-.85-.78L338.85,66a.56.56,0,0,1,.61-.65.55.55,0,0,1,.64.61l0,2.31,4.08,0c.4,0,.61.17.62.56A.51.51,0,0,1,344.28,69.38Zm-.79-4.79V58.8a.56.56,0,0,1,.63-.64.56.56,0,0,1,.61.64v5.79c0,.43-.21.64-.61.64A.56.56,0,0,1,343.49,64.59Z"/><path class="cls-3" d="M348.39,58.5l3.47,0c.64,0,.92.36.83,1.05l-.46,3.59a.56.56,0,0,1-.69.56A.57.57,0,0,1,351,63l.15-1.1-2.6,0c-.42,0-.64-.19-.64-.57s.22-.56.64-.56l2.72,0,.15-1.09-3,0c-.43,0-.64-.22-.63-.61S348,58.49,348.39,58.5Zm7.87,12.19-4.43.16c-.44,0-.67-.15-.69-.53L351,68.05a.53.53,0,0,1,.56-.66l3.13-.11.07-1.34h-3.46c-.42,0-.62-.19-.62-.58s.21-.56.64-.56h4a.6.6,0,0,1,.68.72l-.21,2.37c0,.3-.23.45-.59.46l-3,.1.09,1.26,3.95-.14c.45,0,.69.17.71.53S356.72,70.67,356.26,70.69Zm-.56-7.47,0-1.76h-1.9c-.43,0-.64-.19-.64-.58s.21-.57.64-.57h1.87l0-1.68c0-.43.2-.64.62-.64s.61.21.61.64l.09,4.59c0,.43-.2.64-.6.64A.56.56,0,0,1,355.7,63.22Z"/><path class="cls-3" d="M365.51,67.52l-4.4.15q-.64,0-.69-.48l-.17-2.79a.56.56,0,0,1,.59-.69l3-.11V61.83h-3.3c-.42,0-.64-.2-.64-.58s.22-.56.64-.56h3.75c.51,0,.76.24.76.7v2.84c0,.3-.2.46-.59.48l-3,.09.09,1.7,3.92-.1c.43,0,.65.18.66.56S365.92,67.51,365.51,67.52Zm3.41-6.11.09,6.14a.56.56,0,0,1-.62.66c-.41,0-.61-.2-.63-.62l0-3h-1.49c-.43,0-.64-.2-.64-.58s.21-.58.64-.58h1.47l0-2a.63.63,0,1,1,1.25,0Z"/><path class="cls-3" d="M378.84,65.31l-1.75.07V67.6h3.3c.43,0,.64.2.64.59s-.21.61-.64.61h-8.31c-.42,0-.63-.2-.63-.61s.21-.59.63-.59h3.76V65.41l-1.87.06c-.4,0-.61-.16-.62-.52l-.08-2.34c0-.43.19-.65.64-.67l3.41-.11,0-1.32h-3.81c-.42,0-.64-.19-.64-.57s.22-.56.64-.56h4.39a.61.61,0,0,1,.69.7v2.24a.54.54,0,0,1-.6.61l-3.45.1v1.28l4.27-.1c.42,0,.63.17.65.54S379.25,65.3,378.84,65.31Z"/><path class="cls-3" d="M390.07,61.81l2.62,1.62c.4.25.49.55.27.88s-.52.36-.92.11l-2.61-1.65-1.17,1.71c-.25.38-.54.46-.88.26s-.38-.5-.13-.88l3-4.35-2.88,0c-.42,0-.64-.18-.64-.56s.23-.56.67-.57l3.4-.08a1,1,0,0,1,.88.38.74.74,0,0,1,0,.82Zm4.19,7.36-.08-2.5h-3.82c-.43,0-.64-.19-.64-.59s.21-.57.64-.57h4.27a.7.7,0,0,1,.8.75l.08,2.88a.54.54,0,0,1-.59.62A.56.56,0,0,1,394.26,69.17Zm.48-5.38V62h-2.37c-.42,0-.64-.2-.64-.58s.22-.58.64-.58h2.37v-2a.56.56,0,0,1,.62-.64c.41,0,.61.22.61.64v5c0,.43-.2.64-.61.64A.56.56,0,0,1,394.74,63.79Z"/><path class="cls-3" d="M405.64,60.29a2.29,2.29,0,0,1-.72,1.74,2.12,2.12,0,0,1-.24.2.53.53,0,0,1,.57.6v1.91h2c.42,0,.63.2.63.59s-.21.61-.63.61H399c-.43,0-.64-.2-.64-.61s.21-.59.64-.59H401V62.83a.53.53,0,0,1,.57-.6,2,2,0,0,1-.22-.2,2.29,2.29,0,0,1-.72-1.74,2.33,2.33,0,0,1,.72-1.75,2.43,2.43,0,0,1,1.77-.7,2.47,2.47,0,0,1,1.79.7A2.34,2.34,0,0,1,405.64,60.29Zm.09,9a2.05,2.05,0,0,1-.19.88,2.71,2.71,0,0,1-.51.74,2.48,2.48,0,0,1-.74.48,2.18,2.18,0,0,1-.91.19,2.11,2.11,0,0,1-.9-.19,2.57,2.57,0,0,1-.73-.48,2.51,2.51,0,0,1-.51-.74,2,2,0,0,1,0-1.76,2.51,2.51,0,0,1,.51-.74,2.57,2.57,0,0,1,.73-.48,2.11,2.11,0,0,1,.9-.19,2.18,2.18,0,0,1,.91.19,2.48,2.48,0,0,1,.74.48,2.71,2.71,0,0,1,.51.74A2.05,2.05,0,0,1,405.73,69.25Zm-1.31-9a1.25,1.25,0,0,0-.37-.92,1.24,1.24,0,0,0-.93-.38,1.19,1.19,0,0,0-.91.38,1.25,1.25,0,0,0-.37.92,1.21,1.21,0,0,0,.37.91,1.18,1.18,0,0,0,.91.37,1.23,1.23,0,0,0,.93-.37A1.21,1.21,0,0,0,404.42,60.29Zm-.34,2.27a2.93,2.93,0,0,1-1.91,0,.77.77,0,0,1,0,.27v1.91H404V62.83A.77.77,0,0,1,404.08,62.56Zm.42,6.69a1.12,1.12,0,0,0-.31-.8,1.08,1.08,0,0,0-.81-.34,1,1,0,0,0-.8.34,1.22,1.22,0,0,0,0,1.6,1,1,0,0,0,.8.34,1.08,1.08,0,0,0,.81-.34A1.12,1.12,0,0,0,404.5,69.25Z"/><path class="cls-3" d="M412.74,59.54v2.14h1.6c.43,0,.64.2.64.58s-.21.59-.64.59h-4.69c-.42,0-.64-.2-.64-.59s.22-.58.64-.58h1.84V59.54a.63.63,0,1,1,1.25,0ZM414.47,66a2.22,2.22,0,0,1-.69,1.68,2.49,2.49,0,0,1-3.42,0,2.38,2.38,0,0,1,0-3.35,2.55,2.55,0,0,1,3.42,0A2.23,2.23,0,0,1,414.47,66Zm-1.22,0a1.18,1.18,0,1,0-2,.86,1.26,1.26,0,0,0,1.68,0A1.14,1.14,0,0,0,413.25,66.05Zm3.38.94v-5.8a.63.63,0,1,1,1.25,0v1.87h1.79c.43,0,.64.2.64.59s-.21.61-.64.61h-1.79V67a.63.63,0,1,1-1.25,0Z"/><path class="cls-3" d="M430.2,67.41c.42,0,.64.2.64.59s-.22.61-.64.61h-8.31c-.42,0-.64-.2-.64-.61s.22-.59.64-.59h2.8V64.32a.63.63,0,1,1,1.25,0v3.09Zm-7-7.45H428c.54,0,.8.27.75.83l-.32,3.8c0,.44-.25.64-.65.61s-.59-.27-.56-.72l.24-3.36h-4.24c-.43,0-.64-.19-.64-.59S422.81,60,423.24,60Z"/><path class="cls-3" d="M183.24,87.94h8.26c.42,0,.63.2.63.59s-.21.61-.63.61h-3.09v2.35a.63.63,0,1,1-1.25,0V89.14h-3.92c-.43,0-.64-.2-.64-.61S182.81,87.94,183.24,87.94Zm1.28-5.57a.56.56,0,0,1,.61-.66.56.56,0,0,1,.64.61l.08,2.9,3.8-.07a.55.55,0,0,1,.63.58c0,.38-.18.58-.58.59l-4.24.08a.72.72,0,0,1-.84-.78Zm.08,8.9a.56.56,0,0,1,.61-.66.55.55,0,0,1,.64.61l0,2.43,4.32-.08c.41,0,.62.19.63.58s-.18.58-.58.59l-4.75.09a.73.73,0,0,1-.85-.78Z"/><path class="cls-3" d="M198.45,88.61a2.46,2.46,0,0,1-.7,1.77,2.52,2.52,0,0,1-3.55,0,2.47,2.47,0,0,1-.71-1.77,2.51,2.51,0,0,1,.71-1.78,2.52,2.52,0,0,1,3.55,0A2.5,2.5,0,0,1,198.45,88.61Zm-1.2,0a1.39,1.39,0,0,0-.36-1,1.22,1.22,0,0,0-.92-.39,1.17,1.17,0,0,0-.9.39,1.39,1.39,0,0,0-.36,1,1.36,1.36,0,0,0,.36,1,1.17,1.17,0,0,0,.9.39,1.22,1.22,0,0,0,.92-.39A1.36,1.36,0,0,0,197.25,88.61Zm3.12,2.83V89.19h-1c-.43,0-.64-.2-.64-.58s.21-.58.64-.58h1l0-2.48c0-.42.2-.63.61-.63s.61.21.61.63l0,5.89c0,.43-.2.64-.61.64S200.37,91.87,200.37,91.44Zm2.28.13V85.43c0-.43.2-.64.6-.64s.61.21.61.64v6.14c0,.43-.2.64-.61.64S202.65,92,202.65,91.57Z"/><path class="cls-3" d="M211.41,90.56l-.11-3.41h-.48c-.42,0-.64-.19-.64-.59s.22-.57.64-.57H216c.42,0,.64.19.64.57s-.22.59-.64.59h-.53v3.41h.66c.42,0,.64.19.64.58s-.22.57-.64.57h-5.48c-.42,0-.64-.19-.64-.57s.22-.58.64-.58Zm1.12-3.41.12,3.41h1.63V87.15Zm6.85-1.74.1,6.14a.57.57,0,0,1-.63.66c-.4,0-.61-.2-.62-.62l-.1-6.16a.55.55,0,0,1,.63-.64A.55.55,0,0,1,219.38,85.41Z"/><path class="cls-3" d="M229.14,89.31l-1.74.07V91.6h3.29c.43,0,.64.2.64.59s-.21.61-.64.61h-8.3c-.43,0-.64-.2-.64-.61s.21-.59.64-.59h3.76V89.41l-1.87.06c-.41,0-.61-.16-.63-.52l-.08-2.34c0-.43.2-.65.64-.67l3.41-.11V84.51H223.8c-.43,0-.64-.19-.64-.57s.21-.56.64-.56h4.38a.61.61,0,0,1,.69.7v2.24a.54.54,0,0,1-.59.61l-3.46.1,0,1.28,4.27-.1c.42,0,.63.17.64.54S229.56,89.3,229.14,89.31Z"/><path class="cls-3" d="M233.41,82.66l3.44,0q1,0,.84,1.05l-.52,3.87a.62.62,0,1,1-1.24-.14l.46-3.61-3,0c-.42,0-.63-.22-.62-.61S233,82.65,233.41,82.66ZM235.72,93l-.19-2.82c-.05-.52.16-.78.6-.78h4c.49,0,.73.26.73.8V93a.53.53,0,0,1-.6.61h-4C235.93,93.6,235.75,93.41,235.72,93Zm1.05-2.45.13,1.87h2.74V90.58Zm3.36-2.79v-5a.56.56,0,0,1,.63-.64.56.56,0,0,1,.61.64v1.59l1.47.06a.55.55,0,0,1,.59.62.53.53,0,0,1-.62.58l-1.44-.06v2.2c0,.43-.21.64-.61.64A.56.56,0,0,1,240.13,87.79Z"/><path class="cls-3" d="M250.44,88.61a2.42,2.42,0,0,1-.75,1.79,2.67,2.67,0,0,1-3.69,0,2.42,2.42,0,0,1-.75-1.79,2.6,2.6,0,0,1,5.19,0Zm-1.2,0a1.37,1.37,0,0,0-1.39-1.39,1.31,1.31,0,0,0-1,.4,1.37,1.37,0,0,0-.39,1A1.35,1.35,0,0,0,247.85,90a1.34,1.34,0,0,0,1-.4A1.29,1.29,0,0,0,249.24,88.61Zm5-3.2.1,6.14a.57.57,0,0,1-.63.66c-.4,0-.61-.2-.62-.62l-.1-6.16a.55.55,0,0,1,.63-.64A.55.55,0,0,1,254.26,85.41Z"/><path class="cls-3" d="M266.74,87.54l-4.27.06c-.46,0-.69-.19-.7-.61l-.08-3.77c0-.46.21-.69.68-.71l3.84,0c.43,0,.64.19.64.58s-.2.59-.62.59l-3.28,0,.05,2.73,3.68,0c.42,0,.64.18.65.56S267.15,87.53,266.74,87.54ZM270,94.69l-4.43.16c-.44,0-.66-.15-.69-.53l-.17-2.27a.54.54,0,0,1,.56-.66l3.13-.11.07-1.34H265c-.41,0-.62-.19-.62-.58s.21-.56.64-.56h4.05c.48,0,.7.24.67.72l-.21,2.37c0,.3-.23.45-.59.46l-3,.1.09,1.26,4-.14c.44,0,.68.17.7.53S270.43,94.67,270,94.69Zm-.56-7.47,0-1.67h-2.49c-.43,0-.64-.19-.64-.57s.21-.58.64-.58h2.46l0-1.77a.56.56,0,0,1,.62-.64c.41,0,.61.21.61.64l.1,4.59c0,.43-.21.64-.61.64A.56.56,0,0,1,269.41,87.22Z"/><path class="cls-3" d="M276.65,82v1.58h1.58c.43,0,.64.19.64.56s-.21.57-.64.57h-.54a2.1,2.1,0,0,1,.65,1.56,2.07,2.07,0,0,1-.69,1.58,2.53,2.53,0,0,1-3.36,0,2.19,2.19,0,0,1,0-3.14h-.69c-.42,0-.64-.19-.64-.57s.22-.56.64-.56h1.83V82c0-.43.21-.65.62-.65A.57.57,0,0,1,276.65,82Zm.48,4.19a1.2,1.2,0,0,0-.32-.84A1.1,1.1,0,0,0,276,85a1.08,1.08,0,0,0-.83.35,1.2,1.2,0,0,0-.32.84,1.18,1.18,0,0,0,.32.83,1.1,1.1,0,0,0,.83.33,1.12,1.12,0,0,0,.84-.33A1.18,1.18,0,0,0,277.13,86.15Zm4.32,7.23-4.36.09a.71.71,0,0,1-.84-.78L276.18,90a.56.56,0,0,1,.61-.65.55.55,0,0,1,.64.61l.05,2.31,3.92,0c.4,0,.61.17.62.56A.51.51,0,0,1,281.45,93.38Zm-.79-4.79V82.8a.56.56,0,0,1,.63-.64c.4,0,.6.22.6.64v2l1.48.06a.55.55,0,0,1,.59.62.53.53,0,0,1-.63.58L281.89,86v2.6c0,.43-.2.64-.6.64A.56.56,0,0,1,280.66,88.59Z"/><path class="cls-3" d="M295.86,84.87l-3.66,0v1l4.34,0c.43,0,.65.19.66.56s-.19.6-.6.61l-1.74,0v1.57h3.28c.43,0,.64.2.64.59s-.21.61-.64.61h-8.3c-.43,0-.64-.2-.64-.61s.21-.59.64-.59h3.76V87.06l-1.76,0c-.56,0-.84-.25-.85-.78l-.08-4a.62.62,0,0,1,.69-.7l4.32,0c.41,0,.62.18.64.54s-.2.58-.63.58l-3.77,0v1.08l3.65,0c.44,0,.66.18.66.55S296.28,84.86,295.86,84.87Zm-4.4,6.64a.56.56,0,0,1,.61-.66.55.55,0,0,1,.64.61l.05,2.24,4-.08c.4,0,.61.19.62.57a.52.52,0,0,1-.57.6l-4.44.09a.72.72,0,0,1-.84-.78Z"/><path class="cls-3" d="M305.43,91.63l-4.27.07c-.46,0-.7-.19-.71-.61l-.08-4.48a.61.61,0,0,1,.69-.7l3.84,0c.43,0,.64.19.64.57s-.21.59-.62.59l-3.28,0,.05,3.44,3.68,0c.42,0,.64.19.65.56S305.83,91.62,305.43,91.63Zm3.25-6.22,0,2h1.79c.43,0,.64.2.64.59s-.21.61-.64.61h-1.77l0,2.89a.56.56,0,0,1-.62.66c-.41,0-.61-.2-.62-.62l-.1-6.16a.63.63,0,1,1,1.25,0Z"/><path class="cls-3" d="M312.66,87.94h8.26c.42,0,.64.2.64.59s-.22.61-.64.61h-3.09v2.35a.63.63,0,1,1-1.25,0V89.14h-3.92c-.42,0-.64-.2-.64-.61S312.24,87.94,312.66,87.94ZM314,91.27a.56.56,0,0,1,.61-.66.55.55,0,0,1,.64.61l.05,2.43,4.32-.08a.54.54,0,0,1,.62.58.51.51,0,0,1-.57.59l-4.76.09a.72.72,0,0,1-.84-.78Zm5.33-7a2.27,2.27,0,0,1-.73,1.74,2.64,2.64,0,0,1-3.56,0,2.29,2.29,0,0,1-.72-1.74,2.33,2.33,0,0,1,.72-1.75,2.61,2.61,0,0,1,3.56,0A2.3,2.3,0,0,1,319.35,84.29Zm-1.22,0a1.28,1.28,0,0,0-.36-.92,1.27,1.27,0,0,0-.93-.38,1.21,1.21,0,0,0-.92.38,1.28,1.28,0,0,0-.36.92,1.24,1.24,0,0,0,.36.91,1.21,1.21,0,0,0,.92.37,1.26,1.26,0,0,0,.93-.37A1.24,1.24,0,0,0,318.13,84.29Z"/><path class="cls-3" d="M329,87h-1.44v1.81h2.08c.42,0,.64.2.64.59s-.22.61-.64.61h-5.68c-.43,0-.64-.2-.64-.61s.21-.59.64-.59h2.35V87l-1.68,0c-.46,0-.7-.19-.71-.61l-.08-3.29a.62.62,0,0,1,.69-.71l3.94,0c.42,0,.64.19.64.58s-.21.59-.63.59l-3.37,0,0,2.27,3.78,0c.43,0,.65.19.66.56S329.37,87,329,87Zm2.78,7.5-4.54.1a.72.72,0,0,1-.85-.79l-.05-2.21a.63.63,0,1,1,1.25,0l0,1.84,4.11,0c.41,0,.61.17.63.56A.52.52,0,0,1,331.75,94.45Zm.7-11.09.08,6.4c0,.44-.2.66-.62.66a.55.55,0,0,1-.62-.63l-.08-6.41c0-.43.19-.64.62-.64A.55.55,0,0,1,332.45,83.36Z"/><path class="cls-3" d="M340.28,82.5l3.47,0c.64,0,.92.36.83,1l-.46,3.59a.63.63,0,1,1-1.25-.15l.14-1.1-2.59,0c-.43,0-.64-.19-.64-.57s.21-.56.64-.56l2.72,0,.15-1.09-3,0c-.43,0-.64-.22-.63-.61S339.85,82.49,340.28,82.5Zm7.87,12.19-4.43.16c-.44,0-.67-.15-.69-.53l-.18-2.27a.54.54,0,0,1,.56-.66l3.14-.11.06-1.34h-3.45c-.42,0-.63-.19-.63-.58s.22-.56.64-.56h4.05c.48,0,.71.24.67.72l-.2,2.37c0,.3-.23.45-.6.46l-3,.1.1,1.26,4-.14c.45,0,.68.17.71.53S348.61,94.67,348.15,94.69Zm-.56-7.47,0-1.76h-1.91c-.42,0-.64-.19-.64-.58s.22-.57.64-.57h1.88l0-1.68a.56.56,0,0,1,.63-.64c.4,0,.61.21.61.64l.09,4.59c0,.43-.2.64-.61.64A.56.56,0,0,1,347.59,87.22Z"/><path class="cls-3" d="M357.4,91.52l-4.4.15q-.64,0-.69-.48l-.18-2.79a.57.57,0,0,1,.6-.69l3-.11V85.83h-3.3c-.42,0-.64-.2-.64-.58s.22-.56.64-.56h3.75c.51,0,.76.24.76.7v2.84c0,.3-.2.46-.59.48l-3,.09.1,1.7,3.92-.1c.43,0,.65.18.66.56S357.81,91.51,357.4,91.52Zm3.41-6.11.09,6.14a.57.57,0,0,1-.62.66.55.55,0,0,1-.63-.62l0-3h-1.49c-.43,0-.64-.2-.64-.58s.21-.58.64-.58h1.47l0-2a.63.63,0,1,1,1.25,0Z"/><path class="cls-3" d="M370.73,89.31l-1.75.07V91.6h3.3c.42,0,.64.2.64.59s-.22.61-.64.61H364c-.42,0-.64-.2-.64-.61s.22-.59.64-.59h3.76V89.41l-1.87.06c-.4,0-.61-.16-.62-.52l-.08-2.34c0-.43.19-.65.64-.67l3.41-.11,0-1.32h-3.81c-.42,0-.64-.19-.64-.57s.22-.56.64-.56h4.39a.61.61,0,0,1,.68.7v2.24a.53.53,0,0,1-.59.61l-3.45.1v1.28l4.27-.1c.42,0,.63.17.64.54S371.14,89.3,370.73,89.31Z"/><path class="cls-3" d="M381.89,83l-.72,2,3.28,2.17c.4.27.48.57.26.9s-.53.35-.93.08l-3-1.95-.64,1.82c-.17.47-.46.65-.85.53s-.54-.44-.39-.93l1.77-5c.17-.5.46-.67.88-.52S382,82.57,381.89,83Zm5.52,10.37-4.51.09a.71.71,0,0,1-.85-.78L382,90a.63.63,0,1,1,1.25,0l.05,2.31,4.08,0c.4,0,.61.17.62.56S387.81,93.37,387.41,93.38Zm-.78-4.79V85.67h-2.48c-.43,0-.64-.2-.64-.58s.21-.58.64-.58h2.48V82.8a.56.56,0,0,1,.62-.64c.41,0,.61.22.61.64v5.79c0,.43-.2.64-.61.64A.56.56,0,0,1,386.63,88.59Z"/><path class="cls-3" d="M394.55,85.75l-2.69,0,0,1.27,3.47,0c.43,0,.65.18.66.58s-.19.58-.6.59l-3.9.08a.73.73,0,0,1-.85-.79L390.58,83a.62.62,0,0,1,.69-.7l3.36,0c.43,0,.64.19.64.56s-.21.56-.62.57l-2.82,0,0,1.22,2.67,0c.44,0,.65.18.65.54S395,85.74,394.55,85.75Zm4.08,7.42-.08-2.5h-4c-.43,0-.64-.19-.64-.59s.21-.57.64-.57H399a.7.7,0,0,1,.8.75l.08,2.88a.54.54,0,0,1-.59.62A.56.56,0,0,1,398.63,93.17Zm.86-7.42h-1.56v1.72c0,.43-.21.64-.61.64s-.61-.21-.61-.64V82.72c0-.42.2-.64.61-.64a.56.56,0,0,1,.61.64v1.87h1.56V82.72a.56.56,0,0,1,.61-.64c.41,0,.61.22.61.64v4.82c0,.43-.2.64-.61.64s-.61-.21-.61-.64Z"/><path class="cls-3" d="M406.07,83.54v2.14h1.6c.42,0,.64.2.64.58s-.22.59-.64.59H403c-.43,0-.64-.2-.64-.59s.21-.58.64-.58h1.84V83.54a.63.63,0,1,1,1.25,0ZM407.8,90a2.22,2.22,0,0,1-.69,1.68,2.5,2.5,0,0,1-3.43,0,2.4,2.4,0,0,1,0-3.35,2.56,2.56,0,0,1,3.43,0A2.23,2.23,0,0,1,407.8,90Zm-1.22,0a1.19,1.19,0,1,0-2,.86,1.26,1.26,0,0,0,1.68,0A1.14,1.14,0,0,0,406.58,90.05ZM410,91v-5.8a.56.56,0,0,1,.62-.64c.42,0,.62.21.62.64v1.87H413c.42,0,.64.2.64.59s-.22.61-.64.61h-1.8V91c0,.43-.2.64-.62.64A.56.56,0,0,1,410,91Z"/><path class="cls-3" d="M420.39,88.61a2.42,2.42,0,0,1-.75,1.79,2.67,2.67,0,0,1-3.69,0,2.41,2.41,0,0,1-.74-1.79,2.45,2.45,0,0,1,.74-1.8,2.6,2.6,0,0,1,4.44,1.8Zm-1.2,0a1.37,1.37,0,0,0-1.39-1.39,1.31,1.31,0,0,0-1,.4,1.37,1.37,0,0,0-.39,1A1.35,1.35,0,0,0,417.8,90a1.34,1.34,0,0,0,1-.4A1.29,1.29,0,0,0,419.19,88.61Zm5-3.2.1,6.14a.57.57,0,0,1-.63.66c-.4,0-.61-.2-.62-.62l0-1.25h-1.69c-.43,0-.64-.19-.64-.58s.21-.56.64-.56H423L423,88h-1.66c-.43,0-.64-.19-.64-.58s.21-.56.64-.56H423l0-1.45a.55.55,0,0,1,.63-.64A.55.55,0,0,1,424.21,85.41Z"/><path class="cls-3" d="M183.94,110l3.36,0c.64,0,.92.37.83,1.06l-.6,4.49a.55.55,0,0,1-.71.53.54.54,0,0,1-.54-.7l.56-4.21-2.93,0c-.43,0-.63-.21-.62-.61S183.52,109.94,183.94,110Zm8.35-.55.1,6.14a.57.57,0,0,1-.62.66.55.55,0,0,1-.63-.62l-.09-6.16a.62.62,0,1,1,1.24,0Z"/><path class="cls-3" d="M197.85,107l3.08,0v-.66a.56.56,0,0,1,.61-.64c.41,0,.61.22.61.64l0,3.71a.53.53,0,0,1-.6.61h-1.09v1.73h3.28c.42,0,.64.2.64.59s-.22.61-.64.61h-8.31c-.42,0-.64-.2-.64-.61s.22-.59.64-.59h3.76v-1.73h-1.95a.55.55,0,0,1-.61-.62l0-3.68c0-.43.18-.65.59-.66a.55.55,0,0,1,.62.61Zm-.77,8.24a.56.56,0,0,1,.61-.66.55.55,0,0,1,.64.61l0,2.43,4-.08a.54.54,0,0,1,.62.58c0,.38-.18.58-.58.59l-4.43.09a.73.73,0,0,1-.85-.78Zm3.87-7.14-3.09.05,0,1.31H201Z"/><path class="cls-3" d="M208.57,107l-.64,2.13,3,2.11c.37.27.44.56.21.88s-.54.35-.92.08l-2.67-1.84-.51,1.71c-.14.47-.41.65-.82.53s-.56-.41-.43-.88l1.54-5.06c.15-.49.43-.67.83-.54S208.69,106.55,208.57,107Zm5.34,10.16-.08-2.5h-4c-.43,0-.64-.19-.64-.59s.21-.57.64-.57h4.43a.7.7,0,0,1,.8.75l.08,2.88a.54.54,0,0,1-.59.62A.56.56,0,0,1,213.91,117.17Zm.86-7.42h-1.56v1.72c0,.43-.21.64-.61.64s-.61-.21-.61-.64v-4.75c0-.42.2-.64.61-.64a.56.56,0,0,1,.61.64v1.87h1.56v-1.87a.56.56,0,0,1,.61-.64c.41,0,.61.22.61.64v4.82c0,.43-.2.64-.61.64s-.61-.21-.61-.64Z"/><path class="cls-3" d="M221.17,107l-.71,2,3.27,2.17c.4.27.48.57.26.9s-.53.35-.93.08l-3-1.95-.64,1.82c-.17.47-.45.65-.85.53s-.54-.44-.38-.93l1.76-5c.17-.5.46-.67.88-.52S221.32,106.57,221.17,107Zm4.88,8.59a2.06,2.06,0,0,1-.64,1.54,2.26,2.26,0,0,1-1.6.62,2.17,2.17,0,0,1-1.56-.62,2.18,2.18,0,0,1,0-3.09,2.13,2.13,0,0,1,1.56-.62,2.22,2.22,0,0,1,1.6.62A2.07,2.07,0,0,1,226.05,115.6Zm-1.21,0a1,1,0,0,0-1-1,.93.93,0,0,0-.7.29,1,1,0,0,0-.29.73,1,1,0,0,0,.29.71.94.94,0,0,0,.7.3,1,1,0,0,0,.73-.3A.94.94,0,0,0,224.84,115.6Zm.53-3.52V106.8a.56.56,0,0,1,.62-.64c.41,0,.61.22.61.64v1.78H228c.43,0,.64.2.64.59s-.21.61-.64.61H226.6v2.3c0,.43-.2.64-.61.64A.56.56,0,0,1,225.37,112.08Z"/><path class="cls-3" d="M230.44,111.67h8.26q.63,0,.63.57c0,.4-.21.59-.63.59h-8.26c-.43,0-.64-.19-.64-.59S230,111.67,230.44,111.67Zm7.53,8.11-5.15.16c-.4,0-.61-.17-.62-.53l-.08-2.26c0-.4.19-.61.64-.64l3.41-.11,0-1.34h-3.81c-.42,0-.64-.19-.64-.56s.22-.54.64-.54h4.39a.61.61,0,0,1,.69.7v2.21a.54.54,0,0,1-.6.59l-3.45.09v1.22l4.56-.1c.42,0,.63.17.64.53S238.39,119.77,238,119.78Zm-.89-11.52a2.23,2.23,0,0,1-.72,1.67,2.46,2.46,0,0,1-1.76.7,2.39,2.39,0,0,1-1.73-.7,2.25,2.25,0,0,1-.7-1.67,2.32,2.32,0,0,1,.7-1.71,2.36,2.36,0,0,1,1.73-.71,2.43,2.43,0,0,1,1.76.71A2.3,2.3,0,0,1,237.08,108.26Zm-1.22,0A1.28,1.28,0,0,0,234.6,107a1.16,1.16,0,0,0-.86.38,1.25,1.25,0,0,0-.36.89,1.14,1.14,0,0,0,.36.85,1.18,1.18,0,0,0,.86.36,1.25,1.25,0,0,0,.89-.36A1.11,1.11,0,0,0,235.86,108.26Z"/><path class="cls-3" d="M246.73,108.19l3,0v-1c0-.43.2-.64.6-.64s.61.21.61.64v.51h2.26v-.85a.56.56,0,0,1,.62-.64c.41,0,.61.22.61.64v5.79c0,.43-.2.64-.61.64a.56.56,0,0,1-.62-.64V111h-2.23v.59a.53.53,0,0,1-.6.61h-4.18a.55.55,0,0,1-.61-.63l0-4.4a.55.55,0,0,1,.6-.65.54.54,0,0,1,.62.61Zm3,1.12-3,0,0,1.67h3Zm4.24,8.07-4.51.09a.71.71,0,0,1-.85-.78l-.06-2.69a.63.63,0,1,1,1.25,0l0,2.31,4.08,0c.41,0,.62.17.63.56S254.34,117.37,253.94,117.38Zm-3-8.61v1.09h2.24v-1.09Z"/><path class="cls-3" d="M260.76,106v1.58h1.58c.43,0,.64.19.64.56s-.21.57-.64.57h-.54a2.16,2.16,0,0,1,0,3.14,2.52,2.52,0,0,1-3.36,0,2.16,2.16,0,0,1,0-3.14h-.69c-.43,0-.64-.19-.64-.57s.21-.56.64-.56h1.82V106c0-.43.21-.65.62-.65A.57.57,0,0,1,260.76,106Zm.48,4.19a1.2,1.2,0,0,0-.32-.84,1.08,1.08,0,0,0-.83-.35,1.12,1.12,0,0,0-.84.35,1.2,1.2,0,0,0-.32.84,1.18,1.18,0,0,0,.32.83,1.14,1.14,0,0,0,.84.33,1.1,1.1,0,0,0,.83-.33A1.18,1.18,0,0,0,261.24,110.15ZM266,115.6a2.07,2.07,0,0,1-.65,1.54,2.22,2.22,0,0,1-1.59.62,2.17,2.17,0,0,1-1.57-.62,2.18,2.18,0,0,1,0-3.09,2.13,2.13,0,0,1,1.57-.62,2.18,2.18,0,0,1,1.59.62A2.08,2.08,0,0,1,266,115.6Zm-1.22,0a1,1,0,0,0-1-1,.94.94,0,0,0-.71.29,1,1,0,0,0-.29.73,1,1,0,0,0,.29.71.94.94,0,0,0,.71.3,1,1,0,0,0,.73-.3A1,1,0,0,0,264.79,115.6Zm.53-3.52v-.62h-1.59c-.42,0-.64-.19-.64-.56s.22-.55.64-.55h1.59v-.76h-1.59c-.42,0-.64-.19-.64-.56s.22-.55.64-.55h1.59V106.8a.56.56,0,0,1,.62-.64c.41,0,.61.22.61.64v5.28c0,.43-.2.64-.61.64A.56.56,0,0,1,265.32,112.08Z"/><path class="cls-3" d="M272.28,107.57v2.14h1.41c.42,0,.64.2.64.58s-.22.59-.64.59h-4.31c-.42,0-.64-.19-.64-.59s.22-.58.64-.58H271v-2.14a.63.63,0,1,1,1.25,0Zm1.65,6.48a2.18,2.18,0,0,1-.68,1.67,2.45,2.45,0,0,1-3.28,0,2.15,2.15,0,0,1-.68-1.67,2.19,2.19,0,0,1,.68-1.68,2.42,2.42,0,0,1,3.28,0A2.22,2.22,0,0,1,273.93,114.05Zm-1.22,0a1.16,1.16,0,0,0-.31-.83,1,1,0,0,0-.79-.34,1,1,0,0,0-.8.34,1.27,1.27,0,0,0,0,1.66,1.09,1.09,0,0,0,.8.32,1.07,1.07,0,0,0,.79-.32A1.16,1.16,0,0,0,272.71,114.05Zm5.5.94v-2.32h-1.55v2.2a.56.56,0,0,1-.62.64c-.4,0-.59-.22-.59-.64v-5.56c0-.42.19-.64.59-.64a.56.56,0,0,1,.62.64v2.2h1.55v-2.32c0-.43.2-.64.6-.64a.56.56,0,0,1,.62.64V115a.56.56,0,0,1-.62.64C278.41,115.63,278.21,115.42,278.21,115Z"/><path class="cls-3" d="M289,110.34l-.75,2.21,3.32,2.24c.4.26.48.56.26.89s-.53.35-.93.08l-3-2-.64,1.87c-.17.47-.46.65-.85.53s-.55-.43-.39-.93l1.78-5.23c.17-.5.46-.67.88-.53A.6.6,0,0,1,289,110.34Zm5.79-.93.1,6.14a.57.57,0,0,1-.63.66c-.4,0-.61-.2-.62-.62l0-2.5h-2.44c-.42,0-.64-.2-.64-.59s.22-.58.64-.58h2.4l0-2.49a.55.55,0,0,1,.63-.64A.55.55,0,0,1,294.79,109.41Z"/><path class="cls-3" d="M306.26,115.41c.43,0,.64.2.64.59s-.21.61-.64.61H298c-.43,0-.64-.2-.64-.61s.21-.59.64-.59Zm-6.05-6.11,3.38,0,0-1a.56.56,0,0,1,.61-.64c.41,0,.61.22.61.64l0,4.45a.54.54,0,0,1-.61.61h-4.57c-.41,0-.61-.21-.61-.63l0-4.41c0-.43.19-.65.59-.66a.55.55,0,0,1,.63.61Zm3.38,1.12-3.36,0,0,1.68h3.36Z"/><path class="cls-3" d="M309.3,106.5l3.47,0q1,0,.84,1l-.47,3.59a.56.56,0,0,1-.69.56.57.57,0,0,1-.56-.71l.15-1.1-2.59,0c-.43,0-.64-.19-.64-.57s.21-.56.64-.56l2.72,0,.14-1.09-3,0c-.43,0-.64-.22-.62-.61S308.88,106.49,309.3,106.5Zm7.87,12.19-4.43.16c-.44,0-.66-.15-.69-.53l-.17-2.27a.54.54,0,0,1,.56-.66l3.13-.11.07-1.34h-3.46c-.41,0-.62-.19-.62-.58s.21-.56.64-.56h4.05c.48,0,.7.24.67.72l-.21,2.37c0,.3-.23.45-.59.46l-3,.1.09,1.26,4-.14c.44,0,.68.17.7.53S317.63,118.67,317.17,118.69Zm-.56-7.47,0-1.76h-1.9c-.43,0-.64-.19-.64-.58s.21-.57.64-.57h1.87l0-1.68a.56.56,0,0,1,.62-.64c.41,0,.61.21.61.64l.1,4.59c0,.43-.21.64-.61.64A.56.56,0,0,1,316.61,111.22Z"/><path class="cls-3" d="M326.42,115.52l-4.4.15c-.43,0-.65-.14-.69-.48l-.17-2.79a.56.56,0,0,1,.59-.69l3-.11v-1.77h-3.29c-.43,0-.64-.2-.64-.58s.21-.56.64-.56h3.74c.51,0,.77.24.77.7l0,2.84c0,.3-.2.46-.59.48l-3,.09.09,1.7,3.92-.1c.43,0,.65.18.66.56S326.84,115.51,326.42,115.52Zm3.41-6.11.1,6.14a.57.57,0,0,1-.63.66c-.4,0-.61-.2-.62-.62l-.05-3h-1.49c-.43,0-.64-.2-.64-.58s.21-.58.64-.58h1.47l0-2a.55.55,0,0,1,.63-.64A.55.55,0,0,1,329.83,109.41Z"/><path class="cls-3" d="M339.75,113.31l-1.75.07v2.22h3.3c.43,0,.64.2.64.59s-.21.61-.64.61H333c-.43,0-.64-.2-.64-.61s.21-.59.64-.59h3.76v-2.19l-1.88.06c-.4,0-.61-.16-.62-.52l-.08-2.34c0-.43.19-.65.64-.67l3.41-.11,0-1.32h-3.8c-.43,0-.65-.19-.65-.57s.22-.56.65-.56h4.38a.61.61,0,0,1,.69.7v2.24a.54.54,0,0,1-.6.61l-3.45.1,0,1.28,4.27-.1c.41,0,.63.17.64.54S340.17,113.3,339.75,113.31Z"/><path class="cls-3" d="M350.53,110.34l-.75,2.21,3.33,2.24c.39.26.48.56.26.89s-.54.35-.93.08l-3.06-2-.64,1.87c-.17.47-.45.65-.85.53s-.54-.43-.38-.93l1.78-5.23c.17-.5.46-.67.88-.53S350.68,109.9,350.53,110.34Zm5.35-.93,0,2h1.79c.43,0,.64.2.64.59s-.21.61-.64.61h-1.77l0,2.89a.56.56,0,0,1-.62.66c-.41,0-.61-.2-.62-.62l-.1-6.16a.63.63,0,1,1,1.25,0Z"/><path class="cls-3" d="M366.55,108.29a2.29,2.29,0,0,1-.72,1.74,2.12,2.12,0,0,1-.24.2.53.53,0,0,1,.58.6v1.91h1.95c.42,0,.64.2.64.59s-.22.61-.64.61h-8.26c-.43,0-.64-.2-.64-.61s.21-.59.64-.59h2.05v-1.91a.53.53,0,0,1,.57-.6,2,2,0,0,1-.22-.2,2.29,2.29,0,0,1-.72-1.74,2.33,2.33,0,0,1,.72-1.75,2.44,2.44,0,0,1,1.78-.7,2.47,2.47,0,0,1,1.78.7A2.3,2.3,0,0,1,366.55,108.29Zm.09,9a2.05,2.05,0,0,1-.19.88,2.51,2.51,0,0,1-.51.74,2.48,2.48,0,0,1-.74.48,2.18,2.18,0,0,1-.91.19,2,2,0,0,1-.89-.19,2.48,2.48,0,0,1-.74-.48,2.71,2.71,0,0,1-.51-.74,2.13,2.13,0,0,1,0-1.76,2.71,2.71,0,0,1,.51-.74,2.48,2.48,0,0,1,.74-.48,2,2,0,0,1,.89-.19,2.18,2.18,0,0,1,.91.19,2.48,2.48,0,0,1,.74.48,2.51,2.51,0,0,1,.51.74A2.05,2.05,0,0,1,366.64,117.25Zm-1.31-9a1.25,1.25,0,0,0-.37-.92A1.23,1.23,0,0,0,364,107a1.21,1.21,0,0,0-.92.38,1.28,1.28,0,0,0-.36.92,1.24,1.24,0,0,0,.36.91,1.21,1.21,0,0,0,.92.37,1.26,1.26,0,0,0,1.29-1.28Zm-.33,2.27a3,3,0,0,1-1.92,0,.77.77,0,0,1,0,.27v1.91H365v-1.91A.59.59,0,0,1,365,110.56Zm.41,6.69a1.12,1.12,0,0,0-.31-.8,1.08,1.08,0,0,0-.81-.34,1.06,1.06,0,0,0-.8.34,1.22,1.22,0,0,0,0,1.6,1.06,1.06,0,0,0,.8.34,1.08,1.08,0,0,0,.81-.34A1.12,1.12,0,0,0,365.41,117.25Z"/><path class="cls-3" d="M373.65,107.54v2.14h1.6c.43,0,.64.2.64.58s-.21.59-.64.59h-4.68c-.43,0-.64-.2-.64-.59s.21-.58.64-.58h1.84v-2.14c0-.43.2-.64.62-.64S373.65,107.11,373.65,107.54Zm1.73,6.49a2.22,2.22,0,0,1-.69,1.68,2.49,2.49,0,0,1-3.42,0,2.38,2.38,0,0,1,0-3.35,2.55,2.55,0,0,1,3.42,0A2.23,2.23,0,0,1,375.38,114Zm-1.21,0a1.19,1.19,0,1,0-2,.86,1.26,1.26,0,0,0,1.68,0A1.15,1.15,0,0,0,374.17,114.05Zm3.37.94v-5.8a.63.63,0,1,1,1.25,0v1.87h1.79c.43,0,.64.2.64.59s-.21.61-.64.61h-1.79V115a.63.63,0,1,1-1.25,0Z"/><path class="cls-3" d="M387.91,109.59a2.38,2.38,0,0,1-.73,1.77,2.69,2.69,0,0,1-3.66,0,2.38,2.38,0,0,1-.73-1.77,2.42,2.42,0,0,1,.73-1.79,2.66,2.66,0,0,1,3.66,0A2.42,2.42,0,0,1,387.91,109.59Zm-1.2,0a1.35,1.35,0,0,0-.38-1,1.33,1.33,0,0,0-1-.38,1.29,1.29,0,0,0-1,.38,1.34,1.34,0,0,0-.37,1,1.28,1.28,0,0,0,1.34,1.34,1.33,1.33,0,0,0,1-.38A1.3,1.3,0,0,0,386.71,109.59Zm.67,6.92-1-.52-.75,1.21c-.29.46-.61.58-1,.37s-.37-.53-.09-1l1.9-3.08c.28-.46.6-.58,1-.36s.34.54.08,1L387,115l.95.5c.45.24.57.54.38.88S387.82,116.75,387.38,116.51Zm3.12-1.05,2.18,1.1c.46.24.6.53.43.88s-.5.43-1,.19l-2.27-1.16-.77,1.24q-.41.69-.93.39c-.36-.19-.4-.52-.13-1l2.15-3.49c.27-.46.6-.58,1-.35s.35.54.08,1Zm.19-3.67v-.56h-1.85c-.41,0-.61-.18-.61-.56s.2-.56.61-.56h1.85v-1h-1.85c-.41,0-.61-.19-.61-.56s.2-.56.61-.56h1.85V106.8a.56.56,0,0,1,.63-.64.56.56,0,0,1,.61.64v5c0,.43-.21.64-.61.64A.56.56,0,0,1,390.69,111.79Z"/><path class="cls-3" d="M394.9,112.32h8.26c.42,0,.64.2.64.6s-.22.6-.64.6H394.9c-.43,0-.64-.2-.64-.6S394.47,112.32,394.9,112.32Zm4.48-6.57-.5,1.2,3.78,2.09c.44.26.56.55.37.88s-.53.39-1,.13l-3.62-2-1.05,2.56c-.21.49-.51.67-.9.53s-.48-.45-.27-1l2-4.86c.19-.46.47-.62.85-.48S399.55,105.3,399.38,105.75ZM397.65,116l3.25,0v-.61c0-.43.2-.64.61-.64s.58.21.59.64l0,3.41a.53.53,0,0,1-.61.6l-4.43,0a.54.54,0,0,1-.6-.62l-.05-3.4c0-.42.18-.64.59-.65s.6.19.61.61Zm3.27,1.06-3.25,0v1.12h3.25Z"/><path class="cls-3" d="M406,110.51a.56.56,0,0,1,.61-.65.55.55,0,0,1,.64.61l.08,4,3.5-.07a.55.55,0,0,1,.63.58c0,.38-.18.58-.58.59l-3.93.08a.73.73,0,0,1-.85-.78Zm8.71-1.1.09,6.14a.56.56,0,0,1-.62.66c-.41,0-.61-.2-.63-.62l-.09-6.16a.63.63,0,1,1,1.25,0Z"/><path class="cls-3" d="M422.71,115.63l-4.27.07c-.46,0-.7-.19-.71-.61l-.08-4.48a.61.61,0,0,1,.69-.7l3.84,0c.43,0,.64.19.64.57s-.21.59-.62.59l-3.28,0,0,3.44,3.68,0c.43,0,.65.19.66.56S423.11,115.62,422.71,115.63Zm3.25-6.22,0,2h1.79c.43,0,.64.2.64.59s-.21.61-.64.61H426l.05,2.89a.56.56,0,0,1-.62.66c-.41,0-.61-.2-.63-.62l-.09-6.16a.63.63,0,1,1,1.25,0Z"/><path class="cls-3" d="M431.41,115.81a.88.88,0,0,1-.29.66,1.05,1.05,0,0,1-1.43,0,.9.9,0,0,1,0-1.32,1.05,1.05,0,0,1,1.43,0A.88.88,0,0,1,431.41,115.81Z"/><path class="cls-3" d="M186.77,133.75l-2.51,0,0,1.27,3.47-.05c.43,0,.65.18.66.58s-.19.58-.6.59l-3.9.08a.73.73,0,0,1-.85-.79L183,131a.62.62,0,0,1,.69-.7l3.36,0c.43,0,.64.19.64.56s-.21.56-.62.57l-2.82.05,0,1.22,2.49,0q.66,0,.66.54C187.4,133.54,187.19,133.74,186.77,133.75Zm4.26,7.42-.08-2.5h-4c-.43,0-.64-.19-.64-.59s.21-.57.64-.57h4.43a.7.7,0,0,1,.8.75l.08,2.88a.54.54,0,0,1-.59.62A.56.56,0,0,1,191,141.17Zm-1.57-5.7v-1.92h-1c-.43,0-.64-.19-.64-.57s.21-.56.64-.56h1v-1.7a.56.56,0,0,1,.61-.64c.41,0,.61.22.61.64v4.75c0,.43-.2.64-.61.64S189.46,135.9,189.46,135.47Zm2.43.07v-4.82a.56.56,0,0,1,.61-.64c.41,0,.61.22.61.64v4.82c0,.43-.2.64-.61.64S191.89,136,191.89,135.54Z"/><path class="cls-3" d="M203.77,139.41c.42,0,.64.2.64.59s-.22.61-.64.61h-8.31c-.42,0-.64-.2-.64-.61s.22-.59.64-.59Zm-4.5-6,4,2.37c.44.26.55.56.35.9s-.53.38-1,.11l-3.88-2.27-1.12,2.83c-.19.49-.48.67-.88.53s-.48-.46-.28-1l2.19-5.47c.19-.46.47-.62.85-.48s.47.45.3.9Z"/><path class="cls-3" d="M214.49,139.6c.42,0,.64.2.64.59s-.22.61-.64.61h-8.31c-.42,0-.64-.2-.64-.61s.22-.59.64-.59ZM212.2,135l-3.67.05,0,1.31,4.34-.05c.42,0,.64.19.65.57s-.18.59-.59.6l-4.77.08c-.55,0-.84-.25-.85-.78l-.08-4.72c0-.46.22-.69.69-.71l4.32,0c.42,0,.63.18.64.55s-.19.57-.62.57l-3.78.05,0,1.44,3.65,0c.43,0,.65.18.65.54S212.61,135,212.2,135Z"/><path class="cls-3" d="M217.13,134l3.36,0c.64,0,.91.37.83,1.06l-.61,4.49a.63.63,0,0,1-1.25-.17l.56-4.21-2.93,0c-.42,0-.63-.21-.62-.61S216.7,133.94,217.13,134Zm7.88-.55,0,2.05h1.79c.42,0,.64.2.64.59s-.22.61-.64.61h-1.78l.05,2.89a.57.57,0,0,1-.62.66.55.55,0,0,1-.63-.62l-.09-6.16a.62.62,0,1,1,1.24,0Z"/><path class="cls-3" d="M236.25,133.14l2.4,1.49q.57.36.27.84t-.9.15l-2.46-1.54L234.18,136a.58.58,0,0,1-.88.19c-.32-.21-.35-.5-.11-.85l2.9-4-2.84,0c-.42,0-.64-.19-.64-.58s.22-.55.64-.56l3.43-.06c.48,0,.78.13.91.38a.77.77,0,0,1-.1.85Zm4.56,9.55-4.36.16c-.43,0-.66-.15-.68-.53l-.18-2.27a.54.54,0,0,1,.56-.66l3.06-.11.06-1.34h-3.38c-.41,0-.62-.19-.62-.58s.21-.56.64-.56h4c.48,0,.7.24.67.72l-.21,2.37c0,.3-.23.45-.59.46l-3,.1.1,1.26,3.87-.14c.45,0,.68.17.7.53S241.26,142.67,240.81,142.69Zm-.68-7.36v-4.8a.56.56,0,0,1,.63-.64c.4,0,.61.21.61.64v1.78l1.47.06a.55.55,0,0,1,.59.62.53.53,0,0,1-.62.58l-1.44-.06v1.82c0,.43-.21.64-.61.64A.56.56,0,0,1,240.13,135.33Z"/><path class="cls-3" d="M254.31,133.3a2.3,2.3,0,0,1-.71,1.69,2.43,2.43,0,0,1-1.75.69,2.37,2.37,0,0,1-1.73-.69,2.38,2.38,0,0,1,0-3.39,2.34,2.34,0,0,1,1.73-.7,2.4,2.4,0,0,1,1.75.7A2.33,2.33,0,0,1,254.31,133.3Zm-1.2,0a1.26,1.26,0,0,0-1.25-1.25,1.16,1.16,0,0,0-.87.37,1.21,1.21,0,0,0-.36.88,1.23,1.23,0,0,0,1.23,1.23,1.21,1.21,0,0,0,.88-.36A1.16,1.16,0,0,0,253.11,133.3Zm1.9,9.13-2.94.08c-.44,0-.67-.15-.69-.52l-.17-2.29a.53.53,0,0,1,.56-.66l1.66-.08,0-1-1.94,0c-.42,0-.62-.19-.62-.57s.21-.56.64-.56h2.4a.63.63,0,0,1,.67.72l0,2c0,.32-.21.48-.59.49l-1.55.07.09,1.28,2.47-.07c.44,0,.68.17.7.53S255.47,142.41,255,142.43Zm.74-4.16c-.43,0-.64-.18-.64-.57s.21-.55.62-.56l2.07,0c.49,0,.73.27.73.8l0,2.8c0,.43-.19.64-.57.64s-.58-.21-.58-.64l0-2.45Zm1.5-3.05-.09-4.59a.56.56,0,0,1,.62-.64c.41,0,.61.21.61.64l.1,4.59c0,.43-.21.64-.61.64A.56.56,0,0,1,257.25,135.22Z"/><path class="cls-3" d="M264.9,131.54v2.14h1.6c.43,0,.64.2.64.58s-.21.59-.64.59h-4.69c-.42,0-.64-.2-.64-.59s.22-.58.64-.58h1.84v-2.14a.63.63,0,1,1,1.25,0Zm1.73,6.49a2.22,2.22,0,0,1-.69,1.68,2.49,2.49,0,0,1-3.42,0,2.38,2.38,0,0,1,0-3.35,2.55,2.55,0,0,1,3.42,0A2.23,2.23,0,0,1,266.63,138Zm-1.22,0a1.18,1.18,0,1,0-2,.86,1.26,1.26,0,0,0,1.68,0A1.14,1.14,0,0,0,265.41,138.05Zm3.86.94v-5.8a.63.63,0,1,1,1.25,0V139a.63.63,0,1,1-1.25,0Z"/><path class="cls-3" d="M281.94,139.41c.43,0,.64.2.64.59s-.21.61-.64.61h-8.3c-.43,0-.64-.2-.64-.61s.21-.59.64-.59h2.8v-3.09a.63.63,0,1,1,1.25,0v3.09ZM275,132h4.79c.54,0,.79.27.75.83l-.32,3.8c0,.44-.25.64-.66.61s-.59-.27-.56-.72l.24-3.36H275c-.43,0-.64-.19-.64-.59S274.55,132,275,132Z"/><path class="cls-3" d="M288.41,136.32h2.73v-1.44a.56.56,0,0,1,.63-.64c.4,0,.6.22.6.64v1.44h4.28c.42,0,.64.2.64.6s-.22.6-.64.6h-8.24c-.43,0-.64-.2-.64-.6S288,136.32,288.41,136.32Zm1.64-3.74,3.72,0,.08-1h-4c-.42,0-.64-.19-.64-.59s.22-.58.64-.58h4.5q.81,0,.75.84l-.29,3.4c0,.44-.25.64-.65.61s-.59-.27-.56-.72l.06-.8-3.65,0c-.42,0-.64-.19-.64-.56S289.63,132.59,290.05,132.58Zm0,6.53a.56.56,0,0,1,.61-.66.55.55,0,0,1,.64.61l.05,2.43,4-.08a.54.54,0,0,1,.62.58.51.51,0,0,1-.57.59l-4.44.09a.73.73,0,0,1-.85-.78Z"/><path class="cls-3" d="M302.6,133.75l-2.51,0v1.27l3.47-.05c.43,0,.65.18.66.58s-.19.58-.59.59l-3.91.08a.72.72,0,0,1-.84-.79l-.08-4.48a.61.61,0,0,1,.68-.7l3.36,0c.43,0,.64.19.64.56s-.2.56-.62.57l-2.82.05,0,1.22,2.5,0c.43,0,.65.18.65.54S303,133.74,302.6,133.75Zm5.52,7.63-4.67.09a.71.71,0,0,1-.85-.78l-.07-2.69a.56.56,0,0,1,.61-.65.55.55,0,0,1,.64.61l.05,2.31,4.24,0c.41,0,.61.17.62.56A.51.51,0,0,1,308.12,141.38Zm-3.81-9h1v-1.7c0-.42.2-.64.6-.64s.61.22.61.64v5.47c0,.43-.2.64-.61.64s-.6-.21-.6-.64v-2.64h-1c-.43,0-.64-.19-.64-.57S303.88,132.42,304.31,132.42Zm3.41,3.92v-5.62c0-.42.2-.64.61-.64s.6.22.6.64v5.62c0,.43-.2.64-.6.64S307.72,136.77,307.72,136.34Z"/><path class="cls-3" d="M319.59,139.6c.43,0,.64.2.64.59s-.21.61-.64.61h-8.3c-.43,0-.64-.2-.64-.61s.21-.59.64-.59Zm-4.13-9.17v1.68h1.67a.73.73,0,0,1,.52,1.32L316.1,135l2.47,1.31c.41.22.53.5.36.83s-.48.41-.89.21l-2.82-1.47-1.6,1.58c-.36.37-.7.42-1,.14s-.26-.58.13-1l3.32-3.31h-3.8c-.43,0-.64-.19-.64-.57s.21-.57.64-.58h2v-1.7a.63.63,0,1,1,1.25,0Z"/><path class="cls-3" d="M322.23,134l3.36,0c.64,0,.92.37.83,1.06l-.61,4.49a.63.63,0,0,1-1.24-.17l.56-4.21-2.93,0c-.43,0-.64-.21-.63-.61S321.8,133.94,322.23,134Zm7.89-.55,0,2.05h1.79c.43,0,.64.2.64.59s-.21.61-.64.61h-1.77l0,2.89a.56.56,0,0,1-.62.66c-.41,0-.61-.2-.62-.62l-.1-6.16a.63.63,0,1,1,1.25,0Z"/><path class="cls-3" d="M341.35,133.14l2.4,1.49q.57.36.27.84c-.2.32-.5.37-.89.15l-2.47-1.54L339.29,136a.58.58,0,0,1-.88.19c-.32-.21-.36-.5-.12-.85l2.9-4-2.83,0c-.43,0-.64-.19-.64-.58s.21-.55.64-.56l3.42-.06c.48,0,.79.13.91.38a.79.79,0,0,1-.09.85Zm4.56,9.55-4.35.16c-.44,0-.67-.15-.69-.53l-.18-2.27a.54.54,0,0,1,.56-.66l3.06-.11.06-1.34H341c-.42,0-.63-.19-.63-.58s.22-.56.64-.56h4c.48,0,.71.24.67.72l-.2,2.37c0,.3-.23.45-.6.46l-3,.1.1,1.26,3.87-.14c.45,0,.68.17.71.53S346.37,142.67,345.91,142.69Zm-.67-7.36v-4.8a.56.56,0,0,1,.62-.64c.41,0,.61.21.61.64v1.78l1.47.06a.54.54,0,0,1,.59.62.53.53,0,0,1-.62.58l-1.44-.06v1.82c0,.43-.2.64-.61.64A.56.56,0,0,1,345.24,135.33Z"/><path class="cls-3" d="M352.63,133.23l3.37,0v-.95c0-.42.2-.64.61-.64a.56.56,0,0,1,.61.64l0,4.32a.54.54,0,0,1-.61.61h-1.25v2.24h3.3c.42,0,.64.2.64.59s-.22.61-.64.61h-8.31c-.42,0-.64-.2-.64-.61s.22-.59.64-.59h3.76v-2.24h-2.08a.54.54,0,0,1-.6-.62l-.05-4.29c0-.43.18-.65.59-.66a.54.54,0,0,1,.62.61Zm3.37,1.12-3.35.05V136H356Z"/><path class="cls-3" d="M366.26,136.61a2.45,2.45,0,0,1-.74,1.79,2.68,2.68,0,0,1-3.7,0,2.45,2.45,0,0,1-.74-1.79,2.59,2.59,0,0,1,5.18,0Zm-1.2,0a1.37,1.37,0,0,0-1.39-1.39,1.33,1.33,0,0,0-1,.4,1.37,1.37,0,0,0-.39,1,1.35,1.35,0,0,0,1.38,1.38,1.34,1.34,0,0,0,1-.4A1.29,1.29,0,0,0,365.06,136.61Zm5-3.2.1,6.14a.57.57,0,0,1-.62.66.55.55,0,0,1-.63-.62l-.09-6.16a.62.62,0,1,1,1.24,0Z"/><path class="cls-3" d="M379.89,136.92l-1.63,0v2.45h3.3c.42,0,.64.2.64.59s-.22.61-.64.61h-8.31c-.42,0-.64-.2-.64-.61s.22-.59.64-.59H377V137l-2.06.07c-.45,0-.68-.17-.7-.58l-.07-4a.62.62,0,0,1,.69-.7l4.24,0c.43,0,.64.19.64.57s-.21.6-.63.6l-3.67,0,0,2.9,4.35-.13c.43,0,.64.18.66.56S380.3,136.9,379.89,136.92Z"/><path class="cls-3" d="M390.73,134.93l-2.07.06v1.7h3.51c.42,0,.64.2.64.59s-.22.61-.64.61h-8.26c-.43,0-.64-.2-.64-.61s.21-.59.64-.59h3.5V135l-1.55.05c-.4,0-.61-.16-.62-.53l-.08-2.06c0-.43.19-.65.64-.67l3.41-.12,0-1h-3.81c-.42,0-.64-.19-.64-.58s.22-.56.64-.56h4.39a.62.62,0,0,1,.68.71v2a.53.53,0,0,1-.59.61l-3.45.1v1l4.27-.09c.42,0,.63.17.64.54S391.14,134.92,390.73,134.93Zm-.8,8.1-.08-2.44h-4c-.43,0-.64-.19-.64-.59s.21-.57.64-.57h4.41a.7.7,0,0,1,.8.75l.08,2.81a.54.54,0,0,1-.59.63A.56.56,0,0,1,389.93,143Z"/><path class="cls-3" d="M184.21,159.59l2.53-.05V158.4c0-.42.19-.64.59-.64a.56.56,0,0,1,.61.64l0,4.74a.54.54,0,0,1-.61.61h-3.7q-.6,0-.6-.63l-.05-4.7c0-.43.19-.65.59-.66a.55.55,0,0,1,.61.61Zm2.53,1.12-2.51,0,0,1.84h2.51Zm5.19,2.86v-2.64h-1.55v2.51c0,.43-.2.64-.61.64s-.61-.21-.61-.64l0-5.89a.55.55,0,0,1,.61-.63c.41,0,.61.21.61.63l0,2.21h1.55v-2.33c0-.43.2-.64.61-.64s.6.21.6.64v6.14c0,.43-.2.64-.6.64S191.93,164,191.93,163.57Z"/><path class="cls-3" d="M196.09,154.66l3.44.05c.64,0,.91.36.83,1l-.51,3.87a.63.63,0,1,1-1.25-.14l.46-3.61-3,0c-.42,0-.63-.22-.62-.61S195.66,154.65,196.09,154.66ZM204,163.6a2.07,2.07,0,0,1-.65,1.54,2.22,2.22,0,0,1-1.59.62,2.19,2.19,0,0,1-1.57-.62,2.18,2.18,0,0,1,0-3.09,2.15,2.15,0,0,1,1.57-.62,2.18,2.18,0,0,1,1.59.62A2.08,2.08,0,0,1,204,163.6Zm-1.22,0a1,1,0,0,0-1-1,1,1,0,0,0-.71.29,1,1,0,0,0-.28.73,1,1,0,0,0,1,1,1,1,0,0,0,.73-.3A1,1,0,0,0,202.82,163.6Zm.53-3.52V159h-1.82c-.43,0-.64-.19-.64-.56s.21-.56.64-.56h1.82v-1.09H201.5c-.43,0-.65-.19-.65-.56s.22-.56.65-.56h1.85v-.85a.56.56,0,0,1,.62-.64c.41,0,.61.22.61.64v5.28c0,.43-.2.64-.61.64A.56.56,0,0,1,203.35,160.08Z"/><path class="cls-3" d="M212.82,159.68a2.09,2.09,0,0,1-.69,1.59,2.46,2.46,0,0,1-.92.54v1.52h2.14c.43,0,.64.2.64.59s-.21.61-.64.61H207.8c-.43,0-.64-.2-.64-.61s.21-.59.64-.59H210v-1.45a2.23,2.23,0,0,1-1.2-.61,2.07,2.07,0,0,1-.71-1.59,2.14,2.14,0,0,1,.7-1.6,2.52,2.52,0,0,1,3.38,0A2.13,2.13,0,0,1,212.82,159.68Zm-1.71-5.39v1.41h1.65c.42,0,.64.19.64.57s-.22.6-.64.6H208c-.42,0-.64-.2-.64-.6s.22-.57.64-.57h1.89v-1.41a.63.63,0,1,1,1.25,0Zm.5,5.39a1,1,0,0,0-.33-.78,1.26,1.26,0,0,0-1.68,0,1.09,1.09,0,0,0,0,1.56,1.29,1.29,0,0,0,1.68,0A1,1,0,0,0,211.61,159.68Zm6,.9h-1.41v3.18c0,.43-.2.64-.62.64s-.62-.21-.62-.64V157a.62.62,0,1,1,1.24,0v2.39h1.41a.52.52,0,0,1,.59.59C218.21,160.38,218,160.58,217.62,160.58Z"/><path class="cls-3" d="M220.13,159.54l-.22-4.07c0-.52.16-.78.61-.78h4.09c.49,0,.74.27.74.8v.16h2.32v-.85a.56.56,0,0,1,.62-.64c.41,0,.61.22.61.64v5.79c0,.43-.2.64-.61.64a.56.56,0,0,1-.62-.64V159h-2.32v.49a.54.54,0,0,1-.61.61l-4.08,0C220.34,160.11,220.17,159.92,220.13,159.54Zm1-3.7.16,3.12,2.81,0v-3.09Zm7.29,9.54-4.51.09a.71.71,0,0,1-.85-.78L223,162a.63.63,0,1,1,1.25,0l.05,2.31,4.08,0c.4,0,.61.17.62.56S228.85,165.37,228.45,165.38Zm-3.1-8.61v1.09h2.32v-1.09Z"/><path class="cls-3" d="M231.88,159.67h8.25c.43,0,.64.19.64.57s-.21.59-.64.59h-8.25c-.43,0-.64-.19-.64-.59S231.45,159.67,231.88,159.67Zm7.53,8.11-5.15.16c-.4,0-.61-.17-.62-.53l-.08-2.26c0-.4.19-.61.64-.64l3.41-.11,0-1.34h-3.81c-.42,0-.64-.19-.64-.56s.22-.54.64-.54h4.39a.61.61,0,0,1,.68.7v2.21a.53.53,0,0,1-.59.59l-3.45.09v1.22l4.56-.1c.42,0,.63.17.64.53S239.83,167.77,239.41,167.78Zm-.89-11.52a2.23,2.23,0,0,1-.72,1.67,2.46,2.46,0,0,1-1.76.7,2.39,2.39,0,0,1-1.73-.7,2.25,2.25,0,0,1-.7-1.67,2.32,2.32,0,0,1,.7-1.71,2.36,2.36,0,0,1,1.73-.71,2.43,2.43,0,0,1,1.76.71A2.3,2.3,0,0,1,238.52,156.26Zm-1.22,0A1.28,1.28,0,0,0,236,155a1.16,1.16,0,0,0-.86.38,1.25,1.25,0,0,0-.36.89,1.14,1.14,0,0,0,.36.85,1.18,1.18,0,0,0,.86.36,1.25,1.25,0,0,0,.89-.36A1.11,1.11,0,0,0,237.3,156.26Z"/><path class="cls-3" d="M251.91,159.68a2.09,2.09,0,0,1-.69,1.59,2.58,2.58,0,0,1-.93.54v1.52h2.15c.42,0,.64.2.64.59s-.22.61-.64.61h-5.55c-.43,0-.64-.2-.64-.61s.21-.59.64-.59h2.16v-1.45a2.23,2.23,0,0,1-1.2-.61,2.07,2.07,0,0,1-.71-1.59,2.1,2.1,0,0,1,.7-1.6,2.51,2.51,0,0,1,3.37,0A2.1,2.1,0,0,1,251.91,159.68Zm-1.71-5.39v1.41h1.65c.42,0,.64.19.64.57s-.22.6-.64.6h-4.79c-.43,0-.64-.2-.64-.6s.21-.57.64-.57H249v-1.41a.63.63,0,1,1,1.25,0Zm.49,5.39a1.06,1.06,0,0,0-.32-.78,1.17,1.17,0,0,0-.84-.32,1.14,1.14,0,0,0-.84.32,1.09,1.09,0,0,0,0,1.56,1.13,1.13,0,0,0,.84.31,1.16,1.16,0,0,0,.84-.31A1.06,1.06,0,0,0,250.69,159.68Zm6,.9H255.3v3.18a.63.63,0,1,1-1.25,0V157a.63.63,0,1,1,1.25,0v2.39h1.41a.52.52,0,0,1,.59.59A.53.53,0,0,1,256.71,160.58Z"/><path class="cls-3" d="M264,160.61a2.42,2.42,0,0,1-.75,1.79,2.67,2.67,0,0,1-3.69,0,2.42,2.42,0,0,1-.75-1.79,2.6,2.6,0,0,1,5.19,0Zm-1.2,0a1.37,1.37,0,0,0-1.39-1.39,1.31,1.31,0,0,0-1,.4,1.37,1.37,0,0,0-.39,1,1.35,1.35,0,0,0,1.38,1.38,1.34,1.34,0,0,0,1-.4A1.29,1.29,0,0,0,262.84,160.61Zm5-3.2.1,6.14a.57.57,0,0,1-.63.66c-.4,0-.61-.2-.62-.62l-.1-6.16a.55.55,0,0,1,.63-.64A.55.55,0,0,1,267.86,157.41Z"/><path class="cls-3" d="M279.33,163.6c.43,0,.64.2.64.59s-.21.61-.64.61H271c-.43,0-.64-.2-.64-.61s.21-.59.64-.59ZM277.05,159l-3.67.05,0,1.31,4.33-.05q.64,0,.66.57a.53.53,0,0,1-.59.6l-4.77.08c-.55,0-.84-.25-.85-.78l-.08-4.72c0-.46.22-.69.69-.71l4.32,0c.42,0,.63.18.64.55s-.2.57-.62.57l-3.78.05,0,1.44,3.64,0q.66,0,.66.54C277.67,158.85,277.46,159,277.05,159Z"/><path class="cls-3" d="M286.42,154.5l3.47.05q1,0,.84,1l-.47,3.59a.56.56,0,0,1-.69.56A.57.57,0,0,1,289,159l.15-1.1-2.59,0c-.43,0-.64-.19-.64-.57s.21-.56.64-.56l2.72,0,.14-1.09-3,0c-.43,0-.64-.22-.62-.61S286,154.49,286.42,154.5Zm7.87,12.19-4.43.16c-.44,0-.66-.15-.69-.53l-.17-2.27a.54.54,0,0,1,.56-.66l3.13-.11.07-1.34H289.3c-.41,0-.62-.19-.62-.58s.21-.56.64-.56h4.05c.48,0,.7.24.67.72l-.21,2.37c0,.3-.23.45-.59.46l-3,.1.09,1.26,4-.14c.44,0,.68.17.7.53S294.75,166.67,294.29,166.69Zm-.56-7.47,0-1.76h-1.9c-.43,0-.64-.19-.64-.58s.21-.57.64-.57h1.87l0-1.68a.56.56,0,0,1,.62-.64c.41,0,.61.21.61.64l.1,4.59c0,.43-.21.64-.61.64A.56.56,0,0,1,293.73,159.22Z"/><path class="cls-3" d="M303.54,163.52l-4.4.15c-.43,0-.65-.14-.69-.48l-.17-2.79a.56.56,0,0,1,.59-.69l3-.11v-1.77h-3.29c-.43,0-.64-.2-.64-.58s.21-.56.64-.56h3.74c.51,0,.77.24.77.7l0,2.84c0,.3-.2.46-.59.48l-3,.09.09,1.7,3.92-.1c.43,0,.65.18.66.56S304,163.51,303.54,163.52Zm3.41-6.11.1,6.14a.57.57,0,0,1-.63.66c-.4,0-.61-.2-.62-.62l-.05-3h-1.49c-.43,0-.64-.2-.64-.58s.21-.58.64-.58h1.47l0-2a.55.55,0,0,1,.63-.64A.55.55,0,0,1,307,157.41Z"/><path class="cls-3" d="M316.87,161.31l-1.74.07v2.22h3.29c.43,0,.64.2.64.59s-.21.61-.64.61h-8.3c-.43,0-.64-.2-.64-.61s.21-.59.64-.59h3.76v-2.19l-1.87.06c-.41,0-.62-.16-.63-.52l-.08-2.34c0-.43.19-.65.64-.67l3.41-.11,0-1.32h-3.8c-.43,0-.64-.19-.64-.57s.21-.56.64-.56h4.38a.61.61,0,0,1,.69.7v2.24a.54.54,0,0,1-.59.61l-3.46.1,0,1.28,4.27-.1c.41,0,.63.17.64.54S317.29,161.3,316.87,161.31Z"/><path class="cls-3" d="M327.65,158.34l-.75,2.21,3.33,2.24c.39.26.48.56.26.89s-.54.35-.93.08l-3.06-2-.64,1.87c-.17.47-.45.65-.85.53s-.54-.43-.38-.93l1.78-5.23c.17-.5.46-.67.88-.53S327.8,157.9,327.65,158.34Zm5.35-.93,0,2.05h1.79c.43,0,.64.2.64.59s-.21.61-.64.61h-1.77l0,2.89a.56.56,0,0,1-.62.66c-.41,0-.61-.2-.62-.62l-.1-6.16a.63.63,0,1,1,1.25,0Z"/><path class="cls-3" d="M343.67,156.29A2.29,2.29,0,0,1,343,158a1.5,1.5,0,0,1-.24.2.53.53,0,0,1,.58.6v1.91h1.95c.42,0,.64.2.64.59s-.22.61-.64.61H337c-.42,0-.64-.2-.64-.61s.22-.59.64-.59h2v-1.91a.53.53,0,0,1,.58-.6,2.05,2.05,0,0,1-.23-.2,2.29,2.29,0,0,1-.72-1.74,2.33,2.33,0,0,1,.72-1.75,2.61,2.61,0,0,1,3.56,0A2.3,2.3,0,0,1,343.67,156.29Zm.1,9a2.06,2.06,0,0,1-.2.88,2.33,2.33,0,0,1-.51.74,2.48,2.48,0,0,1-.74.48,2.15,2.15,0,0,1-.91.19,2,2,0,0,1-.89-.19,2.62,2.62,0,0,1-.74-.48,2.71,2.71,0,0,1-.51-.74,2.13,2.13,0,0,1,0-1.76,2.71,2.71,0,0,1,.51-.74,2.62,2.62,0,0,1,.74-.48,2,2,0,0,1,.89-.19,2.15,2.15,0,0,1,.91.19,2.48,2.48,0,0,1,.74.48,2.33,2.33,0,0,1,.51.74A2.06,2.06,0,0,1,343.77,165.25Zm-1.32-9a1.28,1.28,0,0,0-.36-.92,1.27,1.27,0,0,0-.93-.38,1.21,1.21,0,0,0-.92.38,1.28,1.28,0,0,0-.36.92,1.24,1.24,0,0,0,.36.91,1.21,1.21,0,0,0,.92.37,1.26,1.26,0,0,0,.93-.37A1.24,1.24,0,0,0,342.45,156.29Zm-.33,2.27a3,3,0,0,1-1.92,0,.76.76,0,0,1,.05.27v1.91h1.82v-1.91A.76.76,0,0,1,342.12,158.56Zm.41,6.69a1.12,1.12,0,0,0-.31-.8,1.08,1.08,0,0,0-.81-.34,1.06,1.06,0,0,0-.8.34,1.22,1.22,0,0,0,0,1.6,1.06,1.06,0,0,0,.8.34,1.08,1.08,0,0,0,.81-.34A1.12,1.12,0,0,0,342.53,165.25Z"/><path class="cls-3" d="M350.47,154v1.61H352c.42,0,.64.19.64.56s-.22.58-.64.58h-.51a2.15,2.15,0,0,1,.62,1.53,2.08,2.08,0,0,1-.64,1.55,2.42,2.42,0,0,1-3.26,0,2.08,2.08,0,0,1-.64-1.55,2.11,2.11,0,0,1,.62-1.53h-.66c-.42,0-.64-.19-.64-.58s.22-.56.64-.56h1.73V154a.63.63,0,1,1,1.25,0Zm.4,4.19a1.19,1.19,0,0,0-.3-.83,1,1,0,0,0-.77-.32,1,1,0,0,0-.76.32,1.19,1.19,0,0,0-.3.83,1.13,1.13,0,0,0,.3.81,1,1,0,0,0,.76.32,1,1,0,0,0,.77-.32A1.13,1.13,0,0,0,350.87,158.18Zm1.57,6.33-1-.52-.75,1.21c-.29.46-.61.58-1,.37s-.38-.53-.1-1l1.91-3.08c.27-.46.6-.58,1-.36s.35.54.08,1l-.51.83.94.5c.45.24.58.54.39.88S352.88,164.75,352.44,164.51Zm3.12-1,2.17,1.1c.46.24.61.53.44.88s-.51.43-1,.19l-2.28-1.16-.76,1.24q-.41.69-.93.39c-.36-.19-.41-.52-.13-1l2.14-3.49c.28-.46.61-.58,1-.35s.35.54.08,1Zm.8-5.71h-1.57v1.72c0,.43-.2.64-.61.64s-.61-.21-.61-.64v-4.75a.56.56,0,0,1,.61-.64c.41,0,.61.22.61.64v1.87h1.57v-1.87c0-.42.2-.64.61-.64s.6.22.6.64v4.82c0,.43-.2.64-.6.64s-.61-.21-.61-.64Z"/><path class="cls-3" d="M359.86,160.32h8.26c.42,0,.64.2.64.6s-.22.6-.64.6h-8.26c-.43,0-.64-.2-.64-.6S359.43,160.32,359.86,160.32Zm4.48-6.57-.5,1.2,3.78,2.09c.44.26.56.55.37.88s-.53.39-1,.13l-3.62-2-1.05,2.56c-.21.49-.51.67-.9.53s-.48-.45-.27-.95l2-4.86c.19-.46.47-.62.85-.48S364.51,153.3,364.34,153.75ZM362.61,164l3.25,0v-.61c0-.43.2-.64.61-.64s.58.21.59.64l0,3.41a.53.53,0,0,1-.61.6l-4.43,0a.54.54,0,0,1-.6-.62l-.05-3.4c0-.42.18-.64.59-.65s.6.19.61.61Zm3.27,1.06-3.25,0v1.12h3.25Z"/><path class="cls-3" d="M370.93,158.51a.56.56,0,0,1,.61-.65.55.55,0,0,1,.64.61l.08,3.95,3.51-.07a.54.54,0,0,1,.62.58c0,.38-.18.58-.58.59l-3.93.08a.73.73,0,0,1-.85-.78Zm8.71-1.1.09,6.14a.56.56,0,0,1-.62.66c-.41,0-.61-.2-.62-.62l-.1-6.16a.63.63,0,1,1,1.25,0Z"/><path class="cls-3" d="M387.67,163.63l-4.27.07c-.46,0-.7-.19-.71-.61l-.08-4.48a.61.61,0,0,1,.69-.7l3.84,0c.43,0,.64.19.64.57s-.21.59-.62.59l-3.28.05.05,3.44,3.68-.05c.42,0,.64.19.65.56S388.08,163.62,387.67,163.63Zm3.25-6.22,0,2.05h1.79c.43,0,.64.2.64.59s-.21.61-.64.61H391l0,2.89a.56.56,0,0,1-.62.66c-.41,0-.61-.2-.62-.62l-.1-6.16a.63.63,0,1,1,1.25,0Z"/><path class="cls-3" d="M396.37,163.81a.88.88,0,0,1-.29.66,1.05,1.05,0,0,1-1.43,0,.9.9,0,0,1,0-1.32,1.05,1.05,0,0,1,1.43,0A.88.88,0,0,1,396.37,163.81Z"/><rect class="cls-4" x="0.44" y="117.69" width="40" height="40" rx="11.13"/><rect class="cls-5" x="50.44" y="117.69" width="40" height="40" rx="11.13"/><rect class="cls-6" x="100.44" y="117.69" width="40" height="40" rx="11.13"/><path class="cls-3" d="M1.5,170.8a.71.71,0,0,0,.08-.21s-.05,0-.12,0H.93a.35.35,0,0,1-.4-.4.44.44,0,0,1,.11-.3.37.37,0,0,1,.29-.12h.7a.26.26,0,0,0,.18,0,.52.52,0,0,0,.11-.23l.4-1.12c0-.12.06-.19,0-.22s-.08,0-.2,0H1.58c-.26,0-.4-.12-.4-.37a.48.48,0,0,1,.12-.33.34.34,0,0,1,.28-.13h.76a.75.75,0,0,0,.32-.05.46.46,0,0,0,.14-.26l.26-.77a.45.45,0,0,1,.46-.35.47.47,0,0,1,.32.14.21.21,0,0,1,.06.29l-.24.71a.63.63,0,0,0,0,.25s.09,0,.2,0h.9a.51.51,0,0,0,.24,0,.73.73,0,0,0,.11-.27l.26-.77a.46.46,0,0,1,.48-.35.35.35,0,0,1,.28.14.35.35,0,0,1,.07.29l-.22.72c-.05.14-.06.22,0,.24s.09,0,.2,0h.64a.44.44,0,0,1,.3.12.39.39,0,0,1,.13.29A.38.38,0,0,1,7,168a.42.42,0,0,1-.31.13H5.89c-.12,0-.19,0-.22,0a1.91,1.91,0,0,0-.12.28l-.37,1.13c0,.12,0,.19,0,.2H6.1a.44.44,0,0,1,.29.11.35.35,0,0,1,.12.28.41.41,0,0,1-.13.29.39.39,0,0,1-.3.14h-1c-.11,0-.18,0-.21,0a.62.62,0,0,0-.1.25,3.56,3.56,0,0,1-.1.36c0,.14-.09.28-.14.4a.44.44,0,0,1-.48.34.38.38,0,0,1-.32-.15.38.38,0,0,1,0-.36,2.48,2.48,0,0,0,.08-.27l.12-.37a1.37,1.37,0,0,0,.1-.23H2.75c-.12,0-.19,0-.23.05a.47.47,0,0,0-.12.22l-.22.78a.5.5,0,0,1-.48.34.43.43,0,0,1-.35-.15.32.32,0,0,1-.05-.34Zm1.33-1.27a.49.49,0,0,0,0,.2H4a.29.29,0,0,0,.17,0,.66.66,0,0,0,.1-.21l.37-1.12c0-.17,0-.26,0-.29H3.58c-.13,0-.22,0-.25,0a1.11,1.11,0,0,0-.15.29Z"/><path class="cls-3" d="M9.28,171.81a.91.91,0,0,1-.61-.24.8.8,0,0,1-.27-.64v-4.69a.76.76,0,0,1,.25-.6.79.79,0,0,1,.58-.23h1.51a2.22,2.22,0,0,1,1.32.4,1.34,1.34,0,0,1,.58,1.16,1.72,1.72,0,0,1-.17.75,1.26,1.26,0,0,1-.44.52,1.42,1.42,0,0,1,.74.58,2.09,2.09,0,0,1-.31,2.47,2,2,0,0,1-1.44.52ZM9.84,168h.93a.73.73,0,0,0,.61-.27,1,1,0,0,0,.2-.58.82.82,0,0,0-.2-.54.75.75,0,0,0-.61-.24H9.92c-.29,0-.43.14-.43.41v.85C9.49,167.88,9.6,168,9.84,168Zm.06,2.83H11a.87.87,0,0,0,.75-.31,1.16,1.16,0,0,0,.23-.68,1.1,1.1,0,0,0-.22-.64.81.81,0,0,0-.69-.31H9.84c-.24,0-.35.13-.35.37v1.16A.37.37,0,0,0,9.9,170.83Z"/><path class="cls-3" d="M13.92,168.65a4.43,4.43,0,0,1,.58-2.44,1.92,1.92,0,0,1,1.74-.88,1.92,1.92,0,0,1,1.74.88,5.34,5.34,0,0,1,0,4.86,1.9,1.9,0,0,1-1.73.9,2,2,0,0,1-1.75-.89A4.41,4.41,0,0,1,13.92,168.65Zm1.09,0a4.06,4.06,0,0,0,.28,1.72,1,1,0,0,0,.95.59,1,1,0,0,0,.94-.6,4.15,4.15,0,0,0,.29-1.71,4,4,0,0,0-.28-1.72,1.07,1.07,0,0,0-1.9,0A4.09,4.09,0,0,0,15,168.65Z"/><path class="cls-3" d="M24.69,171.46a2.68,2.68,0,0,1-.85.35,4.08,4.08,0,0,1-1.14.16,3.19,3.19,0,0,1-1.66-.44,3.07,3.07,0,0,1-1.17-1.2,3.77,3.77,0,0,1,0-3.48A3,3,0,0,1,21,165.67a3.62,3.62,0,0,1,1.77-.42,5.16,5.16,0,0,1,.79.06,3.89,3.89,0,0,1,.79.22.57.57,0,0,1,.24.22.68.68,0,0,1,.07.26.55.55,0,0,1-.14.37.44.44,0,0,1-.36.16.64.64,0,0,1-.22,0,3.59,3.59,0,0,0-.6-.18,3.23,3.23,0,0,0-.68-.08,1.92,1.92,0,0,0-1.12.33,2.26,2.26,0,0,0-.75.87,2.78,2.78,0,0,0-.26,1.2,2.48,2.48,0,0,0,.59,1.66,2,2,0,0,0,1.57.69,2.49,2.49,0,0,0,.85-.14,2,2,0,0,0,.62-.29.74.74,0,0,1,.31-.1.41.41,0,0,1,.33.15A.53.53,0,0,1,25,171,.62.62,0,0,1,24.69,171.46Z"/><path class="cls-3" d="M27.82,172a.57.57,0,0,1-.39-.16.51.51,0,0,1-.17-.37v-4.66c0-.19-.07-.25-.22-.17l-.4.17a.63.63,0,0,1-.19,0,.53.53,0,0,1-.39-.15.56.56,0,0,1-.14-.39.46.46,0,0,1,.33-.46l1.16-.42a1,1,0,0,1,.32-.06.65.65,0,0,1,.48.18.61.61,0,0,1,.19.47l0,5.49a.44.44,0,0,1-.16.36A.59.59,0,0,1,27.82,172Z"/><path class="cls-3" d="M31.36,171.81a.91.91,0,0,1-.61-.24.8.8,0,0,1-.27-.64v-4.69a.76.76,0,0,1,.25-.6.79.79,0,0,1,.58-.23h1.51a2.22,2.22,0,0,1,1.32.4,1.34,1.34,0,0,1,.58,1.16,1.72,1.72,0,0,1-.17.75,1.26,1.26,0,0,1-.44.52,1.42,1.42,0,0,1,.74.58,2.09,2.09,0,0,1-.31,2.47,2,2,0,0,1-1.44.52Zm.56-3.81h.93a.73.73,0,0,0,.61-.27,1,1,0,0,0,.2-.58.82.82,0,0,0-.2-.54.75.75,0,0,0-.61-.24H32c-.29,0-.43.14-.43.41v.85C31.57,167.88,31.68,168,31.92,168Zm.06,2.83H33.1a.87.87,0,0,0,.75-.31,1.16,1.16,0,0,0,.23-.68,1.1,1.1,0,0,0-.22-.64.81.81,0,0,0-.69-.31H31.92c-.24,0-.35.13-.35.37v1.16A.37.37,0,0,0,32,170.83Z"/><path class="cls-3" d="M38.19,172a2.49,2.49,0,0,1-1.69-.59,1.86,1.86,0,0,1-.66-1.46,1.78,1.78,0,0,1,1-1.62,1.48,1.48,0,0,1-.59-1.25,1.58,1.58,0,0,1,.54-1.24,2.08,2.08,0,0,1,1.43-.48,2.14,2.14,0,0,1,1.44.48,1.57,1.57,0,0,1,.57,1.24,1.47,1.47,0,0,1-.61,1.25,1.76,1.76,0,0,1,1,1.62,1.84,1.84,0,0,1-.67,1.46A2.51,2.51,0,0,1,38.19,172Zm0-.95a1.39,1.39,0,0,0,.93-.3,1,1,0,0,0,.35-.8,1,1,0,0,0-.36-.79,1.39,1.39,0,0,0-.92-.3,1.35,1.35,0,0,0-.91.3,1,1,0,0,0-.35.79,1,1,0,0,0,.34.8A1.36,1.36,0,0,0,38.19,171Zm0-3.1a1,1,0,0,0,.68-.26.81.81,0,0,0,.28-.61.74.74,0,0,0-.28-.58,1.12,1.12,0,0,0-1.36,0,.73.73,0,0,0-.27.58.8.8,0,0,0,.27.61A1,1,0,0,0,38.18,167.92Z"/><path class="cls-3" d="M52.26,170.8a.71.71,0,0,0,.08-.21s-.05,0-.12,0h-.53a.35.35,0,0,1-.4-.4.44.44,0,0,1,.11-.3.38.38,0,0,1,.29-.12h.7a.26.26,0,0,0,.18,0,.52.52,0,0,0,.11-.23l.4-1.12c0-.12.06-.19,0-.22s-.08,0-.2,0h-.58c-.26,0-.4-.12-.4-.37a.48.48,0,0,1,.12-.33.34.34,0,0,1,.28-.13h.76a.75.75,0,0,0,.32-.05.46.46,0,0,0,.14-.26l.26-.77a.45.45,0,0,1,.46-.35.47.47,0,0,1,.32.14.23.23,0,0,1,.07.29l-.25.71a.63.63,0,0,0,0,.25s.09,0,.2,0h.9a.51.51,0,0,0,.24,0,.73.73,0,0,0,.11-.27l.26-.77a.46.46,0,0,1,.48-.35.34.34,0,0,1,.28.14.35.35,0,0,1,.07.29l-.22.72q-.08.21,0,.24s.08,0,.19,0h.64a.44.44,0,0,1,.3.12.36.36,0,0,1,.13.29.38.38,0,0,1-.14.29.42.42,0,0,1-.31.13h-.83c-.12,0-.19,0-.22,0a1.91,1.91,0,0,0-.12.28l-.37,1.13c0,.12,0,.19,0,.2h1a.44.44,0,0,1,.29.11.35.35,0,0,1,.12.28.41.41,0,0,1-.13.29.39.39,0,0,1-.3.14h-1c-.11,0-.18,0-.21,0a.62.62,0,0,0-.1.25,3.56,3.56,0,0,1-.1.36c0,.14-.09.28-.14.4a.43.43,0,0,1-.47.34.4.4,0,0,1-.33-.15.38.38,0,0,1,0-.36,2.48,2.48,0,0,0,.08-.27c0-.13.08-.25.13-.37a1.94,1.94,0,0,0,.09-.23H53.51a.34.34,0,0,0-.23.05.47.47,0,0,0-.12.22l-.22.78a.5.5,0,0,1-.48.34.43.43,0,0,1-.35-.15.32.32,0,0,1,0-.34Zm1.33-1.27a.49.49,0,0,0,0,.2h1.22a.29.29,0,0,0,.17,0,.66.66,0,0,0,.1-.21l.37-1.12c0-.17,0-.26,0-.29H54.34c-.13,0-.22,0-.25,0a1.11,1.11,0,0,0-.15.29Z"/><path class="cls-3" d="M60.49,172c-.35,0-.53-.16-.53-.49a.44.44,0,0,1,.22-.37,5.16,5.16,0,0,0,.68-.56,4.38,4.38,0,0,0,.75-1,0,0,0,0,0,0-.06.07.07,0,0,0-.06,0,1.85,1.85,0,0,1-.56.08,2.12,2.12,0,0,1-1.08-.28,2,2,0,0,1-.78-.76,2,2,0,0,1-.3-1.07,2.32,2.32,0,0,1,.3-1.17,2.27,2.27,0,0,1,.83-.8,2.34,2.34,0,0,1,1.16-.28,2.21,2.21,0,0,1,1.63.65,2.37,2.37,0,0,1,.64,1.73,3.47,3.47,0,0,1-.22,1.16,6.55,6.55,0,0,1-.57,1.24,6.06,6.06,0,0,1-.82,1.1,3.79,3.79,0,0,1-.92.74A.74.74,0,0,1,60.49,172Zm.65-3.31a1.1,1.1,0,0,0,1.16-1.17,1.3,1.3,0,0,0-.34-.91,1.15,1.15,0,0,0-.86-.35,1.11,1.11,0,0,0-.83.35,1.29,1.29,0,0,0-.33.91,1.08,1.08,0,0,0,.36.83A1.14,1.14,0,0,0,61.14,168.67Z"/><path class="cls-3" d="M65.77,172c-.35,0-.53-.16-.53-.49a.44.44,0,0,1,.22-.37,5.16,5.16,0,0,0,.68-.56,4.1,4.1,0,0,0,.75-1,0,0,0,0,0,0-.06.07.07,0,0,0-.06,0,1.85,1.85,0,0,1-.56.08,2.15,2.15,0,0,1-1.86-1,2,2,0,0,1-.3-1.07,2.32,2.32,0,0,1,.3-1.17,2.27,2.27,0,0,1,.83-.8,2.34,2.34,0,0,1,1.16-.28,2.21,2.21,0,0,1,1.63.65,2.37,2.37,0,0,1,.64,1.73,3.47,3.47,0,0,1-.22,1.16,6.55,6.55,0,0,1-.57,1.24,6.06,6.06,0,0,1-.82,1.1,3.79,3.79,0,0,1-.92.74A.74.74,0,0,1,65.77,172Zm.65-3.31a1.1,1.1,0,0,0,1.16-1.17,1.3,1.3,0,0,0-.34-.91,1.15,1.15,0,0,0-.86-.35,1.11,1.11,0,0,0-.83.35,1.29,1.29,0,0,0-.33.91,1.08,1.08,0,0,0,.36.83A1.14,1.14,0,0,0,66.42,168.67Z"/><path class="cls-3" d="M71.05,172c-.35,0-.53-.16-.53-.49a.42.42,0,0,1,.22-.37,5.9,5.9,0,0,0,.68-.56,4.38,4.38,0,0,0,.75-1,0,0,0,0,0,0-.06.07.07,0,0,0-.06,0,1.85,1.85,0,0,1-.56.08,2.12,2.12,0,0,1-1.08-.28,2,2,0,0,1-.78-.76,2,2,0,0,1-.3-1.07,2.32,2.32,0,0,1,.3-1.17,2.27,2.27,0,0,1,.83-.8,2.34,2.34,0,0,1,1.16-.28,2.21,2.21,0,0,1,1.63.65,2.37,2.37,0,0,1,.64,1.73,3.47,3.47,0,0,1-.22,1.16,6.55,6.55,0,0,1-.57,1.24,6.06,6.06,0,0,1-.82,1.1,3.79,3.79,0,0,1-.92.74A.74.74,0,0,1,71.05,172Zm.65-3.31a1.1,1.1,0,0,0,1.16-1.17,1.3,1.3,0,0,0-.34-.91,1.15,1.15,0,0,0-.86-.35,1.11,1.11,0,0,0-.83.35,1.29,1.29,0,0,0-.33.91,1.08,1.08,0,0,0,.36.83A1.14,1.14,0,0,0,71.7,168.67Z"/><path class="cls-3" d="M76.33,172c-.35,0-.53-.16-.53-.49a.44.44,0,0,1,.22-.37,5.16,5.16,0,0,0,.68-.56,4.38,4.38,0,0,0,.75-1,0,0,0,0,0,0-.06.07.07,0,0,0-.06,0,1.85,1.85,0,0,1-.56.08,2.12,2.12,0,0,1-1.08-.28,2,2,0,0,1-.78-.76,2,2,0,0,1-.3-1.07,2.32,2.32,0,0,1,.3-1.17,2.27,2.27,0,0,1,.83-.8,2.34,2.34,0,0,1,1.16-.28,2.21,2.21,0,0,1,1.63.65,2.37,2.37,0,0,1,.64,1.73,3.47,3.47,0,0,1-.22,1.16,6.55,6.55,0,0,1-.57,1.24,6.06,6.06,0,0,1-.82,1.1,3.79,3.79,0,0,1-.92.74A.74.74,0,0,1,76.33,172Zm.65-3.31a1.1,1.1,0,0,0,1.16-1.17,1.3,1.3,0,0,0-.34-.91,1.15,1.15,0,0,0-.86-.35,1.11,1.11,0,0,0-.83.35,1.29,1.29,0,0,0-.33.91,1.08,1.08,0,0,0,.36.83A1.14,1.14,0,0,0,77,168.67Z"/><path class="cls-3" d="M81.61,172c-.35,0-.53-.16-.53-.49a.42.42,0,0,1,.22-.37,5.9,5.9,0,0,0,.68-.56,4.38,4.38,0,0,0,.75-1,0,0,0,0,0,0-.06.07.07,0,0,0-.06,0,1.85,1.85,0,0,1-.56.08,2.1,2.1,0,0,1-1.08-.28,2,2,0,0,1-.78-.76,2,2,0,0,1-.3-1.07,2.32,2.32,0,0,1,.3-1.17,2.27,2.27,0,0,1,.83-.8,2.34,2.34,0,0,1,1.16-.28,2.21,2.21,0,0,1,1.63.65,2.37,2.37,0,0,1,.64,1.73,3.47,3.47,0,0,1-.22,1.16,6.55,6.55,0,0,1-.57,1.24,6.06,6.06,0,0,1-.82,1.1,3.79,3.79,0,0,1-.92.74A.77.77,0,0,1,81.61,172Zm.65-3.31a1.1,1.1,0,0,0,1.16-1.17,1.3,1.3,0,0,0-.34-.91,1.15,1.15,0,0,0-.86-.35,1.09,1.09,0,0,0-.83.35,1.29,1.29,0,0,0-.33.91,1.08,1.08,0,0,0,.36.83A1.14,1.14,0,0,0,82.26,168.67Z"/><path class="cls-3" d="M86.89,172c-.35,0-.53-.16-.53-.49a.42.42,0,0,1,.22-.37,5.9,5.9,0,0,0,.68-.56,4.38,4.38,0,0,0,.75-1,0,0,0,0,0,0-.06.07.07,0,0,0-.06,0,1.85,1.85,0,0,1-.56.08,2.1,2.1,0,0,1-1.08-.28,2,2,0,0,1-.78-.76,2,2,0,0,1-.3-1.07,2.32,2.32,0,0,1,.3-1.17,2.27,2.27,0,0,1,.83-.8,2.34,2.34,0,0,1,1.16-.28,2.21,2.21,0,0,1,1.63.65,2.37,2.37,0,0,1,.64,1.73,3.47,3.47,0,0,1-.22,1.16A6.55,6.55,0,0,1,89,170a6.06,6.06,0,0,1-.82,1.1,3.79,3.79,0,0,1-.92.74A.77.77,0,0,1,86.89,172Zm.65-3.31a1.1,1.1,0,0,0,1.16-1.17,1.3,1.3,0,0,0-.34-.91,1.15,1.15,0,0,0-.86-.35,1.11,1.11,0,0,0-.83.35,1.29,1.29,0,0,0-.33.91,1.08,1.08,0,0,0,.36.83A1.14,1.14,0,0,0,87.54,168.67Z"/><path class="cls-3" d="M100.25,170.8c0-.12.08-.19.07-.21s0,0-.12,0h-.53a.35.35,0,0,1-.4-.4.44.44,0,0,1,.11-.3.38.38,0,0,1,.29-.12h.71a.25.25,0,0,0,.17,0,.52.52,0,0,0,.11-.23l.4-1.12c0-.12.06-.19,0-.22s-.08,0-.2,0h-.57c-.27,0-.4-.12-.4-.37a.52.52,0,0,1,.11-.33.35.35,0,0,1,.29-.13h.75a.72.72,0,0,0,.32-.05.46.46,0,0,0,.14-.26l.26-.77a.46.46,0,0,1,.46-.35.45.45,0,0,1,.32.14.23.23,0,0,1,.07.29l-.24.71c0,.15-.06.23,0,.25s.08,0,.2,0h.89a.51.51,0,0,0,.24,0,.68.68,0,0,0,.12-.27l.25-.77a.47.47,0,0,1,.48-.35.34.34,0,0,1,.28.14.32.32,0,0,1,.07.29l-.22.72q-.06.21,0,.24s.08,0,.19,0h.64a.41.41,0,0,1,.3.12.36.36,0,0,1,.13.29.37.37,0,0,1-.13.29.44.44,0,0,1-.32.13h-.83c-.12,0-.19,0-.21,0a.86.86,0,0,0-.12.28l-.37,1.13c0,.12,0,.19,0,.2h.94a.44.44,0,0,1,.3.11.35.35,0,0,1,.12.28.45.45,0,0,1-.13.29.43.43,0,0,1-.31.14h-1a.37.37,0,0,0-.21,0,.53.53,0,0,0-.09.25c0,.09-.06.21-.11.36s-.09.28-.13.4a.45.45,0,0,1-.48.34.37.37,0,0,1-.32-.15.38.38,0,0,1,0-.36l.09-.27.12-.37a1.94,1.94,0,0,0,.09-.23H101.5c-.12,0-.2,0-.24.05a.77.77,0,0,0-.12.22l-.22.78a.5.5,0,0,1-.48.34.41.41,0,0,1-.34-.15.35.35,0,0,1-.06-.34Zm1.33-1.27c0,.12,0,.19,0,.2h1.22a.31.31,0,0,0,.18,0,.74.74,0,0,0,.09-.21l.37-1.12c0-.17,0-.26,0-.29h-1.1c-.14,0-.23,0-.26,0a.92.92,0,0,0-.14.29Z"/><path class="cls-3" d="M107.59,171.81a.53.53,0,0,1-.41-.17.53.53,0,0,1-.16-.39.78.78,0,0,1,.27-.56l1.39-1.31a8.89,8.89,0,0,0,1-1.08,1.81,1.81,0,0,0,.37-1.05.89.89,0,0,0-.31-.73,1.1,1.1,0,0,0-1.36,0,1,1,0,0,0-.41.68.44.44,0,0,1-.19.31.61.61,0,0,1-.34.1.55.55,0,0,1-.35-.12.4.4,0,0,1-.15-.36,1.6,1.6,0,0,1,.36-1,2,2,0,0,1,.82-.59,2.58,2.58,0,0,1,2,0,1.92,1.92,0,0,1,.76.62,1.72,1.72,0,0,1,.3,1,2.56,2.56,0,0,1-.21,1,3.56,3.56,0,0,1-.82,1.14l-1.26,1.25c-.08.08-.1.14-.08.2s.08.09.19.09h1.81a.56.56,0,0,1,.41.14.48.48,0,0,1,.13.36.42.42,0,0,1-.48.48Z"/><path class="cls-3" d="M113.35,171.81a1,1,0,0,1-.63-.23.75.75,0,0,1-.3-.64v-4.7a.79.79,0,0,1,.25-.6.81.81,0,0,1,.59-.23h1.44a3.47,3.47,0,0,1,1.68.39,2.77,2.77,0,0,1,1.14,1.11,3.49,3.49,0,0,1,.41,1.73,3.4,3.4,0,0,1-.38,1.6,2.86,2.86,0,0,1-1,1.14,2.71,2.71,0,0,1-1.53.43Zm.66-1h.7a2.13,2.13,0,0,0,1.59-.55,2.18,2.18,0,0,0,.52-1.62,2.37,2.37,0,0,0-.56-1.67,2,2,0,0,0-1.56-.57H114a.42.42,0,0,0-.48.48v3.45A.42.42,0,0,0,114,170.81Z"/><path class="cls-3" d="M119.5,171.81a.56.56,0,0,1-.42-.17.53.53,0,0,1-.16-.39.78.78,0,0,1,.27-.56l1.39-1.31a7.46,7.46,0,0,0,1-1.08,1.75,1.75,0,0,0,.37-1.05.86.86,0,0,0-.31-.73,1.07,1.07,0,0,0-.7-.25,1.11,1.11,0,0,0-.66.22,1,1,0,0,0-.41.68.41.41,0,0,1-.19.31.61.61,0,0,1-.34.1.57.57,0,0,1-.35-.12.4.4,0,0,1-.14-.36,1.6,1.6,0,0,1,.36-1,2.07,2.07,0,0,1,.81-.59,2.52,2.52,0,0,1,1-.2,2.59,2.59,0,0,1,1,.2,2,2,0,0,1,.76.62,1.79,1.79,0,0,1,.29,1,2.56,2.56,0,0,1-.21,1,3.67,3.67,0,0,1-.81,1.14l-1.27,1.25c-.07.08-.1.14-.08.2s.09.09.2.09h1.8a.56.56,0,0,1,.41.14.49.49,0,0,1,.14.36.42.42,0,0,1-.48.48Z"/><path class="cls-3" d="M125.26,171.81a1,1,0,0,1-.64-.23.77.77,0,0,1-.29-.64v-4.7a.76.76,0,0,1,.25-.6.79.79,0,0,1,.58-.23h1.44a3.54,3.54,0,0,1,1.69.39,2.81,2.81,0,0,1,1.13,1.11,3.75,3.75,0,0,1,0,3.33,2.94,2.94,0,0,1-1,1.14,2.76,2.76,0,0,1-1.53.43Zm.65-1h.71a2.11,2.11,0,0,0,1.58-.55,2.19,2.19,0,0,0,.53-1.62,2.42,2.42,0,0,0-.56-1.67,2.09,2.09,0,0,0-1.57-.57h-.67a.42.42,0,0,0-.48.48v3.45C125.45,170.65,125.6,170.81,125.91,170.81Z"/><path class="cls-3" d="M131.4,171.81a.56.56,0,0,1-.58-.56.76.76,0,0,1,.28-.56l1.39-1.31a8.89,8.89,0,0,0,1-1.08,1.81,1.81,0,0,0,.37-1.05.87.87,0,0,0-.32-.73,1,1,0,0,0-.69-.25,1.12,1.12,0,0,0-.67.22,1,1,0,0,0-.4.68.45.45,0,0,1-.2.31.58.58,0,0,1-.33.1.55.55,0,0,1-.35-.12.4.4,0,0,1-.15-.36,1.6,1.6,0,0,1,.36-1,2,2,0,0,1,.82-.59,2.48,2.48,0,0,1,1-.2,2.54,2.54,0,0,1,1,.2,1.92,1.92,0,0,1,.76.62,1.72,1.72,0,0,1,.3,1,2.56,2.56,0,0,1-.21,1,3.56,3.56,0,0,1-.82,1.14l-1.26,1.25c-.08.08-.1.14-.08.2s.08.09.19.09h1.81a.58.58,0,0,1,.41.14.48.48,0,0,1,.13.36.42.42,0,0,1-.48.48Z"/><path class="cls-3" d="M137.16,171.81a1,1,0,0,1-.63-.23.75.75,0,0,1-.3-.64v-4.7a.76.76,0,0,1,.25-.6.79.79,0,0,1,.58-.23h1.44a3.51,3.51,0,0,1,1.69.39,2.83,2.83,0,0,1,1.14,1.11,3.48,3.48,0,0,1,.4,1.73,3.4,3.4,0,0,1-.37,1.6,2.94,2.94,0,0,1-1,1.14,2.71,2.71,0,0,1-1.53.43Zm.65-1h.71a2.11,2.11,0,0,0,1.58-.55,2.19,2.19,0,0,0,.53-1.62,2.42,2.42,0,0,0-.56-1.67,2.06,2.06,0,0,0-1.57-.57h-.67a.42.42,0,0,0-.48.48v3.45C137.35,170.65,137.5,170.81,137.81,170.81Z"/><rect class="cls-1" x="0.44" y="47.69" width="40" height="40" rx="11.13"/><rect class="cls-7" x="50.44" y="47.69" width="40" height="40" rx="11.13"/><rect class="cls-2" x="100.44" y="47.69" width="40" height="40" rx="11.13"/><path class="cls-3" d="M1.74,100.8a.71.71,0,0,0,.08-.21s-.05,0-.12,0H1.17a.35.35,0,0,1-.4-.4.44.44,0,0,1,.11-.3.38.38,0,0,1,.29-.12h.7a.26.26,0,0,0,.18,0,.52.52,0,0,0,.11-.23l.4-1.12c0-.12.06-.19,0-.22s-.08,0-.2,0H1.82c-.26,0-.4-.12-.4-.37a.48.48,0,0,1,.12-.33.34.34,0,0,1,.28-.13h.76a.75.75,0,0,0,.32,0A.46.46,0,0,0,3,96.94l.26-.76a.45.45,0,0,1,.46-.36.47.47,0,0,1,.32.14.22.22,0,0,1,.06.3L3.9,97a.65.65,0,0,0,0,.26.38.38,0,0,0,.2,0H5a.51.51,0,0,0,.24,0,.73.73,0,0,0,.11-.27l.26-.76a.46.46,0,0,1,.48-.36.34.34,0,0,1,.28.14.36.36,0,0,1,.07.3L6.18,97c0,.13-.06.21,0,.24a.4.4,0,0,0,.2,0H7a.44.44,0,0,1,.3.12.37.37,0,0,1,.13.29.38.38,0,0,1-.14.29.42.42,0,0,1-.31.13H6.13c-.12,0-.19,0-.22,0a1.91,1.91,0,0,0-.12.28l-.37,1.14c0,.11,0,.18,0,.19h1a.44.44,0,0,1,.29.11.35.35,0,0,1,.12.28.41.41,0,0,1-.13.29.39.39,0,0,1-.3.14h-1c-.11,0-.18,0-.21,0a.71.71,0,0,0-.1.25,3.56,3.56,0,0,1-.1.36c0,.14-.09.28-.14.41a.44.44,0,0,1-.48.33A.39.39,0,0,1,4,101.8a.38.38,0,0,1,0-.36,1.92,1.92,0,0,0,.08-.27l.12-.37a1.55,1.55,0,0,0,.1-.22.35.35,0,0,0-.16,0H3a.41.41,0,0,0-.23,0,.47.47,0,0,0-.12.22l-.22.79a.5.5,0,0,1-.48.33.43.43,0,0,1-.35-.15.32.32,0,0,1-.05-.34Zm1.33-1.26a.44.44,0,0,0,0,.19H4.26a.29.29,0,0,0,.17,0,.66.66,0,0,0,.1-.21l.37-1.12c0-.17,0-.26,0-.28s-.09,0-.24,0H3.82a.42.42,0,0,0-.25,0,1.34,1.34,0,0,0-.15.29Z"/><path class="cls-3" d="M10.14,102a2.74,2.74,0,0,1-.9-.15,2.64,2.64,0,0,1-.81-.43.59.59,0,0,1-.19-.43.52.52,0,0,1,.15-.38.46.46,0,0,1,.36-.16.51.51,0,0,1,.35.12,1.66,1.66,0,0,0,.6.36,2.1,2.1,0,0,0,.64.11,1.39,1.39,0,0,0,.93-.34,1.14,1.14,0,0,0,.41-.93,1,1,0,0,0-.36-.84,1.39,1.39,0,0,0-.92-.29,2.79,2.79,0,0,0-.7.08l-.47.11a.45.45,0,0,1-.34-.13.42.42,0,0,1-.11-.38l.29-2.21c0-.34.15-.54.31-.59a1.51,1.51,0,0,1,.51-.08H12c.35,0,.53.15.53.46s-.07.37-.2.43a1.1,1.1,0,0,1-.33.08h-1.6a.39.39,0,0,0-.28.08.44.44,0,0,0-.09.26l-.16,1.1a1.27,1.27,0,0,1,.39-.08l.39,0a2.4,2.4,0,0,1,1,.23,1.86,1.86,0,0,1,1.06,1.72,2.06,2.06,0,0,1-.37,1.25,2.45,2.45,0,0,1-.95.79A3,3,0,0,1,10.14,102Z"/><path class="cls-3" d="M15.78,102a2.85,2.85,0,0,1-1.39-.37,1.87,1.87,0,0,1-.82-.88.74.74,0,0,1-.05-.22.43.43,0,0,1,.19-.37.64.64,0,0,1,.4-.15.45.45,0,0,1,.45.28,1.25,1.25,0,0,0,1.26.78,1.05,1.05,0,0,0,.84-.34,1.09,1.09,0,0,0,.32-.76.89.89,0,0,0-.44-.87,2.19,2.19,0,0,0-1-.22.38.38,0,0,1-.36-.13A.49.49,0,0,1,15,98.4a.48.48,0,0,1,.11-.3.39.39,0,0,1,.33-.13,1.49,1.49,0,0,0,.93-.23.86.86,0,0,0,.28-.7.81.81,0,0,0-.21-.58.8.8,0,0,0-.62-.24,1.09,1.09,0,0,0-.69.18,1.46,1.46,0,0,0-.35.4.65.65,0,0,1-.24.23.51.51,0,0,1-.26.07.55.55,0,0,1-.36-.14.44.44,0,0,1-.16-.35.41.41,0,0,1,0-.19,1.94,1.94,0,0,1,.73-.78,2.31,2.31,0,0,1,1.24-.31,2,2,0,0,1,1.48.5,1.66,1.66,0,0,1,.27,2,1.44,1.44,0,0,1-.55.57,1.61,1.61,0,0,1,.76.58,1.56,1.56,0,0,1,.33,1,2,2,0,0,1-.6,1.48A2.26,2.26,0,0,1,15.78,102Z"/><path class="cls-3" d="M20.34,102a.55.55,0,0,1-.37-.14.54.54,0,0,1-.15-.49.52.52,0,0,1,0-.11l2.21-4.54.05-.12a.41.41,0,0,0,0-.11.05.05,0,0,0,0-.06.62.62,0,0,0-.18,0H19.36a.6.6,0,0,1-.4-.13.43.43,0,0,1-.16-.35.46.46,0,0,1,.15-.36.59.59,0,0,1,.41-.13h3a1,1,0,0,1,.66.21.76.76,0,0,1,.24.59,1.22,1.22,0,0,1,0,.26c0,.09-.05.19-.08.28l-2.29,4.85a.54.54,0,0,1-.23.28A.61.61,0,0,1,20.34,102Z"/><path class="cls-3" d="M24.61,102a.53.53,0,0,1-.37-.15.46.46,0,0,1-.16-.38,1,1,0,0,1,0-.21l2-5.42a1,1,0,0,1,.34-.42.92.92,0,0,1,.48-.14,1,1,0,0,1,.49.14,1,1,0,0,1,.34.42l2.13,5.42a1,1,0,0,1,0,.21.46.46,0,0,1-.16.38.53.53,0,0,1-.37.15.82.82,0,0,1-.29-.07.51.51,0,0,1-.24-.24l-.52-1.4a.11.11,0,0,0-.13-.1H25.76a.12.12,0,0,0-.14.1l-.48,1.4a.56.56,0,0,1-.24.24A.82.82,0,0,1,24.61,102Zm1.63-2.77h1.44a.18.18,0,0,0,.15-.07.2.2,0,0,0,0-.19l-.77-2.19c0-.1-.08-.16-.15-.16s-.12.06-.16.16L26.06,99a.17.17,0,0,0,0,.17A.17.17,0,0,0,26.24,99.2Z"/><path class="cls-3" d="M32.91,102a2.21,2.21,0,0,1-1.63-.65,2.37,2.37,0,0,1-.64-1.73,3.47,3.47,0,0,1,.22-1.16,6.55,6.55,0,0,1,.57-1.24,6.06,6.06,0,0,1,.82-1.1,3.79,3.79,0,0,1,.92-.74.85.85,0,0,1,.38-.11c.35,0,.53.16.53.49a.44.44,0,0,1-.22.37,4.17,4.17,0,0,0-.69.55,4.75,4.75,0,0,0-.74,1,0,0,0,0,0,0,.05,0,0,0,0,0,0,0,1.85,1.85,0,0,1,.56-.08,2.15,2.15,0,0,1,1.86,1,2,2,0,0,1,.3,1.07,2.29,2.29,0,0,1-.3,1.17,2.33,2.33,0,0,1-.82.8A2.36,2.36,0,0,1,32.91,102Zm0-1a1.11,1.11,0,0,0,.83-.35,1.27,1.27,0,0,0,.33-.91,1.12,1.12,0,0,0-.35-.84,1.18,1.18,0,0,0-.85-.33,1.15,1.15,0,0,0-.83.32,1.13,1.13,0,0,0-.33.85,1.28,1.28,0,0,0,.34.91A1.15,1.15,0,0,0,32.94,101Z"/><path class="cls-3" d="M37.12,101.81a.86.86,0,0,1-.64-.24.88.88,0,0,1-.24-.64V96.24a.76.76,0,0,1,.25-.6.83.83,0,0,1,.58-.23h2.42a.5.5,0,0,1,.39.13.51.51,0,0,1,.12.35.45.45,0,0,1-.14.33.47.47,0,0,1-.37.15H37.78a.37.37,0,0,0-.42.41v.88c0,.28.13.42.38.42h1.59a.5.5,0,0,1,.39.14.52.52,0,0,1,.12.34.49.49,0,0,1-.14.33.47.47,0,0,1-.37.15H37.74c-.25,0-.38.13-.38.4v1a.36.36,0,0,0,.4.41h1.89A.47.47,0,0,1,40,101a.55.55,0,0,1,.12.35.45.45,0,0,1-.14.33.47.47,0,0,1-.37.15Z"/><path class="cls-3" d="M51.78,100.8a.71.71,0,0,0,.08-.21s0,0-.12,0h-.53a.35.35,0,0,1-.4-.4.4.4,0,0,1,.11-.3.37.37,0,0,1,.29-.12h.7a.26.26,0,0,0,.18,0,.52.52,0,0,0,.11-.23l.4-1.12c0-.12.06-.19,0-.22s-.08,0-.2,0h-.58c-.26,0-.4-.12-.4-.37a.48.48,0,0,1,.12-.33.34.34,0,0,1,.28-.13h.76a.75.75,0,0,0,.32,0,.46.46,0,0,0,.14-.26l.25-.77a.47.47,0,0,1,.79-.21.22.22,0,0,1,.06.29l-.24.71a.63.63,0,0,0,0,.25s.09,0,.2,0H55a.51.51,0,0,0,.24,0,.73.73,0,0,0,.11-.27l.26-.77a.46.46,0,0,1,.48-.35.35.35,0,0,1,.28.14.35.35,0,0,1,.07.29l-.23.72q-.06.21,0,.24s.09,0,.2,0H57a.44.44,0,0,1,.3.12.39.39,0,0,1,.13.29.38.38,0,0,1-.14.29.42.42,0,0,1-.31.13h-.83c-.12,0-.19,0-.22,0a.86.86,0,0,0-.12.28l-.37,1.13c0,.12,0,.19,0,.2h1a.44.44,0,0,1,.29.11.35.35,0,0,1,.12.28.41.41,0,0,1-.13.29.39.39,0,0,1-.3.14h-1c-.11,0-.18,0-.21,0a.62.62,0,0,0-.1.25,3.56,3.56,0,0,1-.1.36c-.05.14-.09.28-.14.4a.44.44,0,0,1-.48.34.38.38,0,0,1-.32-.15.38.38,0,0,1,0-.36,2.48,2.48,0,0,0,.08-.27l.12-.37a1.37,1.37,0,0,0,.1-.23H53c-.12,0-.19,0-.23,0a.47.47,0,0,0-.12.22l-.22.78A.5.5,0,0,1,52,102a.43.43,0,0,1-.35-.15.32.32,0,0,1-.05-.34Zm1.33-1.27a.49.49,0,0,0,0,.2h1.21a.31.31,0,0,0,.18,0,1,1,0,0,0,.1-.21l.37-1.12c0-.17.05-.26,0-.29H53.86c-.14,0-.22,0-.25,0a1.11,1.11,0,0,0-.15.29Z"/><path class="cls-3" d="M60.18,102a2.74,2.74,0,0,1-.9-.15,2.64,2.64,0,0,1-.81-.43.59.59,0,0,1-.19-.43.56.56,0,0,1,.15-.39.49.49,0,0,1,.36-.15.51.51,0,0,1,.35.12,1.51,1.51,0,0,0,.6.35,1.85,1.85,0,0,0,.64.12,1.44,1.44,0,0,0,.93-.34,1.14,1.14,0,0,0,.41-.93,1,1,0,0,0-.36-.85,1.44,1.44,0,0,0-.92-.28,2.74,2.74,0,0,0-.7.08l-.47.11a.45.45,0,0,1-.34-.13.43.43,0,0,1-.11-.38l.29-2.21c0-.34.15-.54.31-.59a1.51,1.51,0,0,1,.51-.08H62c.35,0,.53.15.53.46s-.07.37-.21.42a.82.82,0,0,1-.32.09h-1.6a.37.37,0,0,0-.28.08.44.44,0,0,0-.09.26l-.16,1.1a1.5,1.5,0,0,1,.39-.09l.39,0a2.4,2.4,0,0,1,1,.23,1.83,1.83,0,0,1,1.06,1.72,2.06,2.06,0,0,1-.37,1.25,2.34,2.34,0,0,1-1,.78A2.83,2.83,0,0,1,60.18,102Z"/><path class="cls-3" d="M64.84,101.81a.86.86,0,0,1-.64-.24.88.88,0,0,1-.24-.64V96.24a.76.76,0,0,1,.25-.6.79.79,0,0,1,.58-.23h2.42a.5.5,0,0,1,.39.13.51.51,0,0,1,.12.35.5.5,0,0,1-.51.48H65.5a.37.37,0,0,0-.42.41v.88c0,.28.13.42.38.42h1.59a.5.5,0,0,1,.39.14.52.52,0,0,1,.12.34.49.49,0,0,1-.14.33.47.47,0,0,1-.37.15H65.46c-.25,0-.38.13-.38.4v1a.36.36,0,0,0,.4.41h1.89a.47.47,0,0,1,.39.15.55.55,0,0,1,.12.35.45.45,0,0,1-.14.33.47.47,0,0,1-.37.15Z"/><path class="cls-3" d="M71,102a2.49,2.49,0,0,1-1.69-.59,1.86,1.86,0,0,1-.66-1.46,1.78,1.78,0,0,1,1-1.62,1.48,1.48,0,0,1-.59-1.25,1.58,1.58,0,0,1,.54-1.24A2.07,2.07,0,0,1,71,95.33a2.17,2.17,0,0,1,1.45.48A1.57,1.57,0,0,1,73,97.05a1.47,1.47,0,0,1-.61,1.25,1.76,1.76,0,0,1,1,1.62,1.87,1.87,0,0,1-.67,1.46A2.51,2.51,0,0,1,71,102Zm0-1a1.4,1.4,0,0,0,.93-.3,1,1,0,0,0,.35-.8,1,1,0,0,0-.36-.79,1.39,1.39,0,0,0-.92-.3,1.35,1.35,0,0,0-.91.3,1,1,0,0,0-.35.79,1,1,0,0,0,.34.8A1.36,1.36,0,0,0,71,101Zm0-3.1a1,1,0,0,0,.68-.26.78.78,0,0,0,.28-.61.73.73,0,0,0-.27-.58,1,1,0,0,0-.69-.23,1,1,0,0,0-.67.23.73.73,0,0,0-.27.58.8.8,0,0,0,.27.61A1,1,0,0,0,71,97.92Z"/><path class="cls-3" d="M76.39,102a2.49,2.49,0,0,1-1.69-.59A1.86,1.86,0,0,1,74,99.92a1.78,1.78,0,0,1,1-1.62,1.48,1.48,0,0,1-.59-1.25A1.58,1.58,0,0,1,75,95.81a2.08,2.08,0,0,1,1.43-.48,2.16,2.16,0,0,1,1.44.48,1.57,1.57,0,0,1,.57,1.24,1.47,1.47,0,0,1-.61,1.25,1.76,1.76,0,0,1,1,1.62,1.84,1.84,0,0,1-.67,1.46A2.51,2.51,0,0,1,76.39,102Zm0-1a1.4,1.4,0,0,0,.93-.3,1,1,0,0,0,.35-.8,1,1,0,0,0-.36-.79,1.39,1.39,0,0,0-.92-.3,1.35,1.35,0,0,0-.91.3,1,1,0,0,0-.35.79,1,1,0,0,0,.34.8A1.36,1.36,0,0,0,76.39,101Zm0-3.1a1,1,0,0,0,.67-.26.78.78,0,0,0,.28-.61.73.73,0,0,0-.27-.58,1.12,1.12,0,0,0-1.36,0,.73.73,0,0,0-.27.58.8.8,0,0,0,.27.61A1,1,0,0,0,76.38,97.92Z"/><path class="cls-3" d="M80.94,102a.55.55,0,0,1-.37-.14.46.46,0,0,1-.16-.37.45.45,0,0,1,0-.12.52.52,0,0,1,0-.11l2.21-4.54a.73.73,0,0,1,0-.12.41.41,0,0,0,0-.11.05.05,0,0,0,0-.06.62.62,0,0,0-.18,0H80a.6.6,0,0,1-.4-.13.43.43,0,0,1-.16-.35.46.46,0,0,1,.15-.36.59.59,0,0,1,.41-.13h3a1,1,0,0,1,.66.21.76.76,0,0,1,.24.59,1.22,1.22,0,0,1,0,.26c0,.09,0,.18-.08.28l-2.29,4.85a.54.54,0,0,1-.23.28A.61.61,0,0,1,80.94,102Z"/><path class="cls-3" d="M90,101.46a2.68,2.68,0,0,1-.85.35A4.13,4.13,0,0,1,88,102a3.19,3.19,0,0,1-1.66-.44,3.07,3.07,0,0,1-1.17-1.2,3.48,3.48,0,0,1-.43-1.76,3.56,3.56,0,0,1,.41-1.72,3,3,0,0,1,1.18-1.18,3.62,3.62,0,0,1,1.77-.42,5.25,5.25,0,0,1,.79.06,3.89,3.89,0,0,1,.79.22.49.49,0,0,1,.23.22A.56.56,0,0,1,90,96a.55.55,0,0,1-.14.37.44.44,0,0,1-.36.16.64.64,0,0,1-.22,0,3.59,3.59,0,0,0-.6-.18,3.23,3.23,0,0,0-.68-.08,1.92,1.92,0,0,0-1.12.33,2.26,2.26,0,0,0-.75.87,2.78,2.78,0,0,0-.26,1.2,2.48,2.48,0,0,0,.59,1.66A2,2,0,0,0,88,101a2.49,2.49,0,0,0,.85-.14,2.12,2.12,0,0,0,.62-.29.75.75,0,0,1,.3-.1.43.43,0,0,1,.34.15.53.53,0,0,1,.13.35A.62.62,0,0,1,90,101.46Z"/><path class="cls-3" d="M101.63,100.8c.06-.12.08-.19.07-.21s0,0-.12,0h-.52a.35.35,0,0,1-.4-.4.4.4,0,0,1,.11-.3.37.37,0,0,1,.29-.12h.7a.3.3,0,0,0,.18,0,.67.67,0,0,0,.11-.23l.4-1.12a.46.46,0,0,0,0-.22s-.08,0-.2,0h-.58c-.26,0-.4-.12-.4-.37a.52.52,0,0,1,.11-.33.36.36,0,0,1,.29-.13h.75a.72.72,0,0,0,.32,0c.06,0,.1-.12.15-.26l.25-.76a.46.46,0,0,1,.47-.36A.47.47,0,0,1,104,96a.25.25,0,0,1,.06.3l-.24.7a.65.65,0,0,0,0,.26s.08,0,.2,0h.9a.51.51,0,0,0,.24,0,.73.73,0,0,0,.11-.27l.26-.76a.46.46,0,0,1,.48-.36.35.35,0,0,1,.28.14.36.36,0,0,1,.07.3l-.23.72q-.06.19,0,.24a.36.36,0,0,0,.19,0h.64a.45.45,0,0,1,.31.12.41.41,0,0,1,.13.29.38.38,0,0,1-.14.29.43.43,0,0,1-.31.13H106c-.12,0-.19,0-.22,0a.86.86,0,0,0-.12.28l-.37,1.14c0,.11,0,.18,0,.19h.94a.44.44,0,0,1,.3.11.35.35,0,0,1,.12.28.41.41,0,0,1-.13.29.39.39,0,0,1-.3.14h-1c-.11,0-.18,0-.21,0a.55.55,0,0,0-.1.25,3.56,3.56,0,0,1-.1.36c0,.14-.1.28-.14.41a.44.44,0,0,1-.48.33.38.38,0,0,1-.32-.15.41.41,0,0,1-.05-.36s.05-.14.09-.27l.12-.37a1.55,1.55,0,0,0,.1-.22.38.38,0,0,0-.16,0h-1.09a.39.39,0,0,0-.23,0,.47.47,0,0,0-.12.22l-.23.79a.48.48,0,0,1-.48.33.41.41,0,0,1-.34-.15.35.35,0,0,1-.06-.34ZM103,99.54a.44.44,0,0,0,0,.19h1.21a.31.31,0,0,0,.18,0,1,1,0,0,0,.1-.21l.36-1.12c0-.17.06-.26,0-.28s-.09,0-.24,0h-.87a.4.4,0,0,0-.25,0,1,1,0,0,0-.15.29Z"/><path class="cls-3" d="M110.48,102a2.47,2.47,0,0,1-1.69-.59,1.86,1.86,0,0,1-.66-1.46,1.79,1.79,0,0,1,1-1.62,1.48,1.48,0,0,1-.59-1.24,1.58,1.58,0,0,1,.54-1.25,2.07,2.07,0,0,1,1.42-.48,2.12,2.12,0,0,1,1.45.49,1.54,1.54,0,0,1,.57,1.24,1.47,1.47,0,0,1-.61,1.24,1.77,1.77,0,0,1,1,1.62,1.87,1.87,0,0,1-.67,1.46A2.51,2.51,0,0,1,110.48,102Zm0-1a1.4,1.4,0,0,0,.93-.3,1,1,0,0,0,.35-.8,1,1,0,0,0-.36-.79,1.39,1.39,0,0,0-.92-.3,1.35,1.35,0,0,0-.91.3,1,1,0,0,0-.35.79,1,1,0,0,0,.34.8A1.36,1.36,0,0,0,110.48,101Zm0-3.1a1,1,0,0,0,.68-.26.78.78,0,0,0,.28-.6.75.75,0,0,0-.27-.59,1,1,0,0,0-.69-.23,1,1,0,0,0-.67.23.75.75,0,0,0-.27.59.8.8,0,0,0,.27.6A1,1,0,0,0,110.46,97.92Z"/><path class="cls-3" d="M114.82,101.81a1,1,0,0,1-.64-.23.77.77,0,0,1-.29-.64v-4.7a.76.76,0,0,1,.25-.6.83.83,0,0,1,.58-.23h1.44a3.54,3.54,0,0,1,1.69.39A2.81,2.81,0,0,1,119,96.91a3.75,3.75,0,0,1,0,3.33,2.94,2.94,0,0,1-1,1.14,2.76,2.76,0,0,1-1.53.43Zm.65-1h.71a2.11,2.11,0,0,0,1.58-.56,2.17,2.17,0,0,0,.53-1.62,2.37,2.37,0,0,0-.56-1.66,2,2,0,0,0-1.57-.58h-.67a.42.42,0,0,0-.48.48v3.46C115,100.66,115.16,100.82,115.47,100.82Z"/><path class="cls-3" d="M121.84,102c-.35,0-.53-.16-.53-.49a.44.44,0,0,1,.23-.37,5,5,0,0,0,.67-.56,4.1,4.1,0,0,0,.75-1,0,0,0,0,0,0-.06.06.06,0,0,0-.06,0,2.14,2.14,0,0,1-1.64-.2,2.18,2.18,0,0,1-.78-.76,2,2,0,0,1-.3-1.08,2.17,2.17,0,0,1,.31-1.16,2,2,0,0,1,.82-.8,2.27,2.27,0,0,1,1.16-.29,2.21,2.21,0,0,1,1.63.65,2.37,2.37,0,0,1,.64,1.73,3.71,3.71,0,0,1-.21,1.16A7,7,0,0,1,124,100a6.06,6.06,0,0,1-.82,1.1,3.79,3.79,0,0,1-.92.74A.74.74,0,0,1,121.84,102Zm.66-3.31a1.11,1.11,0,0,0,.83-.32,1.15,1.15,0,0,0,.32-.85,1.25,1.25,0,0,0-.34-.91,1.15,1.15,0,0,0-.86-.35,1.11,1.11,0,0,0-.83.35,1.29,1.29,0,0,0-.33.91,1.12,1.12,0,0,0,.36.84A1.18,1.18,0,0,0,122.5,98.67Z"/><path class="cls-3" d="M126.67,101.81a.86.86,0,0,1-.64-.24.88.88,0,0,1-.24-.64V96.24a.76.76,0,0,1,.25-.6.83.83,0,0,1,.58-.23H129a.5.5,0,0,1,.39.13.51.51,0,0,1,.12.35.44.44,0,0,1-.13.33.5.5,0,0,1-.38.15h-1.71a.37.37,0,0,0-.42.41v.88c0,.28.13.42.38.42h1.59a.5.5,0,0,1,.39.14.52.52,0,0,1,.12.34.45.45,0,0,1-.14.33.47.47,0,0,1-.37.15h-1.59c-.25,0-.38.13-.38.4v1a.36.36,0,0,0,.4.41h1.89a.47.47,0,0,1,.39.15.55.55,0,0,1,.12.35.44.44,0,0,1-.13.33.5.5,0,0,1-.38.15Z"/><path class="cls-3" d="M132.24,102c-.35,0-.53-.16-.53-.49a.44.44,0,0,1,.23-.37,5.71,5.71,0,0,0,.68-.56,4.35,4.35,0,0,0,.74-1,0,0,0,0,0,0-.06.06.06,0,0,0-.06,0,2.14,2.14,0,0,1-1.64-.2,2.18,2.18,0,0,1-.78-.76,2,2,0,0,1-.3-1.08,2.17,2.17,0,0,1,.31-1.16,2,2,0,0,1,.82-.8,2.27,2.27,0,0,1,1.16-.29,2.21,2.21,0,0,1,1.63.65,2.37,2.37,0,0,1,.64,1.73,3.71,3.71,0,0,1-.21,1.16,7,7,0,0,1-.58,1.24,6.06,6.06,0,0,1-.82,1.1,3.79,3.79,0,0,1-.92.74A.74.74,0,0,1,132.24,102Zm.66-3.31a1.11,1.11,0,0,0,.83-.32,1.15,1.15,0,0,0,.32-.85,1.25,1.25,0,0,0-.34-.91,1.15,1.15,0,0,0-.86-.35,1.11,1.11,0,0,0-.83.35,1.28,1.28,0,0,0-.32.91,1.11,1.11,0,0,0,.35.84A1.18,1.18,0,0,0,132.9,98.67Z"/><path class="cls-3" d="M138.14,102a2.21,2.21,0,0,1-1.63-.65,2.37,2.37,0,0,1-.64-1.73,3.47,3.47,0,0,1,.22-1.16,6.55,6.55,0,0,1,.57-1.24,6.06,6.06,0,0,1,.82-1.1,3.79,3.79,0,0,1,.92-.74.89.89,0,0,1,.38-.11c.35,0,.53.16.53.49a.42.42,0,0,1-.22.37,4.17,4.17,0,0,0-.68.55,4.45,4.45,0,0,0-.75,1,0,0,0,0,0,0,.05,0,0,0,0,0,.05,0,1.85,1.85,0,0,1,.56-.08,2.07,2.07,0,0,1,1.08.28,2,2,0,0,1,.78.76,2,2,0,0,1,.3,1.07,2.29,2.29,0,0,1-.3,1.17,2.33,2.33,0,0,1-.82.8A2.36,2.36,0,0,1,138.14,102Zm0-1a1.11,1.11,0,0,0,.83-.35,1.27,1.27,0,0,0,.33-.91,1.12,1.12,0,0,0-.35-.84,1.18,1.18,0,0,0-.85-.33,1.16,1.16,0,0,0-.83.32,1.13,1.13,0,0,0-.33.85,1.28,1.28,0,0,0,.34.91A1.16,1.16,0,0,0,138.17,101Z"/></g></g></svg>