<svg xmlns="http://www.w3.org/2000/svg" viewBox="0 0 408.7 194.68"><defs><style>.cls-1{fill:#537a6e;}.cls-2{fill:#5e887c;}.cls-3{fill:#fff;}.cls-4{fill:#51504f;}.cls-5{fill:#8d9e96;}</style></defs><g id="Layer_2" data-name="Layer 2"><g id="Layer_1-2" data-name="Layer 1"><path class="cls-1" d="M16.82,15.63a.91.91,0,0,1-1,1,.9.9,0,0,1-1-1l.11-11L10.06,12a1.12,1.12,0,0,1-.93.57,1.07,1.07,0,0,1-.94-.6l-4.55-7L3.8,15.73a.91.91,0,0,1-1,1c-.66,0-1-.35-1-1L1.59,2.21A1,1,0,0,1,2.39,1a1.11,1.11,0,0,1,1.28.52L9.07,10l5.28-8a1.44,1.44,0,0,1,1.54-.78c.59.13.89.57.91,1.33Z"/><path class="cls-1" d="M28.94,14.27l-.31.34a4.66,4.66,0,0,1-1.71,1.17,5.39,5.39,0,0,1-4.17,0,4.67,4.67,0,0,1-1.69-1.17,4.89,4.89,0,0,1-1.13-1.77,6,6,0,0,1,0-4.31,5,5,0,0,1,1.13-1.77,4.93,4.93,0,0,1,1.69-1.17,5.26,5.26,0,0,1,2.08-.42,5.48,5.48,0,0,1,2.11.42,5.07,5.07,0,0,1,1.58,1.07l0-.42a.9.9,0,0,1,1-1.07.88.88,0,0,1,1,.94L31,15.24a.91.91,0,0,1-.91,1.11A.89.89,0,0,1,29,15.42Zm-.31-3.58a4.06,4.06,0,0,0-.26-1.42,3.62,3.62,0,0,0-.73-1.18,3.49,3.49,0,0,0-1.16-.76,3.85,3.85,0,0,0-2.78,0,3.49,3.49,0,0,0-1.16.76,3.62,3.62,0,0,0-.73,1.18,4,4,0,0,0,0,2.83,3.67,3.67,0,0,0,.73,1.19A3.31,3.31,0,0,0,23.7,14a3.85,3.85,0,0,0,2.78,0,3.31,3.31,0,0,0,1.16-.75,3.67,3.67,0,0,0,.73-1.19A4,4,0,0,0,28.63,10.69Z"/><path class="cls-1" d="M37.15,1.61a1.52,1.52,0,0,1-.5,1.13,1.7,1.7,0,0,1-1.21.48,1.66,1.66,0,0,1-1.2-.48,1.51,1.51,0,0,1-.49-1.13A1.52,1.52,0,0,1,34.24.48,1.66,1.66,0,0,1,35.44,0a1.7,1.7,0,0,1,1.21.48A1.53,1.53,0,0,1,37.15,1.61Zm-2.8,13.65.07-8.32a1,1,0,1,1,2,0l-.05,8.32c0,.7-.36,1-1,1A.91.91,0,0,1,34.35,15.26Z"/><path class="cls-1" d="M39.94,15.26l-.13-9.64c0-.61.32-.91,1-.91s1,.31,1,.93l0,1.85A3.66,3.66,0,0,1,45,5.17a4.16,4.16,0,0,1,4,1.9A11.05,11.05,0,0,1,50.26,13v2.26a1,1,0,1,1-2,0l0-2.68c0-3.67-1-5.51-3-5.51s-3,2.08-3.25,6.24l0,1.95a.89.89,0,0,1-1,1C40.27,16.3,39.94,16,39.94,15.26Z"/><path class="cls-1" d="M61.46,13a4.92,4.92,0,0,0,3.82,2.24,4.61,4.61,0,0,0,2.79-.7,2.22,2.22,0,0,0,1.12-1.87c0-.77-.57-1.41-1.69-1.93a18.67,18.67,0,0,0-2.79-.86q-4.44-1-4.86-3.66a4.18,4.18,0,0,1,.83-3.49A5,5,0,0,1,64.27.94a8.36,8.36,0,0,1,3.2.26,6.7,6.7,0,0,1,2.7,1.43A.86.86,0,0,1,70.3,4,.91.91,0,0,1,68.9,4a6.23,6.23,0,0,0-4.24-1.22c-1.84.21-2.79,1-2.86,2.47S63,7.59,65.42,8.11a13.33,13.33,0,0,1,4.23,1.56,3.33,3.33,0,0,1,1.56,3,3.83,3.83,0,0,1-1.77,3.29,6.78,6.78,0,0,1-4.13,1.18A6.52,6.52,0,0,1,59.75,14c-.44-.6-.38-1.1.15-1.48S60.94,12.32,61.46,13Z"/><path class="cls-1" d="M78.65,16.33a5.2,5.2,0,0,1-3.77-1.48A5.69,5.69,0,0,1,73.37,11a5.9,5.9,0,0,1,1.2-4.31A5.83,5.83,0,0,1,78,4.76a6.44,6.44,0,0,1,1.3-.13,5.44,5.44,0,0,1,2,.36,3.56,3.56,0,0,1,2.26,3.67,3.23,3.23,0,0,1-1.22,2.55,5.48,5.48,0,0,1-3.66,1,10.23,10.23,0,0,1-3.31-.6,3.36,3.36,0,0,0,1,1.95,3.26,3.26,0,0,0,2.21.83,7,7,0,0,0,3.82-.88c.66-.38,1.15-.3,1.48.26s.12,1-.6,1.4A8.83,8.83,0,0,1,78.65,16.33Zm.62-9.8a4.06,4.06,0,0,0-3,1.17,3.45,3.45,0,0,0-.94,2,7.16,7.16,0,0,0,2.76.65A4.85,4.85,0,0,0,80.78,10a1.5,1.5,0,0,0,.81-1.38,1.92,1.92,0,0,0-1.28-1.92A2.87,2.87,0,0,0,79.27,6.53Z"/><path class="cls-1" d="M86.6,15.31l-.12-9.64c0-.63.32-.94,1-.94s1,.32,1,1l0,1.62a4.26,4.26,0,0,1,2.68-1.59A5.16,5.16,0,0,1,95.6,6.79c.54.48.62,1,.23,1.45s-.9.53-1.5.08a3.64,3.64,0,0,0-2.66-.78,3.15,3.15,0,0,0-2.34,1.64,6.79,6.79,0,0,0-.75,2.65l0,3.48a.9.9,0,0,1-1,1C87,16.35,86.62,16,86.6,15.31Z"/><path class="cls-1" d="M101.53,15.68,97.29,6a.92.92,0,0,1,.5-1.38c.62-.26,1.08,0,1.37.65L102.47,13l3.14-7.64A1,1,0,0,1,107,4.68c.62.24.79.72.49,1.43l-4,9.54a1,1,0,0,1-1,.73A1,1,0,0,1,101.53,15.68Z"/><path class="cls-1" d="M113,1.61a1.49,1.49,0,0,1-.51,1.13,1.7,1.7,0,0,1-1.21.48,1.64,1.64,0,0,1-1.19-.48,1.52,1.52,0,0,1-.5-1.13,1.53,1.53,0,0,1,.5-1.13A1.64,1.64,0,0,1,111.25,0a1.7,1.7,0,0,1,1.21.48A1.51,1.51,0,0,1,113,1.61Zm-2.81,13.65.08-8.32a1,1,0,1,1,2,0l-.06,8.32c0,.7-.35,1-1,1A.92.92,0,0,1,110.16,15.26Z"/><path class="cls-1" d="M124,5.54a6,6,0,0,1,2.28,2.31.8.8,0,0,1-.39,1.25,1.06,1.06,0,0,1-1.43-.47A4.22,4.22,0,0,0,121,6.58,3.46,3.46,0,0,0,118,8a3.91,3.91,0,0,0-.78,2.36,3.89,3.89,0,0,0,1.14,3.1,4.09,4.09,0,0,0,2.73.91,3.86,3.86,0,0,0,3.69-2.19,1,1,0,0,1,1.22-.62c.73.21.93.68.6,1.43A5.84,5.84,0,0,1,125,15,6.3,6.3,0,0,1,121,16.25a5.64,5.64,0,0,1-4-1.4,5.61,5.61,0,0,1-1.74-3.62A6.08,6.08,0,0,1,116,7.38a5.65,5.65,0,0,1,5-2.65A6,6,0,0,1,124,5.54Z"/><path class="cls-1" d="M134.21,16.33a5.2,5.2,0,0,1-3.77-1.48A5.69,5.69,0,0,1,128.93,11a5.9,5.9,0,0,1,1.2-4.31,5.86,5.86,0,0,1,3.46-1.95,6.3,6.3,0,0,1,1.3-.13,5.42,5.42,0,0,1,2,.36,3.57,3.57,0,0,1,2.27,3.67A3.24,3.24,0,0,1,138,11.21a5.46,5.46,0,0,1-3.66,1,10.13,10.13,0,0,1-3.3-.6,3.18,3.18,0,0,0,3.22,2.78,7,7,0,0,0,3.82-.88c.66-.38,1.16-.3,1.48.26s.12,1-.59,1.4A8.89,8.89,0,0,1,134.21,16.33Zm.62-9.8a4.08,4.08,0,0,0-3,1.17,3.51,3.51,0,0,0-.94,2,7.21,7.21,0,0,0,2.76.65,4.83,4.83,0,0,0,2.65-.34,1.5,1.5,0,0,0,.81-1.38,1.92,1.92,0,0,0-1.28-1.92A2.84,2.84,0,0,0,134.83,6.53Z"/><circle class="cls-2" cx="90.43" cy="103.81" r="55.65"/><circle class="cls-2" cx="221.74" cy="103.81" r="55.65"/><circle class="cls-2" cx="353.04" cy="103.81" r="55.65"/><path class="cls-3" d="M56.72,94.18a.94.94,0,1,1,1.87-.07l.12,5,5.21-.09a.81.81,0,0,1,.93.86c0,.58-.27.87-.86.89l-5.86.12a1.1,1.1,0,0,1-1.27-1.18ZM68.33,111.7l-6.53.24c-.65,0-1-.23-1-.79l-.26-3.41a.79.79,0,0,1,.84-1l4.58-.17.1-2H61q-.93,0-.93-.87t1-.84h5.95A.89.89,0,0,1,68,104l-.31,3.55c0,.45-.35.68-.89.7l-4.44.14.14,1.9,5.81-.22c.67,0,1,.25,1,.8S69,111.67,68.33,111.7Zm-1-11v-7.2a.84.84,0,0,1,.94-1c.61,0,.91.32.91,1v2.67l2.21.09a.83.83,0,0,1,.89.94.8.8,0,0,1-.94.86l-2.16-.09v2.73c0,.64-.3,1-.91,1A.84.84,0,0,1,67.32,100.66Z"/><path class="cls-3" d="M78.27,99.46l-.89,3,1.49,1.18c.54.45.65.91.33,1.39s-.78.5-1.39,0l-1-.77-.68,2.31c-.22.76-.64,1.06-1.24.88s-.78-.64-.56-1.39L76.47,99c.22-.74.64-1,1.24-.79S78.46,98.79,78.27,99.46Zm5.16-.33-1.11,3.74L85,104.94c.56.43.66.87.29,1.32s-.85.45-1.44,0l-2.09-1.56-.65,2.16c-.22.74-.64,1-1.24.86s-.81-.62-.58-1.39l2.33-7.73c.2-.7.61-1,1.22-.79S83.62,98.44,83.43,99.13Zm5.45-1.35L89,107a.85.85,0,0,1-.94,1q-.92,0-.93-.93L87,97.81a.94.94,0,1,1,1.88,0Z"/><path class="cls-3" d="M98.09,98.38l3.94,2.43c.59.38.72.82.4,1.32s-.78.55-1.39.17l-3.91-2.48-1.75,2.57a.89.89,0,0,1-1.32.39c-.51-.31-.58-.75-.19-1.32l4.44-6.53L94,95q-1,0-1-.84c0-.56.33-.85,1-.86l5.09-.12a1.4,1.4,0,0,1,1.32.57,1.12,1.12,0,0,1,0,1.23Zm8,8.69a3.09,3.09,0,0,1-1,2.31,3.34,3.34,0,0,1-2.39.93,3.24,3.24,0,0,1-2.35-.93,3.28,3.28,0,0,1,0-4.64,3.24,3.24,0,0,1,2.35-.93,3.34,3.34,0,0,1,2.39.93A3.1,3.1,0,0,1,106.13,107.07Zm-1-5.28V98.53h-3.63a.87.87,0,1,1,0-1.73h3.63V93.87a.84.84,0,0,1,.93-1c.61,0,.92.32.92,1v7.92c0,.64-.31,1-.92,1A.84.84,0,0,1,105.1,101.79Zm-.79,5.28a1.45,1.45,0,0,0-.45-1.1,1.49,1.49,0,0,0-1.09-.43,1.43,1.43,0,0,0-1.06.43,1.58,1.58,0,0,0,0,2.17,1.4,1.4,0,0,0,1.06.44,1.52,1.52,0,0,0,1.54-1.51Z"/><path class="cls-3" d="M114.89,97.52l5.06-.07,0-1.42c0-.64.3-1,.91-1s.91.32.91,1l0,6.48a.8.8,0,0,1-.91.91H119v3.36H124c.64,0,1,.3,1,.89s-.32.91-1,.91H111.51c-.64,0-1-.3-1-.91s.32-.89,1-.89h5.64v-3.36H114a.82.82,0,0,1-.92-.93L113,96.06c0-.64.28-1,.89-1a.82.82,0,0,1,.94.91ZM120,99.2l-5,.07,0,2.43h5Z"/><path class="cls-3" d="M192.34,94.18l-1.08,3.08,4.92,3.26c.59.4.72.85.38,1.34s-.8.52-1.39.12l-4.53-2.92-1,2.73c-.26.71-.68,1-1.28.79s-.81-.65-.57-1.39l2.64-7.51c.25-.75.69-1,1.32-.79S192.56,93.53,192.34,94.18Zm7.46,15.56-6.52.14A1.08,1.08,0,0,1,192,108.7l-.09-4a.94.94,0,1,1,1.87-.07l.07,3.48,5.88-.07c.61,0,.92.26.94.84A.78.78,0,0,1,199.8,109.74Zm-1.17-7.18V93.87a.84.84,0,0,1,.93-1c.61,0,.92.32.92,1v3l2.2.09a.82.82,0,0,1,.89.94.79.79,0,0,1-.93.86l-2.16-.09v3.91c0,.64-.31,1-.92,1A.84.84,0,0,1,198.63,102.56Z"/><path class="cls-3" d="M209.86,91.83v2.23l.82,0a1.38,1.38,0,0,1,1.32.58,1.15,1.15,0,0,1-.05,1.22L210.1,98.6l3.26,2.06c.66.44.82.89.48,1.37s-.84.54-1.46.12l-3.24-2.06-1.46,2.18c-.42.61-.88.76-1.37.46s-.56-.77-.15-1.39l3.7-5.55-3.65.07c-.64,0-1-.27-1-.86s.32-.82,1-.84l1.78,0V91.83a.94.94,0,1,1,1.87,0Zm8.06,17.59-.12-3.74h-6c-.64,0-1-.3-1-.89s.32-.86,1-.86h6.65a1.06,1.06,0,0,1,1.2,1.13l.11,4.32a.79.79,0,0,1-.88.93A.85.85,0,0,1,217.92,109.42Zm1.3-11.13h-2.35v2.59c0,.64-.31,1-.91,1s-.92-.32-.92-1V93.75c0-.64.31-1,.92-1s.91.32.91,1v2.81h2.35V93.75c0-.64.3-1,.91-1s.91.32.91,1V101c0,.64-.3,1-.91,1s-.91-.32-.91-1Z"/><path class="cls-3" d="M225.53,98.6l5,.07c1,0,1.38.55,1.25,1.59l-.91,6.74a.83.83,0,0,1-1.06.79.81.81,0,0,1-.81-1.05l.84-6.32-4.4-.07c-.64,0-.95-.32-.93-.91S224.89,98.58,225.53,98.6Zm12.53-.82.14,9.22a.84.84,0,0,1-.93,1c-.61,0-.92-.29-.94-.93l-.14-9.24a.94.94,0,1,1,1.87,0Z"/><path class="cls-3" d="M252.94,100.06l-3.1.1v2.54h5.26c.64,0,1,.3,1,.89s-.32.91-1,.91H242.72c-.64,0-1-.3-1-.91s.32-.89,1-.89H248v-2.47l-2.33.07c-.61,0-.92-.24-.93-.79l-.12-3.09c0-.64.29-1,1-1l5.11-.17,0-1.54h-5.72c-.64,0-1-.28-1-.86s.32-.84,1-.84h6.58a.92.92,0,0,1,1,1.06V96a.82.82,0,0,1-.89.92l-5.18.14,0,1.51,6.41-.14q.95,0,1,.81C253.87,99.77,253.56,100.05,252.94,100.06Zm-1.2,12.15-.12-3.65h-6c-.64,0-1-.3-1-.89s.32-.86,1-.86h6.62a1.05,1.05,0,0,1,1.2,1.13l.12,4.22a.81.81,0,0,1-.89.94A.84.84,0,0,1,251.74,112.21Z"/><path class="cls-3" d="M338.81,106.78h5.93v-3.36a.94.94,0,1,1,1.87,0v3.36h4.66c.64,0,1,.3,1,.89s-.32.91-1,.91H338.81c-.64,0-1-.3-1-.91S338.17,106.78,338.81,106.78Zm6.53-11.37-.89,2.21,6.05,3.45c.65.39.83.83.53,1.35s-.79.56-1.47.16l-5.78-3.31-1.7,4.15c-.31.74-.76,1-1.35.8s-.71-.67-.41-1.42l3.29-8c.29-.68.71-.92,1.27-.72S345.6,94.74,345.34,95.41Z"/><path class="cls-3" d="M363.82,97l-5.5.07,0,1.46,6.5-.07q1,0,1,.84a.8.8,0,0,1-.89.91l-3.12,0v2.86h5.25c.64,0,1,.29,1,.89s-.32.91-1,.91H354.7c-.64,0-1-.31-1-.91s.32-.89,1-.89H360v-2.83l-2.16,0c-.84,0-1.26-.37-1.28-1.17l-.12-6a.93.93,0,0,1,1-1.06l6.48,0q.93,0,1,.81c0,.58-.3.87-.94.87l-5.66.07,0,1.63,5.47,0c.66,0,1,.27,1,.82S364.44,97,363.82,97Zm1.06,12.74a3.11,3.11,0,0,1-1,2.38,3.71,3.71,0,0,1-5,0,3.26,3.26,0,0,1,0-4.74,3.69,3.69,0,0,1,5,0A3.11,3.11,0,0,1,364.88,109.71Zm-1.85,0a1.53,1.53,0,0,0-.48-1.14,1.66,1.66,0,0,0-1.2-.47,1.62,1.62,0,0,0-1.19.47,1.62,1.62,0,0,0,0,2.28,1.62,1.62,0,0,0,1.19.47,1.66,1.66,0,0,0,1.2-.47A1.53,1.53,0,0,0,363,109.71Z"/><path class="cls-4" d="M51.75,182.31a.63.63,0,1,1,1.25-.05l.08,3.36,3.47-.06c.4,0,.61.19.62.57a.51.51,0,0,1-.57.59l-3.91.08a.73.73,0,0,1-.85-.78ZM59.49,194l-4.35.16c-.44,0-.67-.16-.69-.53l-.17-2.27a.53.53,0,0,1,.56-.66l3-.11.07-1.34H54.58c-.42,0-.62-.2-.62-.58s.21-.56.64-.56h4a.6.6,0,0,1,.68.72L59,191.19c0,.3-.23.45-.59.46l-3,.1.09,1.26,3.87-.14c.45,0,.69.16.71.53S60,194,59.49,194Zm-.67-7.36v-4.8a.56.56,0,0,1,.62-.64c.41,0,.61.21.61.64v1.77l1.47.07a.55.55,0,0,1,.6.62.54.54,0,0,1-.63.58l-1.44-.07v1.83c0,.43-.2.64-.61.64A.56.56,0,0,1,58.82,186.63Z"/><path class="cls-4" d="M66.12,185.83l-.6,2,1,.78c.36.3.43.61.22.93s-.52.33-.93,0l-.65-.51-.45,1.54c-.15.51-.43.71-.83.59s-.52-.43-.37-.93l1.41-4.77c.14-.49.42-.66.83-.53S66.24,185.38,66.12,185.83Zm3.44-.23-.74,2.5,1.79,1.38c.37.28.44.58.19.88s-.56.3-1,0l-1.39-1L68,190.77c-.15.49-.43.69-.83.58s-.54-.42-.39-.93l1.55-5.15c.14-.47.42-.65.82-.53S69.68,185.15,69.56,185.6Zm3.63-.89.09,6.14a.56.56,0,0,1-.62.66c-.41,0-.61-.2-.62-.63l-.1-6.16a.63.63,0,1,1,1.25,0Z"/><path class="cls-4" d="M83.38,185.11,86,186.72c.4.26.49.55.27.88s-.52.37-.92.12l-2.61-1.65-1.17,1.71a.6.6,0,0,1-.88.26c-.34-.21-.38-.5-.13-.88l3-4.36-2.88,0c-.42,0-.64-.18-.64-.56s.23-.56.68-.57l3.39-.08A.93.93,0,0,1,85,182a.76.76,0,0,1,0,.82Zm5.36,5.79a2.07,2.07,0,0,1-.65,1.54,2.22,2.22,0,0,1-1.59.62,2.19,2.19,0,0,1-1.57-.62,2.18,2.18,0,0,1,0-3.09,2.16,2.16,0,0,1,1.57-.63,2.19,2.19,0,0,1,1.59.63A2.06,2.06,0,0,1,88.74,190.9Zm-.69-3.52V185.2H85.64q-.6,0-.6-.57c0-.39.2-.58.6-.58h2.41v-2a.56.56,0,0,1,.63-.64c.4,0,.6.21.6.64v5.28c0,.43-.2.64-.6.64A.56.56,0,0,1,88.05,187.38Zm-.53,3.52a1,1,0,0,0-.29-.74,1,1,0,0,0-.73-.28,1,1,0,0,0-.71.28,1,1,0,0,0-.28.74,1,1,0,0,0,1,1,1,1,0,0,0,.73-.3A1,1,0,0,0,87.52,190.9Z"/><path class="cls-4" d="M94.58,184.53l3.38-.05,0-.94c0-.43.2-.64.61-.64s.61.21.61.64l0,4.32a.54.54,0,0,1-.61.61H97.33v2.24h3.3c.42,0,.64.2.64.59s-.22.61-.64.61H92.32c-.42,0-.64-.2-.64-.61s.22-.59.64-.59h3.76v-2.24H94q-.6,0-.6-.63l-.05-4.28c0-.43.18-.65.59-.66a.54.54,0,0,1,.62.61ZM98,185.65l-3.36,0v1.62H98Z"/><path class="cls-4" d="M110.58,181v1.25h1.58c.43,0,.64.19.64.56s-.21.58-.64.58h-.57a2,2,0,0,1,.6,1.47,2,2,0,0,1-.65,1.52,2.25,2.25,0,0,1-.87.5V188h2.15c.43,0,.64.19.64.59s-.21.61-.64.61h-5.55c-.43,0-.64-.21-.64-.61s.21-.59.64-.59h2.16V186.9a2.12,2.12,0,0,1-1.14-.56,2,2,0,0,1-.67-1.52,2,2,0,0,1,.61-1.47h-.72c-.43,0-.64-.19-.64-.58s.21-.56.64-.56h1.82V181a.63.63,0,1,1,1.25,0Zm.4,3.76a1,1,0,0,0-.31-.77,1,1,0,0,0-.76-.31,1,1,0,0,0-.77.31,1.12,1.12,0,0,0,0,1.55,1,1,0,0,0,.77.31,1,1,0,0,0,.76-.31A1.06,1.06,0,0,0,111,184.72Zm3,9.25-.08-2.54h-3.84c-.43,0-.64-.2-.64-.59s.21-.58.64-.58h4.28a.7.7,0,0,1,.8.75l.08,2.93c0,.41-.18.61-.59.62A.55.55,0,0,1,114,194Zm1.64-11.07,0,1.9H117c.43,0,.64.2.64.6s-.21.6-.64.6h-1.36l0,2.53c0,.44-.2.66-.62.66a.55.55,0,0,1-.62-.63l-.08-5.64a.62.62,0,1,1,1.24,0Z"/><path class="cls-4" d="M124.35,184.88a2.41,2.41,0,0,1-.72,1.78,2.7,2.7,0,0,1-3.67,0,2.42,2.42,0,0,1-.73-1.78,2.45,2.45,0,0,1,.73-1.78,2.67,2.67,0,0,1,3.67,0A2.44,2.44,0,0,1,124.35,184.88Zm-1.2,0a1.29,1.29,0,0,0-.38-1,1.3,1.3,0,0,0-1-.39,1.27,1.27,0,0,0-1,.39,1.33,1.33,0,0,0-.38,1,1.3,1.3,0,0,0,1.34,1.35,1.33,1.33,0,0,0,1-.38A1.27,1.27,0,0,0,123.15,184.88Zm4.77,7.8-4.51.09a.72.72,0,0,1-.85-.78l-.06-2.69a.56.56,0,0,1,.61-.66.56.56,0,0,1,.64.61l0,2.32,4.09,0a.53.53,0,0,1,.62.56A.52.52,0,0,1,127.92,192.68Zm-.78-4.79V182.1a.56.56,0,0,1,.62-.64c.41,0,.61.21.61.64v5.79c0,.43-.2.64-.61.64A.56.56,0,0,1,127.14,187.89Z"/><path class="cls-4" d="M187.37,182.31l-.72,2.05,3.28,2.17c.4.27.48.57.26.9s-.54.35-.93.08l-3-1.95-.64,1.82c-.18.47-.46.65-.85.53s-.55-.44-.39-.93l1.76-5c.17-.5.47-.68.88-.53S187.52,181.87,187.37,182.31Zm5,10.37-4.35.09c-.56,0-.84-.24-.85-.78l-.07-2.69a.57.57,0,0,1,.61-.66.55.55,0,0,1,.64.61l0,2.32,3.92,0a.53.53,0,0,1,.62.56A.52.52,0,0,1,192.35,192.68Zm-.79-4.79V182.1a.56.56,0,0,1,.63-.64c.4,0,.61.21.61.64v2l1.47.07a.55.55,0,0,1,.59.62.53.53,0,0,1-.62.58l-1.44-.07v2.61c0,.43-.21.64-.61.64A.56.56,0,0,1,191.56,187.89Z"/><path class="cls-4" d="M199.05,180.74v1.49l.55,0a.92.92,0,0,1,.88.39.77.77,0,0,1,0,.81l-1.23,1.84,2.18,1.38c.43.29.54.59.32.91s-.56.36-1,.08l-2.16-1.38-1,1.46c-.28.41-.59.51-.92.3s-.37-.51-.09-.92l2.46-3.7-2.43.05c-.43,0-.64-.18-.64-.58s.21-.55.64-.56l1.18,0v-1.52a.63.63,0,1,1,1.25,0Zm5.38,11.73-.08-2.5h-4c-.42,0-.64-.19-.64-.59s.22-.58.64-.58h4.44a.72.72,0,0,1,.8.76l.08,2.88a.54.54,0,0,1-.6.62A.56.56,0,0,1,204.43,192.47Zm.86-7.43h-1.57v1.73c0,.43-.2.64-.6.64s-.61-.21-.61-.64V182c0-.43.2-.64.61-.64s.6.21.6.64v1.87h1.57V182c0-.43.2-.64.61-.64s.61.21.61.64v4.82a.56.56,0,0,1-.61.64c-.41,0-.61-.22-.61-.64Z"/><path class="cls-4" d="M212.91,189.12h8c.43,0,.64.2.64.6s-.21.6-.64.6h-1.58v3.11a.56.56,0,0,1-.61.64.56.56,0,0,1-.63-.64v-3.11H216.4v3.11a.56.56,0,0,1-.61.64.56.56,0,0,1-.63-.64v-3.11h-2.25a.6.6,0,0,1,0-1.2Zm6.78-4.11a2.56,2.56,0,0,1-2.67,2.61,2.54,2.54,0,0,1-1.92-.76,2.68,2.68,0,0,1,0-3.7,2.51,2.51,0,0,1,1.92-.77,2.55,2.55,0,0,1,1.93.77A2.58,2.58,0,0,1,219.69,185Zm-1.23,0a1.44,1.44,0,0,0-.4-1,1.4,1.4,0,0,0-1-.41,1.36,1.36,0,0,0-1,.41,1.48,1.48,0,0,0-.39,1,1.44,1.44,0,0,0,.39,1,1.33,1.33,0,0,0,1,.42,1.37,1.37,0,0,0,1-.42A1.41,1.41,0,0,0,218.46,185Z"/><path class="cls-4" d="M223.63,189.12h8c.43,0,.64.2.64.6s-.21.6-.64.6H228.6v3.14c0,.43-.2.64-.62.64a.56.56,0,0,1-.63-.64v-3.14h-3.72a.6.6,0,0,1,0-1.2Zm1.15-2.16-.22-3.72c0-.53.17-.79.6-.79h4.58c.49,0,.74.27.74.8v3.68a.54.54,0,0,1-.61.61h-4.56C225,187.54,224.81,187.35,224.78,187Zm1-3.34.17,2.77h3.3v-2.77Z"/><path class="cls-4" d="M240.75,183.22v1.86l.54,0a.92.92,0,0,1,.88.38.76.76,0,0,1,0,.82l-1.3,2.18,2.31,1.61c.4.29.48.59.24.91s-.56.34-.95,0l-2.19-1.55-.94,1.58c-.26.44-.56.56-.92.37s-.37-.48-.14-.91l2.5-4.27-2.44.05c-.42,0-.64-.18-.64-.58s.22-.55.64-.56l1.19,0v-1.89a.63.63,0,1,1,1.25,0Zm3.81,7.52,0-2.22h-1.65c-.43,0-.64-.2-.64-.58s.21-.58.64-.58h1.65l0-2.51a.56.56,0,0,1,.61-.64c.41,0,.61.22.61.64l0,5.89c0,.43-.2.64-.61.64S244.56,191.17,244.56,190.74Zm2.46.13v-6.15c0-.42.2-.64.61-.64s.6.22.6.64v6.15c0,.42-.2.64-.6.64S247,191.29,247,190.87Z"/><path class="cls-4" d="M258.86,190.63c.43,0,.64.2.64.59s-.21.61-.64.61h-8.3c-.43,0-.65-.2-.65-.61s.22-.59.65-.59Zm-6.8-4.67,4,0,.1-1.5H251.9c-.43,0-.64-.2-.64-.59s.21-.58.64-.58h4.78c.55,0,.8.28.76.83l-.34,4.29c0,.44-.25.64-.66.61s-.59-.27-.56-.72l.08-1.2-3.9,0c-.43,0-.64-.19-.64-.56S251.63,186,252.06,186Z"/><path class="cls-4" d="M310.9,183.49l3-.05,0-1c0-.43.2-.64.61-.64s.61.21.61.64l0,4.43a.54.54,0,0,1-.61.61h-4.18q-.6,0-.6-.63l-.05-4.4c0-.42.18-.64.59-.65a.54.54,0,0,1,.62.6Zm3,1.12-3,0v1.66h3Zm3.69,8.07-4.35.09a.72.72,0,0,1-.85-.78l-.06-2.69a.56.56,0,0,1,.61-.66.56.56,0,0,1,.64.61l0,2.32,3.92,0c.41,0,.62.18.63.56A.52.52,0,0,1,317.57,192.68Zm-.78-4.79V182.1a.56.56,0,0,1,.62-.64c.41,0,.61.21.61.64v2l1.47.07a.54.54,0,0,1,.59.62.53.53,0,0,1-.62.58l-1.44-.07v2.61c0,.43-.2.64-.61.64A.56.56,0,0,1,316.79,187.89Z"/><path class="cls-4" d="M327.51,190.82l-4.4.14q-.64,0-.69-.48l-.18-2.78a.56.56,0,0,1,.6-.69l3-.11v-1.78h-3.3c-.43,0-.64-.19-.64-.57s.21-.56.64-.56h3.75c.51,0,.76.23.76.7v2.83c0,.3-.2.46-.59.48l-3,.1.1,1.7,3.92-.1c.43,0,.64.18.66.56S327.92,190.81,327.51,190.82Zm3.41-6.11.09,6.14a.57.57,0,0,1-.62.66q-.61,0-.63-.63l0-1.76H328.2c-.43,0-.64-.19-.64-.57s.21-.56.64-.56h1.52l0-1.14h-1.5c-.43,0-.64-.19-.64-.57s.21-.56.64-.56h1.48v-1a.55.55,0,0,1,.62-.64A.56.56,0,0,1,330.92,184.71Z"/><path class="cls-4" d="M334.71,182l3.44,0c.64,0,.91.37.83,1.06l-.51,3.87c-.06.42-.28.61-.69.56a.56.56,0,0,1-.56-.7l.46-3.62-3,0q-.65,0-.63-.6C334.06,182.13,334.28,182,334.71,182Zm8.05,10.72-4.52.09a.71.71,0,0,1-.84-.78l-.07-2.69a.56.56,0,0,1,.61-.66.55.55,0,0,1,.64.61l.05,2.32,4.08,0a.53.53,0,0,1,.62.56A.52.52,0,0,1,342.76,192.68Zm-.79-4.79v-1.61h-1.82c-.43,0-.64-.19-.64-.56s.21-.56.64-.56H342v-1.09h-1.85c-.43,0-.64-.19-.64-.56s.21-.56.64-.56H342v-.85a.56.56,0,0,1,.63-.64c.4,0,.6.21.6.64v5.79c0,.43-.2.64-.6.64A.56.56,0,0,1,342,187.89Z"/><path class="cls-4" d="M353.51,185.11l2.62,1.61c.4.26.49.55.27.88s-.52.37-.92.12l-2.61-1.65-1.17,1.71c-.25.37-.54.46-.88.26s-.38-.5-.13-.88l3-4.36-2.88,0c-.42,0-.64-.18-.64-.56s.23-.56.67-.57l3.4-.08a.93.93,0,0,1,.88.38.76.76,0,0,1,0,.82Zm5.36,5.79a2.07,2.07,0,0,1-.65,1.54,2.22,2.22,0,0,1-1.59.62,2.19,2.19,0,0,1-1.57-.62,2.18,2.18,0,0,1,0-3.09,2.16,2.16,0,0,1,1.57-.63,2.19,2.19,0,0,1,1.59.63A2.06,2.06,0,0,1,358.87,190.9Zm-.69-3.52V185.2h-2.42a.58.58,0,1,1,0-1.15h2.42v-2a.56.56,0,0,1,.62-.64c.41,0,.61.21.61.64v5.28c0,.43-.2.64-.61.64A.56.56,0,0,1,358.18,187.38Zm-.53,3.52a1,1,0,0,0-.29-.74,1,1,0,0,0-.73-.28,1,1,0,0,0-.71.28,1,1,0,0,0-.28.74,1,1,0,0,0,1,1,1,1,0,0,0,.73-.3A1,1,0,0,0,357.65,190.9Z"/><path class="cls-4" d="M364.71,184.53l3.37-.05v-.94c0-.43.2-.64.61-.64s.6.21.6.64l0,4.32a.54.54,0,0,1-.61.61h-1.25v2.24h3.3c.42,0,.64.2.64.59s-.22.61-.64.61h-8.31c-.43,0-.64-.2-.64-.61s.21-.59.64-.59h3.76v-2.24h-2.08a.55.55,0,0,1-.61-.63l0-4.28c0-.43.18-.65.59-.66a.54.54,0,0,1,.62.61Zm3.37,1.12-3.36,0,0,1.62h3.36Z"/><path class="cls-4" d="M377.22,187.59h2.66V185a.62.62,0,1,1,1.23,0v2.55h4.35c.43,0,.64.2.64.59s-.21.61-.64.61h-8.24c-.43,0-.64-.2-.64-.61S376.79,187.59,377.22,187.59Zm1.49-5.94h4.49c.55,0,.8.28.76.83l-.29,3.28c0,.44-.25.64-.66.61s-.59-.27-.56-.72l.21-2.83h-4c-.43,0-.64-.2-.64-.59S378.28,181.65,378.71,181.65Zm5.23,10.74a2.05,2.05,0,0,1-.19.88,2.52,2.52,0,0,1-.51.73,2.49,2.49,0,0,1-.75.49,2.23,2.23,0,0,1-1.8,0A2.29,2.29,0,0,1,380,194a2.37,2.37,0,0,1-.52-.73,2.13,2.13,0,0,1,0-1.76,2.54,2.54,0,0,1,.52-.74,2.67,2.67,0,0,1,.73-.49,2.34,2.34,0,0,1,1.8,0,2.94,2.94,0,0,1,.75.49,2.71,2.71,0,0,1,.51.74A2.05,2.05,0,0,1,383.94,192.39Zm-1.23,0a1.16,1.16,0,0,0-.31-.8,1,1,0,0,0-.81-.34,1,1,0,0,0-.8.34,1.12,1.12,0,0,0-.31.8,1.13,1.13,0,0,0,.31.8,1,1,0,0,0,.8.33,1.07,1.07,0,0,0,.81-.33A1.18,1.18,0,0,0,382.71,192.39Z"/><path class="cls-4" d="M387.94,189.12h8c.43,0,.64.2.64.6s-.21.6-.64.6h-1.58v3.11a.56.56,0,0,1-.61.64.56.56,0,0,1-.63-.64v-3.11h-1.72v3.11a.56.56,0,0,1-.61.64.56.56,0,0,1-.63-.64v-3.11h-2.25a.6.6,0,0,1,0-1.2Zm6.78-4.11a2.53,2.53,0,0,1-.74,1.85,2.58,2.58,0,0,1-1.93.76A2.55,2.55,0,0,1,389.4,185a2.57,2.57,0,0,1,.73-1.85,2.51,2.51,0,0,1,1.92-.77,2.58,2.58,0,0,1,2.67,2.62Zm-1.23,0a1.44,1.44,0,0,0-.4-1,1.4,1.4,0,0,0-1-.41,1.36,1.36,0,0,0-1,.41,1.48,1.48,0,0,0-.39,1,1.44,1.44,0,0,0,.39,1,1.33,1.33,0,0,0,1,.42,1.37,1.37,0,0,0,1-.42A1.41,1.41,0,0,0,393.49,185Z"/><rect class="cls-5" y="27.66" width="3" height="1"/><path class="cls-5" d="M399.69,28.66h-6v-1h6Zm-12,0h-6v-1h6Zm-12,0h-6v-1h6Zm-12,0h-6v-1h6Zm-12,0h-6v-1h6Zm-12,0h-6v-1h6Zm-12,0h-6v-1h6Zm-12,0h-6v-1h6Zm-12,0h-6v-1h6Zm-12,0h-6v-1h6Zm-12,0h-6v-1h6Zm-12,0h-6v-1h6Zm-12,0h-6v-1h6Zm-12,0h-6v-1h6Zm-12,0h-6v-1h6Zm-12,0h-6v-1h6Zm-12,0h-6v-1h6Zm-12,0h-6v-1h6Zm-12,0h-6v-1h6Zm-12,0h-6v-1h6Zm-12,0h-6v-1h6Zm-12,0h-6v-1h6Zm-12,0h-6v-1h6Zm-12,0h-6v-1h6Zm-12,0h-6v-1h6Zm-12,0h-6v-1h6Zm-12,0h-6v-1h6Zm-12,0h-6v-1h6Zm-12,0h-6v-1h6Zm-12,0h-6v-1h6Zm-12,0h-6v-1h6Zm-12,0H21v-1h6Zm-12,0H9v-1h6Z"/><rect class="cls-5" x="405.7" y="27.66" width="3" height="1"/></g></g></svg>