<svg xmlns="http://www.w3.org/2000/svg" viewBox="0 0 171 169.43"><g id="Layer_2" data-name="Layer 2"><g id="Layer_1-2" data-name="Layer 1"><path d="M7.84,70a.66.66,0,0,1,.55-.3.7.7,0,0,1,.53.26,1.44,1.44,0,0,1,.25.89v9.65A6.24,6.24,0,0,1,11,78a4.32,4.32,0,0,1,2.62-.81c1.86,0,3.32,1.08,4.39,3.26a16.65,16.65,0,0,1,1.44,7.35A16.41,16.41,0,0,1,18,95q-1.61,3.27-4.39,3.27a4.4,4.4,0,0,1-2.84-1,5.17,5.17,0,0,1-1.61-2.16V96.7a1.39,1.39,0,0,1-.25.86.83.83,0,0,1-.53.33.65.65,0,0,1-.53-.26,1.56,1.56,0,0,1-.25-.93V71A1.64,1.64,0,0,1,7.84,70Zm2.39,11.8a14.12,14.12,0,0,0-1.06,5.9,14,14,0,0,0,1.06,5.87q1.17,2.63,3.39,2.63c1.37,0,2.44-.88,3.21-2.63a14.56,14.56,0,0,0,1-5.87,14.65,14.65,0,0,0-1-5.9c-.78-1.75-1.86-2.63-3.21-2.63S11,80.07,10.23,81.82Z"/><path d="M30.27,78.37a5.8,5.8,0,0,1,1.45,4.34V94.48a1.7,1.7,0,0,0,.23,1,.79.79,0,0,0,.7.37.61.61,0,0,1,.51.3,1.75,1.75,0,0,1,.2.74,1.36,1.36,0,0,1-.18.71.62.62,0,0,1-.55.33,2.9,2.9,0,0,1-2-.52,2.35,2.35,0,0,1-.45-1.63,6.27,6.27,0,0,1-1.71,1.7,5.29,5.29,0,0,1-3,.86,4,4,0,0,1-3.42-1.56A6.82,6.82,0,0,1,21,92.55a7.57,7.57,0,0,1,.78-3.79,5.83,5.83,0,0,1,4.19-2.49,9.26,9.26,0,0,0,3.47-1.18,2.68,2.68,0,0,0,.76-2.19,4,4,0,0,0-.83-2.75,3.42,3.42,0,0,0-2.64-1,3,3,0,0,0-2.57,1.11,5.07,5.07,0,0,0-.87,2.82,1.19,1.19,0,0,1-.33.74.61.61,0,0,1-.55.23.7.7,0,0,1-.51-.38,1.25,1.25,0,0,1-.15-.89,7.44,7.44,0,0,1,1.61-4.3,4.42,4.42,0,0,1,3.39-1.37A4.92,4.92,0,0,1,30.27,78.37Zm-.1,8.2a3.49,3.49,0,0,1-1.24.86,14.44,14.44,0,0,1-3,.85,4.17,4.17,0,0,0-2.66,1.41,4.52,4.52,0,0,0-.76,2.86,4.34,4.34,0,0,0,.71,2.71,2.65,2.65,0,0,0,2.26,1,4.67,4.67,0,0,0,3-1,5.3,5.3,0,0,0,1.69-2.38Z"/><path d="M34.8,77.74a.68.68,0,0,1,.56-.3.64.64,0,0,1,.52.3,1.43,1.43,0,0,1,.26.89v2.3A6.94,6.94,0,0,1,38,78.15a4.14,4.14,0,0,1,2.77-1A3.7,3.7,0,0,1,44,79,7,7,0,0,1,45.11,83V97.07a1.62,1.62,0,0,1-.26.93.64.64,0,0,1-.52.3.69.69,0,0,1-.56-.3,1.78,1.78,0,0,1-.22-.93V83a4.64,4.64,0,0,0-.71-2.64,2.37,2.37,0,0,0-2.08-1.18A3.54,3.54,0,0,0,38.2,80.3a9.36,9.36,0,0,0-2.06,3.53V97a1.67,1.67,0,0,1-.26,1,.79.79,0,0,1-.52.34A.68.68,0,0,1,34.8,98a1.64,1.64,0,0,1-.22-.93V78.63A1.56,1.56,0,0,1,34.8,77.74Z"/><path d="M48.19,77.74a.66.66,0,0,1,.55-.3.66.66,0,0,1,.53.3,1.49,1.49,0,0,1,.25.89v2.3a6.85,6.85,0,0,1,1.86-2.78,4.13,4.13,0,0,1,2.76-1A3.7,3.7,0,0,1,57.38,79,7,7,0,0,1,58.49,83V97.07a1.69,1.69,0,0,1-.25.93.66.66,0,0,1-.53.3.66.66,0,0,1-.55-.3,1.78,1.78,0,0,1-.23-.93V83a4.63,4.63,0,0,0-.7-2.64,2.39,2.39,0,0,0-2.09-1.18,3.56,3.56,0,0,0-2.56,1.11,9.36,9.36,0,0,0-2.06,3.53V97a1.75,1.75,0,0,1-.25,1,.81.81,0,0,1-.53.34.66.66,0,0,1-.55-.34,1.64,1.64,0,0,1-.23-.93V78.63A1.56,1.56,0,0,1,48.19,77.74Z"/><path d="M70.77,91.25a.63.63,0,0,1,.62,0,.87.87,0,0,1,.43.56,1.84,1.84,0,0,1,0,1,8.89,8.89,0,0,1-2.11,4,4.46,4.46,0,0,1-3.32,1.45q-2.69,0-4.27-3.27a16.7,16.7,0,0,1-1.43-7.27,17.08,17.08,0,0,1,1.43-7.35c1.06-2.18,2.48-3.26,4.27-3.26s3.23,1.08,4.3,3.26a16.78,16.78,0,0,1,1.46,7.35v.59H62.27a14,14,0,0,0,1.08,5.31c.76,1.71,1.77,2.56,3,2.56a3.06,3.06,0,0,0,2.52-1.3A8.84,8.84,0,0,0,70.29,92,1.31,1.31,0,0,1,70.77,91.25Zm-.28-5a12.61,12.61,0,0,0-1.08-4.63c-.77-1.64-1.78-2.45-3-2.45s-2.23.8-3,2.41a12.49,12.49,0,0,0-1.08,4.67Z"/><path d="M74.62,77.7a.73.73,0,0,1,.56-.26.71.71,0,0,1,.52.23,1.19,1.19,0,0,1,.26.81V80a6.38,6.38,0,0,1,1.35-2,3.07,3.07,0,0,1,2.16-.89c.37,0,.57.37.58,1.11s-.18,1.15-.6,1.15a3.06,3.06,0,0,0-2.19.93A5.17,5.17,0,0,0,76,82.6V97.07a1.43,1.43,0,0,1-.26.89.64.64,0,0,1-.52.3.68.68,0,0,1-.56-.3,1.56,1.56,0,0,1-.22-.89V78.48A1.26,1.26,0,0,1,74.62,77.7Z"/><path d="M99.71,96.78a1.62,1.62,0,0,1-.28.92.61.61,0,0,1-.53.26.76.76,0,0,1-.53-.33,1.49,1.49,0,0,1-.22-.85v-1.6a5.78,5.78,0,0,1-1.61,2.19,4.21,4.21,0,0,1-2.74,1q-2.89,0-4.5-3.3a16.4,16.4,0,0,1-1.43-7.27,16.5,16.5,0,0,1,1.43-7.31q1.61-3.27,4.5-3.27a3.93,3.93,0,0,1,2.49.82,6.39,6.39,0,0,1,1.86,2.56V71a1.56,1.56,0,0,1,.22-.89.73.73,0,0,1,.56-.26.64.64,0,0,1,.52.3,1.48,1.48,0,0,1,.26.92ZM90.48,81.9a14.76,14.76,0,0,0-1,5.9,14.68,14.68,0,0,0,1,5.86c.79,1.76,1.9,2.63,3.32,2.63s2.51-.87,3.29-2.63a14.15,14.15,0,0,0,1.06-5.86,14.22,14.22,0,0,0-1.06-5.9c-.78-1.76-1.88-2.64-3.29-2.64S91.27,80.14,90.48,81.9Z"/><path d="M111.91,91.25a.65.65,0,0,1,.63,0,.86.86,0,0,1,.42.56,1.84,1.84,0,0,1,0,1,8.79,8.79,0,0,1-2.11,4,4.46,4.46,0,0,1-3.32,1.45q-2.69,0-4.27-3.27a16.7,16.7,0,0,1-1.43-7.27,17.08,17.08,0,0,1,1.43-7.35c1.06-2.18,2.48-3.26,4.27-3.26s3.23,1.08,4.3,3.26a16.78,16.78,0,0,1,1.46,7.35v.59h-9.88a14,14,0,0,0,1.08,5.31c.76,1.71,1.77,2.56,3,2.56a3.06,3.06,0,0,0,2.52-1.3A8.84,8.84,0,0,0,111.43,92,1.31,1.31,0,0,1,111.91,91.25Zm-.28-5a12.61,12.61,0,0,0-1.08-4.63c-.77-1.64-1.78-2.45-3-2.45s-2.23.8-3,2.41a12.49,12.49,0,0,0-1.08,4.67Z"/><path d="M123.61,78.74a6.31,6.31,0,0,1,1.23,3.64,1.45,1.45,0,0,1-.23.89.93.93,0,0,1-.58.37.65.65,0,0,1-.57-.22,1.24,1.24,0,0,1-.31-.82,3.81,3.81,0,0,0-.9-2.49,3.32,3.32,0,0,0-2.54-.92,3,3,0,0,0-2.13.78,2.91,2.91,0,0,0-.86,2.15,3.62,3.62,0,0,0,.75,2.41,7.45,7.45,0,0,0,3,1.74,7.23,7.23,0,0,1,3.72,2.42,6.46,6.46,0,0,1,1,3.89,6.17,6.17,0,0,1-1.23,4,4.56,4.56,0,0,1-3.82,1.71,4.82,4.82,0,0,1-3.82-1.52,6.8,6.8,0,0,1-1.41-4.42,1.24,1.24,0,0,1,.23-.85.61.61,0,0,1,.53-.3.63.63,0,0,1,.55.22,1.15,1.15,0,0,1,.27.78,4.49,4.49,0,0,0,.83,2.93,3.47,3.47,0,0,0,2.84,1.08,3.22,3.22,0,0,0,2.57-1.08,3.71,3.71,0,0,0,.88-2.59,3.49,3.49,0,0,0-.76-2.38,7.93,7.93,0,0,0-3.37-2,7.15,7.15,0,0,1-3.24-2.15,5.71,5.71,0,0,1-1.1-3.67,5.44,5.44,0,0,1,1.33-3.9,4.3,4.3,0,0,1,3.29-1.33A4.71,4.71,0,0,1,123.61,78.74Z"/><path d="M129.48,70.32a2.75,2.75,0,0,1,.32,1.37,2.58,2.58,0,0,1-.32,1.3,1.05,1.05,0,0,1-.93.59,1,1,0,0,1-.93-.59,2.48,2.48,0,0,1-.31-1.3,2.75,2.75,0,0,1,.31-1.37,1,1,0,0,1,.93-.6A1.06,1.06,0,0,1,129.48,70.32ZM128,77.41a.68.68,0,0,1,.56-.3.72.72,0,0,1,.55.26,1.22,1.22,0,0,1,.25.82V97.07a1.42,1.42,0,0,1-.25.89.65.65,0,0,1-.55.34A.68.68,0,0,1,128,98a1.78,1.78,0,0,1-.22-.93V78.19A1.15,1.15,0,0,1,128,77.41Z"/><path d="M132.4,77.74a.68.68,0,0,1,.56-.3.64.64,0,0,1,.52.3,1.43,1.43,0,0,1,.26.89v2.3a6.85,6.85,0,0,1,1.86-2.78,4.1,4.1,0,0,1,2.76-1A3.7,3.7,0,0,1,141.6,79,7,7,0,0,1,142.71,83V97.07a1.69,1.69,0,0,1-.25.93.67.67,0,0,1-.53.3.69.69,0,0,1-.56-.3,1.78,1.78,0,0,1-.22-.93V83a4.71,4.71,0,0,0-.7-2.64,2.39,2.39,0,0,0-2.09-1.18,3.54,3.54,0,0,0-2.56,1.11,9.36,9.36,0,0,0-2.06,3.53V97a1.67,1.67,0,0,1-.26,1,.79.79,0,0,1-.52.34.68.68,0,0,1-.56-.34,1.64,1.64,0,0,1-.22-.93V78.63A1.56,1.56,0,0,1,132.4,77.74Z"/><path d="M155.36,77.74a.72.72,0,0,1,1.11,0,1.27,1.27,0,0,1,.25.82V96.63a6.55,6.55,0,0,1-1.46,4.34,5.48,5.48,0,0,1-4.5,2,5.91,5.91,0,0,1-3.37-.92,5.48,5.48,0,0,1-2.08-2.79,1.41,1.41,0,0,1-.08-.92,1,1,0,0,1,.38-.64.49.49,0,0,1,.55-.14.76.76,0,0,1,.48.52,4,4,0,0,0,1.41,2.07,4.43,4.43,0,0,0,2.74.78,4.12,4.12,0,0,0,3.29-1.33,4.26,4.26,0,0,0,1-2.93V94.48a5.56,5.56,0,0,1-1.58,2.19,4.3,4.3,0,0,1-2.76,1q-2.89,0-4.5-3.16a15.33,15.33,0,0,1-1.43-7.08,15.73,15.73,0,0,1,1.43-7.06q1.64-3.23,4.5-3.22a4.08,4.08,0,0,1,2.51.81,6.92,6.92,0,0,1,1.83,2.56v-2A1.33,1.33,0,0,1,155.36,77.74Zm-7.91,4a13.68,13.68,0,0,0-1,5.61,13.6,13.6,0,0,0,1,5.71c.77,1.66,1.87,2.49,3.31,2.49s2.53-.83,3.32-2.49a15.78,15.78,0,0,0,0-11.32c-.8-1.73-1.91-2.59-3.32-2.59S148.25,80.05,147.45,81.78Z"/><path d="M20.09,52.4a27.5,27.5,0,0,1,1.13-8,24.19,24.19,0,0,1,3.15-6.74A15.16,15.16,0,0,1,29,33.18a10.87,10.87,0,0,1,5.76-1.6H47.69a10.92,10.92,0,0,1,5.76,1.6,15.27,15.27,0,0,1,4.63,4.52,24.17,24.17,0,0,1,3.14,6.74,27.5,27.5,0,0,1,1.14,8v9.06H82.62v-14a61.47,61.47,0,0,0-2.53-17.88,48.25,48.25,0,0,0-7-14.44A36.61,36.61,0,0,0,62.71,5.39,23.52,23.52,0,0,0,50.13,1.71H32.31A23.51,23.51,0,0,0,19.74,5.39,35.58,35.58,0,0,0,9.43,15.18a49.6,49.6,0,0,0-6.9,14.44A61.14,61.14,0,0,0,0,47.5v14H20.09Z"/><path d="M62.36,118.75a28.79,28.79,0,0,1-1.14,8.08,22.15,22.15,0,0,1-3.14,6.73A15.7,15.7,0,0,1,53.45,138a10.91,10.91,0,0,1-5.76,1.59H34.76A10.86,10.86,0,0,1,29,138a15.58,15.58,0,0,1-4.63-4.41,22.17,22.17,0,0,1-3.15-6.73,28.78,28.78,0,0,1-1.13-8.08v-7.2H0v12.34a60.22,60.22,0,0,0,2.53,17.63A49.48,49.48,0,0,0,9.43,156a35.58,35.58,0,0,0,10.31,9.79,23.51,23.51,0,0,0,12.57,3.68H50.13a23.52,23.52,0,0,0,12.58-3.68A36.61,36.61,0,0,0,73.1,156a48.13,48.13,0,0,0,7-14.44,60.55,60.55,0,0,0,2.53-17.63V111.55H62.36Z"/><path d="M143.82,111.55H113.31q-9.07,10.76-18.64,20.91v37h74.24v-25H114.76q11.17-11.25,22.09-24.36C139.22,117.26,141.53,114.41,143.82,111.55Z"/><path d="M170.57,60.72q.42-6.12.43-13.47V43.58a57.69,57.69,0,0,0-2.44-17,48.26,48.26,0,0,0-6.64-13.83,33.32,33.32,0,0,0-9.87-9.3A23,23,0,0,0,139.91,0h-15.2a23.06,23.06,0,0,0-12.14,3.43,34.19,34.19,0,0,0-9.95,9.3,46.38,46.38,0,0,0-6.73,13.83,57.69,57.69,0,0,0-2.44,17V54.35h19.21V48.48a26.66,26.66,0,0,1,1.14-7.71,21.8,21.8,0,0,1,3-6.49A15.43,15.43,0,0,1,121.4,30,10.54,10.54,0,0,1,127,28.4h9.79A9.85,9.85,0,0,1,142.09,30a17,17,0,0,1,4.55,4.29,19.6,19.6,0,0,1,3.05,6.49,28.78,28.78,0,0,1,1.05,7.71,60.33,60.33,0,0,1-.61,9.42c-.2,1.24-.45,2.42-.75,3.56H170.5C170.52,61.21,170.55,61,170.57,60.72Z"/></g></g></svg>