<svg xmlns="http://www.w3.org/2000/svg" viewBox="0 0 116.24 55.49"><defs><style>.cls-1{fill:#fff;}.cls-2{fill:#515151;}.cls-3{fill:#1ba0d9;}</style></defs><g id="Layer_2" data-name="Layer 2"><g id="Layer_1-2" data-name="Layer 1"><rect class="cls-1" x="0.13" y="0.12" width="38.5" height="38.5" rx="19.25"/><path class="cls-2" d="M19.38,38.75A19.38,19.38,0,1,1,38.75,19.38,19.39,19.39,0,0,1,19.38,38.75Zm0-38.5A19.13,19.13,0,1,0,38.5,19.38,19.15,19.15,0,0,0,19.38.25Z"/><rect class="cls-3" x="70.21" y="0.12" width="38.5" height="38.5" rx="19.25"/><path class="cls-2" d="M70.38,49H69L68.6,51.7h1.78a.08.08,0,0,1,.09.09v1c0,.07,0,.1-.09.1H68.45l-.35,2.48a.09.09,0,0,1-.1.1H67c-.07,0-.1,0-.1-.12l.33-2.46h-2l-.34,2.48a.11.11,0,0,1-.1.1h-1c-.08,0-.12,0-.1-.12L64,52.91H62.75a.09.09,0,0,1-.1-.1v-1c0-.06,0-.09.1-.09h1.39L64.51,49H62.75a.1.1,0,0,1-.1-.11v-1a.1.1,0,0,1,.1-.11h1.93L65,45.28a.09.09,0,0,1,.1-.08h1c.08,0,.12,0,.1.1l-.34,2.46h2l.34-2.48a.09.09,0,0,1,.1-.08h1c.08,0,.12,0,.1.1l-.34,2.46h1.24c.06,0,.09,0,.09.11v1C70.47,49,70.44,49,70.38,49Zm-4.63,0-.37,2.71h2L67.75,49Z"/><path class="cls-2" d="M74.45,55.33a.1.1,0,0,1-.11.1h-1a.09.09,0,0,1-.1-.1v-9c0-.07,0-.11.1-.11h1a.1.1,0,0,1,.11.11Z"/><path class="cls-2" d="M84.06,51.35a2.73,2.73,0,0,1,.29,1.33,3.06,3.06,0,0,1-.26,1.08,2.94,2.94,0,0,1-.63.88,3.07,3.07,0,0,1-.91.58,2.9,2.9,0,0,1-1.09.21H78.09a.79.79,0,0,1-.59-.24.8.8,0,0,1-.23-.58V46.13a.81.81,0,0,1,.23-.57.79.79,0,0,1,.59-.24h3.43a2.81,2.81,0,0,1,1.08.21,2.9,2.9,0,0,1,.9.6,3,3,0,0,1,.61.87,2.74,2.74,0,0,1,.24,1.07,2.61,2.61,0,0,1-.29,1.3,2.76,2.76,0,0,1-.84,1A2.8,2.8,0,0,1,84.06,51.35Zm-2.54-1.56a1.51,1.51,0,0,0,.63-.13,1.82,1.82,0,0,0,.51-.36,1.45,1.45,0,0,0,.35-.52,1.68,1.68,0,0,0,.12-.63A1.78,1.78,0,0,0,83,47.5a1.58,1.58,0,0,0-.35-.53,1.89,1.89,0,0,0-.51-.38,1.51,1.51,0,0,0-.63-.13h-3v3.31Zm.63,4.36a1.85,1.85,0,0,0,.51-.37,1.73,1.73,0,0,0,.35-.54,1.77,1.77,0,0,0,.12-.64A1.69,1.69,0,0,0,83,52a1.58,1.58,0,0,0-.35-.53,1.82,1.82,0,0,0-.51-.36,1.69,1.69,0,0,0-.63-.13h-3v3.35h3A1.52,1.52,0,0,0,82.15,54.15Z"/><path class="cls-2" d="M94.22,55.39a.12.12,0,0,1-.08,0H93.06a.1.1,0,0,1-.12-.09l-.84-2.25H87.62l-.82,2.25a.15.15,0,0,1-.13.09H85.59a.1.1,0,0,1-.08,0,.09.09,0,0,1,0-.07L89,45.87a.87.87,0,0,1,.38-.48.94.94,0,0,1,.62-.12.84.84,0,0,1,.45.2.9.9,0,0,1,.29.4l3.5,9.45A0,0,0,0,1,94.22,55.39ZM89.86,47,88,52h3.64Z"/><path class="cls-2" d="M96.89,55.21a2.68,2.68,0,0,1-1.38-1.38,2.43,2.43,0,0,1-.2-1v-4a2.43,2.43,0,0,1,.2-1,2.64,2.64,0,0,1,.56-.83,2.77,2.77,0,0,1,.82-.56,2.6,2.6,0,0,1,1-.2,2.55,2.55,0,0,1,1,.2,2.82,2.82,0,0,1,.83.56,2.61,2.61,0,0,1,.55.83,2.44,2.44,0,0,1,.21,1v4a2.44,2.44,0,0,1-.21,1,2.57,2.57,0,0,1-.55.82,2.64,2.64,0,0,1-.83.56,2.38,2.38,0,0,1-1,.2A2.43,2.43,0,0,1,96.89,55.21Zm.47-7.71a1.23,1.23,0,0,0-.44.3,1.49,1.49,0,0,0-.3.44,1.4,1.4,0,0,0-.1.54v4a1.33,1.33,0,0,0,.1.54,1.43,1.43,0,0,0,.74.74,1.51,1.51,0,0,0,1.08,0,1.45,1.45,0,0,0,.43-.3,1.23,1.23,0,0,0,.3-.44,1.33,1.33,0,0,0,.11-.54v-4a1.41,1.41,0,0,0-.11-.54,1.32,1.32,0,0,0-.3-.44,1.28,1.28,0,0,0-.43-.3,1.38,1.38,0,0,0-1.08,0Z"/><path class="cls-2" d="M102.9,55.43a.78.78,0,0,1-.58-.24.76.76,0,0,1-.23-.58V46.08a.78.78,0,0,1,.23-.58.82.82,0,0,1,.58-.23h2.75a3.37,3.37,0,0,1,1.38.28,3.49,3.49,0,0,1,1.9,1.9,3.37,3.37,0,0,1,.28,1.38v3a3.47,3.47,0,0,1-.28,1.4,3.61,3.61,0,0,1-1.9,1.89,3.54,3.54,0,0,1-1.38.28Zm2.75-1.14a2.18,2.18,0,0,0,.91-.19,2.3,2.3,0,0,0,1.25-1.25,2.15,2.15,0,0,0,.19-.91V48.76a2.15,2.15,0,0,0-.19-.91,2.29,2.29,0,0,0-.5-.75,2.49,2.49,0,0,0-.75-.51,2.34,2.34,0,0,0-.91-.18H103.3v7.88Z"/><path class="cls-2" d="M114.54,46.43a2.55,2.55,0,0,1,.88.6,2.86,2.86,0,0,1,.6.88,2.58,2.58,0,0,1,.22,1.08v3.38a3,3,0,0,1-.9,2.16,3,3,0,0,1-1,.66,3.06,3.06,0,0,1-1.2.24,3.28,3.28,0,0,1-1.86-.52.09.09,0,0,1,0-.14l.61-.81c0-.05.09-.06.13,0a2.18,2.18,0,0,0,1.19.29,1.74,1.74,0,0,0,.71-.15,1.94,1.94,0,0,0,.58-.4,2,2,0,0,0,.39-.58,1.89,1.89,0,0,0,.14-.72v-.74a2.49,2.49,0,0,1-.73.36,2.55,2.55,0,0,1-.84.13,2.61,2.61,0,0,1-1.08-.22,2.71,2.71,0,0,1-.89-.59,2.91,2.91,0,0,1-.6-.89,2.81,2.81,0,0,1-.21-1.08V49a2.74,2.74,0,0,1,.21-1.08,2.86,2.86,0,0,1,.6-.88,2.86,2.86,0,0,1,2-.83A2.65,2.65,0,0,1,114.54,46.43Zm.36,2a1.53,1.53,0,0,0-.34-.5,1.63,1.63,0,0,0-.49-.33,1.59,1.59,0,0,0-1.72.33,1.67,1.67,0,0,0-.33.5,1.39,1.39,0,0,0-.13.61v.36a1.38,1.38,0,0,0,.13.6,1.56,1.56,0,0,0,.33.5,1.58,1.58,0,0,0,.5.34,1.61,1.61,0,0,0,1.22,0,1.66,1.66,0,0,0,.49-.34,1.43,1.43,0,0,0,.34-.5,1.53,1.53,0,0,0,.12-.6V49A1.54,1.54,0,0,0,114.9,48.38Z"/><path class="cls-2" d="M8.16,49H6.75L6.38,51.7H8.16a.08.08,0,0,1,.09.09v1c0,.07,0,.1-.09.1H6.23l-.35,2.48a.09.09,0,0,1-.1.1h-1c-.07,0-.11,0-.11-.12L5,52.91H3l-.34,2.48a.11.11,0,0,1-.11.1h-1q-.12,0-.09-.12l.33-2.46H.53c-.07,0-.1,0-.1-.1v-1c0-.06,0-.09.1-.09H1.92L2.29,49H.53c-.07,0-.1,0-.1-.11v-1c0-.07,0-.11.1-.11H2.46l.34-2.48a.09.09,0,0,1,.1-.08h1c.08,0,.12,0,.1.1l-.34,2.46h2L6,45.28a.11.11,0,0,1,.11-.08h1c.08,0,.11,0,.1.1l-.34,2.46H8.16c.06,0,.09,0,.09.11v1C8.25,49,8.22,49,8.16,49ZM3.53,49,3.16,51.7h2L5.53,49Z"/><path class="cls-2" d="M13.63,46.47a1.51,1.51,0,0,0-.59.15,1.61,1.61,0,0,0-.48.34,1.51,1.51,0,0,0-.31.5,1.48,1.48,0,0,0-.12.59v.05h1.49a.1.1,0,0,1,.11.11v.93a.1.1,0,0,1-.11.11H12.13v6.07c0,.07,0,.11-.09.11H11a.1.1,0,0,1-.11-.11V49.25H9.45a.1.1,0,0,1-.11-.11v-.93c0-.08,0-.11.11-.11h1.47v-.05a2.77,2.77,0,0,1,.79-1.95,2.85,2.85,0,0,1,.85-.6,2.71,2.71,0,0,1,1.06-.26.1.1,0,0,1,.11.11v1C13.73,46.43,13.7,46.47,13.63,46.47Z"/><path class="cls-2" d="M18.65,46.47a1.47,1.47,0,0,0-.59.15,1.5,1.5,0,0,0-.48.34,1.53,1.53,0,0,0-.32.5,1.67,1.67,0,0,0-.11.59v.05h1.48c.08,0,.11,0,.11.11v.93a.1.1,0,0,1-.11.11H17.15v6.07c0,.07,0,.11-.1.11H16c-.07,0-.1,0-.1-.11V49.25H14.46a.1.1,0,0,1-.11-.11v-.93a.1.1,0,0,1,.11-.11h1.48v-.05A2.76,2.76,0,0,1,16.15,47a2.73,2.73,0,0,1,1.43-1.48,2.71,2.71,0,0,1,1.05-.26.1.1,0,0,1,.11.11v1C18.74,46.43,18.71,46.47,18.65,46.47Z"/><path class="cls-2" d="M23.66,46.47a1.47,1.47,0,0,0-.58.15,1.54,1.54,0,0,0-.8.84,1.48,1.48,0,0,0-.12.59v.05h1.49a.1.1,0,0,1,.11.11v.93a.1.1,0,0,1-.11.11H22.16v6.07c0,.07,0,.11-.09.11h-1a.1.1,0,0,1-.11-.11V49.25H19.48a.1.1,0,0,1-.11-.11v-.93a.1.1,0,0,1,.11-.11H21v-.05A2.79,2.79,0,0,1,22.6,45.5a2.66,2.66,0,0,1,1-.26.1.1,0,0,1,.11.11v1C23.76,46.43,23.73,46.47,23.66,46.47Z"/><path class="cls-2" d="M28.68,46.47a1.51,1.51,0,0,0-.59.15,1.61,1.61,0,0,0-.48.34,1.71,1.71,0,0,0-.32.5,1.67,1.67,0,0,0-.11.59v.05h1.49c.07,0,.1,0,.1.11v.93c0,.07,0,.11-.1.11H27.18v6.07c0,.07,0,.11-.1.11h-1a.1.1,0,0,1-.11-.11V49.25H24.49a.1.1,0,0,1-.11-.11v-.93a.1.1,0,0,1,.11-.11H26v-.05A2.76,2.76,0,0,1,26.18,47a2.73,2.73,0,0,1,1.43-1.48,2.71,2.71,0,0,1,1.06-.26c.07,0,.1,0,.1.11v1C28.77,46.43,28.74,46.47,28.68,46.47Z"/><path class="cls-2" d="M33.7,46.47a1.47,1.47,0,0,0-.59.15,1.39,1.39,0,0,0-.48.34,1.53,1.53,0,0,0-.32.5,1.47,1.47,0,0,0-.11.59v.05h1.48a.1.1,0,0,1,.11.11v.93a.1.1,0,0,1-.11.11H32.2v6.07a.1.1,0,0,1-.1.11h-1a.1.1,0,0,1-.11-.11V49.25H29.51a.1.1,0,0,1-.11-.11v-.93a.1.1,0,0,1,.11-.11H31v-.05A2.76,2.76,0,0,1,31.19,47a2.93,2.93,0,0,1,.58-.88,2.77,2.77,0,0,1,.86-.6,2.71,2.71,0,0,1,1-.26.1.1,0,0,1,.11.11v1C33.79,46.43,33.76,46.47,33.7,46.47Z"/><path class="cls-2" d="M38.71,46.47a1.51,1.51,0,0,0-.59.15,1.61,1.61,0,0,0-.48.34,1.51,1.51,0,0,0-.31.5,1.48,1.48,0,0,0-.12.59v.05H38.7a.1.1,0,0,1,.11.11v.93a.1.1,0,0,1-.11.11H37.21v6.07c0,.07,0,.11-.09.11h-1a.1.1,0,0,1-.11-.11V49.25H34.53a.1.1,0,0,1-.11-.11v-.93c0-.08,0-.11.11-.11H36v-.05a2.77,2.77,0,0,1,.79-1.95,2.85,2.85,0,0,1,.85-.6,2.71,2.71,0,0,1,1.06-.26.1.1,0,0,1,.11.11v1A.1.1,0,0,1,38.71,46.47Z"/></g></g></svg>