<svg xmlns="http://www.w3.org/2000/svg" viewBox="0 0 56.09 141.05"><defs><style>.cls-1{fill:#1ca0d9;}</style></defs><g id="Layer_2" data-name="Layer 2"><g id="Layer_1-2" data-name="Layer 1"><path class="cls-1" d="M23.47,6.42c.12,0,1.76.14,1.76.14s.4,1.15.43,1.25a27.25,27.25,0,0,0,8.65-.93c.38-.41,1.55-1.84.39-2.64-4.59.9-11.45-.64-10.54-.33A7.25,7.25,0,0,1,21,1.85c-2.15-3.52-3.25-1.13-3.34-.06,0,4.47,1.2,4,5.8,4.63"/><path class="cls-1" d="M55.35,64.68c-.23-1.81-.52-3.47-.82-5C52.31,52,49.5,43.9,41.85,40.4c-3.24-1.23-9.36-1-10.24-8.6,0-2,0-23,0-23l-9.76,2s0,1.49,0,1.49-.17,4.41-.16,4.39,0,2.07.08,4.62c.19,11.75.84,19.22-12,24-7.92,3-8.43,6.56-9.25,15.62-.06.64-.13,1.3-.16,1.92,0-.27-2.61,25.43,6,66.37,0,0,1.32,6.67,1.49,7.62.08.49.6,1.16,1.94,2.12,14.66,3.54,17.81,1,25.52,2s14.78-4,14.93-4.11c.77-.22,3.32-5.5,3.64-12.1,3-17.9,2.27-46.42,1.44-60"/></g></g></svg>