<svg xmlns="http://www.w3.org/2000/svg" viewBox="0 0 190.14 118.18"><defs><style>.cls-1{fill:#515151;}</style></defs><g id="Layer_2" data-name="Layer 2"><g id="Layer_1-2" data-name="Layer 1"><path class="cls-1" d="M61.37.32h3.78c2.34,0,4.46.83,4.46,3.5s-2.37,3.53-4.17,3.53H62.88v5.72H61.37Zm1.51,5.62h2.56C67,5.94,68,5.26,68,3.83s-1-2.1-2.55-2.1H62.88Z"/><path class="cls-1" d="M75.8,4.43a4.29,4.29,0,0,1,4.5,4.43,4.5,4.5,0,0,1-9,0A4.29,4.29,0,0,1,75.8,4.43Zm0,7.56a2.94,2.94,0,0,0,3-3.13,3,3,0,1,0-6,0A2.94,2.94,0,0,0,75.8,12Z"/><path class="cls-1" d="M83.31.32a1,1,0,0,1,1,1,1,1,0,1,1-2,0A1,1,0,0,1,83.31.32Zm-.7,4.33H84v8.42h-1.4Z"/><path class="cls-1" d="M86.8,6.64c0-.77-.07-1.44-.07-2h1.33c0,.45,0,.91,0,1.38h0a3.05,3.05,0,0,1,2.81-1.6,1.75,1.75,0,0,1,.58.09l-.09,1.42a2.79,2.79,0,0,0-.76-.11C89,5.83,88.2,7,88.2,9v4.1H86.8Z"/><path class="cls-1" d="M100.34,11.54a4.33,4.33,0,0,1-3.75,1.75,4.17,4.17,0,0,1-4.26-4.43,4.22,4.22,0,0,1,4.32-4.43c2.37,0,4,1.62,4,4.41v.45h-6.8A2.81,2.81,0,0,0,96.59,12a3.14,3.14,0,0,0,2.69-1.28ZM99.13,8.1a2.34,2.34,0,0,0-2.54-2.37A2.6,2.6,0,0,0,93.84,8.1Z"/><path class="cls-1" d="M107.43,5.83h-2.49v4.22c0,1.08,0,1.94,1.27,1.94a2.72,2.72,0,0,0,1.24-.29l0,1.28a4.23,4.23,0,0,1-1.64.31c-2,0-2.32-1.08-2.32-2.83V5.83H101.7V4.65h1.84V2.25h1.4v2.4h2.49Z"/><path class="cls-1" d="M113.67,6.7A6.67,6.67,0,1,1,127,6.7a6.67,6.67,0,1,1-13.33,0Zm11.71,0a5.05,5.05,0,1,0-10.09,0,5.05,5.05,0,1,0,10.09,0Z"/><path class="cls-1" d="M129.17,6.64c0-.77-.07-1.44-.07-2h1.33c0,.45,0,.91,0,1.38h0a3.07,3.07,0,0,1,2.81-1.6c2.22,0,3.21,1.4,3.21,3.44v5.2h-1.41V8c0-1.4-.61-2.28-1.92-2.28-1.82,0-2.61,1.31-2.61,3.24v4.1h-1.41Z"/><path class="cls-1" d="M146.71,11.54A4.34,4.34,0,0,1,143,13.29a4.17,4.17,0,0,1-4.27-4.43A4.22,4.22,0,0,1,143,4.43c2.38,0,4,1.62,4,4.41v.45h-6.8A2.81,2.81,0,0,0,143,12a3.11,3.11,0,0,0,2.68-1.28ZM145.5,8.1A2.34,2.34,0,0,0,143,5.73a2.6,2.6,0,0,0-2.75,2.37Z"/><path class="cls-1" d="M62.59,73.79v8.07c0,.25.09.34.34.34a49.84,49.84,0,0,0,6.88-.43c.29,0,.49.16.54.49s-.09.63-.38.66a53.14,53.14,0,0,1-7.47.42c-.94,0-1.24-.29-1.24-1.21V73.79c0-.37.32-.54.66-.54S62.59,73.42,62.59,73.79ZM73.05,72.7v5h2.29c.32,0,.47.27.47.58s-.15.59-.47.59H73.05V87c0,.38-.32.54-.67.54s-.64-.16-.64-.54V72.7c0-.38.32-.54.64-.54S73.05,72.32,73.05,72.7Z"/><path class="cls-1" d="M89.72,84.24v3.11c0,.92-.31,1.21-1.24,1.21H80.23c-.94,0-1.24-.29-1.24-1.21V84.24c0-.92.3-1.21,1.24-1.21h3.48V80.94H77.29c-.3,0-.44-.25-.44-.56s.14-.55.44-.55H91.41c.31,0,.45.25.45.55s-.14.56-.45.56H85V83h3.48C89.41,83,89.72,83.32,89.72,84.24ZM80.34,73.07v3.57c0,.25.11.32.34.32h8.86c.3,0,.45.27.45.56s-.15.58-.45.58H80.27c-.94,0-1.25-.29-1.25-1.21V73.07c0-.37.31-.54.67-.54S80.34,72.7,80.34,73.07Zm-.06,11.38v2.69c0,.23.09.32.35.32h7.45c.25,0,.34-.09.34-.32V84.45c0-.23-.09-.32-.34-.32H80.63C80.37,84.13,80.28,84.22,80.28,84.45Z"/><path class="cls-1" d="M108.24,85.34c0,.3-.14.55-.47.55H93.69c-.32,0-.47-.25-.47-.55s.15-.6.47-.6h14.08C108.1,84.74,108.24,85,108.24,85.34ZM101.4,73.47v1.17a3.36,3.36,0,0,0,1.82,3.42c1.06.69,2.27,1.41,3.6,2.14a.59.59,0,0,1,.11.8.57.57,0,0,1-.76.25c-1.12-.61-2.41-1.37-3.44-2-1.33-.84-1.84-1.45-2-1.94h0c-.14.5-.65,1.12-2,2-1,.67-2.32,1.42-3.44,2a.58.58,0,0,1-.77-.27c-.16-.27-.15-.67.11-.8,1.33-.73,2.54-1.45,3.6-2.14a3.36,3.36,0,0,0,1.82-3.42V73.47a.59.59,0,0,1,.66-.56C101.08,72.91,101.4,73.09,101.4,73.47Z"/><path class="cls-1" d="M118.48,80.2c0,.31-.12.58-.41.6-1.19.09-2.36.16-3.53.2v5.27c0,.38-.33.54-.65.54s-.65-.16-.65-.54V81c-1.13,0-2.25,0-3.36,0-.33,0-.47-.27-.47-.56s.14-.56.47-.56c1.67,0,3.49,0,5.47-.09a13.84,13.84,0,0,0,.47-2.34l-5.12.09c-.32,0-.47-.23-.47-.55s.15-.58.46-.58l5.22,0c0-.24,0-.47,0-.71v-1c0-.24-.09-.33-.34-.33H111c-.3,0-.45-.25-.45-.55s.15-.58.45-.58h5c.94,0,1.24.29,1.24,1.21v1.15a14.65,14.65,0,0,1-.59,4.23L118,79.7C118.27,79.68,118.46,79.88,118.48,80.2Zm2.22-7.41V86.47c0,.36-.31.52-.62.52s-.63-.16-.63-.52V83.68h-2.53c-.29,0-.44-.25-.44-.56s.15-.56.44-.56h2.53V72.79c0-.35.31-.51.63-.51S120.7,72.44,120.7,72.79Zm3-.11V87.05c0,.36-.3.52-.63.52a.54.54,0,0,1-.61-.52V72.68a.54.54,0,0,1,.61-.52C123.4,72.16,123.7,72.32,123.7,72.68Z"/><path class="cls-1" d="M139.45,72.7V87c0,.38-.32.54-.65.54s-.64-.16-.64-.54V78.94h-3.5c-.14,3.06-1.49,4.7-4,4.7-2.67,0-4.05-1.83-4.05-5.25s1.38-5.26,4.05-5.26c2.5,0,3.87,1.64,4,4.68h3.5V72.7c0-.38.3-.54.64-.54S139.45,72.32,139.45,72.7Zm-11.56,5.69c0,2.61.83,4.08,2.76,4.08s2.75-1.47,2.75-4.08-.83-4.09-2.75-4.09S127.89,75.78,127.89,78.39Z"/><path class="cls-1" d="M150.29,74.51v3.32c0,.92-.31,1.2-1.25,1.2h-4.28c-.25,0-.34.09-.34.33v3c0,.24.09.33.34.33a47.16,47.16,0,0,0,7-.44c.29,0,.49.18.54.49s-.09.63-.38.67a55.29,55.29,0,0,1-7.51.41c-.93,0-1.24-.29-1.24-1.21V79.14c0-.92.31-1.2,1.24-1.2h4.29c.23,0,.34-.09.34-.35V74.77c0-.24-.11-.33-.34-.33h-5.08c-.31,0-.45-.25-.45-.57s.14-.56.45-.56H149C150,73.31,150.29,73.6,150.29,74.51ZM155,72.7v5h2.29c.32,0,.47.27.47.58s-.15.59-.47.59H155V87c0,.38-.32.54-.67.54s-.64-.16-.64-.54V72.7c0-.38.32-.54.64-.54S155,72.32,155,72.7Z"/><path class="cls-1" d="M173.76,81.19c0,.31-.14.56-.45.56h-6.23v2.9c0,.36-.29.51-.65.51s-.65-.15-.65-.51v-2.9h-6.59c-.3,0-.45-.25-.45-.56s.15-.55.45-.55h14.12C173.62,80.64,173.76,80.89,173.76,81.19ZM162.2,84V87c0,.26.11.35.34.35h8.93c.31,0,.45.25.45.56s-.14.55-.45.55h-9.34c-.94,0-1.24-.28-1.24-1.2V84c0-.38.3-.54.66-.54S162.2,83.66,162.2,84Zm9.38-8.26c0,2.12-1.92,3.2-5.33,3.2s-5.33-1.08-5.33-3.2,1.93-3.21,5.33-3.21S171.58,73.65,171.58,75.78Zm-9.34,0c0,1.31,1.28,2.1,4,2.1s4-.79,4-2.1-1.28-2.11-4-2.11S162.24,74.46,162.24,75.78Z"/><path class="cls-1" d="M190.14,85.34c0,.3-.14.55-.47.55H175.59c-.32,0-.47-.25-.47-.55s.15-.6.47-.6h14.08C190,84.74,190.14,85,190.14,85.34ZM188,73.83c0,.32-.14.58-.47.58h-8.57c-.25,0-.34.09-.34.32V79.5c0,.25.09.34.34.34h8.75c.33,0,.47.26.47.56s-.14.58-.47.58h-9.16c-.94,0-1.24-.29-1.24-1.21V74.48c0-.92.3-1.21,1.24-1.21h9C187.82,73.27,188,73.52,188,73.83Z"/><path class="cls-1" d="M69.31,104.46c0,.32-.15.57-.47.57H63.22c-.23,0-.34.09-.34.33v3.06h5.78c.32,0,.47.25.47.56s-.15.56-.47.56H62.88v3.15c0,.23.11.32.34.32a49.6,49.6,0,0,0,7.13-.43c.29,0,.49.16.54.48s-.09.63-.38.67a56.41,56.41,0,0,1-7.69.41c-.93,0-1.24-.28-1.24-1.2v-7.83c0-.92.31-1.21,1.24-1.21h6C69.16,103.9,69.31,104.15,69.31,104.46Zm4.52-1.15v14.33c0,.38-.33.54-.67.54s-.65-.16-.65-.54V103.31c0-.38.32-.54.65-.54S73.83,102.93,73.83,103.31Z"/><path class="cls-1" d="M85.72,111.35c0,.31-.12.58-.41.6-1.19.09-2.36.16-3.53.2v4.73c0,.38-.32.54-.65.54s-.65-.16-.65-.54v-4.72c-1.13,0-2.25,0-3.36,0-.33,0-.47-.27-.47-.56s.14-.56.47-.56c2.41,0,5.07,0,8.12-.23C85.51,110.83,85.7,111,85.72,111.35Zm-.9-4.8c0,1.78-1.13,3.11-3.64,3.11s-3.63-1.33-3.63-3.11,1.13-3.14,3.63-3.14S84.82,104.76,84.82,106.55Zm-6,0c0,1.11.69,2,2.41,2s2.42-.9,2.42-2-.69-2-2.42-2S78.77,105.43,78.77,106.55Zm9.17-3.15v13.68c0,.36-.31.52-.62.52s-.63-.16-.63-.52v-2.52H84.16c-.29,0-.44-.25-.44-.56s.15-.56.44-.56h2.53v-10c0-.35.31-.51.63-.51S87.94,103.05,87.94,103.4Zm3-.11v14.37c0,.36-.3.52-.63.52a.54.54,0,0,1-.61-.52V103.29a.54.54,0,0,1,.61-.52C90.64,102.77,90.94,102.93,90.94,103.29Z"/><path class="cls-1" d="M102.14,109c0,3.43-1.39,5.28-4.09,5.28S94,112.42,94,109s1.4-5.27,4.1-5.27S102.14,105.57,102.14,109Zm-6.9,0c0,2.62.85,4.11,2.81,4.11s2.81-1.49,2.81-4.11-.85-4.1-2.81-4.1S95.24,106.38,95.24,109Zm11.34-5.68v14.33c0,.38-.32.54-.66.54s-.65-.16-.65-.54V103.31c0-.38.32-.54.65-.54S106.58,102.93,106.58,103.31Z"/><path class="cls-1" d="M1.22,6.16h5c.06,0,.09,0,.09.11V7.2c0,.07,0,.11-.09.11h-5v3.41h5.2c.07,0,.1,0,.1.09v.95a.09.09,0,0,1-.1.1H.82a.78.78,0,0,1-.58-.24A.77.77,0,0,1,0,11V2.51a.78.78,0,0,1,.24-.58A.82.82,0,0,1,.82,1.7h5.6c.07,0,.1,0,.1.09v1a.09.09,0,0,1-.1.1H1.22Z"/><path class="cls-1" d="M9.36,4.18v7.57c0,.07,0,.11-.1.11h-1a.1.1,0,0,1-.11-.11V2.33a.62.62,0,0,1,.19-.46.66.66,0,0,1,.47-.18.62.62,0,0,1,.55.3L14,9.35V1.78a.08.08,0,0,1,.09-.09h1c.07,0,.11,0,.11.09V11.2a.6.6,0,0,1-.19.46.65.65,0,0,1-.47.2.61.61,0,0,1-.55-.32Z"/><path class="cls-1" d="M20.54,6.45h2.65a.77.77,0,0,1,.58.24.78.78,0,0,1,.24.58v1a3.37,3.37,0,0,1-.28,1.38A3.49,3.49,0,0,1,23,10.79a3.67,3.67,0,0,1-1.11.77,3.46,3.46,0,0,1-1.36.3,3.51,3.51,0,0,1-1.41-.27A3.47,3.47,0,0,1,18,10.82a3.55,3.55,0,0,1-.78-1.15,3.47,3.47,0,0,1-.29-1.4v-3a3.62,3.62,0,0,1,.28-1.38A3.6,3.6,0,0,1,19,2a3.47,3.47,0,0,1,1.37-.3,3.38,3.38,0,0,1,1.31.22,3.55,3.55,0,0,1,1.89,1.66A3.33,3.33,0,0,1,24,4.82c0,.08,0,.12-.1.12h-1c-.07,0-.1,0-.1-.09a2.16,2.16,0,0,0-.29-.78,2.17,2.17,0,0,0-.53-.63,2.58,2.58,0,0,0-.73-.4,2.2,2.2,0,0,0-.85-.13,2.42,2.42,0,0,0-.88.21,2.35,2.35,0,0,0-.72.51,2.56,2.56,0,0,0-.49.75,2.25,2.25,0,0,0-.18.89v3a2.25,2.25,0,0,0,.2.93,2.36,2.36,0,0,0,.51.76,2.31,2.31,0,0,0,.76.51,2.18,2.18,0,0,0,.92.17,2.27,2.27,0,0,0,.9-.19,2.57,2.57,0,0,0,.74-.51,2.36,2.36,0,0,0,.5-.74,2.31,2.31,0,0,0,.18-.91l0-.69H20.54c-.06,0-.09,0-.09-.11V6.55C20.45,6.48,20.48,6.45,20.54,6.45Z"/><path class="cls-1" d="M7.11,85.17a.08.08,0,0,1-.07,0H5.9c-.05,0-.08,0-.11-.08l-3-4.76-1.6,2v2.77c0,.07,0,.11-.09.11h-1A.1.1,0,0,1,0,85.11v-10c0-.06,0-.09.11-.09h1a.08.08,0,0,1,.09.09V80.5l4.38-5.41a.15.15,0,0,1,.11,0H6.94a.08.08,0,0,1,.08.13L3.57,79.44l3.54,5.64A.08.08,0,0,1,7.11,85.17Z"/><path class="cls-1" d="M10.11,84.93a3.58,3.58,0,0,1-2.17-3.28v-3a3.46,3.46,0,0,1,.29-1.39A3.51,3.51,0,0,1,9,76.09a3.64,3.64,0,0,1,1.12-.76,3.47,3.47,0,0,1,1.4-.28,3.41,3.41,0,0,1,1.38.28,3.46,3.46,0,0,1,1.13.76,3.71,3.71,0,0,1,.77,1.13,3.63,3.63,0,0,1,.28,1.39v3A3.47,3.47,0,0,1,14,84.17a3.31,3.31,0,0,1-1.13.76,3.41,3.41,0,0,1-1.38.29A3.47,3.47,0,0,1,10.11,84.93Zm.48-8.49a2.43,2.43,0,0,0-.75.51,2.34,2.34,0,0,0-.68,1.66v3a2.32,2.32,0,0,0,.18.92,2.3,2.3,0,0,0,1.25,1.25,2.42,2.42,0,0,0,1.83,0,2.29,2.29,0,0,0,.75-.5,2.4,2.4,0,0,0,.5-.75,2.33,2.33,0,0,0,.19-.92v-3a2.32,2.32,0,0,0-.19-.91,2.29,2.29,0,0,0-.5-.75,2.32,2.32,0,0,0-.75-.51,2.42,2.42,0,0,0-1.83,0Z"/><path class="cls-1" d="M23.9,85.17a.09.09,0,0,1-.08,0H22.64a.08.08,0,0,1-.08-.06L20,80.69H18v4.42c0,.07,0,.11-.09.11h-1c-.07,0-.1,0-.1-.11V75.86a.84.84,0,0,1,.23-.59.79.79,0,0,1,.59-.24h3.44a2.65,2.65,0,0,1,1.12.24,2.91,2.91,0,0,1,.91.63,3.15,3.15,0,0,1,.6.94A2.83,2.83,0,0,1,23.89,78a3,3,0,0,1-.22,1,2.85,2.85,0,0,1-.54.82,2.68,2.68,0,0,1-.78.59,3.22,3.22,0,0,1-1,.3l2.52,4.39A.11.11,0,0,1,23.9,85.17Zm-2.83-5.61a1.52,1.52,0,0,0,.63-.14,1.85,1.85,0,0,0,.51-.37,1.9,1.9,0,0,0,.34-.54,1.79,1.79,0,0,0,.13-.65,1.69,1.69,0,0,0-.13-.63,1.9,1.9,0,0,0-.34-.54,2.08,2.08,0,0,0-.51-.37,1.51,1.51,0,0,0-.63-.13H18v3.37Z"/></g></g></svg>