<svg xmlns="http://www.w3.org/2000/svg" viewBox="0 0 105.4 57.1"><defs><style>.cls-1{fill:#1ba0d9;}.cls-2{fill:#515151;}.cls-3{fill:#fff;stroke:#515151;stroke-miterlimit:10;stroke-width:0.25px;opacity:0.2;}</style></defs><g id="Layer_2" data-name="Layer 2"><g id="Layer_1-2" data-name="Layer 1"><rect class="cls-1" x="60.96" y="0.13" width="38.5" height="38.5" rx="19.25"/><path class="cls-2" d="M55.89,56.73l.23-1.27h-.95v-.83h1.08l.3-1.76h-1v-.82h1.2l.23-1.37h.85l-.23,1.37h1.49l.24-1.37h.86l-.25,1.37h.83v.82h-1l-.31,1.76h.93v.83H59.32l-.21,1.27h-.87l.22-1.27H57l-.23,1.27Zm1.23-2.1H58.6l.32-1.76h-1.5Z"/><path class="cls-2" d="M64.12,57V50.28l-1.58,1V49.93l1.61-1h1.29v8Z"/><path class="cls-2" d="M68,57V49h3a3.92,3.92,0,0,1,1.58.26,1.9,1.9,0,0,1,.89.75,2.15,2.15,0,0,1,.29,1.16,1.58,1.58,0,0,1-.2.84,1.6,1.6,0,0,1-.49.51l-.53.36-.16-.27a2.42,2.42,0,0,1,.88.33,2,2,0,0,1,.69.67,1.94,1.94,0,0,1,.27,1.06A2.25,2.25,0,0,1,73.8,56a2.13,2.13,0,0,1-1,.76,4.55,4.55,0,0,1-1.53.24Zm1.32-4.67h1.8a2,2,0,0,0,.6-.08.94.94,0,0,0,.48-.3A1.29,1.29,0,0,0,72,50.32a1.83,1.83,0,0,0-1-.25H69.31Zm0,3.57h1.9a2.77,2.77,0,0,0,.78-.11,1,1,0,0,0,.59-.38,1.25,1.25,0,0,0,.22-.8,1.28,1.28,0,0,0-.14-.63,1,1,0,0,0-.38-.37,1.74,1.74,0,0,0-.53-.17,3.77,3.77,0,0,0-.58,0H69.32Z"/><path class="cls-2" d="M75,57l3.12-8h1.4l3,8h-1.4L78.49,49.6l.5,0L76.32,57Zm1.53-2.17.39-1.08h3.8l.11,1.08Z"/><path class="cls-2" d="M86.68,57.1a3,3,0,0,1-2.47-1A5,5,0,0,1,83.4,53a5,5,0,0,1,.81-3.09,3.48,3.48,0,0,1,5,0A5,5,0,0,1,90,53a5,5,0,0,1-.81,3.09A3,3,0,0,1,86.68,57.1Zm0-1.12a2.38,2.38,0,0,0,.7-.11,1.43,1.43,0,0,0,.64-.4,2.37,2.37,0,0,0,.46-.9,7.52,7.52,0,0,0,0-3.18,2.22,2.22,0,0,0-.46-.9,1.66,1.66,0,0,0-.64-.41,2.37,2.37,0,0,0-.7-.1,2.33,2.33,0,0,0-.68.1,1.66,1.66,0,0,0-.64.41,2.22,2.22,0,0,0-.46.9,7.52,7.52,0,0,0,0,3.18,2.37,2.37,0,0,0,.46.9,1.43,1.43,0,0,0,.64.4A2.35,2.35,0,0,0,86.68,56Z"/><path class="cls-2" d="M91.57,57V49h2.81a3.8,3.8,0,0,1,2.89,1,4.24,4.24,0,0,1,1,3,4.27,4.27,0,0,1-1,3,3.8,3.8,0,0,1-2.89,1Zm1.32-1.12h1.35a2.52,2.52,0,0,0,2-.69,3.14,3.14,0,0,0,.64-2.2,3.13,3.13,0,0,0-.64-2.19,2.53,2.53,0,0,0-2-.7H92.89Z"/><path class="cls-2" d="M101.62,57.08a4,4,0,0,1-.81-.07,3.75,3.75,0,0,1-.6-.15V55.7a3.78,3.78,0,0,0,.6.17,3,3,0,0,0,.69.07,3,3,0,0,0,.64-.08,2.36,2.36,0,0,0,.68-.29,2.27,2.27,0,0,0,.63-.54,2.41,2.41,0,0,0,.45-.86,3.83,3.83,0,0,0,.17-1.24,8,8,0,0,0-.12-1.54,2.12,2.12,0,0,0-.35-.89,1.15,1.15,0,0,0-.52-.42,2,2,0,0,0-.66-.1,1.64,1.64,0,0,0-.82.17,1.31,1.31,0,0,0-.47.43,1.67,1.67,0,0,0-.21.52,2.15,2.15,0,0,0-.06.45,1.44,1.44,0,0,0,.4,1.11,1.63,1.63,0,0,0,1.16.39,2.14,2.14,0,0,0,.84-.15,1.92,1.92,0,0,0,.59-.37,1.29,1.29,0,0,0,.33-.45l.18.9a2.81,2.81,0,0,1-.27.34,2.41,2.41,0,0,1-.44.38,2.48,2.48,0,0,1-.61.3,2.35,2.35,0,0,1-.77.12,2.83,2.83,0,0,1-2-.68,2.49,2.49,0,0,1-.72-1.9,3.06,3.06,0,0,1,.17-1,2.46,2.46,0,0,1,.53-.87,2.65,2.65,0,0,1,.9-.61,3.36,3.36,0,0,1,1.3-.23,2.66,2.66,0,0,1,2.26,1,4.72,4.72,0,0,1,.72,2.84,6.43,6.43,0,0,1-.27,2,3.6,3.6,0,0,1-.72,1.29,2.89,2.89,0,0,1-.94.73,3.64,3.64,0,0,1-1,.34A4.93,4.93,0,0,1,101.62,57.08Z"/><rect class="cls-3" x="0.12" y="0.13" width="38.5" height="38.5" rx="19.25"/><path class="cls-2" d="M3.56,56.73l.23-1.27h-1v-.83H3.92l.3-1.76h-1v-.82h1.2l.22-1.37h.86l-.23,1.37H6.72L7,50.68h.86l-.25,1.37H8.4v.82h-1l-.32,1.76h.94v.83H7l-.21,1.27H5.91l.22-1.27H4.64l-.23,1.27Zm1.22-2.1H6.27l.31-1.76H5.08Z"/><path class="cls-2" d="M10.59,57V52h-1v-1h1V50.7a3.49,3.49,0,0,1,.14-1.06,1.72,1.72,0,0,1,.37-.67,1.48,1.48,0,0,1,.5-.38,2,2,0,0,1,.56-.16,3.32,3.32,0,0,1,.53,0,2.19,2.19,0,0,1,.36,0,1.4,1.4,0,0,1,.32.06v1.11l-.23-.1a.78.78,0,0,0-.29,0l-.36,0A.68.68,0,0,0,12,50a1.79,1.79,0,0,0-.09.63v.35h1.52v1H11.85v5Z"/><path class="cls-2" d="M15.19,57V52h-1v-1h1V50.7a3.2,3.2,0,0,1,.14-1.06A1.85,1.85,0,0,1,15.7,49a1.51,1.51,0,0,1,.51-.38,1.88,1.88,0,0,1,.56-.16,3.23,3.23,0,0,1,.53,0,2.19,2.19,0,0,1,.36,0,1.31,1.31,0,0,1,.31.06v1.11l-.22-.1a.87.87,0,0,0-.3,0l-.35,0a.81.81,0,0,0-.33.14.88.88,0,0,0-.23.34,2.1,2.1,0,0,0-.08.63v.35H18v1H16.45v5Z"/><path class="cls-2" d="M19.78,57V52h-1v-1h1V50.7a3.52,3.52,0,0,1,.13-1.06A2,2,0,0,1,20.3,49a1.48,1.48,0,0,1,.5-.38,2,2,0,0,1,.56-.16,3.44,3.44,0,0,1,.54,0,2.19,2.19,0,0,1,.36,0,1.42,1.42,0,0,1,.31.06v1.11l-.22-.1a.87.87,0,0,0-.3,0l-.36,0a.71.71,0,0,0-.32.14.79.79,0,0,0-.23.34,1.82,1.82,0,0,0-.08.63v.35h1.51v1H21v5Z"/><path class="cls-2" d="M24.38,57V52h-1v-1h1V50.7a3.49,3.49,0,0,1,.14-1.06A1.72,1.72,0,0,1,24.9,49a1.39,1.39,0,0,1,.5-.38,1.88,1.88,0,0,1,.56-.16,3.32,3.32,0,0,1,.53,0,2.19,2.19,0,0,1,.36,0,1.31,1.31,0,0,1,.31.06v1.11l-.22-.1a.81.81,0,0,0-.29,0l-.36,0a.81.81,0,0,0-.33.14.77.77,0,0,0-.22.34,1.79,1.79,0,0,0-.09.63v.35h1.51v1H25.64v5Z"/><path class="cls-2" d="M29,57V52H28v-1h1V50.7a3.52,3.52,0,0,1,.13-1.06,2,2,0,0,1,.37-.67,1.48,1.48,0,0,1,.5-.38,2,2,0,0,1,.56-.16,3.44,3.44,0,0,1,.54,0,2.19,2.19,0,0,1,.36,0,1.31,1.31,0,0,1,.31.06v1.11l-.22-.1a.87.87,0,0,0-.3,0l-.36,0a.77.77,0,0,0-.32.14.79.79,0,0,0-.23.34,2.1,2.1,0,0,0-.08.63v.35h1.51v1H30.24v5Z"/><path class="cls-2" d="M33.57,57V52h-1v-1h1V50.7a3.49,3.49,0,0,1,.14-1.06,1.72,1.72,0,0,1,.37-.67,1.48,1.48,0,0,1,.5-.38,2,2,0,0,1,.56-.16,3.32,3.32,0,0,1,.53,0,2.19,2.19,0,0,1,.36,0,1.4,1.4,0,0,1,.32.06v1.11l-.23-.1a.78.78,0,0,0-.29,0l-.36,0a.68.68,0,0,0-.55.48,1.79,1.79,0,0,0-.09.63v.35h1.52v1H34.83v5Z"/></g></g></svg>