<svg xmlns="http://www.w3.org/2000/svg" viewBox="0 0 500 260.42"><defs><style>.cls-1{fill:#fff;}</style></defs><g id="Layer_2" data-name="Layer 2"><g id="Layer_1-2" data-name="Layer 1"><g id="Layer_2-2" data-name="Layer 2"><g id="Слой_1" data-name="Слой 1"><path class="cls-1" d="M0,0V36.93C14.58,34.17,28.86,30,43.14,26.06c26.63-7.44,54.47-15.78,82.42-14,28.16,1.76,52.64,18.43,72.85,37.07,16.75,15.46,31.61,37.19,54,44.85,11.58,4,25.77,2.56,37.28-1.17s22-9.89,34.16-11.85c11.72-1.88,23.56-.37,34.83,3.18C372,88.3,384.88,94,398.26,98.2c13.08,4.08,26.77,6.33,40.26,8.56A344.62,344.62,0,0,0,474.33,111c3,.18,6.07.31,9.1.33a19.17,19.17,0,0,1,3,0c4.53.79-.53,2.64-.53,2.64-19.71-1-39.28-1.15-58.43,3-14.15,3.09-28,6.23-41.44,11.58-12.5,5-21.9,14-30.89,23.77C344,164.54,332.69,176,316.66,181.61c-16.57,5.79-34.6,6.8-52,6-19.59-.87-39.47-2.79-56.61-10.67-15-6.87-28.34-16.47-45.49-20-23.83-4.9-49.57,2.93-70.44,14.22C58.41,189.45,32.86,219.05,0,238.52v21.9H500V0ZM269.61,37.67a1,1,0,0,1-.23.78,1.25,1.25,0,0,1-.78.2h-7.81v27.1a1,1,0,0,1-.23.78,1.2,1.2,0,0,1-.78.19h-5.35a1.19,1.19,0,0,1-.78-.19,1,1,0,0,1-.24-.78V38.63H245.6a1.17,1.17,0,0,1-.77-.19,1,1,0,0,1-.23-.78V33.17a1.05,1.05,0,0,1,.23-.78,1.17,1.17,0,0,1,.77-.19h23a1.2,1.2,0,0,1,.78.19,1,1,0,0,1,.23.78ZM295.4,65.75a1,1,0,0,1-.23.78,1.2,1.2,0,0,1-.78.19H289.7a1.19,1.19,0,0,1-.78-.19,1,1,0,0,1-.23-.78V53.6a21.5,21.5,0,0,0-.14-2.54,6.29,6.29,0,0,0-.5-2A2.75,2.75,0,0,0,287,47.85a3.33,3.33,0,0,0-1.8-.45,17.07,17.07,0,0,0-2.37.18c-.81.11-1.62.26-2.44.44V65.75a1,1,0,0,1-.23.78,1.2,1.2,0,0,1-.78.19h-4.69a1.2,1.2,0,0,1-.78-.19,1,1,0,0,1-.23-.78V33.17a1,1,0,0,1,.23-.78,1.19,1.19,0,0,1,.78-.19h4.69a1.2,1.2,0,0,1,.78.19,1,1,0,0,1,.23.78v9.31c1-.31,2-.6,3.06-.89a11.79,11.79,0,0,1,3.12-.42,10.11,10.11,0,0,1,4.33.81,6.32,6.32,0,0,1,2.71,2.38A10.53,10.53,0,0,1,295,48.27a32.8,32.8,0,0,1,.38,5.33Zm27.23.26a1.17,1.17,0,0,1-.54,1.08,1.18,1.18,0,0,1-.48.19,2.71,2.71,0,0,1-.4,0,18.57,18.57,0,0,1-2.1-.17,10.13,10.13,0,0,1-1.52-.35,6.6,6.6,0,0,1-1.19-.52c-.36-.21-.7-.42-1-.66a26.25,26.25,0,0,1-2.54.89c-.74.2-1.57.4-2.48.58a13.74,13.74,0,0,1-2.64.26,6.87,6.87,0,0,1-5.59-2.24,9,9,0,0,1-1.87-6,9.15,9.15,0,0,1,.58-3.51,5.29,5.29,0,0,1,1.69-2.27A7.75,7.75,0,0,1,305.24,52a20.12,20.12,0,0,1,3.69-.59l5.43-.35V49.86a2.08,2.08,0,0,0-.71-1.63,2.63,2.63,0,0,0-1.79-.64c-.64,0-1.34,0-2.09,0s-1.5.06-2.25.09l-2.15.12-1.77.1H303a.72.72,0,0,1-.47-.16.89.89,0,0,1-.33-.48,3.25,3.25,0,0,1-.12-1L302,43.86a1.81,1.81,0,0,1,.33-1.35,1.7,1.7,0,0,1,1-.42l1.93-.26c.74-.1,1.52-.2,2.34-.29s1.64-.17,2.46-.23,1.56-.1,2.23-.1a14.74,14.74,0,0,1,3.75.44,6.27,6.27,0,0,1,4.47,4.12,11.7,11.7,0,0,1,.59,4v9.27a6.05,6.05,0,0,0,.16,1.64,1.15,1.15,0,0,0,.69.75,3,3,0,0,1,.44.26,1,1,0,0,1,.29.82Zm27-.23a1,1,0,0,1-.22.78,1.3,1.3,0,0,1-.79.2H344a1.25,1.25,0,0,1-.78-.2,1,1,0,0,1-.23-.78V53.71a24.44,24.44,0,0,0-.14-2.57,6.85,6.85,0,0,0-.5-2,2.72,2.72,0,0,0-1.06-1.26,3.24,3.24,0,0,0-1.8-.45,9.14,9.14,0,0,0-1.47.14c-.54.09-1.06.18-1.56.28s-1.18.27-1.77.43v17.5a1,1,0,0,1-.23.78,1.21,1.21,0,0,1-.78.2H329a1.25,1.25,0,0,1-.78-.2c-.16-.12-.23-.38-.23-.78v-23a1,1,0,0,1,.23-.78,1.25,1.25,0,0,1,.78-.2h4.69a1.33,1.33,0,0,1,.75.18.8.8,0,0,1,.26.71v.23a8.89,8.89,0,0,1,.9-.38c.45-.18,1-.37,1.56-.56s1.22-.37,1.87-.52a7.83,7.83,0,0,1,1.86-.23,10.17,10.17,0,0,1,4.33.81,6.38,6.38,0,0,1,2.72,2.4,10.75,10.75,0,0,1,1.38,3.92,33.29,33.29,0,0,1,.38,5.37Zm28.05.6c-.13.21-.46.32-1,.32H372a2.28,2.28,0,0,1-1.23-.26,2.16,2.16,0,0,1-.69-.78l-4.54-8.35-2.7.5v7.93a1,1,0,0,1-.23.78,1.19,1.19,0,0,1-.78.19h-4.69a1.2,1.2,0,0,1-.78-.19,1,1,0,0,1-.23-.78V33.17a1.05,1.05,0,0,1,.23-.78,1.2,1.2,0,0,1,.78-.19h4.69a1.19,1.19,0,0,1,.78.19,1,1,0,0,1,.23.78V51.25l2.58-.5,4.46-8.12a2,2,0,0,1,.56-.65,1.52,1.52,0,0,1,.9-.23h5.16c.44,0,.71.11.83.33a1,1,0,0,1-.14.9l-5.77,10.58,6,11.73c.27.52.35.88.22,1.1Zm39-32.86L407.14,52V65.75a1,1,0,0,1-.23.78,1.2,1.2,0,0,1-.78.19H401.2a1.2,1.2,0,0,1-.78-.19,1,1,0,0,1-.23-.78V52l-9.67-18.46q-.39-.74-.12-1a1.17,1.17,0,0,1,.89-.29h5a1.74,1.74,0,0,1,1.17.34,2.64,2.64,0,0,1,.64.81l5.59,10.89,5.5-10.89a2.61,2.61,0,0,1,.63-.81,1.78,1.78,0,0,1,1.18-.34h4.94a1.15,1.15,0,0,1,.89.29C417,32.69,416.94,33,416.68,33.52Zm23,26a11.06,11.06,0,0,1-1.9,4.17,8.79,8.79,0,0,1-3.54,2.7,16.09,16.09,0,0,1-10.95,0,8.9,8.9,0,0,1-3.54-2.71,11,11,0,0,1-1.92-4.17,24.52,24.52,0,0,1,0-10.58,10.48,10.48,0,0,1,1.92-4.11,9,9,0,0,1,3.54-2.68,16.09,16.09,0,0,1,10.95,0,8.83,8.83,0,0,1,3.54,2.68,10.65,10.65,0,0,1,1.9,4.11,24.52,24.52,0,0,1,0,10.58Zm27,6.25a1,1,0,0,1-.24.78,1.19,1.19,0,0,1-.78.19h-4.68a1.21,1.21,0,0,1-.79-.19,1,1,0,0,1-.23-.78v-.15c-.74.3-1.48.58-2.23.84s-1.3.4-2,.58a8.39,8.39,0,0,1-1.94.26,10.17,10.17,0,0,1-4.33-.81,6.32,6.32,0,0,1-2.71-2.41,10.52,10.52,0,0,1-1.39-3.92,33.16,33.16,0,0,1-.38-5.36V42.75a1,1,0,0,1,.23-.78,1.21,1.21,0,0,1,.78-.2h4.69a1.21,1.21,0,0,1,.78.2,1,1,0,0,1,.23.78V54.83q0,1.29.12,2.58a6,6,0,0,0,.5,2,2.84,2.84,0,0,0,1.08,1.27,3.32,3.32,0,0,0,1.8.44,11.65,11.65,0,0,0,1.45-.12,12.4,12.4,0,0,0,1.59-.31,13.39,13.39,0,0,0,1.77-.42V42.75a1,1,0,0,1,.23-.78,1.21,1.21,0,0,1,.78-.2h4.69a1.19,1.19,0,0,1,.78.2c.16.12.23.38.23.78Z"/><path class="cls-1" d="M307.72,57a2.23,2.23,0,0,0-.75,1.91c0,1.76.69,2.65,2.08,2.65a13.69,13.69,0,0,0,1.69-.1,16.63,16.63,0,0,0,1.73-.26c.64-.1,1.27-.23,1.89-.38V56.21l-4.58.2A3.77,3.77,0,0,0,307.72,57Z"/><path class="cls-1" d="M432.57,49a3.44,3.44,0,0,0-1.47-1.33,5.33,5.33,0,0,0-2.3-.44c-1.85,0-3.09.59-3.73,1.77a11.11,11.11,0,0,0-1,5.23,11.22,11.22,0,0,0,1,5.25c.64,1.19,1.88,1.79,3.73,1.79a5.19,5.19,0,0,0,2.3-.44,3.42,3.42,0,0,0,1.47-1.35,6.36,6.36,0,0,0,.75-2.21,22.11,22.11,0,0,0,0-6.08A6.26,6.26,0,0,0,432.57,49Z"/></g></g></g></g></svg>