<svg id="Layer_1" data-name="Layer 1" xmlns="http://www.w3.org/2000/svg" viewBox="0 0 342.82 191"><defs><style>.cls-1{fill:#231f20;}</style></defs><title>Untitled-1</title><path class="cls-1" d="M65,178.12a.6.6,0,0,0-.41-.17h0a.57.57,0,0,0-.42.19.6.6,0,0,0-.18.43l.09,4.2a1,1,0,0,1-.21.69.92.92,0,0,1-.68.23l-34.12.7,35.67-27.51,0,0,0-1.71-40,.81h0a.92.92,0,0,1-.65-.21.89.89,0,0,1-.23-.67L23.7,152a.59.59,0,0,0-.19-.42.6.6,0,0,0-.41-.17h0a.55.55,0,0,0-.42.19.61.61,0,0,0-.17.43l.22,10.88a.63.63,0,0,0,.19.42.61.61,0,0,0,.42.17h0a.53.53,0,0,0,.59-.62l-.08-4.2a.79.79,0,0,1,.88-.92l32.4-.66-34,25.53,0,0,.16,7.69a.59.59,0,0,0,.19.42.61.61,0,0,0,.42.17h0a.61.61,0,0,0,.45-.16.61.61,0,0,0,.14-.46l-.06-3.12a.79.79,0,0,1,.88-.92l37.94-.78h0a.79.79,0,0,1,.89.89l.06,3.12a.55.55,0,0,0,.6.6h0a.63.63,0,0,0,.42-.19.55.55,0,0,0,.17-.43l-.22-10.89A.57.57,0,0,0,65,178.12Z"/><path class="cls-1" d="M69.66,109.8A26.42,26.42,0,0,0,60,103.38a26.47,26.47,0,0,0-11.41-2,18.92,18.92,0,0,0-9.68,3.2,17.69,17.69,0,0,0-7.14,17.77,19,19,0,0,0,4.77,9,25.88,25.88,0,0,0,9.64,6.44,26.74,26.74,0,0,0,10,2.07c.47,0,.94,0,1.4,0a19.06,19.06,0,0,0,9.69-3.22,17.71,17.71,0,0,0,7.14-17.77A18.82,18.82,0,0,0,69.66,109.8Zm2.69,18.48a10.5,10.5,0,0,1-5.14,5.61,17.53,17.53,0,0,1-8.63,1.66,31.4,31.4,0,0,1-10.53-2.41,31.55,31.55,0,0,1-9.28-5.56,17.55,17.55,0,0,1-5.08-7.16A10.78,10.78,0,0,1,39,107.23a16.52,16.52,0,0,1,7.65-1.68l1,0A32,32,0,0,1,58.15,108a31.94,31.94,0,0,1,9.28,5.53,17.12,17.12,0,0,1,5.08,7.16A10.54,10.54,0,0,1,72.35,128.28Z"/><path class="cls-1" d="M78.47,52.61l2.21-2.21a.6.6,0,0,0,.17-.43.61.61,0,0,0-1-.43l-7.69,7.71a.53.53,0,0,0-.17.43.57.57,0,0,0,.17.43.54.54,0,0,0,.85,0l3-3a.79.79,0,0,1,1.27,0L100.17,78l-42-6.8h0l-5.43,5.44a.6.6,0,0,0-.17.43.61.61,0,0,0,.17.43.55.55,0,0,0,.86,0l2.21-2.21a.79.79,0,0,1,1.27,0l26.86,26.82a.8.8,0,0,1,0,1.28h0l-2.21,2.21a.61.61,0,0,0-.21.43.62.62,0,0,0,.22.42.54.54,0,0,0,.42.17.56.56,0,0,0,.43-.17l7.69-7.7a.6.6,0,0,0,0-.86.57.57,0,0,0-.42-.17.6.6,0,0,0-.43.17l-3,3a.8.8,0,0,1-1.28,0L61,76.77l44.56,6.64h0l1.17-1.16,0,0L78.47,53.89A.8.8,0,0,1,78.47,52.61Z"/><path class="cls-1" d="M135.51,31.7l-4.62-7.49,0-.05L102.65,35.64a.68.68,0,0,0-.32.33.57.57,0,0,0,0,.46.6.6,0,0,0,.31.36.62.62,0,0,0,.48,0l2.9-1.18a.79.79,0,0,1,1.17.49l14.31,35.15a.79.79,0,0,1-.49,1.18l-2.9,1.18a.63.63,0,0,0-.36.31.58.58,0,0,0,0,.48.55.55,0,0,0,.33.32.52.52,0,0,0,.24,0,.57.57,0,0,0,.22,0l13.08-5.32a.55.55,0,0,0,.32-.33.57.57,0,0,0,0-.46.59.59,0,0,0-.33-.33.57.57,0,0,0-.46,0l-4.39,1.79a.92.92,0,0,1-.72,0,.91.91,0,0,1-.46-.54L117.53,49.7l7.57-3.09a7.14,7.14,0,0,1,3.09-.62,4,4,0,0,1,2.51,1.3,14.45,14.45,0,0,1,2.48,3.89,1,1,0,0,0,.34.3.4.4,0,0,0,.39,0,.43.43,0,0,0,.25-.3.61.61,0,0,0,0-.44L128.41,36.7a.69.69,0,0,0-.29-.34.48.48,0,0,0-.4,0,.53.53,0,0,0-.26.27.83.83,0,0,0,0,.45,14.51,14.51,0,0,1,.68,4.29,4,4,0,0,1-.9,2.52,6.81,6.81,0,0,1-2.55,1.64l-7.58,3.09-6.11-15,11.57-4.71a11.25,11.25,0,0,1,4.16-.95h.08a7.16,7.16,0,0,1,3.67,1.14,22.47,22.47,0,0,1,4.11,3.48.67.67,0,0,0,.79.2.48.48,0,0,0,.31-.34.81.81,0,0,0-.07-.53Z"/><path class="cls-1" d="M166.55,60.42l-3.11.32a.9.9,0,0,1-.7-.16.89.89,0,0,1-.29-.65l-3.86-37.75a.79.79,0,0,1,.8-1l3.11-.32a.62.62,0,0,0,.41-.22.59.59,0,0,0,.13-.44.58.58,0,0,0-.22-.41.55.55,0,0,0-.44-.13l-12.44,1.27a.54.54,0,0,0-.4.22.56.56,0,0,0-.14.44.65.65,0,0,0,.2.44.57.57,0,0,0,.46.1l3.11-.31a.89.89,0,0,1,.7.15.92.92,0,0,1,.29.65L158,60.38a.94.94,0,0,1-.15.7.92.92,0,0,1-.65.29l-3.11.32a.53.53,0,0,0-.54.66.56.56,0,0,0,.22.41.59.59,0,0,0,.37.14h.07l12.44-1.28a.54.54,0,0,0,.4-.22.56.56,0,0,0,.14-.44.58.58,0,0,0-.22-.4A.57.57,0,0,0,166.55,60.42Z"/><path class="cls-1" d="M215.73,25.34a.4.4,0,0,0-.44.23l-1.45,2.81a21.19,21.19,0,0,0-5-4.16,20.57,20.57,0,0,0-6.61-2.39,16.1,16.1,0,0,0-9.62,1,19,19,0,0,0-7.81,6.45A26.59,26.59,0,0,0,180.33,40a26,26,0,0,0,.17,11.59,18.89,18.89,0,0,0,5,8.9A16.91,16.91,0,0,0,194.36,65a19.18,19.18,0,0,0,3.64.36,16.45,16.45,0,0,0,4.87-.72A16.19,16.19,0,0,0,210,59.9a.75.75,0,0,0,0-.86.54.54,0,0,0-.49-.18,1.11,1.11,0,0,0-.56.27,14.9,14.9,0,0,1-6.58,4.36,14.59,14.59,0,0,1-7.25.45,11.11,11.11,0,0,1-6.64-4A17.67,17.67,0,0,1,185,51.7a30,30,0,0,1,.26-10.8A30.3,30.3,0,0,1,189,30.81a17.92,17.92,0,0,1,6.21-6.37,10.45,10.45,0,0,1,7.29-1.32,11.35,11.35,0,0,1,7.81,4.95c1.65,2.61,2.54,6.23,2.65,10.75a.9.9,0,0,0,.16.53.63.63,0,0,0,.4.29.49.49,0,0,0,.44-.13.94.94,0,0,0,.25-.52L216,25.84a.43.43,0,0,0-.07-.33A.36.36,0,0,0,215.73,25.34Z"/><path class="cls-1" d="M235,81l-3.09-2a.8.8,0,0,1-.27-1.25L252.5,45l6,3.83a8.74,8.74,0,0,1,2.83,2.56,4.62,4.62,0,0,1,.58,2.74,31.84,31.84,0,0,1-1,4.9.9.9,0,0,0,.38.92.38.38,0,0,0,.3.07.79.79,0,0,0,.43-.38,1.79,1.79,0,0,0,.22-.45l3.05-7.39,0,0L237.24,33.85l-5.45,5.91a1.92,1.92,0,0,0-.31.4.74.74,0,0,0-.17.55.43.43,0,0,0,.18.24.91.91,0,0,0,1-.05,32.6,32.6,0,0,1,4-2.95,4.58,4.58,0,0,1,2.73-.62,8.63,8.63,0,0,1,3.52,1.49l6,3.82L227.84,75.38a.79.79,0,0,1-1.25.27l-3.08-2a.57.57,0,0,0-.47-.11.63.63,0,0,0-.37.29.61.61,0,0,0-.08.46.64.64,0,0,0,.26.38L234.3,82a.59.59,0,0,0,.31.09h.15a.64.64,0,0,0,.38-.26.61.61,0,0,0,.07-.46A.57.57,0,0,0,235,81Z"/><path class="cls-1" d="M254.46,99.59a.89.89,0,0,1-.28-.65.9.9,0,0,1,.36-.62l28.55-25a.79.79,0,0,1,1.27.08l2.06,2.36a.59.59,0,0,0,.42.19.55.55,0,0,0,.44-.14.6.6,0,0,0,.2-.41.58.58,0,0,0-.15-.44l-8.24-9.41a.56.56,0,0,0-.41-.2.59.59,0,0,0-.5,1l2.06,2.35a.91.91,0,0,1,.28.66.89.89,0,0,1-.36.61L251.61,95a.78.78,0,0,1-1.27-.08l-2.06-2.35a.62.62,0,0,0-.41-.24h0a.65.65,0,0,0-.62.6.58.58,0,0,0,.15.44l8.24,9.4a.56.56,0,0,0,.41.2h.05a.56.56,0,0,0,.39-.15.6.6,0,0,0,.2-.42.59.59,0,0,0-.14-.43Z"/><path class="cls-1" d="M285.64,137.84a27,27,0,0,0,10.44-2.27,26.47,26.47,0,0,0,9.54-6.58,18.88,18.88,0,0,0,4.61-9.09,17.69,17.69,0,0,0-7.45-17.64A19.07,19.07,0,0,0,293,99.21a28.29,28.29,0,0,0-20.91,8.84,19,19,0,0,0-4.6,9.1A17.7,17.7,0,0,0,275,134.8a18.91,18.91,0,0,0,9.73,3ZM275,132.09a10.78,10.78,0,0,1-5.54-13.1,17.52,17.52,0,0,1,5-7.25,34.56,34.56,0,0,1,19.66-8.31l1.28,0a16.79,16.79,0,0,1,7.37,1.54,10.79,10.79,0,0,1,5.54,13.1,17.18,17.18,0,0,1-5,7.25,35,35,0,0,1-19.66,8.31A17.14,17.14,0,0,1,275,132.09Z"/><path class="cls-1" d="M320.16,151.66a.61.61,0,0,0-.42-.19h0a.55.55,0,0,0-.6.6l-.06,3.12a1,1,0,0,1-.24.68.89.89,0,0,1-.65.21h0l-37.94-.8a1,1,0,0,1-.68-.24.94.94,0,0,1-.2-.69l.06-3.12a.54.54,0,0,0-.59-.62h0a.61.61,0,0,0-.42.17.59.59,0,0,0-.19.42l-.23,10.89a.65.65,0,0,0,.17.43.58.58,0,0,0,.42.18h0a.56.56,0,0,0,.41-.17.57.57,0,0,0,.19-.42l.09-4.2a.8.8,0,0,1,.92-.89l34.13.72-36.78,26,0,0,0,1.65v.07l40.05.84a.8.8,0,0,1,.88.92l-.06,3.13a.55.55,0,0,0,.17.43.63.63,0,0,0,.42.19h0a.61.61,0,0,0,.42-.17.65.65,0,0,0,.19-.43l.23-10.88a.6.6,0,0,0-.18-.43.57.57,0,0,0-.42-.19h0a.58.58,0,0,0-.43.15.57.57,0,0,0-.16.44l-.09,4.21a.93.93,0,0,1-.24.67.88.88,0,0,1-.69.21l-32.39-.68,35-24.1,0,0,.16-7.69A.56.56,0,0,0,320.16,151.66Z"/><path class="cls-1" d="M2.57,190.7a170.67,170.67,0,0,1-1.11-19.29C1.46,77.7,77.7,1.46,171.41,1.46s170,76.24,170,170a170.67,170.67,0,0,1-1.11,19.29h1.48a173,173,0,0,0,1.09-19.29C342.82,76.89,265.93,0,171.41,0S0,76.89,0,171.41A173,173,0,0,0,1.09,190.7Z"/></svg>