<svg xmlns="http://www.w3.org/2000/svg" xmlns:xlink="http://www.w3.org/1999/xlink" viewBox="0 0 655.79 548.02"><defs><style>.cls-1{opacity:0.2;fill:url(#linear-gradient);}.cls-2{fill:url(#linear-gradient-2);}.cls-3{fill:url(#linear-gradient-3);}.cls-4{fill:url(#linear-gradient-4);}.cls-5{fill:url(#linear-gradient-5);}.cls-6{fill:url(#linear-gradient-6);}.cls-7{fill:url(#linear-gradient-7);}.cls-8{fill:url(#linear-gradient-8);}.cls-9{fill:url(#linear-gradient-9);}.cls-10{fill:url(#linear-gradient-10);}.cls-11{fill:url(#linear-gradient-11);}.cls-12{fill:url(#linear-gradient-12);}.cls-13{fill:url(#linear-gradient-13);}.cls-14{fill:url(#linear-gradient-14);}.cls-15{fill:url(#linear-gradient-15);}.cls-16{fill:url(#linear-gradient-16);}.cls-17{fill:url(#linear-gradient-17);}.cls-18{fill:url(#linear-gradient-18);}.cls-19{fill:url(#linear-gradient-19);}.cls-20{fill:url(#linear-gradient-20);}.cls-21{fill:url(#linear-gradient-21);}.cls-22{fill:url(#linear-gradient-22);}.cls-23{fill:url(#linear-gradient-23);}.cls-24{fill:url(#linear-gradient-24);}.cls-25{fill:url(#linear-gradient-25);}.cls-26{fill:url(#linear-gradient-26);}.cls-27{fill:url(#linear-gradient-27);}.cls-28{fill:url(#linear-gradient-28);}.cls-29{fill:url(#linear-gradient-29);}.cls-30{fill:url(#linear-gradient-30);}.cls-31{fill:url(#linear-gradient-31);}.cls-32{fill:url(#linear-gradient-32);}.cls-33{fill:url(#linear-gradient-33);}</style><linearGradient id="linear-gradient" x1="2.75" y1="526.85" x2="636.67" y2="179.37" gradientUnits="userSpaceOnUse"><stop offset="0.24" stop-color="#fad9f8"/><stop offset="0.35" stop-color="#fad5f8"/><stop offset="0.46" stop-color="#f8c9f8"/><stop offset="0.56" stop-color="#f6b5f9"/><stop offset="0.67" stop-color="#f399fa"/><stop offset="0.78" stop-color="#ef75fb"/><stop offset="0.82" stop-color="#ed63fb"/></linearGradient><linearGradient id="linear-gradient-2" x1="325.69" y1="43.06" x2="302.79" y2="261.25" gradientUnits="userSpaceOnUse"><stop offset="0" stop-color="#3725b4"/><stop offset="0.72" stop-color="#c251ff"/></linearGradient><linearGradient id="linear-gradient-3" x1="266.15" y1="36.47" x2="243.23" y2="254.86" xlink:href="#linear-gradient-2"/><linearGradient id="linear-gradient-4" x1="277.99" y1="37.71" x2="255.08" y2="256.1" xlink:href="#linear-gradient-2"/><linearGradient id="linear-gradient-5" x1="207.64" y1="323.44" x2="271.62" y2="108.82" gradientUnits="userSpaceOnUse"><stop offset="0" stop-color="#d63cae"/><stop offset="0.04" stop-color="#cb3bae"/><stop offset="0.2" stop-color="#a739ae"/><stop offset="0.35" stop-color="#8b37ae"/><stop offset="0.51" stop-color="#7736ae"/><stop offset="0.67" stop-color="#6b35ae"/><stop offset="0.82" stop-color="#6735ae"/></linearGradient><linearGradient id="linear-gradient-6" x1="500.76" y1="59.76" x2="230.19" y2="442.23" gradientUnits="userSpaceOnUse"><stop offset="0" stop-color="#3d9fce"/><stop offset="0.72" stop-color="#0036fb"/></linearGradient><linearGradient id="linear-gradient-7" x1="510.74" y1="66.82" x2="240.17" y2="449.29" xlink:href="#linear-gradient-6"/><linearGradient id="linear-gradient-8" x1="500.18" y1="59.35" x2="229.61" y2="441.82" xlink:href="#linear-gradient-6"/><linearGradient id="linear-gradient-9" x1="2672.94" y1="681.67" x2="2736.92" y2="467.05" gradientTransform="matrix(-0.95, -0.31, -0.31, 0.95, 3136.51, 494.16)" gradientUnits="userSpaceOnUse"><stop offset="0" stop-color="#d63cae"/><stop offset="0.04" stop-color="#c43cb4"/><stop offset="0.15" stop-color="#903cc3"/><stop offset="0.26" stop-color="#643bd1"/><stop offset="0.37" stop-color="#403bdc"/><stop offset="0.48" stop-color="#243be5"/><stop offset="0.6" stop-color="#103beb"/><stop offset="0.71" stop-color="#043bef"/><stop offset="0.82" stop-color="#003bf0"/></linearGradient><linearGradient id="linear-gradient-10" x1="9531.63" y1="-446.02" x2="9511.19" y2="-251.17" gradientTransform="matrix(-1, 0.07, 0.07, 1, 9870.84, -33.15)" xlink:href="#linear-gradient-2"/><linearGradient id="linear-gradient-11" x1="9478.46" y1="-451.85" x2="9458" y2="-256.84" gradientTransform="matrix(-1, 0.07, 0.07, 1, 9870.84, -33.15)" xlink:href="#linear-gradient-2"/><linearGradient id="linear-gradient-12" x1="9489.04" y1="-450.74" x2="9468.58" y2="-255.73" gradientTransform="matrix(-1, 0.07, 0.07, 1, 9870.84, -33.15)" xlink:href="#linear-gradient-2"/><linearGradient id="linear-gradient-13" x1="97.1" y1="245.53" x2="272.68" y2="245.53" gradientUnits="userSpaceOnUse"><stop offset="0" stop-color="#6f39ff"/><stop offset="0.16" stop-color="#703eff"/><stop offset="0.36" stop-color="#724dff"/><stop offset="0.58" stop-color="#7666ff"/><stop offset="0.81" stop-color="#7b89ff"/><stop offset="0.96" stop-color="#7fa3ff"/></linearGradient><linearGradient id="linear-gradient-14" x1="12391.61" y1="5987.27" x2="12423.69" y2="6222.85" gradientTransform="matrix(-0.63, -0.77, -0.77, 0.63, 13133.05, 6104.49)" gradientUnits="userSpaceOnUse"><stop offset="0.26" stop-color="#18f"/><stop offset="0.4" stop-color="#1082fb"/><stop offset="0.59" stop-color="#0c70ee"/><stop offset="0.8" stop-color="#0653d9"/><stop offset="1" stop-color="#0032c2"/></linearGradient><linearGradient id="linear-gradient-15" x1="12477.09" y1="6120.09" x2="12398.58" y2="6104.61" xlink:href="#linear-gradient-14"/><linearGradient id="linear-gradient-16" x1="10755.74" y1="2148.61" x2="10787.81" y2="2384.18" gradientTransform="matrix(-1.02, -0.45, -0.54, 1.21, 12703.74, 2435.34)" xlink:href="#linear-gradient-14"/><linearGradient id="linear-gradient-17" x1="10841.21" y1="2281.43" x2="10762.71" y2="2265.95" gradientTransform="matrix(-1.02, -0.45, -0.54, 1.21, 12703.74, 2435.34)" xlink:href="#linear-gradient-14"/><linearGradient id="linear-gradient-18" x1="7596.63" y1="-899.07" x2="7628.7" y2="-663.48" gradientTransform="matrix(-0.95, 0.3, 0.3, 0.95, 7637.79, -1226.25)" xlink:href="#linear-gradient-14"/><linearGradient id="linear-gradient-19" x1="7682.12" y1="-766.24" x2="7603.58" y2="-781.73" gradientTransform="matrix(-0.95, 0.3, 0.3, 0.95, 7637.79, -1226.25)" xlink:href="#linear-gradient-14"/><linearGradient id="linear-gradient-20" x1="8937.4" y1="-120.26" x2="8969.47" y2="115.32" gradientTransform="matrix(-1, 0.09, 0.09, 1, 9202.82, -482.2)" xlink:href="#linear-gradient-14"/><linearGradient id="linear-gradient-21" x1="9022.88" y1="12.56" x2="8944.36" y2="-2.92" gradientTransform="matrix(-1, 0.09, 0.09, 1, 9202.82, -482.2)" xlink:href="#linear-gradient-14"/><linearGradient id="linear-gradient-22" x1="475.52" y1="304.04" x2="593.76" y2="304.04" gradientUnits="userSpaceOnUse"><stop offset="0" stop-color="#f38fd8"/><stop offset="0.82" stop-color="#a44eef"/></linearGradient><linearGradient id="linear-gradient-23" x1="531.95" y1="310.75" x2="570.98" y2="310.75" xlink:href="#linear-gradient-22"/><linearGradient id="linear-gradient-24" x1="520.13" y1="332.4" x2="554.13" y2="332.4" xlink:href="#linear-gradient-22"/><linearGradient id="linear-gradient-25" x1="0" y1="373.75" x2="163.6" y2="373.75" xlink:href="#linear-gradient-2"/><linearGradient id="linear-gradient-26" x1="77.24" y1="359.22" x2="94.27" y2="359.22" xlink:href="#linear-gradient-2"/><linearGradient id="linear-gradient-27" x1="97.1" y1="369.88" x2="111.94" y2="369.88" xlink:href="#linear-gradient-2"/><linearGradient id="linear-gradient-28" x1="1260.26" y1="-872.21" x2="1260.5" y2="-872.21" gradientTransform="translate(-804.35 1434.58) rotate(-3.78)" xlink:href="#linear-gradient-22"/><linearGradient id="linear-gradient-29" x1="12421.57" y1="10424.09" x2="12126.81" y2="10424.09" gradientTransform="matrix(-0.04, -1, -1, 0.04, 11214.51, 12273.26)" xlink:href="#linear-gradient-22"/><linearGradient id="linear-gradient-30" x1="326.27" y1="495.7" x2="390.24" y2="281.07" gradientUnits="userSpaceOnUse"><stop offset="0.18" stop-color="#6735ae"/><stop offset="1" stop-color="#d63cae"/></linearGradient><linearGradient id="linear-gradient-31" x1="1123.9" y1="-892.74" x2="1124.06" y2="-892.74" gradientTransform="translate(-621.52 1588.68) rotate(-12.99)" xlink:href="#linear-gradient-2"/><linearGradient id="linear-gradient-32" x1="12359.6" y1="10550.12" x2="12157.2" y2="10550.12" gradientTransform="matrix(-0.2, -0.98, -0.98, 0.2, 12977.29, 10363.78)" xlink:href="#linear-gradient-2"/><linearGradient id="linear-gradient-33" x1="12184.42" y1="10541.94" x2="12330.17" y2="10541.94" gradientTransform="matrix(-0.2, -0.98, -0.98, 0.2, 12977.29, 10363.78)" xlink:href="#linear-gradient-2"/></defs><g id="Layer_2" data-name="Layer 2"><g id="Layer_1-2" data-name="Layer 1"><path class="cls-1" d="M542.56,185.53c-134.32-72.86-334.3-61.51-447,25.35S.48,427.13,134.62,500c134.29,72.88,334.35,61.51,447-25.37S676.67,258.39,542.56,185.53Z"/><path class="cls-2" d="M288.1,405.12l-.42-3.16-.09.23C287.72,403.17,287.88,404.15,288.1,405.12Z"/><path class="cls-3" d="M367.24,287.12c-7.31-6.87-16.08-12.2-22.64-19.8-2.39-2.77-4.52-6-4.85-9.63-.68-7.47,6-13.18,10.58-19.12,14-18.22,9.13-44,3.62-66.34-1.53-6.18-3.46-13-8.81-16.42-7.79-5-17.93-.38-26.16,3.87s-19.26,7.74-25.9,1.27-3.38-17.81,2.48-24.87c6.65-8,15.88-13.51,22.58-21.46s10.31-20.35,3.9-28.54c-7.62-9.73-22.72-6.89-34.64-3.61S259.66,87,253.8,76.1c-3.33-6.17-1.6-14.07,2.35-19.86s9.79-10,15.38-14.22c3.07-2.34,6.31-5,7.15-8.8.77-3.45-.68-7-2.49-10.07C265.93,5.87,242.08-1.78,223.69,6.31S194.81,37.16,200.61,56.4c2.2,7.29,5.74,16.79-.45,21.23-8.14,5.82-17.07-7-26.84-9.19-8.2-1.81-16.41,5.09-18.6,13.19S155,98.39,158.49,106c6.75,14.67,17.3,27.19,26.66,40.34,1.49,2.1,3,4.37,3.16,6.94.24,4.3-3.41,7.84-7.2,9.87-8.56,4.59-18.7,4.69-28.27,6.32s-19.89,5.77-23.72,14.7c-4.13,9.62,1.12,20.93,8.62,28.24s17.08,12.15,24.82,19.2c2.27,2.07,4.48,4.55,4.82,7.59.54,4.72-3.46,8.58-7.1,11.62L101.39,300c-2.7,2.26-5.6,4.85-6.06,8.35a12.24,12.24,0,0,0,.7,5.11c5.49,17.57,22.78,29.29,40.64,33.76s36.57,3,55,2.51c5.1-.14,10.33-.19,15.12,1.54,6.73,2.43,11.72,8,16.47,13.37q15.53,17.42,31.88,34.09c5.63,5.75,12.15,11.8,20.2,12.1,5.33.2,10.64-3.9,12.28-8.59-.09-.75-.14-1.5-.18-2.25l.27,2a7.71,7.71,0,0,0-.27-5.76c.9-14.12,11-27.45,23.16-35.67,14.64-9.95,32.09-14.84,47.73-23.15,9.76-5.18,19.61-13,21.06-23.94C380.69,303.49,374.57,294,367.24,287.12Z"/><path class="cls-4" d="M307.53,323.48A48.89,48.89,0,0,0,267.42,333c-3.86-17.53-9.35-34.39-14.62-51.5a1.78,1.78,0,0,0,.3-.17,488.43,488.43,0,0,0,38-37.13c1.31-1.43-.74-3.65-2.06-2.21a488.25,488.25,0,0,1-37.24,36.4c-.53-1.75-1.07-3.49-1.59-5.24-6-20.19-7.82-41.08-9.34-62a1.46,1.46,0,0,0,.29-.23,203.45,203.45,0,0,0,26.55-38.8c.9-1.71-1.67-3.31-2.58-1.58A200.21,200.21,0,0,1,240.61,207c-.1-1.43-.2-2.85-.31-4.27q-2.73-37.6-4.17-75.28c-.07-1.94-3.09-2-3-.11.67,17.21,1.59,34.4,2.65,51.59q-6.12-2.56-12.25-5.1c-3.88-1.62-15-4.41-15.91-9.08-.36-1.92-3.31-1.24-3,.66.83,4.44,4.84,5.83,8.63,7.41q11.34,4.74,22.7,9.45c.43,6.78.8,13.57,1.3,20.35,1,14.32,1.9,28.79,3.94,43.06l-43-9.66c-1.89-.43-2.77,2.46-.87,2.89l44.14,9.92a.81.81,0,0,0,.22,0,183,183,0,0,0,4.35,20.7c4.11,14.84,9,29.3,13.26,44a115.47,115.47,0,0,0-54.12-14.7,1.51,1.51,0,0,0-.11,3,112.24,112.24,0,0,1,54.72,15.38,1.46,1.46,0,0,0,.61.2c1.85,6.68,3.55,13.42,4.92,20.29,4.74,23.76,7.55,47.84,10.35,71.9.22,1.93,3.17,1.25,2.95-.67-2.72-23.32-5.44-46.68-9.92-69.74-.19-1-.42-2-.62-2.93l.08,0a45.75,45.75,0,0,1,38.47-9.82C308.55,326.75,309.44,323.86,307.53,323.48Z"/><path class="cls-5" d="M288.21,238.16a36.26,36.26,0,0,0-29.76,7c-2.86-13-6.93-25.51-10.84-38.21a1.71,1.71,0,0,0,.23-.12,363.23,363.23,0,0,0,28.22-27.55c1-1-.55-2.7-1.53-1.63a364.65,364.65,0,0,1-27.62,27c-.4-1.3-.8-2.59-1.19-3.89-4.47-15-5.8-30.47-6.93-46a.69.69,0,0,0,.22-.16,150.75,150.75,0,0,0,19.7-28.78c.66-1.28-1.24-2.46-1.91-1.18a148.3,148.3,0,0,1-18.23,27c-.07-1.05-.15-2.11-.23-3.17q-2-27.89-3.09-55.84c-.06-1.43-2.3-1.52-2.24-.08.5,12.77,1.18,25.52,2,38.27l-9.09-3.78c-2.88-1.2-11.15-3.27-11.8-6.74-.27-1.42-2.45-.92-2.19.5.62,3.29,3.59,4.32,6.4,5.49l16.84,7c.32,5,.6,10.07,1,15.09.78,10.63,1.41,21.36,2.93,31.95l-31.9-7.17c-1.4-.32-2.06,1.83-.64,2.15l32.73,7.35a.49.49,0,0,0,.17,0,136,136,0,0,0,3.23,15.36c3,11,6.7,21.73,9.84,32.63a85.77,85.77,0,0,0-40.15-10.91,1.12,1.12,0,0,0-.08,2.24,83.45,83.45,0,0,1,40.59,11.41,1,1,0,0,0,.45.15c1.37,5,2.64,10,3.65,15.05,3.52,17.63,5.6,35.5,7.68,53.34.16,1.43,2.35.92,2.18-.49-2-17.31-4-34.63-7.35-51.74-.15-.73-.31-1.45-.47-2.17l.07,0a33.93,33.93,0,0,1,28.54-7.29C289,240.58,289.63,238.44,288.21,238.16Z"/><path class="cls-6" d="M282,369.49l1.38-2.88c0,.09,0,.17,0,.25A27.56,27.56,0,0,1,282,369.49Z"/><path class="cls-7" d="M243.16,232.81c9.08-4.27,19.07-6.63,27.66-11.84,3.12-1.89,6.15-4.3,7.58-7.66,3-6.89-1.65-14.39-4.15-21.45-7.65-21.64,4.93-44.72,17.05-64.21,3.36-5.41,7.29-11.26,13.45-12.89,9-2.37,17.17,5.18,23.68,11.76s15.94,13.31,24.25,9.21,8.71-15.9,5.32-24.42c-3.85-9.66-10.93-17.76-14.84-27.39s-3.52-22.54,5.1-28.35c10.26-6.9,23.74.47,34.07,7.27s25,12.86,33.92,4.33c5.08-4.84,5.87-12.89,3.9-19.62S413.92,35,409.92,29.27c-2.2-3.17-4.45-6.73-4.09-10.57.34-3.53,2.82-6.47,5.48-8.81,15.1-13.27,40.15-13.17,55.14.2s17.93,38.26,6.48,54.77c-4.35,6.26-10.66,14.2-6.13,20.33,5.94,8,18.4-1.42,28.36-.45,8.35.82,14,9.91,13.61,18.3s-5.42,15.85-11.11,22c-11,11.86-24.85,20.51-37.82,30.13-2.07,1.53-4.22,3.22-5.15,5.62-1.56,4,.82,8.51,3.79,11.62,6.73,7,16.34,10.23,24.94,14.74s17.13,11.64,18,21.31c.95,10.42-7.54,19.56-16.92,24.19s-20,6.28-29.54,10.59c-2.8,1.27-5.67,3-6.94,5.74-2,4.31.65,9.22,3.17,13.24L492,327.15c1.88,3,3.83,6.35,3.19,9.81A12.07,12.07,0,0,1,493,341.6c-10.64,15-30.71,20.82-49.08,19.56s-35.72-8.41-53.06-14.59c-4.8-1.71-9.76-3.38-14.85-3.21-7.15.23-13.63,4-19.8,7.62Q336,362.76,315.34,373.56c-7.13,3.73-15.21,7.47-22.95,5.26-5.13-1.45-8.92-7-9-12,.33-.68.6-1.38.87-2.08l-.88,1.83a7.72,7.72,0,0,1,2-5.4c3.5-13.7-2-29.51-11-41.07-10.85-14-25.93-24-38.24-36.76-7.68-7.95-14.64-18.41-12.64-29.28C225.31,244.23,234.07,237.08,243.16,232.81Z"/><path class="cls-8" d="M288.72,285.84a48.91,48.91,0,0,1,35.22,21.42c9.08-15.48,19.51-29.82,29.81-44.46a1.43,1.43,0,0,1-.23-.26,489.13,489.13,0,0,1-24.72-47.07c-.8-1.76,1.83-3.24,2.64-1.47a489.66,489.66,0,0,0,24.17,46.13c1.05-1.5,2.1-3,3.14-4.49,12-17.33,20.13-36.66,28-56.07a1.44,1.44,0,0,1-.22-.31,204.27,204.27,0,0,1-13.26-45.11c-.32-1.9,2.61-2.63,2.94-.71a200.5,200.5,0,0,0,12.11,42.25l1.62-4q14.22-34.92,27.22-70.31c.67-1.82,3.58-1,2.9.83q-8.93,24.24-18.46,48.24l13.23-1.06c4.19-.34,15.66.45,17.94-3.72.93-1.71,3.52-.16,2.59,1.54-2.16,4-6.4,4.05-10.49,4.38q-12.26,1-24.51,2c-2.5,6.32-5,12.66-7.52,19-5.42,13.3-10.7,26.8-17.05,39.73l43.88,4.1c1.93.18,1.87,3.2-.07,3l-45-4.21a.9.9,0,0,1-.22-.06,183.09,183.09,0,0,1-10.53,18.34c-8.49,12.85-17.64,25.07-26.2,37.75a115.48,115.48,0,0,1,56,2.73,1.51,1.51,0,0,1-.84,2.9,112.25,112.25,0,0,0-56.78-2.27,1.58,1.58,0,0,1-.65,0c-3.82,5.79-7.53,11.67-10.95,17.78-11.85,21.13-22,43.17-32.06,65.18-.81,1.77-3.39.21-2.59-1.54,9.79-21.34,19.59-42.72,31-63.27.48-.87,1-1.72,1.49-2.59l-.06-.07a45.75,45.75,0,0,0-33.56-21.22C286.74,288.63,286.79,285.61,288.72,285.84Z"/><path class="cls-9" d="M333.46,210.66a36.28,36.28,0,0,1,26.12,15.89c6.74-11.48,14.47-22.12,22.12-33a1.09,1.09,0,0,1-.18-.19,362.52,362.52,0,0,1-18.33-34.92c-.6-1.3,1.36-2.4,2-1.08a361.21,361.21,0,0,0,17.93,34.21l2.33-3.33c8.88-12.86,14.93-27.19,20.79-41.6a.86.86,0,0,1-.15-.22A150.72,150.72,0,0,1,396.21,113c-.24-1.42,1.93-2,2.18-.53a148.17,148.17,0,0,0,9,31.34l1.2-2.94q10.55-25.9,20.19-52.15c.5-1.35,2.66-.74,2.16.61q-6.63,18-13.7,35.79l9.81-.79c3.11-.25,11.62.33,13.31-2.76.69-1.27,2.61-.12,1.92,1.14-1.6,2.94-4.74,3-7.78,3.25q-9.09.75-18.18,1.47c-1.86,4.68-3.68,9.39-5.58,14.06-4,9.86-7.94,19.88-12.65,29.47l32.55,3c1.43.13,1.39,2.37-.05,2.24l-33.41-3.12a.49.49,0,0,1-.16,0,136.83,136.83,0,0,1-7.81,13.61c-6.3,9.53-13.08,18.6-19.44,28a85.7,85.7,0,0,1,41.56,2,1.12,1.12,0,0,1-.62,2.16,83.37,83.37,0,0,0-42.13-1.69,1.07,1.07,0,0,1-.47,0c-2.84,4.29-5.59,8.65-8.13,13.18-8.79,15.68-16.29,32-23.78,48.35-.6,1.32-2.52.16-1.92-1.14,7.26-15.83,14.53-31.69,23-46.93.36-.65.74-1.28,1.11-1.92l-.05-.06a34,34,0,0,0-24.9-15.74C332,212.73,332,210.49,333.46,210.66Z"/><path class="cls-10" d="M385.38,471.18l.19-2.85.09.21A23.64,23.64,0,0,1,385.38,471.18Z"/><path class="cls-11" d="M307.92,370.7c6.11-6.55,13.61-11.81,19-19,2-2.6,3.68-5.6,3.76-8.86.17-6.69-6.15-11.39-10.55-16.41C306.61,311,309.4,287.74,313,267.56c1-5.6,2.32-11.75,6.88-15.15,6.65-4.93,15.95-1.39,23.54,1.91s17.62,5.75,23.15-.4,2-16.06-3.68-22c-6.39-6.73-14.94-11.1-21.38-17.79s-10.38-17.53-5.16-25.2c6.22-9.12,19.84-7.48,30.66-5.26s25,2.39,29.56-7.65c2.6-5.7.6-12.63-3.27-17.56s-9.31-8.31-14.54-11.76c-2.87-1.9-5.91-4.11-6.89-7.42-.89-3,.19-6.29,1.62-9.12,8.13-16,28.93-24.22,45.79-18.1s27.55,25.78,23.51,43.27c-1.53,6.63-4.12,15.3,1.66,18.89,7.6,4.71,14.79-7.28,23.37-9.77,7.2-2.09,14.92,3.57,17.35,10.66s.76,14.94-1.92,21.94c-5.15,13.47-13.81,25.24-21.38,37.51-1.21,2-2.42,4.07-2.4,6.37,0,3.85,3.49,6.79,7,8.38,7.9,3.58,16.94,3.08,25.56,4s18.06,4,22,11.7c4.24,8.33.23,18.71-6,25.67s-14.51,11.83-21,18.57c-1.9,2-3.72,4.31-3.85,7.05-.19,4.22,3.59,7.43,7,9.92l55.36,40.3c2.54,1.86,5.28,4,5.89,7.08a10.82,10.82,0,0,1-.32,4.59c-3.86,16-18.58,27.44-34.22,32.48s-32.41,4.86-48.83,5.48c-4.55.17-9.21.43-13.38,2.26-5.85,2.56-10,7.84-13.89,12.88Q428,447.68,414.4,463.5c-4.68,5.45-10.13,11.23-17.29,12-4.73.49-9.71-2.84-11.45-6.92,0-.68,0-1.35,0-2l-.13,1.81a6.9,6.9,0,0,1-.1-5.15c-1.63-12.52-11.46-23.8-22.74-30.41-13.62-8-29.46-11.33-43.88-17.81-9-4-18.24-10.41-20.18-20.09C296.9,386.08,301.8,377.26,307.92,370.7Z"/><path class="cls-12" d="M363.26,399.58a43.68,43.68,0,0,1,36.3,6.09c2.41-15.84,6.3-31.19,10-46.74a1.83,1.83,0,0,1-.28-.14A436.18,436.18,0,0,1,373.18,328c-1.25-1.19.45-3.29,1.71-2.09a434.57,434.57,0,0,0,35.32,30.24c.37-1.59.75-3.17,1.11-4.76,4.19-18.34,4.55-37.07,4.67-55.79a.91.91,0,0,1-.27-.18,181.55,181.55,0,0,1-25.94-33c-.9-1.47,1.29-3.05,2.2-1.56a178,178,0,0,0,24,31c0-1.27,0-2.55,0-3.83q.22-33.65-.72-67.31c-.05-1.73,2.64-2,2.68-.27.42,15.37.61,30.74.68,46.11l10.61-5.26c3.37-1.67,13.14-4.81,13.65-9,.2-1.73,2.86-1.3,2.66.42-.48,4-4,5.48-7.25,7.11l-19.67,9.76c0,6.07.08,12.14,0,18.2-.08,12.82,0,25.77-1,38.6l37.74-11.14c1.66-.49,2.61,2,.94,2.53l-38.74,11.43a1.36,1.36,0,0,1-.2,0,163.54,163.54,0,0,1-2.65,18.69c-2.79,13.47-6.32,26.64-9.22,40A103.08,103.08,0,0,1,453,371.54a1.35,1.35,0,0,1,.27,2.69,100.12,100.12,0,0,0-47.84,16.93,1.47,1.47,0,0,1-.53.21c-1.26,6.06-2.38,12.17-3.19,18.37-2.82,21.45-3.9,43.07-5,64.67-.08,1.73-2.75,1.3-2.66-.42,1.05-20.94,2.09-41.91,4.73-62.73.11-.88.25-1.76.38-2.64l-.08,0a40.81,40.81,0,0,0-34.85-6.48C362.54,402.55,361.58,400,363.26,399.58Z"/><path class="cls-13" d="M263.21,291.94c7.64-13.69,11.43-26,8.46-27.49s-11.58,8.39-19.22,22.09c-5.73,10.27-9.3,19.76-9.47,24.5a10.3,10.3,0,0,0-1.34.16c-2.38-3-5-6.28-7.66-9.82a7.94,7.94,0,0,0,1.05-2c3.89-1.74,10.91-10.49,17.28-21.9,7.65-13.7,11.44-26,8.46-27.51s-11.57,8.41-19.22,22.1c-5.94,10.66-9.54,20.45-9.45,25-.39,0-.81.11-1.26.2-3-4.06-6.2-8.35-9.39-12.74a1.41,1.41,0,0,0,0-.54c4.15-2.23,11.61-9.51,19.09-18.95,9.81-12.38,15.91-23.75,13.62-25.39s-12.11,7.09-21.93,19.47c-6.91,8.72-12,16.92-13.56,21.59q-2.62-3.65-5.24-7.31c4.86-5,12.07-15.35,19.1-27.94,10.37-18.58,16.37-34.85,13.4-36.34S232.16,221.43,221.78,240c-5.93,10.64-10.43,20.51-12.63,27.3L204,260c4.2-3.94,11.22-16.55,17.62-32.13,8-19.59,12-36.42,8.89-37.57s-12.19,13.78-20.23,33.38c-5.3,12.9-8.82,24.58-9.72,31.39-1.8-2.57-3.52-5-5.16-7.41,2.5-6,4.89-18.9,6-33.89,1.62-21,.22-38.15-3.13-38.39s-7.39,16.58-9,37.54a187.39,187.39,0,0,0-.42,25.3l-1-1.45c.42-1.08-.81-3.26-3.4-6.25.34-7-4-23.77-11.32-42.68-9.35-24.1-20.06-42.54-23.92-41.19s.61,22,10,46.06a255.83,255.83,0,0,0,10.69,24c-6.45-5.42-14.27-11.47-22.9-17.63-25-17.81-47.2-29.73-49.67-26.62s15.77,20.07,40.74,37.89c18.56,13.25,35.61,23.22,44.15,26.2h0l7.68,10c.11.49.23.95.35,1.38-6-5.46-20.25-14-37.59-22.17-24.24-11.44-45.36-17.88-47.19-14.39S121.8,227,146,238.43s45.36,17.88,47.18,14.39a1.78,1.78,0,0,0-.21-1.67,1.34,1.34,0,0,0,.27-.17l5.85,7.63c-6.66-2.05-20-3.75-35.35-4.27-22.14-.74-40.19,1.23-40.31,4.42s17.73,6.37,39.88,7.12c18.72.63,34.52-.69,39-3l5.86,7.64a15.23,15.23,0,0,0-.57,4.13c-5.86-.84-20.69,1.25-37.67,5.58-21.39,5.46-38,12.38-37.16,15.46s18.92,1.15,40.33-4.31S211,279,210.33,275.94a10.63,10.63,0,0,0,1.34-.95l6.35,8.28c-6,1.29-18.94,8-33.07,17.32-18.17,12-31.34,23.92-29.42,26.53s18.21-5,36.38-17.06c14.2-9.41,25.32-18.69,28.59-23.56l8.57,11.17c-5.28,1.59-13.36,5.67-21.84,11.29-13.4,8.87-22.7,18.18-20.77,20.8s14.34-2.46,27.73-11.33c8.55-5.67,15.42-11.5,18.78-15.67l6.81,8.89c-5.27,1.49-13.52,5.63-22.2,11.38-13.4,8.87-22.69,18.18-20.77,20.79s14.34-2.45,27.73-11.32c8.75-5.8,15.73-11.77,19-16l7.4,9.67s17.83,11.93,1.9-2.4a92.07,92.07,0,0,1-8.16-8.89c.17-.29.3-.55.43-.81C248.75,313.4,256.36,304.21,263.21,291.94Z"/><path class="cls-14" d="M653.29,247.12,418.4,507.38c5.43-.29,21.23-5,59.79-20.45,90.84-36.38,119.67-108,119.67-108-13.18-1.82-26-12.74-26-12.74,17.69,5,36.1,3.66,36.1,3.66,30.77-18.92,39.71-58.47,42.1-74.07-14.51,5.63-16.66-4.08-16.66-4.08,6.82,1,13-2,17.64-5.51Z"/><path class="cls-15" d="M502.48,336.18q-2.94,3.26-5.72,6.53c1.37,11.59,5.4,23.48,14.58,32.75,0,0-17.43,7.7-28.65-15.42-57.2,75.24-59.89,140-59.89,140s-11.73,7.7-4.4,7.29L653.29,247.12s-28.44,1.62-68.2,22.91c-4,7.37-6.57,16-5.08,25.27,0,0-10.9-2.25-10.87-16C548.43,292.31,525.55,310.58,502.48,336.18Z"/><path class="cls-16" d="M569,70.55,435.25,514c5.65-3.85,20.34-19.35,54.43-61.64,80.34-99.61,79.07-198.44,79.07-198.44-14.82,6.5-33.33,2.62-33.33,2.62,21-5.93,40-19.31,40-19.31C599.69,196.07,591.58,146,587.17,127c-12.92,15.71-19.51,6.24-19.51,6.24,7.69-3.3,12.89-10.65,16.28-17.59Z"/><path class="cls-17" d="M448.38,268c-1.11,3.69-2.18,7.37-3.18,11,6.62,12.07,16.2,22.76,30.08,27.17,0,0-15.09,19.92-37.3,1.34-27.3,121.24-1.3,195.48-1.3,195.48s-9,16.21-1.43,11L569,70.55s-29.5,20.25-62.28,69.85c-1,10.84.16,22.17,5.85,31.56,0,0-12.58,4.55-18.67-10.85C477.68,189.09,461.5,224.36,448.38,268Z"/><path class="cls-18" d="M52.93,140.89,206,456.32c1.77-5.14,3.34-21.55,3.49-63.09.38-97.87-55.21-151.48-55.21-151.48-6.63,11.52-21.57,19.33-21.57,19.33C143.9,246.54,149.61,229,149.61,229c-6-35.63-39.28-58.76-52.84-66.83-.23,15.57-10,13.91-10,13.91,3.49-6,3-12.78,1.51-18.42Z"/><path class="cls-19" d="M78.86,314.12c1.28,2.63,2.57,5.22,3.9,7.75,11.25,3.09,23.79,3.81,35.83-1.22,0,0,.59,19.05-25,20.77,48.25,81.27,107.31,108.09,107.31,108.09s2.73,13.76,5.1,6.81l-153-315.43s-9.17,27-4.36,71.82c5.32,6.48,12.37,12.1,21.51,14.2,0,0-6.18,9.26-18.91,4.07C55.46,255.05,63.79,283.12,78.86,314.12Z"/><path class="cls-20" d="M235.16,162.38l83.55,340.49c2.81-4.65,7.78-20.37,16.63-61,20.88-95.62-22.24-159.69-22.24-159.69C304.19,292.1,288,296.61,288,296.61c14-11.86,23.28-27.82,23.28-27.82,1.62-36.09-26.1-65.69-37.67-76.43-3.48,15.18-12.72,11.5-12.72,11.5,4.66-5.08,5.63-11.86,5.34-17.68Z"/><path class="cls-21" d="M224.22,337.19c.7,2.84,1.42,5.64,2.19,8.4,10.36,5.37,22.47,8.71,35.29,6.31,0,0-3.41,18.75-28.83,15.06,30.15,89.58,82.28,128.18,82.28,128.18s-.22,14,3.56,7.73L235.16,162.38s-14.62,24.44-19.32,69.31c3.85,7.45,9.57,14.42,18.06,18.39,0,0-8,7.76-19.34,0C213.71,274.54,216,303.72,224.22,337.19Z"/><path class="cls-22" d="M587.91,233.73c-6.42-2.29-13.51.87-14.94,1.57l-1.14-.24c1.89-3.16,3.4-5.67,4.43-7.38,2.26-1.81,6-5.43,6.92-10.26,1.38-7.08-6.07-13.56-10.39-4-3.27,7.25-.64,12.4.84,14.49a39.32,39.32,0,0,0-3.79,4.91l-.11-.1c-.2-1.49-1.45-8.72-6.62-12.56-5.79-4.3-14.85-.38-8.06,7.66,6.12,7.26,13.19,5.64,14.5,5.25l.08.06c-1.28,1.93-2.13,3.45-2.13,3.45L558,253.31l-.73-.72C557,250.7,555.46,241.74,549,237c-7.21-5.35-18.49-.48-10,9.53,7.62,9,16.42,7,18,6.54l.78.59-13,22.89-.62-.61c-.31-2.21-2.13-12.73-9.67-18.33-8.45-6.28-21.69-.56-11.78,11.18,9,10.61,19.27,8.24,21.19,7.68l.65.49L531.2,300.46l-.5-.49c-.36-2.55-2.46-14.61-11.1-21-9.71-7.21-24.89-.64-13.52,12.84,10.27,12.17,22.12,9.45,24.32,8.81l.51.39-12,21.13c-.59-3.38-2.75-12.39-9.52-17.42-8.45-6.29-21.69-.56-11.78,11.18,8.05,9.55,17.22,8.58,20.37,7.88L505.82,345.1c-.35-.35-.79-.79-1.31-1.29-.26-1.9-1.82-10.86-8.24-15.63-7.21-5.35-18.49-.48-10,9.54,7.63,9,16.43,7,18.06,6.54l1.41,1-12,21.05-1.12-1.11c-.21-1.49-1.45-8.71-6.63-12.55-5.78-4.31-14.84-.39-8.06,7.65,6.13,7.27,13.2,5.64,14.51,5.26.46.35.87.66,1.21.9l-11.39,20s-11.51,29.14,2.2-.06c2-4.28,5.46-10.8,9.86-18.78l1.33.47c.41,1.33,3.11,8.55,13.16,9.67,11.06,1.23,9.17-9,2-11.6-6.42-2.29-13.5.86-14.93,1.56l-1.44-.29c3.41-6.19,7.38-13.24,11.72-20.84.55.22,1.29.49,2.15.79.54,1.72,3.95,10.64,16.38,12,13.78,1.53,11.43-11.26,2.47-14.45-8-2.83-16.78,1.08-18.6,2-1-.21-1.77-.37-2.32-.47l.36-.63a.09.09,0,0,1,.05,0l0-.05c4-7,8.26-14.38,12.67-22,1,.73,1.78,1.29,2.26,1.58,0,0-.78-.8-2-2,4.14-7.13,8.4-14.4,12.63-21.61.59.42,1.07.74,1.41.94l-1.23-1.23c4.51-7.68,9-15.28,13.3-22.54.66.3,1.71.68,3,1.12.64,2,4.62,12.5,19.22,14.12,16.17,1.8,13.41-13.2,2.91-16.94-9.35-3.33-19.67,1.25-21.82,2.28l-3.26-.65c.18-.3.36-.6.53-.9l.49.31-.42-.42c4.73-8,9.21-15.52,13.24-22.28l1.55.55c.55,1.72,4,10.64,16.39,12,13.77,1.53,11.43-11.26,2.47-14.44-8-2.85-16.78,1.07-18.6,2l-1.66-.34c4.79-8,8.93-15,12-20.14l1.08.38c.42,1.34,3.12,8.55,13.16,9.66C597,246.56,595.1,236.29,587.91,233.73Z"/><path class="cls-23" d="M561.17,301.63c-10.74-3.83-22.59,1.43-25,2.62-2.5-.52-4.18-.84-4.18-.84a40.49,40.49,0,0,0,3.83,1.46c.73,2.31,5.3,14.33,22.06,16.2C576.38,323.14,573.22,305.91,561.17,301.63Z"/><path class="cls-24" d="M545.59,324.45c-9.36-3.33-19.67,1.25-21.82,2.29-2.18-.46-3.64-.74-3.64-.74a32.22,32.22,0,0,0,3.33,1.28c.64,2,4.63,12.48,19.23,14.11C558.85,343.19,556.09,328.19,545.59,324.45Z"/><path class="cls-25" d="M152.48,410.39c-3.66-1.43-9.25-3.92-16.1-7.11.09-.33.2-.71.32-1.13,1.08-.42,6.9-3.06,7.27-11.44.41-9.23-8-7.1-9.72-1-1.54,5.46,1.48,11.15,2.13,12.29-.07.47-.12.87-.16,1.2-5.31-2.48-11.38-5.38-17.91-8.55.15-.46.33-1.09.53-1.82,1.34-.52,8.59-3.81,9-14.23.51-11.5-10-8.84-12.09-1.25-1.91,6.78,1.83,13.86,2.64,15.29-.11.82-.2,1.49-.26,1.95l-.54-.26,0,0,0,0c-6-2.91-12.37-6-18.89-9.27.55-.85,1-1.54,1.18-2,0,0-.61.69-1.55,1.78-6.13-3-12.39-6.16-18.59-9.26.31-.51.55-.92.7-1.22l-1,1.09c-6.61-3.31-13.14-6.61-19.39-9.76.2-.57.46-1.46.76-2.55,1.63-.64,10.09-4.52,10.62-16.7C72.11,333,59.83,336.1,57.32,345c-2.24,7.95,2.14,16.25,3.1,17.94-.17,1.29-.3,2.27-.36,2.74l-.77-.39c.09-.15.17-.3.23-.41l-.33.36c-6.87-3.47-13.36-6.76-19.19-9.73.12-.38.24-.82.38-1.31,1.34-.52,8.59-3.81,9-14.24.5-11.49-10-8.84-12.1-1.25-1.91,6.78,1.83,13.86,2.65,15.3-.07.53-.14,1-.19,1.39-6.92-3.52-12.87-6.56-17.34-8.85.08-.27.16-.58.25-.91,1.09-.42,6.9-3.06,7.27-11.43.41-9.24-8-7.1-9.71-1-1.54,5.46,1.47,11.15,2.12,12.29-.05.36-.09.68-.13,1L15.9,343.2c-1.62-1.77-4.82-4.66-8.89-5.17-5.94-.74-10.89,5.78-2.7,8.82,6.18,2.3,10.29-.15,11.94-1.49a34.67,34.67,0,0,0,4.28,2.86l-.08.1c-1.23.25-7.13,1.68-10,6.17-3.24,5,.51,12.32,6.79,6.26,5.7-5.51,3.92-11.29,3.55-12.31l0-.06c1.67.95,3,1.57,3,1.57l14.36,6.93-.56.65c-1.52.31-8.87,2.09-12.48,7.69-4,6.27.63,15.34,8.45,7.78,7.07-6.81,4.9-14,4.42-15.31l.43-.68,19.69,9.51-.48.55c-1.82.38-10.42,2.48-14.64,9-4.73,7.35.74,18,9.92,9.13,8.29-8,5.74-16.42,5.17-18l.38-.57,20.23,9.78c-.12.14-.24.29-.38.44-2.1.44-12,2.85-16.8,10.36-5.43,8.44.85,20.65,11.38,10.48,9.51-9.18,6.6-18.85,5.94-20.63l.3-.44,18.16,8.77c-2.76.68-10.1,3-13.89,8.86-4.74,7.35.73,18,9.91,9.13,7.46-7.19,6.15-14.73,5.4-17.3L117,395l-1,1.15c-1.53.32-8.87,2.1-12.48,7.7-4,6.26.63,15.33,8.46,7.78,7.06-6.82,4.89-14,4.41-15.32.31-.46.57-.88.79-1.23l18.09,8.74-.85,1c-1.22.25-7.13,1.69-10,6.19-3.24,5,.5,12.31,6.78,6.25,5.71-5.5,3.93-11.28,3.55-12.31.27-.4.5-.76.68-1.06l17.22,8.32S177.41,420.13,152.48,410.39Z"/><path class="cls-26" d="M81.06,375.67a31.74,31.74,0,0,0,1-3.24c1.87-.73,11.57-5.19,12.19-19.17.68-15.48-13.41-11.9-16.29-1.68-2.56,9.1,2.44,18.62,3.57,20.59C81.23,374.27,81.06,375.67,81.06,375.67Z"/><path class="cls-27" d="M100.43,384.21a28.88,28.88,0,0,0,.87-2.82c1.63-.64,10.08-4.53,10.62-16.71.59-13.49-11.68-10.37-14.19-1.46-2.25,7.95,2.14,16.26,3.1,17.94C100.58,383,100.43,384.21,100.43,384.21Z"/><path class="cls-28" d="M396,482.19l-.31-2.35c0,.06-.05.12-.07.17A20.73,20.73,0,0,0,396,482.19Z"/><path class="cls-29" d="M454.72,394.65c-5.43-5.1-11.94-9-16.8-14.69-1.77-2-3.36-4.44-3.6-7.14-.5-5.54,4.47-9.78,7.85-14.19,10.36-13.51,6.77-32.67,2.69-49.2-1.14-4.59-2.57-9.62-6.54-12.18-5.78-3.73-13.3-.28-19.41,2.87s-14.29,5.74-19.21.94-2.51-13.21,1.84-18.45c4.93-5.93,11.79-10,16.75-15.92s7.65-15.1,2.9-21.17c-5.66-7.22-16.86-5.11-25.7-2.68s-20.58,3.35-24.93-4.72c-2.47-4.58-1.18-10.43,1.75-14.73s7.26-7.41,11.4-10.55c2.29-1.74,4.69-3.73,5.31-6.53.57-2.56-.5-5.21-1.84-7.47-7.61-12.81-25.31-18.49-38.95-12.49s-21.42,22.88-17.12,37.15c1.63,5.42,4.26,12.46-.34,15.75-6,4.32-12.66-5.22-19.9-6.82-6.09-1.33-12.18,3.78-13.8,9.8s.19,12.42,2.79,18.07c5,10.89,12.83,20.17,19.78,29.93,1.11,1.56,2.23,3.24,2.34,5.15.18,3.19-2.52,5.81-5.34,7.32-6.34,3.41-13.87,3.48-21,4.69s-14.75,4.28-17.59,10.9c-3.06,7.14.83,15.53,6.39,20.95s12.67,9,18.41,14.24c1.69,1.54,3.33,3.37,3.58,5.63.4,3.5-2.57,6.37-5.27,8.62l-43.68,36.44c-2,1.68-4.16,3.6-4.5,6.19a8.92,8.92,0,0,0,.52,3.79c4.07,13,16.9,21.73,30.15,25s27.13,2.26,40.77,1.87c3.79-.11,7.66-.15,11.22,1.14,5,1.8,8.69,6,12.22,9.92q11.52,12.92,23.64,25.29c4.19,4.26,9,8.75,15,9a9.92,9.92,0,0,0,9.11-6.37c-.07-.55-.1-1.11-.14-1.67l.21,1.5a5.76,5.76,0,0,0-.2-4.28c.67-10.47,8.19-20.35,17.17-26.46,10.87-7.38,23.81-11,35.41-17.17,7.24-3.84,14.55-9.63,15.63-17.75C464.69,406.79,460.15,399.75,454.72,394.65Z"/><path class="cls-30" d="M406.84,410.41a36.29,36.29,0,0,0-29.76,7c-2.86-13-6.93-25.51-10.85-38.21a.76.76,0,0,0,.23-.13,361.42,361.42,0,0,0,28.23-27.54c1-1.06-.55-2.7-1.53-1.64a363,363,0,0,1-27.63,27c-.39-1.3-.79-2.59-1.18-3.89-4.47-15-5.8-30.48-6.93-46a.82.82,0,0,0,.22-.17,150.38,150.38,0,0,0,19.69-28.78c.67-1.27-1.24-2.45-1.91-1.17a148.25,148.25,0,0,1-18.22,27c-.08-1.06-.16-2.11-.23-3.17q-2-27.88-3.1-55.84c-.05-1.43-2.29-1.52-2.24-.08.5,12.77,1.19,25.52,2,38.27l-9.09-3.79c-2.87-1.2-11.15-3.26-11.8-6.73-.26-1.42-2.45-.92-2.18.49.61,3.3,3.59,4.33,6.4,5.5l16.83,7c.32,5,.6,10.06,1,15.09.77,10.63,1.41,21.36,2.92,31.94l-31.9-7.16c-1.4-.32-2.05,1.83-.64,2.14L357.85,355H358a136.47,136.47,0,0,0,3.22,15.36c3.05,11,6.7,21.73,9.84,32.63a85.77,85.77,0,0,0-40.15-10.91,1.12,1.12,0,0,0-.08,2.24,83.2,83.2,0,0,1,40.59,11.41,1,1,0,0,0,.45.15c1.38,5,2.64,10,3.66,15.05,3.51,17.63,5.59,35.5,7.67,53.33.17,1.44,2.35.93,2.19-.49-2-17.3-4-34.63-7.36-51.73-.14-.73-.31-1.45-.46-2.17l.06,0a34,34,0,0,1,28.54-7.28C407.59,412.84,408.25,410.69,406.84,410.41Z"/><path class="cls-31" d="M273.26,466.75l-.47-1.56a.5.5,0,0,0,0,.12C272.91,465.8,273.07,466.27,273.26,466.75Z"/><path class="cls-32" d="M303.43,401c-4.24-2.86-9.08-4.82-13-8.11a9,9,0,0,1-3.22-4.44c-.95-3.7,2-7.12,3.76-10.48,5.53-10.3,1-22.89-3.59-33.65-1.27-3-2.79-6.23-5.77-7.53-4.32-1.9-9,1.27-12.84,4.08s-9,5.45-12.92,2.75-3.14-8.69-.77-12.71c2.68-4.57,6.88-8.09,9.6-12.64s3.52-11.07-.37-14.66c-4.62-4.28-12-1.62-17.71,1s-13.58,4.53-17.41-.46c-2.18-2.84-2-6.95-.44-10.18s4.11-5.82,6.57-8.41c1.36-1.42,2.76-3,2.88-5a7.23,7.23,0,0,0-2.07-4.86c-6.57-7.86-19.18-9.76-27.77-4.19s-12,17.86-7.52,27.06c1.7,3.49,4.25,8,1.5,10.72-3.62,3.59-9.16-2.15-14.24-2.44-4.27-.24-7.84,3.9-8.28,8.15s1.5,8.41,3.88,11.95c4.6,6.83,10.92,12.26,16.7,18.11a7.09,7.09,0,0,1,2.15,3.23c.48,2.14-1.07,4.22-2.81,5.56-3.93,3-9,3.88-13.7,5.48s-9.53,4.52-10.73,9.32c-1.29,5.17,2.27,10.43,6.64,13.5s9.58,4.71,14,7.63a6.59,6.59,0,0,1,3,3.42c.65,2.33-1,4.6-2.63,6.42l-25.6,29.5c-1.18,1.35-2.42,2.9-2.37,4.69a6.27,6.27,0,0,0,.77,2.51c4.19,8.39,13.84,12.87,23.19,13.66s18.63-1.45,27.84-3.21a20.82,20.82,0,0,1,7.73-.46c3.58.67,6.54,3.08,9.37,5.38q9.22,7.48,18.8,14.54c3.31,2.43,7.08,4.94,11.15,4.43a6.82,6.82,0,0,0,5.48-5.32,10.6,10.6,0,0,1-.28-1.11l.3,1a3.92,3.92,0,0,0-.61-2.88c-.69-7.17,3.32-14.69,8.74-19.82,6.55-6.19,14.93-10.07,22.11-15.53,4.48-3.4,8.8-8.12,8.64-13.75C311.53,408.1,307.67,403.82,303.43,401Z"/><path class="cls-33" d="M276.37,424.11a24.91,24.91,0,0,0-19.39,8c-3.37-8.5-7.51-16.52-11.55-24.7a1.1,1.1,0,0,0,.14-.11,251.6,251.6,0,0,0,16.1-21.77c.54-.82-.67-1.77-1.22-.94A248.56,248.56,0,0,1,244.7,406l-1.23-2.51c-4.68-9.66-7.28-20-9.75-30.41a.6.6,0,0,0,.13-.14A103,103,0,0,0,244,351.24c.31-.93-1.11-1.53-1.42-.58A101.73,101.73,0,0,1,233.23,371l-.51-2.12q-4.44-18.67-8.23-37.51c-.2-1-1.73-.78-1.53.19,1.74,8.6,3.61,17.17,5.54,25.72l-6.57-1.56c-2.09-.5-7.92-1-8.74-3.27-.34-.93-1.77-.36-1.43.57.78,2.17,2.91,2.54,4.94,3l12.18,2.89c.77,3.38,1.52,6.76,2.32,10.13,1.69,7.12,3.3,14.33,5.49,21.33L214.28,389c-1-.06-1.19,1.46-.2,1.53l23,1.38a.37.37,0,0,0,.11,0A95.61,95.61,0,0,0,241.07,402c3.27,7.12,6.93,14,10.25,21a58.89,58.89,0,0,0-28.41-3,.77.77,0,0,0,.19,1.53,57.24,57.24,0,0,1,28.77,3.27.75.75,0,0,0,.32.06c1.48,3.21,2.88,6.45,4.13,9.79,4.32,11.57,7.69,23.45,11.07,35.31.27,1,1.69.37,1.42-.57-3.26-11.51-6.53-23-10.67-34.26-.17-.48-.37-1-.55-1.42l0,0a23.28,23.28,0,0,1,18.54-8.07C277.15,425.67,277.37,424.14,276.37,424.11Z"/></g></g></svg>