<svg xmlns="http://www.w3.org/2000/svg" viewBox="0 0 1923.33 223"><defs><style>.cls-1{fill:#fff;}</style></defs><g id="Layer_2" data-name="Layer 2"><g id="Layer_1-2" data-name="Layer 1"><path class="cls-1" d="M1916.68,112.56c-3.68.09-7.35.32-11,.54a59.26,59.26,0,0,0,10.6-10.27,38.5,38.5,0,0,0,7.07-12.69c-10.92,8.67-22.35,17.18-35.88,24.26-4.47.33-8.94.68-13.41,1a42.15,42.15,0,0,0,4.54-3.38c5-4.45,8.24-9.64,9.39-15.07,4.64-9.21,3.9-19.36-.28-28.58a43.71,43.71,0,0,0-3.43-6.16,23.23,23.23,0,0,0-2.7-3.52c.49,13.29,0,27-5.47,39.9-2.79,6.35-6.49,12.88-13.84,17.71l-1.93.14a35.91,35.91,0,0,0,5.5-8.16,21.49,21.49,0,0,0-1.33-21.63c4.31-8.8,4.06-18.34.46-27.22a37.7,37.7,0,0,0-6.35-10.68h0a115.76,115.76,0,0,1-2.53,28.76,47.67,47.67,0,0,0-9.7-6.15,131.87,131.87,0,0,1,8.11,11.86,51.81,51.81,0,0,1-6,12.69,20.4,20.4,0,0,0-.35-3.38c-1.24-6.48-5.67-12.57-12-17.64a46.66,46.66,0,0,0-8.9-5.66h0c6.69,9.16,13.71,20.25,14.75,30.45a22,22,0,0,1,.07,3.63,38.52,38.52,0,0,1-4.14,3.16c-.28-.47-.16-.29-.33-.55.16-.8.34-1.59.46-2.39a31,31,0,0,0,3.17-7.07c-2.55,2-1.62,1.3-2.74,2.17a29.67,29.67,0,0,0-.77-7.78c-3-13.14-15-24.17-31.72-31.81a92.54,92.54,0,0,0-13.23-5l-.52-.74a15.12,15.12,0,0,0-1.27-1.68.69.69,0,0,0-.23-.19c-.17,0,0,.37,0,.43.18.6.4,1.2.64,1.8l-1-.26h0l1.26,1c.88,2.27,1.75,4.55,2.53,6.84a77.79,77.79,0,0,1,3.75,15.05,86.34,86.34,0,0,0-15.12-10.63,38.35,38.35,0,0,0-6.31-10.57h0c0,4.64,0,2.24,0,7.18-3.33-1.7-6.81-3.29-10.33-4.83-1.47-.65-2.94-1.31-4.44-1.94-.06,0-2.15-1-2.13-.76s2.2,1.53,2.54,1.74c2.15,1.36,4.31,2.7,6.42,4.08,2.65,1.74,5.3,3.47,7.82,5.28a98.16,98.16,0,0,1-2,16.13l-1.16,1.3a44.71,44.71,0,0,0-8.94-5.57c2.12,2.86,4.24,5.73,6.1,8.67-1.69,1.84-3.38,3.68-5.14,5.49-.25-.32,0,0-.79-.92a36.25,36.25,0,0,0-6.2-17.16l1.53-1a13.61,13.61,0,0,0,2.47-1.67,4.08,4.08,0,0,0-.89.27c-1.23.51-2.44,1-3.64,1.57l-.24-.36c-.42-.61-.83-1.21-1.26-1.81a11.35,11.35,0,0,0-.86-1.14.67.67,0,0,0-.16-.14c-.12,0,0,.26,0,.3.13.44.31.87.47,1.3.63,1.64.33.85.9,2.37-2.76,1.25-5.51,2.5-8.15,3.85a36.29,36.29,0,0,0-3.33-1.79h0c1.13,1.56.69.94,1.34,1.86-2.4-1.25-4.91-2.41-7.45-3.54,1.82-12.79.29-25.7-3.62-38.28a95.25,95.25,0,0,0-4.34-11.2,45,45,0,0,0-3.42-6.38c.23,12.69.34,25.39-.8,38.06l-.07-.1c-.72-1-1.43-2.1-2.19-3.14a11,11,0,0,0-.91-1.18c-.07-.07-.12-.17-.26-.2l0,0c-.14.15.08.55.13.69.18.55.39,1.09.6,1.64.61,1.59,1.23,3.18,1.82,4.77l.52,1.47c-.44,4.19-.2,2.13-.72,6.2-.81-.41-.2-.11-1.85-.88l-1.57-.69c-.46-.84-1-1.66-1.53-2.48a23.23,23.23,0,0,0-2.7-3.52c.09,3.43.07,2,.09,4.29a78.27,78.27,0,0,0-7.53-2.55l-.52-.74a14,14,0,0,0-1.27-1.68l0-.05a91.14,91.14,0,0,0,1.1-9.14,88.44,88.44,0,0,0-3.31-29.46,79.5,79.5,0,0,0-8-19.38h0c.17,16.52-.29,33.07-2.79,49.53-.27-.34-.07-.09-.63-.76h0c0,2.28,0,1.2,0,3.23a60.26,60.26,0,0,0-12.09-11c3.68,7.07,7.25,14.2,10.27,21.53-.88,3.61-.45,2-1.24,4.94q-4-1.93-8.07-3.72c-2.87-1.27-1.47-.66-4.2-1.83a66.54,66.54,0,0,0-9.8-14.51,61.63,61.63,0,0,0-11.26-10.28h0c3.92,7.79,7.69,15.62,10.75,23.57l-1.66.39c-6.09-15.79-18.16-30.75-36-42.46a98.33,98.33,0,0,0-16.76-9l-.66-1.35a29.35,29.35,0,0,0-1.6-3,1.07,1.07,0,0,0-.3-.35c-.22,0,0,.67,0,.78.24,1.09.51,2.18.82,3.26l-1.26-.46h0c1.2,1.28.66.71,1.59,1.71,1.11,4.13,2.22,8.27,3.21,12.42A195.8,195.8,0,0,1,1621.49,50c-10.69-13.83-25.1-24.72-40.27-34.22-1.87-1.19-3.74-2.38-5.63-3.53-.07,0-2.72-1.74-2.7-1.37,0,.53,2.79,2.77,3.21,3.16,2.73,2.46,5.46,4.9,8.14,7.4,14.23,13.3,28.19,27.62,36,45l-.87-.13-.22-.56a37.7,37.7,0,0,0-6.35-10.68h0c.06,3.49.07,7-.13,10.46a51.64,51.64,0,0,0-6.7-.1h0c4.77,2.07,2.59,1.11,6.56,2.87a97.93,97.93,0,0,1-2.25,15.52,47.67,47.67,0,0,0-9.7-6.15c2.35,3.17,4.67,6.35,6.73,9.6l-1.71.4c-2.48.57-4.95,1.16-7.36,1.84a37.36,37.36,0,0,0-6.37-7c0-3.21.3-6.41.6-9.62.34-3.42.8-6.83,1.32-10.24.16-1,.32-2,.47-3.06,0-.22.27-1.38.12-1.57s-.44.78-.45.79c-.59,1.46-1.07,2.94-1.6,4.41-.71,2.13-.4,1.18-.92,2.87l-1.21.26c-1.7.37-3.38.77-5.07,1.16-2.28.54-4.56,1.07-6.81,1.66a86.5,86.5,0,0,0-7.1-23.78l1.94-1.75c.4-.36,3.12-2.56,3.14-3,0-.13-1.12.48-1.14.49q-2.33,1.38-4.6,2.85l-.31-.66c-.53-1.09-1-2.19-1.59-3.28a19.6,19.6,0,0,0-1.1-2.07.65.65,0,0,0-.2-.25c-.15,0,0,.46,0,.54.15.8.38,1.58.59,2.37.79,3,.42,1.53,1.14,4.29-4,2.56-7.92,5.18-11.68,8-3.65-2.77-7.46-5.35-11.38-7.79-1.27-.81-2.55-1.63-3.84-2.41l-.62-.38a135.8,135.8,0,0,0-10.27-29.23c-.91-1.91-1.82-3.82-2.77-5.7a22,22,0,0,0-1.16-2.13c-.08-.14-.15-.31-.32-.37l0,0c-.17.27.11,1,.17,1.25.23,1,.5,2,.76,3,.78,2.89,1.56,5.78,2.3,8.67a224,224,0,0,1,5.37,27.06,113.44,113.44,0,0,1,1,20.91c-2.88,1.92-1.42.93-4.38,3,.15-2.47.21-2.86.22-5.6a91.41,91.41,0,0,0-4.39-27.59,93.47,93.47,0,0,0-4.33-11.2,45.06,45.06,0,0,0-3.43-6.38c.32,14.5.32,29-1.32,43.49-.22.23-.08.09-.39.43a92.54,92.54,0,0,0-6.71-18.62c-.63-1.3-1.25-2.61-1.9-3.9a15.61,15.61,0,0,0-.79-1.45.56.56,0,0,0-.22-.26l0,0c-.11.19.08.69.12.86.15.68.34,1.36.52,2,.53,2,1.07,4,1.57,5.93a154.57,154.57,0,0,1,3.68,18.51l.13,1a97,97,0,0,0-8.16,11c.13-2.15.36-4.29.59-6.42.33-2.91.75-5.81,1.19-8.71.15-.92.3-1.85.42-2.77,0-.17.18-1,.06-1.14s-.45.78-.45.79c-.59,1.46-1.07,2.94-1.6,4.41a88.53,88.53,0,0,0-3.72,14.33c-.09.6-.2,1.21-.27,1.81-.22,1.85-.11.85-.33,3a49.59,49.59,0,0,0-4-13.59,78.2,78.2,0,0,0,4-28.35c1.09-2,.34-.64,2.26-4,1.52-2.63,3.07-5.24,4.62-7.85.53-.9,1.07-1.79,1.57-2.71.12-.23.59-.87.5-1.17l0,0c-.18,0-.3.17-.42.28a24,24,0,0,0-1.71,1.79c-1.44,1.61-2.85,3.24-4.25,4.88-1.87,2.15-.89,1-2.93,3.46a92,92,0,0,0-3-15.72,79.5,79.5,0,0,0-8-19.38h0c.23,17.44-.4,34.94-3.21,52.21-3.27-3.69-7.93-8.47-12.28-11.16,3,5.75,5.91,11.53,8.52,17.43l-2.17.72c-3.14,1-6.26,2.11-9.31,3.34A67,67,0,0,0,1463.14,48l.2-.37c0-.07.28-.45.14-.52a.81.81,0,0,0-.26.19l-.37.36-.17-.19a62.29,62.29,0,0,0-11.26-10.28h0c2.54,5,5,10.07,7.27,15.21l0,0q-1.8-1.95-3.67-3.82s-.93-.87-1-.74c-.11.46,1.92,3.22,2.2,3.66l1.39,2.14-.31.37a87.4,87.4,0,0,0-15.38-21.13q4.82-2.82,9.73-5.48c3.28-1.8,6.61-3.53,9.92-5.28.52-.27,3.82-1.81,4-2.31s-2.92.68-3,.7c-2.15.68-4.28,1.4-6.42,2.11-6.07,2-12.11,4.15-18,6.63a108.87,108.87,0,0,0-13.66-10.58c-1.57-1-.77-.5-2.4-1.52,3.66-6.28,2-3.52,4.87-8.31.62-1,1.26-2.08,1.8-3.15,0-.1.41-.66.21-.76a1.22,1.22,0,0,0-.38.27,32.3,32.3,0,0,0-2.4,2.57c-1.2,1.36-2.38,2.73-3.56,4.1-1.77,2-.72.82-3.13,3.71a85,85,0,0,0-14.78-7h0c3.69,4,7.36,7.93,10.91,12a126.4,126.4,0,0,0-19,35.37,167.37,167.37,0,0,0-15.27,17c-1.87,2.38-3.7,4.78-5.33,7.23-.71-2.52-.38-1.41-1-3.35a74.58,74.58,0,0,0-3.41-8.79,34.5,34.5,0,0,0-2.69-5,263.2,263.2,0,0,1-.77,31.52c-.49,1.21-1,2.43-1.37,3.65a2.84,2.84,0,0,0-.2.58s0,.1,0,.15a34.72,34.72,0,0,0-1.62,11.6l-.68,0c-1-.05-2.63-.17-3.37.61-1.06,1.13,1.1,3.57,1.79,4.4.94,1,.42.43,1.56,1.67-.41,1.61-.17.69-.76,2.76l-.3,1-7.65-.49a40.5,40.5,0,0,0-3.59-17.51c4.29-12.56,4-26.16.46-38.83a62.54,62.54,0,0,0-6.31-15.22h0a236.48,236.48,0,0,1-2.52,41c-2.57-2.9-6.23-6.65-9.65-8.77,2.89,5.56,5.7,11.15,8.07,16.91a91.19,91.19,0,0,1-6,18.1,43.4,43.4,0,0,0-.35-4.82c-1.23-9.24-5.64-17.93-12-25.16a48.27,48.27,0,0,0-8.85-8.07h0c6.73,13.28,12.7,26.87,14.41,40.84l-3.22-.17c0-.82,0-1.65,0-2.48a61,61,0,0,0-.74-7.36c-3-18.73-14.89-34.47-31.54-45.35a77.32,77.32,0,0,0-13.16-7.06l-.52-1.06a21.79,21.79,0,0,0-1.26-2.39.84.84,0,0,0-.23-.28c-.18,0,0,.53,0,.62.19.86.4,1.71.64,2.56l-1-.37h0l1.25,1.34c.87,3.25,1.74,6.49,2.52,9.76A152.19,152.19,0,0,1,1285.77,88c-8.39-10.86-19.71-19.41-31.63-26.88-1.46-.93-2.93-1.86-4.42-2.77,0,0-2.13-1.36-2.12-1.07s2.19,2.17,2.53,2.48c2.14,1.93,4.28,3.85,6.39,5.81,11.17,10.44,22.13,21.69,28.28,35.37a53.38,53.38,0,0,0-11.22-.79h0c4.05,1.75,8.1,3.52,12.07,5.43a35.72,35.72,0,0,1-3.41,11.12q-9.87-.33-19.75-.57a87.73,87.73,0,0,1,.48-10.11c.27-2.69.64-5.37,1-8,.13-.81.25-1.61.37-2.41a7.24,7.24,0,0,0,.12-.92,59.35,59.35,0,0,0,3.83-11.41c-5.48,5.77-11,11.51-16.93,17.11a68.94,68.94,0,0,0-5.11-15.94l1.52-1.37c.31-.28,2.44-2,2.46-2.38,0-.1-.88.38-.89.39-1.22.72-2.42,1.47-3.61,2.24l-.25-.52c-.41-.86-.82-1.72-1.24-2.58a16,16,0,0,0-.87-1.63.51.51,0,0,0-.16-.19c-.12,0,0,.36,0,.42.12.63.3,1.25.47,1.87.62,2.32.32,1.2.89,3.36-3.13,2-6.22,4.07-9.17,6.29-2.72-2-5.54-4-8.55-5.87a55.55,55.55,0,0,0,1.06-9.06,76.74,76.74,0,0,0-4.26-28.23A83.56,83.56,0,0,0,1219.4,37a40.67,40.67,0,0,0-3.39-5.84c.23,9.81.32,19.64-.37,29.44-.26-.56,0-.06-.71-1.48s-1.43-3-2.18-4.48a17.9,17.9,0,0,0-.9-1.67c-.07-.11-.13-.24-.26-.29l0,0c-.13.22.09.79.13,1,.18.78.39,1.56.6,2.34.61,2.27,1.23,4.53,1.81,6.81.79,3.16.45,1.75,1,4.21-.46,4.36-.95,8.72-1.77,13-.68-2.44-.35-1.33-1-3.32A74.58,74.58,0,0,0,1209,68a35.44,35.44,0,0,0-2.68-5c.24,11.38.24,22.81-1,34.15-.18.19-.07.07-.31.35a72.27,72.27,0,0,0-5.27-14.63c-.49-1-1-2-1.49-3.06-.2-.39-.39-.78-.62-1.15,0-.07-.09-.16-.18-.2l0,0c-.09.15.06.54.09.67.12.54.27,1.07.41,1.61.42,1.55.84,3.1,1.24,4.65A121,121,0,0,1,1202,99.9l.1.82c-1.28,1.52-2.54,3-3.65,4.62a41.45,41.45,0,0,0,.56-4.27,44.3,44.3,0,0,0-4.37-23.53c.57-1.61.34-.92.71-2.07,1.27-2.18.44-.77,2.49-4.23.42-.71.84-1.41,1.23-2.13.1-.18.47-.68.4-.92l0,0c-.14,0-.23.14-.33.22-.48.44-.91.93-1.34,1.41l-1.16,1.32a59.41,59.41,0,0,0,1.62-9,74.74,74.74,0,0,0-3-29.78,69.77,69.77,0,0,0-8-17.72h0a276.8,276.8,0,0,1-1.73,37.95c-.63-1.28-1.28-2.56-2-3.81h0c0,4.3.06,8.6-.06,12.89a57.22,57.22,0,0,0-11.47-9.5c3.64,6.46,7.17,13,10.16,19.68a123,123,0,0,1-4.51,14.37,43.11,43.11,0,0,0-4.48-3.95A57.18,57.18,0,0,0,1159,58a59.78,59.78,0,0,0-11.15-9.39h0c3.2,5.83,6.26,11.69,8.91,17.63l-.87.29-.76.26c-6.51-13.25-18.08-25.51-33.89-35.09a99.44,99.44,0,0,0-16.57-8.21l-.66-1.24a24.86,24.86,0,0,0-1.59-2.78.91.91,0,0,0-.29-.32c-.22,0,0,.62,0,.72.23,1,.5,2,.8,3l-1.24-.42h0l1.58,1.56c1.1,3.78,2.19,7.56,3.17,11.36a165.78,165.78,0,0,1,4.7,25c-10.57-12.65-24.82-22.6-39.83-31.29-1.85-1.08-3.69-2.17-5.57-3.22-.07,0-2.69-1.59-2.67-1.25s2.76,2.53,3.18,2.88c2.69,2.25,5.4,4.49,8,6.77,14.08,12.16,27.88,25.25,35.61,41.17a73.25,73.25,0,0,0-14.12-.92h0c5.1,2,10.2,4.1,15.19,6.32a37.49,37.49,0,0,1-6,15.64c-4.7,6.25-12,10.66-19.91,13.63a31.34,31.34,0,0,1-1.21-3c-2.66-8-2.34-17.53-1.47-25.73.33-3.13.8-6.25,1.31-9.36.15-.93.31-1.86.46-2.8,0-.2.26-1.26.12-1.44s-.44.72-.45.73c-.58,1.33-1.05,2.69-1.58,4a77.19,77.19,0,0,0-3.68,13.1c-.32,2-.45,2.61-.66,5a59.45,59.45,0,0,0,0,11.24c-.6-1.56-1.22-3.11-1.94-4.63a96.46,96.46,0,0,0-6.82-12.48,73.54,73.54,0,0,0-7.78-28.48l1.92-1.6c.39-.33,3.08-2.34,3.1-2.77,0-.12-1.1.44-1.12.45q-2.3,1.26-4.55,2.6l-.31-.6c-.52-1-1-2-1.57-3a16.34,16.34,0,0,0-1.09-1.9.65.65,0,0,0-.19-.23c-.15,0,0,.43,0,.49.16.73.38,1.45.59,2.17.78,2.71.41,1.4,1.12,3.92-3.93,2.34-7.83,4.74-11.55,7.32-3.61-2.53-7.38-4.89-11.25-7.13-1.26-.74-2.52-1.48-3.81-2.2l-.6-.34A118.22,118.22,0,0,0,1022,26.64c-.9-1.74-1.8-3.49-2.74-5.21a19.16,19.16,0,0,0-1.15-1.95c-.08-.12-.15-.28-.32-.33l0,0c-.17.25.1.91.16,1.15.23.91.49,1.82.76,2.72.76,2.64,1.54,5.28,2.27,7.93a192.27,192.27,0,0,1,5.31,24.74,96.32,96.32,0,0,1,1,19.11c-2.85,1.75-1.4.85-4.34,2.72.16-2.26.22-2.61.22-5.12a77.78,77.78,0,0,0-4.33-25.22A83.56,83.56,0,0,0,1014.46,37a40.67,40.67,0,0,0-3.39-5.84c.32,13.26.31,26.55-1.3,39.76-.22.21-.09.08-.4.4a79.48,79.48,0,0,0-6.63-17c-.62-1.19-1.23-2.38-1.88-3.56a11.85,11.85,0,0,0-.78-1.33c-.06-.09-.11-.2-.22-.23h0c-.12.18.07.63.11.79.15.62.34,1.24.51,1.86.53,1.81,1.06,3.61,1.56,5.42a132.3,132.3,0,0,1,3.64,16.93l.12.94a92.13,92.13,0,0,0-8.07,10c.13-2,.36-3.92.59-5.87.33-2.66.74-5.31,1.18-8,.14-.85.29-1.69.41-2.54,0-.15.18-.89.06-1s-.44.72-.44.73c-.59,1.33-1.06,2.69-1.59,4a77.19,77.19,0,0,0-3.68,13.1c-.09.55-.19,1.1-.27,1.65-.21,1.69-.1.78-.32,2.73a42.55,42.55,0,0,0-4-12.42,66.56,66.56,0,0,0,3.92-25.93c1.08-1.79.34-.57,2.24-3.65,1.49-2.4,3-4.79,4.57-7.18.52-.82,1.05-1.64,1.54-2.47.13-.22.59-.79.51-1.07l0,0a.81.81,0,0,0-.41.26,21.86,21.86,0,0,0-1.69,1.64c-1.43,1.46-2.82,3-4.21,4.45-1.84,2-.88.91-2.89,3.17a79.07,79.07,0,0,0-3-14.37,69.77,69.77,0,0,0-8-17.72h0c.24,15.94-.39,31.95-3.17,47.73C975.9,59,971.29,54.62,967,52.16c2.95,5.26,5.85,10.53,8.43,15.93l-2.15.66c-3.1,1-6.19,1.93-9.21,3.06a60.88,60.88,0,0,0-9.51-13.31l.2-.34c0-.06.28-.41.14-.47a.88.88,0,0,0-.26.17l-.37.33-.16-.18A60,60,0,0,0,943,48.62h0c2.52,4.59,5,9.21,7.19,13.9l0,0c-1.18-1.18-2.39-2.35-3.63-3.49,0,0-.91-.79-.94-.67-.11.41,1.89,2.94,2.17,3.34l1.37,2-.31.35A80.07,80.07,0,0,0,933.56,44.7c3.17-1.72,6.39-3.38,9.63-5s6.53-3.23,9.81-4.83c.52-.25,3.78-1.65,3.94-2.11s-2.88.62-3,.64c-2.13.62-4.24,1.28-6.35,1.93-6,1.85-12,3.79-17.78,6.06a106.63,106.63,0,0,0-13.52-9.67c-1.55-.92-.76-.46-2.37-1.39,3.62-5.75,2-3.22,4.82-7.6.61-.95,1.24-1.9,1.78-2.88.05-.09.4-.6.2-.69a1.1,1.1,0,0,0-.37.25A30.82,30.82,0,0,0,918,21.74c-1.19,1.24-2.36,2.5-3.53,3.75-1.75,1.87-.71.75-3.09,3.39a88.36,88.36,0,0,0-14.62-6.45h0c3.65,3.61,7.28,7.25,10.79,11a113,113,0,0,0-18.74,32.34,157.72,157.72,0,0,0-15.11,15.51c-5,5.9-9.49,12-12.45,18.47-1.11-.36-2.22-.73-3.32-1.11.13-.55.26-1.09.35-1.64,3.85-9.21,3.24-19.36-.23-28.58a47.38,47.38,0,0,0-2.84-6.16A24.29,24.29,0,0,0,853,58.71c.4,13.29,0,27-4.54,39.9-2.32,6.35-5.39,12.88-11.49,17.71l-1.59.14a37.23,37.23,0,0,0,4.56-8.16,25.27,25.27,0,0,0-1.11-21.63c3.58-8.8,3.37-18.34.39-27.22a40.07,40.07,0,0,0-5.27-10.68h0a139.53,139.53,0,0,1-2.11,28.76,39.22,39.22,0,0,0-8-6.15c2.41,3.89,4.75,7.82,6.73,11.86a57.66,57.66,0,0,1-5,12.69,24.11,24.11,0,0,0-.3-3.38c-1-6.48-4.7-12.57-10-17.64a38.47,38.47,0,0,0-7.38-5.66h0c5.55,9.16,11.37,20.25,12.23,30.45a25.88,25.88,0,0,1,.06,3.63,34.53,34.53,0,0,1-3.43,3.16c-.23-.47-.14-.29-.28-.55.14-.8.29-1.59.39-2.39a34.31,34.31,0,0,0,2.62-7.07c-2.11,2-1.34,1.3-2.27,2.17a35.1,35.1,0,0,0-.64-7.78c-2.5-13.14-12.42-24.17-26.3-31.81a69.56,69.56,0,0,0-11-5l-.43-.74a17.4,17.4,0,0,0-1.05-1.68.71.71,0,0,0-.2-.19c-.14,0,0,.37,0,.43.15.6.33,1.2.53,1.8l-.82-.26h0l1,1c.73,2.27,1.45,4.55,2.1,6.84a92.49,92.49,0,0,1,3.11,15.05A73.18,73.18,0,0,0,771,65.68a40.36,40.36,0,0,0-5.23-10.57h0c0,4.64,0,2.24,0,7.18-2.77-1.7-5.65-3.29-8.57-4.83-1.22-.65-2.44-1.31-3.68-1.94,0,0-1.78-1-1.77-.76s1.83,1.53,2.11,1.74c1.78,1.36,3.57,2.7,5.33,4.08,2.19,1.74,4.39,3.47,6.48,5.28A116.92,116.92,0,0,1,764,82l-1,1.3a36.64,36.64,0,0,0-7.42-5.57c1.77,2.86,3.52,5.73,5.07,8.67-1.4,1.84-2.81,3.68-4.27,5.49-.21-.32,0,0-.65-.92a41.28,41.28,0,0,0-5.15-17.16l1.27-1c.26-.2,2-1.41,2.06-1.67,0-.07-.74.26-.75.27-1,.51-2,1-3,1.57l-.21-.36c-.34-.61-.68-1.21-1-1.81a11.45,11.45,0,0,0-.72-1.14.47.47,0,0,0-.14-.14c-.09,0,0,.26,0,.3.1.44.25.87.39,1.3.52,1.64.27.85.74,2.37-2.28,1.25-4.57,2.5-6.75,3.85a30.32,30.32,0,0,0-2.76-1.79h0c.94,1.56.57.94,1.11,1.86-2-1.25-4.06-2.41-6.18-3.54a103.88,103.88,0,0,0-3-38.28,105.1,105.1,0,0,0-3.6-11.2,47.43,47.43,0,0,0-2.84-6.38c.19,12.69.28,25.39-.66,38.06l-.06-.1c-.59-1-1.19-2.1-1.81-3.14a12.43,12.43,0,0,0-.76-1.18c0-.07-.1-.17-.21-.2l0,0c-.11.15.07.55.1.69.15.55.33,1.09.5,1.64.51,1.59,1,3.18,1.51,4.77l.44,1.47c-.37,4.19-.17,2.13-.6,6.2-.67-.41-.17-.11-1.54-.88l-1.3-.69c-.38-.84-.82-1.66-1.26-2.48a23.54,23.54,0,0,0-2.25-3.52c.08,3.43.06,2,.08,4.29a58.38,58.38,0,0,0-6.25-2.55l-.43-.74a15.64,15.64,0,0,0-1-1.68s0,0,0-.05c.41-3,.75-6.08.91-9.14a106.54,106.54,0,0,0-2.74-29.46A89.35,89.35,0,0,0,701.07,0h0c.14,16.52-.24,33.07-2.32,49.53-.22-.34,0-.09-.52-.76h0c0,2.28,0,1.2,0,3.23a54.57,54.57,0,0,0-10-11c3,7.07,6,14.2,8.52,21.53-.73,3.61-.38,2-1,4.94-2.18-1.29-4.42-2.53-6.69-3.72s-1.22-.66-3.48-1.83a69.28,69.28,0,0,0-8.13-14.51,56.58,56.58,0,0,0-9.34-10.28h0C671.3,45,674.43,52.8,677,60.75l-1.38.39a88.9,88.9,0,0,0-29.85-42.46,78.47,78.47,0,0,0-13.9-9l-.55-1.35c-.42-1-.82-2.08-1.33-3a1,1,0,0,0-.25-.35c-.18,0,0,.67,0,.78.19,1.09.42,2.18.67,3.26l-1-.46h0l1.32,1.71c.92,4.13,1.84,8.27,2.66,12.42A232.38,232.38,0,0,1,637.26,50c-8.87-13.83-20.82-24.72-33.41-34.22-1.55-1.19-3.09-2.38-4.66-3.53-.06,0-2.26-1.74-2.25-1.37,0,.53,2.32,2.77,2.67,3.16,2.26,2.46,4.53,4.9,6.75,7.4,11.81,13.3,23.38,27.62,29.87,45l-.72-.13-.18-.56a40.07,40.07,0,0,0-5.27-10.68h0c0,3.49.05,7-.11,10.46a35.71,35.71,0,0,0-5.57-.1h0c4,2.07,2.15,1.11,5.44,2.87A116.34,116.34,0,0,1,628,83.87a39.22,39.22,0,0,0-8-6.15c2,3.17,3.87,6.35,5.58,9.6l-1.42.4c-2.05.57-4.1,1.16-6.1,1.84a36.69,36.69,0,0,0-5.28-7c0-3.21.24-6.41.49-9.62.28-3.42.67-6.83,1.1-10.24.13-1,.26-2,.38-3.06a5.26,5.26,0,0,0,.1-1.57c0-.08-.36.78-.37.79-.49,1.46-.88,2.94-1.32,4.41-.59,2.13-.34,1.18-.77,2.87l-1,.26c-1.41.37-2.81.77-4.2,1.16-1.9.54-3.79,1.07-5.66,1.66a100.68,100.68,0,0,0-5.88-23.78l1.6-1.75c.33-.36,2.59-2.56,2.6-3,0-.13-.92.48-.93.49-1.29.92-2.57,1.87-3.82,2.85l-.26-.66c-.44-1.09-.87-2.19-1.32-3.28a22.39,22.39,0,0,0-.91-2.07.72.72,0,0,0-.17-.25c-.12,0,0,.46,0,.54.13.8.32,1.58.49,2.37.66,3,.35,1.53.94,4.29-3.3,2.56-6.56,5.18-9.68,8-3-2.77-6.19-5.35-9.44-7.79-1.06-.81-2.12-1.63-3.19-2.41l-.51-.38a155.46,155.46,0,0,0-8.52-29.23c-.76-1.91-1.51-3.82-2.3-5.7a22.69,22.69,0,0,0-1-2.13c-.07-.14-.13-.31-.27-.37l0,0c-.14.27.09,1,.14,1.25.19,1,.41,2,.63,3,.65,2.89,1.3,5.78,1.91,8.67A267.74,267.74,0,0,1,566,44.93a137.81,137.81,0,0,1,.83,20.91c-2.39,1.92-1.18.93-3.64,3,.13-2.47.18-2.86.18-5.6a108.54,108.54,0,0,0-3.63-27.59,107.42,107.42,0,0,0-3.6-11.2,48.72,48.72,0,0,0-2.84-6.38c.26,14.5.26,29-1.09,43.49a4.91,4.91,0,0,0-.33.43,104.56,104.56,0,0,0-5.57-18.62c-.52-1.3-1-2.61-1.57-3.9-.21-.49-.41-1-.66-1.45a.55.55,0,0,0-.18-.26l0,0c-.1.19.06.69.09.86.13.68.28,1.36.43,2,.44,2,.89,4,1.31,5.93a183.09,183.09,0,0,1,3,18.51l.1,1a98.81,98.81,0,0,0-6.76,11c.1-2.15.3-4.29.49-6.42.27-2.91.62-5.81,1-8.71.12-.92.24-1.85.34-2.77a3.67,3.67,0,0,0,0-1.14c0-.08-.37.78-.37.79-.49,1.46-.89,2.94-1.33,4.41a105.31,105.31,0,0,0-3.09,14.33c-.07.6-.16,1.21-.22,1.81-.18,1.85-.09.85-.27,3a57.7,57.7,0,0,0-3.32-13.59,93.28,93.28,0,0,0,3.29-28.35c.9-2,.28-.64,1.87-4,1.26-2.63,2.55-5.24,3.83-7.85.44-.9.89-1.79,1.3-2.71.11-.23.49-.87.42-1.17l0,0c-.15,0-.25.17-.35.28a22.18,22.18,0,0,0-1.41,1.79c-1.2,1.61-2.36,3.24-3.53,4.88-1.55,2.15-.74,1-2.43,3.46a108.07,108.07,0,0,0-2.49-15.72A89.32,89.32,0,0,0,529.2,0h0c.2,17.44-.33,34.94-2.66,52.21-2.71-3.69-6.58-8.47-10.18-11.16,2.46,5.75,4.9,11.53,7.06,17.43l-1.8.72c-2.6,1-5.19,2.11-7.72,3.34a69.56,69.56,0,0,0-8-14.55l.17-.37c0-.07.23-.45.12-.52a.62.62,0,0,0-.22.19l-.31.36-.14-.19a56.58,56.58,0,0,0-9.34-10.28h0c2.11,5,4.16,10.07,6,15.21l0,0q-1.49-1.95-3-3.82s-.77-.87-.79-.74c-.09.46,1.58,3.22,1.82,3.66l1.15,2.14-.26.37a88.55,88.55,0,0,0-12.75-21.13q4-2.82,8.07-5.48c2.72-1.8,5.48-3.53,8.23-5.28.43-.27,3.17-1.81,3.31-2.31s-2.42.68-2.49.7c-1.78.68-3.55,1.4-5.32,2.11-5,2-10.05,4.15-14.92,6.63a94.32,94.32,0,0,0-11.34-10.58c-1.29-1-.63-.5-2-1.52,3.05-6.28,1.69-3.52,4.05-8.31.51-1,1-2.08,1.49-3.15,0-.1.34-.66.17-.76a1,1,0,0,0-.31.27,29.34,29.34,0,0,0-2,2.57c-1,1.36-2,2.73-3,4.1-1.46,2-.59.82-2.59,3.71a66.4,66.4,0,0,0-12.26-7h0c3.07,4,6.11,7.93,9.06,12A136.37,136.37,0,0,0,450.8,55.9a162,162,0,0,0-12.67,17c-1.55,2.38-3.06,4.78-4.42,7.23-.59-2.52-.31-1.41-.8-3.35A85.71,85.71,0,0,0,430.08,68a38.91,38.91,0,0,0-2.23-5c.19,10.51.21,21-.64,31.52-.41,1.21-.8,2.43-1.13,3.65a2.28,2.28,0,0,0-.17.58s0,.1,0,.15a41.2,41.2,0,0,0-1.34,11.6l-.57,0c-.83-.05-2.18-.17-2.79.61-.88,1.13.91,3.57,1.48,4.4.78,1,.35.43,1.3,1.67-.35,1.61-.14.69-.63,2.76l-.25,1-6.35-.49a47.63,47.63,0,0,0-3-17.51c3.56-12.56,3.35-26.16.39-38.83a70.56,70.56,0,0,0-5.24-15.22h0a283.59,283.59,0,0,1-2.09,41c-2.13-2.9-5.17-6.65-8-8.77,2.4,5.56,4.72,11.15,6.69,16.91a105,105,0,0,1-4.95,18.1c-.08-2.15-.06-2.67-.29-4.82A52.89,52.89,0,0,0,390.31,86,44.12,44.12,0,0,0,383,78h0c5.58,13.28,10.54,26.87,11.95,40.84l-2.66-.17c0-.82,0-1.65,0-2.48a72.78,72.78,0,0,0-.61-7.36,69.11,69.11,0,0,0-26.16-45.35,61.3,61.3,0,0,0-10.92-7.06l-.43-1.06a24.35,24.35,0,0,0-1.05-2.39.8.8,0,0,0-.19-.28c-.14,0,0,.53,0,.62.15.86.33,1.71.52,2.56l-.81-.37h0c.78,1,.43.56,1,1.34.73,3.25,1.45,6.49,2.09,9.76A183.92,183.92,0,0,1,358.79,88c-7-10.86-16.35-19.41-26.24-26.88-1.22-.93-2.43-1.86-3.66-2.77-.05,0-1.78-1.36-1.77-1.07s1.82,2.17,2.1,2.48c1.77,1.93,3.55,3.85,5.3,5.81C343.79,76.05,352.88,87.3,358,101a36.92,36.92,0,0,0-9.31-.79h0c3.37,1.75,6.72,3.52,10,5.43a41,41,0,0,1-2.82,11.12q-8.19-.33-16.38-.57a100.51,100.51,0,0,1,.4-10.11c.22-2.69.52-5.37.86-8,.1-.81.21-1.61.3-2.41a7.19,7.19,0,0,0,.1-.92,67.24,67.24,0,0,0,3.18-11.41c-4.55,5.77-9.14,11.51-14,17.11A79.24,79.24,0,0,0,326,84.46l1.27-1.37c.25-.28,2-2,2-2.38,0-.1-.73.38-.74.39-1,.72-2,1.47-3,2.24l-.2-.52c-.34-.86-.68-1.72-1-2.58-.23-.54-.44-1.11-.72-1.63a.78.78,0,0,0-.13-.19c-.1,0,0,.36,0,.42.1.63.24,1.25.38,1.87.52,2.32.27,1.2.74,3.36-2.59,2-5.16,4.07-7.61,6.29-2.25-2-4.59-4-7.08-5.87a65.68,65.68,0,0,0,.87-9.06A93.59,93.59,0,0,0,303.73,37a43.58,43.58,0,0,0-2.81-5.84c.19,9.81.27,19.64-.31,29.44-.21-.56,0-.06-.59-1.48s-1.18-3-1.8-4.48c-.24-.56-.47-1.14-.75-1.67-.06-.11-.11-.24-.22-.29l0,0c-.11.22.07.79.11,1,.15.78.32,1.56.5,2.34.5,2.27,1,4.53,1.49,6.81.66,3.16.38,1.75.85,4.21-.38,4.36-.79,8.72-1.47,13-.56-2.44-.29-1.33-.79-3.32A85.71,85.71,0,0,0,295.09,68a37.59,37.59,0,0,0-2.23-5A306.38,306.38,0,0,1,292,97.1c-.14.19-.06.07-.26.35a81.4,81.4,0,0,0-4.37-14.63c-.41-1-.81-2-1.23-3.06-.17-.39-.32-.78-.52-1.15,0-.07-.07-.16-.14-.2l0,0c-.07.15.05.54.07.67.1.54.23,1.07.34,1.61.35,1.55.7,3.1,1,4.65a145.39,145.39,0,0,1,2.39,14.54l.09.82c-1.07,1.52-2.11,3-3,4.62.25-1.88.33-2.31.47-4.27a52.3,52.3,0,0,0-3.63-23.53c.48-1.61.29-.92.59-2.07,1.06-2.18.37-.77,2.07-4.23.35-.71.7-1.41,1-2.13.09-.18.39-.68.33-.92v0c-.12,0-.2.14-.28.22-.4.44-.75.93-1.11,1.41l-1,1.32a70.5,70.5,0,0,0,1.34-9,89.17,89.17,0,0,0-2.51-29.78,77.7,77.7,0,0,0-6.59-17.72h0a334,334,0,0,1-1.44,37.95c-.52-1.28-1.07-2.56-1.7-3.81h0c0,4.3,0,8.6-.05,12.89a50.92,50.92,0,0,0-9.51-9.5c3,6.46,5.95,13,8.43,19.68A143.22,143.22,0,0,1,269,86.21a38.19,38.19,0,0,0-3.71-3.95A61,61,0,0,0,253.65,58a53.34,53.34,0,0,0-9.24-9.39h0c2.65,5.83,5.19,11.69,7.39,17.63l-.73.29-.62.26c-5.4-13.25-15-25.51-28.12-35.09a77.76,77.76,0,0,0-13.74-8.21l-.54-1.24a30.74,30.74,0,0,0-1.32-2.78,1.1,1.1,0,0,0-.24-.32c-.19,0,0,.62,0,.72.19,1,.42,2,.67,3l-1-.42h0L207.42,24c.91,3.78,1.82,7.56,2.63,11.36a198.39,198.39,0,0,1,3.9,25c-8.77-12.65-20.59-22.6-33-31.29-1.53-1.08-3.06-2.17-4.62-3.22-.06,0-2.23-1.59-2.22-1.25s2.29,2.53,2.64,2.88c2.24,2.25,4.48,4.49,6.68,6.77,11.67,12.16,23.12,25.25,29.54,41.17a50.65,50.65,0,0,0-11.72-.92h0c4.24,2,8.46,4.1,12.61,6.32a42.49,42.49,0,0,1-4.95,15.64c-3.9,6.25-10,10.66-16.52,13.63-.37-1-.72-2-1-3-2.2-8-1.94-17.53-1.22-25.73.28-3.13.66-6.25,1.09-9.36.13-.93.26-1.86.38-2.8a4.71,4.71,0,0,0,.1-1.44c0-.07-.36.72-.37.73-.48,1.33-.87,2.69-1.31,4A90.56,90.56,0,0,0,187,85.58c-.26,2-.37,2.61-.54,5a71.49,71.49,0,0,0,0,11.24c-.5-1.56-1-3.11-1.61-4.63a103.87,103.87,0,0,0-5.66-12.48,85.79,85.79,0,0,0-6.45-28.48l1.59-1.6c.32-.33,2.56-2.34,2.57-2.77,0-.12-.91.44-.92.45q-1.92,1.26-3.78,2.6l-.26-.6c-.43-1-.86-2-1.3-3a18.34,18.34,0,0,0-.9-1.9.62.62,0,0,0-.17-.23c-.12,0,0,.43,0,.49.13.73.31,1.45.49,2.17.65,2.71.34,1.4.93,3.92-3.26,2.34-6.5,4.74-9.58,7.32-3-2.53-6.12-4.89-9.33-7.13-1-.74-2.1-1.48-3.16-2.2l-.5-.34A133.94,133.94,0,0,0,140,26.64c-.75-1.74-1.49-3.49-2.28-5.21a19.44,19.44,0,0,0-.94-1.95c-.07-.12-.13-.28-.27-.33l0,0c-.14.25.09.91.14,1.15.18.91.4,1.82.62,2.72.64,2.64,1.28,5.28,1.89,7.93a227.57,227.57,0,0,1,4.41,24.74,117.37,117.37,0,0,1,.82,19.11c-2.37,1.75-1.17.85-3.6,2.72.13-2.26.17-2.61.18-5.12a92.37,92.37,0,0,0-3.6-25.22A93.67,93.67,0,0,0,133.74,37a43.58,43.58,0,0,0-2.81-5.84c.26,13.26.25,26.55-1.09,39.76-.18.21-.07.08-.32.4a89.81,89.81,0,0,0-5.51-17c-.51-1.19-1-2.38-1.55-3.56-.21-.45-.4-.91-.65-1.33,0-.09-.09-.2-.18-.23h0c-.1.18.06.63.09.79.13.62.28,1.24.43,1.86.43,1.81.87,3.61,1.29,5.42a154.24,154.24,0,0,1,3,16.93l.11.94a91.3,91.3,0,0,0-6.7,10c.11-2,.3-3.92.49-5.87.27-2.66.62-5.31,1-8,.12-.85.24-1.69.34-2.54a3,3,0,0,0,0-1c0-.07-.36.72-.37.73-.48,1.33-.87,2.69-1.31,4A90.56,90.56,0,0,0,117,85.58c-.07.55-.16,1.1-.22,1.65-.17,1.69-.08.78-.26,2.73a49.31,49.31,0,0,0-3.29-12.42,79.18,79.18,0,0,0,3.25-25.93c.89-1.79.28-.57,1.86-3.65,1.24-2.4,2.52-4.79,3.79-7.18.43-.82.87-1.64,1.28-2.47.11-.22.49-.79.42-1.07l0,0c-.15,0-.25.16-.35.26-.5.51-1,1.08-1.4,1.64-1.18,1.46-2.33,3-3.49,4.45-1.53,2-.72.91-2.4,3.17a93,93,0,0,0-2.46-14.37,77.26,77.26,0,0,0-6.6-17.72h0c.2,15.94-.32,31.95-2.63,47.73-2.68-3.37-6.51-7.74-10.07-10.2,2.44,5.26,4.85,10.53,7,15.93l-1.78.66c-2.57,1-5.13,1.93-7.63,3.06A62.62,62.62,0,0,0,84,58.5l.16-.34c0-.06.23-.41.12-.47a.77.77,0,0,0-.22.17l-.31.33L83.66,58a53.68,53.68,0,0,0-9.24-9.39h0c2.09,4.59,4.12,9.21,6,13.9v0c-1-1.18-2-2.35-3-3.49,0,0-.76-.79-.79-.67-.08.41,1.57,2.94,1.81,3.34l1.14,2-.26.35A79.74,79.74,0,0,0,66.63,44.7c2.63-1.72,5.3-3.38,8-5s5.42-3.23,8.14-4.83c.42-.25,3.13-1.65,3.27-2.11s-2.39.62-2.46.64c-1.76.62-3.51,1.28-5.27,1.93-5,1.85-9.93,3.79-14.75,6.06a90.44,90.44,0,0,0-11.21-9.67c-1.28-.92-.63-.46-2-1.39,3-5.75,1.67-3.22,4-7.6.51-.95,1-1.9,1.48-2.88,0-.09.33-.6.17-.69a1,1,0,0,0-.32.25,29.24,29.24,0,0,0-2,2.34c-1,1.24-2,2.5-2.93,3.75-1.45,1.87-.58.75-2.56,3.39a67.48,67.48,0,0,0-12.13-6.45h0c3,3.61,6,7.25,9,11A120.39,120.39,0,0,0,29.52,65.74,148.4,148.4,0,0,0,17,81.25,85.51,85.51,0,0,0,6.67,99.72C4.52,98.87,2.38,98,.3,97l0,19.06v0a1.64,1.64,0,0,0,0,1.71L0,223H1923.33V113.24c-.09-.54-1.8-.61-2.42-.65C1919.51,112.51,1918.09,112.53,1916.68,112.56ZM78.29,93.28c.42,1.69.8,3.4,1.09,5.12-.67-1-1.36-2-2.11-2.92.69-1.43.37-.74,1-2.08Zm-.1-.43a19.87,19.87,0,0,0-1.44,2A49.51,49.51,0,0,0,73,90.66c1.12-1.29,2.27-2.55,3.5-3.73C77.1,88.89,77.73,90.85,78.19,92.85ZM73.83,79.72c.79,2,.53,1.28.82,2.07-1.76,1.4-1,.79-2.27,1.84C72.84,82.32,73.31,81,73.83,79.72ZM47.36,36.32h0c2.47,3.16,4.86,6.4,7.2,9.67a98,98,0,0,0-16,11.07A186.33,186.33,0,0,1,47.36,36.32Zm1.47,71.76c-.53.92-1.12,1.8-1.72,2.67-5.62-4.57-10.38-10.4-12.6-17.45a43.62,43.62,0,0,1-.76-17.59,213,213,0,0,1,21.9,12C54.33,94.73,52.34,101.8,48.83,108.08Zm8.79-7.9c-1,1.32-1.84,2.69-2.71,4.07a72.68,72.68,0,0,0,2.8-10.88c.23-1.31.44-2.63.58-4,1.68,1.12,3.33,2.28,4.93,3.5C61.24,95.24,59.41,97.69,57.62,100.18Zm1.19-19.55c0-1.88,0-3.77-.11-5.65-.09-1.41-.13-2.83-.27-4.24,0,0-.1-.86-.17-.8A4.7,4.7,0,0,0,58,71.36c-.12.93-.22,1.87-.33,2.81-.41,3.42-.17,1.56-.72,5.59a59.5,59.5,0,0,0-12.73-4.11A55.6,55.6,0,0,0,34,74.44c6.35-9.39,14.76-17.11,23.83-23.69A168.85,168.85,0,0,1,72,75.52a84.82,84.82,0,0,0-4.58,10.37A53.12,53.12,0,0,0,58.81,80.63Zm10,22.74A30.09,30.09,0,0,1,69,97.6h0c1.17,1,2.31,2.11,3.42,3.22l-.8,1.05c-.86,1.1-1.72,2.22-2.62,3.29C68.87,104.44,68.83,104.24,68.77,103.37ZM79,115.66a37.28,37.28,0,0,1-3.71,1.93,23.49,23.49,0,0,1-5.55-8.89c1.45-2.09,2.82-4.25,4.06-6.48a66.11,66.11,0,0,1,6.15,7.5A37.3,37.3,0,0,1,79,115.66ZM80.12,66l.34-.65c1,1.68,1.92,3.35,2.84,5,.55,1.59,1.11,3.19,1.59,4.81-.54.28-.09,0-1.36.74A71.2,71.2,0,0,0,80.12,66Zm4,52.41.09-.07v.05Zm3.4-1.62-.27-1,.91-.81A17.78,17.78,0,0,1,87.54,116.77Zm2.27-11.59a50.44,50.44,0,0,1-4.3,5.25l-.27-.73a41.87,41.87,0,0,0,.71-4.6,61.6,61.6,0,0,0,.21-9.21c0-.82,0-.49-.06-1a81.56,81.56,0,0,0-.81-10.36c-.22-1.48-.46-3-.77-4.41.5-.37,1-.74,1.49-1.12h0a97.57,97.57,0,0,1,3.71,20.19A54.78,54.78,0,0,1,89.81,105.18Zm18.43-15.32c.39,1.81.24,1,.48,2.27-.35,1.82-.21,1-.43,2.46-.05.37-.11.75-.15,1.13l-.09.87c-1.11-1.58-.45-.65-2-2.78C106.82,92.51,107.56,91.2,108.24,89.86ZM104.72,96c1.09,2.11,2.12,4.25,3.06,6.43v.5c-1.09-2.27-2.15-4.56-3.08-6.92Zm-9-11.63A52.64,52.64,0,0,0,92.94,74.3c3-1.9,1.65-1,4.1-2.56,1.55-.93,3.09-1.85,4.65-2.76l.56,1.44A117.94,117.94,0,0,0,96.57,86C96.09,85,96.36,85.59,95.75,84.39ZM104.84,114A115.53,115.53,0,0,0,102,100.1c.67-.92,1.36-1.83,2-2.8a51.41,51.41,0,0,0,4.31,11.48c.16,1.32.38,2.62.63,3.93C106.61,113.5,107.94,113.05,104.84,114Zm10.75-4.59c.29-1.35.6-2.71.76-4.09.16.33.35.65.52,1,.21,1.65.11,1,.28,2.06C116.64,108.74,116.13,109.12,115.59,109.44Zm11-17.6-.17.74c-.07-1.26-.13-2.52-.25-3.78,0,0-.1-.85-.17-.79a3.09,3.09,0,0,0-.21,1c-.12.84-.21,1.69-.3,2.54-.3,2.56-.15,1.32-.46,3.72a73.93,73.93,0,0,0-4.32,9,58.23,58.23,0,0,1-.87-6.83c-.08-1.36-.17-2.72-.17-4.08l.15-.4a152.19,152.19,0,0,1,7-15.32c.13,2,.21,2.69.26,4.68A58.89,58.89,0,0,1,126.57,91.84Zm3.13-19.66v0Zm14.48,4.59c-.15,2.13-.38,4.26-.73,6.37A97.84,97.84,0,0,0,138.07,93c.25-.91.51-1.8.73-2.71a69.34,69.34,0,0,0,1.63-9.5c1.64-1.81.92-1,2.15-2.35s.8-.86,1.6-1.67ZM167.09,62c2.6-2.74,1.17-1.26,4.28-4.45.3,1.29.1.39.6,2.7a135,135,0,0,1,2.67,17.09,70.89,70.89,0,0,0-10.64-12C166.34,62.78,165.31,63.9,167.09,62Zm-17.92-7.15c1.52,1.53,3.06,3.06,4.56,4.63,1.77,1.84,3.54,3.7,5.24,5.61a84.08,84.08,0,0,0-8.33,8.34,117.61,117.61,0,0,0-2.09-19.18Zm-2.1,56.44.14-.7.29.58Zm11-9.61a72.45,72.45,0,0,1,.29-10c.19-2.14.45-4.27.74-6.4.09-.64.18-1.28.26-1.92a3.29,3.29,0,0,0,.07-1c0-.05-.25.49-.25.5-.33.9-.6,1.84-.9,2.75a61.13,61.13,0,0,0-2.09,9c-.18,1.36-.25,1.78-.38,3.38a48.76,48.76,0,0,0,0,7.45c-1.8,2-3.61,3.92-5.49,5.8a48.09,48.09,0,0,1-2.41-4.26,180.33,180.33,0,0,0,2.68-23.76,97.87,97.87,0,0,1,11-15.11,76.76,76.76,0,0,1,11.27,17c-2.05,2.61-.72.93-4,5-.47-1.17-.15-.37-1-2.42-.15-.39-1-3.15-1.38-3.31-.08,0,0,.81,0,.82.22,1.4.53,2.78.8,4.17.41,1.76.24,1.09.47,2-3.16,3.84-6.34,7.68-9.67,11.37C158.11,102.43,158.07,102.05,158.06,101.66Zm6.67,6.94c.79-1.39,1.53-2.81,2.25-4.25,1-2,1.89-3.93,2.72-5.95.41,1.3.82,2.59,1.31,3.86A22.44,22.44,0,0,1,164.73,108.6ZM172.6,99c-.57-1.24-1.13-2.49-1.66-3.75a70.12,70.12,0,0,0,2.64-8.53c.41,1,.81,2,1.16,3A33,33,0,0,1,172.6,99Zm67.48-27.65-.72.36a74.06,74.06,0,0,0-8.9-8.3c-1-.8-.5-.4-1.57-1.2.93-1.92,1.85-3.84,2.8-5.76A148.74,148.74,0,0,1,240.08,71.39Zm-.73,16a51.27,51.27,0,0,0-7.5-5.17c2.08-1.74,1.08-.92,3-2.44C236.4,82.32,237.93,84.84,239.35,87.41Zm-29-59.93a300,300,0,0,1,20.78,28.06c-1.08,1.48-.46.63-1.85,2.56-1.15,1.61-.46.64-2,2.91a55.21,55.21,0,0,0-8.35-5A127.27,127.27,0,0,0,210.31,27.48Zm10.23,43.59a118.41,118.41,0,0,0-1.46-13.64c1.91,2.47,3.79,5,5.61,7.47-1.37,2.2-2.71,4.41-3.86,6.69Zm3.8,7.59c-1.06-2.25-.59-1.29-1.38-2.9,1.1-2.81,2.27-5.59,3.54-8.36,2,2.72,3.86,5.51,5.72,8.31-2,1.22-3.93,2.48-5.76,3.82C225,78.9,225.68,79.19,224.34,78.66ZM237,118.82l-2.51.25,0-.31c0-.57.06-1.14.07-1.72l.11-.62c.18-1.13.35-2.26.46-3.4q2,1.44,3.92,3C237.9,117.59,238.6,116.67,237,118.82Zm5.42-8.83a42.38,42.38,0,0,0-6.84-4.52c0-1.61,0-3.23-.09-4.85-.07-1.21-.1-2.43-.21-3.64,0,0-.09-.74-.14-.69a4.33,4.33,0,0,0-.21,1.22c-.09.8-.17,1.61-.26,2.41-.32,2.94-.14,1.34-.57,4.8-.68-.32-.4-.2-.83-.39A85,85,0,0,0,229,89.92,84.51,84.51,0,0,1,245,103.55,65.91,65.91,0,0,0,242.44,110Zm4.61-4c.3.35.07.07.68.84-.46.4-.92.79-1.36,1.2C246.78,106.8,246.55,107.48,247.05,106Zm1.89,9.65-.47.27c-1.08-1.27-.54-.66-1.61-1.84.88-1.11,1.8-2.19,2.77-3.2l.11.36A35.18,35.18,0,0,1,248.94,115.66Zm7.68-6.86c-.17-1.26-.36-2.53-.61-3.78l1.19-1h0c.64,2.58.37,1.42.83,3.46-1,1.23-.54.69-1.36,1.63ZM256,101c0-.74,0-.36,0-1.14l.28,1Zm1.56,15.79-.27-1,.9-.81A18.68,18.68,0,0,1,257.54,116.77Zm-1.91-30.31.13-.29s.18-.35.09-.41a.55.55,0,0,0-.17.15l-.18.22c-.09-.81,0-.27-.21-1.62a74.73,74.73,0,0,0-4.21-16.11l1.23-.78a129.21,129.21,0,0,1,6.54,23.92A54,54,0,0,0,255.63,86.46Zm9.95,23.66c-.38-.85-.17-.38-.66-1.41l0-.22c.66-.69.09-.09,1.69-1.83C265.88,109,266.21,107.82,265.58,110.12Zm1-17.21a52.49,52.49,0,0,0-.37-5.61c-.13-1-.08-.67-.13-1,1.43,3.46.91,2.16,1.59,3.89C266.9,92.07,267.27,91.15,266.54,92.91Zm8.52,23.36-1.7.07c.52-1,1-2,1.49-2.94.31,1.56.18.91.38,1.95C275.17,115.66,275.12,116,275.06,116.27Zm3.72-13.45c.37-1.42.76-2.84,1-4.27a61.23,61.23,0,0,1,.6,9.56A50.37,50.37,0,0,0,278.78,102.82Zm10.79,10.68c-.36.8-.23.52-.38.82,0-.74,0-.13-.12-1.82,0,0-.08-.74-.14-.69a2.8,2.8,0,0,0-.16.88c-.1.72-.17,1.45-.24,2.18l-.11,1,0,0c-3.07.06-1.63,0-4.33.1,1.62-4.4,3.42-8.77,5.5-13,.11,1.7.17,2.31.21,4A57.16,57.16,0,0,1,289.57,113.5Zm2.32-15.28v0ZM309.7,85.88l1.27,1.4c1.41,1.59,2.81,3.18,4.16,4.83a69.23,69.23,0,0,0-6.62,7.16c-.08-2.19-.14-4.38-.36-6.56A62.89,62.89,0,0,0,309.7,85.88Zm11.93,24a3.34,3.34,0,0,0-.51-1.1c-.07,0,0,.69,0,.7l.12.78c-1.81,1.85-3.61,3.71-5.51,5.51h-1.18c0-.26.05-.51.07-.77.15-1.84.35-3.67.58-5.5.07-.55.15-1.1.21-1.65a3,3,0,0,0,.06-.84s-.2.42-.2.42c-.27.78-.48,1.58-.72,2.37a59.7,59.7,0,0,0-1.38,6l-5.27,0c.26-2.67.48-5.34.54-8a83.81,83.81,0,0,1,8.75-13,73.23,73.23,0,0,1,7.62,11.76C323.45,108,324.5,106.83,321.63,109.85Zm-2.5-17.5c1.85-2.22,1-1.25,2.45-2.9,2.06-2.36.93-1.08,3.4-3.82h0c.24,1.1.07.33.48,2.31a124.9,124.9,0,0,1,2.11,14.69A59.66,59.66,0,0,0,319.13,92.35ZM336.92,114c-.09,1.52-.06.81-.1,2.13l-2.53-.06c-.51-1.33-1-2.65-1.65-4a88.49,88.49,0,0,0,4.33-7.75c1.12-2.29,2.21-4.6,3.13-6.94l-.31,1.06a80.87,80.87,0,0,0-2.43,11.26C337.15,111.43,337.07,112,336.92,114Zm35.19,3.52c-.39-1.36-.87-2.7-1.34-4,1.85,1.37,3.67,2.76,5.33,4.25Zm13.1.72A43.31,43.31,0,0,0,367,103.78c-1-2.2-1.93-4.4-3-6.52a115.57,115.57,0,0,0-8.13-37.45C369.58,78,382.2,97.28,386.44,118.29Zm21.3,1.37c1-1.71.58-.94,1.32-2.29s1.39-2.57,2-3.9c.37,1.81.73,3.63,1,5.46.13.87.08.52.15,1ZM500.11,86c.42,1.85.8,3.72,1.1,5.6-.68-1.08-1.38-2.16-2.13-3.19.69-1.57.37-.81,1-2.27A.78.78,0,0,1,500.11,86Zm-.11-.46a21.36,21.36,0,0,0-1.46,2.15,49,49,0,0,0-3.8-4.55c1.13-1.41,2.3-2.79,3.54-4.08C498.9,81.23,499.54,83.38,500,85.57Zm-4.41-14.36h0c.8,2.15.54,1.39.84,2.26-1.79,1.53-1,.86-2.3,2C494.59,74,495.06,72.61,495.59,71.21ZM468.83,23.72c2.5,3.46,4.91,7,7.28,10.59a99.63,99.63,0,0,0-16.17,12.1A214.32,214.32,0,0,1,468.83,23.72Zm-.26,81.42c-5.68-5-10.49-11.37-12.73-19.08a51.66,51.66,0,0,1-.77-19.24A210.45,210.45,0,0,1,477.21,79.9c-1.33,7.72-3.35,15.46-6.89,22.32C469.78,103.23,469.19,104.19,468.57,105.14ZM479.2,93.58c-1,1.44-1.86,2.94-2.74,4.45a84.28,84.28,0,0,0,2.83-11.89c.23-1.44.45-2.88.59-4.33,1.7,1.22,3.37,2.49,5,3.82C482.86,88.18,481,90.86,479.2,93.58Zm1.21-21.38c0-2.06,0-4.13-.11-6.18-.09-1.55-.13-3.1-.27-4.64,0,0-.11-.94-.18-.87a5.46,5.46,0,0,0-.26,1.54c-.12,1-.22,2-.33,3.08-.42,3.74-.18,1.7-.73,6.11a57,57,0,0,0-12.87-4.49,52.94,52.94,0,0,0-10.32-1.33c6.42-10.26,14.93-18.71,24.1-25.91A189,189,0,0,1,493.75,66.6,94.31,94.31,0,0,0,489.13,78,53.84,53.84,0,0,0,480.41,72.2Zm10.07,24.88a36,36,0,0,1,.19-6.32h0c1.19,1.13,2.34,2.31,3.45,3.52l-.8,1.15c-.87,1.21-1.74,2.42-2.65,3.6C490.58,98.24,490.54,98,490.48,97.08Zm10.29,13.44a40.78,40.78,0,0,1-3.75,2.11,26,26,0,0,1-5.61-9.73c1.47-2.29,2.85-4.64,4.1-7.08a69.83,69.83,0,0,1,6.22,8.2A43.18,43.18,0,0,1,500.77,110.52ZM502,56.17c.11-.24.23-.47.34-.71,1,1.83,1.95,3.66,2.87,5.52.57,1.75,1.13,3.49,1.62,5.26-.55.31-.09.05-1.38.81A82.89,82.89,0,0,0,502,56.17ZM506,113.5l.09-.07v0Zm3.44-1.77-.28-1,.92-.89C509.58,111.42,509.81,110.78,509.46,111.73Zm2.29-12.67a54.62,54.62,0,0,1-4.35,5.73l-.27-.79a50.11,50.11,0,0,0,.72-5,72,72,0,0,0,.2-10.07c0-.9,0-.53-.05-1.11a97.63,97.63,0,0,0-.82-11.34c-.23-1.62-.46-3.23-.78-4.82l1.51-1.23h0a115,115,0,0,1,3.75,22.09A65.62,65.62,0,0,1,511.75,99.06Zm18.63-16.77c.4,2,.24,1.15.49,2.49-.35,2-.21,1.09-.44,2.68,0,.41-.11.83-.15,1.24l-.09,1c-1.12-1.73-.46-.71-2-3C529,85.2,529.7,83.76,530.38,82.29ZM526.83,89c1.1,2.31,2.14,4.65,3.08,7l0,.54c-1.1-2.49-2.18-5-3.11-7.56Zm-9.08-12.72a61.88,61.88,0,0,0-2.83-11c3-2.07,1.66-1.14,4.14-2.8,1.56-1,3.12-2,4.7-3l.57,1.58a134.48,134.48,0,0,0-5.74,17.09C518.1,77,518.37,77.63,517.75,76.31Zm9.2,32.42A134.81,134.81,0,0,0,524,93.49c.69-1,1.38-2,2-3.06A58.19,58.19,0,0,0,530.37,103c.15,1.44.37,2.87.63,4.29C528.73,108.16,530.08,107.66,527,108.73Zm10.87-5c.29-1.48.6-3,.76-4.47.17.36.36.7.53,1.06.21,1.81.11,1.06.29,2.25C538.88,103,538.36,103.36,537.82,103.71Zm11.09-19.25-.17.81c-.07-1.38-.13-2.76-.25-4.13,0,0-.1-.94-.17-.87a3.64,3.64,0,0,0-.21,1.11c-.12.92-.21,1.85-.31,2.78-.3,2.81-.15,1.45-.46,4.07A83.07,83.07,0,0,0,543,98.1a69.47,69.47,0,0,1-.88-7.47c-.08-1.49-.17-3-.17-4.46l.15-.44A175.67,175.67,0,0,1,549.13,69c.14,2.18.22,3,.27,5.13A69.07,69.07,0,0,1,548.91,84.46ZM552.08,63v0Zm13.9,12a108.64,108.64,0,0,0-5.43,10.78c.24-1,.5-2,.73-3a82.31,82.31,0,0,0,1.65-10.39c1.66-2,.93-1.12,2.17-2.57s.82-.94,1.62-1.83h0C566.57,70.3,566.34,72.63,566,74.94Zm16.15-.84c0-.06-.25.53-.26.54-.29.9-.56,1.81-.82,2.72-2,1-3.85,2.14-5.67,3.31a99.65,99.65,0,0,1,7-12.49c2,1.9,3.88,3.86,5.75,5.83-2.15.91-4.27,1.87-6.31,2.94.14-1.08.07-.49.23-1.78A3.91,3.91,0,0,0,582.13,74.1Zm-9,2.14,0-1.23a94.37,94.37,0,0,1,6.09-9.82l1.3,1.23A68,68,0,0,0,573.14,76.24ZM586.37,65.4c-1-.56-.51-.28-1.58-.84l2-2.83c1.53,2.16,3.06,4.32,4.38,6.55C589.6,67.27,588,66.29,586.37,65.4Zm-2-6.92c1.13,1.48.56.71,1.73,2.3l-.9.87c-1.16,1.13-.47.45-2,2.05-1.45-.71-.76-.39-2.05-1C582.11,61.3,583.19,59.88,584.32,58.48ZM571.76,44c1.55,1.68,3.1,3.36,4.62,5.06,1.79,2,3.57,4,5.29,6.15-1.87,1.82-3.73,3.66-5.44,5.58-2-.7-1-.39-2.81-.95h0l2,1.84c-.76.87-1.51,1.75-2.2,2.65a139,139,0,0,0-2.11-21C571.34,43.54,571.55,43.75,571.76,44ZM573.48,105a15.74,15.74,0,0,1-1.35-2.52,19.22,19.22,0,0,1-1-5.78l.65-4.74c2.2.82,4.41,1.63,6.58,2.5,0,.59,0,1.18,0,1.77,0,1.48,0,1.81.13,3.06C576.82,101.24,575.2,103.16,573.48,105Zm5.37-17.57c-.18,1.49-.26,2-.38,3.71l0,.5a55.57,55.57,0,0,0-6.58-.52l0-.16a55,55,0,0,1,7.53-6.84C579,86.63,579.14,85.53,578.85,87.46Zm2,9c-.05-.76,0-.42-.06-1l.67.27Zm7.26,5.87-.6.45c.79-1.52.41-.76,1.14-2.27C588.28,101.79,588.46,101.18,588.09,102.34ZM584,92.64c-1.07-.26-2.16-.46-3.25-.63,0-2.58.13-5.16.34-7.73l.13-1.42a85.58,85.58,0,0,1,8.22-5.22c.22,1.4.49,2.79.75,4.18.41,1.93.24,1.19.47,2.21C588.42,86.91,586.24,89.8,584,92.64Zm5.86-15.24,1-.53c.94,1.06,1.89,2.12,2.79,3.21-.64.85-1.27,1.7-1.9,2.56-.48-1.29-.16-.41-1-2.66C590.4,79.12,590.15,78.25,589.81,77.4Zm1.72,17.47v-.81c.56-1.32.23-.52,1-2.43.41,1.39.81,2.78,1.3,4.16C592.14,95.09,592.91,95.39,591.53,94.87Zm3.92-2.54c-.58-1.35-1.14-2.72-1.68-4.09,1.13-3.44.52-1.53,1.79-5.72,1,1.21.38.46,1.73,2.24A32.55,32.55,0,0,1,595.45,92.33Zm-6.17-34.27c0-.08.07-.11.06-.2l0,0-.15.08c-.77-.83-1.57-1.63-2.39-2.43,2.37-2.81,1.32-1.59,3.12-3.68,2.63-3,1.19-1.38,4.33-4.87.31,1.4.1.42.61,3a158.4,158.4,0,0,1,2.69,18.69A75.87,75.87,0,0,0,589.28,58.06Zm20,29.28c-.41-.81-.19-.38-.69-1.29l.27-.39.46.6Zm.75-9.73-.27,2.14A34.66,34.66,0,0,0,604,75.59h0c1.66,2.76,3.28,5.54,4.76,8.38h0c-.79-.72-1.59-1.42-2.4-2.11,0,0-.61-.47-.63-.4-.07.25,1.25,1.77,1.44,2l.91,1.18-.21.21a49.42,49.42,0,0,0-5-6.7c-.49-1-.24-.5-.77-1.57-.18-3.09-.06-1.34-.4-5.24l2.47-1.15c2.15-1,4.33-1.95,6.5-2.91.51-.22,1-.42,1.52-.65A94.44,94.44,0,0,0,610,77.61Zm5.45,26.8c-.38-1.09-.73-2.19-1-3.32a53,53,0,0,1-1.27-7.15l.11-.06h0A49.8,49.8,0,0,1,616,104.13Zm10.33-14.9a54.42,54.42,0,0,0-5.1,6.27,27.15,27.15,0,0,0-1.88-4.72c2.41-1.14,1.31-.63,3.27-1.54,1.24-.56,2.47-1.12,3.71-1.66l.45.87Zm11.3-16.62-.1-.59.17.1Zm35,15.79.29.55-.62.37-.25-.37ZM633.58,14.06c12.07,16.13,23.53,32.67,31.15,50.39l-1.24.44a71.46,71.46,0,0,0-9-5.83l-.19-.1a8.61,8.61,0,0,0-.6-.93c-.06-.07-.11-.17-.22-.2l0,0c-.11.15.07.55.11.69v0l-.66-.35c2.4-3.46,1.34-1.94,3.19-4.58.41-.57.83-1.14,1.18-1.73,0-.06.27-.36.14-.42a.67.67,0,0,0-.25.15,19.51,19.51,0,0,0-1.57,1.42c-.79.74-1.56,1.5-2.34,2.25-1.15,1.13-.46.45-2,2a61.42,61.42,0,0,0-7.9-3.31A149.68,149.68,0,0,0,633.58,14.06Zm10.35,47.68c-.12-2.19-.24-4.38-.46-6.56,4.1,3.78,2.36,2.14,5.26,4.9-1.23,1.39-2.46,2.78-3.54,4.24C644.28,62.41,644.7,63.27,643.93,61.74Zm7.42,6.83a24.29,24.29,0,0,0-2.24-3.52c.08,3.87.06,2,.08,5.61-.78-.36-.31-.15-1.42-.62l-.92-2.1c1.16-2.06,2.38-4.1,3.71-6.1,2,1.9,3.87,3.86,5.74,5.83-1.48.63-2.95,1.27-4.38,2C651.74,69.26,651.91,69.62,651.35,68.57Zm5.8,24.31-.23.13c0-.27,0-.16,0-.34l.23.11ZM658.22,88,657,87.6h0a18.26,18.26,0,0,0-.16-1.94c1,.86.52.42,1.58,1.32Zm-4-14.74c1.5-.94.46-.3,3.17-1.88.41,1.53.74,3.07,1,4.62A47.39,47.39,0,0,0,654.23,73.27Zm4.88,23.12-.48.59.19-.77c.18-.79.35-1.58.46-2.38l.24.12C659.25,95.75,659.4,94.94,659.11,96.39Zm.59-7.86v-.42l.15.13c0,.25,0,.13,0,.35Zm1.74-15.13c1.95,2.34,3.87,4.7,5.58,7.15L666,80l-2.52-1.33-.4-.2C662.56,76.76,662.05,75.07,661.44,73.4ZM669,105.32c-.07.74,0,.38-.08,1.1a9.19,9.19,0,0,1-.5-1l.64-.71Zm.73-3.81c-1.19,1.15-.55.55-1.89,1.81a9.58,9.58,0,0,1-.16-1.08,14,14,0,0,1,.15-3.48c.76.51,1.52,1,2.24,1.57C669.89,100.77,670,100.38,669.7,101.51Zm-.21-14.94a52.52,52.52,0,0,0-6-6.49L663.17,79h0l.5.36c1.22.92,2.44,1.85,3.64,2.79s.71.55,1.65,1.31c.88,1.37.46.69,1.28,2C669.64,86.33,669.89,86,669.49,86.57ZM673.41,106c-1.91,1.66-1,.92-2.58,2.21,0-.23-.05-.46-.07-.7a34,34,0,0,1,.13-5l.73-1,.64.52c1,1.36.51.71,1.34,2C673.51,105.24,673.57,104.57,673.41,106Zm6.13-31.12-.83-.78h0a85.32,85.32,0,0,0-2.77-11.89l1.31-.59c1.54,5,3,10,4,15-.46-.51-.95-1-1.45-1.49L680,75s.18-.25.09-.29a.48.48,0,0,0-.17.11l-.24.2Zm.17,8.45c.62,1.41.35.77.81,1.89l-.72.3C679.74,83.77,679.78,84.5,679.71,83.36Zm.51,4.86,1.2-.68h0c.84,2.35.38,1,1.36,4.1-.71-.72-1.45-1.42-2.23-2.09C680.35,88.66,680.46,89.1,680.22,88.22Zm1.31,9.51c0-.5,0-.3,0-.61,0-1,0-.53-.06-1.29.42.57.81,1.16,1.17,1.76l-1,1C681.56,98.19,681.57,98.47,681.53,97.73Zm.73,3.28a20.49,20.49,0,0,0,.9-2.44l.35.65C682.84,100.21,683.25,99.61,682.26,101Zm8.17-15.38c0-.84,0-1.67-.09-2.51l1.23-.55C691.23,83.6,690.83,84.61,690.43,85.63Zm1.51-4.17c-1.38.39-.83.23-1.66.48,0-.82-.13-1.63-.22-2.45-.29-2.25-.62-4.49-1.13-6.72,1.29,2.12,2.57,4.24,3.74,6.4C692.3,80.43,692.54,79.66,691.94,81.46Zm1.83-6.06a34.78,34.78,0,0,0-5.08-3.69A60.25,60.25,0,0,0,686,63.08c1.68,1.28,3.36,2.55,5,3.84,2.54,2,1.17.91,4.11,3.3C694.35,73.25,694.79,71.52,693.77,75.4Zm5.39,18.69c.31,1.1.19.64.38,1.37-.27,1.1-.16.6-.34,1.48,0,.23-.09.46-.12.68l-.07.53c-.89-1-.36-.39-1.59-1.67C698,95.69,698.62,94.9,699.16,94.09Zm-2.81,3.72c.87,1.27,1.69,2.56,2.44,3.87v.3c-.87-1.37-1.72-2.75-2.45-4.16Zm.34,10.79a22.64,22.64,0,0,1-.47-2.54,35.51,35.51,0,0,1-.19-6.6,25.43,25.43,0,0,0,3.12,6,23.75,23.75,0,0,0,.5,2.37C698.67,108.12,697.69,108.38,696.69,108.6Zm12.8-50.08c.27.95.11.44.46,1.55l-.68-.22Zm-.23,1.41.91.83c.59,1.84.37,1.13.68,2.13-.51.45-.28.24-.68.62-1.63,1.55-.95.89-2.06,2C708.54,63.64,709,61.79,709.26,59.93Zm3.65,35.19c-.24,1.55-.11.8-.36,2.24-.82,1.14-1.63,2.28-2.33,3.46a61.26,61.26,0,0,0,.77-7.51l2.08.8C713,94.61,713,94.27,712.91,95.12Zm-2-9.12c.63.88.34.46.87,1.24-.36.38-.1.1-.75.84C711,87.39,711,86.69,710.92,86Zm2.87,9.29-.13.45c-.09-1.24,0-.76-.12-1.45l.39.16A5.9,5.9,0,0,1,713.79,95.29Zm.38-3.62c-1-.13-2.07-.27-3.12-.34v-.06c1-1.63.44-.74,1.67-2.65.82,1.25.56.83,1.46,2.37Zm-2.42-19c-.41-.72-.81-1.44-1.24-2.15a6.84,6.84,0,0,0-.52-.8s-.07-.12-.14-.14h0c-.07.1,0,.38.08.47.1.38.22.75.34,1.12.35,1.09.7,2.18,1,3.27.55,1.85,1.09,3.7,1.5,5.57-1-.94-2-1.87-3-2.75a56,56,0,0,0-2.47-8.44l0-.09c1.92-2.76.94-1.36,2.94-4.19.61-.88.35-.5.78-1.14,1,3.06.53,1.66,1.27,4.21a100.35,100.35,0,0,1,2.65,11.64A49.75,49.75,0,0,0,711.75,72.65Zm5.48.45a60.75,60.75,0,0,0-4.75-10.25c3.4,3.18,1.77,1.64,4.89,4.63C717.38,69.35,717.33,71.23,717.23,73.1Zm22.43,6.06-.13.09c-.5-.61-.31-.4-.55-.66ZM730.19,107l0,0,.1-.37.23.35Zm2.55,0a29.21,29.21,0,0,1-1.93-2.57c.4-1.81.27-1.18.41-1.86,1.37.78,2.71,1.61,4,2.48C733.49,106.4,734.32,105.75,732.74,107Zm4.69-10c-.14.82-.2,1.08-.3,2-.06.68,0,.38-.07.91A35.56,35.56,0,0,0,732.22,97a62.7,62.7,0,0,0,.74-7c.66-.85,1.33-1.7,2.07-2.51,1.26,1.81,2.41,3.66,3.48,5.54A25.14,25.14,0,0,0,737.43,96.94Zm1.94,4.65-.43-.34v0a34.54,34.54,0,0,1,.23-6l.09-.7a46.64,46.64,0,0,1,2.44,5.1C739.79,101.24,740.57,100.58,739.37,101.59Zm8.27-7.4a40.38,40.38,0,0,0-6.38-12.77l.49-.44c.76.69,1.52,1.38,2.24,2.1A86.44,86.44,0,0,1,748.7,93.2ZM748.9,101l0-.26.08.19Zm1.44-1.7c-.7-1.17-.32-.53-1.13-1.93l.56-1.18c.58,1.76.29.83.86,2.77Zm-.24-14.84a41.33,41.33,0,0,0-3-3.21,36.4,36.4,0,0,0-2.77-2.45l1.83-1.5c2.08-1.66.94-.76,3.42-2.68.24.77.08.23.48,1.62a63.45,63.45,0,0,1,2.13,10.3C751.5,85.83,750.83,85.13,750.1,84.46Zm16.21,21.82c-.29-.61-.57-1.21-.8-1.83s-.38-1.1-.52-1.66c.6-.78,1.19-1.56,1.72-2.36.36,1.27.72,2.55,1,3.83s.17.73.27,1.41C767,106.06,767.52,105.85,766.31,106.28Zm13.19-8.21a22.62,22.62,0,0,1-5.9,4.9,25,25,0,0,0-2.94-10,37.57,37.57,0,0,0,2-20.7,56.35,56.35,0,0,1,10,13.08,52.14,52.14,0,0,0-9.35-.56h0c3.39,1.23,6.76,2.47,10.07,3.81A21.39,21.39,0,0,1,779.5,98.07Zm22.23,14.11c-1.37.1-.76.07-1.83.11,0-.26.07-.52.09-.78.07-1,.06-1.12.07-2,0,0,0-.06,0-.08a1.27,1.27,0,0,0,0-.34,38.51,38.51,0,0,0-4.45-14.94,61.61,61.61,0,0,1,15.16,10.45Q806.41,108.5,801.73,112.18Zm-9-24.58a44.25,44.25,0,0,0-2.8-12.87,47.38,47.38,0,0,0-2.84-6.16,23.47,23.47,0,0,0-2.24-3.52v.17a68.07,68.07,0,0,0-4.18-8.71c13.52,12.5,27,26.44,31.2,42.73A43.05,43.05,0,0,0,792.7,87.6Zm22.36,24,.65-.39a11.93,11.93,0,0,1,.62,2,14.14,14.14,0,0,1-2.56,2.22C814.25,114.18,814.67,112.91,815.06,111.63Zm1.19,6.52-.42,0c.19-.22.38-.43.56-.65A4.44,4.44,0,0,1,816.25,118.15Zm2.1-7.84-.21-.58.72-.48h0A10,10,0,0,1,818.35,110.31Zm14.34,5.19a13.85,13.85,0,0,1-1.42,1.33l-11.06,1a40,40,0,0,0-.84-4.14,37.32,37.32,0,0,0,4.31-7.92,52.92,52.92,0,0,0,9.18-8.92c.71-.9,1.39-1.8,2-2.74.37,1.27.73,2.55,1,3.83C837.1,103.73,837.31,110.49,832.69,115.5Zm14.06-.08a37.15,37.15,0,0,0,3.77-3.38,32.47,32.47,0,0,0,3-3.78l0,6.53ZM947.62,93.28c.5,1.69,1,3.4,1.32,5.12-.82-1-1.65-2-2.55-2.92.83-1.43.44-.74,1.17-2.08Zm-.12-.43a20.1,20.1,0,0,0-1.74,2,54.34,54.34,0,0,0-4.53-4.16c1.34-1.29,2.73-2.55,4.21-3.73C946.18,88.89,946.94,90.85,947.5,92.85Zm-5.26-13.13c1,2,.64,1.28,1,2.07-2.12,1.4-1.22.79-2.74,1.84C941.05,82.32,941.61,81,942.24,79.72Zm-31.92-43.4h0c3,3.16,5.86,6.4,8.68,9.67a121.64,121.64,0,0,0-19.27,11.07A172.36,172.36,0,0,1,910.32,36.32Zm1.78,71.76c-.64.92-1.35,1.8-2.08,2.67-6.77-4.57-12.51-10.4-15.18-17.45a36.54,36.54,0,0,1-.92-17.59,276.2,276.2,0,0,1,26.4,12C918.74,94.73,916.33,101.8,912.1,108.08Zm10.6-7.9c-1.16,1.32-2.22,2.69-3.27,4.07a62.45,62.45,0,0,0,3.37-10.88c.28-1.31.54-2.63.71-4,2,1.12,4,2.28,5.94,3.5C927.06,95.24,924.85,97.69,922.7,100.18Zm1.43-19.55c0-1.88,0-3.77-.13-5.65-.1-1.41-.16-2.83-.32-4.24,0,0-.13-.86-.21-.8s-.29,1.22-.32,1.42c-.14.93-.26,1.87-.39,2.81-.49,3.42-.21,1.56-.87,5.59a82.57,82.57,0,0,0-15.34-4.11,80.46,80.46,0,0,0-12.31-1.21C901.9,65.05,912,57.33,923,50.75A163.67,163.67,0,0,1,940,75.52a77.61,77.61,0,0,0-5.51,10.37A68,68,0,0,0,924.13,80.63Zm12,22.74a25.34,25.34,0,0,1,.22-5.77h0c1.42,1,2.8,2.11,4.13,3.22l-1,1.05c-1,1.1-2.08,2.22-3.16,3.29C936.26,104.44,936.22,104.24,936.14,103.37Zm12.27,12.29c-1.46.69-2.93,1.38-4.47,1.93a23.39,23.39,0,0,1-6.69-8.89,75.32,75.32,0,0,0,4.89-6.48,69,69,0,0,1,7.41,7.5A30.39,30.39,0,0,1,948.41,115.66ZM949.82,66c.13-.22.27-.43.41-.65,1.15,1.68,2.32,3.35,3.42,5,.67,1.59,1.35,3.19,1.93,4.81-.66.28-.11,0-1.64.74A64.44,64.44,0,0,0,949.82,66Zm4.85,52.41.11-.07v.05Zm4.1-1.62-.33-1,1.1-.81A17.65,17.65,0,0,1,958.77,116.77Zm2.73-11.59a52.44,52.44,0,0,1-5.19,5.25c-.1-.25-.21-.49-.32-.73a34.48,34.48,0,0,0,.86-4.6,51.57,51.57,0,0,0,.25-9.21c-.06-.82,0-.49-.07-1a69.31,69.31,0,0,0-1-10.36c-.27-1.48-.56-3-.94-4.41L956.93,79h0a83.38,83.38,0,0,1,4.47,20.19A44.66,44.66,0,0,1,961.5,105.18Zm22.22-15.32c.47,1.81.29,1,.58,2.27-.42,1.82-.25,1-.52,2.46-.06.37-.13.75-.18,1.13l-.11.87c-1.34-1.58-.54-.65-2.39-2.78C982,92.51,982.91,91.2,983.72,89.86ZM979.48,96q2,3.17,3.68,6.43l0,.5c-1.31-2.27-2.6-4.56-3.71-6.92Zm-9.82-10c-.59-1-.26-.45-1-1.65a46.24,46.24,0,0,0-3.38-10.09c3.63-1.9,2-1,4.94-2.56q2.79-1.39,5.6-2.76l.68,1.44A104.66,104.66,0,0,0,969.66,86Zm10,28a99.58,99.58,0,0,0-3.49-13.93c.81-.92,1.64-1.83,2.36-2.8a46.23,46.23,0,0,0,5.2,11.48c.19,1.32.45,2.62.76,3.93C981.75,113.5,983.36,113.05,979.63,114Zm13-4.59a38.34,38.34,0,0,0,.92-4.09c.2.33.42.65.63,1,.25,1.65.13,1,.34,2.06C993.85,108.74,993.24,109.12,992.58,109.44Zm13.24-17.6-.21.74c-.08-1.26-.15-2.52-.29-3.78,0,0-.13-.85-.21-.79s-.23.86-.26,1c-.13.84-.24,1.69-.36,2.54-.36,2.56-.18,1.32-.55,3.72a67.25,67.25,0,0,0-5.2,9,48.19,48.19,0,0,1-1-6.83c-.11-1.36-.21-2.72-.21-4.08l.18-.4a143.92,143.92,0,0,1,8.42-15.32c.17,2,.25,2.69.32,4.68A48.56,48.56,0,0,1,1005.82,91.84Zm3.78-19.66v0Zm17.45,4.59a55.1,55.1,0,0,1-.88,6.37,93.48,93.48,0,0,0-6.48,9.86c.29-.91.6-1.8.87-2.71a57.67,57.67,0,0,0,2-9.5c2-1.81,1.11-1,2.59-2.35s1-.86,1.93-1.67ZM1054.67,62c3.13-2.74,1.41-1.26,5.16-4.45.36,1.29.11.39.73,2.7a113.79,113.79,0,0,1,3.21,17.09,77.76,77.76,0,0,0-12.82-12C1053.77,62.78,1052.53,63.9,1054.67,62Zm-21.61-7.15c1.84,1.53,3.69,3.06,5.51,4.63,2.13,1.84,4.26,3.7,6.31,5.61a95.84,95.84,0,0,0-10.05,8.34,97.32,97.32,0,0,0-2.51-19.18Zm-2.53,56.44.17-.7.35.58Zm13.25-9.61a61.78,61.78,0,0,1,.35-10c.23-2.14.54-4.27.89-6.4.11-.64.22-1.28.32-1.92,0-.14.18-.86.08-1s-.3.49-.3.5c-.4.9-.72,1.84-1.08,2.75a51,51,0,0,0-2.52,9c-.22,1.36-.31,1.78-.46,3.38a42.13,42.13,0,0,0,0,7.45c-2.16,2-4.34,3.92-6.61,5.8a46.45,46.45,0,0,1-2.91-4.26,151.64,151.64,0,0,0,3.24-23.76A100.91,100.91,0,0,1,1048,68.09c5.25,5.23,10.15,10.8,13.59,17-2.48,2.61-.87.93-4.85,5-.57-1.17-.18-.37-1.14-2.42-.18-.39-1.28-3.15-1.67-3.31-.1,0,0,.81,0,.82.27,1.4.65,2.78,1,4.17.49,1.76.29,1.09.57,2-3.81,3.84-7.64,7.68-11.66,11.37C1043.85,102.43,1043.8,102.05,1043.78,101.66Zm8,6.94c1-1.39,1.85-2.81,2.71-4.25,1.15-2,2.28-3.93,3.28-5.95.5,1.3,1,2.59,1.59,3.86A25.25,25.25,0,0,1,1051.82,108.6Zm9.49-9.56c-.69-1.24-1.36-2.49-2-3.75a60.9,60.9,0,0,0,3.18-8.53c.5,1,1,2,1.4,3A28.26,28.26,0,0,1,1061.31,99Zm81.36-27.65-.87.36a84.62,84.62,0,0,0-10.74-8.3c-1.23-.8-.6-.4-1.88-1.2,1.12-1.92,2.23-3.84,3.37-5.76A146,146,0,0,1,1142.67,71.39Zm-.89,16a63.31,63.31,0,0,0-9-5.17c2.5-1.74,1.29-.92,3.59-2.44C1138.22,82.32,1140.08,84.84,1141.78,87.41Zm-35-59.93c8.94,9.13,17.65,18.38,25,28.06l-2.22,2.56c-1.39,1.61-.56.64-2.46,2.91a69.72,69.72,0,0,0-10.06-5A111.16,111.16,0,0,0,1106.77,27.48Zm12.34,43.59a100.41,100.41,0,0,0-1.76-13.64q3.45,3.7,6.76,7.47c-1.65,2.2-3.27,4.41-4.66,6.69Zm4.58,7.59c-1.28-2.25-.72-1.29-1.67-2.9,1.33-2.81,2.74-5.59,4.27-8.36,2.37,2.72,4.65,5.51,6.9,8.31-2.4,1.22-4.74,2.48-7,3.82C1124.45,78.9,1125.31,79.19,1123.69,78.66ZM1139,118.82l-3,.25,0-.31c0-.57.08-1.14.09-1.72l.13-.62c.22-1.13.43-2.26.56-3.4,1.6,1,3.18,2,4.72,3C1140,117.59,1140.88,116.67,1139,118.82Zm6.54-8.83a52.67,52.67,0,0,0-8.25-4.52c0-1.61,0-3.23-.11-4.85-.08-1.21-.12-2.43-.25-3.64,0,0-.1-.74-.17-.69a3.73,3.73,0,0,0-.25,1.22c-.11.8-.21,1.61-.31,2.41-.4,2.94-.17,1.34-.69,4.8l-1-.39a74.54,74.54,0,0,0-5.13-14.41,98.75,98.75,0,0,1,19.18,13.63A61.43,61.43,0,0,0,1145.51,110Zm5.56-4c.36.35.08.07.82.84-.56.4-1.11.79-1.64,1.2C1150.74,106.8,1150.47,107.48,1151.07,106Zm2.28,9.65-.57.27c-1.31-1.27-.66-.66-2-1.84,1.07-1.11,2.17-2.19,3.35-3.2l.13.36A29.69,29.69,0,0,1,1153.35,115.66Zm9.26-6.86c-.22-1.26-.44-2.53-.74-3.78l1.43-1h0c.77,2.58.44,1.42,1,3.46-1.21,1.23-.66.69-1.65,1.63Zm-.78-7.82c.06-.74,0-.36.07-1.14l.33,1Zm1.88,15.79-.33-1,1.1-.81A17.65,17.65,0,0,1,1163.71,116.77Zm-2.3-30.31.15-.29s.22-.35.11-.41a.61.61,0,0,0-.2.15l-.22.22c-.11-.81,0-.27-.26-1.62a64.43,64.43,0,0,0-5.06-16.11l1.48-.78a112.07,112.07,0,0,1,7.88,23.92A51.44,51.44,0,0,0,1161.41,86.46Zm12,23.66c-.47-.85-.21-.38-.79-1.41l0-.22c.8-.69.11-.09,2-1.83C1173.77,109,1174.17,107.82,1173.41,110.12Zm1.15-17.21a43.87,43.87,0,0,0-.44-5.61c-.16-1-.09-.67-.16-1,1.72,3.46,1.1,2.16,1.92,3.89C1175,92.07,1175.44,91.15,1174.56,92.91Zm10.28,23.36-2,.07c.63-1,1.23-2,1.79-2.94.37,1.56.22.91.45,1.95C1185,115.66,1184.9,116,1184.84,116.27Zm4.47-13.45c.45-1.42.92-2.84,1.25-4.27a51.19,51.19,0,0,1,.72,9.56A42.83,42.83,0,0,0,1189.31,102.82Zm13,10.68c-.44.8-.28.52-.46.82,0-.74,0-.13-.14-1.82,0,0-.11-.74-.17-.69s-.18.74-.2.88c-.11.72-.2,1.45-.29,2.18,0,.32-.09.65-.13,1l0,0c-3.71.06-2,0-5.22.1a129.1,129.1,0,0,1,6.63-13c.13,1.7.2,2.31.25,4A46.15,46.15,0,0,1,1202.33,113.5Zm2.79-15.28v0Zm21.48-12.34,1.53,1.4c1.69,1.59,3.38,3.18,5,4.83a77.73,77.73,0,0,0-8,7.16c-.09-2.19-.17-4.38-.44-6.56A54.57,54.57,0,0,0,1226.6,85.88Zm14.38,24a3.11,3.11,0,0,0-.62-1.1c-.08,0,0,.69,0,.7l.15.78c-2.19,1.85-4.37,3.71-6.66,5.51h-1.41c0-.26,0-.51.07-.77.19-1.84.44-3.67.72-5.5.08-.55.17-1.1.25-1.65,0-.12.14-.74.06-.84s-.24.42-.24.42c-.32.78-.57,1.58-.86,2.37a48.11,48.11,0,0,0-1.66,6l-6.36,0c.31-2.67.58-5.34.65-8a85.2,85.2,0,0,1,10.55-13,73.13,73.13,0,0,1,9.18,11.76C1243.18,108,1244.44,106.83,1241,109.85Zm-3-17.5c2.24-2.22,1.25-1.25,3-2.9,2.49-2.36,1.13-1.08,4.1-3.82h0c.29,1.1.09.33.58,2.31a105,105,0,0,1,2.55,14.69A63.84,63.84,0,0,0,1238,92.35ZM1259.42,114c-.12,1.52-.08.81-.13,2.13l-3-.06c-.61-1.33-1.25-2.65-2-4a87.51,87.51,0,0,0,5.21-7.75c1.35-2.29,2.66-4.6,3.77-6.94-.17.48,0,.13-.38,1.06a71.12,71.12,0,0,0-2.92,11.26C1259.68,111.43,1259.59,112,1259.42,114Zm42.41,3.52c-.47-1.36-1-2.7-1.61-4,2.23,1.37,4.42,2.76,6.43,4.25Zm15.8.72a51.72,51.72,0,0,0-21.91-14.44c-1.15-2.2-2.32-4.4-3.63-6.52a99.44,99.44,0,0,0-9.8-37.45c16.5,18.22,31.71,37.47,36.82,58.48Zm25.68,1.37c1.21-1.71.69-.94,1.59-2.29s1.67-2.57,2.41-3.9c.44,1.81.87,3.63,1.19,5.46.15.87.09.52.17,1ZM1456.14,86c.51,1.85,1,3.72,1.33,5.6-.82-1.08-1.66-2.16-2.57-3.19.84-1.57.45-.81,1.18-2.27Zm-.13-.46a21.06,21.06,0,0,0-1.75,2.15,54.63,54.63,0,0,0-4.58-4.55c1.36-1.41,2.76-2.79,4.26-4.08C1454.68,81.23,1455.45,83.38,1456,85.57Zm-5.31-14.36h0c1,2.15.65,1.39,1,2.26-2.14,1.53-1.23.86-2.76,2C1449.5,74,1450.06,72.61,1450.7,71.21Zm-32.27-47.49c3,3.46,5.93,7,8.78,10.59a121,121,0,0,0-19.49,12.1A196.17,196.17,0,0,1,1418.43,23.72Zm1.8,78.5c-.65,1-1.36,2-2.1,2.92-6.85-5-12.65-11.37-15.35-19.08a43,43,0,0,1-.93-19.24,270.24,270.24,0,0,1,26.69,13.08C1426.94,87.62,1424.5,95.36,1420.23,102.22Zm10.71-8.64c-1.16,1.44-2.24,2.94-3.3,4.45a73.22,73.22,0,0,0,3.41-11.89c.28-1.44.54-2.88.71-4.33,2,1.22,4.06,2.49,6,3.82C1435.35,88.18,1433.12,90.86,1430.94,93.58Zm1.46-21.38c0-2.06,0-4.13-.14-6.18-.1-1.55-.16-3.1-.32-4.64,0,0-.13-.94-.22-.87s-.28,1.32-.32,1.54c-.14,1-.26,2-.39,3.08-.5,3.74-.22,1.7-.88,6.11a78.49,78.49,0,0,0-15.52-4.49,76.22,76.22,0,0,0-12.44-1.33c7.74-10.26,18-18.71,29.06-25.91a181.26,181.26,0,0,1,17.25,27.09A87.1,87.1,0,0,0,1442.9,78,67.08,67.08,0,0,0,1432.4,72.2Zm12.14,24.88a30.35,30.35,0,0,1,.22-6.32h0c1.44,1.13,2.82,2.31,4.17,3.52l-1,1.15c-1,1.21-2.1,2.42-3.19,3.6A19.07,19.07,0,0,1,1444.54,97.08Zm12.4,13.44c-1.48.75-3,1.5-4.52,2.11a25.38,25.38,0,0,1-6.76-9.73,83.13,83.13,0,0,0,4.94-7.08,71.52,71.52,0,0,1,7.49,8.2A35.29,35.29,0,0,1,1456.94,110.52Zm1.42-54.35.42-.71c1.16,1.83,2.34,3.66,3.46,5.52.68,1.75,1.36,3.49,2,5.26-.67.31-.11.05-1.66.81A73.23,73.23,0,0,0,1458.36,56.17Zm4.91,57.33.11-.07v0Zm4.14-1.77-.32-1,1.1-.89A18.1,18.1,0,0,1,1467.41,111.73Zm2.77-12.67a55.61,55.61,0,0,1-5.25,5.73c-.11-.26-.21-.53-.32-.79a41.13,41.13,0,0,0,.86-5,59.44,59.44,0,0,0,.25-10.07c0-.9,0-.53-.07-1.11a79.86,79.86,0,0,0-1-11.34c-.27-1.62-.56-3.23-.94-4.82l1.82-1.23h0a97.56,97.56,0,0,1,4.53,22.09A57.76,57.76,0,0,1,1470.18,99.06Zm22.46-16.77c.48,2,.29,1.15.58,2.49-.41,2-.25,1.09-.52,2.68-.06.41-.13.83-.18,1.24l-.11,1c-1.35-1.73-.55-.71-2.42-3C1490.92,85.2,1491.82,83.76,1492.64,82.29ZM1488.35,89c1.34,2.31,2.58,4.65,3.73,7v.54c-1.32-2.49-2.62-5-3.75-7.56Zm-10.94-12.72a52.8,52.8,0,0,0-3.41-11c3.67-2.07,2-1.14,5-2.8,1.88-1,3.77-2,5.67-3l.68,1.58a119.86,119.86,0,0,0-6.92,17.09C1477.83,77,1478.16,77.63,1477.41,76.31Zm11.09,32.42A112.92,112.92,0,0,0,1485,93.49c.83-1,1.66-2,2.39-3.06a52.84,52.84,0,0,0,5.26,12.56c.19,1.44.46,2.87.77,4.29C1490.65,108.16,1492.28,107.66,1488.5,108.73Zm13.1-5a42.72,42.72,0,0,0,.93-4.47c.2.36.43.7.63,1.06.26,1.81.13,1.06.35,2.25C1502.88,103,1502.26,103.36,1501.6,103.71ZM1515,84.46l-.21.81c-.08-1.38-.15-2.76-.29-4.13,0,0-.13-.94-.22-.87s-.23.94-.25,1.11c-.14.92-.25,1.85-.37,2.78-.37,2.81-.18,1.45-.55,4.07a74.86,74.86,0,0,0-5.27,9.87,57.4,57.4,0,0,1-1.06-7.47c-.1-1.49-.21-3-.21-4.46l.19-.44A160,160,0,0,1,1515.25,69c.17,2.18.25,3,.32,5.13A57.14,57.14,0,0,1,1515,84.46ZM1518.8,63v0Zm16.76,12A102.53,102.53,0,0,0,1529,85.72c.29-1,.61-2,.88-3a69.51,69.51,0,0,0,2-10.39c2-2,1.12-1.12,2.62-2.57s1-.94,1.94-1.83h0A63.21,63.21,0,0,1,1535.56,74.94ZM1555,74.1c0-.06-.3.53-.3.54-.35.9-.68,1.81-1,2.72-2.37,1-4.64,2.14-6.85,3.31a98.41,98.41,0,0,1,8.46-12.49c2.38,1.9,4.68,3.86,6.93,5.83-2.59.91-5.15,1.87-7.6,2.94.17-1.08.08-.49.27-1.78C1555,75,1555.12,74.23,1555,74.1Zm-10.84,2.14.06-1.23a92.48,92.48,0,0,1,7.34-9.82l1.56,1.23A71.78,71.78,0,0,0,1544.18,76.24Zm16-10.84c-1.23-.56-.6-.28-1.89-.84l2.37-2.83c1.84,2.16,3.68,4.32,5.28,6.55C1564,67.27,1562.14,66.29,1560.13,65.4Zm-2.46-6.92c1.36,1.48.67.71,2.08,2.3l-1.08.87c-1.4,1.13-.57.45-2.48,2.05-1.74-.71-.91-.39-2.47-1C1555,61.3,1556.3,59.88,1557.67,58.48ZM1542.53,44c1.86,1.68,3.73,3.36,5.56,5.06,2.16,2,4.31,4,6.39,6.15-2.26,1.82-4.5,3.66-6.57,5.58-2.36-.7-1.22-.39-3.38-.95h0c2.28,1.71,1.47,1.09,2.45,1.84-.92.87-1.82,1.75-2.65,2.65a115.1,115.1,0,0,0-2.55-21Zm2.06,61.06a16,16,0,0,1-1.61-2.52,16,16,0,0,1-1.25-5.78l.78-4.74c2.66.82,5.32,1.63,7.94,2.5,0,.59,0,1.18,0,1.77,0,1.48.07,1.81.16,3.06C1548.63,101.24,1546.67,103.16,1544.59,105Zm6.48-17.57c-.22,1.49-.31,2-.45,3.71l0,.5c-2.63-.27-5.27-.51-7.93-.52l0-.16a64.23,64.23,0,0,1,9.07-6.84C1551.21,86.63,1551.42,85.53,1551.07,87.46Zm2.39,9c-.06-.76,0-.42-.08-1l.81.27Zm8.75,5.87-.72.45c1-1.52.49-.76,1.38-2.27C1562.44,101.79,1562.66,101.18,1562.21,102.34Zm-5-9.7c-1.28-.26-2.6-.46-3.92-.63a74,74,0,0,1,.42-7.73l.15-1.42a108.82,108.82,0,0,1,9.9-5.22c.27,1.4.6,2.79.91,4.18.49,1.93.29,1.19.58,2.21C1562.61,86.91,1560,89.8,1557.22,92.64Zm7.07-15.24,1.15-.53c1.14,1.06,2.28,2.12,3.36,3.21-.76.85-1.53,1.7-2.29,2.56-.58-1.29-.18-.41-1.16-2.66C1565,79.12,1564.7,78.25,1564.29,77.4Zm2.07,17.47v-.81c.68-1.32.28-.52,1.18-2.43.49,1.39,1,2.78,1.57,4.16C1567.1,95.09,1568,95.39,1566.36,94.87Zm4.72-2.54c-.69-1.35-1.37-2.72-2-4.09,1.36-3.44.63-1.53,2.16-5.72,1.16,1.21.45.46,2.09,2.24A28.37,28.37,0,0,1,1571.08,92.33Zm-7.43-34.27c0-.08.08-.11.06-.2l0,0-.18.08c-.92-.83-1.9-1.63-2.88-2.43,2.85-2.81,1.6-1.59,3.76-3.68,3.17-3,1.43-1.38,5.22-4.87.37,1.4.12.42.74,3a133.56,133.56,0,0,1,3.24,18.69A80.53,80.53,0,0,0,1563.65,58.06Zm24,29.28c-.5-.81-.23-.38-.83-1.29l.32-.39.55.6Zm.9-9.73c-.11.72-.22,1.43-.32,2.14a42.38,42.38,0,0,0-6.9-4.16h0c2,2.76,4,5.54,5.74,8.38h0c-.94-.72-1.91-1.42-2.89-2.11,0,0-.74-.47-.76-.4-.09.25,1.51,1.77,1.73,2l1.1,1.18-.25.21a50.69,50.69,0,0,0-6-6.7c-.59-1-.28-.5-.92-1.57-.21-3.09-.07-1.34-.48-5.24,1.68-.66.69-.28,3-1.15,2.59-1,5.21-1.95,7.83-2.91.61-.22,1.24-.42,1.83-.65A82,82,0,0,0,1588.6,77.61Zm6.57,26.8c-.46-1.09-.88-2.19-1.23-3.32a43.59,43.59,0,0,1-1.52-7.15l.13-.06h0a43.45,43.45,0,0,1,3.31,10.25Zm12.45-14.9a57.44,57.44,0,0,0-6.14,6.27,24.9,24.9,0,0,0-2.27-4.72c2.9-1.14,1.59-.63,4-1.54,1.48-.56,3-1.12,4.47-1.66l.54.87Zm13.63-16.62-.12-.59.2.1Zm42.19,15.79.35.55-.74.37-.31-.37Zm-46.39-74.62c14.55,16.13,28.37,32.67,37.56,50.39l-1.5.44a89.25,89.25,0,0,0-10.8-5.83l-.22-.1a10.39,10.39,0,0,0-.74-.93.47.47,0,0,0-.25-.2l0,0c-.14.15.08.55.13.69v0l-.79-.35c2.89-3.46,1.61-1.94,3.85-4.58.48-.57,1-1.14,1.42-1.73,0-.06.32-.36.16-.42a.93.93,0,0,0-.3.15c-.68.44-1.28.94-1.89,1.42-1,.74-1.88,1.5-2.82,2.25-1.39,1.13-.56.45-2.47,2a81.39,81.39,0,0,0-9.52-3.31A129.31,129.31,0,0,0,1617.05,14.06Zm12.48,47.68c-.14-2.19-.29-4.38-.56-6.56,5,3.78,2.85,2.14,6.35,4.9-1.48,1.39-3,2.78-4.26,4.24C1630,62.41,1630.46,63.27,1629.53,61.74Zm8.94,6.83a23.23,23.23,0,0,0-2.7-3.52c.1,3.87.07,2,.1,5.61-.94-.36-.37-.15-1.71-.62l-1.11-2.1c1.41-2.06,2.87-4.1,4.47-6.1,2.38,1.9,4.67,3.86,6.93,5.83-1.79.63-3.56,1.27-5.28,2C1638.94,69.26,1639.16,69.62,1638.47,68.57Zm7,24.31-.28.13c0-.27,0-.16,0-.34l.28.11Zm1.28-4.87-1.48-.41h0a14.56,14.56,0,0,0-.19-1.94c1.26.86.63.42,1.91,1.32C1646.9,87.32,1646.83,87.66,1646.75,88ZM1642,73.27c1.8-.94.55-.3,3.82-1.88.5,1.53.89,3.07,1.24,4.62C1645.39,75.05,1643.73,74.11,1642,73.27Zm5.88,23.12-.58.59.23-.77a22.18,22.18,0,0,0,.56-2.38l.28.12A20.8,20.8,0,0,1,1647.83,96.39Zm.71-7.86v-.42l.18.13v.35Zm2.1-15.13c2.36,2.34,4.66,4.7,6.72,7.15l-1.27-.57-3-1.33-.49-.2C1652,76.76,1651.38,75.07,1650.64,73.4Zm9.07,31.92c-.08.74,0,.38-.09,1.1a7.9,7.9,0,0,1-.6-1l.77-.71C1659.76,104.93,1659.74,105.12,1659.71,105.32Zm.89-3.81c-1.43,1.15-.67.55-2.29,1.81a9.33,9.33,0,0,1-.18-1.08,11.31,11.31,0,0,1,.18-3.48c.91.51,1.83,1,2.7,1.57C1660.83,100.77,1661,100.38,1660.6,101.51Zm-.25-14.94a58.26,58.26,0,0,0-7.29-6.49l-.33-1.11h0l.6.36c1.47.92,2.94,1.85,4.39,2.79s.86.55,2,1.31c1.06,1.37.55.69,1.53,2C1660.53,86.33,1660.82,86,1660.35,86.57Zm4.72,19.46c-2.3,1.66-1.27.92-3.11,2.21,0-.23-.06-.46-.08-.7a26.56,26.56,0,0,1,.16-5l.88-1,.76.52c1.15,1.36.62.71,1.62,2C1665.19,105.24,1665.26,104.57,1665.07,106Zm7.39-31.12-1-.78h0a73.22,73.22,0,0,0-3.34-11.89l1.58-.59a137.81,137.81,0,0,1,4.87,15c-.55-.51-1.15-1-1.75-1.49l.16-.2s.22-.25.11-.29a.61.61,0,0,0-.21.11l-.29.2Zm.2,8.45c.76,1.41.43.77,1,1.89l-.87.3C1672.7,83.77,1672.75,84.5,1672.66,83.36Zm.62,4.86,1.44-.68h0c1,2.35.45,1,1.64,4.1-.86-.72-1.75-1.42-2.69-2.09A12.68,12.68,0,0,0,1673.28,88.22Zm1.58,9.51-.06-.61c0-1,0-.53-.07-1.29.5.57,1,1.16,1.4,1.76l-1.22,1C1674.9,98.19,1674.91,98.47,1674.86,97.73Zm.88,3.28a17.46,17.46,0,0,0,1.08-2.44l.43.65C1676.44,100.21,1676.94,99.61,1675.74,101Zm9.85-15.38c0-.84-.06-1.67-.1-2.51l1.47-.55C1686.55,83.6,1686.07,84.61,1685.59,85.63Zm1.82-4.17c-1.67.39-1,.23-2,.48-.06-.82-.16-1.63-.27-2.45a58.39,58.39,0,0,0-1.36-6.72c1.56,2.12,3.1,4.24,4.52,6.4C1687.85,80.43,1688.13,79.66,1687.41,81.46Zm2.2-6.06a42.08,42.08,0,0,0-6.12-3.69,53.33,53.33,0,0,0-3.27-8.63c2,1.28,4,2.55,6,3.84,3.07,2,1.42.91,5,3.3C1690.32,73.25,1690.85,71.52,1689.61,75.4Zm6.5,18.69c.38,1.1.23.64.46,1.37-.33,1.1-.19.6-.41,1.48-.05.23-.1.46-.14.68l-.09.53c-1.07-1-.43-.39-1.91-1.67C1694.75,95.69,1695.46,94.9,1696.11,94.09Zm-3.38,3.72c1,1.27,2,2.56,2.94,3.87v.3c-1-1.37-2.07-2.75-3-4.16Zm.41,10.79a17.83,17.83,0,0,1-.57-2.54,30.38,30.38,0,0,1-.24-6.6,25.2,25.2,0,0,0,3.77,6,19.62,19.62,0,0,0,.61,2.37C1695.52,108.12,1694.34,108.38,1693.14,108.6Zm15.43-50.08c.32.95.14.44.56,1.55l-.83-.22Zm-.29,1.41c.37.27.75.55,1.11.83.71,1.84.44,1.13.82,2.13-.61.45-.34.24-.83.62l-2.48,2A52.3,52.3,0,0,0,1708.28,59.93Zm4.42,35.19c-.29,1.55-.15.8-.44,2.24-1,1.14-2,2.28-2.82,3.46a50.36,50.36,0,0,0,.93-7.51l2.51.8C1712.78,94.61,1712.85,94.27,1712.7,95.12ZM1710.29,86c.76.88.41.46,1,1.24-.43.38-.12.1-.91.84C1710.41,87.39,1710.35,86.69,1710.29,86Zm3.47,9.29-.17.45c-.11-1.24,0-.76-.13-1.45l.46.16A5.82,5.82,0,0,1,1713.76,95.29Zm.45-3.62c-1.25-.13-2.5-.27-3.76-.34v-.06c1.19-1.63.52-.74,2-2.65,1,1.25.66.83,1.75,2.37Zm-2.92-19c-.49-.72-1-1.44-1.49-2.15a7.9,7.9,0,0,0-.63-.8.3.3,0,0,0-.17-.14h0c-.09.1.06.38.09.47.12.38.27.75.41,1.12.42,1.09.84,2.18,1.24,3.27.66,1.85,1.31,3.7,1.81,5.57-1.18-.94-2.38-1.87-3.68-2.75a49.33,49.33,0,0,0-3-8.44l0-.09c2.3-2.76,1.13-1.36,3.53-4.19.74-.88.43-.5,1-1.14,1.14,3.06.64,1.66,1.53,4.21a87,87,0,0,1,3.19,11.64A46.84,46.84,0,0,0,1711.29,72.65Zm6.6.45a56.06,56.06,0,0,0-5.72-10.25c4.1,3.18,2.13,1.64,5.9,4.63C1718.08,69.35,1718,71.23,1717.89,73.1Zm27,6.06-.15.09c-.62-.61-.38-.4-.67-.66ZM1733.52,107l0,0,.12-.37.28.35Zm3.08,0a30.9,30.9,0,0,1-2.33-2.57c.48-1.81.33-1.18.49-1.86q2.49,1.17,4.83,2.48C1737.5,106.4,1738.5,105.75,1736.6,107Zm5.65-10a19.41,19.41,0,0,0-.36,2c-.07.68-.05.38-.08.91A45.34,45.34,0,0,0,1736,97a51.38,51.38,0,0,0,.9-7c.8-.85,1.61-1.7,2.5-2.51q2.27,2.72,4.19,5.54A23.06,23.06,0,0,0,1742.25,96.94Zm2.33,4.65-.51-.34v0a28.17,28.17,0,0,1,.28-6l.11-.7a44.44,44.44,0,0,1,2.94,5.1C1745.09,101.24,1746,100.58,1744.58,101.59Zm10-7.4a38.2,38.2,0,0,0-7.7-12.77l.6-.44c.91.69,1.83,1.38,2.7,2.1a80.08,80.08,0,0,1,5.67,10.12Zm1.52,6.81,0-.26.1.19Zm1.74-1.7c-.85-1.17-.39-.53-1.36-1.93l.66-1.18c.71,1.76.36.83,1,2.77Zm-.3-14.84a43.71,43.71,0,0,0-3.63-3.21c-1.08-.84-2.14-1.68-3.34-2.45.73-.5,1.46-1,2.2-1.5,2.5-1.66,1.13-.76,4.13-2.68.29.77.09.23.58,1.62a54.06,54.06,0,0,1,2.56,10.3C1759.21,85.83,1758.4,85.13,1757.52,84.46Zm19.55,21.82a19,19,0,0,1-1-1.83,15.17,15.17,0,0,1-.62-1.66c.72-.78,1.43-1.56,2.07-2.36.44,1.27.87,2.55,1.18,3.83s.2.73.33,1.41C1777.87,106.06,1778.52,105.85,1777.07,106.28Zm15.9-8.21a26.83,26.83,0,0,1-7.12,4.9,21.77,21.77,0,0,0-3.54-10,31.66,31.66,0,0,0,2.45-20.7,59,59,0,0,1,12.11,13.08,75.52,75.52,0,0,0-11.27-.56h0c4.07,1.23,8.14,2.47,12.13,3.81A19.65,19.65,0,0,1,1793,98.07Zm26.8,14.11c-1.65.1-.91.07-2.2.11,0-.26.08-.52.1-.78a16,16,0,0,0,.08-2,.31.31,0,0,0,0-.08,1,1,0,0,0,0-.34,33.63,33.63,0,0,0-5.36-14.94c6.83,2.91,13.2,6.3,18.27,10.45Q1825.42,108.5,1819.77,112.18ZM1808.88,87.6a37.89,37.89,0,0,0-3.37-12.87,44.66,44.66,0,0,0-3.42-6.16,24,24,0,0,0-2.71-3.52v.17a64.08,64.08,0,0,0-5-8.71C1810.64,69,1826.9,83,1832,99.24,1826.19,94,1818.17,90,1808.88,87.6Zm27,24,.78-.39a10.85,10.85,0,0,1,.75,2,16.5,16.5,0,0,1-3.09,2.22C1834.87,114.18,1835.37,112.91,1835.84,111.63Zm1.43,6.52-.5,0,.67-.65A2.83,2.83,0,0,1,1837.27,118.15Zm2.54-7.84-.26-.58.87-.48h0A10.22,10.22,0,0,1,1839.81,110.31Zm17.28,5.19a15.52,15.52,0,0,1-1.71,1.33l-13.34,1a34.13,34.13,0,0,0-1-4.14,36.08,36.08,0,0,0,5.19-7.92,60.4,60.4,0,0,0,11.07-8.92c.85-.9,1.68-1.8,2.43-2.74.44,1.27.87,2.55,1.18,3.83C1862.41,103.73,1862.67,110.49,1857.09,115.5Z"/></g></g></svg>