<svg xmlns="http://www.w3.org/2000/svg" xmlns:xlink="http://www.w3.org/1999/xlink" viewBox="0 0 880.67 388.51"><defs><style>.cls-1{fill:url(#linear-gradient);}.cls-2{fill:url(#linear-gradient-2);}.cls-3{fill:url(#linear-gradient-3);}.cls-4{fill:url(#linear-gradient-4);}.cls-5{fill:url(#linear-gradient-5);}.cls-6{fill:url(#linear-gradient-6);}.cls-7{fill:url(#linear-gradient-7);}.cls-8{fill:url(#linear-gradient-8);}.cls-9{fill:url(#linear-gradient-9);}.cls-10{fill:url(#linear-gradient-10);}.cls-11{fill:url(#linear-gradient-11);}.cls-12{fill:url(#linear-gradient-12);}.cls-13{fill:url(#linear-gradient-13);}.cls-14{fill:url(#linear-gradient-14);}.cls-15{fill:url(#linear-gradient-15);}.cls-16{fill:url(#linear-gradient-16);}.cls-17{fill:url(#linear-gradient-17);}.cls-18{fill:url(#linear-gradient-18);}.cls-19{fill:url(#linear-gradient-19);}.cls-20{fill:url(#linear-gradient-20);}.cls-21{fill:url(#linear-gradient-21);}.cls-22{fill:url(#linear-gradient-22);}.cls-23{fill:url(#linear-gradient-23);}.cls-24{fill:url(#linear-gradient-24);}.cls-25{fill:url(#linear-gradient-25);}.cls-26{fill:url(#linear-gradient-26);}.cls-27{fill:url(#linear-gradient-27);}.cls-28{fill:url(#linear-gradient-28);}.cls-29{fill:url(#linear-gradient-29);}.cls-30{fill:url(#linear-gradient-30);}.cls-31{fill:url(#linear-gradient-31);}.cls-32{fill:url(#linear-gradient-32);}.cls-33{fill:url(#linear-gradient-33);}.cls-34{fill:url(#linear-gradient-34);}.cls-35{fill:url(#linear-gradient-35);}.cls-36{fill:url(#linear-gradient-36);}.cls-37{fill:url(#linear-gradient-37);}.cls-38{fill:url(#linear-gradient-38);}.cls-39{fill:url(#linear-gradient-39);}.cls-40{fill:url(#linear-gradient-40);}.cls-41{fill:url(#linear-gradient-41);}.cls-42{fill:url(#linear-gradient-42);}.cls-43{fill:url(#linear-gradient-43);}.cls-44{fill:url(#linear-gradient-44);}.cls-45{fill:url(#linear-gradient-45);}.cls-46{fill:url(#linear-gradient-46);}.cls-47{fill:url(#linear-gradient-47);}.cls-48{fill:url(#linear-gradient-48);}.cls-49{fill:url(#linear-gradient-49);}.cls-50{fill:url(#linear-gradient-50);}.cls-51{fill:url(#linear-gradient-51);}.cls-52{fill:url(#linear-gradient-52);}.cls-53{fill:url(#linear-gradient-53);}.cls-54{fill:url(#linear-gradient-54);}.cls-55{fill:url(#linear-gradient-55);}.cls-56{fill:url(#linear-gradient-56);}</style><linearGradient id="linear-gradient" x1="10224.38" y1="5226.98" x2="10224.77" y2="5226.8" gradientTransform="matrix(-0.6, -0.8, -0.8, 0.6, 11000.24, 5220.26)" gradientUnits="userSpaceOnUse"><stop offset="0.26" stop-color="#5b57de"/><stop offset="0.46" stop-color="#5651d9"/><stop offset="0.72" stop-color="#473fcc"/><stop offset="1" stop-color="#3125b8"/></linearGradient><linearGradient id="linear-gradient-2" x1="10132.09" y1="5174.2" x2="10255.64" y2="5116.42" xlink:href="#linear-gradient"/><linearGradient id="linear-gradient-3" x1="10507.61" y1="5026.62" x2="10841.07" y2="4870.67" gradientTransform="matrix(-0.6, -0.8, -0.8, 0.6, 11000.24, 5220.26)" gradientUnits="userSpaceOnUse"><stop offset="0.26" stop-color="#c75bff"/><stop offset="0.51" stop-color="#c15bfc"/><stop offset="0.84" stop-color="#af5af5"/><stop offset="1" stop-color="#a45af1"/></linearGradient><linearGradient id="linear-gradient-4" x1="6398.78" y1="297.55" x2="6399.17" y2="297.37" gradientTransform="translate(-3937.87 5220.26) rotate(-52.88)" xlink:href="#linear-gradient"/><linearGradient id="linear-gradient-5" x1="6306.49" y1="244.78" x2="6430.05" y2="186.99" gradientTransform="translate(-3937.87 5220.26) rotate(-52.88)" xlink:href="#linear-gradient"/><linearGradient id="linear-gradient-6" x1="6682.02" y1="97.19" x2="7015.48" y2="-58.76" gradientTransform="translate(-3937.87 5220.26) rotate(-52.88)" xlink:href="#linear-gradient-3"/><linearGradient id="linear-gradient-7" x1="10006.27" y1="7317.44" x2="10006.73" y2="7317.22" gradientTransform="matrix(-0.32, -0.95, -0.95, 0.32, 10814.56, 7409.08)" gradientUnits="userSpaceOnUse"><stop offset="0.26" stop-color="#5b57de"/><stop offset="0.41" stop-color="#6159e1"/><stop offset="0.61" stop-color="#735fe8"/><stop offset="0.84" stop-color="#9069f5"/><stop offset="1" stop-color="#a972ff"/></linearGradient><linearGradient id="linear-gradient-8" x1="9895.52" y1="7254.11" x2="10043.79" y2="7184.77" xlink:href="#linear-gradient-7"/><linearGradient id="linear-gradient-9" x1="10346.16" y1="7076.99" x2="10746.33" y2="6889.85" gradientTransform="matrix(-0.32, -0.95, -0.95, 0.32, 10814.56, 7409.08)" gradientUnits="userSpaceOnUse"><stop offset="0.26" stop-color="#6a45d1"/><stop offset="0.44" stop-color="#7047d4"/><stop offset="0.68" stop-color="#824ede"/><stop offset="0.96" stop-color="#9f58ee"/><stop offset="1" stop-color="#a45af1"/></linearGradient><linearGradient id="linear-gradient-10" x1="489.47" y1="244.4" x2="569.1" y2="244.4" gradientUnits="userSpaceOnUse"><stop offset="0.32" stop-color="#56b3ff"/><stop offset="0.41" stop-color="#56adfe"/><stop offset="0.54" stop-color="#569bfd"/><stop offset="0.68" stop-color="#567efa"/><stop offset="0.85" stop-color="#5555f7"/><stop offset="1" stop-color="#5528f3"/></linearGradient><linearGradient id="linear-gradient-11" x1="553.47" y1="154.2" x2="565.3" y2="154.2" xlink:href="#linear-gradient-10"/><linearGradient id="linear-gradient-12" x1="559.39" y1="147.46" x2="564.1" y2="147.46" xlink:href="#linear-gradient-10"/><linearGradient id="linear-gradient-13" x1="-1435.27" y1="2218.43" x2="-1423.44" y2="2218.43" gradientTransform="translate(2798.98 -1243.93) rotate(24.76)" xlink:href="#linear-gradient-10"/><linearGradient id="linear-gradient-14" x1="572.91" y1="166.74" x2="580.43" y2="166.74" xlink:href="#linear-gradient-10"/><linearGradient id="linear-gradient-15" x1="-2410.38" y1="6293.04" x2="-2398.55" y2="6293.04" gradientTransform="translate(7249.38 -727) rotate(61.18)" xlink:href="#linear-gradient-10"/><linearGradient id="linear-gradient-16" x1="578.58" y1="197.65" x2="588.24" y2="197.65" xlink:href="#linear-gradient-10"/><linearGradient id="linear-gradient-17" x1="-1612" y1="8961.06" x2="-1600.17" y2="8961.06" gradientTransform="matrix(0.09, 1, -1, 0.09, 9631.61, 1052.52)" xlink:href="#linear-gradient-10"/><linearGradient id="linear-gradient-18" x1="567.66" y1="226.61" x2="576.67" y2="226.61" xlink:href="#linear-gradient-10"/><linearGradient id="linear-gradient-19" x1="5972.89" y1="-840.26" x2="5984.73" y2="-840.26" gradientTransform="matrix(-0.94, 0.33, 0.33, 0.94, 6463.23, -988.3)" xlink:href="#linear-gradient-10"/><linearGradient id="linear-gradient-20" x1="538.89" y1="208.47" x2="545.89" y2="208.47" xlink:href="#linear-gradient-10"/><linearGradient id="linear-gradient-21" x1="4173.66" y1="-1076.74" x2="4185.5" y2="-1076.74" gradientTransform="matrix(-0.82, 0.57, 0.57, 0.82, 4602.99, -1304.42)" xlink:href="#linear-gradient-10"/><linearGradient id="linear-gradient-22" x1="546.38" y1="192.11" x2="554.85" y2="192.11" xlink:href="#linear-gradient-10"/><linearGradient id="linear-gradient-23" x1="2451.3" y1="-860.65" x2="2463.13" y2="-860.65" gradientTransform="matrix(-0.65, 0.76, 0.76, 0.65, 2802.14, -1137.66)" xlink:href="#linear-gradient-10"/><linearGradient id="linear-gradient-24" x1="540.94" y1="169.01" x2="550.32" y2="169.01" xlink:href="#linear-gradient-10"/><linearGradient id="linear-gradient-25" x1="-2282.42" y1="4613.11" x2="-2268.45" y2="4613.11" gradientTransform="translate(5459.36 -1284.22) rotate(46.39)" xlink:href="#linear-gradient-10"/><linearGradient id="linear-gradient-26" x1="551.92" y1="246.32" x2="562.82" y2="246.32" xlink:href="#linear-gradient-10"/><linearGradient id="linear-gradient-27" x1="-2363.29" y1="6074.4" x2="-2349.33" y2="6074.4" gradientTransform="matrix(0.52, 0.86, -0.86, 0.52, 6970.98, -847.42)" xlink:href="#linear-gradient-10"/><linearGradient id="linear-gradient-28" x1="555.64" y1="274.85" x2="567.02" y2="274.85" xlink:href="#linear-gradient-10"/><linearGradient id="linear-gradient-29" x1="-2348.32" y1="6096.19" x2="-2329.84" y2="6096.19" gradientTransform="matrix(0.52, 0.86, -0.86, 0.52, 6970.98, -847.42)" xlink:href="#linear-gradient-10"/><linearGradient id="linear-gradient-30" x1="546.69" y1="300.01" x2="561.74" y2="300.01" xlink:href="#linear-gradient-10"/><linearGradient id="linear-gradient-31" x1="7608.49" y1="-162.53" x2="7626.98" y2="-162.53" gradientTransform="matrix(-1, 0.1, 0.1, 1, 8118.43, -271.98)" xlink:href="#linear-gradient-10"/><linearGradient id="linear-gradient-32" x1="510.68" y1="281.27" x2="519.14" y2="281.27" xlink:href="#linear-gradient-10"/><linearGradient id="linear-gradient-33" x1="6022.5" y1="-815.5" x2="6037.79" y2="-815.5" gradientTransform="matrix(-0.94, 0.34, 0.34, 0.94, 6477.92, -1023.48)" xlink:href="#linear-gradient-10"/><linearGradient id="linear-gradient-34" x1="520.11" y1="254.52" x2="529.2" y2="254.52" xlink:href="#linear-gradient-10"/><linearGradient id="linear-gradient-35" x1="7193.48" y1="-416.77" x2="7208.78" y2="-416.77" gradientTransform="matrix(-0.99, 0.16, 0.16, 0.99, 7708.74, -505.67)" xlink:href="#linear-gradient-10"/><linearGradient id="linear-gradient-36" x1="525.14" y1="224.75" x2="532.72" y2="224.75" xlink:href="#linear-gradient-10"/><linearGradient id="linear-gradient-37" x1="5506.03" y1="-819.42" x2="5517.86" y2="-819.42" gradientTransform="translate(-2811.22 4596.4) rotate(-44.5)" xlink:href="#linear-gradient-10"/><linearGradient id="linear-gradient-38" x1="540.03" y1="142.36" x2="543.88" y2="142.36" xlink:href="#linear-gradient-10"/><linearGradient id="linear-gradient-39" x1="7810.91" y1="-537.31" x2="7811.07" y2="-537.31" gradientTransform="matrix(-1, -0.07, -0.07, 1, 8290.49, 1358.9)" gradientUnits="userSpaceOnUse"><stop offset="0" stop-color="#5727f9"/><stop offset="0.82" stop-color="#9855f7"/></linearGradient><linearGradient id="linear-gradient-40" x1="10322.71" y1="1913.52" x2="10120.31" y2="1913.52" gradientTransform="translate(-1720.47 10384.44) rotate(-87.95)" xlink:href="#linear-gradient-39"/><linearGradient id="linear-gradient-41" x1="10147.53" y1="1905.34" x2="10293.28" y2="1905.34" gradientTransform="translate(-1720.47 10384.44) rotate(-87.95)" gradientUnits="userSpaceOnUse"><stop offset="0" stop-color="#704fe4"/><stop offset="0.82" stop-color="#9855f7"/></linearGradient><linearGradient id="linear-gradient-42" x1="464.02" y1="64.84" x2="484.65" y2="64.84" gradientUnits="userSpaceOnUse"><stop offset="0.26" stop-color="#8b65f8"/><stop offset="0.37" stop-color="#866bf8"/><stop offset="0.52" stop-color="#797df9"/><stop offset="0.69" stop-color="#639afb"/><stop offset="0.89" stop-color="#45c3fd"/><stop offset="0.99" stop-color="#31ddff"/></linearGradient><linearGradient id="linear-gradient-43" x1="452.89" y1="132.61" x2="574.73" y2="132.61" xlink:href="#linear-gradient-42"/><linearGradient id="linear-gradient-44" x1="214.86" y1="213.91" x2="320.59" y2="213.91" gradientTransform="matrix(1, 0, 0, 1, 0, 0)" xlink:href="#linear-gradient"/><linearGradient id="linear-gradient-45" x1="293.03" y1="155.1" x2="310.93" y2="155.1" gradientTransform="matrix(1, 0, 0, 1, 0, 0)" xlink:href="#linear-gradient"/><linearGradient id="linear-gradient-46" x1="235.42" y1="214.63" x2="253.32" y2="214.63" gradientUnits="userSpaceOnUse"><stop offset="0" stop-color="#f38fd8"/><stop offset="0.82" stop-color="#a44eef"/></linearGradient><linearGradient id="linear-gradient-47" x1="225.77" y1="273.44" x2="331.49" y2="273.44" xlink:href="#linear-gradient-46"/><linearGradient id="linear-gradient-48" x1="704.13" y1="1.29" x2="595.44" y2="216.6" gradientUnits="userSpaceOnUse"><stop offset="0.32" stop-color="#1665c2"/><stop offset="0.49" stop-color="#145fc0"/><stop offset="0.73" stop-color="#0f4db9"/><stop offset="1" stop-color="#0730ae"/></linearGradient><linearGradient id="linear-gradient-49" x1="770.11" y1="34.59" x2="661.42" y2="249.9" xlink:href="#linear-gradient-48"/><linearGradient id="linear-gradient-50" x1="123.76" y1="313.44" x2="112.29" y2="124.5" xlink:href="#linear-gradient-42"/><linearGradient id="linear-gradient-51" x1="158.5" y1="311.33" x2="147.04" y2="122.39" xlink:href="#linear-gradient-42"/><linearGradient id="linear-gradient-52" x1="653.42" y1="351.94" x2="752.48" y2="231.78" xlink:href="#linear-gradient-42"/><linearGradient id="linear-gradient-53" x1="119.15" y1="189.41" x2="289.72" y2="189.41" gradientUnits="userSpaceOnUse"><stop offset="0.32" stop-color="#996cff"/><stop offset="0.46" stop-color="#9372ff"/><stop offset="0.66" stop-color="#8284ff"/><stop offset="0.88" stop-color="#67a1ff"/><stop offset="1" stop-color="#56b3ff"/></linearGradient><linearGradient id="linear-gradient-54" x1="193.11" y1="382.53" x2="67.91" y2="2.81" xlink:href="#linear-gradient-42"/><linearGradient id="linear-gradient-55" x1="674.14" y1="243.16" x2="717.94" y2="243.16" gradientUnits="userSpaceOnUse"><stop offset="0" stop-color="#6f39ff"/><stop offset="0.16" stop-color="#703eff"/><stop offset="0.36" stop-color="#724dff"/><stop offset="0.58" stop-color="#7666ff"/><stop offset="0.81" stop-color="#7b89ff"/><stop offset="0.96" stop-color="#7fa3ff"/></linearGradient><linearGradient id="linear-gradient-56" x1="53.86" y1="290.25" x2="120.65" y2="290.25" xlink:href="#linear-gradient-55"/></defs><g id="Layer_2" data-name="Layer 2"><g id="Layer_1-2" data-name="Layer 1"><path class="cls-1" d="M661.16,222l1.26-.71a.31.31,0,0,0-.07.09C662,221.57,661.57,221.78,661.16,222Z"/><path class="cls-2" d="M682.1,161.25c4.47.77,8.78,2.48,13.31,2.77a8.1,8.1,0,0,0,4.79-.88c2.87-1.79,3.11-5.77,4-9,2.75-10,13.38-15.3,22.91-19.4,2.65-1.13,5.62-2.29,8.32-1.3,3.93,1.44,5,6.36,5.74,10.49s2.47,9,6.61,9.68,7.34-3.64,8.28-7.68c1.07-4.58.54-9.41,1.58-14s4.52-9.26,9.22-9.18c5.59.09,8.68,6.3,10.75,11.5s5.94,11.23,11.46,10.37c3.13-.48,5.5-3.26,6.52-6.26s.92-6.26.93-9.43c0-1.74.08-3.64,1.21-5a6.47,6.47,0,0,1,4.31-1.85c9-1,18.29,5.49,20.39,14.33s-3.24,18.82-11.75,22c-3.23,1.2-7.62,2.52-7.53,6,.12,4.52,7.19,4.23,10.63,7.17,2.89,2.46,2.64,7.3.32,10.3s-6.11,4.47-9.81,5.29c-7.13,1.57-14.52,1.18-21.81,1.39a6.29,6.29,0,0,0-3.36.76c-1.62,1.08-1.9,3.36-1.6,5.28.68,4.34,3.41,8,5.44,11.92s3.34,8.74,1.17,12.55c-2.34,4.12-7.85,5.31-12.53,4.6s-9-2.84-13.69-3.71a5.91,5.91,0,0,0-4,.33c-1.84,1.1-2.15,3.59-2.25,5.73q-.81,17.31-1.64,34.62c-.07,1.6-.22,3.35-1.35,4.47a5.58,5.58,0,0,1-2,1.14c-7.83,2.82-16.77-.22-23.25-5.44s-11.07-12.35-15.9-19.13a18.72,18.72,0,0,0-4.68-5c-2.71-1.76-6.09-2-9.31-2.29q-10.51-.84-21-2.19c-3.61-.46-7.57-1.16-9.87-4a6.06,6.06,0,0,1-.26-6.77c.3-.17.58-.36.86-.55l-.79.46a3.46,3.46,0,0,1,2.15-1.48c4.84-4.18,6.87-11.47,6.53-18.07-.41-8-3.41-15.62-4.67-23.52-.8-4.93-.68-10.61,2.87-14.12C672.53,160.87,677.62,160.49,682.1,161.25Z"/><path class="cls-3" d="M685.28,192.69a22.12,22.12,0,0,1,7.52,17.05c7.37-3.39,14.94-6,22.55-8.77a.44.44,0,0,1,0-.16,216.86,216.86,0,0,1,3-23.84c.16-.86,1.51-.73,1.36.14a218.13,218.13,0,0,0-3,23.35l2.32-.86c8.92-3.33,16.94-8.38,24.88-13.54a.51.51,0,0,1,0-.17,91.82,91.82,0,0,1,6.74-20.15c.37-.79,1.65-.3,1.27.5A90.07,90.07,0,0,0,745.52,185l1.63-1.05q14.29-9.27,28.26-19c.72-.5,1.58.56.86,1.06q-9.57,6.68-19.31,13.11l5.18,3c1.64,1,5.69,4.21,7.61,3.26.79-.4,1.35.85.56,1.24-1.82.91-3.42-.15-5-1.09L755.7,180c-2.57,1.69-5.12,3.41-7.69,5.08-5.45,3.53-10.9,7.17-16.6,10.32l15.21,12.86c.67.57-.13,1.68-.8,1.11l-15.61-13.21s0-.05-.07-.07a85.07,85.07,0,0,1-8.64,4.07c-6.47,2.57-13,4.74-19.47,7.22a52.27,52.27,0,0,1,20.06,15.5.68.68,0,0,1-1.06.86,50.76,50.76,0,0,0-20.46-15.53.6.6,0,0,1-.24-.16c-2.92,1.15-5.81,2.38-8.66,3.76-9.85,4.77-19.3,10.33-28.73,15.88-.76.45-1.31-.8-.56-1.24,9.14-5.39,18.3-10.78,27.83-15.45l1.23-.58s0,0,0,0a20.68,20.68,0,0,0-6.95-16.54C683.82,193.22,684.62,192.11,685.28,192.69Z"/><path class="cls-4" d="M161.74,297.59l-1.26-.71.06.09C160.93,297.19,161.33,297.4,161.74,297.59Z"/><path class="cls-5" d="M140.8,236.88c-4.47.76-8.78,2.47-13.31,2.76a8,8,0,0,1-4.79-.88c-2.88-1.79-3.11-5.77-4-9-2.75-10-13.38-15.3-22.91-19.4-2.65-1.13-5.62-2.28-8.32-1.3-3.94,1.44-5,6.36-5.74,10.49s-2.47,9-6.61,9.68-7.34-3.64-8.29-7.68c-1.07-4.58-.53-9.41-1.57-14s-4.52-9.27-9.22-9.19c-5.59.09-8.68,6.31-10.75,11.5s-5.94,11.23-11.46,10.37c-3.13-.48-5.51-3.26-6.52-6.26s-.92-6.26-.93-9.42c0-1.75-.09-3.65-1.21-5a6.47,6.47,0,0,0-4.31-1.85c-9-1-18.29,5.5-20.39,14.33s3.24,18.82,11.75,22c3.23,1.19,7.62,2.51,7.53,6-.12,4.52-7.19,4.23-10.63,7.17-2.89,2.46-2.64,7.3-.32,10.3s6.1,4.48,9.81,5.29c7.13,1.57,14.52,1.18,21.81,1.39a6.31,6.31,0,0,1,3.36.76c1.62,1.08,1.9,3.36,1.6,5.28-.68,4.34-3.41,8-5.44,11.92s-3.34,8.74-1.17,12.56c2.34,4.11,7.85,5.3,12.53,4.59s9-2.84,13.69-3.71a5.86,5.86,0,0,1,4,.34c1.84,1.09,2.14,3.58,2.24,5.73q.83,17.31,1.64,34.62c.08,1.59.23,3.34,1.36,4.46a5.58,5.58,0,0,0,2,1.14c7.83,2.82,16.77-.22,23.25-5.44s11.07-12.35,15.9-19.13a18.72,18.72,0,0,1,4.68-5c2.71-1.76,6.09-2,9.31-2.29q10.51-.84,21-2.18c3.61-.47,7.57-1.17,9.87-4a6,6,0,0,0,.25-6.77c-.29-.17-.58-.35-.86-.54l.8.45a3.46,3.46,0,0,0-2.15-1.48c-4.84-4.17-6.87-11.46-6.53-18.07.41-8,3.4-15.62,4.67-23.52.8-4.93.67-10.61-2.88-14.12C150.37,236.5,145.27,236.11,140.8,236.88Z"/><path class="cls-6" d="M137.62,268.31a22.12,22.12,0,0,0-7.52,17.05c-7.37-3.39-14.94-6-22.55-8.77a.44.44,0,0,0,0-.16,221.81,221.81,0,0,0-3-23.84c-.16-.86-1.52-.73-1.36.14a218.13,218.13,0,0,1,3,23.35l-2.32-.86c-8.92-3.33-16.94-8.38-24.89-13.54a1,1,0,0,0,0-.17,92,92,0,0,0-6.74-20.15c-.37-.79-1.65-.3-1.27.5a91.24,91.24,0,0,1,6.43,18.79l-1.63-1q-14.3-9.27-28.26-19c-.72-.5-1.58.56-.86,1.06q9.57,6.68,19.31,13.11l-5.18,3c-1.64,1-5.69,4.21-7.61,3.26-.79-.39-1.35.85-.56,1.24,1.82.91,3.41-.15,5-1.09l9.59-5.6c2.57,1.69,5.12,3.41,7.69,5.08,5.45,3.53,10.9,7.17,16.59,10.32l-15.2,12.87c-.68.56.13,1.67.8,1.1l15.61-13.2.06-.08a84.11,84.11,0,0,0,8.65,4.07c6.47,2.57,13,4.74,19.47,7.22a52.2,52.2,0,0,0-20.06,15.5.68.68,0,0,0,1.06.86,50.85,50.85,0,0,1,20.46-15.53.6.6,0,0,0,.24-.16c2.91,1.15,5.81,2.38,8.66,3.76,9.85,4.77,19.3,10.33,28.73,15.88.75.45,1.31-.8.56-1.24-9.15-5.38-18.3-10.78-27.83-15.45l-1.23-.57s0,0,0-.05a20.68,20.68,0,0,1,6.95-16.54C139.07,268.84,138.28,267.73,137.62,268.31Z"/><path class="cls-7" d="M664.57,290.54l1.7-.33-.11.08A13.85,13.85,0,0,1,664.57,290.54Z"/><path class="cls-8" d="M711.34,229.29c4.81,2.56,9.08,6.14,14.13,8.18a9.62,9.62,0,0,0,5.79.8c4-1,5.71-5.39,8-8.77,6.91-10.35,21-12.38,33.42-13.44,3.45-.3,7.26-.49,10,1.66,3.94,3.12,3.33,9.14,2.58,14.11s-.6,11.24,3.87,13.52,9.74-1.37,12.34-5.61c3-4.81,4.16-10.52,7.08-15.35s8.65-8.85,14-7c6.33,2.22,7.51,10.47,7.91,17.16s2.52,15,9.13,16.15c3.75.63,7.5-1.64,9.79-4.68s3.41-6.77,4.61-10.38c.67-2,1.48-4.12,3.27-5.2s3.72-.89,5.61-.49c10.66,2.25,18.75,13.17,17.81,24s-10.8,20.21-21.68,20.59c-4.14.15-9.63,0-10.83,3.94-1.57,5.2,6.6,7.54,9.41,12.18,2.35,3.9.25,9.32-3.53,11.86s-8.65,2.79-13.17,2.32c-8.71-.91-17-4.14-25.37-6.65a7.59,7.59,0,0,0-4.12-.41c-2.25.63-3.43,3.12-3.81,5.42-.86,5.2.85,10.42,1.69,15.62s.51,11.23-3.41,14.75c-4.21,3.8-10.94,3.08-16,.5s-9.22-6.65-14.19-9.39a7,7,0,0,0-4.74-1.15c-2.51.55-3.8,3.27-4.73,5.68l-14.94,38.82c-.68,1.78-1.51,3.72-3.22,4.57a6.77,6.77,0,0,1-2.75.53c-10,.25-19-6.59-24.43-15s-7.95-18.25-10.89-27.79a22.26,22.26,0,0,0-3.43-7.5c-2.42-3-6.17-4.61-9.74-6.12q-11.65-4.93-23.07-10.42c-3.93-1.89-8.18-4.18-9.74-8.26a7.26,7.26,0,0,1,2.26-7.81c.41-.08.8-.19,1.19-.3l-1.08.22a4.18,4.18,0,0,1,3-.87c7.09-2.93,12.16-10.47,14.27-18.12,2.55-9.26,2-19.07,3.55-28.56,1-5.91,3.24-12.33,8.61-15C700.59,225.24,706.54,226.73,711.34,229.29Z"/><path class="cls-9" d="M703.1,266.31a26.55,26.55,0,0,1,2.13,22.26c9.68-1.08,19.29-1.21,29-1.49a1.48,1.48,0,0,1,0-.19,266.08,266.08,0,0,1,12.42-26c.51-.92,2-.25,1.5.67A264.42,264.42,0,0,0,736,287l3-.09c11.42-.43,22.46-3.16,33.46-6a.89.89,0,0,1,.07-.19,110.25,110.25,0,0,1,15.28-20.41c.72-.76,2,.28,1.26,1.05a108.67,108.67,0,0,0-14.42,19l2.25-.59q19.78-5.16,39.38-11c1-.3,1.6,1.23.58,1.53q-13.43,4-27,7.64,2.39,2.7,4.76,5.41c1.51,1.71,4.89,6.94,7.44,6.58,1-.15,1.21,1.48.17,1.63-2.42.35-3.83-1.47-5.31-3.14l-8.81-10c-3.56,1-7.11,1.95-10.68,2.88-7.53,2-15.12,4.06-22.8,5.5l12.47,20.39c.55.9-.78,1.86-1.33.95L753,287.18s0-.08,0-.12a99,99,0,0,1-11.38,1.38c-8.34.49-16.62.48-24.91.88a62.67,62.67,0,0,1,17,25.22.82.82,0,0,1-1.53.58,61,61,0,0,0-17.45-25.41.69.69,0,0,1-.21-.28c-3.76.22-7.52.52-11.28,1-13,1.71-25.89,4.48-38.73,7.23-1,.23-1.19-1.4-.17-1.62,12.45-2.68,24.92-5.36,37.54-7.09l1.62-.19v0a24.8,24.8,0,0,0-1.67-21.47C701.24,266.35,702.57,265.39,703.1,266.31Z"/><path class="cls-10" d="M548.79,157.38c11.14,14.79,23.08,30.79,13.71,49.67-7.25,14.6-20.2,24.95-24.31,41.28-2,7.92-.74,16-.32,24,.54,10.32-1.7,19.4-7.71,27.84-9.79,13.75-26,22-40,30.64-1.51.94-.13,3.33,1.4,2.39,14.15-8.75,29.23-16.93,39.85-30.09a41.79,41.79,0,0,0,9.08-21.45c1.32-10.34-1.71-20.63.06-30.95,3.2-18.59,19.83-30.29,26.59-47.22,7-17.59-5.93-34.22-15.92-47.5-1.06-1.4-3.46,0-2.39,1.4Z"/><path class="cls-11" d="M563.68,143.13s6.91,13.85-7.75,22.14C555.93,165.27,546.81,149.18,563.68,143.13Z"/><path class="cls-12" d="M559.39,151.79a23.36,23.36,0,0,1,4.71-7.65l-.42-1-1.94.79-2.35,7.53"/><path class="cls-13" d="M580.43,163.75s.48,15.48-16.3,16.87C564.13,180.62,562.58,162.19,580.43,163.75Z"/><path class="cls-14" d="M572.91,169.83s3.6-3.64,7.49-5l0-1.1-2.08-.09-5.3,5.85"/><path class="cls-15" d="M588.24,197.88s-8.8,12.73-23.14,3.89C565.1,201.77,574.8,186,588.24,197.88Z"/><path class="cls-16" d="M578.58,198.3a23.49,23.49,0,0,1,9,.43l.68-.85-1.63-1.31-7.73,1.56"/><path class="cls-17" d="M576.67,228.14s-13.21,8.08-22.73-5.81C553.94,222.33,569.18,211.86,576.67,228.14Z"/><path class="cls-18" d="M567.66,224.61s5,1.33,8,4l1-.51-1-1.86-7.7-1.7"/><path class="cls-19" d="M539,205.1s-1.89,15.37,14.69,18.3C553.64,223.4,556.87,205.19,539,205.1Z"/><path class="cls-20" d="M545.89,211.84a23.36,23.36,0,0,0-7-5.64l.06-1.1,2.09.1,4.73,6.32"/><path class="cls-21" d="M546.38,190s2.23,15.32,19,13.77C565.37,203.77,563.69,185.35,546.38,190Z"/><path class="cls-22" d="M554.85,194.67a23.63,23.63,0,0,0-8.24-3.6l-.23-1.07,2-.45,6.23,4.84"/><path class="cls-23" d="M540.94,168.31s6,14.24,21.87,8.49C562.81,176.8,556.5,159.41,540.94,168.31Z"/><path class="cls-24" d="M550.32,170.67s-4.79-1.8-8.88-1.39l-.5-1,1.86-1,7.25,3.1"/><path class="cls-25" d="M562.82,245.13s-6.21,17.19-25.23,11.42C537.59,256.55,543.91,235.65,562.82,245.13Z"/><path class="cls-26" d="M551.92,248.52s5.54-2.42,10.39-2.21l.51-1.18-2.25-1-8.35,4.12"/><path class="cls-27" d="M567,275.07s-9.78,15.43-27.1,5.69C539.92,280.76,550.6,261.72,567,275.07Z"/><path class="cls-28" d="M555.64,276s5.93-1.17,10.62.08l.76-1-2-1.48-9,2.22"/><path class="cls-29" d="M561.74,300.3s-12.93,20.43-35.86,7.53C525.88,307.83,540,282.64,561.74,300.3Z"/><path class="cls-30" d="M546.69,301.56s7.84-1.54,14,.12l1-1.38-2.62-1.95-12,2.93"/><path class="cls-31" d="M511.18,274.85s-8.68,22.56,15.34,33.28C526.52,308.13,538.31,281.76,511.18,274.85Z"/><path class="cls-32" d="M519.14,287.69s-3.43-7.22-8.46-11.21l.5-1.63,3.13.94,4.78,11.36"/><path class="cls-33" d="M520.18,250.2s-2.31,19.87,19.14,23.5C539.32,273.7,543.34,250.14,520.18,250.2Z"/><path class="cls-34" d="M529.2,258.84s-4.24-5.08-9.09-7.23l.07-1.41,2.69.11,6.18,8.11"/><path class="cls-35" d="M525.46,219.67s-6,19.09,14.45,26.65C539.91,246.32,548.23,223.91,525.46,219.67Z"/><path class="cls-36" d="M532.72,229.84s-3.22-5.78-7.58-8.8l.32-1.37,2.63.61,4.56,9.12"/><path class="cls-37" d="M540.86,137.77s14.64,5,10,21.22C550.86,159,533.08,153.91,540.86,137.77Z"/><path class="cls-38" d="M543.88,147a23.36,23.36,0,0,1-2-8.76l-1-.42-.83,1.91,3.6,7"/><path class="cls-39" d="M531.23,308l.21-1.61a.61.61,0,0,1,0,.12A15,15,0,0,1,531.23,308Z"/><path class="cls-40" d="M490.92,247.89c3.73-3.5,8.19-6.22,11.53-10.09a9,9,0,0,0,2.47-4.91c.35-3.8-3.07-6.71-5.39-9.73-7.11-9.28-4.64-22.44-1.84-33.79.78-3.15,1.76-6.6,4.49-8.37,4-2.55,9.13-.19,13.32,2s9.81,3.94,13.2.65,1.72-9.08-1.27-12.68c-3.38-4.07-8.09-6.88-11.5-10.93s-5.25-10.36-2-14.53c3.88-5,11.58-3.51,17.65-1.84s14.13,2.3,17.11-3.25c1.7-3.14.82-7.16-1.2-10.12s-5-5.08-7.83-7.24c-1.56-1.19-3.21-2.56-3.64-4.48a7.25,7.25,0,0,1,1.27-5.13c5.22-8.8,17.37-12.69,26.74-8.57s14.71,15.71,11.75,25.51c-1.12,3.71-2.92,8.55.24,10.81,4.14,3,8.69-3.59,13.66-4.68,4.18-.92,8.36,2.59,9.48,6.72s-.13,8.53-1.92,12.42c-3.44,7.47-8.81,13.84-13.58,20.54a7.15,7.15,0,0,0-1.61,3.54c-.12,2.19,1.74,4,3.67,5,4.36,2.34,9.52,2.39,14.4,3.22s10.13,2.94,12.08,7.48c2.1,4.9-.57,10.66-4.39,14.39s-8.7,6.19-12.64,9.78a6.57,6.57,0,0,0-2.46,3.87c-.27,2.4,1.76,4.36,3.62,5.91l30,25c1.38,1.15,2.86,2.47,3.09,4.26a6.13,6.13,0,0,1-.36,2.6c-2.79,9-11.6,14.92-20.7,17.19s-18.63,1.55-28,1.28a20.76,20.76,0,0,0-7.7.79c-3.42,1.24-6,4.09-8.39,6.81q-7.9,8.86-16.23,17.36c-2.88,2.93-6.19,6-10.3,6.16a6.8,6.8,0,0,1-6.25-4.37c0-.38.07-.76.09-1.15l-.14,1a3.91,3.91,0,0,1,.14-2.93c-.46-7.2-5.63-14-11.79-18.17-7.46-5.07-16.35-7.56-24.31-11.79-5-2.64-10-6.62-10.74-12.19C484.07,256.22,487.19,251.39,490.92,247.89Z"/><path class="cls-41" d="M521.33,266.41a24.93,24.93,0,0,1,20.44,4.83c2-8.93,4.76-17.51,7.44-26.23a.6.6,0,0,1-.15-.09A248.83,248.83,0,0,1,529.68,226c-.67-.73.37-1.86,1.05-1.13a247.67,247.67,0,0,0,19,18.55c.28-.89.55-1.78.82-2.68,3.07-10.28,4-20.92,4.76-31.57a.61.61,0,0,1-.16-.12,103.78,103.78,0,0,1-13.52-19.76c-.45-.87.85-1.68,1.31-.8a102.06,102.06,0,0,0,12.52,18.56c.05-.73.1-1.46.16-2.18q1.39-19.15,2.12-38.35c0-1,1.58-1,1.54-.05-.34,8.77-.82,17.52-1.35,26.28l6.24-2.6c2-.82,7.65-2.24,8.1-4.63.19-1,1.68-.63,1.5.35-.42,2.26-2.46,3-4.39,3.77l-11.56,4.81c-.22,3.45-.42,6.91-.67,10.37-.53,7.29-1,14.66-2,21.93l21.9-4.92c1-.22,1.41,1.25.44,1.47L555,228.36h-.12a92.35,92.35,0,0,1-2.21,10.55c-2.09,7.56-4.6,14.92-6.76,22.41a59,59,0,0,1,27.57-7.5.77.77,0,0,1,.06,1.54,57.18,57.18,0,0,0-27.87,7.84.8.8,0,0,1-.31.1c-1,3.4-1.81,6.83-2.51,10.34-2.41,12.1-3.84,24.37-5.27,36.62-.12,1-1.62.63-1.5-.34,1.38-11.88,2.76-23.78,5.05-35.53.09-.5.21-1,.31-1.49l0,0a23.29,23.29,0,0,0-19.6-5C520.81,268.07,520.36,266.6,521.33,266.41Z"/><path class="cls-42" d="M484.33,77.48S488.46,54.4,467,52.36h0l-.25,0c-.84-.07-1.71-.12-2.63-.12,0,0-.06.54-.09,1.47v0h0C463.92,58.61,465.15,74.06,484.33,77.48Z"/><path class="cls-43" d="M573.93,10.55c.53-.7.8-1.14.8-1.14-.68-.54-1.35-1-2-1.45l-.17-.11h0c-14.92-9.72-24.76,4.3-26.79,7.58a1.35,1.35,0,0,0-1.06.28c-4.65,3.45-9.32,6.92-13.94,10.49,1.41-4.06,5.72-19.95-10.84-25.45v0l-.19,0C519,.43,518.17.2,517.32,0c0,0-6.68,18.31,12.53,26.9a236.86,236.86,0,0,0-23.27,20.18c1.58-5.18,4.27-19.33-11.16-24.46v0l-.25-.07c-.74-.24-1.51-.46-2.33-.65,0,0-6.61,18.12,12.23,26.76A132.83,132.83,0,0,0,495,60.28a99.4,99.4,0,0,0-9.6,15.17l-.34.35.12.1a84,84,0,0,0-8.59,29c-2.71-6.24-8.53-13.23-20.87-11.21h0l-.23,0c-.83.14-1.69.32-2.59.55,0,0,2.62,19.43,23.23,19.39a89.27,89.27,0,0,0,.62,10.87,100.18,100.18,0,0,0,2.33,12.34c-3-5.82-8.8-11.62-20.18-9.75h0l-.22.05c-.84.14-1.7.32-2.6.55,0,0,2.83,21.1,25.9,19.29.1.34.21.68.32,1-.06.72-.06,1.15-.06,1.15h.43c2.74,8.39,5.85,16.69,8.34,25.13-2.93-3.18-7.28-5.73-13.63-6.93v0l-.28,0c-1-.18-2.08-.34-3.21-.45,0,0-5.56,25.41,21.63,33,0,.47,0,.94,0,1.41-.35.77-.52,1.23-.52,1.23l.49.17a69.52,69.52,0,0,1-6.12,25.87c1.28-9-.17-22-16.65-27.73h0l-.1,0c-1.1-.38-2.26-.74-3.5-1.05,0,0-9.55,24.88,16,37.52-5,9-11.19,17.52-17.4,25.72-1.24,1.64,1.53,3.22,2.75,1.61,6.14-8.1,12.53-16.65,17.67-25.77,25.15,12.57,39.3-9.76,39.3-9.76-1-.82-2-1.55-3-2.22l0,0h0c-14-9.48-25-3.62-31.57,2.58a68.19,68.19,0,0,0,5.5-20.32c.18-1.81.28-3.61.32-5.39,23.95,6.65,33.49-15.1,33.49-15.1-1.06-.62-2.09-1.16-3.09-1.64h0c-16-7.6-25.85,2-30.57,9.17-1.23-16.21-7.23-31.54-12.34-47.08,19.55-2,20.76-20.88,20.76-20.88-.92-.17-1.79-.28-2.64-.37l-.21,0v0c-13-1.22-18.25,6.91-20.34,13.52l0-.06a97.28,97.28,0,0,1-4.18-27.68c17.28,2.63,23.85-10.21,25.56-14.58h0v0c.34-.87.49-1.4.49-1.4-.87-.35-1.7-.64-2.51-.9l-.21-.07h0c-12.95-4-19.76,3.56-23,9.73a79.65,79.65,0,0,1,7.86-28.41c16.1,12.17,29.86-1.38,29.86-1.38-.57-.73-1.14-1.39-1.71-2l-.15-.18h0c-8.83-9.52-18.08-7-24-3.54.39-.63.78-1.25,1.19-1.87a124.12,124.12,0,0,1,13.88-17.24c15.07,7.19,24.39-2.79,27.07-6.3h0v0c.52-.68.79-1.12.79-1.12-.69-.54-1.36-1-2-1.46l-.15-.1h0c-4.85-3.16-9.16-3.82-12.84-3.14,4.1-3.55,8.34-7,12.63-10.3,12,15.49,27.86,5.94,27.86,5.94-.36-.8-.74-1.53-1.13-2.23l-.08-.16h0C553.16,22.87,545,22.44,538.93,24l7.37-5.49a1.64,1.64,0,0,0,.67-1.54c15,7.08,24.28-2.86,26.95-6.36h0Z"/><path class="cls-44" d="M315.39,209.13h0c-9.87-1.62-14.94,3.42-17.51,8.47a85.84,85.84,0,0,0,2-10.72,75.51,75.51,0,0,0,.54-9.43c17.88,0,20.16-16.82,20.16-16.82-.79-.21-1.53-.36-2.26-.48l-.19,0h0c-10.7-1.76-15.75,4.3-18.11,9.72a72.7,72.7,0,0,0-7.45-25.14l.1-.09-.29-.3a85.7,85.7,0,0,0-8.33-13.17,115.15,115.15,0,0,0-8.73-10.1c16.35-7.49,10.61-23.22,10.61-23.22-.73.17-1.41.37-2.06.58l-.18,0h0c-13.4,4.46-11.06,16.74-9.68,21.23a207,207,0,0,0-20.2-17.51c16.66-7.45,10.87-23.34,10.87-23.34-.73.17-1.4.37-2.05.58l-.19,0h0c-14.37,4.78-10.63,18.57-9.4,22.09-4-3.09-8.07-6.11-12.1-9.1a1.12,1.12,0,0,0-.92-.24c-1.76-2.85-10.3-15-23.24-6.58h0l-.13.1c-.58.38-1.16.79-1.76,1.25,0,0,.24.39.7,1h0c2.32,3,10.37,11.67,23.4,5.52a1.41,1.41,0,0,0,.57,1.34l6.4,4.76c-5.27-1.31-12.35-.94-17.16,7.62h0l-.07.13c-.33.61-.66,1.25-1,1.94a11.49,11.49,0,0,0,1.08.56h0c3.44,1.61,14.43,5.48,23.09-5.71,3.73,2.89,7.4,5.85,11,8.93-3.2-.59-6.94,0-11.15,2.73h0l-.14.09c-.58.38-1.16.79-1.75,1.26,0,0,.23.38.69,1h0c2.33,3.05,10.42,11.72,23.5,5.47a106.66,106.66,0,0,1,12,15c.36.54.7,1.08,1,1.62-5.17-3-13.2-5.19-20.86,3.07h0l-.13.15c-.5.54-1,1.12-1.49,1.76,0,0,11.95,11.74,25.92,1.19a68.91,68.91,0,0,1,6.81,24.66c-2.83-5.36-8.74-11.92-20-8.45h0l-.17.06c-.71.23-1.43.48-2.18.78,0,0,.13.47.42,1.23h0c1.49,3.8,7.18,14.93,22.18,12.65a84.69,84.69,0,0,1-3.63,24l0,.05c-1.81-5.73-6.35-12.79-17.64-11.73h0l-.19,0c-.74.08-1.5.18-2.29.32,0,0,1.05,16.4,18,18.12-4.43,13.48-9.64,26.79-10.7,40.85-4.1-6.2-12.62-14.52-26.51-8h0l-.19.11c-.82.39-1.66.82-2.51,1.32,0,0,8.27,18.88,29.05,13.11,0,1.54.12,3.1.28,4.68A59.48,59.48,0,0,0,286,297.85c-5.68-5.37-15.23-10.46-27.39-2.23h0l0,0c-.85.57-1.7,1.2-2.57,1.91,0,0,12.27,19.37,34.1,8.46,4.46,7.92,10,15.33,15.33,22.36,1.06,1.4,3.46,0,2.39-1.39a189.58,189.58,0,0,1-15.1-22.32c22.13-11,13.84-32.56,13.84-32.56q-1.63.42-3.09.93h0c-14.3,5-15.56,16.26-14.44,24.07a60.22,60.22,0,0,1-5.32-22.45l.43-.15s-.15-.39-.46-1.06c0-.41,0-.82,0-1.23,23.58-6.59,18.76-28.63,18.76-28.63-1,.09-1.89.23-2.77.39l-.26,0h0c-5.51,1-9.28,3.25-11.82,6,2.15-7.33,4.86-14.53,7.23-21.81h.38s0-.37-.06-1c.1-.3.19-.59.29-.88,20,1.57,22.47-16.75,22.47-16.75-.79-.2-1.53-.35-2.27-.48Z"/><path class="cls-45" d="M310.85,144.14c-.81,0-1.57.05-2.3.11h-.21c-18.62,1.77-15,21.8-15,21.8C313.15,162.53,310.85,144.14,310.85,144.14Z"/><path class="cls-46" d="M253.05,225.6s3.58-20-15-21.8h-.22c-.73-.06-1.49-.11-2.29-.11C235.5,203.67,233.2,222.06,253.05,225.6Z"/><path class="cls-47" d="M331.49,166.53c-.59-.46-1.17-.86-1.74-1.24l-.15-.11h0c-12.94-8.43-21.48,3.73-23.24,6.58a1.16,1.16,0,0,0-.92.24c-4,3-8.09,6-12.09,9.1,1.22-3.52,5-17.31-9.41-22.09h0l-.17-.05c-.66-.21-1.34-.41-2.06-.58,0,0-5.8,15.89,10.86,23.34a205.5,205.5,0,0,0-20.19,17.51c1.37-4.5,3.71-16.77-9.68-21.22v0l-.19,0c-.65-.21-1.32-.41-2.05-.58,0,0-5.73,15.72,10.62,23.22a115.26,115.26,0,0,0-8.74,10.1A86,86,0,0,0,254,223.83l-.3.31.11.09a72.49,72.49,0,0,0-7.46,25.15c-2.35-5.43-7.41-11.49-18.11-9.73h0l-.2,0c-.73.13-1.47.28-2.24.48,0,0,2.27,16.86,20.15,16.83a77.42,77.42,0,0,0,.54,9.42,87.54,87.54,0,0,0,2,10.71c-2.57-5.05-7.64-10.08-17.51-8.45h0l-.2,0c-.72.12-1.47.27-2.25.47,0,0,2.46,18.32,22.48,16.75.09.29.18.58.28.88-.05.63-.06,1-.06,1h.38c2.37,7.28,5.08,14.48,7.24,21.81-2.55-2.77-6.32-5-11.83-6h0l-.23,0c-.89-.16-1.82-.3-2.8-.4,0,0-4.82,22,18.77,28.64,0,.4,0,.81,0,1.22-.31.67-.45,1.06-.45,1.06l.42.15a60.11,60.11,0,0,1-5.31,22.44c1.11-7.81-.15-19-14.45-24.06h0c-1-.34-2-.66-3.13-.94,0,0-8.29,21.59,13.84,32.56a189.5,189.5,0,0,1-15.09,22.32c-1.08,1.42,1.32,2.79,2.38,1.39,5.33-7,10.87-14.44,15.33-22.36,21.83,10.91,34.1-8.46,34.1-8.46q-1.31-1.07-2.58-1.92l0,0h0c-12.16-8.23-21.71-3.14-27.39,2.23a58.86,58.86,0,0,0,4.77-17.63c.16-1.57.24-3.13.28-4.67C286.2,340.85,294.48,322,294.48,322c-.86-.5-1.69-.92-2.5-1.32l-.21-.11h0c-13.88-6.57-22.41,1.75-26.5,7.95-1.07-14.06-6.28-27.37-10.71-40.85,14-1.42,17.19-12.92,17.84-16.82h0c.13-.8.16-1.29.16-1.29-.8-.15-1.56-.24-2.3-.32l-.17,0h0c-11.3-1.06-15.84,6-17.65,11.73v-.05a84.28,84.28,0,0,1-3.63-24c18,2.74,22.61-13.88,22.61-13.88-.76-.31-1.48-.56-2.19-.79l-.17-.06h0c-11.24-3.47-17.15,3.09-20,8.44a68.92,68.92,0,0,1,6.81-24.65c11.6,8.76,21.8,2.16,24.93-.34h0c.64-.51,1-.85,1-.85-.5-.64-1-1.21-1.5-1.76l-.12-.14h0c-7.67-8.26-15.69-6.1-20.87-3.07.34-.54.69-1.09,1-1.62a107.38,107.38,0,0,1,12-15c13.08,6.25,21.17-2.41,23.5-5.46h0c.46-.61.7-1,.7-1-.59-.46-1.17-.87-1.74-1.25l-.15-.11h0c-4.2-2.74-7.94-3.32-11.14-2.73,3.57-3.08,7.24-6,11-8.93,8.66,11.19,19.66,7.32,23.1,5.71h0c.67-.32,1.06-.55,1.06-.55-.31-.68-.63-1.31-1-1.91l-.08-.16h0c-4.8-8.55-11.88-8.93-17.15-7.62,2.13-1.6,4.27-3.18,6.39-4.76a1.44,1.44,0,0,0,.58-1.35C323,180.43,331.49,166.53,331.49,166.53Z"/><path class="cls-48" d="M665.45,119.69s5.27-29.51-22.16-32.12v0H643c-1.08-.09-2.2-.16-3.39-.17C639.6,87.37,636.21,114.46,665.45,119.69Z"/><path class="cls-49" d="M780,34.1c.67-.87,1-1.43,1-1.43-.94-.74-1.86-1.39-2.77-2h0c-19.06-12.44-31.65,5.47-34.26,9.7a1.68,1.68,0,0,0-1.35.35c-5.94,4.41-11.92,8.85-17.82,13.41,1.8-5.19,7.33-25.53-13.86-32.55h0l-.08,0c-1-.33-2.08-.64-3.22-.91,0,0-8.54,23.41,16,34.38a302.54,302.54,0,0,0-29.75,25.81c2-6.64,5.48-24.75-14.27-31.29h0l-.08,0c-1-.33-2.08-.64-3.22-.91,0,0-8.45,23.17,15.63,34.21a172.14,172.14,0,0,0-12.86,14.88A126.48,126.48,0,0,0,666.8,117.1l-.42.43.14.12a107.32,107.32,0,0,0-11,37c-3.73-8.57-12-18.21-30.27-13.53,0,0,3.35,24.83,29.66,24.8a114.93,114.93,0,0,0,.83,13.88,128.39,128.39,0,0,0,3,15.76c-4.1-8-12.46-16-29.4-11.69,0,0,3.62,27,33.1,24.66l.42,1.31c-.08.92-.09,1.47-.09,1.47h.56c3.49,10.72,7.47,21.31,10.65,32.1-4.4-4.78-11.28-8.46-21.89-9.49,0,0-7.1,32.48,27.64,42.19.23,13-2.85,25.18-7.85,36.64,1.75-12.29-.47-30.36-25.88-36.83,0,0-12.24,31.82,20.37,48-6.36,11.52-14.29,22.39-22.22,32.87-1.59,2.09,2,4.12,3.51,2.05,7.84-10.35,16-21.27,22.58-32.94,32.15,16.08,50.24-12.47,50.24-12.47-19.76-16.05-35.25-8.05-44.22.42a86.76,86.76,0,0,0,7-26c2.7-27-7.37-51.68-15.62-76.76,25-2.53,26.54-26.69,26.54-26.69-19.36-3.56-26.8,7.75-29.65,16.79l0-.08a124.28,124.28,0,0,1-5.35-35.38c26.53,4,33.31-20.45,33.31-20.45-18.84-7.7-28.46,2.77-32.92,11.2a101.73,101.73,0,0,1,10-36.29c20.59,15.56,38.18-1.78,38.18-1.78-12-15.45-25-12.12-33.13-7.34.5-.8,1-1.59,1.52-2.38a158,158,0,0,1,17.74-22c19.27,9.21,31.19-3.55,34.61-8h0l0,0c.67-.88,1-1.44,1-1.44-.94-.73-1.86-1.38-2.76-2l0,0h0c-6.2-4-11.72-4.88-16.43-4,5.25-4.54,10.66-8.9,16.14-13.15,12.76,16.48,29,10.78,34,8.41h0c1-.47,1.58-.81,1.58-.81-.49-1.09-1-2.09-1.53-3v0h0C753.45,49.86,743,49.32,735.25,51.25q4.71-3.53,9.41-7a2.1,2.1,0,0,0,.85-2c19.18,9.07,31-3.65,34.46-8.13h0Z"/><path class="cls-50" d="M124.18,189.49s3.58-20-15-21.8h-.2c-.74-.06-1.5-.11-2.31-.11C106.63,167.56,104.33,186,124.18,189.49Z"/><path class="cls-51" d="M201.92,131.41c.46-.6.7-1,.7-1-.59-.46-1.17-.87-1.75-1.25l-.14-.11h0c-12.95-8.44-21.49,3.73-23.25,6.58a1.12,1.12,0,0,0-.92.24c-4,3-8.09,6-12.09,9.1,1.22-3.53,5-17.31-9.41-22.09h0l-.17,0c-.66-.21-1.34-.41-2.07-.58,0,0-5.8,15.89,10.86,23.33a205.6,205.6,0,0,0-20.19,17.52c1.37-4.49,3.71-16.78-9.68-21.23h0l-.2-.06c-.65-.21-1.32-.4-2-.57,0,0-5.73,15.72,10.62,23.22a115.26,115.26,0,0,0-8.74,10.1,86.81,86.81,0,0,0-8.32,13.16l-.3.31.11.09a72.72,72.72,0,0,0-7.46,25.14c-2.35-5.42-7.41-11.48-18.11-9.72h0l-.19,0c-.73.13-1.47.28-2.26.48,0,0,2.28,16.86,20.16,16.82a79.53,79.53,0,0,0,.54,9.43,87.69,87.69,0,0,0,2,10.72C117,236,112,230.93,102.1,232.55h0l-.2.05c-.72.12-1.47.27-2.25.47,0,0,2.46,18.32,22.48,16.74.09.3.19.59.28.89-.05.63-.06,1-.06,1h.38c2.37,7.28,5.08,14.48,7.24,21.81-2.55-2.77-6.32-5-11.83-6h0l-.23,0c-.89-.16-1.82-.3-2.8-.39,0,0-4.82,22,18.77,28.63,0,.41,0,.82,0,1.22-.31.67-.46,1.07-.46,1.07l.43.15a60.21,60.21,0,0,1-5.31,22.45c1.11-7.82-.15-19.05-14.45-24.07h0l-.06,0c-1-.33-2-.64-3.07-.92,0,0-8.29,21.59,13.84,32.56a189.5,189.5,0,0,1-15.09,22.32c-1.08,1.42,1.32,2.79,2.39,1.39,5.32-7,10.86-14.45,15.33-22.36,21.82,10.91,34.09-8.46,34.09-8.46-13.41-10.91-23.93-5.47-30,.28a58.86,58.86,0,0,0,4.77-17.63c.16-1.57.24-3.13.28-4.67,20.78,5.77,29.06-13.11,29.06-13.11-.85-.5-1.68-.92-2.5-1.32l-.21-.11h0c-13.88-6.57-22.4,1.75-26.5,7.95-1.07-14.06-6.28-27.37-10.71-40.85,17-1.72,18-18.12,18-18.12-.79-.14-1.54-.24-2.28-.32l-.19,0h0c-11.3-1.06-15.84,6-17.65,11.73v0a84.34,84.34,0,0,1-3.63-24c18,2.74,22.61-13.88,22.61-13.88-.76-.31-1.48-.56-2.19-.79l-.17-.06h0c-11.24-3.47-17.15,3.09-20,8.45A68.91,68.91,0,0,1,127,189.82c14,10.55,25.92-1.2,25.92-1.2-.5-.64-1-1.23-1.51-1.78l-.11-.12h0c-7.67-8.26-15.69-6.11-20.87-3.07.34-.54.68-1.09,1-1.63a107.15,107.15,0,0,1,12-15c13.08,6.25,21.17-2.41,23.5-5.47h0c.46-.61.7-1,.7-1-.6-.47-1.19-.88-1.77-1.26l-.12-.09h0c-4.2-2.74-8-3.32-11.14-2.73,3.56-3.08,7.24-6,11-8.93,8.66,11.19,19.66,7.32,23.1,5.71h0c.69-.33,1.08-.56,1.08-.56-.31-.69-.64-1.32-1-1.93l-.07-.15h0c-4.81-8.56-11.89-8.93-17.16-7.62l6.4-4.76a1.44,1.44,0,0,0,.58-1.35c13,6.16,21.07-2.47,23.39-5.51h0Z"/><path class="cls-52" d="M755.94,230.83c13,6.35,20.95-5.09,20.95-5.09-.5-.44-1-.83-1.48-1.19l-.14-.12h0c-7.76-5.71-14.12-2.41-17.86,1a32.44,32.44,0,0,0-2.3-17.23c14.42-2.56,14-16.56,14-16.56-.66-.06-1.29-.08-1.9-.08H767c-10.12,0-13.1,7.12-13.93,12.13a91.9,91.9,0,0,0-7-11.42c12.73-8.36,6.3-21.26,6.3-21.26-.64.23-1.23.48-1.79.73l-.15.06v0c-8.46,3.91-8.9,10.75-7.87,15.63-.81-1.09-1.62-2.16-2.41-3.21,2.42-14.1-10.6-18.59-10.6-18.59-.29.6-.53,1.18-.75,1.75l-.08.17h0c-4.61,12.22,6,17.49,9.66,18.89,2.41,3.21,4.82,6.47,7,9.81-3.21-2.49-7.78-3.86-13.91-1h0l-.16.09c-.55.26-1.12.54-1.7.87,0,0,.16.37.49,1h0c1.67,3,7.78,11.85,20.34,7.86,3.6,7.46,5.35,15.34,3.05,23.79-1.22-4.69-5.05-13.38-16.4-11.38h0l-.16,0c-.61.11-1.23.24-1.88.42,0,0,.06.4.22,1v0h0c.84,3.32,4.43,13.24,17.28,12.79-.4,1.05-.86,2.12-1.39,3.19a93.1,93.1,0,0,1-8.64,13.59c.09-4.82-1.24-14.35-12.81-15.43h-.19c-.61-.05-1.24-.09-1.91-.09,0,0-1.77,14.38,13.13,18-4,5.37-7.93,10.72-10.81,16.78.62-6.52-.8-16.1-13.17-19.56v0l-.17,0c-.78-.21-1.59-.4-2.46-.57,0,0-5.73,18.44,13.43,26.25-.25.79-.49,1.59-.7,2.42a41,41,0,0,0-1.09,10.44c-2.52-4.66-7.44-8.6-16.92-8.58,0,0-2.19,19,17.73,23.23.33,9.86-1.95,18.6-7.75,26.74-.62.87-1.26,1.71-1.93,2.54,1.74-7.64,2.24-21.25-13.92-26.91h0c-1-.34-2-.65-3.11-.93,0,0-8.13,21.14,13.13,32.21-9.7,9.81-22.69,16.63-34.19,23.74-1.51.93-.13,3.32,1.4,2.39,12.2-7.54,25.08-14.67,35.2-24.92,22.4,11.93,35-8,35-8-.87-.71-1.74-1.34-2.59-1.92l0,0h0c-10.1-6.83-18.4-4.49-24.18-.42a41.94,41.94,0,0,0,5.51-16.29c0-.19,0-.38.06-.57,14.18,7.58,23.18-1.72,25.75-5h0c.5-.63.76-1,.76-1-.62-.5-1.23-.94-1.83-1.36l-.15-.11h0c-12.83-8.67-21.82,2.28-24.36,6,.56-7.5-.83-15-.71-22.46,17.17,3.72,22.87-12,22.87-12-.7-.35-1.38-.65-2.05-.92l-.2-.09h0c-10.49-4.15-16.74,1.41-20,6.36,1.87-10.48,8-18.78,14.18-27.07,9.45,12.35,21.94,4.72,21.94,4.72-.28-.61-.58-1.17-.88-1.71l-.08-.15h0c-5.65-9.88-14.61-7.46-19.07-5.41,4.06-5.49,8-11.07,10.47-17.38C755.82,231.18,755.88,231,755.94,230.83Z"/><path class="cls-53" d="M288.57,125.74c.75-.88,1.15-1.45,1.15-1.45-.93-.81-1.84-1.55-2.75-2.22l-.06,0h0c-13.41-9.89-24.4-4.17-30.86,1.68,1.64-10.22-.2-20.19-4-29.74,20.66-3.68,23.67-21,24.09-26.72h0v0c.08-1.17.06-1.86.06-1.86-1.16-.11-2.26-.14-3.33-.15h-.29c-17.48,0-22.61,12.3-24.05,21a158.55,158.55,0,0,0-12.14-19.71c22-14.44,10.87-36.71,10.87-36.71-1.17.41-2.25.86-3.28,1.33l-.06,0h0c-14.63,6.76-15.38,18.57-13.59,27l-4.16-5.54c3.46-20.18-11.38-28.95-16.57-31.36h0c-1.08-.5-1.74-.73-1.74-.73-.54,1.12-1,2.2-1.4,3.26l0,.05h0c-8,21.11,10.42,30.22,16.69,32.64,4.15,5.52,8.31,11.15,12.11,16.9-5.55-4.28-13.43-6.65-24-1.77h0l-.08,0c-1,.47-2.06,1-3.13,1.62,0,0,10,23.5,36,15.25,6.22,12.89,9.23,26.49,5.28,41.09-2.12-8.12-8.73-23.13-28.35-19.66h0c-1.13.2-2.28.45-3.49.77,0,0,3.62,24.87,30.23,23.94-.69,1.82-1.47,3.66-2.39,5.51-4.19,8.43-9.47,16-14.91,23.47.14-8.31-2.14-24.78-22.14-26.64v0h-.27c-1.07-.09-2.16-.16-3.33-.16,0,0-.08.69-.11,1.85v0h0c-.11,5.89,1.34,24,22.77,29.14-6.85,9.28-13.68,18.5-18.65,29,1.06-11.28-1.4-27.83-22.77-33.79h0l-.07,0c-1.41-.39-2.89-.74-4.47-1,0,0-9.93,31.85,23.17,45.34-.43,1.36-.83,2.75-1.19,4.16a71,71,0,0,0-1.89,18c-3.91-7.24-11.2-13.46-24.56-14.6h-.08c-1.46-.12-3-.19-4.58-.19,0,0-3.8,32.78,30.62,40.13.58,17-3.37,32.1-13.38,46.16q-1.6,2.25-3.34,4.39c3-13.18,3.87-36.69-24-46.47H162q-2.52-.88-5.35-1.61s-14.05,36.51,22.67,55.63c-16.75,16.95-39.18,28.72-59,41-2.62,1.61-.22,5.75,2.41,4.12,21.06-13,43.29-25.31,60.78-43,38.69,20.62,60.49-13.8,60.49-13.8-1.51-1.22-3-2.31-4.45-3.3l-.07-.06h0c-17.42-11.79-31.75-7.75-41.73-.73A72.68,72.68,0,0,0,207.2,269c0-.33.06-.65.1-1,29.27,15.65,45.77-10.39,45.77-10.39-1.14-.93-2.26-1.75-3.36-2.5l-.06,0h0c-22.18-15-37.7,3.93-42.1,10.37,1-12.94-1.43-25.84-1.22-38.76,29.66,6.43,39.49-20.76,39.49-20.76-1.29-.65-2.54-1.2-3.76-1.69l-.12-.05h0c-18.12-7.18-28.91,2.44-34.56,11,3.22-18.1,13.8-32.43,24.49-46.76,16.31,21.34,37.88,8.16,37.88,8.16-.52-1.13-1.06-2.18-1.62-3.16l0-.05h0c-9.76-17.09-25.25-12.91-32.94-9.37,7-9.47,13.72-19.11,18.06-30,.12-.3.22-.6.33-.9,18.67,9.09,31.25-2.93,35-7.31h0Z"/><path class="cls-54" d="M205,254.73l-5.72-.8-.36.33c-21.58-1.89-32.29,9.24-37.61,20.61a74.58,74.58,0,0,0-5.27-31l-.21-.49c34-.21,36-31.64,36-31.64l-.19,0,.08-.68-4.32-.6-.71.65c-26.85-2-31,23-31.7,30.32-5.36-12.22-13.86-22.68-20.15-34.36,29.79-8.71,25.26-37.89,25.26-37.89h-.28l-.1-1.08-4.35.34-.88,1.25c-19.06,3-23.58,17-24.25,27.27-.15-.41-.32-.8-.46-1.21-6.07-17.69-3.77-35.61-1.25-53.59,25.5,11.87,38.57-10.88,38.57-10.88l-.84-.61.52-.78-3.06-2.08-1.39.41C145,118.8,133.39,132,129.05,138.34c1.77-12.66,3.35-25.34,1.92-38,25.82-1,28.4-25.55,28.4-25.55l-.68-.14L159,73l-3.64-.66-1.93,1.62c-15.16-1-21.65,8.9-24.42,16.89C125.62,80,118.75,71.36,110.17,64.22c20.23-16.25,7.64-37.66,7.64-37.66l0,0,0-.06-3.31,1.67v0c-15.67,8.63-14.23,22.2-11.26,30.68A163.29,163.29,0,0,0,82.51,47.16C95.18,23.34,74.2,8.76,74.2,8.76c-.86,1-1.63,1.93-2.33,2.87h0c-9.84,13.29-4.69,24.3,1.07,31-2.19-1-4.35-2-6.47-2.94C59.64,19.85,42,19.27,36.09,19.65h0c-1.2.08-1.9.2-1.9.2.06,1.27.18,2.47.34,3.61v.07h0C37.74,46.48,58.8,45.6,65.64,44.69c6.45,2.93,13,5.94,19.23,9.24-7.1-1.11-15.37.64-22.5,10.25h0l-.07.1c-.68.92-1.35,1.91-2,3,0,0,20.58,16.26,39.91-4,12,8.53,21.36,19.29,25,34.38C119.3,91.37,106,81.12,90,93.91h0l0,0c-.91.74-1.83,1.54-2.76,2.42,0,0,15.52,20.61,39,6.65.27,2,.47,4,.56,6.14.38,9.64-.62,19.09-1.85,28.48-4-7.56-14.15-21.28-33.08-13.09h0l-.07,0c-1.06.47-2.15,1-3.26,1.6,0,0,9.48,23.85,35.7,16.75-1.57,11.53-3.15,23-2.55,34.66-4.85-10.21-15.05-22.13-35.63-17.55l-1.49-1L80,160.28l.66,2.41.72.09c1.73,6.19,10.69,31.15,42,27.82.24,1.13.49,2.26.79,3.4a73.71,73.71,0,0,0,7.47,17.66c-6.93-4.36-16.25-6.22-28.36-1l-1.24-.55-4.29,2.13,1.09,2.24.51,0c3.07,6.09,16.48,28.15,46.09,19.38,8.67,14.87,12.42,30.22,10.37,47.58-.19,1.59-.43,3.17-.7,4.75-4-13.34-15-33.74-44.21-28.75l-.48-.39-5.66,1.2.6,3,.78.15c2.14,8.94,11.53,36.3,46.45,35.79-6.73,23.52-21.11,45.17-32.94,66-1.56,2.74,2.63,5.28,4.2,2.52,12.54-22.1,26.51-44.13,33.53-68.68,45-.27,47.63-41.89,47.63-41.89h0Z"/><path class="cls-55" d="M705.9,247.2a41.7,41.7,0,0,0-8.84,1.54c.43-.73.84-1.44,1.24-2.11a37.5,37.5,0,0,0,9-2.69c5.34-2.15,9.4-4.57,9.07-5.37s-4.92.28-10.26,2.44a54.43,54.43,0,0,0-6.26,3c.08-.15.17-.29.25-.43.31,0,.7-.58,1.14-1.54,1.75-.76,5.37-3.8,9.18-7.8,4.85-5.1,8.16-9.83,7.38-10.57s-5.33,2.81-10.18,7.91A70.44,70.44,0,0,0,703,237c.59-2.17,1.18-4.72,1.71-7.48,1.5-8,1.88-14.62.83-14.82s-3.12,6.11-4.63,14.1c-1.13,5.93-1.62,11.11-1.37,13.47h0l-1.58,3a2.81,2.81,0,0,0-.31.25c.65-2.06,1.12-6.41,1.14-11.46,0-7-.82-12.75-1.88-12.75s-2,5.69-2,12.73.82,12.75,1.89,12.75a.49.49,0,0,0,.38-.25l.08,0L696,248.84a39.48,39.48,0,0,0-3-8.76c-2.36-5.26-4.92-9.23-5.72-8.87s.47,4.91,2.83,10.17c2,4.45,4.14,8,5.24,8.73l-1.21,2.3a4.48,4.48,0,0,0-1.08.36c-.47-1.47-2.69-4.67-5.7-8.1-3.8-4.34-7.41-7.38-8.07-6.8s1.89,4.55,5.69,8.88,7.37,7.34,8.06,6.8a1.76,1.76,0,0,0,.39.2l-1.31,2.49c-1-1.24-4.13-3.45-8.06-5.62-5-2.78-9.48-4.41-9.9-3.65s3.33,3.64,8.37,6.42c4,2.18,7.51,3.64,9.08,3.82l-1.76,3.35a24.18,24.18,0,0,0-5.28-3.73c-3.72-2-7.08-3.09-7.5-2.32s2.25,3,6,5.09a23.27,23.27,0,0,0,6,2.48l-1.4,2.67a23.5,23.5,0,0,0-5.35-3.8c-3.72-2.05-7.08-3.09-7.5-2.33s2.25,3.05,6,5.1a23.35,23.35,0,0,0,6.1,2.5l-1.52,2.9s-.89,5.6.81.15a24.36,24.36,0,0,1,1.25-3h.24c.59.77,3.73,1.43,7.53,1.54,4.25.12,7.71-.48,7.73-1.36s-3.39-1.68-7.64-1.81a19.92,19.92,0,0,0-7.11.76,2,2,0,0,0-.19-.29q.69-1.38,1.53-3a2.57,2.57,0,0,0,.63,0c.87.7,3.83,1.28,7.36,1.38,4.25.12,7.71-.48,7.74-1.36s-3.4-1.68-7.64-1.8c-3.3-.1-6.13.25-7.23.82a2.22,2.22,0,0,0-.19-.27c.65-1.2,1.34-2.46,2.05-3.74a.26.26,0,0,0,.13-.06,22.4,22.4,0,0,0,6.85,2.16c4.17.79,7.67.84,7.81.1s-3.13-2-7.31-2.75a24.38,24.38,0,0,0-6.86-.55l1.2-2.11a40.45,40.45,0,0,0,9.06,1.07c5.76.17,10.45-.4,10.47-1.28s-4.62-1.71-10.38-1.88a47.8,47.8,0,0,0-8.16.35c.41-.71.81-1.41,1.21-2.09,1.45.5,5.36.61,9.92.22,5.74-.5,10.33-1.61,10.26-2.48S711.64,246.71,705.9,247.2Z"/><path class="cls-56" d="M116,312.52c3.5-5.5,5.41-10.55,4.28-11.27s-4.89,3.16-8.38,8.67c-2.62,4.12-4.36,8-4.58,10a3.41,3.41,0,0,0-.54,0c-.85-1.32-1.77-2.79-2.72-4.36a3.31,3.31,0,0,0,.48-.82c1.61-.61,4.69-4.06,7.6-8.65,3.5-5.5,5.42-10.55,4.29-11.27s-4.89,3.16-8.39,8.67c-2.72,4.28-4.47,8.28-4.59,10.18a5,5,0,0,0-.5.05c-1.08-1.8-2.2-3.7-3.32-5.64a.63.63,0,0,0,0-.23c1.73-.8,4.94-3.62,8.23-7.35,4.31-4.89,7.12-9.46,6.26-10.22s-5.05,2.59-9.37,7.48a37.84,37.84,0,0,0-6.12,8.63l-1.84-3.23A62.55,62.55,0,0,0,105.38,292c4.74-7.46,7.67-14.1,6.54-14.82S106,282,101.27,289.43a74.3,74.3,0,0,0-5.93,11.05c-.62-1.09-1.22-2.18-1.81-3.24,1.8-1.52,5-6.59,8.07-12.92,3.86-8,6-14.9,4.79-15.49s-5.31,5.41-9.16,13.37a63.79,63.79,0,0,0-4.91,12.87l-1.81-3.28c1.19-2.45,2.57-7.76,3.53-14,1.35-8.75,1.36-16,0-16.21s-3.49,6.73-4.83,15.47a82.35,82.35,0,0,0-1,10.61l-.37-.67c.2-.45-.21-1.39-1.14-2.72.37-2.92-.79-10.08-3.08-18.25-2.92-10.4-6.57-18.48-8.15-18s-.49,9.23,2.44,19.64A109.77,109.77,0,0,0,81.4,278c-2.39-2.48-5.3-5.27-8.53-8.13-9.35-8.26-17.81-14-18.89-12.73s5.61,8.92,15,17.18c7,6.14,13.4,10.87,16.7,12.38h0l2.73,4.45c0,.21.06.42.09.6-2.2-2.48-7.58-6.5-14.23-10.5-9.27-5.56-17.46-8.93-18.3-7.52s6,7.05,15.25,12.61,17.46,8.93,18.3,7.53a.81.81,0,0,0,0-.71l.11-.07,2.08,3.39c-2.58-1.07-7.82-2.2-13.93-2.9-8.79-1-16-.75-16.19.58s6.85,3.23,15.64,4.25c7.44.85,13.77.79,15.62-.06l2.09,3.4a6.5,6.5,0,0,0-.36,1.72c-2.31-.54-8.28-.13-15.18,1.15-8.7,1.62-15.55,4-15.31,5.32s7.5,1.08,16.2-.54,15.46-4,15.3-5.29a5.14,5.14,0,0,0,.57-.36l2.26,3.67c-2.43.35-7.81,2.75-13.74,6.23C77,318.17,71.34,322.74,72,323.89s7.41-1.53,15-6c6-3.5,10.7-7.05,12.16-9l3,5a36.84,36.84,0,0,0-9.06,4c-5.63,3.3-9.64,6.91-9,8.07s5.79-.58,11.41-3.88a36.28,36.28,0,0,0,8-6l2.41,3.94a35.76,35.76,0,0,0-9.21,4.08c-5.63,3.3-9.64,6.91-9,8.07s5.79-.58,11.42-3.88a35.58,35.58,0,0,0,8.08-6.09l2.63,4.28s6.7,5.57.84-.94a38.78,38.78,0,0,1-3-4l.19-.33C109.58,321.07,112.91,317.45,116,312.52Z"/></g></g></svg>