<svg xmlns="http://www.w3.org/2000/svg" viewBox="0 0 169.43 128.15"><defs><style>.cls-1{opacity:0.3;}.cls-2{fill:#fcfcfa;}.cls-3{fill:#515151;}.cls-4{fill:#524343;}.cls-5{fill:#929292;}</style></defs><g id="Layer_2" data-name="Layer 2"><g id="Layer_1-2" data-name="Layer 1"><g class="cls-1"><rect class="cls-2" x="1.94" y="76.07" width="38.5" height="38.5" rx="19.25"/><path class="cls-3" d="M21.19,114.7A19.38,19.38,0,1,1,40.57,95.32,19.4,19.4,0,0,1,21.19,114.7Zm0-38.5a19.13,19.13,0,0,0,0,38.25h0a19.13,19.13,0,1,0,0-38.25Z"/></g><path class="cls-3" d="M6.16,128H5.3l.29-1.58H4.73v-.71h1l.42-2.27H5.07v-.72h1.2l.34-1.84h.86l-.34,1.84H8.81l.34-1.84H10l-.33,1.84h.89v.72h-1l-.42,2.27h1.1v.71H9L8.71,128H7.84l.29-1.58H6.45ZM7,123.39l-.42,2.27H8.26l.42-2.27Z"/><path class="cls-3" d="M13.49,122.6V123h1.18v.66H13.49V128h-.84v-4.32h-1V123h1v-.58a1.71,1.71,0,0,1,.1-.54,1.32,1.32,0,0,1,.3-.51,1.53,1.53,0,0,1,.51-.37,1.73,1.73,0,0,1,.75-.14h.36v.86h-.55a.5.5,0,0,0-.46.25A1.15,1.15,0,0,0,13.49,122.6Z"/><path class="cls-3" d="M15.56,125.45a2.79,2.79,0,0,1,.66-2,2.54,2.54,0,0,1,1.93-.71,2.52,2.52,0,0,1,.85.14,1.63,1.63,0,0,1,.59.33V124l-.17-.14a2,2,0,0,0-.3-.17,2.61,2.61,0,0,0-.42-.16,1.51,1.51,0,0,0-.48-.07,1.56,1.56,0,0,0-1.34.59,2.44,2.44,0,0,0-.42,1.45,2.34,2.34,0,0,0,.42,1.44,1.59,1.59,0,0,0,1.34.55,1.7,1.7,0,0,0,.85-.19,2.81,2.81,0,0,0,.52-.38v.77a1.38,1.38,0,0,1-.6.36,2.75,2.75,0,0,1-.84.12,2.61,2.61,0,0,1-1.93-.68A2.79,2.79,0,0,1,15.56,125.45Z"/><path class="cls-3" d="M22.41,122.6V123h1.18v.66H22.41V128h-.84v-4.32h-1V123h1v-.58a1.47,1.47,0,0,1,.1-.54,1.32,1.32,0,0,1,.3-.51,1.35,1.35,0,0,1,.51-.37,1.73,1.73,0,0,1,.75-.14h.36v.86H23a.51.51,0,0,0-.46.25A1.15,1.15,0,0,0,22.41,122.6Z"/><path class="cls-3" d="M24.47,125.45a2.8,2.8,0,0,1,.67-2,2.53,2.53,0,0,1,1.93-.71,2.57,2.57,0,0,1,.85.14,1.72,1.72,0,0,1,.59.33V124l-.17-.14a2,2,0,0,0-.3-.17,2.61,2.61,0,0,0-.42-.16,1.51,1.51,0,0,0-.48-.07,1.54,1.54,0,0,0-1.34.59,2.44,2.44,0,0,0-.43,1.45,2.35,2.35,0,0,0,.43,1.44,1.57,1.57,0,0,0,1.34.55,1.66,1.66,0,0,0,.84-.19,2.93,2.93,0,0,0,.53-.38v.77a1.51,1.51,0,0,1-.6.36,2.75,2.75,0,0,1-.84.12,2.59,2.59,0,0,1-1.93-.68A2.79,2.79,0,0,1,24.47,125.45Z"/><path class="cls-3" d="M31.33,122.6V123H32.5v.66H31.33V128h-.84v-4.32h-1V123h1v-.58a1.7,1.7,0,0,1,.09-.54,1.63,1.63,0,0,1,.3-.51,1.53,1.53,0,0,1,.51-.37,1.73,1.73,0,0,1,.75-.14h.36v.86H32a.51.51,0,0,0-.46.25A1.15,1.15,0,0,0,31.33,122.6Z"/><path class="cls-3" d="M37.25,125v1.62a.74.74,0,0,0,.22.63.56.56,0,0,0,.49.08V128a1,1,0,0,1-.8.08.94.94,0,0,1-.58-.56,1.22,1.22,0,0,1-.6.49,2.23,2.23,0,0,1-.79.16,2.13,2.13,0,0,1-1.43-.48,1.74,1.74,0,0,1-.57-1.41,1.6,1.6,0,0,1,.57-1.29,2.3,2.3,0,0,1,1.48-.47,1.73,1.73,0,0,1,.69.13,1.59,1.59,0,0,1,.5.31,1.78,1.78,0,0,0-.29-1.1,1.07,1.07,0,0,0-.9-.36,3.09,3.09,0,0,0-.91.12,2.21,2.21,0,0,0-.57.26v-.74a2.45,2.45,0,0,1,.66-.25,3.49,3.49,0,0,1,.84-.09,1.94,1.94,0,0,1,1.5.54A2.51,2.51,0,0,1,37.25,125Zm-3.19,1.31a1.21,1.21,0,0,0,1.19,1.19,1.21,1.21,0,0,0,.82-.32,1.27,1.27,0,0,0,0-1.73,1.17,1.17,0,0,0-.82-.33,1.11,1.11,0,0,0-.83.36A1.15,1.15,0,0,0,34.06,126.32Z"/><rect class="cls-3" x="65.53" y="76.07" width="38.5" height="38.5" rx="19.25"/><path class="cls-3" d="M66.33,128h-.86l.29-1.58H64.9v-.71h1l.42-2.27H65.24v-.72h1.2l.34-1.84h.86l-.34,1.84H69l.34-1.84h.86l-.33,1.84h.89v.72h-1l-.42,2.27h1.1v.71H69.16L68.88,128H68l.29-1.58H66.62Zm.84-4.56-.42,2.27h1.68l.42-2.27Z"/><path class="cls-3" d="M74.44,128h-.82v-6.3H72.15v-.56l2.29-.4Z"/><path class="cls-3" d="M81.6,125.37a2.89,2.89,0,0,1-.21,1.11,2.69,2.69,0,0,1-.55.87,2.56,2.56,0,0,1-.83.57,2.52,2.52,0,0,1-1,.21,5.62,5.62,0,0,1-1-.06,1.88,1.88,0,0,1-.52-.2v-.77a3.22,3.22,0,0,0,.51.22,2.86,2.86,0,0,0,1,.12,1.58,1.58,0,0,0,.66-.15,1.5,1.5,0,0,0,.56-.42,2,2,0,0,0,.39-.63,2.23,2.23,0,0,0,.16-.83v-.71a1.79,1.79,0,0,1-.69.77,1.68,1.68,0,0,1-.88.26,2.14,2.14,0,0,1-1.73-.68,2.53,2.53,0,0,1-.6-1.73,3.37,3.37,0,0,1,.2-1.21,2.45,2.45,0,0,1,.52-.83,2.13,2.13,0,0,1,.74-.46,2.57,2.57,0,0,1,.87-.15,2.36,2.36,0,0,1,1.15.26,2.27,2.27,0,0,1,.75.65,2.86,2.86,0,0,1,.4.87,3.68,3.68,0,0,1,.13.88ZM79.16,125a1.57,1.57,0,0,0,1.57-1.67,2.25,2.25,0,0,0-.41-1.31,1.66,1.66,0,0,0-.49-.42,1.45,1.45,0,0,0-.66-.15,1.33,1.33,0,0,0-.63.15,1.62,1.62,0,0,0-.48.42,2.16,2.16,0,0,0-.32.6,2.39,2.39,0,0,0-.1.71,1.81,1.81,0,0,0,.1.61,2.09,2.09,0,0,0,.3.53,1.69,1.69,0,0,0,.49.39A1.46,1.46,0,0,0,79.16,125Z"/><path class="cls-3" d="M84,123.91H85.1a1.26,1.26,0,0,0,.51-.11,1.67,1.67,0,0,0,.44-.31,1.19,1.19,0,0,0,.3-.43,1.11,1.11,0,0,0,.12-.49,1.08,1.08,0,0,0-.36-.83,1.5,1.5,0,0,0-1-.33,2.5,2.5,0,0,0-.51.06,4.77,4.77,0,0,0-.54.15,3.31,3.31,0,0,0-.49.2.77.77,0,0,0-.3.22v-.67a2.22,2.22,0,0,1,.75-.45,2.71,2.71,0,0,1,1.11-.24,2.38,2.38,0,0,1,1.66.53,1.78,1.78,0,0,1,.57,1.37,1.89,1.89,0,0,1-.23.87,1.6,1.6,0,0,1-.72.71,2.22,2.22,0,0,1,1,.78,1.88,1.88,0,0,1,.32,1.08,1.9,1.9,0,0,1-.69,1.54,2.67,2.67,0,0,1-1.78.59,3.37,3.37,0,0,1-1.31-.23,2.17,2.17,0,0,1-.79-.46v-.67a.71.71,0,0,0,.32.23,4.8,4.8,0,0,0,.54.19,6.21,6.21,0,0,0,.62.14,3.18,3.18,0,0,0,.59,0,2,2,0,0,0,1.17-.35,1.13,1.13,0,0,0,.49-1,1.42,1.42,0,0,0-.45-1.11,1.82,1.82,0,0,0-1.29-.42H84Z"/><path class="cls-3" d="M91.36,128.15a3.12,3.12,0,0,1-1-.15,2.25,2.25,0,0,1-.79-.44,2,2,0,0,1-.53-.67,2.13,2.13,0,0,1-.18-.88,1.78,1.78,0,0,1,.35-1.1,2.4,2.4,0,0,1,1-.79,1.83,1.83,0,0,1-.74-.65,1.53,1.53,0,0,1-.24-.82,1.86,1.86,0,0,1,.59-1.4,2.47,2.47,0,0,1,3.16,0,1.91,1.91,0,0,1,.56,1.4,1.54,1.54,0,0,1-.25.82,1.83,1.83,0,0,1-.74.65,2.57,2.57,0,0,1,1,.79,1.81,1.81,0,0,1,.36,1.1,1.92,1.92,0,0,1-.71,1.55A2.74,2.74,0,0,1,91.36,128.15Zm0-3.65a1.89,1.89,0,0,0-1.18.42,1.35,1.35,0,0,0-.5,1.1,1.19,1.19,0,0,0,.51,1,1.91,1.91,0,0,0,1.17.38,2,2,0,0,0,1.21-.38,1.18,1.18,0,0,0,.51-1,1.42,1.42,0,0,0-.46-1.11A1.91,1.91,0,0,0,91.36,124.5Zm0-.61a1.37,1.37,0,0,0,1-.38,1.13,1.13,0,0,0,.4-.87,1.23,1.23,0,0,0-.34-.86,1.32,1.32,0,0,0-1-.38,1.3,1.3,0,0,0-1,.37,1.25,1.25,0,0,0-.35.87,1.17,1.17,0,0,0,.4.87A1.29,1.29,0,0,0,91.36,123.89Z"/><path class="cls-3" d="M96.19,123.91h1a1.26,1.26,0,0,0,.51-.11,1.52,1.52,0,0,0,.44-.31,1.35,1.35,0,0,0,.31-.43,1.24,1.24,0,0,0,.11-.49,1.08,1.08,0,0,0-.36-.83,1.49,1.49,0,0,0-1-.33,2.5,2.5,0,0,0-.51.06,4.94,4.94,0,0,0-.55.15,3.83,3.83,0,0,0-.49.2,1,1,0,0,0-.3.22v-.67a2.28,2.28,0,0,1,.76-.45,2.66,2.66,0,0,1,1.1-.24,2.36,2.36,0,0,1,1.66.53,1.87,1.87,0,0,1,.34,2.24,1.6,1.6,0,0,1-.72.71,2.22,2.22,0,0,1,1,.78,1.81,1.81,0,0,1,.32,1.08,1.9,1.9,0,0,1-.69,1.54,2.65,2.65,0,0,1-1.78.59,3.4,3.4,0,0,1-1.31-.23,2.26,2.26,0,0,1-.79-.46v-.67a.78.78,0,0,0,.32.23,4.8,4.8,0,0,0,.54.19,5.82,5.82,0,0,0,.63.14,3.08,3.08,0,0,0,.59,0,2,2,0,0,0,1.17-.35,1.15,1.15,0,0,0,.48-1,1.42,1.42,0,0,0-.45-1.11,1.82,1.82,0,0,0-1.29-.42h-1Z"/><path class="cls-3" d="M103.48,128h-.82v-6.3h-1.47v-.56l2.29-.4Z"/><rect x="1.94" width="38.5" height="38.5" rx="19.25"/><path class="cls-3" d="M1.43,51.88H.56L.85,50.3H0v-.71H1l.42-2.27H.34V46.6h1.2l.33-1.85h.87L2.4,46.6H4.08l.34-1.85h.86L4.94,46.6h.89v.72h-1l-.42,2.27H5.5v.71H4.26L4,51.88H3.11L3.4,50.3H1.72Zm.84-4.56-.42,2.27H3.53L4,47.32Z"/><path class="cls-3" d="M7.21,48.45a10.72,10.72,0,0,1,.1-1.57,3.45,3.45,0,0,1,.36-1.21,2,2,0,0,1,.72-.79,2.26,2.26,0,0,1,1.19-.28,2.22,2.22,0,0,1,1.18.28,1.9,1.9,0,0,1,.72.79,3.67,3.67,0,0,1,.37,1.21,10.72,10.72,0,0,1,.1,1.57A8.64,8.64,0,0,1,11.83,50a3.47,3.47,0,0,1-.39,1.14,1.85,1.85,0,0,1-.74.73,2.16,2.16,0,0,1-1.12.24,2.17,2.17,0,0,1-1.13-.24,1.78,1.78,0,0,1-.72-.72A3.19,3.19,0,0,1,7.33,50,8.64,8.64,0,0,1,7.21,48.45Zm3.88,0a9.22,9.22,0,0,0-.07-1.2,4,4,0,0,0-.23-1,1.74,1.74,0,0,0-.46-.67,1.11,1.11,0,0,0-.75-.25,1.13,1.13,0,0,0-.77.25,1.72,1.72,0,0,0-.45.67,4,4,0,0,0-.22,1c0,.38-.05.78-.05,1.2s0,.74.05,1.09a3.37,3.37,0,0,0,.22.91,1.5,1.5,0,0,0,.45.63,1.18,1.18,0,0,0,.77.24,1.22,1.22,0,0,0,.75-.23,1.55,1.55,0,0,0,.46-.62,3.27,3.27,0,0,0,.23-.91A7.87,7.87,0,0,0,11.09,48.45Z"/><path class="cls-3" d="M13.28,48.45a12.32,12.32,0,0,1,.1-1.57,3.45,3.45,0,0,1,.36-1.21,2,2,0,0,1,.73-.79,2.19,2.19,0,0,1,1.18-.28,2.22,2.22,0,0,1,1.18.28,2,2,0,0,1,.73.79,3.92,3.92,0,0,1,.36,1.21,10.72,10.72,0,0,1,.1,1.57A8.64,8.64,0,0,1,17.9,50a3.47,3.47,0,0,1-.39,1.14,1.9,1.9,0,0,1-.73.73,2.2,2.2,0,0,1-1.13.24,2.14,2.14,0,0,1-1.12-.24,1.8,1.8,0,0,1-.73-.72A3.19,3.19,0,0,1,13.4,50,8.64,8.64,0,0,1,13.28,48.45Zm3.88,0a9.22,9.22,0,0,0-.07-1.2,4,4,0,0,0-.23-1,1.74,1.74,0,0,0-.46-.67,1.27,1.27,0,0,0-1.51,0,1.53,1.53,0,0,0-.45.67,3.59,3.59,0,0,0-.23,1c0,.38-.05.78-.05,1.2s0,.74.05,1.09a3,3,0,0,0,.23.91,1.35,1.35,0,0,0,.45.63,1.15,1.15,0,0,0,.76.24,1.22,1.22,0,0,0,.75-.23,1.55,1.55,0,0,0,.46-.62,3.27,3.27,0,0,0,.23-.91A7.87,7.87,0,0,0,17.16,48.45Z"/><path class="cls-3" d="M19.36,48.45a12.43,12.43,0,0,1,.09-1.57,3.92,3.92,0,0,1,.36-1.21,2,2,0,0,1,.73-.79,2.63,2.63,0,0,1,2.36,0,2,2,0,0,1,.73.79A3.67,3.67,0,0,1,24,46.88a10.64,10.64,0,0,1,.11,1.57A8.64,8.64,0,0,1,24,50a3.47,3.47,0,0,1-.4,1.14,1.83,1.83,0,0,1-.73.73,2.2,2.2,0,0,1-1.13.24,2.14,2.14,0,0,1-1.12-.24,1.87,1.87,0,0,1-.73-.72,3.39,3.39,0,0,1-.4-1.15A8.7,8.7,0,0,1,19.36,48.45Zm3.87,0a11.47,11.47,0,0,0-.06-1.2,4.45,4.45,0,0,0-.24-1,1.64,1.64,0,0,0-.46-.67,1.27,1.27,0,0,0-1.51,0,1.53,1.53,0,0,0-.45.67,3.59,3.59,0,0,0-.22,1,11.47,11.47,0,0,0-.06,1.2,9.56,9.56,0,0,0,.06,1.09,3,3,0,0,0,.22.91,1.35,1.35,0,0,0,.45.63,1.15,1.15,0,0,0,.76.24,1.22,1.22,0,0,0,.75-.23,1.47,1.47,0,0,0,.46-.62,3.65,3.65,0,0,0,.24-.91A9.79,9.79,0,0,0,23.23,48.45Z"/><path class="cls-3" d="M25.43,48.45a12.43,12.43,0,0,1,.09-1.57,3.92,3.92,0,0,1,.36-1.21,2,2,0,0,1,.73-.79,2.22,2.22,0,0,1,1.18-.28,2.19,2.19,0,0,1,1.18.28,2,2,0,0,1,.73.79,3.67,3.67,0,0,1,.37,1.21,12.32,12.32,0,0,1,.1,1.57A8.64,8.64,0,0,1,30.05,50a3.26,3.26,0,0,1-.4,1.14,1.83,1.83,0,0,1-.73.73,2.17,2.17,0,0,1-1.13.24,2.14,2.14,0,0,1-1.12-.24,1.87,1.87,0,0,1-.73-.72,3.39,3.39,0,0,1-.4-1.15A9.81,9.81,0,0,1,25.43,48.45Zm3.87,0a11.47,11.47,0,0,0-.06-1.2,4,4,0,0,0-.24-1,1.64,1.64,0,0,0-.46-.67,1.08,1.08,0,0,0-.75-.25,1.12,1.12,0,0,0-.76.25,1.53,1.53,0,0,0-.45.67,3.59,3.59,0,0,0-.22,1,11.47,11.47,0,0,0-.06,1.2,9.56,9.56,0,0,0,.06,1.09,3,3,0,0,0,.22.91,1.35,1.35,0,0,0,.45.63,1.33,1.33,0,0,0,1.51,0,1.47,1.47,0,0,0,.46-.62,3.26,3.26,0,0,0,.24-.91A9.79,9.79,0,0,0,29.3,48.45Z"/><path class="cls-3" d="M31.5,48.45a10.72,10.72,0,0,1,.1-1.57A3.45,3.45,0,0,1,32,45.67a1.9,1.9,0,0,1,.72-.79,2.22,2.22,0,0,1,1.18-.28,2.26,2.26,0,0,1,1.19.28,2,2,0,0,1,.72.79,3.67,3.67,0,0,1,.37,1.21,10.72,10.72,0,0,1,.1,1.57A8.64,8.64,0,0,1,36.12,50a3.26,3.26,0,0,1-.4,1.14,1.77,1.77,0,0,1-.73.73,2.76,2.76,0,0,1-2.25,0,1.78,1.78,0,0,1-.72-.72A3.19,3.19,0,0,1,31.61,50,9.81,9.81,0,0,1,31.5,48.45Zm3.88,0a11.4,11.4,0,0,0-.07-1.2,4,4,0,0,0-.23-1,1.76,1.76,0,0,0-.47-.67,1.08,1.08,0,0,0-.75-.25,1.12,1.12,0,0,0-.76.25,1.72,1.72,0,0,0-.45.67,4,4,0,0,0-.22,1,11.55,11.55,0,0,0,0,1.2,9.61,9.61,0,0,0,0,1.09,3.37,3.37,0,0,0,.22.91,1.5,1.5,0,0,0,.45.63,1.33,1.33,0,0,0,1.51,0,1.57,1.57,0,0,0,.47-.62,3.27,3.27,0,0,0,.23-.91A9.72,9.72,0,0,0,35.38,48.45Z"/><path class="cls-3" d="M37.57,48.45a10.72,10.72,0,0,1,.1-1.57A3.45,3.45,0,0,1,38,45.67a2,2,0,0,1,.72-.79,2.26,2.26,0,0,1,1.19-.28,2.22,2.22,0,0,1,1.18.28,1.9,1.9,0,0,1,.72.79,3.67,3.67,0,0,1,.37,1.21,10.72,10.72,0,0,1,.1,1.57A8.64,8.64,0,0,1,42.19,50a3.47,3.47,0,0,1-.39,1.14,1.85,1.85,0,0,1-.74.73,2.76,2.76,0,0,1-2.25,0,1.78,1.78,0,0,1-.72-.72,3.19,3.19,0,0,1-.4-1.15A8.64,8.64,0,0,1,37.57,48.45Zm3.88,0a9.22,9.22,0,0,0-.07-1.2,4,4,0,0,0-.23-1,1.74,1.74,0,0,0-.46-.67,1.11,1.11,0,0,0-.75-.25,1.13,1.13,0,0,0-.77.25,1.72,1.72,0,0,0-.45.67,4,4,0,0,0-.22,1c0,.38,0,.78,0,1.2s0,.74,0,1.09a3.37,3.37,0,0,0,.22.91,1.5,1.5,0,0,0,.45.63,1.18,1.18,0,0,0,.77.24,1.22,1.22,0,0,0,.75-.23,1.55,1.55,0,0,0,.46-.62,3.27,3.27,0,0,0,.23-.91A7.87,7.87,0,0,0,41.45,48.45Z"/><rect class="cls-4" x="65.53" width="38.5" height="38.5" rx="19.25"/><path class="cls-3" d="M65,51.88h-.86l.29-1.58h-.86v-.71h1L65,47.32H63.92V46.6h1.2l.34-1.85h.86L66,46.6h1.68L68,44.75h.86l-.33,1.85h.89v.72h-1L68,49.59h1.1v.71H67.84l-.28,1.58h-.87L67,50.3H65.3Zm.84-4.56-.42,2.27h1.68l.42-2.27Z"/><path class="cls-3" d="M75.09,44.75v.67H72v2.09a3,3,0,0,1,1.25-.13,2.6,2.6,0,0,1,1.09.35,2.19,2.19,0,0,1,.76.78,2.16,2.16,0,0,1,.3,1.14,2.76,2.76,0,0,1-.16.91,2.18,2.18,0,0,1-.46.76,2.13,2.13,0,0,1-.74.53A2.54,2.54,0,0,1,73,52a3.14,3.14,0,0,1-1.24-.2,1.77,1.77,0,0,1-.75-.49v-.66a.85.85,0,0,0,.28.22,2.45,2.45,0,0,0,.46.21,5.08,5.08,0,0,0,.59.15,3.39,3.39,0,0,0,.64.05,1.39,1.39,0,0,0,1.18-.5,1.79,1.79,0,0,0,.4-1.17,1.55,1.55,0,0,0-.23-.84,1.61,1.61,0,0,0-.59-.54,1.75,1.75,0,0,0-.79-.21,2,2,0,0,0-.87.16h-.9V44.75Z"/><path class="cls-3" d="M81.56,51.88H77.22V51a2.91,2.91,0,0,1,.06-.57,2.67,2.67,0,0,1,.21-.62,2.78,2.78,0,0,1,.4-.61,2.73,2.73,0,0,1,.63-.52c.32-.18.59-.35.84-.5a3.91,3.91,0,0,0,.6-.46,1.74,1.74,0,0,0,.37-.51,1.55,1.55,0,0,0,.13-.64,1.2,1.2,0,0,0-.38-.87A1.41,1.41,0,0,0,79,45.34a1.72,1.72,0,0,0-.48.08,3.8,3.8,0,0,0-.51.16,3.15,3.15,0,0,0-.45.22,1.18,1.18,0,0,0-.28.23v-.74a2.82,2.82,0,0,1,.7-.45,2.47,2.47,0,0,1,1-.23,2.31,2.31,0,0,1,1.69.58,1.89,1.89,0,0,1,.59,1.41A2,2,0,0,1,80.84,48a5.57,5.57,0,0,1-1.63,1.18,1.9,1.9,0,0,0-.83.78,2.55,2.55,0,0,0-.29,1.28h3.47Z"/><path class="cls-3" d="M86,44.75h.93v5.18h1v.7h-1v1.26h-.83V50.63H82.88V49.9l2.48-4.76a1,1,0,0,1,.24-.3A.75.75,0,0,1,86,44.75Zm.1.58-2.35,4.6h2.35Z"/><path class="cls-3" d="M90.12,47.84h1a1.13,1.13,0,0,0,.51-.12,1.32,1.32,0,0,0,.44-.3,1.35,1.35,0,0,0,.31-.43,1.24,1.24,0,0,0,.11-.49,1.08,1.08,0,0,0-.36-.83,1.49,1.49,0,0,0-1-.33,2.35,2.35,0,0,0-.51.06,4.94,4.94,0,0,0-.55.15,3.83,3.83,0,0,0-.49.2.68.68,0,0,0-.3.22v-.68a2.6,2.6,0,0,1,.75-.45,2.87,2.87,0,0,1,1.11-.23,2.36,2.36,0,0,1,1.66.53,1.78,1.78,0,0,1,.57,1.37,1.92,1.92,0,0,1-.23.87,1.6,1.6,0,0,1-.72.71,2.27,2.27,0,0,1,1,.77A1.94,1.94,0,0,1,93.74,50a1.92,1.92,0,0,1-.69,1.54,2.65,2.65,0,0,1-1.78.58A3.19,3.19,0,0,1,90,51.85a2.26,2.26,0,0,1-.79-.46v-.67a.8.8,0,0,0,.32.23,4.8,4.8,0,0,0,.54.19l.63.14a3,3,0,0,0,.58,0A2,2,0,0,0,92.41,51a1.14,1.14,0,0,0,.49-1,1.45,1.45,0,0,0-.45-1.11,1.87,1.87,0,0,0-1.29-.41h-1Z"/><path class="cls-3" d="M98.11,44.75H99v5.18h1.06v.7H99v1.26H98.2V50.63H95V49.9l2.49-4.76a1.15,1.15,0,0,1,.23-.3A.8.8,0,0,1,98.11,44.75Zm.09.58-2.35,4.6H98.2Z"/><path class="cls-3" d="M102.26,47.84h1.06a1.19,1.19,0,0,0,.51-.12,1.28,1.28,0,0,0,.43-.3,1.35,1.35,0,0,0,.31-.43,1.14,1.14,0,0,0-.25-1.32,1.48,1.48,0,0,0-1-.33,2.5,2.5,0,0,0-.51.06,4.94,4.94,0,0,0-.55.15,4.53,4.53,0,0,0-.49.2.83.83,0,0,0-.3.22v-.68a3.07,3.07,0,0,1,1.86-.68,2.36,2.36,0,0,1,1.66.53,1.78,1.78,0,0,1,.57,1.37,1.9,1.9,0,0,1-.22.87,1.7,1.7,0,0,1-.72.71,2.4,2.4,0,0,1,1,.77,2.07,2.07,0,0,1-.38,2.63,2.65,2.65,0,0,1-1.78.58,3.22,3.22,0,0,1-1.31-.22,2.37,2.37,0,0,1-.79-.46v-.67a.93.93,0,0,0,.33.23,4.8,4.8,0,0,0,.54.19l.62.14a3.13,3.13,0,0,0,.59,0,2,2,0,0,0,1.17-.35,1.15,1.15,0,0,0,.48-1,1.45,1.45,0,0,0-.45-1.11,1.87,1.87,0,0,0-1.29-.41h-1Z"/><rect class="cls-5" x="129.11" width="38.5" height="38.5" rx="19.25"/><path class="cls-3" d="M128.6,51.88h-.87L128,50.3h-.85v-.71h1l.42-2.27H127.5V46.6h1.2l.34-1.85h.86l-.33,1.85h1.68l.33-1.85h.87l-.34,1.85H133v.72h-1l-.42,2.27h1.1v.71h-1.23l-.29,1.58h-.86l.28-1.58h-1.68Zm.84-4.56L129,49.59h1.68l.42-2.27Z"/><path class="cls-3" d="M139.11,49.3a2.89,2.89,0,0,1-.21,1.11,2.8,2.8,0,0,1-.55.87,2.56,2.56,0,0,1-.83.57,2.52,2.52,0,0,1-1,.21,5.62,5.62,0,0,1-1-.06,1.88,1.88,0,0,1-.52-.2V51a3.22,3.22,0,0,0,.51.22,2.9,2.9,0,0,0,1,.12,1.58,1.58,0,0,0,.66-.15,1.43,1.43,0,0,0,.56-.42,2.1,2.1,0,0,0,.39-.63,2.45,2.45,0,0,0,.17-.83v-.71a1.81,1.81,0,0,1-.7.77,1.78,1.78,0,0,1-.88.26A2.19,2.19,0,0,1,135,49a2.52,2.52,0,0,1-.59-1.73,3.34,3.34,0,0,1,.19-1.21,2.47,2.47,0,0,1,.53-.83,2,2,0,0,1,.73-.46,2.57,2.57,0,0,1,.87-.15,2.23,2.23,0,0,1,1.9.91,2.66,2.66,0,0,1,.4.87,3.23,3.23,0,0,1,.13.88Zm-2.44-.38a1.57,1.57,0,0,0,1.57-1.67,2.39,2.39,0,0,0-.1-.71,2.8,2.8,0,0,0-.3-.6,1.83,1.83,0,0,0-.5-.42,1.45,1.45,0,0,0-.66-.15,1.33,1.33,0,0,0-.63.15,1.75,1.75,0,0,0-.48.42,1.9,1.9,0,0,0-.31.6,2.11,2.11,0,0,0-.11.71,1.61,1.61,0,0,0,.11.61,1.62,1.62,0,0,0,.3.53,1.37,1.37,0,0,0,.48.38A1.33,1.33,0,0,0,136.67,48.92Z"/><path class="cls-3" d="M145.14,51.88H140.8V51a2.91,2.91,0,0,1,.06-.57,2.2,2.2,0,0,1,.22-.62,2.41,2.41,0,0,1,.39-.61,2.59,2.59,0,0,1,.64-.52l.83-.5a3.58,3.58,0,0,0,.61-.46,1.7,1.7,0,0,0,.36-.51,1.41,1.41,0,0,0,.13-.64,1.19,1.19,0,0,0-.37-.87,1.46,1.46,0,0,0-1.07-.38,2.31,2.31,0,0,0-.48.07c-.18.05-.34.11-.5.17a3.15,3.15,0,0,0-.45.22.91.91,0,0,0-.29.23v-.74a2.92,2.92,0,0,1,.71-.45,2.42,2.42,0,0,1,1-.23,2.31,2.31,0,0,1,1.69.58,1.86,1.86,0,0,1,.59,1.41,2,2,0,0,1-.48,1.38,5.57,5.57,0,0,1-1.63,1.18,2,2,0,0,0-.83.78,2.56,2.56,0,0,0-.28,1.28h3.46Z"/><path class="cls-3" d="M151.25,49.3a3.08,3.08,0,0,1-.2,1.11,3,3,0,0,1-.55.87,2.67,2.67,0,0,1-.83.57,2.52,2.52,0,0,1-1,.21,5.68,5.68,0,0,1-1-.06,1.7,1.7,0,0,1-.51-.2V51a3.06,3.06,0,0,0,.5.22,2.9,2.9,0,0,0,1,.12,1.52,1.52,0,0,0,.66-.15,1.46,1.46,0,0,0,.57-.42,2.1,2.1,0,0,0,.39-.63,2.45,2.45,0,0,0,.16-.83v-.71a1.81,1.81,0,0,1-.7.77,1.72,1.72,0,0,1-.87.26,2.21,2.21,0,0,1-1.74-.68,2.57,2.57,0,0,1-.59-1.73,3.33,3.33,0,0,1,.2-1.21,2.31,2.31,0,0,1,.52-.83,2,2,0,0,1,.74-.46,2.49,2.49,0,0,1,.87-.15,2.21,2.21,0,0,1,1.14.26,2.27,2.27,0,0,1,.75.65,2.68,2.68,0,0,1,.41.87,3.63,3.63,0,0,1,.12.88Zm-2.43-.38a1.6,1.6,0,0,0,1.09-.44,1.58,1.58,0,0,0,.48-1.23,2.4,2.4,0,0,0-.11-.71,2.11,2.11,0,0,0-.3-.6,1.7,1.7,0,0,0-.5-.42,1.38,1.38,0,0,0-.65-.15,1.33,1.33,0,0,0-.63.15,1.79,1.79,0,0,0-.49.42,2.13,2.13,0,0,0-.31.6,2.4,2.4,0,0,0-.11.71,1.83,1.83,0,0,0,.11.61,1.62,1.62,0,0,0,.3.53,1.51,1.51,0,0,0,.49.38A1.28,1.28,0,0,0,148.82,48.92Z"/><path class="cls-3" d="M157.29,51.88h-4.35V51a2.91,2.91,0,0,1,.06-.57,2.2,2.2,0,0,1,.22-.62,3.13,3.13,0,0,1,.39-.61,2.59,2.59,0,0,1,.64-.52l.84-.5a3.91,3.91,0,0,0,.6-.46,2,2,0,0,0,.37-.51,1.56,1.56,0,0,0,.12-.64,1.19,1.19,0,0,0-.37-.87,1.44,1.44,0,0,0-1.07-.38,2.31,2.31,0,0,0-.48.07l-.5.17a3.15,3.15,0,0,0-.45.22A.86.86,0,0,0,153,46v-.74a2.82,2.82,0,0,1,.7-.45,2.43,2.43,0,0,1,1-.23,2.29,2.29,0,0,1,1.68.58,1.87,1.87,0,0,1,.6,1.41,2,2,0,0,1-.48,1.38,5.71,5.71,0,0,1-1.63,1.18,1.85,1.85,0,0,0-.83.78,2.55,2.55,0,0,0-.29,1.28h3.47Z"/><path class="cls-3" d="M163.4,49.3a2.89,2.89,0,0,1-.21,1.11,3,3,0,0,1-.55.87,2.56,2.56,0,0,1-.83.57,2.52,2.52,0,0,1-1,.21,5.62,5.62,0,0,1-1-.06,1.88,1.88,0,0,1-.52-.2V51a3.22,3.22,0,0,0,.51.22,2.86,2.86,0,0,0,1,.12,1.58,1.58,0,0,0,.66-.15,1.5,1.5,0,0,0,.56-.42,2.1,2.1,0,0,0,.39-.63,2.45,2.45,0,0,0,.16-.83v-.71a1.79,1.79,0,0,1-1.57,1,2.17,2.17,0,0,1-1.73-.68,2.53,2.53,0,0,1-.6-1.73,3.33,3.33,0,0,1,.2-1.21,2.45,2.45,0,0,1,.52-.83,2.13,2.13,0,0,1,.74-.46,2.57,2.57,0,0,1,.87-.15,2.23,2.23,0,0,1,1.9.91,2.66,2.66,0,0,1,.4.87,3.68,3.68,0,0,1,.13.88ZM161,48.92a1.57,1.57,0,0,0,1.57-1.67,2.25,2.25,0,0,0-.41-1.31,1.66,1.66,0,0,0-.49-.42,1.45,1.45,0,0,0-.66-.15,1.33,1.33,0,0,0-.63.15,1.62,1.62,0,0,0-.48.42,1.93,1.93,0,0,0-.32.6,2.39,2.39,0,0,0-.1.71,1.75,1.75,0,0,0,.4,1.14,1.51,1.51,0,0,0,.49.38A1.33,1.33,0,0,0,161,48.92Z"/><path class="cls-3" d="M169.43,51.88h-4.34V51a2.91,2.91,0,0,1,.06-.57,2.52,2.52,0,0,1,.21-.62,2.78,2.78,0,0,1,.4-.61,2.59,2.59,0,0,1,.64-.52l.83-.5a4,4,0,0,0,.61-.46,1.7,1.7,0,0,0,.36-.51,1.41,1.41,0,0,0,.13-.64,1.23,1.23,0,0,0-.37-.87,1.46,1.46,0,0,0-1.07-.38,2.14,2.14,0,0,0-.48.07l-.51.17a4.71,4.71,0,0,0-.45.22,1,1,0,0,0-.28.23v-.74a3,3,0,0,1,.7-.45,2.47,2.47,0,0,1,1-.23,2.31,2.31,0,0,1,1.69.58,1.89,1.89,0,0,1,.59,1.41,2,2,0,0,1-.48,1.38,5.57,5.57,0,0,1-1.63,1.18,1.9,1.9,0,0,0-.83.78,2.55,2.55,0,0,0-.29,1.28h3.47Z"/></g></g></svg>