<svg xmlns="http://www.w3.org/2000/svg" viewBox="0 0 201.6 89.11"><defs><style>.cls-1{fill:#515151;}</style></defs><g id="Layer_2" data-name="Layer 2"><g id="Layer_1-2" data-name="Layer 1"><path d="M45.83,13.59V13a1.35,1.35,0,0,0,.94-.32,1.19,1.19,0,0,0,.27-.77c0-.33,0-.71,0-1.13V3c0-.24,0-.47,0-.7s0-.42,0-.6l-.65,0-.65,0V1h4.05v.59a1.33,1.33,0,0,0-.93.31,1.18,1.18,0,0,0-.28.77q0,.5,0,1.14v7.72c0,.32,0,.6,0,.83a4,4,0,0,1-.05.57L52,12.87a2.14,2.14,0,0,0,1.72-.72,3.58,3.58,0,0,0,.58-2.29h.62l-.11,3.73Z"/><path d="M62.12,13.88a6.72,6.72,0,0,1-2.93-.58,5.41,5.41,0,0,1-2-1.54,6.43,6.43,0,0,1-1.13-2.13,7.92,7.92,0,0,1-.36-2.34A7.49,7.49,0,0,1,56.09,5a6.71,6.71,0,0,1,1.16-2.13,5.79,5.79,0,0,1,2-1.56A6,6,0,0,1,62,.7a6.38,6.38,0,0,1,2.86.6,5.84,5.84,0,0,1,2,1.57A7.06,7.06,0,0,1,68,5a7.38,7.38,0,0,1,.38,2.29A7.44,7.44,0,0,1,68,9.57a6.79,6.79,0,0,1-1.17,2.14,5.78,5.78,0,0,1-2,1.57A6,6,0,0,1,62.12,13.88Zm0-.74a3.8,3.8,0,0,0,1.94-.48,4.11,4.11,0,0,0,1.38-1.28A5.92,5.92,0,0,0,66.3,9.6a7,7,0,0,0,.28-2,8.35,8.35,0,0,0-.3-2.21,7.41,7.41,0,0,0-.9-2A5,5,0,0,0,63.91,2a3.61,3.61,0,0,0-2-.55,3.77,3.77,0,0,0-2,.49,4.26,4.26,0,0,0-1.39,1.28A6.38,6.38,0,0,0,57.75,5a7.4,7.4,0,0,0-.27,2A8.53,8.53,0,0,0,57.75,9a7.48,7.48,0,0,0,.86,2,4.59,4.59,0,0,0,1.46,1.51A3.68,3.68,0,0,0,62.16,13.14Z"/><path d="M70,13.59V13a1.35,1.35,0,0,0,.94-.32,1.19,1.19,0,0,0,.28-.77c0-.33,0-.71,0-1.13V3c0-.24,0-.47,0-.7s0-.42,0-.6l-.65,0-.65,0V1l2,0c.69,0,1.38,0,2.08,0a8.57,8.57,0,0,1,2.81.41,3.22,3.22,0,0,1,1.58,1.09A3,3,0,0,1,79,4.19a3.65,3.65,0,0,1-.26,1.43,3,3,0,0,1-1,1.31,5,5,0,0,1-2.09.86,2.6,2.6,0,0,1,.63.65l.61.92,1.22,1.93c.21.32.4.61.6.87a2.24,2.24,0,0,0,.66.61,1.82,1.82,0,0,0,.94.23v.59H78.05a5.77,5.77,0,0,1-.87-.94c-.24-.31-.48-.66-.73-1.06L75.24,9.67c-.15-.26-.33-.55-.53-.88A3.53,3.53,0,0,0,74,8H72.81v3.49c0,.32,0,.6,0,.83a4.55,4.55,0,0,1,0,.59l.43,0,.43,0a3.17,3.17,0,0,1,.43,0v.79Zm3.93-6.3A5.34,5.34,0,0,0,75.67,7a2.5,2.5,0,0,0,1.17-.92,2.86,2.86,0,0,0,.44-1.66,3.68,3.68,0,0,0-.19-1.2,2,2,0,0,0-.59-.85,2.47,2.47,0,0,0-1-.51,5.08,5.08,0,0,0-1.44-.17,1.25,1.25,0,0,0-.92.27,1.09,1.09,0,0,0-.29.74c0,.32,0,.7,0,1.13V7.25l.55,0Z"/><path d="M81.09,13.59V13a1.13,1.13,0,0,0,.83-.29,2.31,2.31,0,0,0,.48-.79c.12-.34.27-.73.44-1.17L86.55.65H87l4,10.24c.1.25.21.58.33,1a2.83,2.83,0,0,1,.14,1l.61,0,.61,0v.79H88.56V13a1.15,1.15,0,0,0,.9-.31.85.85,0,0,0,.16-.68,2.53,2.53,0,0,0-.18-.72l-.63-1.7-4.68.11-.63,1.93c-.08.29-.16.51-.22.68s-.14.36-.23.56l.71,0,.7,0v.79ZM84.4,8.93h4.16L87.28,5.49c-.13-.37-.26-.74-.4-1.11s-.27-.73-.41-1.1h0l-.37,1-.39,1Z"/><path d="M98.19,13.59V13a1.35,1.35,0,0,0,.94-.32,1.19,1.19,0,0,0,.28-.77c0-.33,0-.71,0-1.13V3c0-.24,0-.47,0-.7s0-.42,0-.6l-.65,0-.65,0V1l2,0c.69,0,1.39,0,2.08,0a8.59,8.59,0,0,1,2.82.41,3.26,3.26,0,0,1,1.58,1.09,3,3,0,0,1,.5,1.72A3.84,3.84,0,0,1,107,5.62a3,3,0,0,1-1,1.31,5.13,5.13,0,0,1-2.1.86,2.6,2.6,0,0,1,.63.65l.62.92,1.22,1.93c.2.32.4.61.59.87a2.4,2.4,0,0,0,.67.61,1.79,1.79,0,0,0,.94.23v.59h-2.27a6.35,6.35,0,0,1-.88-.94c-.23-.31-.47-.66-.72-1.06l-1.21-1.92-.53-.88a3.32,3.32,0,0,0-.68-.83H101v3.49c0,.32,0,.6,0,.83s0,.43,0,.59l.43,0,.43,0a3.1,3.1,0,0,1,.43,0v.79Zm3.93-6.3A5.33,5.33,0,0,0,103.85,7,2.52,2.52,0,0,0,105,6.05a2.86,2.86,0,0,0,.43-1.66,3.44,3.44,0,0,0-.19-1.2,2,2,0,0,0-.58-.85,2.47,2.47,0,0,0-1-.51,5.17,5.17,0,0,0-1.44-.17,1.29,1.29,0,0,0-.93.27,1.08,1.08,0,0,0-.28.74c0,.32,0,.7,0,1.13V7.25l.55,0Z"/><path d="M113.53,13.88a4.33,4.33,0,0,1-2.24-.59,4.19,4.19,0,0,1-1.58-1.65,5.34,5.34,0,0,1-.57-2.53,5,5,0,0,1,.56-2.36A4.62,4.62,0,0,1,111.3,5a4.2,4.2,0,0,1,2.37-.68,4,4,0,0,1,1.41.24,3.42,3.42,0,0,1,1.17.74A3.57,3.57,0,0,1,117,6.52a5,5,0,0,1,.29,1.76L111,8.39a8.65,8.65,0,0,0,.3,2.4,3.17,3.17,0,0,0,1,1.6A2.52,2.52,0,0,0,114,13a3.6,3.6,0,0,0,1.14-.2,4.43,4.43,0,0,0,1.09-.54,3.28,3.28,0,0,0,.81-.75l.43.36a4,4,0,0,1-1.17,1.2,4.79,4.79,0,0,1-1.4.65A5.11,5.11,0,0,1,113.53,13.88ZM111,7.63h4.59a4,4,0,0,0-.19-1.25,2.12,2.12,0,0,0-.62-1A1.6,1.6,0,0,0,113.69,5a2.52,2.52,0,0,0-1.74.62A3.37,3.37,0,0,0,111,7.63Z"/><path d="M123.27,18.47a7.76,7.76,0,0,1-2.61-.36,3.23,3.23,0,0,1-1.44-.92,1.82,1.82,0,0,1-.45-1.15,1.77,1.77,0,0,1,.26-1,2.65,2.65,0,0,1,.64-.73,2.76,2.76,0,0,1,.75-.45,2.35,2.35,0,0,1-.91-.53,1.22,1.22,0,0,1-.33-.89,1.73,1.73,0,0,1,.5-1.18,2.2,2.2,0,0,1,1.3-.68,3.31,3.31,0,0,1-1.32-1.1,2.74,2.74,0,0,1-.5-1.63A3.27,3.27,0,0,1,119.72,6a3.89,3.89,0,0,1,1.43-1.24A4,4,0,0,1,123,4.3a4.5,4.5,0,0,1,1.19.17,4.38,4.38,0,0,1,1.1.5,2.66,2.66,0,0,1,.51-.9,2.47,2.47,0,0,1,.76-.62,1.94,1.94,0,0,1,.9-.23,1,1,0,0,1,.71.24.89.89,0,0,1,.25.66,1,1,0,0,1-.07.31.65.65,0,0,1-.25.3.83.83,0,0,1-1-.05.78.78,0,0,1-.25-.45,1,1,0,0,0-.7.42,2.07,2.07,0,0,0-.35.77,3,3,0,0,1,.7,1,2.83,2.83,0,0,1,.26,1.19,3.2,3.2,0,0,1-.53,1.8,3.62,3.62,0,0,1-1.4,1.23A4,4,0,0,1,123,11a3.34,3.34,0,0,1-.59,0,3.61,3.61,0,0,0-.62-.05,1.7,1.7,0,0,0-1.08.33.67.67,0,0,0-.28.77c.09.29.38.47.88.55a16.43,16.43,0,0,0,2,.17,10.91,10.91,0,0,1,2.37.33,3.13,3.13,0,0,1,1.52.83,2.14,2.14,0,0,1,.54,1.54,2.23,2.23,0,0,1-.39,1.29,3.12,3.12,0,0,1-1,.94,5,5,0,0,1-1.42.58A6.5,6.5,0,0,1,123.27,18.47Zm0-.7a4.36,4.36,0,0,0,2.41-.58,1.61,1.61,0,0,0,.86-1.35,1.23,1.23,0,0,0-.45-1,2.79,2.79,0,0,0-1.22-.48,12.77,12.77,0,0,0-1.78-.16l-1,0a8.54,8.54,0,0,1-.9-.1,2.45,2.45,0,0,0-.75.79,1.94,1.94,0,0,0-.27,1,1.61,1.61,0,0,0,.83,1.41A4.07,4.07,0,0,0,123.25,17.77ZM123,10.39a1.79,1.79,0,0,0,1.11-.33,2,2,0,0,0,.67-.88A3.33,3.33,0,0,0,125,7.92a4.73,4.73,0,0,0-.23-1.48,2.54,2.54,0,0,0-.7-1.09,1.64,1.64,0,0,0-1.16-.42,1.73,1.73,0,0,0-1.5.73,3,3,0,0,0-.53,1.81A4.18,4.18,0,0,0,121.14,9a2.33,2.33,0,0,0,.73,1A1.85,1.85,0,0,0,123,10.39Z"/><path d="M132.68,13.88a3.36,3.36,0,0,1-1.63-.36,2.23,2.23,0,0,1-1-1.23,6.69,6.69,0,0,1-.33-2.34V6.75c0-.19,0-.38,0-.58a3,3,0,0,1,.06-.59l-.62,0-.62,0V4.9h.56a3,3,0,0,0,1.12-.16,2,2,0,0,0,.55-.33h.52V9.9a4.8,4.8,0,0,0,.44,2.31,1.58,1.58,0,0,0,1.51.75,2.44,2.44,0,0,0,1.3-.42,3.43,3.43,0,0,0,1-1V7c0-.29,0-.54,0-.75a4.2,4.2,0,0,1,.07-.62l-.65,0-.65,0V4.9h.56A3.07,3.07,0,0,0,136,4.74a2.16,2.16,0,0,0,.55-.33h.52l0,6.8c0,.2,0,.47,0,.81s0,.65,0,.89l.65,0,.64,0v.76h-2.57c0-.2-.06-.4-.08-.58s0-.34,0-.5a5.28,5.28,0,0,1-1.35,1A3.44,3.44,0,0,1,132.68,13.88Z"/><path d="M139.45,13.05a.9.9,0,0,0,.77-.28,1.41,1.41,0,0,0,.25-.77c0-.33,0-.71,0-1.15V2.34c0-.19,0-.38,0-.55s0-.38,0-.62l-.64,0-.64,0V.49a7.82,7.82,0,0,0,1.24-.08,2,2,0,0,0,.66-.18,1.25,1.25,0,0,0,.35-.23h.53V11.68c0,.24,0,.45,0,.64s0,.38-.08.59l.57,0,.57,0v.74h-3.67Z"/><path d="M150,13.59c0-.2-.06-.38-.07-.54s0-.32,0-.49a5.21,5.21,0,0,1-1.32,1,3.45,3.45,0,0,1-1.51.35,2.9,2.9,0,0,1-2-.62,2,2,0,0,1-.67-1.52,2.13,2.13,0,0,1,.52-1.44,3.89,3.89,0,0,1,1.33-1A7.57,7.57,0,0,1,148,8.74a8.59,8.59,0,0,1,1.86-.17V7.45a5.73,5.73,0,0,0-.11-1.19,1.69,1.69,0,0,0-.46-.91A1.64,1.64,0,0,0,148.1,5a2.63,2.63,0,0,0-1.07.2,1.47,1.47,0,0,0-.8.73.68.68,0,0,1,.19.34,1.48,1.48,0,0,1,.05.35.93.93,0,0,1-.18.49.63.63,0,0,1-.63.26.66.66,0,0,1-.58-.26,1,1,0,0,1-.2-.62,1.6,1.6,0,0,1,.46-1.1,3.22,3.22,0,0,1,1.27-.77,5.51,5.51,0,0,1,1.84-.29,2.88,2.88,0,0,1,2.23.8,3.68,3.68,0,0,1,.7,2.53V9c0,.45,0,.9,0,1.35s0,.91,0,1.36a5.62,5.62,0,0,1,0,.58c0,.19,0,.41-.05.65l.64,0,.64,0v.76Zm-.16-4.41a7.41,7.41,0,0,0-1.28.15,5.39,5.39,0,0,0-1.25.41,2.49,2.49,0,0,0-.91.71,1.56,1.56,0,0,0-.34,1.07,1.34,1.34,0,0,0,.44,1,1.48,1.48,0,0,0,1,.33,2.72,2.72,0,0,0,1.28-.28,4.42,4.42,0,0,0,1.09-.78c0-.13,0-.28,0-.43v-.49c0-.06,0-.25,0-.57S149.83,9.6,149.83,9.18Z"/><path d="M153.81,13.05a.9.9,0,0,0,.77-.28,1.41,1.41,0,0,0,.26-.77c0-.33,0-.71,0-1.15V6.75c0-.19,0-.38,0-.58s0-.39.06-.59l-.63,0-.64,0V4.9h.55a2.64,2.64,0,0,0,1.08-.16,2.33,2.33,0,0,0,.49-.33h.52c0,.19,0,.43.06.71s0,.64,0,1.07a4.17,4.17,0,0,1,.74-.88,4.25,4.25,0,0,1,1.05-.72,2.79,2.79,0,0,1,1.24-.29,1.48,1.48,0,0,1,.88.27,1,1,0,0,1,.38.87,1,1,0,0,1-.09.35,1.07,1.07,0,0,1-.29.36.84.84,0,0,1-.52.15.79.79,0,0,1-.63-.32.83.83,0,0,1-.18-.69,1.84,1.84,0,0,0-.93.24,3,3,0,0,0-.89.69,5,5,0,0,0-.74,1l0,4.43c0,.24,0,.45,0,.64s0,.38-.06.59l.56,0,.57,0v.74h-3.69Z"/><path d="M50.57,30.66H52l5.42,12.75H55.64l-1.29-3.14H48l-1.31,3.14H45Zm.68,1.94h0l-2.64,6.27h5.2Z"/><path d="M62.36,43.41H60.81L57.37,35H59l2.63,6.61h0L64.17,35h1.52Z"/><path d="M74.72,41.88A4.31,4.31,0,0,1,71,43.62a4.17,4.17,0,0,1-4.27-4.43A4.21,4.21,0,0,1,71,34.77c2.38,0,4,1.62,4,4.41v.45H68.22A2.83,2.83,0,0,0,71,42.33a3.14,3.14,0,0,0,2.68-1.28Zm-1.2-3.44A2.35,2.35,0,0,0,71,36.06a2.62,2.62,0,0,0-2.76,2.38Z"/><path d="M77.2,37c0-.77-.07-1.44-.07-2h1.33c0,.45,0,.92,0,1.39h0a3.05,3.05,0,0,1,2.81-1.6c2.21,0,3.2,1.4,3.2,3.43v5.21h-1.4V38.35c0-1.41-.62-2.29-1.93-2.29-1.82,0-2.61,1.32-2.61,3.24v4.11H77.2Z"/><path d="M88,30.66a1,1,0,0,1,1,1,1,1,0,0,1-2.06,0A1,1,0,0,1,88,30.66ZM87.34,35h1.4v8.43h-1.4Z"/><path d="M91.53,37c0-.77-.07-1.44-.07-2h1.33c0,.45,0,.92,0,1.39h0a3.07,3.07,0,0,1,2.81-1.6,1.73,1.73,0,0,1,.58.08l-.09,1.43a2.68,2.68,0,0,0-.76-.11c-1.71,0-2.46,1.21-2.46,3.13v4.11H91.53Z"/><path d="M98.12,30.66h1.51V42h5.84v1.41H98.12Z"/><path d="M114,32.06H109.8V43.41h-1.51V32.06h-4.21v-1.4H114Z"/><path d="M121.85,32.91a2.67,2.67,0,0,0-2.33-1.17c-1.33,0-2.72.63-2.72,2.14,0,1.17.65,1.7,2.69,2.34S123.3,37.5,123.3,40s-2.17,3.73-4.48,3.73A4.6,4.6,0,0,1,114.9,42l1.29-1.07a3.09,3.09,0,0,0,2.72,1.43c1.3,0,2.77-.76,2.77-2.22s-1.06-1.83-3.33-2.59c-1.8-.59-3.17-1.39-3.17-3.51,0-2.45,2.11-3.67,4.34-3.67a4.37,4.37,0,0,1,3.57,1.49Z"/><path d="M130.16,36.17h-2.48v4.21c0,1.08,0,1.95,1.26,1.95a2.72,2.72,0,0,0,1.24-.29l0,1.28a4.34,4.34,0,0,1-1.64.3c-2,0-2.32-1.08-2.32-2.82V36.17h-1.83V35h1.83V32.59h1.41V35h2.48Z"/><path d="M138.89,41.91h0a3.65,3.65,0,0,1-3.25,1.71,4.43,4.43,0,0,1,.22-8.85,3.92,3.92,0,0,1,3,1.44h0V29.8h1.41V43.41h-1.41Zm-3-5.85a3.14,3.14,0,1,0,3,3.13A2.94,2.94,0,0,0,135.9,36.06Z"/><path d="M148.14,30.66h3.26c2.47,0,5.08.36,5.08,3.51,0,1.86-1.21,3.06-3.19,3.37l3.62,5.87h-1.85l-3.46-5.73h-1.95v5.73h-1.51Zm1.51,5.62H151c1.68,0,3.86,0,3.86-2.11,0-1.84-1.6-2.11-3.08-2.11h-2.13Z"/><path d="M162.9,34.77a4.43,4.43,0,1,1-4.5,4.42A4.29,4.29,0,0,1,162.9,34.77Zm0,7.56a3.14,3.14,0,1,0-3-3.14A2.94,2.94,0,0,0,162.9,42.33Z"/><path d="M169.58,37c0-.77-.07-1.44-.07-2h1.33c0,.45,0,.92,0,1.39h0a3.05,3.05,0,0,1,2.81-1.6,2.61,2.61,0,0,1,2.67,1.6,2.91,2.91,0,0,1,2.66-1.6c2.41,0,3.21,1.35,3.21,3.52v5.12h-1.41v-5c0-1.17-.41-2.31-2-2.31a2.27,2.27,0,0,0-2.18,2.49v4.86h-1.41V38.64c0-1.86-.46-2.58-1.62-2.58-1.81,0-2.61,1.32-2.61,3.24v4.11h-1.4Z"/><path d="M184.81,36.06a4.68,4.68,0,0,1,3.35-1.29c2.48,0,3.53,1.18,3.53,3.56V42a9.59,9.59,0,0,0,.12,1.46h-1.35a6,6,0,0,1-.09-1.26h0a3.17,3.17,0,0,1-2.77,1.47c-1.71,0-3.13-.86-3.13-2.5,0-2.79,3.24-2.95,5.31-2.95h.54v-.25c0-1.23-.77-1.86-2.09-1.86a3.75,3.75,0,0,0-2.5.92Zm4.07,3.3c-1.79,0-2.94.48-2.94,1.62s.79,1.46,1.86,1.46a2.4,2.4,0,0,0,2.48-2.54v-.54Z"/><path d="M194.26,37c0-.77-.07-1.44-.07-2h1.33c0,.45,0,.92,0,1.39h0a3.05,3.05,0,0,1,2.81-1.6c2.21,0,3.2,1.4,3.2,3.43v5.21h-1.4V38.35c0-1.41-.61-2.29-1.93-2.29-1.82,0-2.61,1.32-2.61,3.24v4.11h-1.4Z"/><path d="M47.48,74.35v8.06c0,.25.09.34.34.34a49.74,49.74,0,0,0,6.88-.43c.29,0,.49.16.54.49s-.09.63-.38.66a53.14,53.14,0,0,1-7.47.42c-.94,0-1.24-.29-1.24-1.21V74.35c0-.38.32-.54.66-.54S47.48,74,47.48,74.35Zm10.46-1.1v5h2.29c.32,0,.47.27.47.58s-.15.59-.47.59H57.94v8.14c0,.38-.32.54-.66.54s-.65-.16-.65-.54V73.25c0-.38.32-.54.65-.54S57.94,72.87,57.94,73.25Z"/><path d="M74.61,84.79V87.9c0,.92-.31,1.21-1.24,1.21H65.12c-.94,0-1.24-.29-1.24-1.21V84.79c0-.92.3-1.21,1.24-1.21H68.6V81.49H62.19c-.31,0-.45-.25-.45-.55s.14-.56.45-.56H76.3c.31,0,.45.25.45.56s-.14.55-.45.55H69.89v2.09h3.48C74.3,83.58,74.61,83.87,74.61,84.79ZM65.23,73.63v3.56c0,.25.11.32.34.32h8.86c.31,0,.45.27.45.56s-.14.58-.45.58H65.16c-.94,0-1.25-.29-1.25-1.21V73.63c0-.38.31-.54.67-.54S65.23,73.25,65.23,73.63Zm0,11.37v2.69c0,.23.08.32.34.32H73c.25,0,.34-.09.34-.32V85c0-.23-.09-.32-.34-.32H65.52C65.26,84.68,65.18,84.77,65.18,85Z"/><path d="M93.13,85.89c0,.3-.14.56-.47.56H78.58c-.32,0-.46-.26-.46-.56s.14-.6.46-.6H92.66C93,85.29,93.13,85.56,93.13,85.89ZM86.29,74v1.17a3.36,3.36,0,0,0,1.82,3.42c1.06.69,2.27,1.41,3.6,2.15.25.12.27.52.11.79a.56.56,0,0,1-.76.25c-1.11-.61-2.41-1.37-3.44-2-1.33-.85-1.83-1.46-2-2h0c-.14.51-.64,1.12-2,2-1,.67-2.32,1.43-3.44,2a.57.57,0,0,1-.77-.27c-.16-.27-.14-.67.11-.79,1.33-.74,2.54-1.46,3.6-2.15A3.36,3.36,0,0,0,85,75.19V74a.59.59,0,0,1,.66-.56C86,73.46,86.29,73.64,86.29,74Z"/><path d="M103.37,80.76c0,.3-.12.57-.41.59-1.19.09-2.36.16-3.53.2v5.27c0,.38-.33.54-.65.54s-.65-.16-.65-.54V81.57c-1.13,0-2.25,0-3.36,0-.33,0-.47-.27-.47-.56s.14-.55.47-.55c1.67,0,3.49,0,5.47-.09a13.28,13.28,0,0,0,.47-2.34l-5.12.09c-.32,0-.46-.24-.46-.56s.14-.58.45-.58L100.8,77c0-.24,0-.47,0-.71v-1c0-.23-.09-.32-.35-.32H95.86c-.3,0-.45-.26-.45-.56s.15-.58.45-.58h5c.94,0,1.24.29,1.24,1.21v1.15a14.65,14.65,0,0,1-.59,4.23l1.39-.09C103.16,80.23,103.35,80.43,103.37,80.76Zm2.22-7.42V87c0,.36-.31.52-.62.52s-.63-.16-.63-.52V84.23h-2.53c-.29,0-.44-.25-.44-.56s.15-.56.44-.56h2.53V73.34c0-.34.31-.51.63-.51A.55.55,0,0,1,105.59,73.34Zm3-.11V87.6c0,.36-.3.52-.63.52a.54.54,0,0,1-.61-.52V73.23a.54.54,0,0,1,.61-.52C108.29,72.71,108.59,72.87,108.59,73.23Z"/><path d="M124.34,73.25V87.58c0,.38-.32.54-.64.54s-.65-.16-.65-.54V79.5h-3.5c-.14,3.06-1.49,4.69-4,4.69-2.67,0-4.05-1.83-4.05-5.25s1.38-5.26,4.05-5.26c2.5,0,3.87,1.64,4,4.68h3.5V73.25c0-.38.3-.54.65-.54S124.34,72.87,124.34,73.25Zm-11.56,5.69c0,2.61.83,4.08,2.76,4.08s2.75-1.47,2.75-4.08-.82-4.09-2.75-4.09S112.78,76.33,112.78,78.94Z"/><path d="M135.18,75.07v3.31c0,.92-.31,1.21-1.24,1.21h-4.29c-.25,0-.34.09-.34.32v3c0,.24.09.33.34.33a47.16,47.16,0,0,0,6.95-.44c.29,0,.49.18.54.49s-.09.63-.38.67a55.29,55.29,0,0,1-7.51.41c-.93,0-1.24-.29-1.24-1.21V79.69c0-.91.31-1.2,1.24-1.2h4.29c.23,0,.34-.09.34-.34V75.32c0-.24-.11-.33-.34-.33h-5.08c-.3,0-.45-.25-.45-.57s.15-.56.45-.56h5.48C134.87,73.86,135.18,74.15,135.18,75.07Zm4.66-1.82v5h2.29c.32,0,.47.27.47.58s-.15.59-.47.59h-2.29v8.14c0,.38-.32.54-.67.54s-.64-.16-.64-.54V73.25c0-.38.32-.54.64-.54S139.84,72.87,139.84,73.25Z"/><path d="M158.65,81.75c0,.3-.14.55-.45.55H152v2.9c0,.36-.29.51-.65.51s-.64-.15-.64-.51V82.3h-6.6c-.3,0-.44-.25-.44-.55s.14-.56.44-.56H158.2C158.51,81.19,158.65,81.44,158.65,81.75Zm-11.56,2.84v2.94c0,.25.11.34.34.34h8.93c.31,0,.45.25.45.56s-.14.55-.45.55H147c-.94,0-1.24-.28-1.24-1.2V84.59c0-.38.3-.54.66-.54S147.09,84.21,147.09,84.59Zm9.38-8.26c0,2.12-1.92,3.2-5.33,3.2s-5.33-1.08-5.33-3.2,1.93-3.21,5.33-3.21S156.47,74.2,156.47,76.33Zm-9.34,0c0,1.31,1.28,2.1,4,2.1s4-.79,4-2.1-1.28-2.11-4-2.11S147.13,75,147.13,76.33Z"/><path d="M175,85.89c0,.3-.14.56-.47.56H160.48c-.32,0-.47-.26-.47-.56s.15-.6.47-.6h14.08C174.89,85.29,175,85.56,175,85.89Zm-2.18-11.51c0,.33-.14.58-.47.58h-8.57c-.25,0-.34.09-.34.32v4.77c0,.26.09.35.34.35h8.75c.33,0,.47.25.47.55s-.14.58-.47.58H163.4c-.94,0-1.24-.29-1.24-1.21V75c0-.92.3-1.21,1.24-1.21h9C172.71,73.82,172.85,74.08,172.85,74.38Z"/><path class="cls-1" d="M1.22,7.26h5c.06,0,.09,0,.09.1V8.3c0,.07,0,.11-.09.11h-5v3.4h5.2a.09.09,0,0,1,.1.1v.95c0,.06,0,.09-.1.09H.82a.78.78,0,0,1-.58-.23A.78.78,0,0,1,0,12.14V3.61A.77.77,0,0,1,.24,3a.78.78,0,0,1,.58-.24h5.6a.09.09,0,0,1,.1.1v.95c0,.06,0,.09-.1.09H1.22Z"/><path class="cls-1" d="M9.36,5.28v7.57c0,.07,0,.1-.1.1h-1c-.08,0-.11,0-.11-.1V3.43A.6.6,0,0,1,8.34,3a.63.63,0,0,1,.47-.19.62.62,0,0,1,.55.3L14,10.45V2.88c0-.07,0-.1.09-.1h1c.07,0,.11,0,.11.1v9.41a.63.63,0,0,1-.19.47.64.64,0,0,1-.47.19.61.61,0,0,1-.55-.31Z"/><path class="cls-1" d="M20.54,7.54h2.65a.77.77,0,0,1,.58.24.81.81,0,0,1,.24.59v1a3.37,3.37,0,0,1-.28,1.38,3.54,3.54,0,0,1-1.86,1.89,3.14,3.14,0,0,1-1.36.3,3.48,3.48,0,0,1-2.56-1,3.66,3.66,0,0,1-.78-1.15,3.51,3.51,0,0,1-.29-1.4v-3A3.54,3.54,0,0,1,17.16,5a3.49,3.49,0,0,1,.75-1.13A3.53,3.53,0,0,1,19,3.09a3.47,3.47,0,0,1,1.37-.3A3.58,3.58,0,0,1,21.7,3a3.33,3.33,0,0,1,1.1.66,3.53,3.53,0,0,1,.79,1A3.28,3.28,0,0,1,24,5.91C24,6,24,6,23.88,6h-1c-.07,0-.1,0-.1-.08a2.34,2.34,0,0,0-.82-1.41,2.35,2.35,0,0,0-.73-.4A2.2,2.2,0,0,0,20.36,4a2.23,2.23,0,0,0-.88.21,2.35,2.35,0,0,0-.72.51,2.44,2.44,0,0,0-.49.75,2.25,2.25,0,0,0-.18.89v3a2.32,2.32,0,0,0,.2.93,2.48,2.48,0,0,0,.51.76,2.67,2.67,0,0,0,.76.51,2.18,2.18,0,0,0,.92.17,2.28,2.28,0,0,0,.9-.2A2.32,2.32,0,0,0,22.8,9.39l0-.69H20.54c-.06,0-.09,0-.09-.11V7.65C20.45,7.58,20.48,7.54,20.54,7.54Z"/><path class="cls-1" d="M7.11,86.27a.07.07,0,0,1-.07,0H5.9a.12.12,0,0,1-.11-.07l-3-4.76-1.6,2v2.77c0,.07,0,.1-.09.1h-1c-.07,0-.11,0-.11-.1v-10c0-.07,0-.1.11-.1h1c.06,0,.09,0,.09.1V81.6l4.38-5.41a.16.16,0,0,1,.11,0H6.94a.11.11,0,0,1,.09,0,.08.08,0,0,1,0,.08L3.57,80.53l3.54,5.65A.07.07,0,0,1,7.11,86.27Z"/><path class="cls-1" d="M10.11,86A3.64,3.64,0,0,1,9,85.27a3.51,3.51,0,0,1-.76-1.13,3.39,3.39,0,0,1-.29-1.39v-3a3.45,3.45,0,0,1,.29-1.38A3.41,3.41,0,0,1,9,77.19a3.47,3.47,0,0,1,2.52-1,3.61,3.61,0,0,1,3.28,2.18,3.62,3.62,0,0,1,.28,1.38v3a3.56,3.56,0,0,1-.28,1.39A3.71,3.71,0,0,1,14,85.27a3.57,3.57,0,0,1-1.13.76,3.41,3.41,0,0,1-1.38.28A3.47,3.47,0,0,1,10.11,86Zm.48-8.49a2.4,2.4,0,0,0-.75.5,2.52,2.52,0,0,0-.5.75,2.38,2.38,0,0,0-.18.91v3a2.32,2.32,0,0,0,.18.92,2.36,2.36,0,0,0,.5.74,2.62,2.62,0,0,0,.75.51,2.42,2.42,0,0,0,1.83,0,2.49,2.49,0,0,0,.75-.51,2.36,2.36,0,0,0,.5-.74,2.33,2.33,0,0,0,.19-.92v-3a2.39,2.39,0,0,0-.19-.91,2.52,2.52,0,0,0-.5-.75,2.29,2.29,0,0,0-.75-.5,2.35,2.35,0,0,0-.91-.19A2.33,2.33,0,0,0,10.59,77.54Z"/><path class="cls-1" d="M23.9,86.27a.08.08,0,0,1-.08,0H22.64a.08.08,0,0,1-.08-.06L20,81.79H18v4.42c0,.07,0,.1-.09.1h-1c-.07,0-.1,0-.1-.1V77a.81.81,0,0,1,.24-.59.77.77,0,0,1,.58-.24h3.44a2.8,2.8,0,0,1,1.12.23,2.94,2.94,0,0,1,.91.64,3.15,3.15,0,0,1,.6.94,2.83,2.83,0,0,1,.19,1.13,3,3,0,0,1-.22,1,2.85,2.85,0,0,1-.54.82,2.68,2.68,0,0,1-.78.59,3.14,3.14,0,0,1-1,.3l2.52,4.39A.11.11,0,0,1,23.9,86.27Zm-2.83-5.62a1.38,1.38,0,0,0,.63-.14,1.55,1.55,0,0,0,.51-.37,1.66,1.66,0,0,0,.34-.54,1.62,1.62,0,0,0,0-1.27,1.9,1.9,0,0,0-.34-.54,1.71,1.71,0,0,0-.51-.37,1.52,1.52,0,0,0-.63-.14H18v3.37Z"/></g></g></svg>