<svg xmlns="http://www.w3.org/2000/svg" viewBox="0 0 124 72.46"><defs><style>.cls-1{fill:#e10000;}.cls-2{fill:#141414;}</style></defs><g id="Layer_2" data-name="Layer 2"><g id="Layer_1-2" data-name="Layer 1"><path class="cls-1" d="M30.31,0c10.22.23,18.5,3.84,24,12.77A15.4,15.4,0,0,1,56.77,23.9a25.16,25.16,0,0,0-.63,5c.12,4.42-2.37,6.93-5.83,9a7.36,7.36,0,0,0-2.24,3.13c-1.15,2.42-1.91,5-3.22,7.35a7.69,7.69,0,0,1-3.47,3.26c-4.14,1.67-8.48,2.5-13,1.38a24,24,0,0,0-3.93-.7C15.83,51.7,10.29,46.53,6,39.61a64.43,64.43,0,0,1-4.88-8.82A13.27,13.27,0,0,1,.08,24.18C1.91,10.94,10.5,2.54,23.77.69,26,.39,28.18.22,30.31,0Z"/><path d="M11.18,71.88l.34-1.35H9.77L9.36,72a.57.57,0,0,1-.27.33.61.61,0,0,1-.37.06.51.51,0,0,1-.29-.15.32.32,0,0,1,0-.33l.36-1.35H8a.4.4,0,0,1-.35-.14.42.42,0,0,1-.1-.3.44.44,0,0,1,.12-.3A.37.37,0,0,1,8,69.64H9l.43-1.56h-1A.39.39,0,0,1,8.12,68,.48.48,0,0,1,8,67.64a.53.53,0,0,1,.11-.3.39.39,0,0,1,.34-.14H9.6l.26-1.11a.56.56,0,0,1,.25-.37.75.75,0,0,1,.38-.1.6.6,0,0,1,.31.15.34.34,0,0,1,.1.32l-.29,1.11h1.75l.29-1.13a.49.49,0,0,1,.23-.34.62.62,0,0,1,.37-.09.46.46,0,0,1,.31.13.38.38,0,0,1,.1.35l-.27,1.08h.82a.31.31,0,0,1,.28.14.51.51,0,0,1,.1.3.63.63,0,0,1-.12.31.45.45,0,0,1-.36.13h-1l-.39,1.56H13.8a.32.32,0,0,1,.3.15.46.46,0,0,1,.08.3.52.52,0,0,1-.14.3.4.4,0,0,1-.34.14H12.5L12.17,72a.53.53,0,0,1-.26.32.7.7,0,0,1-.37.07.47.47,0,0,1-.3-.14A.32.32,0,0,1,11.18,71.88Zm.94-3.8H10.39L10,69.64h1.78Z"/><path d="M17,71.25H20a.44.44,0,0,1,.37.15.52.52,0,0,1,.12.33.53.53,0,0,1-.13.33.46.46,0,0,1-.36.15H17.18a1.23,1.23,0,0,1-.81-.26.91.91,0,0,1-.31-.75V67a1.22,1.22,0,0,1,.25-.85,1.27,1.27,0,0,1,1-.28h2.8a.41.41,0,0,1,.35.15.57.57,0,0,1,.11.33.52.52,0,0,1-.12.33.43.43,0,0,1-.36.15H17v1.85h3a.48.48,0,0,1,.38.15.51.51,0,0,1,0,.66.48.48,0,0,1-.38.15H17Z"/><path d="M25.66,71.38a.73.73,0,0,1,.12.34.58.58,0,0,1-.11.34.37.37,0,0,1-.33.15H22.61a1.39,1.39,0,0,1-.46-.08.55.55,0,0,1-.31-.4.58.58,0,0,1,0-.21c0-.1,0-.22,0-.35s0-.28,0-.45,0-.35,0-.55a1.12,1.12,0,0,1,.17-.72,1.08,1.08,0,0,1,.67-.29l.36,0,.36,0,.36,0,.4-.07a1.07,1.07,0,0,0,.52-.2,1.21,1.21,0,0,0,.29-.36,1.35,1.35,0,0,0,.11-.45,3.38,3.38,0,0,0,0-.45,1,1,0,0,0-.35-.69,1.33,1.33,0,0,0-.9-.25,1.18,1.18,0,0,0-.75.23.84.84,0,0,0-.31.42.58.58,0,0,1-.17.34.56.56,0,0,1-.4.14.54.54,0,0,1-.42-.14.43.43,0,0,1-.11-.36,1.38,1.38,0,0,1,.18-.6,1.76,1.76,0,0,1,.43-.52,1.94,1.94,0,0,1,.66-.38,2.58,2.58,0,0,1,.86-.16,2.74,2.74,0,0,1,1,.18,2.13,2.13,0,0,1,.71.46,2.15,2.15,0,0,1,.39.62,2.31,2.31,0,0,1,.16.64c0,.2,0,.43,0,.69a2.09,2.09,0,0,1-.2.77,1.62,1.62,0,0,1-.52.65,1.91,1.91,0,0,1-1,.36L24,70l-.24,0-.23,0-.3,0a.44.44,0,0,0-.32.13.72.72,0,0,0-.06.33v.38a.42.42,0,0,0,.06.28.63.63,0,0,0,.35.06h2.08A.38.38,0,0,1,25.66,71.38Z"/><path d="M29.62,65.78a2.43,2.43,0,0,1,1.21.28,2.61,2.61,0,0,1,.84.74,3.6,3.6,0,0,1,.48,1A4.79,4.79,0,0,1,32.3,69a4.51,4.51,0,0,1-.16,1.23,3.42,3.42,0,0,1-.48,1,2.37,2.37,0,0,1-.84.73,2.8,2.8,0,0,1-2.4,0,2.25,2.25,0,0,1-.83-.73,3,3,0,0,1-.5-1A4.51,4.51,0,0,1,26.93,69a4.71,4.71,0,0,1,.15-1.18,3.34,3.34,0,0,1,.47-1,2.61,2.61,0,0,1,.84-.74A2.49,2.49,0,0,1,29.62,65.78Zm0,1.1a1.52,1.52,0,0,0-.81.2,1.39,1.39,0,0,0-.51.51,2,2,0,0,0-.27.7A3.88,3.88,0,0,0,28,69a3.48,3.48,0,0,0,.09.79,2.13,2.13,0,0,0,.28.69,1.65,1.65,0,0,0,.52.5,1.5,1.5,0,0,0,2-.5,2.14,2.14,0,0,0,.29-.69,3.48,3.48,0,0,0,.09-.79,3.92,3.92,0,0,0-.08-.76,2.28,2.28,0,0,0-.28-.7,1.74,1.74,0,0,0-.51-.5A1.46,1.46,0,0,0,29.62,66.88Z"/><path d="M35.38,65.78a2.43,2.43,0,0,1,1.21.28,2.61,2.61,0,0,1,.84.74,3.6,3.6,0,0,1,.48,1A4.79,4.79,0,0,1,38.06,69a4.51,4.51,0,0,1-.16,1.23,3.42,3.42,0,0,1-.48,1,2.37,2.37,0,0,1-.84.73,2.8,2.8,0,0,1-2.4,0,2.25,2.25,0,0,1-.83-.73,3,3,0,0,1-.5-1A4.51,4.51,0,0,1,32.69,69a4.71,4.71,0,0,1,.15-1.18,3.34,3.34,0,0,1,.47-1,2.61,2.61,0,0,1,.84-.74A2.49,2.49,0,0,1,35.38,65.78Zm0,1.1a1.52,1.52,0,0,0-.81.2,1.39,1.39,0,0,0-.51.51,2,2,0,0,0-.27.7,3.88,3.88,0,0,0-.07.75,3.48,3.48,0,0,0,.09.79,2.13,2.13,0,0,0,.28.69,1.65,1.65,0,0,0,.52.5,1.5,1.5,0,0,0,2-.5,2.14,2.14,0,0,0,.29-.69A3.48,3.48,0,0,0,37,69a3.92,3.92,0,0,0-.08-.76,2.28,2.28,0,0,0-.28-.7,1.74,1.74,0,0,0-.51-.5A1.46,1.46,0,0,0,35.38,66.88Z"/><path d="M41.14,65.78a2.43,2.43,0,0,1,1.21.28,2.61,2.61,0,0,1,.84.74,3.6,3.6,0,0,1,.48,1A4.79,4.79,0,0,1,43.82,69a4.51,4.51,0,0,1-.16,1.23,3.42,3.42,0,0,1-.48,1,2.37,2.37,0,0,1-.84.73,2.8,2.8,0,0,1-2.4,0,2.25,2.25,0,0,1-.83-.73,3,3,0,0,1-.5-1A4.51,4.51,0,0,1,38.45,69a4.71,4.71,0,0,1,.15-1.18,3.34,3.34,0,0,1,.47-1,2.61,2.61,0,0,1,.84-.74A2.49,2.49,0,0,1,41.14,65.78Zm0,1.1a1.52,1.52,0,0,0-.81.2,1.39,1.39,0,0,0-.51.51,2,2,0,0,0-.27.7,3.88,3.88,0,0,0-.07.75,3.48,3.48,0,0,0,.09.79,2.13,2.13,0,0,0,.28.69,1.65,1.65,0,0,0,.52.5,1.5,1.5,0,0,0,2-.5,2.14,2.14,0,0,0,.29-.69,3.48,3.48,0,0,0,.09-.79,3.92,3.92,0,0,0-.08-.76,2.28,2.28,0,0,0-.28-.7,1.74,1.74,0,0,0-.51-.5A1.46,1.46,0,0,0,41.14,66.88Z"/><path d="M46.9,65.78a2.43,2.43,0,0,1,1.21.28,2.61,2.61,0,0,1,.84.74,3.6,3.6,0,0,1,.48,1A4.79,4.79,0,0,1,49.58,69a4.51,4.51,0,0,1-.16,1.23,3.42,3.42,0,0,1-.48,1,2.37,2.37,0,0,1-.84.73,2.8,2.8,0,0,1-2.4,0,2.25,2.25,0,0,1-.83-.73,3,3,0,0,1-.5-1A4.51,4.51,0,0,1,44.21,69a4.71,4.71,0,0,1,.15-1.18,3.34,3.34,0,0,1,.47-1,2.61,2.61,0,0,1,.84-.74A2.49,2.49,0,0,1,46.9,65.78Zm0,1.1a1.52,1.52,0,0,0-.81.2,1.39,1.39,0,0,0-.51.51,2,2,0,0,0-.27.7,3.88,3.88,0,0,0-.07.75,3.48,3.48,0,0,0,.09.79,2.13,2.13,0,0,0,.28.69,1.65,1.65,0,0,0,.52.5,1.5,1.5,0,0,0,2-.5,2.14,2.14,0,0,0,.29-.69,3.48,3.48,0,0,0,.09-.79,3.92,3.92,0,0,0-.08-.76,2.28,2.28,0,0,0-.28-.7,1.74,1.74,0,0,0-.51-.5A1.46,1.46,0,0,0,46.9,66.88Z"/><path class="cls-2" d="M97.31,0c10.22.23,18.5,3.84,24,12.77a15.4,15.4,0,0,1,2.43,11.13,25.16,25.16,0,0,0-.63,5c.12,4.42-2.37,6.93-5.83,9a7.36,7.36,0,0,0-2.24,3.13c-1.15,2.42-1.91,5-3.22,7.35a7.69,7.69,0,0,1-3.47,3.26c-4.14,1.67-8.48,2.5-13,1.38a24,24,0,0,0-3.93-.7C82.83,51.7,77.29,46.53,73,39.61a64.43,64.43,0,0,1-4.88-8.82,13.27,13.27,0,0,1-1.06-6.61C68.91,10.94,77.5,2.54,90.77.69,93,.39,95.18.22,97.31,0Z"/><path d="M78.33,71.88l.33-1.35H76.91L76.5,72a.51.51,0,0,1-.27.33.58.58,0,0,1-.36.06.54.54,0,0,1-.3-.15.34.34,0,0,1,0-.33l.36-1.35h-.72a.4.4,0,0,1-.35-.14.41.41,0,0,1-.09-.3.43.43,0,0,1,.11-.3.4.4,0,0,1,.33-.15h1l.43-1.56h-1a.42.42,0,0,1-.33-.13.53.53,0,0,1-.11-.31.47.47,0,0,1,.11-.3.37.37,0,0,1,.33-.14h1.15L77,66.09a.55.55,0,0,1,.24-.37.77.77,0,0,1,.38-.1.57.57,0,0,1,.31.15.34.34,0,0,1,.1.32l-.29,1.11H79.5l.29-1.13a.49.49,0,0,1,.23-.34.62.62,0,0,1,.37-.09.44.44,0,0,1,.31.13.38.38,0,0,1,.1.35l-.26,1.08h.81a.3.3,0,0,1,.28.14.53.53,0,0,1,.11.3.56.56,0,0,1-.13.31.43.43,0,0,1-.35.13h-1l-.38,1.56h1a.32.32,0,0,1,.3.15.41.41,0,0,1,.09.3.61.61,0,0,1-.15.3.39.39,0,0,1-.33.14h-1.2L79.31,72a.5.5,0,0,1-.26.32.66.66,0,0,1-.36.07.52.52,0,0,1-.31-.14A.31.31,0,0,1,78.33,71.88Zm.93-3.8H77.54l-.41,1.56H78.9Z"/><path d="M85.81,72.13a.57.57,0,0,1-.4.13.65.65,0,0,1-.4-.12.41.41,0,0,1-.15-.34V67l-.58.48a.64.64,0,0,1-.44.17.43.43,0,0,1-.35-.21.49.49,0,0,1-.1-.44.85.85,0,0,1,.27-.36l1.1-.86a.75.75,0,0,1,.41-.2.74.74,0,0,1,.41.06.59.59,0,0,1,.27.27,1.3,1.3,0,0,1,.11.37v5.5A.45.45,0,0,1,85.81,72.13Z"/><path d="M88.38,69.76v-3.4a.37.37,0,0,1,.15-.33.61.61,0,0,1,.35-.11.57.57,0,0,1,.33.11.36.36,0,0,1,.16.33v3a.57.57,0,0,0,.07.36.55.55,0,0,0,.36.08h1.66V66.4a.4.4,0,0,1,.15-.33A.63.63,0,0,1,92,66a.62.62,0,0,1,.34.11.38.38,0,0,1,.16.33v3.44H93a.5.5,0,0,1,.39.16.53.53,0,0,1,.13.35.52.52,0,0,1-.13.36.47.47,0,0,1-.39.16h-.56V72a.39.39,0,0,1-.16.34.57.57,0,0,1-.69,0,.41.41,0,0,1-.15-.35V70.87h-1.9a4.51,4.51,0,0,1-.61,0,.68.68,0,0,1-.36-.18.57.57,0,0,1-.16-.34A2.64,2.64,0,0,1,88.38,69.76Z"/><path d="M97.33,72.13a.57.57,0,0,1-.4.13.65.65,0,0,1-.4-.12.41.41,0,0,1-.15-.34V67l-.58.48a.64.64,0,0,1-.44.17.43.43,0,0,1-.35-.21.49.49,0,0,1-.1-.44.85.85,0,0,1,.27-.36l1.1-.86a.75.75,0,0,1,.41-.2.74.74,0,0,1,.41.06.59.59,0,0,1,.27.27,1.3,1.3,0,0,1,.11.37v5.5A.45.45,0,0,1,97.33,72.13Z"/><path d="M99.9,69.76v-3.4a.37.37,0,0,1,.15-.33.61.61,0,0,1,.35-.11.57.57,0,0,1,.33.11.36.36,0,0,1,.16.33v3a.57.57,0,0,0,.07.36.55.55,0,0,0,.36.08H103V66.4a.4.4,0,0,1,.15-.33.63.63,0,0,1,.35-.11.62.62,0,0,1,.34.11.38.38,0,0,1,.16.33v3.44h.56a.5.5,0,0,1,.39.16.53.53,0,0,1,.13.35.52.52,0,0,1-.13.36.47.47,0,0,1-.39.16H104V72a.39.39,0,0,1-.16.34.57.57,0,0,1-.69,0A.41.41,0,0,1,103,72V70.87h-1.9a4.51,4.51,0,0,1-.61,0,.68.68,0,0,1-.36-.18.57.57,0,0,1-.16-.34A2.64,2.64,0,0,1,99.9,69.76Z"/><path d="M108.85,72.13a.57.57,0,0,1-.4.13.65.65,0,0,1-.4-.12.41.41,0,0,1-.15-.34V67l-.58.48a.64.64,0,0,1-.44.17.43.43,0,0,1-.35-.21.49.49,0,0,1-.1-.44.85.85,0,0,1,.27-.36l1.1-.86a.75.75,0,0,1,.41-.2.74.74,0,0,1,.41.06.59.59,0,0,1,.27.27,1.3,1.3,0,0,1,.11.37v5.5A.45.45,0,0,1,108.85,72.13Z"/><path d="M111.42,69.76v-3.4a.37.37,0,0,1,.15-.33.61.61,0,0,1,.35-.11.57.57,0,0,1,.33.11.36.36,0,0,1,.16.33v3a.57.57,0,0,0,.07.36.55.55,0,0,0,.36.08h1.66V66.4a.4.4,0,0,1,.15-.33A.63.63,0,0,1,115,66a.62.62,0,0,1,.34.11.38.38,0,0,1,.16.33v3.44h.56a.5.5,0,0,1,.39.16.53.53,0,0,1,.13.35.52.52,0,0,1-.13.36.47.47,0,0,1-.39.16h-.56V72a.39.39,0,0,1-.16.34.57.57,0,0,1-.69,0,.41.41,0,0,1-.15-.35V70.87h-1.9a4.51,4.51,0,0,1-.61,0,.68.68,0,0,1-.36-.18.57.57,0,0,1-.16-.34A2.64,2.64,0,0,1,111.42,69.76Z"/></g></g></svg>