<svg xmlns="http://www.w3.org/2000/svg" viewBox="0 0 191 72.46"><defs><style>.cls-1{fill:#f9e58e;}.cls-2{fill:#1f242a;}.cls-3{fill:#05788c;}</style></defs><g id="Layer_2" data-name="Layer 2"><g id="Layer_1-2" data-name="Layer 1"><path class="cls-1" d="M30.31,0c10.22.23,18.5,3.84,24,12.77A15.4,15.4,0,0,1,56.77,23.9a25.16,25.16,0,0,0-.63,5c.12,4.42-2.37,6.93-5.83,9a7.36,7.36,0,0,0-2.24,3.13c-1.15,2.42-1.91,5-3.22,7.35a7.69,7.69,0,0,1-3.47,3.26c-4.14,1.67-8.48,2.5-13,1.38a24,24,0,0,0-3.93-.7C15.83,51.7,10.29,46.53,6,39.61a64.43,64.43,0,0,1-4.88-8.82A13.27,13.27,0,0,1,.08,24.18C1.91,10.94,10.5,2.54,23.77.69,26,.39,28.18.22,30.31,0Z"/><path d="M10.75,71.88l.34-1.35H9.34L8.93,72a.57.57,0,0,1-.27.33.62.62,0,0,1-.37.06A.48.48,0,0,1,8,72.21a.32.32,0,0,1-.06-.33l.36-1.35H7.58a.41.41,0,0,1-.44-.44.48.48,0,0,1,.11-.3.4.4,0,0,1,.33-.15h1L9,68.08H8A.39.39,0,0,1,7.69,68a.48.48,0,0,1-.12-.31.53.53,0,0,1,.11-.3A.38.38,0,0,1,8,67.2H9.17l.26-1.11a.53.53,0,0,1,.25-.37.75.75,0,0,1,.38-.1.6.6,0,0,1,.31.15.32.32,0,0,1,.09.32l-.28,1.11h1.75l.29-1.13a.48.48,0,0,1,.22-.34.65.65,0,0,1,.38-.09.46.46,0,0,1,.31.13.36.36,0,0,1,.09.35L13,67.2h.82a.31.31,0,0,1,.28.14.51.51,0,0,1,.1.3A.56.56,0,0,1,14,68a.42.42,0,0,1-.35.13h-1l-.39,1.56h1.06a.34.34,0,0,1,.3.15.46.46,0,0,1,.08.3.52.52,0,0,1-.14.3.4.4,0,0,1-.34.14h-1.2L11.74,72a.53.53,0,0,1-.26.32.72.72,0,0,1-.37.07.47.47,0,0,1-.3-.14A.3.3,0,0,1,10.75,71.88Zm.94-3.8H10l-.41,1.56h1.78Z"/><path d="M17.38,65.78a2.43,2.43,0,0,1,1.21.28,2.61,2.61,0,0,1,.84.74,3.6,3.6,0,0,1,.48,1A4.79,4.79,0,0,1,20.06,69a4.51,4.51,0,0,1-.16,1.23,3.42,3.42,0,0,1-.48,1,2.37,2.37,0,0,1-.84.73,2.8,2.8,0,0,1-2.4,0,2.25,2.25,0,0,1-.83-.73,3,3,0,0,1-.5-1A4.51,4.51,0,0,1,14.69,69a4.71,4.71,0,0,1,.15-1.18,3.34,3.34,0,0,1,.47-1,2.61,2.61,0,0,1,.84-.74A2.49,2.49,0,0,1,17.38,65.78Zm0,1.1a1.52,1.52,0,0,0-.81.2,1.39,1.39,0,0,0-.51.51,2,2,0,0,0-.27.7,3.88,3.88,0,0,0-.07.75,3.48,3.48,0,0,0,.09.79,2.13,2.13,0,0,0,.28.69,1.65,1.65,0,0,0,.52.5,1.5,1.5,0,0,0,2-.5,2.14,2.14,0,0,0,.29-.69A3.48,3.48,0,0,0,19,69a3.92,3.92,0,0,0-.08-.76,2.28,2.28,0,0,0-.28-.7,1.74,1.74,0,0,0-.51-.5A1.46,1.46,0,0,0,17.38,66.88Z"/><path d="M22.13,66.64v1.2q0,.22.06.27s.14,0,.27,0A3.27,3.27,0,0,1,23,68a2.14,2.14,0,0,1,.62,0,1.93,1.93,0,0,1,1,.34,1.83,1.83,0,0,1,.55.64,2.25,2.25,0,0,1,.22.74,4,4,0,0,1,0,.68,2.75,2.75,0,0,1-.19.69,2,2,0,0,1-.44.66,2.38,2.38,0,0,1-.72.48,2.58,2.58,0,0,1-1.05.16,2.41,2.41,0,0,1-1.49-.49,1.6,1.6,0,0,1-.58-1.07.48.48,0,0,1,.48-.56.6.6,0,0,1,.42.08.47.47,0,0,1,.18.31.92.92,0,0,0,.28.44,1,1,0,0,0,.71.25,1.42,1.42,0,0,0,1-.25,1.13,1.13,0,0,0,.43-.83,1.22,1.22,0,0,0-.23-.87,1.21,1.21,0,0,0-.87-.42,1.92,1.92,0,0,0-.55,0l-.4.11a2.68,2.68,0,0,1-.35.1.86.86,0,0,1-.36,0,.45.45,0,0,1-.4-.32,3.32,3.32,0,0,1-.08-.81c0-.19,0-.39,0-.6v-1.1c0-.14,0-.23,0-.29a.55.55,0,0,1,.31-.39,1.22,1.22,0,0,1,.46-.09H24.5a.37.37,0,0,1,.33.15.62.62,0,0,1,.11.34.66.66,0,0,1-.12.34.38.38,0,0,1-.32.15Z"/><path d="M27,66.88a.43.43,0,0,1-.36-.15.66.66,0,0,1-.11-.36.65.65,0,0,1,.1-.36.36.36,0,0,1,.32-.16h3.5a.78.78,0,0,1,.41.09.37.37,0,0,1,.19.2.73.73,0,0,1,.06.3l0,.35-1.23,5.13a.45.45,0,0,1-.21.39.63.63,0,0,1-.41.07.47.47,0,0,1-.35-.17.69.69,0,0,1-.06-.43l1.2-4.9Z"/><path d="M33.62,72.13a2.15,2.15,0,0,1-1.41-2,1.61,1.61,0,0,1,.32-1.05,4.94,4.94,0,0,1,.59-.65,2.85,2.85,0,0,1-.38-.59,1.51,1.51,0,0,1-.17-.73,1.65,1.65,0,0,1,.11-.59,1.63,1.63,0,0,1,.36-.6,2.07,2.07,0,0,1,1.59-.63,2.42,2.42,0,0,1,1,.18,2.21,2.21,0,0,1,.66.46,2,2,0,0,1,.35.6,1.81,1.81,0,0,1,.1.58,1.63,1.63,0,0,1-.16.73,2.88,2.88,0,0,1-.39.59,5.76,5.76,0,0,1,.59.65,1.61,1.61,0,0,1,.32,1.05,2,2,0,0,1-.17.83,2.16,2.16,0,0,1-.49.7,2.06,2.06,0,0,1-.78.48,2.74,2.74,0,0,1-1,.18A2.71,2.71,0,0,1,33.62,72.13Zm2-1.15a1.07,1.07,0,0,0,.4-.83,1.1,1.1,0,0,0-.38-.83,1.39,1.39,0,0,0-1-.35,1.34,1.34,0,0,0-.92.35,1.09,1.09,0,0,0-.37.83,1.05,1.05,0,0,0,.38.83,1.32,1.32,0,0,0,.91.34A1.39,1.39,0,0,0,35.58,71Zm-.16-3.18a.89.89,0,0,0,.29-.68.9.9,0,0,0-.29-.67,1.17,1.17,0,0,0-1.54,0,.89.89,0,0,0-.28.67.91.91,0,0,0,.28.68,1.05,1.05,0,0,0,.78.28A1,1,0,0,0,35.42,67.8Z"/><path d="M39.38,72.13a2.15,2.15,0,0,1-1.41-2,1.61,1.61,0,0,1,.32-1.05,4.94,4.94,0,0,1,.59-.65,2.85,2.85,0,0,1-.38-.59,1.51,1.51,0,0,1-.17-.73,1.65,1.65,0,0,1,.11-.59,1.63,1.63,0,0,1,.36-.6,2.07,2.07,0,0,1,1.59-.63,2.42,2.42,0,0,1,1,.18,2.21,2.21,0,0,1,.66.46,2,2,0,0,1,.35.6,1.81,1.81,0,0,1,.1.58,1.63,1.63,0,0,1-.16.73,2.88,2.88,0,0,1-.39.59,5.76,5.76,0,0,1,.59.65,1.61,1.61,0,0,1,.32,1.05,2,2,0,0,1-.17.83,2.16,2.16,0,0,1-.49.7,2.06,2.06,0,0,1-.78.48,2.74,2.74,0,0,1-1,.18A2.71,2.71,0,0,1,39.38,72.13Zm2-1.15a1.07,1.07,0,0,0,.4-.83,1.1,1.1,0,0,0-.38-.83,1.39,1.39,0,0,0-1-.35,1.34,1.34,0,0,0-.92.35,1.09,1.09,0,0,0-.37.83,1.05,1.05,0,0,0,.38.83,1.32,1.32,0,0,0,.91.34A1.39,1.39,0,0,0,41.34,71Zm-.16-3.18a.89.89,0,0,0,.29-.68.9.9,0,0,0-.29-.67,1.17,1.17,0,0,0-1.54,0,.89.89,0,0,0-.28.67.91.91,0,0,0,.28.68,1.05,1.05,0,0,0,.78.28A1,1,0,0,0,41.18,67.8Z"/><path d="M44.42,66.52a.65.65,0,0,1,.18-.5.69.69,0,0,1,.5-.17h1.75a3.4,3.4,0,0,1,1.35.24,2.55,2.55,0,0,1,.93.65,2.64,2.64,0,0,1,.53,1,4.1,4.1,0,0,1,.16,1.18,3.47,3.47,0,0,1-.79,2.5,2.82,2.82,0,0,1-2.13.83H45.14a.83.83,0,0,1-.49-.14.59.59,0,0,1-.23-.55Zm2.45,4.71a1.93,1.93,0,0,0,.92-.2,1.62,1.62,0,0,0,.58-.52,2.1,2.1,0,0,0,.31-.72,3.61,3.61,0,0,0,.09-.79,2.35,2.35,0,0,0-.49-1.56,1.68,1.68,0,0,0-1.36-.58H45.48v4.37Z"/><path class="cls-2" d="M164.31,0c10.22.23,18.5,3.84,24,12.77a15.4,15.4,0,0,1,2.43,11.13,25.16,25.16,0,0,0-.63,5c.12,4.42-2.37,6.93-5.83,9a7.36,7.36,0,0,0-2.24,3.13c-1.15,2.42-1.91,5-3.22,7.35a7.69,7.69,0,0,1-3.47,3.26c-4.14,1.67-8.48,2.5-13,1.38a24,24,0,0,0-3.93-.7c-8.64-.66-14.18-5.83-18.45-12.75a64.43,64.43,0,0,1-4.88-8.82,13.27,13.27,0,0,1-1.06-6.61C135.91,10.94,144.5,2.54,157.77.69,160,.39,162.18.22,164.31,0Z"/><path d="M144.38,71.88l.34-1.35H143l-.4,1.44a.57.57,0,0,1-.27.33.62.62,0,0,1-.37.06.48.48,0,0,1-.29-.15.32.32,0,0,1-.06-.33l.36-1.35h-.72a.41.41,0,0,1-.35-.14.41.41,0,0,1-.09-.3.48.48,0,0,1,.11-.3.4.4,0,0,1,.33-.15h1l.43-1.56h-1a.42.42,0,0,1-.33-.13.48.48,0,0,1,0-.61.37.37,0,0,1,.33-.14h1.16l.26-1.11a.53.53,0,0,1,.25-.37.74.74,0,0,1,.37-.1.63.63,0,0,1,.32.15.34.34,0,0,1,.09.32l-.29,1.11h1.76l.28-1.13a.53.53,0,0,1,.23-.34.64.64,0,0,1,.37-.09.48.48,0,0,1,.32.13.38.38,0,0,1,.09.35l-.26,1.08h.81a.33.33,0,0,1,.29.14.6.6,0,0,1,.1.3.56.56,0,0,1-.13.31.42.42,0,0,1-.35.13h-1l-.38,1.56H147a.34.34,0,0,1,.3.15.46.46,0,0,1,.08.3.59.59,0,0,1-.14.3.41.41,0,0,1-.34.14h-1.2L145.36,72a.49.49,0,0,1-.25.32.72.72,0,0,1-.37.07.52.52,0,0,1-.31-.14A.31.31,0,0,1,144.38,71.88Zm.94-3.8h-1.73l-.41,1.56H145Z"/><path d="M151.86,72.13a.57.57,0,0,1-.4.13.65.65,0,0,1-.4-.12.41.41,0,0,1-.15-.34V67l-.58.48a.58.58,0,0,1-.44.16.39.39,0,0,1-.35-.2.49.49,0,0,1-.1-.44.85.85,0,0,1,.27-.36l1.1-.86a.77.77,0,0,1,.42-.2.72.72,0,0,1,.4.06.59.59,0,0,1,.27.27,1,1,0,0,1,.11.37v5.5A.45.45,0,0,1,151.86,72.13Z"/><path d="M156,66.81v1.85h3a.45.45,0,0,1,.37.15.48.48,0,0,1,0,.66.45.45,0,0,1-.37.15h-3V72a.32.32,0,0,1-.16.28.67.67,0,0,1-.34.09.59.59,0,0,1-.34-.1A.29.29,0,0,1,155,72V67a1.22,1.22,0,0,1,.26-.85,1.24,1.24,0,0,1,.94-.28H159a.39.39,0,0,1,.34.15.51.51,0,0,1,0,.66.43.43,0,0,1-.36.15Z"/><path d="M164.56,71.38a.58.58,0,0,1,0,.68.39.39,0,0,1-.33.15h-2.73a1.5,1.5,0,0,1-.47-.08.54.54,0,0,1-.3-.4.58.58,0,0,1,0-.21c0-.1,0-.22,0-.35s0-.28,0-.45v-.55a1.11,1.11,0,0,1,.18-.72,1,1,0,0,1,.66-.29l.37,0,.35,0,.37,0,.4-.07a1.07,1.07,0,0,0,.52-.2,1.21,1.21,0,0,0,.29-.36A1.35,1.35,0,0,0,164,68a2.22,2.22,0,0,0,0-.45,1,1,0,0,0-.34-.69,1.36,1.36,0,0,0-.9-.25,1.16,1.16,0,0,0-.75.23.78.78,0,0,0-.31.42.54.54,0,0,1-.58.48.57.57,0,0,1-.42-.14.45.45,0,0,1-.1-.36,1.38,1.38,0,0,1,.18-.6,1.62,1.62,0,0,1,.43-.52,1.94,1.94,0,0,1,.66-.38,2.53,2.53,0,0,1,.86-.16,2.74,2.74,0,0,1,1.05.18,2.08,2.08,0,0,1,.7.46,2,2,0,0,1,.4.62,2.31,2.31,0,0,1,.16.64c0,.2,0,.43,0,.69a2.13,2.13,0,0,1-.19.77,1.62,1.62,0,0,1-.52.65,1.94,1.94,0,0,1-1,.36l-.36,0-.24,0-.23,0-.3,0a.44.44,0,0,0-.32.13.72.72,0,0,0-.06.33v.38a.42.42,0,0,0,.06.28.61.61,0,0,0,.34.06h2.09A.35.35,0,0,1,164.56,71.38Z"/><path d="M166.2,69.76v-3.4a.37.37,0,0,1,.15-.33.58.58,0,0,1,.34-.11A.57.57,0,0,1,167,66a.36.36,0,0,1,.16.33v3a.57.57,0,0,0,.07.36.55.55,0,0,0,.36.08h1.66V66.4a.4.4,0,0,1,.15-.33.63.63,0,0,1,.35-.11.6.6,0,0,1,.34.11.39.39,0,0,1,.17.33v3.44h.55a.47.47,0,0,1,.39.16.54.54,0,0,1,.14.35.52.52,0,0,1-.14.36.46.46,0,0,1-.39.16h-.55V72a.4.4,0,0,1-.17.34.54.54,0,0,1-.34.12.56.56,0,0,1-.35-.11.41.41,0,0,1-.15-.35V70.87h-1.9a4.64,4.64,0,0,1-.61,0,.68.68,0,0,1-.36-.18.64.64,0,0,1-.16-.34A2.75,2.75,0,0,1,166.2,69.76Z"/><path d="M176.08,71.38a.58.58,0,0,1,0,.68.39.39,0,0,1-.33.15H173a1.5,1.5,0,0,1-.47-.08.54.54,0,0,1-.3-.4.58.58,0,0,1,0-.21c0-.1,0-.22,0-.35s0-.28,0-.45v-.55a1.11,1.11,0,0,1,.18-.72,1,1,0,0,1,.66-.29l.37,0,.35,0,.37,0,.4-.07a1.07,1.07,0,0,0,.52-.2,1.21,1.21,0,0,0,.29-.36,1.35,1.35,0,0,0,.11-.45,2.22,2.22,0,0,0,0-.45,1,1,0,0,0-.34-.69,1.36,1.36,0,0,0-.9-.25,1.16,1.16,0,0,0-.75.23.78.78,0,0,0-.31.42.54.54,0,0,1-.58.48.57.57,0,0,1-.42-.14.45.45,0,0,1-.1-.36,1.38,1.38,0,0,1,.18-.6,1.62,1.62,0,0,1,.43-.52,1.94,1.94,0,0,1,.66-.38,2.53,2.53,0,0,1,.86-.16,2.74,2.74,0,0,1,1,.18,2.08,2.08,0,0,1,.7.46,2,2,0,0,1,.4.62,2.31,2.31,0,0,1,.16.64c0,.2,0,.43,0,.69a2.13,2.13,0,0,1-.19.77,1.62,1.62,0,0,1-.52.65,1.94,1.94,0,0,1-1,.36l-.36,0-.24,0L174,70l-.3,0a.44.44,0,0,0-.32.13.72.72,0,0,0-.06.33v.38a.42.42,0,0,0,.06.28.61.61,0,0,0,.34.06h2.09A.35.35,0,0,1,176.08,71.38Z"/><path d="M180.91,65.68a2.94,2.94,0,0,1,1.28.25,2,2,0,0,1,.79.64,2.44,2.44,0,0,1,.41.88,4.65,4.65,0,0,1,.11,1V72a.36.36,0,0,1-.17.31.66.66,0,0,1-.36.11.72.72,0,0,1-.36-.1.36.36,0,0,1-.17-.32v-1.8h-3.09V71.9a.34.34,0,0,1-.17.31.75.75,0,0,1-.36.1.66.66,0,0,1-.37-.1.35.35,0,0,1-.16-.31V68.23a6.06,6.06,0,0,1,.07-.78,2.06,2.06,0,0,1,.34-.83,2.2,2.2,0,0,1,.79-.67A3.12,3.12,0,0,1,180.91,65.68Zm1.53,3.39V68a1.08,1.08,0,0,0-.13-.54,1.38,1.38,0,0,0-.36-.4,1.62,1.62,0,0,0-.49-.25,1.77,1.77,0,0,0-.56-.08,1.6,1.6,0,0,0-.58.07,1.4,1.4,0,0,0-.49.24,1.19,1.19,0,0,0-.35.42,1.22,1.22,0,0,0-.13.59v1Z"/><path class="cls-3" d="M97.31,0c10.22.23,18.5,3.84,24,12.77a15.4,15.4,0,0,1,2.43,11.13,25.16,25.16,0,0,0-.63,5c.12,4.42-2.37,6.93-5.83,9a7.36,7.36,0,0,0-2.24,3.13c-1.15,2.42-1.91,5-3.22,7.35a7.69,7.69,0,0,1-3.47,3.26c-4.14,1.67-8.48,2.5-13,1.38a24,24,0,0,0-3.93-.7C82.83,51.7,77.29,46.53,73,39.61a64.43,64.43,0,0,1-4.88-8.82,13.27,13.27,0,0,1-1.06-6.61C68.91,10.94,77.5,2.54,90.77.69,93,.39,95.18.22,97.31,0Z"/><path d="M77.12,71.88l.33-1.35H75.7L75.29,72a.51.51,0,0,1-.27.33.58.58,0,0,1-.36.06.54.54,0,0,1-.3-.15.34.34,0,0,1,0-.33l.36-1.35H74a.4.4,0,0,1-.35-.14.47.47,0,0,1-.1-.3.44.44,0,0,1,.12-.3.37.37,0,0,1,.33-.15h1l.43-1.56h-1a.42.42,0,0,1-.33-.13.47.47,0,0,1-.11-.31.51.51,0,0,1,.1-.3.4.4,0,0,1,.34-.14h1.15l.27-1.11a.55.55,0,0,1,.24-.37.77.77,0,0,1,.38-.1.6.6,0,0,1,.31.15.34.34,0,0,1,.1.32l-.29,1.11h1.75l.29-1.13a.49.49,0,0,1,.23-.34.62.62,0,0,1,.37-.09.46.46,0,0,1,.31.13.38.38,0,0,1,.1.35l-.27,1.08h.82a.31.31,0,0,1,.28.14.51.51,0,0,1,.1.3.55.55,0,0,1-.12.31.45.45,0,0,1-.36.13h-1l-.38,1.56h1a.32.32,0,0,1,.3.15.46.46,0,0,1,.09.3.61.61,0,0,1-.15.3.39.39,0,0,1-.33.14h-1.2L78.1,72a.5.5,0,0,1-.26.32.66.66,0,0,1-.36.07.5.5,0,0,1-.31-.14A.31.31,0,0,1,77.12,71.88Zm.93-3.8H76.32l-.4,1.56h1.77Z"/><path d="M83,66.81v1.85h3a.46.46,0,0,1,.38.15.48.48,0,0,1,0,.66.46.46,0,0,1-.38.15H83V72a.31.31,0,0,1-.15.28.69.69,0,0,1-.34.09.57.57,0,0,1-.34-.1A.29.29,0,0,1,82,72V67a1.17,1.17,0,0,1,.26-.85,1.23,1.23,0,0,1,.94-.28H86a.41.41,0,0,1,.34.15.57.57,0,0,1,.11.33.52.52,0,0,1-.12.33.43.43,0,0,1-.36.15Z"/><path d="M90.6,65.68a3,3,0,0,1,1.29.25,2.11,2.11,0,0,1,.79.64,2.42,2.42,0,0,1,.4.88,4.09,4.09,0,0,1,.12,1V72a.36.36,0,0,1-.17.31.66.66,0,0,1-.36.11.76.76,0,0,1-.37-.1.35.35,0,0,1-.16-.32v-1.8H89V71.9a.34.34,0,0,1-.16.31.81.81,0,0,1-.36.1.66.66,0,0,1-.37-.1A.33.33,0,0,1,88,71.9V68.23a4.68,4.68,0,0,1,.07-.78,2.06,2.06,0,0,1,.34-.83,2.12,2.12,0,0,1,.79-.67A3,3,0,0,1,90.6,65.68Zm1.54,3.39V68a1.09,1.09,0,0,0-.14-.54,1.35,1.35,0,0,0-.35-.4,1.74,1.74,0,0,0-.49-.25,1.87,1.87,0,0,0-.57-.08,1.54,1.54,0,0,0-.57.07,1.45,1.45,0,0,0-.5.24,1.17,1.17,0,0,0-.34.42A1.22,1.22,0,0,0,89,68v1Z"/><path d="M96.39,71.25h3a.44.44,0,0,1,.37.15.52.52,0,0,1,.12.33.54.54,0,0,1-.14.33.43.43,0,0,1-.35.15H96.53a1.2,1.2,0,0,1-.81-.26.91.91,0,0,1-.32-.75V67a1.22,1.22,0,0,1,.26-.85,1.24,1.24,0,0,1,.94-.28h2.81a.39.39,0,0,1,.34.15.51.51,0,0,1,0,.66.43.43,0,0,1-.36.15h-3v1.85h3a.48.48,0,0,1,.38.15.51.51,0,0,1,0,.66.48.48,0,0,1-.38.15h-3Z"/><path d="M100.9,69.6l.79-3.87a.41.41,0,0,1,.22-.3.82.82,0,0,1,.38-.06.6.6,0,0,1,.34.18.45.45,0,0,1,.12.37l-.43,2a1.72,1.72,0,0,1,.42-.11,3.89,3.89,0,0,1,.49,0,2.41,2.41,0,0,1,1.71.63,2.28,2.28,0,0,1,.66,1.73,2.23,2.23,0,0,1-.66,1.74,2.4,2.4,0,0,1-1.71.61,2.88,2.88,0,0,1-1-.18,1.87,1.87,0,0,1-.79-.53,2,2,0,0,1-.48-.89A2.92,2.92,0,0,1,100.9,69.6Zm2.33-.84a1.31,1.31,0,0,0-1,.36,1.23,1.23,0,0,0-.37.93,1.27,1.27,0,0,0,.37,1,1.31,1.31,0,0,0,1,.36,1.29,1.29,0,0,0,.93-.36,1.24,1.24,0,0,0,.39-1,1.22,1.22,0,0,0-.4-.93A1.35,1.35,0,0,0,103.23,68.76Z"/><path d="M107.93,72.13a2.1,2.1,0,0,1-.77-.48,2.29,2.29,0,0,1-.48-.7,2.12,2.12,0,0,1-.16-.83,1.66,1.66,0,0,1,.31-1.05,4.94,4.94,0,0,1,.6-.65,2.88,2.88,0,0,1-.39-.59,1.63,1.63,0,0,1-.16-.73,1.87,1.87,0,0,1,.1-.59,2,2,0,0,1,.36-.6,2.49,2.49,0,0,1,.65-.45,2.24,2.24,0,0,1,1-.18,2.45,2.45,0,0,1,1,.18,2.21,2.21,0,0,1,.66.46,1.81,1.81,0,0,1,.34.6,1.6,1.6,0,0,1,.11.58,1.51,1.51,0,0,1-.17.73,2.85,2.85,0,0,1-.38.59,5.76,5.76,0,0,1,.59.65,1.66,1.66,0,0,1,.32,1.05,2.12,2.12,0,0,1-.17.83,2.16,2.16,0,0,1-.49.7,2.06,2.06,0,0,1-.78.48,2.78,2.78,0,0,1-1,.18A2.67,2.67,0,0,1,107.93,72.13Zm2-1.15a1.06,1.06,0,0,0,.39-.83,1.09,1.09,0,0,0-.37-.83,1.41,1.41,0,0,0-1-.35,1.32,1.32,0,0,0-.92.35,1.1,1.1,0,0,0-.38.83A1.06,1.06,0,0,0,108,71a1.3,1.3,0,0,0,.91.34A1.4,1.4,0,0,0,109.89,71Zm-.16-3.18a.92.92,0,0,0,.29-.68.9.9,0,0,0-.29-.67,1.06,1.06,0,0,0-.77-.29,1,1,0,0,0-.77.29.89.89,0,0,0-.28.67.91.91,0,0,0,.28.68,1.2,1.2,0,0,0,1.54,0Z"/><path d="M114,66.81v1.85h3a.45.45,0,0,1,.37.15.48.48,0,0,1,0,.66.45.45,0,0,1-.37.15h-3V72a.32.32,0,0,1-.16.28.67.67,0,0,1-.34.09.59.59,0,0,1-.34-.1A.29.29,0,0,1,113,72V67a1.22,1.22,0,0,1,.26-.85,1.24,1.24,0,0,1,.94-.28H117a.39.39,0,0,1,.34.15.51.51,0,0,1,0,.66.43.43,0,0,1-.36.15Z"/></g></g></svg>