<svg xmlns="http://www.w3.org/2000/svg" viewBox="0 0 124 72.52"><defs><style>.cls-1{fill:#ee95e9;}.cls-2{fill:#441c41;}</style></defs><g id="Layer_2" data-name="Layer 2"><g id="Layer_1-2" data-name="Layer 1"><path class="cls-1" d="M30.31,0c10.22.23,18.5,3.84,24,12.77A15.4,15.4,0,0,1,56.77,23.9a25.16,25.16,0,0,0-.63,5c.12,4.42-2.37,6.93-5.83,9a7.36,7.36,0,0,0-2.24,3.13c-1.15,2.42-1.91,5-3.22,7.35a7.69,7.69,0,0,1-3.47,3.26c-4.14,1.67-8.48,2.5-13,1.38a24,24,0,0,0-3.93-.7C15.83,51.7,10.29,46.53,6,39.61a64.43,64.43,0,0,1-4.88-8.82A13.27,13.27,0,0,1,.08,24.18C1.91,10.94,10.5,2.54,23.77.69,26,.39,28.18.22,30.31,0Z"/><path d="M10.62,71.88,11,70.53H9.2L8.8,72a.57.57,0,0,1-.27.33.62.62,0,0,1-.37.06.48.48,0,0,1-.29-.15.32.32,0,0,1-.06-.33l.36-1.35H7.45a.41.41,0,0,1-.35-.14.41.41,0,0,1-.09-.3.48.48,0,0,1,.11-.3.4.4,0,0,1,.33-.15h1l.43-1.56h-1A.42.42,0,0,1,7.55,68a.48.48,0,0,1,0-.61.37.37,0,0,1,.33-.14H9l.26-1.11a.53.53,0,0,1,.25-.37.74.74,0,0,1,.37-.1.63.63,0,0,1,.32.15.34.34,0,0,1,.09.32L10,67.2H11.8l.28-1.13a.53.53,0,0,1,.23-.34.64.64,0,0,1,.37-.09.48.48,0,0,1,.32.13.38.38,0,0,1,.09.35l-.26,1.08h.81a.33.33,0,0,1,.29.14.6.6,0,0,1,.1.3.56.56,0,0,1-.13.31.42.42,0,0,1-.35.13h-1l-.38,1.56h1.06a.34.34,0,0,1,.3.15.46.46,0,0,1,.08.3.59.59,0,0,1-.14.3.41.41,0,0,1-.34.14h-1.2L11.6,72a.49.49,0,0,1-.25.32.72.72,0,0,1-.37.07.52.52,0,0,1-.31-.14A.31.31,0,0,1,10.62,71.88Zm.94-3.8H9.83l-.41,1.56H11.2Z"/><path d="M15.32,66.88a.41.41,0,0,1-.35-.15.59.59,0,0,1-.11-.36A.65.65,0,0,1,15,66a.36.36,0,0,1,.32-.16h3.5a.78.78,0,0,1,.41.09.41.41,0,0,1,.19.2.6.6,0,0,1,.05.3,2.16,2.16,0,0,1,0,.35l-1.22,5.13a.45.45,0,0,1-.22.39.6.6,0,0,1-.4.07.47.47,0,0,1-.35-.17.58.58,0,0,1-.06-.43l1.2-4.9Z"/><path d="M25.36,68.16l-.82,4a.44.44,0,0,1-.23.31.6.6,0,0,1-.37.06.64.64,0,0,1-.35-.17.45.45,0,0,1-.11-.39l.44-2a2,2,0,0,1-.44.11,2.45,2.45,0,0,1-.48,0,2.41,2.41,0,0,1-1.71-.63,2.25,2.25,0,0,1-.66-1.72,2.42,2.42,0,0,1,.18-1,2.29,2.29,0,0,1,.5-.75,2.37,2.37,0,0,1,.76-.47,2.41,2.41,0,0,1,.93-.18,2.91,2.91,0,0,1,1,.17A2,2,0,0,1,25.26,67,3.17,3.17,0,0,1,25.36,68.16Zm-2.36,1a1.31,1.31,0,0,0,.95-.36,1.39,1.39,0,0,0,0-1.89,1.33,1.33,0,0,0-2.27.95,1.24,1.24,0,0,0,.4.94A1.32,1.32,0,0,0,23,69.12Z"/><path d="M27.88,72.21a.89.89,0,0,1-.65-.21.79.79,0,0,1-.22-.56V66.69a.94.94,0,0,1,.14-.62.74.74,0,0,1,.63-.22h2a2.14,2.14,0,0,1,1.44.45,1.53,1.53,0,0,1,.55,1.11,1.49,1.49,0,0,1-.18,1,1.36,1.36,0,0,1-.61.52,1.27,1.27,0,0,1,1,.63,1.8,1.8,0,0,1,.25,1.13,1.92,1.92,0,0,1-.46,1.09,1.47,1.47,0,0,1-1.17.48Zm1.94-5.37h-1.7v1.58h1.77a.73.73,0,0,0,.6-.25.81.81,0,0,0,0-1.09A.86.86,0,0,0,29.82,66.84Zm.12,2.56H28.12v1.8H30.4a.67.67,0,0,0,.6-.27.91.91,0,0,0,.13-.63,1.08,1.08,0,0,0-.36-.61A1.13,1.13,0,0,0,29.94,69.4Z"/><path d="M34.69,66.81v1.85h3a.46.46,0,0,1,.38.15.48.48,0,0,1,0,.66.46.46,0,0,1-.38.15h-3V72a.31.31,0,0,1-.15.28.69.69,0,0,1-.34.09.57.57,0,0,1-.34-.1.29.29,0,0,1-.15-.27V67a1.17,1.17,0,0,1,.26-.85,1.23,1.23,0,0,1,.94-.28h2.81a.41.41,0,0,1,.34.15.57.57,0,0,1,.11.33.52.52,0,0,1-.12.33.43.43,0,0,1-.36.15Z"/><path d="M39.16,69.6,40,65.73a.37.37,0,0,1,.21-.3.84.84,0,0,1,.39-.06.6.6,0,0,1,.33.18.4.4,0,0,1,.12.37l-.43,2a1.8,1.8,0,0,1,.43-.11,3.73,3.73,0,0,1,.48,0,2.37,2.37,0,0,1,1.71.63,2.6,2.6,0,0,1,0,3.47,2.41,2.41,0,0,1-1.72.61,2.83,2.83,0,0,1-1-.18,1.91,1.91,0,0,1-.8-.53,2.19,2.19,0,0,1-.48-.89A2.94,2.94,0,0,1,39.16,69.6Zm2.32-.84a1.28,1.28,0,0,0-.94.36,1.24,1.24,0,0,0-.38.93,1.27,1.27,0,0,0,1.32,1.32,1.33,1.33,0,0,0,.94-.36,1.24,1.24,0,0,0,.38-1,1.18,1.18,0,0,0-.4-.93A1.33,1.33,0,0,0,41.48,68.76Z"/><path d="M46.45,66.81v1.85h3a.46.46,0,0,1,.38.15.48.48,0,0,1,0,.66.46.46,0,0,1-.38.15h-3V72a.31.31,0,0,1-.15.28.69.69,0,0,1-.34.09.57.57,0,0,1-.34-.1.29.29,0,0,1-.15-.27V67a1.17,1.17,0,0,1,.26-.85,1.23,1.23,0,0,1,.94-.28h2.81a.41.41,0,0,1,.34.15.57.57,0,0,1,.11.33.52.52,0,0,1-.12.33.43.43,0,0,1-.36.15Z"/><path class="cls-2" d="M97.31,0c10.22.23,18.5,3.84,24,12.77a15.4,15.4,0,0,1,2.43,11.13,25.16,25.16,0,0,0-.63,5c.12,4.42-2.37,6.93-5.83,9a7.36,7.36,0,0,0-2.24,3.13c-1.15,2.42-1.91,5-3.22,7.35a7.69,7.69,0,0,1-3.47,3.26c-4.14,1.67-8.48,2.5-13,1.38a24,24,0,0,0-3.93-.7C82.83,51.7,77.29,46.53,73,39.61a64.43,64.43,0,0,1-4.88-8.82,13.27,13.27,0,0,1-1.06-6.61C68.91,10.94,77.5,2.54,90.77.69,93,.39,95.18.22,97.31,0Z"/><path d="M78.18,71.88l.34-1.35H76.77L76.36,72a.57.57,0,0,1-.27.33.61.61,0,0,1-.37.06.51.51,0,0,1-.29-.15.32.32,0,0,1-.05-.33l.36-1.35H75a.4.4,0,0,1-.35-.14.42.42,0,0,1-.1-.3.44.44,0,0,1,.12-.3.37.37,0,0,1,.33-.15h1l.43-1.56h-1a.39.39,0,0,1-.33-.13.48.48,0,0,1-.12-.31.53.53,0,0,1,.11-.3.39.39,0,0,1,.34-.14H76.6l.26-1.11a.56.56,0,0,1,.25-.37.75.75,0,0,1,.38-.1.6.6,0,0,1,.31.15.34.34,0,0,1,.1.32l-.29,1.11h1.75l.29-1.13a.49.49,0,0,1,.23-.34.62.62,0,0,1,.37-.09.46.46,0,0,1,.31.13.38.38,0,0,1,.1.35l-.27,1.08h.82a.31.31,0,0,1,.28.14.51.51,0,0,1,.1.3.63.63,0,0,1-.12.31.45.45,0,0,1-.36.13h-1l-.39,1.56H80.8a.32.32,0,0,1,.3.15.46.46,0,0,1,.08.3.52.52,0,0,1-.14.3.4.4,0,0,1-.34.14H79.5L79.17,72a.53.53,0,0,1-.26.32.7.7,0,0,1-.37.07.47.47,0,0,1-.3-.14A.32.32,0,0,1,78.18,71.88Zm.94-3.8H77.39L77,69.64h1.78Z"/><path d="M84.64,69.57a.43.43,0,0,1-.36-.15.56.56,0,0,1-.12-.34.52.52,0,0,1,.13-.34.45.45,0,0,1,.37-.15,1.76,1.76,0,0,0,.81-.21,1,1,0,0,0,.39-.51.89.89,0,0,0,0-.51,1,1,0,0,0-.21-.46,1.32,1.32,0,0,0-.4-.34,1,1,0,0,0-.5-.13,1.62,1.62,0,0,0-.75.14,1.5,1.5,0,0,0-.54.51.56.56,0,0,1-.35.22.53.53,0,0,1-.36-.06.47.47,0,0,1-.24-.26.45.45,0,0,1,.06-.41,2.28,2.28,0,0,1,.84-.82A2.61,2.61,0,0,1,85,65.44a3.46,3.46,0,0,1,.64.13,2.1,2.1,0,0,1,.65.33,1.8,1.8,0,0,1,.5.61,2.18,2.18,0,0,1,.23.95,2.44,2.44,0,0,1-.07.65,1.62,1.62,0,0,1-.17.44,1.11,1.11,0,0,1-.24.31l-.22.21.27.2a1.35,1.35,0,0,1,.28.3,1.69,1.69,0,0,1,.23.42,1.42,1.42,0,0,1,.09.52,2,2,0,0,1-.23.93,1.75,1.75,0,0,1-.51.59,2.12,2.12,0,0,1-.63.33,2.64,2.64,0,0,1-.6.12,3.88,3.88,0,0,1-1.37-.13,1.91,1.91,0,0,1-1.06-.79.43.43,0,0,1-.07-.38.7.7,0,0,1,.21-.34.62.62,0,0,1,.33-.14.36.36,0,0,1,.33.14,1.62,1.62,0,0,0,.67.59,2.06,2.06,0,0,0,.81.09.83.83,0,0,0,.31-.08,1.28,1.28,0,0,0,.34-.19,1.14,1.14,0,0,0,.27-.31.84.84,0,0,0-.3-1.16A2.17,2.17,0,0,0,84.64,69.57Z"/><path d="M89.53,72.13a2.06,2.06,0,0,1-.76-.48,2,2,0,0,1-.48-.7,2.12,2.12,0,0,1-.17-.83,1.66,1.66,0,0,1,.32-1.05,4.94,4.94,0,0,1,.59-.65,2.85,2.85,0,0,1-.38-.59,1.63,1.63,0,0,1-.17-.73,1.9,1.9,0,0,1,.11-.59,1.63,1.63,0,0,1,.36-.6,2.43,2.43,0,0,1,.64-.45,2.27,2.27,0,0,1,1-.18,2.5,2.5,0,0,1,1,.18,2.29,2.29,0,0,1,.65.46,1.9,1.9,0,0,1,.46,1.18,1.63,1.63,0,0,1-.17.73,2.52,2.52,0,0,1-.39.59,4.94,4.94,0,0,1,.59.65A1.61,1.61,0,0,1,93,70.12a2,2,0,0,1-.18.83,2.13,2.13,0,0,1-.48.7,2.22,2.22,0,0,1-.78.48,2.84,2.84,0,0,1-1,.18A2.71,2.71,0,0,1,89.53,72.13Zm2-1.15a1,1,0,0,0,.4-.83,1.1,1.1,0,0,0-.38-.83,1.37,1.37,0,0,0-1-.35,1.29,1.29,0,0,0-.91.35,1.07,1.07,0,0,0-.38.83,1.08,1.08,0,0,0,.38.83,1.32,1.32,0,0,0,.91.34A1.39,1.39,0,0,0,91.49,71Zm-.15-3.18a.91.91,0,0,0,.28-.68.87.87,0,0,0-.29-.67,1.17,1.17,0,0,0-1.54,0,.93.93,0,0,0-.28.67,1,1,0,0,0,.28.68,1.21,1.21,0,0,0,1.55,0Z"/><path d="M95.29,72.13a2.06,2.06,0,0,1-.76-.48,2,2,0,0,1-.48-.7,2.12,2.12,0,0,1-.17-.83,1.66,1.66,0,0,1,.32-1.05,4.94,4.94,0,0,1,.59-.65,2.85,2.85,0,0,1-.38-.59,1.63,1.63,0,0,1-.17-.73,1.9,1.9,0,0,1,.11-.59,1.63,1.63,0,0,1,.36-.6,2.43,2.43,0,0,1,.64-.45,2.27,2.27,0,0,1,1-.18,2.5,2.5,0,0,1,1,.18,2.29,2.29,0,0,1,.65.46,1.9,1.9,0,0,1,.46,1.18,1.63,1.63,0,0,1-.17.73,2.52,2.52,0,0,1-.39.59,4.94,4.94,0,0,1,.59.65,1.61,1.61,0,0,1,.33,1.05,2,2,0,0,1-.18.83,2.13,2.13,0,0,1-.48.7,2.22,2.22,0,0,1-.78.48,2.84,2.84,0,0,1-1,.18A2.71,2.71,0,0,1,95.29,72.13Zm2-1.15a1,1,0,0,0,.4-.83,1.1,1.1,0,0,0-.38-.83,1.37,1.37,0,0,0-1-.35,1.29,1.29,0,0,0-.91.35,1.07,1.07,0,0,0-.38.83,1.08,1.08,0,0,0,.38.83,1.32,1.32,0,0,0,.91.34A1.39,1.39,0,0,0,97.25,71ZM97.1,67.8a.91.91,0,0,0,.28-.68.87.87,0,0,0-.29-.67,1.17,1.17,0,0,0-1.54,0,.93.93,0,0,0-.28.67,1,1,0,0,0,.28.68,1.21,1.21,0,0,0,1.55,0Z"/><path d="M101.32,71.25h3a.44.44,0,0,1,.37.15.52.52,0,0,1,.12.33.53.53,0,0,1-.13.33.46.46,0,0,1-.36.15h-2.81a1.23,1.23,0,0,1-.81-.26.91.91,0,0,1-.31-.75V67a1.22,1.22,0,0,1,.25-.85,1.27,1.27,0,0,1,1-.28h2.8a.41.41,0,0,1,.35.15.57.57,0,0,1,.11.33.52.52,0,0,1-.12.33.43.43,0,0,1-.36.15h-3v1.85h3a.48.48,0,0,1,.38.15.51.51,0,0,1,0,.66.48.48,0,0,1-.38.15h-3Z"/><path d="M107.13,66.64v1.2q0,.22.06.27s.14,0,.27,0A3.27,3.27,0,0,1,108,68a2.14,2.14,0,0,1,.62,0,1.93,1.93,0,0,1,1,.34,1.83,1.83,0,0,1,.55.64,2.25,2.25,0,0,1,.22.74,4,4,0,0,1,0,.68,2.75,2.75,0,0,1-.19.69,2,2,0,0,1-.44.66,2.38,2.38,0,0,1-.72.48,2.58,2.58,0,0,1-1,.16,2.41,2.41,0,0,1-1.49-.49,1.6,1.6,0,0,1-.58-1.07.55.55,0,0,1,.09-.37.52.52,0,0,1,.39-.18.56.56,0,0,1,.42.07.47.47,0,0,1,.18.31.92.92,0,0,0,.28.44,1,1,0,0,0,.71.26,1.47,1.47,0,0,0,1-.26,1.13,1.13,0,0,0,.43-.82,1.24,1.24,0,0,0-.23-.88,1.21,1.21,0,0,0-.87-.42,1.92,1.92,0,0,0-.55,0l-.4.11a2.68,2.68,0,0,1-.35.1.86.86,0,0,1-.36,0,.45.45,0,0,1-.4-.32,3.32,3.32,0,0,1-.08-.81c0-.19,0-.39,0-.6v-1.1c0-.14,0-.23,0-.29a.55.55,0,0,1,.31-.39,1.22,1.22,0,0,1,.46-.09h2.59a.36.36,0,0,1,.33.16.57.57,0,0,1,.11.33.66.66,0,0,1-.12.34.38.38,0,0,1-.32.15Z"/><path d="M113.73,69.57a.43.43,0,0,1-.36-.15.54.54,0,0,1,0-.68.48.48,0,0,1,.38-.15,1.76,1.76,0,0,0,.81-.21,1,1,0,0,0,.39-.51.89.89,0,0,0,0-.51,1,1,0,0,0-.21-.46,1.32,1.32,0,0,0-.4-.34,1,1,0,0,0-.5-.13,1.62,1.62,0,0,0-.75.14,1.43,1.43,0,0,0-.54.51.58.58,0,0,1-.35.22.53.53,0,0,1-.36-.06.47.47,0,0,1-.24-.26.45.45,0,0,1,.06-.41,2.28,2.28,0,0,1,.84-.82,2.59,2.59,0,0,1,1.51-.31,3.63,3.63,0,0,1,.64.13,2.05,2.05,0,0,1,.64.33,1.83,1.83,0,0,1,.51.61,2.33,2.33,0,0,1,.23.95,2.93,2.93,0,0,1-.07.65,1.62,1.62,0,0,1-.17.44,1.33,1.33,0,0,1-.24.31l-.22.21a2.64,2.64,0,0,1,.26.2,1.38,1.38,0,0,1,.29.3,1.67,1.67,0,0,1,.22.42,1.42,1.42,0,0,1,.09.52,1.85,1.85,0,0,1-.22.93,1.75,1.75,0,0,1-.51.59,2.12,2.12,0,0,1-.63.33,2.64,2.64,0,0,1-.6.12,3.88,3.88,0,0,1-1.37-.13,1.88,1.88,0,0,1-1.06-.79.4.4,0,0,1-.07-.38.77.77,0,0,1,.2-.34.69.69,0,0,1,.33-.14.34.34,0,0,1,.33.14,1.63,1.63,0,0,0,.68.59,2.06,2.06,0,0,0,.81.09.83.83,0,0,0,.31-.08,1.45,1.45,0,0,0,.34-.19,1.63,1.63,0,0,0,.27-.31.75.75,0,0,0,.11-.43.74.74,0,0,0-.41-.73A2.2,2.2,0,0,0,113.73,69.57Z"/></g></g></svg>