<svg xmlns="http://www.w3.org/2000/svg" viewBox="0 0 191 72.49"><defs><style>.cls-1{fill:#1f8277;}.cls-2{fill:#056258;}.cls-3{fill:#014840;}</style></defs><g id="Layer_2" data-name="Layer 2"><g id="Layer_1-2" data-name="Layer 1"><path class="cls-1" d="M30.31,0c10.22.23,18.5,3.84,24,12.77A15.4,15.4,0,0,1,56.77,23.9a25.16,25.16,0,0,0-.63,5c.12,4.42-2.37,6.93-5.83,9a7.36,7.36,0,0,0-2.24,3.13c-1.15,2.42-1.91,5-3.22,7.35a7.69,7.69,0,0,1-3.47,3.26c-4.14,1.67-8.48,2.5-13,1.38a24,24,0,0,0-3.93-.7C15.83,51.7,10.29,46.53,6,39.61a64.43,64.43,0,0,1-4.88-8.82A13.27,13.27,0,0,1,.08,24.18C1.91,10.94,10.5,2.54,23.77.69,26,.39,28.18.22,30.31,0Z"/><path d="M11.21,71.88l.33-1.35H9.79L9.38,72a.51.51,0,0,1-.27.33.58.58,0,0,1-.36.06.54.54,0,0,1-.3-.15.34.34,0,0,1,0-.33l.36-1.35H8a.4.4,0,0,1-.35-.14.41.41,0,0,1-.09-.3.43.43,0,0,1,.11-.3A.4.4,0,0,1,8,69.64H9l.43-1.56h-1A.42.42,0,0,1,8.14,68,.53.53,0,0,1,8,67.64a.47.47,0,0,1,.11-.3.37.37,0,0,1,.33-.14H9.62l.27-1.11a.55.55,0,0,1,.24-.37.77.77,0,0,1,.38-.1.57.57,0,0,1,.31.15.34.34,0,0,1,.1.32l-.29,1.11h1.75l.29-1.13a.49.49,0,0,1,.23-.34.62.62,0,0,1,.37-.09.44.44,0,0,1,.31.13.38.38,0,0,1,.1.35l-.26,1.08h.81a.3.3,0,0,1,.28.14.53.53,0,0,1,.11.3.56.56,0,0,1-.13.31.43.43,0,0,1-.35.13h-1l-.38,1.56h1.05a.32.32,0,0,1,.3.15.41.41,0,0,1,.09.3.61.61,0,0,1-.15.3.39.39,0,0,1-.33.14h-1.2L12.19,72a.5.5,0,0,1-.26.32.66.66,0,0,1-.36.07.52.52,0,0,1-.31-.14A.31.31,0,0,1,11.21,71.88Zm.93-3.8H10.42L10,69.64h1.77Z"/><path d="M18.69,72.13a.57.57,0,0,1-.4.13.65.65,0,0,1-.4-.12.41.41,0,0,1-.15-.34V67l-.58.48a.64.64,0,0,1-.44.17.43.43,0,0,1-.35-.21.49.49,0,0,1-.1-.44.85.85,0,0,1,.27-.36l1.1-.86a.75.75,0,0,1,.41-.2.74.74,0,0,1,.41.06.59.59,0,0,1,.27.27,1.3,1.3,0,0,1,.11.37v5.5A.45.45,0,0,1,18.69,72.13Z"/><path d="M22.82,66.81v1.85h3a.46.46,0,0,1,.38.15.48.48,0,0,1,0,.66.46.46,0,0,1-.38.15h-3V72a.31.31,0,0,1-.15.28.69.69,0,0,1-.34.09.57.57,0,0,1-.34-.1.29.29,0,0,1-.15-.27V67A1,1,0,0,1,23,65.85h2.81a.41.41,0,0,1,.34.15.51.51,0,0,1,.11.33.52.52,0,0,1-.12.33.43.43,0,0,1-.36.15Z"/><path d="M28.55,72.13a2.06,2.06,0,0,1-.76-.48,2,2,0,0,1-.48-.7,2.12,2.12,0,0,1-.17-.83,1.66,1.66,0,0,1,.32-1.05,4.34,4.34,0,0,1,.6-.65,2.52,2.52,0,0,1-.39-.59,1.63,1.63,0,0,1-.17-.73,1.9,1.9,0,0,1,.11-.59,1.63,1.63,0,0,1,.36-.6,2.43,2.43,0,0,1,.64-.45,2.28,2.28,0,0,1,1-.18,2.45,2.45,0,0,1,1,.18,2,2,0,0,1,.65.46,1.9,1.9,0,0,1,.46,1.18,1.63,1.63,0,0,1-.17.73,2.85,2.85,0,0,1-.38.59,6.9,6.9,0,0,1,.59.65A1.66,1.66,0,0,1,32,70.12a2.12,2.12,0,0,1-.17.83,2.16,2.16,0,0,1-.49.7,2.22,2.22,0,0,1-.78.48,2.78,2.78,0,0,1-1,.18A2.73,2.73,0,0,1,28.55,72.13Zm2-1.15a1.09,1.09,0,0,0,0-1.66,1.37,1.37,0,0,0-1-.35,1.32,1.32,0,0,0-.92.35,1.1,1.1,0,0,0-.38.83,1.06,1.06,0,0,0,.39.83,1.3,1.3,0,0,0,.91.34A1.4,1.4,0,0,0,30.52,71Zm-.16-3.18a.92.92,0,0,0,.29-.68.87.87,0,0,0-.3-.67,1.15,1.15,0,0,0-1.53,0,.89.89,0,0,0-.28.67.91.91,0,0,0,.28.68,1,1,0,0,0,.77.28A1,1,0,0,0,30.36,67.8Z"/><path d="M35.18,69.57a.43.43,0,0,1-.36-.15.56.56,0,0,1-.12-.34.58.58,0,0,1,.13-.34.46.46,0,0,1,.38-.15,1.68,1.68,0,0,0,.8-.21,1,1,0,0,0,.4-.51,1.1,1.1,0,0,0,0-.51,1.21,1.21,0,0,0-.21-.46,1.45,1.45,0,0,0-.4-.34,1,1,0,0,0-.5-.13,1.62,1.62,0,0,0-.75.14,1.52,1.52,0,0,0-.55.51.53.53,0,0,1-.35.22.56.56,0,0,1-.36-.06.47.47,0,0,1-.24-.26.52.52,0,0,1,.06-.41,2.28,2.28,0,0,1,.84-.82,2.64,2.64,0,0,1,1.52-.31,3.37,3.37,0,0,1,.63.13,2.1,2.1,0,0,1,.65.33,1.69,1.69,0,0,1,.5.61,2,2,0,0,1,.23.95,3,3,0,0,1-.06.65,2,2,0,0,1-.18.44,1.31,1.31,0,0,1-.23.31l-.22.21a2.64,2.64,0,0,1,.26.2,1.56,1.56,0,0,1,.51.72,1.42,1.42,0,0,1,.09.52,2,2,0,0,1-.22.93A1.75,1.75,0,0,1,37,72a2.05,2.05,0,0,1-.64.33,2.45,2.45,0,0,1-.6.12,3.9,3.9,0,0,1-1.37-.13,1.86,1.86,0,0,1-1.05-.79.4.4,0,0,1-.07-.38.6.6,0,0,1,.53-.48.36.36,0,0,1,.33.14,1.58,1.58,0,0,0,.68.59,2.06,2.06,0,0,0,.81.09.75.75,0,0,0,.3-.08,1.51,1.51,0,0,0,.35-.19,1.63,1.63,0,0,0,.27-.31.83.83,0,0,0,.11-.43.75.75,0,0,0-.41-.73A2.22,2.22,0,0,0,35.18,69.57Z"/><path d="M39.19,66.88a.4.4,0,0,1-.35-.15.6.6,0,0,1-.12-.36.66.66,0,0,1,.11-.36.35.35,0,0,1,.31-.16h3.51a.8.8,0,0,1,.41.09.41.41,0,0,1,.19.2.6.6,0,0,1,0,.3,2.16,2.16,0,0,1,0,.35l-1.22,5.13a.47.47,0,0,1-.22.39.62.62,0,0,1-.41.07.46.46,0,0,1-.34-.17.58.58,0,0,1-.06-.43l1.2-4.9Z"/><path d="M45,66.88a.4.4,0,0,1-.35-.15.6.6,0,0,1-.12-.36.66.66,0,0,1,.11-.36.35.35,0,0,1,.31-.16h3.51a.8.8,0,0,1,.41.09.41.41,0,0,1,.19.2.6.6,0,0,1,.05.3,2.16,2.16,0,0,1,0,.35l-1.22,5.13a.47.47,0,0,1-.22.39.62.62,0,0,1-.41.07.46.46,0,0,1-.34-.17.58.58,0,0,1-.06-.43l1.2-4.9Z"/><path class="cls-2" d="M97.31,0c10.22.23,18.5,3.84,24,12.77a15.4,15.4,0,0,1,2.43,11.13,25.16,25.16,0,0,0-.63,5c.12,4.42-2.37,6.93-5.83,9a7.36,7.36,0,0,0-2.24,3.13c-1.15,2.42-1.91,5-3.22,7.35a7.69,7.69,0,0,1-3.47,3.26c-4.14,1.67-8.48,2.5-13,1.38a24,24,0,0,0-3.93-.7C82.83,51.7,77.29,46.53,73,39.61a64.43,64.43,0,0,1-4.88-8.82,13.27,13.27,0,0,1-1.06-6.61C68.91,10.94,77.5,2.54,90.77.69,93,.39,95.18.22,97.31,0Z"/><path d="M78.33,71.88l.33-1.35H76.91L76.5,72a.51.51,0,0,1-.27.33.58.58,0,0,1-.36.06.54.54,0,0,1-.3-.15.34.34,0,0,1,0-.33l.36-1.35h-.72a.4.4,0,0,1-.35-.14.41.41,0,0,1-.09-.3.43.43,0,0,1,.11-.3.4.4,0,0,1,.33-.15h1l.43-1.56h-1a.42.42,0,0,1-.33-.13.53.53,0,0,1-.11-.31.47.47,0,0,1,.11-.3.37.37,0,0,1,.33-.14h1.15L77,66.09a.55.55,0,0,1,.24-.37.77.77,0,0,1,.38-.1.57.57,0,0,1,.31.15.34.34,0,0,1,.1.32l-.29,1.11H79.5l.29-1.13a.49.49,0,0,1,.23-.34.62.62,0,0,1,.37-.09.44.44,0,0,1,.31.13.38.38,0,0,1,.1.35l-.26,1.08h.81a.3.3,0,0,1,.28.14.53.53,0,0,1,.11.3.56.56,0,0,1-.13.31.43.43,0,0,1-.35.13h-1l-.38,1.56h1a.32.32,0,0,1,.3.15.41.41,0,0,1,.09.3.61.61,0,0,1-.15.3.39.39,0,0,1-.33.14h-1.2L79.31,72a.5.5,0,0,1-.26.32.66.66,0,0,1-.36.07.52.52,0,0,1-.31-.14A.31.31,0,0,1,78.33,71.88Zm.93-3.8H77.54l-.41,1.56H78.9Z"/><path d="M85,65.78a2.38,2.38,0,0,1,2,1,3.15,3.15,0,0,1,.48,1A4.38,4.38,0,0,1,87.64,69a4.51,4.51,0,0,1-.16,1.23,3.22,3.22,0,0,1-.49,1,2.25,2.25,0,0,1-.83.73,2.54,2.54,0,0,1-1.21.27A2.52,2.52,0,0,1,83.76,72a2.37,2.37,0,0,1-.84-.73,3,3,0,0,1-.49-1A4.51,4.51,0,0,1,82.26,69a4.71,4.71,0,0,1,.15-1.18,3.15,3.15,0,0,1,.48-1,2.42,2.42,0,0,1,2.06-1Zm0,1.1a1.52,1.52,0,0,0-.81.2,1.55,1.55,0,0,0-.51.51,2,2,0,0,0-.26.7,3.88,3.88,0,0,0-.07.75,3.48,3.48,0,0,0,.09.79,2.13,2.13,0,0,0,.28.69,1.62,1.62,0,0,0,.51.5,1.54,1.54,0,0,0,.77.18,1.5,1.5,0,0,0,.76-.18,1.36,1.36,0,0,0,.51-.5,2,2,0,0,0,.3-.69,3.48,3.48,0,0,0,.09-.79,3.29,3.29,0,0,0-.09-.76,2,2,0,0,0-.27-.7,1.77,1.77,0,0,0-.52-.5A1.46,1.46,0,0,0,85,66.88Z"/><path d="M89.7,66.64v1.2c0,.15,0,.24.07.27s.13,0,.27,0a2.94,2.94,0,0,1,.5-.07,2.21,2.21,0,0,1,.63,0,2,2,0,0,1,1,.34,1.91,1.91,0,0,1,.54.64,2.27,2.27,0,0,1,.23.74,3.93,3.93,0,0,1,0,.68,2.35,2.35,0,0,1-.18.69,2.18,2.18,0,0,1-.44.66,2.32,2.32,0,0,1-.73.48,2.58,2.58,0,0,1-1,.16,2.38,2.38,0,0,1-1.48-.49,1.52,1.52,0,0,1-.58-1.07.5.5,0,0,1,.08-.37.56.56,0,0,1,.4-.18.53.53,0,0,1,.41.07.48.48,0,0,1,.19.31.85.85,0,0,0,.28.44,1,1,0,0,0,.7.26,1.44,1.44,0,0,0,1-.26,1.14,1.14,0,0,0,.44-.82,1.19,1.19,0,0,0-.24-.88,1.21,1.21,0,0,0-.87-.42,1.85,1.85,0,0,0-.54,0l-.41.11a2.56,2.56,0,0,1-.34.1.87.87,0,0,1-.36,0,.45.45,0,0,1-.4-.32,2.88,2.88,0,0,1-.08-.81c0-.19,0-.39,0-.6s0-.42,0-.61,0-.35,0-.49a1,1,0,0,1,0-.29.55.55,0,0,1,.31-.39,1.18,1.18,0,0,1,.46-.09h2.59a.35.35,0,0,1,.32.16.51.51,0,0,1,.11.33.66.66,0,0,1-.12.34.35.35,0,0,1-.31.15Z"/><path d="M94.17,69.6,95,65.73a.38.38,0,0,1,.22-.3.8.8,0,0,1,.38-.06.66.66,0,0,1,.34.18.45.45,0,0,1,.12.37l-.44,2a1.8,1.8,0,0,1,.43-.11,3.89,3.89,0,0,1,.49,0,2.41,2.41,0,0,1,1.71.63,2.28,2.28,0,0,1,.66,1.73,2.23,2.23,0,0,1-.66,1.74,2.4,2.4,0,0,1-1.71.61,2.88,2.88,0,0,1-1-.18,2,2,0,0,1-.8-.53,2.19,2.19,0,0,1-.48-.89A3.11,3.11,0,0,1,94.17,69.6Zm2.33-.84a1.31,1.31,0,0,0-1,.36,1.23,1.23,0,0,0-.37.93,1.27,1.27,0,0,0,.37,1,1.41,1.41,0,0,0,1.88,0,1.24,1.24,0,0,0,.39-1,1.19,1.19,0,0,0-.41-.93A1.31,1.31,0,0,0,96.5,68.76Z"/><path d="M104,71.38a.73.73,0,0,1,.12.34.51.51,0,0,1-.11.34.37.37,0,0,1-.32.15H101a1.44,1.44,0,0,1-.46-.08.52.52,0,0,1-.3-.4.58.58,0,0,1,0-.21c0-.1,0-.22,0-.35s0-.28,0-.45v-.55a1.11,1.11,0,0,1,.18-.72,1,1,0,0,1,.66-.29l.37,0,.35,0,.37,0,.4-.07a1.07,1.07,0,0,0,.52-.2,1.17,1.17,0,0,0,.28-.36,1.16,1.16,0,0,0,.12-.45,2.22,2.22,0,0,0,0-.45,1,1,0,0,0-.35-.69,1.33,1.33,0,0,0-.9-.25,1.13,1.13,0,0,0-.74.23.78.78,0,0,0-.31.42.59.59,0,0,1-.18.34.54.54,0,0,1-.4.14.57.57,0,0,1-.42-.14.46.46,0,0,1-.11-.36,1.72,1.72,0,0,1,.18-.6,1.79,1.79,0,0,1,.44-.52,1.94,1.94,0,0,1,.66-.38,2.53,2.53,0,0,1,.86-.16,2.66,2.66,0,0,1,1,.18,2,2,0,0,1,.71.46,2,2,0,0,1,.55,1.26,5.43,5.43,0,0,1,0,.69,2.08,2.08,0,0,1-.19.77,1.71,1.71,0,0,1-.52.65,1.94,1.94,0,0,1-1,.36l-.36,0-.24,0-.23,0-.3,0c-.17,0-.28.06-.32.13a.7.7,0,0,0-.07.33v.38a.41.41,0,0,0,.07.28.59.59,0,0,0,.34.06h2.09A.35.35,0,0,1,104,71.38Z"/><path d="M107,66.64v1.2c0,.15,0,.24.07.27s.13,0,.27,0a2.94,2.94,0,0,1,.5-.07,2.21,2.21,0,0,1,.63,0,2,2,0,0,1,1,.34A1.91,1.91,0,0,1,110,69a2.27,2.27,0,0,1,.23.74,3.93,3.93,0,0,1,0,.68,2.35,2.35,0,0,1-.18.69,2.18,2.18,0,0,1-.44.66,2.32,2.32,0,0,1-.73.48,2.58,2.58,0,0,1-1.05.16,2.38,2.38,0,0,1-1.48-.49,1.52,1.52,0,0,1-.58-1.07.5.5,0,0,1,.08-.37.56.56,0,0,1,.4-.18.53.53,0,0,1,.41.07.48.48,0,0,1,.19.31.85.85,0,0,0,.28.44,1,1,0,0,0,.7.26,1.44,1.44,0,0,0,1-.26,1.14,1.14,0,0,0,.44-.82,1.19,1.19,0,0,0-.24-.88,1.21,1.21,0,0,0-.87-.42,1.85,1.85,0,0,0-.54,0l-.41.11a2.56,2.56,0,0,1-.34.1.87.87,0,0,1-.36,0,.45.45,0,0,1-.4-.32,2.88,2.88,0,0,1-.08-.81c0-.19,0-.39,0-.6s0-.42,0-.61,0-.35,0-.49a1,1,0,0,1,0-.29.55.55,0,0,1,.31-.39,1.18,1.18,0,0,1,.46-.09h2.59a.35.35,0,0,1,.32.16.51.51,0,0,1,.11.33.66.66,0,0,1-.12.34.35.35,0,0,1-.31.15Z"/><path d="M112.71,72.13a2.06,2.06,0,0,1-.76-.48,2,2,0,0,1-.48-.7,2.12,2.12,0,0,1-.17-.83,1.66,1.66,0,0,1,.32-1.05,4.34,4.34,0,0,1,.6-.65,2.52,2.52,0,0,1-.39-.59,1.63,1.63,0,0,1-.17-.73,1.9,1.9,0,0,1,.11-.59,1.63,1.63,0,0,1,.36-.6,2.43,2.43,0,0,1,.64-.45,2.28,2.28,0,0,1,1-.18,2.45,2.45,0,0,1,1,.18,2,2,0,0,1,.65.46,1.9,1.9,0,0,1,.46,1.18,1.63,1.63,0,0,1-.17.73,2.85,2.85,0,0,1-.38.59,6.9,6.9,0,0,1,.59.65,1.66,1.66,0,0,1,.32,1.05A2.12,2.12,0,0,1,116,71a2.16,2.16,0,0,1-.49.7,2.22,2.22,0,0,1-.78.48,2.78,2.78,0,0,1-1,.18A2.73,2.73,0,0,1,112.71,72.13Zm2-1.15a1.09,1.09,0,0,0,0-1.66,1.37,1.37,0,0,0-1-.35,1.32,1.32,0,0,0-.92.35,1.1,1.1,0,0,0-.38.83,1.06,1.06,0,0,0,.39.83,1.3,1.3,0,0,0,.91.34A1.4,1.4,0,0,0,114.68,71Zm-.16-3.18a.92.92,0,0,0,.29-.68.87.87,0,0,0-.3-.67,1.15,1.15,0,0,0-1.53,0,.89.89,0,0,0-.28.67.91.91,0,0,0,.28.68,1,1,0,0,0,.77.28A1,1,0,0,0,114.52,67.8Z"/><path class="cls-3" d="M164.31,0c10.22.23,18.5,3.84,24,12.77a15.4,15.4,0,0,1,2.43,11.13,25.16,25.16,0,0,0-.63,5c.12,4.42-2.37,6.93-5.83,9a7.36,7.36,0,0,0-2.24,3.13c-1.15,2.42-1.91,5-3.22,7.35a7.69,7.69,0,0,1-3.47,3.26c-4.14,1.67-8.48,2.5-13,1.38a24,24,0,0,0-3.93-.7c-8.64-.66-14.18-5.83-18.45-12.75a64.43,64.43,0,0,1-4.88-8.82,13.27,13.27,0,0,1-1.06-6.61C135.91,10.94,144.5,2.54,157.77.69,160,.39,162.18.22,164.31,0Z"/><path d="M145.33,71.88l.33-1.35h-1.75L143.5,72a.51.51,0,0,1-.27.33.58.58,0,0,1-.36.06.54.54,0,0,1-.3-.15.34.34,0,0,1,0-.33l.36-1.35h-.72a.4.4,0,0,1-.35-.14.41.41,0,0,1-.09-.3.43.43,0,0,1,.11-.3.4.4,0,0,1,.33-.15h1l.43-1.56h-1a.42.42,0,0,1-.33-.13.53.53,0,0,1-.11-.31.47.47,0,0,1,.11-.3.37.37,0,0,1,.33-.14h1.15l.27-1.11a.55.55,0,0,1,.24-.37.77.77,0,0,1,.38-.1.57.57,0,0,1,.31.15.34.34,0,0,1,.1.32l-.29,1.11h1.75l.29-1.13a.49.49,0,0,1,.23-.34.62.62,0,0,1,.37-.09.44.44,0,0,1,.31.13.38.38,0,0,1,.1.35l-.26,1.08h.81a.3.3,0,0,1,.28.14.53.53,0,0,1,.11.3.56.56,0,0,1-.13.31.43.43,0,0,1-.35.13h-1l-.38,1.56h1.05a.32.32,0,0,1,.3.15.41.41,0,0,1,.09.3.61.61,0,0,1-.15.3.39.39,0,0,1-.33.14h-1.2L146.31,72a.5.5,0,0,1-.26.32.66.66,0,0,1-.36.07.52.52,0,0,1-.31-.14A.31.31,0,0,1,145.33,71.88Zm.93-3.8h-1.72l-.41,1.56h1.77Z"/><path d="M152,65.78a2.38,2.38,0,0,1,2.05,1,3.15,3.15,0,0,1,.48,1,4.38,4.38,0,0,1,.16,1.19,4.51,4.51,0,0,1-.16,1.23,3.22,3.22,0,0,1-.49,1,2.25,2.25,0,0,1-.83.73,2.54,2.54,0,0,1-1.21.27,2.52,2.52,0,0,1-1.19-.27,2.37,2.37,0,0,1-.84-.73,3,3,0,0,1-.49-1,4.51,4.51,0,0,1-.17-1.23,4.71,4.71,0,0,1,.15-1.18,3.15,3.15,0,0,1,.48-1,2.42,2.42,0,0,1,2.06-1Zm0,1.1a1.52,1.52,0,0,0-.81.2,1.55,1.55,0,0,0-.51.51,2,2,0,0,0-.26.7,3.88,3.88,0,0,0-.07.75,3.48,3.48,0,0,0,.09.79,2.13,2.13,0,0,0,.28.69,1.62,1.62,0,0,0,.51.5,1.54,1.54,0,0,0,.77.18,1.5,1.5,0,0,0,.76-.18,1.36,1.36,0,0,0,.51-.5,2,2,0,0,0,.3-.69,3.48,3.48,0,0,0,.09-.79,3.29,3.29,0,0,0-.09-.76,2,2,0,0,0-.27-.7,1.77,1.77,0,0,0-.52-.5A1.46,1.46,0,0,0,152,66.88Z"/><path d="M158.57,72.13a.57.57,0,0,1-.4.13.65.65,0,0,1-.4-.12.41.41,0,0,1-.15-.34V67l-.58.48a.64.64,0,0,1-.44.17.43.43,0,0,1-.35-.21.49.49,0,0,1-.1-.44.85.85,0,0,1,.27-.36l1.1-.86a.75.75,0,0,1,.41-.2.74.74,0,0,1,.41.06.59.59,0,0,1,.27.27,1.3,1.3,0,0,1,.11.37v5.5A.45.45,0,0,1,158.57,72.13Z"/><path d="M161.14,69.76v-3.4a.37.37,0,0,1,.15-.33.61.61,0,0,1,.35-.11A.57.57,0,0,1,162,66a.36.36,0,0,1,.16.33v3a.57.57,0,0,0,.07.36.55.55,0,0,0,.36.08h1.66V66.4a.4.4,0,0,1,.15-.33.63.63,0,0,1,.35-.11.62.62,0,0,1,.34.11.38.38,0,0,1,.16.33v3.44h.56a.5.5,0,0,1,.39.16.53.53,0,0,1,.13.35.52.52,0,0,1-.13.36.47.47,0,0,1-.39.16h-.56V72a.39.39,0,0,1-.16.34.57.57,0,0,1-.69,0,.41.41,0,0,1-.15-.35V70.87h-1.9a4.51,4.51,0,0,1-.61,0,.68.68,0,0,1-.36-.18.57.57,0,0,1-.16-.33A2.83,2.83,0,0,1,161.14,69.76Z"/><path d="M168.19,72.13a2.06,2.06,0,0,1-.76-.48A2,2,0,0,1,167,71a2.12,2.12,0,0,1-.17-.83,1.66,1.66,0,0,1,.32-1.05,4.34,4.34,0,0,1,.6-.65,2.52,2.52,0,0,1-.39-.59,1.63,1.63,0,0,1-.17-.73,1.9,1.9,0,0,1,.11-.59,1.63,1.63,0,0,1,.36-.6,2.43,2.43,0,0,1,.64-.45,2.28,2.28,0,0,1,1-.18,2.45,2.45,0,0,1,1,.18,2,2,0,0,1,.65.46,1.9,1.9,0,0,1,.46,1.18,1.63,1.63,0,0,1-.17.73,2.85,2.85,0,0,1-.38.59,6.9,6.9,0,0,1,.59.65,1.66,1.66,0,0,1,.32,1.05,2.12,2.12,0,0,1-.17.83,2.16,2.16,0,0,1-.49.7,2.22,2.22,0,0,1-.78.48,2.78,2.78,0,0,1-1,.18A2.73,2.73,0,0,1,168.19,72.13Zm2-1.15a1.09,1.09,0,0,0,0-1.66,1.37,1.37,0,0,0-1-.35,1.32,1.32,0,0,0-.92.35,1.1,1.1,0,0,0-.38.83,1.06,1.06,0,0,0,.39.83,1.3,1.3,0,0,0,.91.34A1.4,1.4,0,0,0,170.16,71ZM170,67.8a.92.92,0,0,0,.29-.68.87.87,0,0,0-.3-.67,1.15,1.15,0,0,0-1.53,0,.89.89,0,0,0-.28.67.91.91,0,0,0,.28.68,1,1,0,0,0,.77.28A1,1,0,0,0,170,67.8Z"/><path d="M172.66,69.76v-3.4a.37.37,0,0,1,.15-.33.61.61,0,0,1,.35-.11.57.57,0,0,1,.33.11.36.36,0,0,1,.16.33v3a.57.57,0,0,0,.07.36.55.55,0,0,0,.36.08h1.66V66.4a.4.4,0,0,1,.15-.33.63.63,0,0,1,.35-.11.62.62,0,0,1,.34.11.38.38,0,0,1,.16.33v3.44h.56a.5.5,0,0,1,.39.16.53.53,0,0,1,.13.35.52.52,0,0,1-.13.36.47.47,0,0,1-.39.16h-.56V72a.39.39,0,0,1-.16.34.57.57,0,0,1-.69,0,.41.41,0,0,1-.15-.35V70.87h-1.9a4.51,4.51,0,0,1-.61,0,.68.68,0,0,1-.36-.18.57.57,0,0,1-.16-.33A2.83,2.83,0,0,1,172.66,69.76Z"/><path d="M180.75,65.78a2.38,2.38,0,0,1,2.05,1,3.15,3.15,0,0,1,.48,1,4.38,4.38,0,0,1,.16,1.19,4.51,4.51,0,0,1-.16,1.23,3.22,3.22,0,0,1-.49,1A2.25,2.25,0,0,1,182,72a2.54,2.54,0,0,1-1.21.27,2.52,2.52,0,0,1-1.19-.27,2.37,2.37,0,0,1-.84-.73,3,3,0,0,1-.49-1,4.51,4.51,0,0,1-.17-1.23,4.71,4.71,0,0,1,.15-1.18,3.15,3.15,0,0,1,.48-1,2.42,2.42,0,0,1,2.06-1Zm0,1.1a1.52,1.52,0,0,0-.81.2,1.55,1.55,0,0,0-.51.51,2,2,0,0,0-.26.7,3.88,3.88,0,0,0-.07.75,3.48,3.48,0,0,0,.09.79,2.13,2.13,0,0,0,.28.69,1.62,1.62,0,0,0,.51.5,1.54,1.54,0,0,0,.77.18,1.5,1.5,0,0,0,.76-.18,1.36,1.36,0,0,0,.51-.5,2,2,0,0,0,.3-.69,3.48,3.48,0,0,0,.09-.79,3.29,3.29,0,0,0-.09-.76,2,2,0,0,0-.27-.7,1.77,1.77,0,0,0-.52-.5A1.46,1.46,0,0,0,180.75,66.88Z"/></g></g></svg>