<svg xmlns="http://www.w3.org/2000/svg" viewBox="0 0 191 72.52"><defs><style>.cls-1{fill:#d84f04;}.cls-2{fill:#11869f;}</style></defs><g id="Layer_2" data-name="Layer 2"><g id="Layer_1-2" data-name="Layer 1"><path class="cls-1" d="M30.31,0c10.22.23,18.5,3.84,24,12.77A15.4,15.4,0,0,1,56.77,23.9a25.16,25.16,0,0,0-.63,5c.12,4.42-2.37,6.93-5.83,9a7.36,7.36,0,0,0-2.24,3.13c-1.15,2.42-1.91,5-3.22,7.35a7.69,7.69,0,0,1-3.47,3.26c-4.14,1.67-8.48,2.5-13,1.38a24,24,0,0,0-3.93-.7C15.83,51.7,10.29,46.53,6,39.61a64.43,64.43,0,0,1-4.88-8.82A13.27,13.27,0,0,1,.08,24.18C1.91,10.94,10.5,2.54,23.77.69,26,.39,28.18.22,30.31,0Z"/><path d="M10.63,71.88,11,70.53H9.22L8.81,72a.57.57,0,0,1-.27.33.62.62,0,0,1-.37.06.48.48,0,0,1-.29-.15.32.32,0,0,1-.06-.33l.36-1.35H7.46A.41.41,0,0,1,7,70.09a.48.48,0,0,1,.11-.3.4.4,0,0,1,.33-.15h1l.44-1.56h-1A.39.39,0,0,1,7.57,68a.48.48,0,0,1-.12-.31.53.53,0,0,1,.11-.3.38.38,0,0,1,.34-.14H9.05l.26-1.11a.53.53,0,0,1,.25-.37.75.75,0,0,1,.38-.1.6.6,0,0,1,.31.15.32.32,0,0,1,.09.32l-.28,1.11h1.75l.29-1.13a.48.48,0,0,1,.22-.34.65.65,0,0,1,.38-.09.46.46,0,0,1,.31.13.36.36,0,0,1,.09.35l-.26,1.08h.82a.31.31,0,0,1,.28.14.51.51,0,0,1,.1.3.56.56,0,0,1-.13.31.42.42,0,0,1-.35.13h-1l-.39,1.56h1.06a.34.34,0,0,1,.3.15.46.46,0,0,1,.08.3.52.52,0,0,1-.14.3.4.4,0,0,1-.34.14H12L11.62,72a.53.53,0,0,1-.26.32.72.72,0,0,1-.37.07.47.47,0,0,1-.3-.14A.3.3,0,0,1,10.63,71.88Zm.94-3.8H9.84l-.41,1.56h1.78Z"/><path d="M15.5,66.52a.65.65,0,0,1,.18-.5.69.69,0,0,1,.5-.17h1.75a3.4,3.4,0,0,1,1.35.24,2.55,2.55,0,0,1,.93.65,2.64,2.64,0,0,1,.53,1,4.1,4.1,0,0,1,.16,1.18,3.47,3.47,0,0,1-.79,2.5,2.82,2.82,0,0,1-2.13.83H16.22a.83.83,0,0,1-.49-.14.59.59,0,0,1-.23-.55ZM18,71.23a1.93,1.93,0,0,0,.92-.2,1.62,1.62,0,0,0,.58-.52,2.1,2.1,0,0,0,.31-.72,3.61,3.61,0,0,0,.09-.79,2.35,2.35,0,0,0-.49-1.56A1.68,1.68,0,0,0,18,66.86H16.56v4.37Z"/><path d="M26.52,68.16l-.82,4a.42.42,0,0,1-.22.31.63.63,0,0,1-.38.06.61.61,0,0,1-.34-.17.4.4,0,0,1-.11-.39l.43-2a2.09,2.09,0,0,1-.43.11,2.45,2.45,0,0,1-.48,0,2.37,2.37,0,0,1-1.71-.63,2.22,2.22,0,0,1-.67-1.72,2.42,2.42,0,0,1,.18-1,2.17,2.17,0,0,1,.51-.75,2.22,2.22,0,0,1,.75-.47,2.42,2.42,0,0,1,.94-.18,2.86,2.86,0,0,1,1,.17,1.89,1.89,0,0,1,.78.51,2,2,0,0,1,.48.85A3,3,0,0,1,26.52,68.16Zm-2.35,1a1.32,1.32,0,0,0,.95-.36,1.32,1.32,0,0,0-.95-2.26,1.27,1.27,0,0,0-.94.37,1.35,1.35,0,0,0,0,1.89A1.36,1.36,0,0,0,24.17,69.12Z"/><path d="M27.6,69.76v-3.4a.37.37,0,0,1,.15-.33.58.58,0,0,1,.34-.11.62.62,0,0,1,.34.11.37.37,0,0,1,.15.33v3a.55.55,0,0,0,.08.36s.16.08.36.08h1.65V66.4a.38.38,0,0,1,.16-.33.61.61,0,0,1,.35-.11.62.62,0,0,1,.34.11.38.38,0,0,1,.16.33v3.44h.55a.47.47,0,0,1,.39.16.54.54,0,0,1,.14.35.52.52,0,0,1-.13.36.48.48,0,0,1-.4.16h-.55V72a.39.39,0,0,1-.16.34.56.56,0,0,1-.34.12.54.54,0,0,1-.35-.11.39.39,0,0,1-.16-.35V70.87H28.78a4.81,4.81,0,0,1-.62,0,.68.68,0,0,1-.36-.18.64.64,0,0,1-.16-.34A2.75,2.75,0,0,1,27.6,69.76Z"/><path d="M34.92,66.81v1.85h3a.48.48,0,0,1,.38.15.51.51,0,0,1,0,.66.48.48,0,0,1-.38.15h-3V72a.3.3,0,0,1-.16.28.63.63,0,0,1-.33.09.57.57,0,0,1-.34-.1.29.29,0,0,1-.15-.27V67a1.22,1.22,0,0,1,.25-.85,1.27,1.27,0,0,1,1-.28h2.8a.41.41,0,0,1,.35.15.57.57,0,0,1,.11.33.52.52,0,0,1-.12.33.43.43,0,0,1-.36.15Z"/><path d="M41.69,65.78a2.47,2.47,0,0,1,1.22.28,2.57,2.57,0,0,1,.83.74,3.15,3.15,0,0,1,.48,1A4.8,4.8,0,0,1,44.38,69a4.51,4.51,0,0,1-.17,1.23,3.2,3.2,0,0,1-.48,1,2.37,2.37,0,0,1-.84.73,2.8,2.8,0,0,1-2.4,0,2.34,2.34,0,0,1-.83-.73,3.24,3.24,0,0,1-.5-1A4.51,4.51,0,0,1,39,69a4.71,4.71,0,0,1,.15-1.18,3.34,3.34,0,0,1,.47-1,2.61,2.61,0,0,1,.84-.74A2.49,2.49,0,0,1,41.69,65.78Zm0,1.1a1.52,1.52,0,0,0-.81.2,1.55,1.55,0,0,0-.51.51,2,2,0,0,0-.27.7A4.87,4.87,0,0,0,40,69a3.48,3.48,0,0,0,.09.79,2.38,2.38,0,0,0,.28.69,1.65,1.65,0,0,0,.52.5,1.5,1.5,0,0,0,2-.5,1.94,1.94,0,0,0,.29-.69,3.48,3.48,0,0,0,.09-.79,3.27,3.27,0,0,0-.08-.76,2.28,2.28,0,0,0-.28-.7,1.62,1.62,0,0,0-.51-.5A1.46,1.46,0,0,0,41.69,66.88Z"/><path d="M45.12,69.76v-3.4a.37.37,0,0,1,.15-.33.58.58,0,0,1,.34-.11A.62.62,0,0,1,46,66a.37.37,0,0,1,.15.33v3a.55.55,0,0,0,.08.36s.16.08.36.08h1.65V66.4a.38.38,0,0,1,.16-.33A.61.61,0,0,1,48.7,66a.62.62,0,0,1,.34.11.38.38,0,0,1,.16.33v3.44h.55a.47.47,0,0,1,.39.16.54.54,0,0,1,.14.35.52.52,0,0,1-.13.36.48.48,0,0,1-.4.16H49.2V72a.39.39,0,0,1-.16.34.56.56,0,0,1-.34.12.54.54,0,0,1-.35-.11.39.39,0,0,1-.16-.35V70.87H46.3a4.81,4.81,0,0,1-.62,0,.68.68,0,0,1-.36-.18.64.64,0,0,1-.16-.34A2.75,2.75,0,0,1,45.12,69.76Z"/><path class="cls-2" d="M97.31,0c10.22.23,18.5,3.84,24,12.77a15.4,15.4,0,0,1,2.43,11.13,25.16,25.16,0,0,0-.63,5c.12,4.42-2.37,6.93-5.83,9a7.36,7.36,0,0,0-2.24,3.13c-1.15,2.42-1.91,5-3.22,7.35a7.69,7.69,0,0,1-3.47,3.26c-4.14,1.67-8.48,2.5-13,1.38a24,24,0,0,0-3.93-.7C82.83,51.7,77.29,46.53,73,39.61a64.43,64.43,0,0,1-4.88-8.82,13.27,13.27,0,0,1-1.06-6.61C68.91,10.94,77.5,2.54,90.77.69,93,.39,95.18.22,97.31,0Z"/><path d="M77.5,71.88l.34-1.35H76.08L75.68,72a.57.57,0,0,1-.27.33.62.62,0,0,1-.37.06.48.48,0,0,1-.29-.15.32.32,0,0,1-.06-.33l.36-1.35h-.72a.41.41,0,0,1-.35-.14.41.41,0,0,1-.09-.3.48.48,0,0,1,.11-.3.4.4,0,0,1,.33-.15h1l.43-1.56h-1a.42.42,0,0,1-.33-.13.48.48,0,0,1,0-.61.37.37,0,0,1,.33-.14h1.16l.26-1.11a.53.53,0,0,1,.25-.37.74.74,0,0,1,.37-.1.63.63,0,0,1,.32.15.34.34,0,0,1,.09.32l-.29,1.11h1.76L79,66.07a.53.53,0,0,1,.23-.34.64.64,0,0,1,.37-.09.48.48,0,0,1,.32.13.38.38,0,0,1,.09.35l-.26,1.08h.81a.33.33,0,0,1,.29.14.6.6,0,0,1,.1.3.56.56,0,0,1-.13.31.42.42,0,0,1-.35.13h-1l-.38,1.56h1.06a.34.34,0,0,1,.3.15.46.46,0,0,1,.08.3.59.59,0,0,1-.14.3.41.41,0,0,1-.34.14h-1.2L78.48,72a.49.49,0,0,1-.25.32.72.72,0,0,1-.37.07.52.52,0,0,1-.31-.14A.31.31,0,0,1,77.5,71.88Zm.94-3.8H76.71l-.41,1.56h1.78Z"/><path d="M85,72.13a.57.57,0,0,1-.4.13.65.65,0,0,1-.4-.12A.41.41,0,0,1,84,71.8V67l-.58.48a.58.58,0,0,1-.44.16.39.39,0,0,1-.35-.2.49.49,0,0,1-.1-.44.85.85,0,0,1,.27-.36l1.1-.86a.77.77,0,0,1,.42-.2.72.72,0,0,1,.4.06.59.59,0,0,1,.27.27,1,1,0,0,1,.11.37v5.5A.45.45,0,0,1,85,72.13Z"/><path d="M90.74,72.13a.57.57,0,0,1-.4.13.65.65,0,0,1-.4-.12.41.41,0,0,1-.15-.34V67l-.58.48a.58.58,0,0,1-.44.16.39.39,0,0,1-.35-.2.49.49,0,0,1-.1-.44.85.85,0,0,1,.27-.36l1.1-.86a.77.77,0,0,1,.42-.2.72.72,0,0,1,.4.06.59.59,0,0,1,.27.27,1,1,0,0,1,.11.37v5.5A.45.45,0,0,1,90.74,72.13Z"/><path d="M94.61,72.13a2.1,2.1,0,0,1-.77-.48,2.29,2.29,0,0,1-.48-.7,2.12,2.12,0,0,1-.16-.83,1.66,1.66,0,0,1,.31-1.05,4.94,4.94,0,0,1,.6-.65,2.88,2.88,0,0,1-.39-.59,1.63,1.63,0,0,1-.16-.73,1.87,1.87,0,0,1,.1-.59,2,2,0,0,1,.36-.6,2.49,2.49,0,0,1,.65-.45,2.24,2.24,0,0,1,1-.18,2.45,2.45,0,0,1,1,.18,2.21,2.21,0,0,1,.66.46,1.81,1.81,0,0,1,.34.6,1.6,1.6,0,0,1,.11.58,1.51,1.51,0,0,1-.17.73,2.85,2.85,0,0,1-.38.59,5.76,5.76,0,0,1,.59.65,1.66,1.66,0,0,1,.32,1.05,2.12,2.12,0,0,1-.17.83,2.16,2.16,0,0,1-.49.7,2.06,2.06,0,0,1-.78.48,2.78,2.78,0,0,1-1,.18A2.67,2.67,0,0,1,94.61,72.13Zm2-1.15a1.06,1.06,0,0,0,.39-.83,1.09,1.09,0,0,0-.37-.83,1.41,1.41,0,0,0-1-.35,1.32,1.32,0,0,0-.92.35,1.1,1.1,0,0,0-.38.83,1.06,1.06,0,0,0,.39.83,1.3,1.3,0,0,0,.91.34A1.4,1.4,0,0,0,96.57,71Zm-.16-3.18a.92.92,0,0,0,.29-.68.9.9,0,0,0-.29-.67,1.06,1.06,0,0,0-.77-.29,1,1,0,0,0-.77.29.89.89,0,0,0-.28.67.91.91,0,0,0,.28.68,1.2,1.2,0,0,0,1.54,0Z"/><path d="M99.48,66.88a.41.41,0,0,1-.35-.15.59.59,0,0,1-.11-.36.65.65,0,0,1,.1-.36.36.36,0,0,1,.32-.16h3.5a.78.78,0,0,1,.41.09.41.41,0,0,1,.19.2.6.6,0,0,1,0,.3,2.16,2.16,0,0,1,0,.35l-1.22,5.13a.45.45,0,0,1-.22.39.6.6,0,0,1-.4.07.47.47,0,0,1-.35-.17.58.58,0,0,1-.06-.43l1.2-4.9Z"/><path d="M108,65.68a2.94,2.94,0,0,1,1.28.25,2,2,0,0,1,.79.64,2.44,2.44,0,0,1,.41.88,4.65,4.65,0,0,1,.11,1V72a.36.36,0,0,1-.17.31.66.66,0,0,1-.36.11.72.72,0,0,1-.36-.1.36.36,0,0,1-.17-.32v-1.8h-3.09V71.9a.34.34,0,0,1-.17.31.75.75,0,0,1-.36.1.66.66,0,0,1-.37-.1.35.35,0,0,1-.16-.31V68.23a6.06,6.06,0,0,1,.07-.78,2.06,2.06,0,0,1,.34-.83,2.2,2.2,0,0,1,.79-.67A3.12,3.12,0,0,1,108,65.68Zm1.53,3.39V68a1.08,1.08,0,0,0-.13-.54,1.38,1.38,0,0,0-.36-.4,1.62,1.62,0,0,0-.49-.25,1.77,1.77,0,0,0-.56-.08,1.6,1.6,0,0,0-.58.07A1.4,1.4,0,0,0,107,67a1.19,1.19,0,0,0-.35.42,1.22,1.22,0,0,0-.13.59v1Z"/><path d="M114.58,65.78a2.38,2.38,0,0,1,2,1,3.15,3.15,0,0,1,.48,1,4.38,4.38,0,0,1,.16,1.19,4.93,4.93,0,0,1-.16,1.23,3.22,3.22,0,0,1-.49,1,2.34,2.34,0,0,1-.83.73,2.57,2.57,0,0,1-1.21.27,2.49,2.49,0,0,1-1.19-.27,2.37,2.37,0,0,1-.84-.73,3.24,3.24,0,0,1-.5-1,4.93,4.93,0,0,1-.16-1.23,4.71,4.71,0,0,1,.15-1.18,3.15,3.15,0,0,1,.48-1,2.42,2.42,0,0,1,2.06-1Zm0,1.1a1.52,1.52,0,0,0-.81.2,1.55,1.55,0,0,0-.51.51,1.84,1.84,0,0,0-.26.7,3.91,3.91,0,0,0-.08.75,3.48,3.48,0,0,0,.09.79,2.14,2.14,0,0,0,.29.69,1.4,1.4,0,0,0,1.28.68,1.5,1.5,0,0,0,.76-.18,1.52,1.52,0,0,0,.51-.5,2,2,0,0,0,.3-.69,3.48,3.48,0,0,0,.09-.79,3.29,3.29,0,0,0-.09-.76,2.27,2.27,0,0,0-.27-.7,1.77,1.77,0,0,0-.52-.5A1.46,1.46,0,0,0,114.58,66.88Z"/><path d="M164.31,0c10.22.23,18.5,3.84,24,12.77a15.4,15.4,0,0,1,2.43,11.13,25.16,25.16,0,0,0-.63,5c.12,4.42-2.37,6.93-5.83,9a7.36,7.36,0,0,0-2.24,3.13c-1.15,2.42-1.91,5-3.22,7.35a7.69,7.69,0,0,1-3.47,3.26c-4.14,1.67-8.48,2.5-13,1.38a24,24,0,0,0-3.93-.7c-8.64-.66-14.18-5.83-18.45-12.75a64.43,64.43,0,0,1-4.88-8.82,13.27,13.27,0,0,1-1.06-6.61C135.91,10.94,144.5,2.54,157.77.69,160,.39,162.18.22,164.31,0Z"/><path d="M145.33,71.88l.33-1.35h-1.75L143.5,72a.51.51,0,0,1-.27.33.58.58,0,0,1-.36.06.54.54,0,0,1-.3-.15.34.34,0,0,1,0-.33l.36-1.35h-.72a.4.4,0,0,1-.35-.14.41.41,0,0,1-.09-.3.43.43,0,0,1,.11-.3.4.4,0,0,1,.33-.15h1l.43-1.56h-1a.42.42,0,0,1-.33-.13.53.53,0,0,1-.11-.31.47.47,0,0,1,.11-.3.37.37,0,0,1,.33-.14h1.15l.27-1.11a.55.55,0,0,1,.24-.37.77.77,0,0,1,.38-.1.57.57,0,0,1,.31.15.34.34,0,0,1,.1.32l-.29,1.11h1.75l.29-1.13a.49.49,0,0,1,.23-.34.62.62,0,0,1,.37-.09.44.44,0,0,1,.31.13.38.38,0,0,1,.1.35l-.26,1.08h.81a.3.3,0,0,1,.28.14.53.53,0,0,1,.11.3.56.56,0,0,1-.13.31.43.43,0,0,1-.35.13h-1l-.38,1.56h1.05a.32.32,0,0,1,.3.15.41.41,0,0,1,.09.3.61.61,0,0,1-.15.3.39.39,0,0,1-.33.14h-1.2L146.31,72a.5.5,0,0,1-.26.32.66.66,0,0,1-.36.07.52.52,0,0,1-.31-.14A.31.31,0,0,1,145.33,71.88Zm.93-3.8h-1.72l-.41,1.56h1.77Z"/><path d="M152,65.78a2.38,2.38,0,0,1,2.05,1,3.15,3.15,0,0,1,.48,1,4.38,4.38,0,0,1,.16,1.19,4.51,4.51,0,0,1-.16,1.23,3.22,3.22,0,0,1-.49,1,2.25,2.25,0,0,1-.83.73,2.54,2.54,0,0,1-1.21.27,2.52,2.52,0,0,1-1.19-.27,2.37,2.37,0,0,1-.84-.73,3,3,0,0,1-.49-1,4.51,4.51,0,0,1-.17-1.23,4.71,4.71,0,0,1,.15-1.18,3.15,3.15,0,0,1,.48-1,2.42,2.42,0,0,1,2.06-1Zm0,1.1a1.52,1.52,0,0,0-.81.2,1.55,1.55,0,0,0-.51.51,2,2,0,0,0-.26.7,3.88,3.88,0,0,0-.07.75,3.48,3.48,0,0,0,.09.79,2.13,2.13,0,0,0,.28.69,1.62,1.62,0,0,0,.51.5,1.54,1.54,0,0,0,.77.18,1.5,1.5,0,0,0,.76-.18,1.36,1.36,0,0,0,.51-.5,2,2,0,0,0,.3-.69,3.48,3.48,0,0,0,.09-.79,3.29,3.29,0,0,0-.09-.76,2,2,0,0,0-.27-.7,1.77,1.77,0,0,0-.52-.5A1.46,1.46,0,0,0,152,66.88Z"/><path d="M157.71,65.78a2.38,2.38,0,0,1,2,1,3.15,3.15,0,0,1,.48,1A4.38,4.38,0,0,1,160.4,69a4.51,4.51,0,0,1-.16,1.23,3.22,3.22,0,0,1-.49,1,2.25,2.25,0,0,1-.83.73,2.54,2.54,0,0,1-1.21.27,2.52,2.52,0,0,1-1.19-.27,2.37,2.37,0,0,1-.84-.73,3,3,0,0,1-.49-1A4.51,4.51,0,0,1,155,69a4.71,4.71,0,0,1,.15-1.18,3.15,3.15,0,0,1,.48-1,2.42,2.42,0,0,1,2.06-1Zm0,1.1a1.52,1.52,0,0,0-.81.2,1.55,1.55,0,0,0-.51.51,2,2,0,0,0-.26.7,3.88,3.88,0,0,0-.07.75,3.48,3.48,0,0,0,.09.79,2.13,2.13,0,0,0,.28.69,1.62,1.62,0,0,0,.51.5,1.54,1.54,0,0,0,.77.18,1.5,1.5,0,0,0,.76-.18,1.36,1.36,0,0,0,.51-.5,2,2,0,0,0,.3-.69,3.48,3.48,0,0,0,.09-.79,3.29,3.29,0,0,0-.09-.76,2,2,0,0,0-.27-.7,1.77,1.77,0,0,0-.52-.5A1.46,1.46,0,0,0,157.71,66.88Z"/><path d="M163.47,65.78a2.38,2.38,0,0,1,2.05,1,3.15,3.15,0,0,1,.48,1,4.38,4.38,0,0,1,.16,1.19,4.51,4.51,0,0,1-.16,1.23,3.22,3.22,0,0,1-.49,1,2.25,2.25,0,0,1-.83.73,2.54,2.54,0,0,1-1.21.27,2.52,2.52,0,0,1-1.19-.27,2.37,2.37,0,0,1-.84-.73,3,3,0,0,1-.49-1,4.51,4.51,0,0,1-.17-1.23,4.71,4.71,0,0,1,.15-1.18,3.15,3.15,0,0,1,.48-1,2.42,2.42,0,0,1,2.06-1Zm0,1.1a1.52,1.52,0,0,0-.81.2,1.55,1.55,0,0,0-.51.51,2,2,0,0,0-.26.7,3.88,3.88,0,0,0-.07.75,3.48,3.48,0,0,0,.09.79,2.13,2.13,0,0,0,.28.69,1.62,1.62,0,0,0,.51.5,1.54,1.54,0,0,0,.77.18,1.5,1.5,0,0,0,.76-.18,1.36,1.36,0,0,0,.51-.5,2,2,0,0,0,.3-.69,3.48,3.48,0,0,0,.09-.79,3.29,3.29,0,0,0-.09-.76,2,2,0,0,0-.27-.7,1.77,1.77,0,0,0-.52-.5A1.46,1.46,0,0,0,163.47,66.88Z"/><path d="M169.23,65.78a2.38,2.38,0,0,1,2.05,1,3.15,3.15,0,0,1,.48,1,4.38,4.38,0,0,1,.16,1.19,4.51,4.51,0,0,1-.16,1.23,3.22,3.22,0,0,1-.49,1,2.25,2.25,0,0,1-.83.73,2.54,2.54,0,0,1-1.21.27A2.52,2.52,0,0,1,168,72a2.37,2.37,0,0,1-.84-.73,3,3,0,0,1-.49-1,4.51,4.51,0,0,1-.17-1.23,4.71,4.71,0,0,1,.15-1.18,3.15,3.15,0,0,1,.48-1,2.42,2.42,0,0,1,2.06-1Zm0,1.1a1.52,1.52,0,0,0-.81.2,1.55,1.55,0,0,0-.51.51,2,2,0,0,0-.26.7,3.88,3.88,0,0,0-.07.75,3.48,3.48,0,0,0,.09.79,2.13,2.13,0,0,0,.28.69,1.62,1.62,0,0,0,.51.5,1.54,1.54,0,0,0,.77.18A1.5,1.5,0,0,0,170,71a1.36,1.36,0,0,0,.51-.5,2,2,0,0,0,.3-.69,3.48,3.48,0,0,0,.09-.79,3.29,3.29,0,0,0-.09-.76,2,2,0,0,0-.27-.7,1.77,1.77,0,0,0-.52-.5A1.46,1.46,0,0,0,169.23,66.88Z"/><path d="M175,65.78a2.38,2.38,0,0,1,2,1,3.15,3.15,0,0,1,.48,1,4.38,4.38,0,0,1,.16,1.19,4.51,4.51,0,0,1-.16,1.23,3.22,3.22,0,0,1-.49,1,2.25,2.25,0,0,1-.83.73,2.54,2.54,0,0,1-1.21.27A2.52,2.52,0,0,1,173.8,72a2.37,2.37,0,0,1-.84-.73,3,3,0,0,1-.49-1A4.51,4.51,0,0,1,172.3,69a4.71,4.71,0,0,1,.15-1.18,3.15,3.15,0,0,1,.48-1,2.42,2.42,0,0,1,2.06-1Zm0,1.1a1.52,1.52,0,0,0-.81.2,1.55,1.55,0,0,0-.51.51,2,2,0,0,0-.26.7,3.88,3.88,0,0,0-.07.75,3.48,3.48,0,0,0,.09.79,2.13,2.13,0,0,0,.28.69,1.62,1.62,0,0,0,.51.5,1.54,1.54,0,0,0,.77.18,1.5,1.5,0,0,0,.76-.18,1.36,1.36,0,0,0,.51-.5,2,2,0,0,0,.3-.69,3.48,3.48,0,0,0,.09-.79,3.29,3.29,0,0,0-.09-.76,2,2,0,0,0-.27-.7,1.77,1.77,0,0,0-.52-.5A1.46,1.46,0,0,0,175,66.88Z"/><path d="M180.75,65.78a2.38,2.38,0,0,1,2.05,1,3.15,3.15,0,0,1,.48,1,4.38,4.38,0,0,1,.16,1.19,4.51,4.51,0,0,1-.16,1.23,3.22,3.22,0,0,1-.49,1A2.25,2.25,0,0,1,182,72a2.54,2.54,0,0,1-1.21.27,2.52,2.52,0,0,1-1.19-.27,2.37,2.37,0,0,1-.84-.73,3,3,0,0,1-.49-1,4.51,4.51,0,0,1-.17-1.23,4.71,4.71,0,0,1,.15-1.18,3.15,3.15,0,0,1,.48-1,2.42,2.42,0,0,1,2.06-1Zm0,1.1a1.52,1.52,0,0,0-.81.2,1.55,1.55,0,0,0-.51.51,2,2,0,0,0-.26.7,3.88,3.88,0,0,0-.07.75,3.48,3.48,0,0,0,.09.79,2.13,2.13,0,0,0,.28.69,1.62,1.62,0,0,0,.51.5,1.54,1.54,0,0,0,.77.18,1.5,1.5,0,0,0,.76-.18,1.36,1.36,0,0,0,.51-.5,2,2,0,0,0,.3-.69,3.48,3.48,0,0,0,.09-.79,3.29,3.29,0,0,0-.09-.76,2,2,0,0,0-.27-.7,1.77,1.77,0,0,0-.52-.5A1.46,1.46,0,0,0,180.75,66.88Z"/></g></g></svg>