<svg xmlns="http://www.w3.org/2000/svg" viewBox="0 0 191 72.52"><defs><style>.cls-1{fill:#6ec8cd;}.cls-2{fill:#fae57d;}.cls-3{fill:#5bb1bb;}</style></defs><g id="Layer_2" data-name="Layer 2"><g id="Layer_1-2" data-name="Layer 1"><path class="cls-1" d="M97.31,0c10.22.23,18.5,3.84,24,12.77a15.4,15.4,0,0,1,2.43,11.13,25.16,25.16,0,0,0-.63,5c.12,4.42-2.37,6.93-5.83,9a7.36,7.36,0,0,0-2.24,3.13c-1.15,2.42-1.91,5-3.22,7.35a7.69,7.69,0,0,1-3.47,3.26c-4.14,1.67-8.48,2.5-13,1.38a24,24,0,0,0-3.93-.7C82.83,51.7,77.29,46.53,73,39.61a64.43,64.43,0,0,1-4.88-8.82,13.27,13.27,0,0,1-1.06-6.61C68.91,10.94,77.5,2.54,90.77.69,93,.39,95.18.22,97.31,0Z"/><path d="M76.58,71.88l.33-1.35H75.16L74.75,72a.51.51,0,0,1-.27.33.58.58,0,0,1-.36.06.54.54,0,0,1-.3-.15.34.34,0,0,1,0-.33l.36-1.35h-.72a.4.4,0,0,1-.35-.14.47.47,0,0,1-.1-.3.44.44,0,0,1,.12-.3.37.37,0,0,1,.33-.15h1l.43-1.56h-1a.42.42,0,0,1-.33-.13.47.47,0,0,1-.11-.31.51.51,0,0,1,.1-.3.4.4,0,0,1,.34-.14H75l.27-1.11a.55.55,0,0,1,.24-.37.77.77,0,0,1,.38-.1.6.6,0,0,1,.31.15.34.34,0,0,1,.1.32L76,67.2h1.75L78,66.07a.49.49,0,0,1,.23-.34.62.62,0,0,1,.37-.09.46.46,0,0,1,.31.13.38.38,0,0,1,.1.35l-.27,1.08h.82a.31.31,0,0,1,.28.14.51.51,0,0,1,.1.3.55.55,0,0,1-.12.31.45.45,0,0,1-.36.13h-1l-.38,1.56h1a.32.32,0,0,1,.3.15.46.46,0,0,1,.09.3.61.61,0,0,1-.15.3.39.39,0,0,1-.33.14H77.9L77.56,72a.5.5,0,0,1-.26.32.66.66,0,0,1-.36.07.5.5,0,0,1-.31-.14A.31.31,0,0,1,76.58,71.88Zm.93-3.8H75.78l-.4,1.56h1.77Z"/><path d="M80.9,69.6l.79-3.87a.37.37,0,0,1,.21-.3.84.84,0,0,1,.39-.06.54.54,0,0,1,.33.18.4.4,0,0,1,.12.37l-.43,2a1.8,1.8,0,0,1,.43-.11,3.73,3.73,0,0,1,.48,0,2.37,2.37,0,0,1,1.71.63,2.6,2.6,0,0,1,0,3.47,2.41,2.41,0,0,1-1.72.61,2.83,2.83,0,0,1-1-.18,1.91,1.91,0,0,1-.8-.53,2.19,2.19,0,0,1-.48-.89A2.94,2.94,0,0,1,80.9,69.6Zm2.32-.84a1.28,1.28,0,0,0-.94.36,1.24,1.24,0,0,0-.38.93,1.27,1.27,0,0,0,1.32,1.32,1.33,1.33,0,0,0,.94-.36,1.24,1.24,0,0,0,.38-1,1.18,1.18,0,0,0-.4-.93A1.33,1.33,0,0,0,83.22,68.76Z"/><path d="M88.19,71.25h3a.46.46,0,0,1,.38.15.52.52,0,0,1,.12.33.61.61,0,0,1-.14.33.45.45,0,0,1-.36.15h-2.8a1.2,1.2,0,0,1-.81-.26.88.88,0,0,1-.32-.75V67a1.17,1.17,0,0,1,.26-.85,1.23,1.23,0,0,1,.94-.28h2.81a.41.41,0,0,1,.34.15.57.57,0,0,1,.11.33.52.52,0,0,1-.12.33.43.43,0,0,1-.36.15h-3v1.85h3a.46.46,0,0,1,.38.15.48.48,0,0,1,0,.66.46.46,0,0,1-.38.15h-3Z"/><path d="M98.29,70.15a.62.62,0,0,1,.38,0,.53.53,0,0,1,.27.24.44.44,0,0,1,0,.39A2.18,2.18,0,0,1,97.91,72a3.68,3.68,0,0,1-1.73.4,3.32,3.32,0,0,1-1.45-.29,3.1,3.1,0,0,1-1-.77,3,3,0,0,1-.62-1.08A3.68,3.68,0,0,1,92.87,69a3.25,3.25,0,0,1,.27-1.32,3.3,3.3,0,0,1,.72-1.08,3.34,3.34,0,0,1,1-.72,3.19,3.19,0,0,1,1.26-.26,2.89,2.89,0,0,1,1.36.25,2.2,2.2,0,0,1,.66.52.49.49,0,0,1,.09.39.55.55,0,0,1-.19.32.62.62,0,0,1-.33.15.34.34,0,0,1-.32-.12,1.29,1.29,0,0,0-.45-.29,2.11,2.11,0,0,0-.82-.12,2,2,0,0,0-1.49.61,2.3,2.3,0,0,0-.6,1.7,2.36,2.36,0,0,0,.57,1.64,2,2,0,0,0,1.57.64,2,2,0,0,0,1.17-.29,1.93,1.93,0,0,0,.6-.65A.49.49,0,0,1,98.29,70.15Z"/><path d="M104.58,68.16l-.81,4a.44.44,0,0,1-.23.31.6.6,0,0,1-.37.06.64.64,0,0,1-.35-.17.42.42,0,0,1-.11-.39l.43-2a1.94,1.94,0,0,1-.43.11,2.45,2.45,0,0,1-.48,0,2.41,2.41,0,0,1-1.71-.63,2.25,2.25,0,0,1-.66-1.72,2.42,2.42,0,0,1,.18-1,2.15,2.15,0,0,1,.5-.75,2.55,2.55,0,0,1,1.69-.65,3,3,0,0,1,1,.17,2,2,0,0,1,.78.51,2.27,2.27,0,0,1,.48.85A3.19,3.19,0,0,1,104.58,68.16Zm-2.35,1a1.31,1.31,0,0,0,1-.36,1.39,1.39,0,0,0,0-1.89,1.33,1.33,0,0,0-2.27.95,1.2,1.2,0,0,0,.4.94A1.32,1.32,0,0,0,102.23,69.12Z"/><path d="M111.27,70.15a.61.61,0,0,1,.38,0,.6.6,0,0,1,.28.24.47.47,0,0,1,0,.39,2.12,2.12,0,0,1-1,1.2,3.7,3.7,0,0,1-1.73.4,3.29,3.29,0,0,1-1.45-.29,3.1,3.1,0,0,1-1.66-1.85,3.67,3.67,0,0,1-.2-1.22,3.24,3.24,0,0,1,.26-1.32,3.64,3.64,0,0,1,.72-1.08,3.46,3.46,0,0,1,1-.72,3.19,3.19,0,0,1,1.26-.26,2.86,2.86,0,0,1,1.36.25,2.2,2.2,0,0,1,.66.52.46.46,0,0,1,.1.39.63.63,0,0,1-.2.32.56.56,0,0,1-.33.15.32.32,0,0,1-.31-.12,1.29,1.29,0,0,0-.45-.29,2.17,2.17,0,0,0-.83-.12,2,2,0,0,0-1.48.61,2.3,2.3,0,0,0-.6,1.7,2.36,2.36,0,0,0,.57,1.64,2,2,0,0,0,1.56.64,2,2,0,0,0,1.17-.29,2.07,2.07,0,0,0,.61-.65A.45.45,0,0,1,111.27,70.15Z"/><path d="M114.45,71.25h3a.44.44,0,0,1,.37.15.52.52,0,0,1,.12.33.54.54,0,0,1-.14.33.43.43,0,0,1-.35.15h-2.81a1.2,1.2,0,0,1-.81-.26.91.91,0,0,1-.32-.75V67a1.22,1.22,0,0,1,.26-.85,1.24,1.24,0,0,1,.94-.28h2.81a.39.39,0,0,1,.34.15.51.51,0,0,1,0,.66.43.43,0,0,1-.36.15h-3v1.85h3a.48.48,0,0,1,.38.15.51.51,0,0,1,0,.66.48.48,0,0,1-.38.15h-3Z"/><path class="cls-2" d="M30.31,0c10.22.23,18.5,3.84,24,12.77A15.4,15.4,0,0,1,56.77,23.9a25.16,25.16,0,0,0-.63,5c.12,4.42-2.37,6.93-5.83,9a7.36,7.36,0,0,0-2.24,3.13c-1.15,2.42-1.91,5-3.22,7.35a7.69,7.69,0,0,1-3.47,3.26c-4.14,1.67-8.48,2.5-13,1.38a24,24,0,0,0-3.93-.7C15.83,51.7,10.29,46.53,6,39.61a64.43,64.43,0,0,1-4.88-8.82A13.27,13.27,0,0,1,.08,24.18C1.91,10.94,10.5,2.54,23.77.69,26,.39,28.18.22,30.31,0Z"/><path d="M10,71.88l.34-1.35H8.6L8.2,72a.57.57,0,0,1-.27.33.62.62,0,0,1-.37.06.48.48,0,0,1-.29-.15.32.32,0,0,1-.06-.33l.36-1.35H6.85a.41.41,0,0,1-.35-.14.41.41,0,0,1-.09-.3.48.48,0,0,1,.11-.3.4.4,0,0,1,.33-.15h1l.43-1.56h-1A.42.42,0,0,1,7,68a.48.48,0,0,1,0-.61.37.37,0,0,1,.33-.14H8.44l.26-1.11A.53.53,0,0,1,9,65.72a.74.74,0,0,1,.37-.1.63.63,0,0,1,.32.15.34.34,0,0,1,.09.32L9.44,67.2H11.2l.28-1.13a.53.53,0,0,1,.23-.34.64.64,0,0,1,.37-.09.48.48,0,0,1,.32.13.38.38,0,0,1,.09.35l-.26,1.08H13a.33.33,0,0,1,.29.14.6.6,0,0,1,.1.3.56.56,0,0,1-.13.31.42.42,0,0,1-.35.13H12l-.38,1.56h1.06a.34.34,0,0,1,.3.15.46.46,0,0,1,.08.3.59.59,0,0,1-.14.3.41.41,0,0,1-.34.14h-1.2L11,72a.49.49,0,0,1-.25.32.72.72,0,0,1-.37.07.52.52,0,0,1-.31-.14A.31.31,0,0,1,10,71.88Zm.94-3.8H9.23l-.41,1.56H10.6Z"/><path d="M15.88,66.81v1.85h3a.45.45,0,0,1,.37.15.48.48,0,0,1,0,.66.45.45,0,0,1-.37.15h-3V72a.32.32,0,0,1-.16.28.67.67,0,0,1-.34.09.59.59,0,0,1-.34-.1.29.29,0,0,1-.15-.27V67a1.22,1.22,0,0,1,.26-.85,1.24,1.24,0,0,1,.94-.28H18.9a.39.39,0,0,1,.34.15.51.51,0,0,1,0,.66.43.43,0,0,1-.36.15Z"/><path d="M21.76,72.21a.89.89,0,0,1-.65-.21.79.79,0,0,1-.22-.56V66.69a.94.94,0,0,1,.14-.62.74.74,0,0,1,.63-.22h2a2.14,2.14,0,0,1,1.44.45,1.53,1.53,0,0,1,.55,1.11,1.49,1.49,0,0,1-.18,1,1.36,1.36,0,0,1-.61.52,1.27,1.27,0,0,1,1,.63,1.8,1.8,0,0,1,.25,1.13,1.92,1.92,0,0,1-.46,1.09,1.47,1.47,0,0,1-1.17.48Zm1.94-5.37H22v1.58h1.77a.73.73,0,0,0,.6-.25.81.81,0,0,0,0-1.09A.86.86,0,0,0,23.7,66.84Zm.12,2.56H22v1.8h2.28a.67.67,0,0,0,.6-.27A.91.91,0,0,0,25,70.3a1.08,1.08,0,0,0-.36-.61A1.13,1.13,0,0,0,23.82,69.4Z"/><path d="M28.57,71.25h2.95a.46.46,0,0,1,.38.15.52.52,0,0,1,.12.33.61.61,0,0,1-.14.33.45.45,0,0,1-.36.15h-2.8a1.2,1.2,0,0,1-.81-.26.88.88,0,0,1-.32-.75V67a1.17,1.17,0,0,1,.26-.85,1.23,1.23,0,0,1,.94-.28H31.6a.41.41,0,0,1,.34.15.57.57,0,0,1,.11.33.52.52,0,0,1-.12.33.43.43,0,0,1-.36.15h-3v1.85h3a.46.46,0,0,1,.38.15.48.48,0,0,1,0,.66.46.46,0,0,1-.38.15h-3Z"/><path d="M33.08,69.6l.8-3.87a.37.37,0,0,1,.21-.3.84.84,0,0,1,.39-.06.57.57,0,0,1,.33.18.4.4,0,0,1,.12.37l-.43,2a1.8,1.8,0,0,1,.43-.11,3.58,3.58,0,0,1,.48,0,2.37,2.37,0,0,1,1.71.63,2.6,2.6,0,0,1,0,3.47,2.41,2.41,0,0,1-1.72.61,2.79,2.79,0,0,1-1-.18,1.91,1.91,0,0,1-.8-.53,2.19,2.19,0,0,1-.48-.89A2.92,2.92,0,0,1,33.08,69.6Zm2.33-.84a1.32,1.32,0,0,0-.95.36,1.27,1.27,0,0,0-.37.93,1.3,1.3,0,0,0,.37,1,1.42,1.42,0,0,0,1.89,0,1.27,1.27,0,0,0,.38-1,1.18,1.18,0,0,0-.4-.93A1.33,1.33,0,0,0,35.41,68.76Z"/><path d="M39.23,66.88a.43.43,0,0,1-.36-.15.66.66,0,0,1-.11-.36.65.65,0,0,1,.1-.36.38.38,0,0,1,.32-.16h3.5a.76.76,0,0,1,.41.09.37.37,0,0,1,.19.2.73.73,0,0,1,.06.3l0,.35-1.23,5.13a.45.45,0,0,1-.21.39.63.63,0,0,1-.41.07.49.49,0,0,1-.35-.17.69.69,0,0,1-.06-.43l1.2-4.9Z"/><path d="M45.16,66.52a.65.65,0,0,1,.17-.5.7.7,0,0,1,.5-.17h1.75a3.48,3.48,0,0,1,1.36.24,2.59,2.59,0,0,1,.92.65,2.5,2.5,0,0,1,.53,1,4.1,4.1,0,0,1,.17,1.18,3.47,3.47,0,0,1-.8,2.5,2.79,2.79,0,0,1-2.13.83H45.88a.86.86,0,0,1-.5-.14.59.59,0,0,1-.22-.55Zm2.44,4.71a1.93,1.93,0,0,0,.92-.2,1.54,1.54,0,0,0,.58-.52,2.1,2.1,0,0,0,.31-.72A3.61,3.61,0,0,0,49.5,69,2.3,2.3,0,0,0,49,67.44a1.68,1.68,0,0,0-1.36-.58H46.21v4.37Z"/><path class="cls-3" d="M164.31,0c10.22.23,18.5,3.84,24,12.77a15.4,15.4,0,0,1,2.43,11.13,25.16,25.16,0,0,0-.63,5c.12,4.42-2.37,6.93-5.83,9a7.36,7.36,0,0,0-2.24,3.13c-1.15,2.42-1.91,5-3.22,7.35a7.69,7.69,0,0,1-3.47,3.26c-4.14,1.67-8.48,2.5-13,1.38a24,24,0,0,0-3.93-.7c-8.64-.66-14.18-5.83-18.45-12.75a64.43,64.43,0,0,1-4.88-8.82,13.27,13.27,0,0,1-1.06-6.61C135.91,10.94,144.5,2.54,157.77.69,160,.39,162.18.22,164.31,0Z"/><path d="M143.19,71.88l.34-1.35h-1.75L141.37,72a.57.57,0,0,1-.27.33.62.62,0,0,1-.37.06.48.48,0,0,1-.29-.15.32.32,0,0,1-.06-.33l.36-1.35H140a.41.41,0,0,1-.44-.44.48.48,0,0,1,.11-.3.4.4,0,0,1,.33-.15h1l.44-1.56h-1a.39.39,0,0,1-.33-.13.48.48,0,0,1-.12-.31.53.53,0,0,1,.11-.3.38.38,0,0,1,.34-.14h1.15l.26-1.11a.53.53,0,0,1,.25-.37.75.75,0,0,1,.38-.1.6.6,0,0,1,.31.15.32.32,0,0,1,.09.32l-.28,1.11h1.75l.29-1.13a.48.48,0,0,1,.22-.34.65.65,0,0,1,.38-.09.46.46,0,0,1,.31.13.36.36,0,0,1,.09.35l-.26,1.08h.82a.31.31,0,0,1,.28.14.51.51,0,0,1,.1.3.56.56,0,0,1-.13.31.42.42,0,0,1-.35.13h-1l-.39,1.56h1.06a.34.34,0,0,1,.3.15.46.46,0,0,1,.08.3.52.52,0,0,1-.14.3.4.4,0,0,1-.34.14h-1.2L144.18,72a.53.53,0,0,1-.26.32.72.72,0,0,1-.37.07.47.47,0,0,1-.3-.14A.3.3,0,0,1,143.19,71.88Zm.94-3.8H142.4L142,69.64h1.78Z"/><path d="M148.81,66.64v1.2q0,.22.06.27s.14,0,.27,0a3.27,3.27,0,0,1,.51-.07,2.14,2.14,0,0,1,.62,0,1.93,1.93,0,0,1,1,.34,1.83,1.83,0,0,1,.55.64,2.25,2.25,0,0,1,.22.74,4,4,0,0,1,0,.68,2.75,2.75,0,0,1-.19.69,2,2,0,0,1-.44.66,2.38,2.38,0,0,1-.72.48,2.58,2.58,0,0,1-1,.16,2.41,2.41,0,0,1-1.49-.49,1.6,1.6,0,0,1-.58-1.07.48.48,0,0,1,.48-.56.6.6,0,0,1,.42.08.47.47,0,0,1,.18.31.92.92,0,0,0,.28.44,1,1,0,0,0,.71.25,1.42,1.42,0,0,0,1-.25,1.13,1.13,0,0,0,.43-.83,1.22,1.22,0,0,0-.23-.87,1.21,1.21,0,0,0-.87-.42,1.92,1.92,0,0,0-.55,0l-.4.11a2.68,2.68,0,0,1-.35.1.86.86,0,0,1-.36,0,.45.45,0,0,1-.4-.32,3.32,3.32,0,0,1-.08-.81c0-.19,0-.39,0-.6v-1.1c0-.14,0-.23,0-.29a.55.55,0,0,1,.31-.39,1.22,1.22,0,0,1,.46-.09h2.59a.37.37,0,0,1,.33.15.62.62,0,0,1,.11.34.66.66,0,0,1-.12.34.38.38,0,0,1-.32.15Z"/><path d="M154.69,72.21a.87.87,0,0,1-.64-.21.8.8,0,0,1-.23-.56V66.69a.94.94,0,0,1,.14-.62.74.74,0,0,1,.63-.22h2a2.14,2.14,0,0,1,1.44.45,1.54,1.54,0,0,1,.56,1.11,1.63,1.63,0,0,1-.18,1,1.45,1.45,0,0,1-.62.52,1.27,1.27,0,0,1,1,.63,1.8,1.8,0,0,1,.25,1.13,1.86,1.86,0,0,1-.46,1.09,1.47,1.47,0,0,1-1.17.48Zm1.94-5.37h-1.7v1.58h1.77a.73.73,0,0,0,.6-.25.79.79,0,0,0-.67-1.33Zm.12,2.56h-1.82v1.8h2.28a.67.67,0,0,0,.6-.27.91.91,0,0,0,.13-.63,1.13,1.13,0,0,0-.35-.61A1.17,1.17,0,0,0,156.75,69.4Z"/><path d="M161.38,72.21a.88.88,0,0,1-.64-.21.79.79,0,0,1-.22-.56V66.69a.88.88,0,0,1,.14-.62.74.74,0,0,1,.63-.22h2a2.1,2.1,0,0,1,1.43.45,1.51,1.51,0,0,1,.56,1.11,1.49,1.49,0,0,1-.18,1,1.42,1.42,0,0,1-.61.52,1.27,1.27,0,0,1,1,.63,1.87,1.87,0,0,1,.25,1.13,1.92,1.92,0,0,1-.46,1.09,1.47,1.47,0,0,1-1.17.48Zm2-5.37h-1.71v1.58h1.78a.71.71,0,0,0,.59-.25.79.79,0,0,0-.66-1.33Zm.12,2.56h-1.83v1.8h2.28a.67.67,0,0,0,.6-.27.91.91,0,0,0,.14-.63,1.08,1.08,0,0,0-.36-.61A1.13,1.13,0,0,0,163.45,69.4Z"/><path d="M170.77,71.38a.73.73,0,0,1,.12.34.58.58,0,0,1-.11.34.37.37,0,0,1-.32.15h-2.74a1.44,1.44,0,0,1-.46-.08.55.55,0,0,1-.31-.4s0-.12,0-.21v-.8c0-.16,0-.35,0-.55a1.19,1.19,0,0,1,.17-.72,1.08,1.08,0,0,1,.67-.29l.36,0,.36,0,.36,0,.41-.07a1,1,0,0,0,.8-.56,1.35,1.35,0,0,0,.11-.45,2.25,2.25,0,0,0,0-.45,1,1,0,0,0-.35-.69,1.33,1.33,0,0,0-.9-.25,1.13,1.13,0,0,0-.74.23.81.81,0,0,0-.32.42.58.58,0,0,1-.17.34.56.56,0,0,1-.4.14.57.57,0,0,1-.42-.14.43.43,0,0,1-.11-.36,1.72,1.72,0,0,1,.18-.6,1.76,1.76,0,0,1,.43-.52,2.15,2.15,0,0,1,.66-.38,2.64,2.64,0,0,1,.87-.16,2.73,2.73,0,0,1,1,.18,2.13,2.13,0,0,1,.71.46,2,2,0,0,1,.39.62,2.31,2.31,0,0,1,.16.64c0,.2,0,.43,0,.69a2.35,2.35,0,0,1-.19.77,1.73,1.73,0,0,1-.53.65,1.91,1.91,0,0,1-1,.36l-.36,0-.24,0-.23,0-.3,0c-.16,0-.27.06-.31.13a.6.6,0,0,0-.07.33v.38c0,.15,0,.24.07.28s.15.06.34.06h2.09A.36.36,0,0,1,170.77,71.38Z"/><path d="M173.84,72.21a.87.87,0,0,1-.64-.21.75.75,0,0,1-.22-.56V66.69a.94.94,0,0,1,.13-.62.74.74,0,0,1,.63-.22h2a2.13,2.13,0,0,1,1.43.45,1.54,1.54,0,0,1,.56,1.11,1.63,1.63,0,0,1-.18,1,1.48,1.48,0,0,1-.61.52,1.27,1.27,0,0,1,1,.63,1.8,1.8,0,0,1,.25,1.13,1.86,1.86,0,0,1-.46,1.09,1.45,1.45,0,0,1-1.17.48Zm1.94-5.37h-1.7v1.58h1.78a.72.72,0,0,0,.59-.25.79.79,0,0,0-.67-1.33Zm.12,2.56h-1.82v1.8h2.28a.67.67,0,0,0,.6-.27.91.91,0,0,0,.13-.63,1.13,1.13,0,0,0-.35-.61A1.17,1.17,0,0,0,175.9,69.4Z"/><path d="M184.71,70.15a.58.58,0,0,1,.37,0,.55.55,0,0,1,.28.24.47.47,0,0,1,0,.39,2.12,2.12,0,0,1-1,1.2,3.7,3.7,0,0,1-1.73.4,3.29,3.29,0,0,1-1.45-.29,3,3,0,0,1-1-.77,3.17,3.17,0,0,1-.63-1.08,4,4,0,0,1-.2-1.22,3.41,3.41,0,0,1,.26-1.32,3.64,3.64,0,0,1,.72-1.08,3.5,3.5,0,0,1,1-.72,3.19,3.19,0,0,1,1.26-.26,2.82,2.82,0,0,1,1.35.25,2,2,0,0,1,.66.52.46.46,0,0,1,.1.39.61.61,0,0,1-.19.32.62.62,0,0,1-.33.15.33.33,0,0,1-.32-.12,1.29,1.29,0,0,0-.45-.29,2.15,2.15,0,0,0-.82-.12,2,2,0,0,0-1.49.61,2.3,2.3,0,0,0-.6,1.7,2.36,2.36,0,0,0,.57,1.64,2.33,2.33,0,0,0,2.73.35,2.07,2.07,0,0,0,.61-.65A.45.45,0,0,1,184.71,70.15Z"/></g></g></svg>