<svg xmlns="http://www.w3.org/2000/svg" viewBox="0 0 191 70.79"><defs><style>.cls-1{fill:#ebeeb7;}.cls-2{fill:#68a25f;}.cls-3{fill:#3a7e55;}</style></defs><g id="Layer_2" data-name="Layer 2"><g id="Layer_1-2" data-name="Layer 1"><path class="cls-1" d="M30.31,0c10.22.23,18.5,3.84,24,12.77A15.4,15.4,0,0,1,56.77,23.9a25.16,25.16,0,0,0-.63,5c.12,4.42-2.37,6.93-5.83,9a7.36,7.36,0,0,0-2.24,3.13c-1.15,2.42-1.91,5-3.22,7.35a7.69,7.69,0,0,1-3.47,3.26c-4.14,1.67-8.48,2.5-13,1.38a24,24,0,0,0-3.93-.7C15.83,51.7,10.29,46.53,6,39.61a64.43,64.43,0,0,1-4.88-8.82A13.27,13.27,0,0,1,.08,24.18C1.91,10.94,10.5,2.54,23.77.69,26,.39,28.18.22,30.31,0Z"/><path d="M9.76,70.17l.34-1.34H8.35l-.41,1.44a.57.57,0,0,1-.27.33.54.54,0,0,1-.37.05A.4.4,0,0,1,7,70.5.31.31,0,0,1,7,70.17l.36-1.34H6.59a.4.4,0,0,1-.34-.14.38.38,0,0,1-.1-.3.48.48,0,0,1,.11-.3.4.4,0,0,1,.33-.15h1L8,66.38H7a.37.37,0,0,1-.33-.14.44.44,0,0,1-.12-.3.48.48,0,0,1,.11-.3A.38.38,0,0,1,7,65.49H8.18l.26-1.1A.51.51,0,0,1,8.69,64a.59.59,0,0,1,.38-.1.6.6,0,0,1,.31.15.31.31,0,0,1,.09.32l-.28,1.1h1.75l.29-1.12a.46.46,0,0,1,.22-.34.75.75,0,0,1,.38-.1.52.52,0,0,1,.31.14.34.34,0,0,1,.09.34L12,65.49h.82a.32.32,0,0,1,.28.15.47.47,0,0,1,.1.3.51.51,0,0,1-.13.3.4.4,0,0,1-.35.14h-1l-.39,1.56h1.06a.34.34,0,0,1,.3.15.46.46,0,0,1,.08.3.52.52,0,0,1-.14.3.43.43,0,0,1-.34.14h-1.2l-.33,1.44a.53.53,0,0,1-.26.32.62.62,0,0,1-.37.06.43.43,0,0,1-.3-.14A.29.29,0,0,1,9.76,70.17Zm.94-3.79H9l-.41,1.56h1.78Z"/><path d="M15.62,69.55h3a.44.44,0,0,1,.37.15.52.52,0,0,1,.12.33.54.54,0,0,1-.14.33.43.43,0,0,1-.35.15H15.76a1.25,1.25,0,0,1-.81-.26.91.91,0,0,1-.32-.75V65.28a1.2,1.2,0,0,1,.26-.85,1.24,1.24,0,0,1,.94-.28h2.81a.39.39,0,0,1,.34.15A.51.51,0,0,1,19,65a.43.43,0,0,1-.36.15h-3V67h3a.48.48,0,0,1,.38.15.51.51,0,0,1,0,.66.48.48,0,0,1-.38.15h-3Z"/><path d="M25.72,68.44a.59.59,0,0,1,.37,0,.55.55,0,0,1,.28.24.45.45,0,0,1,0,.38,2.06,2.06,0,0,1-1.05,1.2,3.71,3.71,0,0,1-1.73.41,3.44,3.44,0,0,1-1.45-.29,3,3,0,0,1-1-.78,3.12,3.12,0,0,1-.63-1.07,4,4,0,0,1-.2-1.22A3.5,3.5,0,0,1,20.56,66a3.6,3.6,0,0,1,.72-1.07,3.5,3.5,0,0,1,1-.72A3.19,3.19,0,0,1,23.59,64a2.82,2.82,0,0,1,1.35.25,2.09,2.09,0,0,1,.66.51.48.48,0,0,1,.1.4.58.58,0,0,1-.19.31.64.64,0,0,1-.33.16.38.38,0,0,1-.32-.12,1.29,1.29,0,0,0-.45-.29,2.15,2.15,0,0,0-.82-.12,2,2,0,0,0-1.49.61,2.3,2.3,0,0,0-.6,1.7A2.36,2.36,0,0,0,22.07,69a2,2,0,0,0,1.56.63,2,2,0,0,0,1.17-.28,2.07,2.07,0,0,0,.61-.65A.46.46,0,0,1,25.72,68.44Z"/><path d="M28.89,69.55h2.95a.44.44,0,0,1,.37.15.52.52,0,0,1,.12.33.53.53,0,0,1-.13.33.46.46,0,0,1-.36.15H29a1.29,1.29,0,0,1-.81-.26.91.91,0,0,1-.31-.75V65.28a1.2,1.2,0,0,1,.25-.85,1.27,1.27,0,0,1,.95-.28h2.8a.41.41,0,0,1,.35.15.57.57,0,0,1,.11.33.52.52,0,0,1-.12.33.43.43,0,0,1-.36.15h-3V67h3a.48.48,0,0,1,.38.15.51.51,0,0,1,0,.66.48.48,0,0,1-.38.15h-3Z"/><path d="M34.94,65.11V67h3a.48.48,0,0,1,.38.15.51.51,0,0,1,0,.66.48.48,0,0,1-.38.15h-3v2.37a.32.32,0,0,1-.16.29.63.63,0,0,1-.33.09.68.68,0,0,1-.35-.1.31.31,0,0,1-.15-.28v-5a1.2,1.2,0,0,1,.26-.85,1.24,1.24,0,0,1,.94-.28H38a.39.39,0,0,1,.34.15.51.51,0,0,1,0,.66.43.43,0,0,1-.36.15Z"/><path d="M40.82,70.51a.87.87,0,0,1-.64-.21.82.82,0,0,1-.23-.56V65a.94.94,0,0,1,.14-.62.74.74,0,0,1,.63-.22h2a2.14,2.14,0,0,1,1.44.45,1.54,1.54,0,0,1,.56,1.11,1.65,1.65,0,0,1-.18,1,1.43,1.43,0,0,1-.62.51,1.33,1.33,0,0,1,1,.63,1.84,1.84,0,0,1,.25,1.14A1.81,1.81,0,0,1,44.7,70a1.45,1.45,0,0,1-1.17.49Zm1.94-5.38h-1.7v1.59h1.77a.76.76,0,0,0,.6-.25.84.84,0,0,0,.21-.54.81.81,0,0,0-.21-.55A.84.84,0,0,0,42.76,65.13Zm.12,2.57H41.06v1.8h2.28a.65.65,0,0,0,.6-.28.88.88,0,0,0,.13-.62,1.19,1.19,0,0,0-.35-.62A1.21,1.21,0,0,0,42.88,67.7Z"/><path d="M47.36,70.43a2.21,2.21,0,0,1-.76-.49,2,2,0,0,1-.48-.69,2.16,2.16,0,0,1-.17-.83,1.66,1.66,0,0,1,.32-1,3.89,3.89,0,0,1,.6-.65,2.75,2.75,0,0,1-.39-.59,1.63,1.63,0,0,1-.17-.73,1.91,1.91,0,0,1,.11-.6,1.59,1.59,0,0,1,.36-.59,2,2,0,0,1,.64-.45,2.28,2.28,0,0,1,1-.19,2.44,2.44,0,0,1,1,.19,1.89,1.89,0,0,1,.65.46,1.81,1.81,0,0,1,.35.59,2,2,0,0,1,.11.59,1.63,1.63,0,0,1-.17.73,3.15,3.15,0,0,1-.38.59,5.83,5.83,0,0,1,.59.65,1.66,1.66,0,0,1,.32,1,2.16,2.16,0,0,1-.17.83,2.12,2.12,0,0,1-.49.69,2.4,2.4,0,0,1-.78.49,2.78,2.78,0,0,1-1,.17A2.73,2.73,0,0,1,47.36,70.43Zm2-1.15a1.08,1.08,0,0,0,.39-.84,1.06,1.06,0,0,0-.38-.82,1.37,1.37,0,0,0-1-.35,1.32,1.32,0,0,0-.92.35,1.09,1.09,0,0,0-.38.82,1.08,1.08,0,0,0,.39.84,1.3,1.3,0,0,0,.91.34A1.4,1.4,0,0,0,49.33,69.28Zm-.16-3.18a.94.94,0,0,0,.29-.68.91.91,0,0,0-.3-.68,1.19,1.19,0,0,0-1.53,0,1,1,0,0,0,0,1.36,1,1,0,0,0,.77.28A1,1,0,0,0,49.17,66.1Z"/><path class="cls-2" d="M97.31,0c10.22.23,18.5,3.84,24,12.77a15.4,15.4,0,0,1,2.43,11.13,25.16,25.16,0,0,0-.63,5c.12,4.42-2.37,6.93-5.83,9a7.36,7.36,0,0,0-2.24,3.13c-1.15,2.42-1.91,5-3.22,7.35a7.69,7.69,0,0,1-3.47,3.26c-4.14,1.67-8.48,2.5-13,1.38a24,24,0,0,0-3.93-.7C82.83,51.7,77.29,46.53,73,39.61a64.43,64.43,0,0,1-4.88-8.82,13.27,13.27,0,0,1-1.06-6.61C68.91,10.94,77.5,2.54,90.77.69,93,.39,95.18.22,97.31,0Z"/><path d="M77.4,70.17l.33-1.34H76l-.41,1.44a.54.54,0,0,1-.63.38.44.44,0,0,1-.3-.15.33.33,0,0,1,0-.33L75,68.83h-.72a.42.42,0,0,1-.35-.14.41.41,0,0,1-.09-.3.43.43,0,0,1,.11-.3.4.4,0,0,1,.33-.15h1l.43-1.56h-1a.39.39,0,0,1-.33-.14.48.48,0,0,1-.11-.3.43.43,0,0,1,.11-.3.37.37,0,0,1,.33-.15h1.15l.27-1.1a.53.53,0,0,1,.24-.37.61.61,0,0,1,.38-.1.57.57,0,0,1,.31.15.33.33,0,0,1,.1.32l-.29,1.1h1.75l.29-1.12a.47.47,0,0,1,.23-.34.71.71,0,0,1,.37-.1.5.5,0,0,1,.31.14.36.36,0,0,1,.1.34l-.26,1.08h.81a.31.31,0,0,1,.28.15.48.48,0,0,1,.11.3.51.51,0,0,1-.13.3.41.41,0,0,1-.35.14h-1L79,67.94H80a.32.32,0,0,1,.3.15.41.41,0,0,1,.09.3.61.61,0,0,1-.15.3.42.42,0,0,1-.33.14h-1.2l-.34,1.44a.5.5,0,0,1-.26.32.58.58,0,0,1-.36.06.47.47,0,0,1-.31-.14A.31.31,0,0,1,77.4,70.17Zm.93-3.79H76.61l-.41,1.56H78Z"/><path d="M81.72,67.89,82.51,64a.38.38,0,0,1,.22-.3.62.62,0,0,1,.38-.06.65.65,0,0,1,.34.17.47.47,0,0,1,.12.38l-.44,2a1.8,1.8,0,0,1,.43-.11,2.63,2.63,0,0,1,.49,0,2.41,2.41,0,0,1,1.71.63,2.61,2.61,0,0,1,0,3.47,2.44,2.44,0,0,1-1.71.6,2.88,2.88,0,0,1-1-.17,2.08,2.08,0,0,1-.8-.53,2.19,2.19,0,0,1-.48-.89A3.16,3.16,0,0,1,81.72,67.89Zm2.33-.84a1.31,1.31,0,0,0-1,.36,1.25,1.25,0,0,0-.37.94,1.27,1.27,0,0,0,.37,1,1.41,1.41,0,0,0,1.88,0,1.24,1.24,0,0,0,.39-1,1.21,1.21,0,0,0-.41-.94A1.31,1.31,0,0,0,84.05,67.05Z"/><path d="M88.74,70.43a2.21,2.21,0,0,1-.76-.49,2,2,0,0,1-.48-.69,2.16,2.16,0,0,1-.17-.83,1.66,1.66,0,0,1,.32-1,3.89,3.89,0,0,1,.6-.65,2.75,2.75,0,0,1-.39-.59,1.63,1.63,0,0,1-.17-.73,1.91,1.91,0,0,1,.11-.6,1.59,1.59,0,0,1,.36-.59,2,2,0,0,1,.64-.45,2.28,2.28,0,0,1,1-.19,2.44,2.44,0,0,1,1,.19,1.89,1.89,0,0,1,.65.46,1.81,1.81,0,0,1,.35.59,2,2,0,0,1,.11.59,1.63,1.63,0,0,1-.17.73,3.15,3.15,0,0,1-.38.59,5.83,5.83,0,0,1,.59.65,1.66,1.66,0,0,1,.32,1,2.16,2.16,0,0,1-.17.83,2.12,2.12,0,0,1-.49.69,2.4,2.4,0,0,1-.78.49,2.78,2.78,0,0,1-1,.17A2.73,2.73,0,0,1,88.74,70.43Zm2-1.15a1.08,1.08,0,0,0,.39-.84,1.06,1.06,0,0,0-.38-.82,1.37,1.37,0,0,0-1-.35,1.32,1.32,0,0,0-.92.35,1.09,1.09,0,0,0-.38.82,1.08,1.08,0,0,0,.39.84,1.3,1.3,0,0,0,.91.34A1.4,1.4,0,0,0,90.71,69.28Zm-.16-3.18a.94.94,0,0,0,.29-.68.91.91,0,0,0-.3-.68,1.19,1.19,0,0,0-1.53,0,1,1,0,0,0,0,1.36,1,1,0,0,0,.77.28A1,1,0,0,0,90.55,66.1Z"/><path d="M96.41,64a2.83,2.83,0,0,1,1.28.25,2,2,0,0,1,.79.64,2.35,2.35,0,0,1,.4.88,4.09,4.09,0,0,1,.12,1v3.53a.37.37,0,0,1-.17.31.66.66,0,0,1-.36.11.67.67,0,0,1-.37-.11.35.35,0,0,1-.16-.31V68.44H94.85V70.2a.34.34,0,0,1-.17.3.65.65,0,0,1-.36.1.75.75,0,0,1-.37-.09.34.34,0,0,1-.16-.31V66.52a4.57,4.57,0,0,1,.07-.77,2.06,2.06,0,0,1,.34-.83,2.11,2.11,0,0,1,.79-.67A3.09,3.09,0,0,1,96.41,64Zm1.53,3.39V66.29a1,1,0,0,0-.14-.54,1.23,1.23,0,0,0-.35-.4A1.42,1.42,0,0,0,97,65.1a1.84,1.84,0,0,0-.57-.09,1.79,1.79,0,0,0-.57.08,1.32,1.32,0,0,0-.49.24,1.21,1.21,0,0,0-.48,1v1Z"/><path d="M102.79,67.87a.41.41,0,0,1-.36-.16.52.52,0,0,1-.12-.33.5.5,0,0,1,.13-.34.45.45,0,0,1,.37-.15,1.89,1.89,0,0,0,.81-.21,1,1,0,0,0,.39-.51.92.92,0,0,0,0-.52,1,1,0,0,0-.21-.46,1.44,1.44,0,0,0-.4-.33,1,1,0,0,0-.5-.14,1.76,1.76,0,0,0-.75.14,1.7,1.7,0,0,0-.54.51.54.54,0,0,1-.71.17.47.47,0,0,1-.24-.26.45.45,0,0,1,.06-.41,2.21,2.21,0,0,1,.84-.82,2.61,2.61,0,0,1,1.51-.31,3.46,3.46,0,0,1,.64.13,1.91,1.91,0,0,1,.65.33,1.86,1.86,0,0,1,.5.6,2.19,2.19,0,0,1,.23,1,2.36,2.36,0,0,1-.07.64,1.57,1.57,0,0,1-.17.45,1.11,1.11,0,0,1-.24.31l-.22.21.27.19a1.67,1.67,0,0,1,.28.31,1.81,1.81,0,0,1,.23.41,1.46,1.46,0,0,1,.09.52,2,2,0,0,1-.23.94,1.85,1.85,0,0,1-.51.59,2.12,2.12,0,0,1-.63.33,2.56,2.56,0,0,1-.6.11,3.88,3.88,0,0,1-1.37-.12,2,2,0,0,1-1.06-.79.44.44,0,0,1-.07-.38.7.7,0,0,1,.21-.34.55.55,0,0,1,.33-.14.36.36,0,0,1,.33.14,1.51,1.51,0,0,0,.67.58,1.75,1.75,0,0,0,.81.09.8.8,0,0,0,.31-.07,1.63,1.63,0,0,0,.34-.19,1.14,1.14,0,0,0,.27-.31.78.78,0,0,0,.12-.44.74.74,0,0,0-.42-.72A2.17,2.17,0,0,0,102.79,67.87Z"/><path d="M107.71,64.94v1.2c0,.15,0,.24.07.27s.13,0,.27,0l.5-.07a3.2,3.2,0,0,1,.62,0,2,2,0,0,1,1,.35,1.83,1.83,0,0,1,.55.64,2.18,2.18,0,0,1,.22.74,3.12,3.12,0,0,1,0,.67,2.36,2.36,0,0,1-.19.7,2.14,2.14,0,0,1-.43.66,2.35,2.35,0,0,1-.73.47,2.83,2.83,0,0,1-2.54-.33,1.53,1.53,0,0,1-.57-1.06.5.5,0,0,1,.08-.37.56.56,0,0,1,.4-.19.59.59,0,0,1,.41.08.53.53,0,0,1,.19.31.86.86,0,0,0,.27.44,1,1,0,0,0,.71.25,1.42,1.42,0,0,0,1-.26,1.11,1.11,0,0,0,.43-.82,1.18,1.18,0,0,0-.23-.87,1.21,1.21,0,0,0-.87-.42,1.92,1.92,0,0,0-.55,0,3.26,3.26,0,0,0-.4.11l-.35.1a.86.86,0,0,1-.36,0,.44.44,0,0,1-.39-.33,2.7,2.7,0,0,1-.09-.8v-.61c0-.21,0-.41,0-.6s0-.35,0-.49a.93.93,0,0,1,0-.29.52.52,0,0,1,.3-.39,1.22,1.22,0,0,1,.46-.09h2.6a.37.37,0,0,1,.32.15.62.62,0,0,1,.11.34.66.66,0,0,1-.12.34.36.36,0,0,1-.31.15Z"/><path d="M113.71,65.11V67h3a.48.48,0,0,1,.38.15.51.51,0,0,1,0,.66.48.48,0,0,1-.38.15h-3v2.37a.32.32,0,0,1-.16.29.63.63,0,0,1-.33.09.65.65,0,0,1-.34-.1.31.31,0,0,1-.15-.28v-5a1.2,1.2,0,0,1,.25-.85,1.27,1.27,0,0,1,1-.28h2.8a.41.41,0,0,1,.35.15.57.57,0,0,1,.11.33.52.52,0,0,1-.12.33.43.43,0,0,1-.36.15Z"/><path class="cls-3" d="M164.31,0c10.22.23,18.5,3.84,24,12.77a15.4,15.4,0,0,1,2.43,11.13,25.16,25.16,0,0,0-.63,5c.12,4.42-2.37,6.93-5.83,9a7.36,7.36,0,0,0-2.24,3.13c-1.15,2.42-1.91,5-3.22,7.35a7.69,7.69,0,0,1-3.47,3.26c-4.14,1.67-8.48,2.5-13,1.38a24,24,0,0,0-3.93-.7c-8.64-.66-14.18-5.83-18.45-12.75a64.43,64.43,0,0,1-4.88-8.82,13.27,13.27,0,0,1-1.06-6.61C135.91,10.94,144.5,2.54,157.77.69,160,.39,162.18.22,164.31,0Z"/><path d="M144.5,70l.34-1.34h-1.75l-.41,1.44a.57.57,0,0,1-.27.33.61.61,0,0,1-.37,0,.48.48,0,0,1-.29-.15.31.31,0,0,1-.06-.33l.36-1.34h-.72a.41.41,0,0,1-.44-.45.53.53,0,0,1,.11-.3.42.42,0,0,1,.33-.14h1l.44-1.56h-1a.39.39,0,0,1-.33-.14.45.45,0,0,1-.12-.31.53.53,0,0,1,.11-.3.4.4,0,0,1,.34-.14h1.15l.26-1.1a.55.55,0,0,1,.25-.38.65.65,0,0,1,.38-.09.48.48,0,0,1,.31.15.31.31,0,0,1,.09.32l-.28,1.1h1.75L146,64.2a.46.46,0,0,1,.22-.33.59.59,0,0,1,.38-.1.47.47,0,0,1,.31.14.34.34,0,0,1,.09.34l-.26,1.08h.82a.34.34,0,0,1,.28.14.46.46,0,0,1,0,.61.42.42,0,0,1-.35.14h-1l-.39,1.56h1.06a.36.36,0,0,1,.3.14.49.49,0,0,1,.08.3.55.55,0,0,1-.14.31.43.43,0,0,1-.34.14h-1.2l-.33,1.44a.51.51,0,0,1-.26.31.63.63,0,0,1-.37.07.43.43,0,0,1-.3-.14A.29.29,0,0,1,144.5,70Zm.94-3.79h-1.73l-.41,1.56h1.78Z"/><path d="M151,67.71a.44.44,0,0,1-.36-.16.54.54,0,0,1-.12-.34.52.52,0,0,1,.12-.33.45.45,0,0,1,.38-.16,1.77,1.77,0,0,0,.81-.2,1.06,1.06,0,0,0,.39-.52.89.89,0,0,0,0-.51A1,1,0,0,0,152,65a1.32,1.32,0,0,0-.4-.34,1.09,1.09,0,0,0-.5-.13,1.76,1.76,0,0,0-.75.14,1.43,1.43,0,0,0-.54.51.54.54,0,0,1-.35.22.6.6,0,0,1-.36-.05.53.53,0,0,1-.24-.27.43.43,0,0,1,.06-.4,2.23,2.23,0,0,1,.84-.83,2.67,2.67,0,0,1,1.51-.3,3.53,3.53,0,0,1,.64.12,1.91,1.91,0,0,1,1.15.94,2.33,2.33,0,0,1,.23,1,2.87,2.87,0,0,1-.07.65,1.57,1.57,0,0,1-.17.45,1.58,1.58,0,0,1-.24.31l-.22.2.26.2a1.44,1.44,0,0,1,.29.31,1.6,1.6,0,0,1,.22.41,1.46,1.46,0,0,1,.09.52,1.89,1.89,0,0,1-.22.94,1.85,1.85,0,0,1-.51.59,2.12,2.12,0,0,1-.63.33,3.22,3.22,0,0,1-.6.11,3.66,3.66,0,0,1-1.37-.13,1.86,1.86,0,0,1-1.06-.78.42.42,0,0,1-.07-.39.79.79,0,0,1,.2-.33.71.71,0,0,1,.33-.15.37.37,0,0,1,.33.15,1.6,1.6,0,0,0,.68.58,2.06,2.06,0,0,0,.81.09.8.8,0,0,0,.31-.07,1.93,1.93,0,0,0,.34-.19,1.69,1.69,0,0,0,.27-.32.75.75,0,0,0,.11-.43.73.73,0,0,0-.41-.72A2.2,2.2,0,0,0,151,67.71Z"/><path d="M157.75,63.82a3,3,0,0,1,1.28.24,2.16,2.16,0,0,1,.8.65,2.44,2.44,0,0,1,.4.88,4.49,4.49,0,0,1,.11,1v3.53a.33.33,0,0,1-.17.31.59.59,0,0,1-.36.11.65.65,0,0,1-.36-.1.34.34,0,0,1-.16-.32v-1.8h-3.1V70a.34.34,0,0,1-.17.31.65.65,0,0,1-.36.1.71.71,0,0,1-.36-.09.35.35,0,0,1-.17-.32V66.36a4.68,4.68,0,0,1,.08-.77,2.14,2.14,0,0,1,.33-.84,2.27,2.27,0,0,1,.79-.66A3.12,3.12,0,0,1,157.75,63.82Zm1.54,3.38V66.12a1.09,1.09,0,0,0-.14-.54,1.12,1.12,0,0,0-.36-.39,1.36,1.36,0,0,0-.49-.26,2.1,2.1,0,0,0-.56-.08,1.88,1.88,0,0,0-.58.07,1.86,1.86,0,0,0-.49.24,1.31,1.31,0,0,0-.35.42,1.25,1.25,0,0,0-.13.59v1Z"/><path d="M162.38,65a.38.38,0,0,1-.35-.16.56.56,0,0,1-.12-.36.63.63,0,0,1,.11-.35.33.33,0,0,1,.31-.16h3.51a.81.81,0,0,1,.41.08.45.45,0,0,1,.19.2.6.6,0,0,1,.05.3,2.07,2.07,0,0,1,0,.35l-1.22,5.14a.51.51,0,0,1-.22.39.57.57,0,0,1-.41.06.46.46,0,0,1-.34-.17.56.56,0,0,1-.06-.43l1.2-4.89Z"/><path d="M169.29,69.39h3a.45.45,0,0,1,.37.15.52.52,0,0,1,.12.33.61.61,0,0,1-.14.33.43.43,0,0,1-.35.15h-2.81a1.25,1.25,0,0,1-.81-.26.91.91,0,0,1-.32-.75V65.11a1.23,1.23,0,0,1,.26-.85,1.27,1.27,0,0,1,.94-.27h2.81a.41.41,0,0,1,.34.15.51.51,0,0,1,.11.33.52.52,0,0,1-.12.33.43.43,0,0,1-.36.15h-3v1.84h3a.46.46,0,0,1,.38.15.48.48,0,0,1,0,.66.46.46,0,0,1-.38.15h-3Z"/><path d="M175.1,64.78V66c0,.14,0,.23.07.27s.13,0,.27,0a4.55,4.55,0,0,1,.5-.07,3.31,3.31,0,0,1,.63,0,2,2,0,0,1,1,.35,1.79,1.79,0,0,1,.54.63,2,2,0,0,1,.22.75,3.1,3.1,0,0,1,0,.67,2.41,2.41,0,0,1-.18.7,2.18,2.18,0,0,1-.44.66,2.24,2.24,0,0,1-.73.47,2.42,2.42,0,0,1-1.05.16,2.37,2.37,0,0,1-1.49-.49,1.53,1.53,0,0,1-.57-1.07.49.49,0,0,1,.08-.36.69.69,0,0,1,.81-.11.51.51,0,0,1,.19.3.84.84,0,0,0,.27.45,1,1,0,0,0,.71.25,1.42,1.42,0,0,0,1-.26,1.13,1.13,0,0,0,.43-.82,1.16,1.16,0,0,0-.23-.88,1.21,1.21,0,0,0-.87-.42,2.3,2.3,0,0,0-.55,0l-.4.11-.35.1a.73.73,0,0,1-.36,0,.44.44,0,0,1-.39-.32,2.7,2.7,0,0,1-.09-.8v-.61c0-.21,0-.41,0-.61s0-.34,0-.48a1.05,1.05,0,0,1,0-.3.54.54,0,0,1,.3-.39,1.27,1.27,0,0,1,.47-.09h2.59a.38.38,0,0,1,.32.16.6.6,0,0,1,.11.34.7.7,0,0,1-.12.34.36.36,0,0,1-.31.15Z"/><path d="M180.86,64.78V66c0,.14,0,.23.07.27s.13,0,.27,0a4.55,4.55,0,0,1,.5-.07,3.31,3.31,0,0,1,.63,0,2,2,0,0,1,1,.35,1.79,1.79,0,0,1,.54.63,2,2,0,0,1,.22.75,3.1,3.1,0,0,1,0,.67,2.41,2.41,0,0,1-.18.7,2.18,2.18,0,0,1-.44.66,2.24,2.24,0,0,1-.73.47,2.42,2.42,0,0,1-1.05.16,2.37,2.37,0,0,1-1.49-.49,1.53,1.53,0,0,1-.57-1.07.49.49,0,0,1,.08-.36.69.69,0,0,1,.81-.11.51.51,0,0,1,.19.3.84.84,0,0,0,.27.45,1,1,0,0,0,.71.25,1.42,1.42,0,0,0,1-.26,1.13,1.13,0,0,0,.43-.82,1.16,1.16,0,0,0-.23-.88,1.21,1.21,0,0,0-.87-.42,2.3,2.3,0,0,0-.55,0l-.4.11-.35.1a.73.73,0,0,1-.36,0,.44.44,0,0,1-.39-.32,2.7,2.7,0,0,1-.09-.8v-.61c0-.21,0-.41,0-.61s0-.34,0-.48a1.05,1.05,0,0,1,0-.3.54.54,0,0,1,.3-.39,1.27,1.27,0,0,1,.47-.09h2.59a.38.38,0,0,1,.32.16.6.6,0,0,1,.11.34.7.7,0,0,1-.12.34.36.36,0,0,1-.31.15Z"/></g></g></svg>