<svg xmlns="http://www.w3.org/2000/svg" viewBox="0 0 191 72.52"><defs><style>.cls-1{fill:#264c9c;}.cls-2{fill:#a2bfee;}.cls-3{fill:#cedeff;}</style></defs><g id="Layer_2" data-name="Layer 2"><g id="Layer_1-2" data-name="Layer 1"><path class="cls-1" d="M164.31,0c10.22.23,18.5,3.84,24,12.77a15.4,15.4,0,0,1,2.43,11.13,25.16,25.16,0,0,0-.63,5c.12,4.42-2.37,6.93-5.83,9a7.36,7.36,0,0,0-2.24,3.13c-1.15,2.42-1.91,5-3.22,7.35a7.69,7.69,0,0,1-3.47,3.26c-4.14,1.67-8.48,2.5-13,1.38a24,24,0,0,0-3.93-.7c-8.64-.66-14.18-5.83-18.45-12.75a64.43,64.43,0,0,1-4.88-8.82,13.27,13.27,0,0,1-1.06-6.61C135.91,10.94,144.5,2.54,157.77.69,160,.39,162.18.22,164.31,0Z"/><path d="M144,71.88l.34-1.35H142.6L142.2,72a.57.57,0,0,1-.27.33.62.62,0,0,1-.37.06.48.48,0,0,1-.29-.15.32.32,0,0,1-.06-.33l.36-1.35h-.72a.41.41,0,0,1-.35-.14.41.41,0,0,1-.09-.3.48.48,0,0,1,.11-.3.4.4,0,0,1,.33-.15h1l.43-1.56h-1A.42.42,0,0,1,141,68a.48.48,0,0,1,0-.61.37.37,0,0,1,.33-.14h1.16l.26-1.11a.53.53,0,0,1,.25-.37.74.74,0,0,1,.37-.1.63.63,0,0,1,.32.15.34.34,0,0,1,.09.32l-.29,1.11h1.76l.28-1.13a.53.53,0,0,1,.23-.34.64.64,0,0,1,.37-.09.48.48,0,0,1,.32.13.38.38,0,0,1,.09.35l-.26,1.08H147a.33.33,0,0,1,.29.14.6.6,0,0,1,.1.3.56.56,0,0,1-.13.31.42.42,0,0,1-.35.13h-1l-.38,1.56h1.06a.34.34,0,0,1,.3.15.46.46,0,0,1,.08.3.59.59,0,0,1-.14.3.41.41,0,0,1-.34.14h-1.2L145,72a.49.49,0,0,1-.25.32.72.72,0,0,1-.37.07.52.52,0,0,1-.31-.14A.31.31,0,0,1,144,71.88Zm.94-3.8h-1.73l-.41,1.56h1.78Z"/><path d="M152.44,71.38a.58.58,0,0,1,0,.68.39.39,0,0,1-.33.15H149.4a1.5,1.5,0,0,1-.47-.08.54.54,0,0,1-.3-.4.58.58,0,0,1,0-.21c0-.1,0-.22,0-.35s0-.28,0-.45v-.55a1.11,1.11,0,0,1,.18-.72,1,1,0,0,1,.66-.29l.37,0,.35,0,.37,0,.4-.07a1.07,1.07,0,0,0,.52-.2,1.21,1.21,0,0,0,.29-.36,1.35,1.35,0,0,0,.11-.45,2.22,2.22,0,0,0,0-.45,1,1,0,0,0-.34-.69,1.36,1.36,0,0,0-.9-.25,1.16,1.16,0,0,0-.75.23.78.78,0,0,0-.31.42.54.54,0,0,1-.58.48.57.57,0,0,1-.42-.14.45.45,0,0,1-.1-.36,1.38,1.38,0,0,1,.18-.6,1.62,1.62,0,0,1,.43-.52,1.94,1.94,0,0,1,.66-.38,2.53,2.53,0,0,1,.86-.16,2.74,2.74,0,0,1,1.05.18,2.08,2.08,0,0,1,.7.46,2,2,0,0,1,.4.62,2.31,2.31,0,0,1,.16.64c0,.2,0,.43,0,.69a2.08,2.08,0,0,1-.19.77,1.62,1.62,0,0,1-.52.65,1.94,1.94,0,0,1-1,.36l-.36,0-.24,0-.23,0-.3,0a.44.44,0,0,0-.32.13.72.72,0,0,0-.06.33v.38a.42.42,0,0,0,.06.28.61.61,0,0,0,.34.06h2.09A.35.35,0,0,1,152.44,71.38Z"/><path d="M154.1,69.6l.79-3.87a.41.41,0,0,1,.22-.3.82.82,0,0,1,.38-.06.66.66,0,0,1,.34.18.45.45,0,0,1,.12.37l-.43,2a1.72,1.72,0,0,1,.42-.11,3.89,3.89,0,0,1,.49,0,2.41,2.41,0,0,1,1.71.63,2.28,2.28,0,0,1,.66,1.73,2.23,2.23,0,0,1-.66,1.74,2.4,2.4,0,0,1-1.71.61,2.88,2.88,0,0,1-1-.18,1.87,1.87,0,0,1-.79-.53,2,2,0,0,1-.48-.89A2.92,2.92,0,0,1,154.1,69.6Zm2.33-.84a1.31,1.31,0,0,0-1,.36,1.23,1.23,0,0,0-.37.93,1.27,1.27,0,0,0,.37,1,1.31,1.31,0,0,0,1,.36,1.29,1.29,0,0,0,.93-.36,1.24,1.24,0,0,0,.39-1,1.22,1.22,0,0,0-.4-.93A1.35,1.35,0,0,0,156.43,68.76Z"/><path d="M159.84,69.76v-3.4A.37.37,0,0,1,160,66a.58.58,0,0,1,.34-.11.57.57,0,0,1,.33.11.36.36,0,0,1,.16.33v3a.57.57,0,0,0,.07.36.55.55,0,0,0,.36.08h1.66V66.4a.4.4,0,0,1,.15-.33.63.63,0,0,1,.35-.11.6.6,0,0,1,.34.11.39.39,0,0,1,.17.33v3.44h.55a.47.47,0,0,1,.39.16.54.54,0,0,1,.14.35.52.52,0,0,1-.14.36.46.46,0,0,1-.39.16h-.55V72a.4.4,0,0,1-.17.34.54.54,0,0,1-.34.12.56.56,0,0,1-.35-.11.41.41,0,0,1-.15-.35V70.87H161a4.64,4.64,0,0,1-.61,0,.68.68,0,0,1-.36-.18.64.64,0,0,1-.16-.34A2.75,2.75,0,0,1,159.84,69.76Z"/><path d="M171.21,70.15a.58.58,0,0,1,.37,0,.55.55,0,0,1,.28.24.47.47,0,0,1,0,.39,2.12,2.12,0,0,1-1,1.2,3.7,3.7,0,0,1-1.73.4,3.29,3.29,0,0,1-1.45-.29,3,3,0,0,1-1-.77,3.17,3.17,0,0,1-.63-1.08,4,4,0,0,1-.2-1.22,3.41,3.41,0,0,1,.26-1.32,3.64,3.64,0,0,1,.72-1.08,3.5,3.5,0,0,1,1-.72,3.19,3.19,0,0,1,1.26-.26,2.82,2.82,0,0,1,1.35.25,2,2,0,0,1,.66.52.46.46,0,0,1,.1.39.61.61,0,0,1-.19.32.62.62,0,0,1-.33.15.33.33,0,0,1-.32-.12,1.29,1.29,0,0,0-.45-.29,2.15,2.15,0,0,0-.82-.12,2,2,0,0,0-1.49.61,2.3,2.3,0,0,0-.6,1.7,2.36,2.36,0,0,0,.57,1.64,2.33,2.33,0,0,0,2.73.35,2.07,2.07,0,0,0,.61-.65A.45.45,0,0,1,171.21,70.15Z"/><path d="M177.5,68.16l-.82,4a.42.42,0,0,1-.22.31.63.63,0,0,1-.38.06.61.61,0,0,1-.34-.17.4.4,0,0,1-.11-.39l.43-2a2.09,2.09,0,0,1-.43.11,2.45,2.45,0,0,1-.48,0,2.37,2.37,0,0,1-1.71-.63,2.22,2.22,0,0,1-.67-1.72,2.42,2.42,0,0,1,.18-1,2.17,2.17,0,0,1,.51-.75,2.22,2.22,0,0,1,.75-.47,2.42,2.42,0,0,1,.94-.18,2.86,2.86,0,0,1,1,.17,1.89,1.89,0,0,1,.78.51,2,2,0,0,1,.48.85A3,3,0,0,1,177.5,68.16Zm-2.35,1a1.32,1.32,0,0,0,.95-.36,1.32,1.32,0,0,0-.95-2.26,1.27,1.27,0,0,0-.94.37,1.35,1.35,0,0,0,0,1.89A1.36,1.36,0,0,0,175.15,69.12Z"/><path d="M179.16,66.52a.65.65,0,0,1,.17-.5.7.7,0,0,1,.5-.17h1.75a3.48,3.48,0,0,1,1.36.24,2.59,2.59,0,0,1,.92.65,2.5,2.5,0,0,1,.53,1,4.1,4.1,0,0,1,.17,1.18,3.47,3.47,0,0,1-.8,2.5,2.79,2.79,0,0,1-2.13.83h-1.75a.86.86,0,0,1-.5-.14.59.59,0,0,1-.22-.55Zm2.44,4.71a1.93,1.93,0,0,0,.92-.2,1.54,1.54,0,0,0,.58-.52,2.1,2.1,0,0,0,.31-.72,3.61,3.61,0,0,0,.09-.79,2.3,2.3,0,0,0-.49-1.56,1.68,1.68,0,0,0-1.36-.58h-1.44v4.37Z"/><path class="cls-2" d="M97.31,0c10.22.23,18.5,3.84,24,12.77a15.4,15.4,0,0,1,2.43,11.13,25.16,25.16,0,0,0-.63,5c.12,4.42-2.37,6.93-5.83,9a7.36,7.36,0,0,0-2.24,3.13c-1.15,2.42-1.91,5-3.22,7.35a7.69,7.69,0,0,1-3.47,3.26c-4.14,1.67-8.48,2.5-13,1.38a24,24,0,0,0-3.93-.7C82.83,51.7,77.29,46.53,73,39.61a64.43,64.43,0,0,1-4.88-8.82,13.27,13.27,0,0,1-1.06-6.61C68.91,10.94,77.5,2.54,90.77.69,93,.39,95.18.22,97.31,0Z"/><path d="M76.5,71.88l.34-1.35H75.09L74.68,72a.57.57,0,0,1-.27.33.61.61,0,0,1-.37.06.51.51,0,0,1-.29-.15.32.32,0,0,1,0-.33l.36-1.35h-.72a.4.4,0,0,1-.35-.14.42.42,0,0,1-.1-.3.44.44,0,0,1,.12-.3.37.37,0,0,1,.33-.15h1l.43-1.56h-1a.39.39,0,0,1-.33-.13.48.48,0,0,1-.12-.31.53.53,0,0,1,.11-.3.39.39,0,0,1,.34-.14h1.15l.26-1.11a.56.56,0,0,1,.25-.37.75.75,0,0,1,.38-.1.6.6,0,0,1,.31.15.34.34,0,0,1,.1.32l-.29,1.11h1.75L78,66.07a.49.49,0,0,1,.23-.34.62.62,0,0,1,.37-.09.46.46,0,0,1,.31.13.38.38,0,0,1,.1.35l-.27,1.08h.82a.31.31,0,0,1,.28.14.51.51,0,0,1,.1.3.63.63,0,0,1-.12.31.45.45,0,0,1-.36.13h-1l-.39,1.56h1.06a.32.32,0,0,1,.3.15.46.46,0,0,1,.08.3.52.52,0,0,1-.14.3.4.4,0,0,1-.34.14h-1.2L77.49,72a.53.53,0,0,1-.26.32.7.7,0,0,1-.37.07.47.47,0,0,1-.3-.14A.32.32,0,0,1,76.5,71.88Zm.94-3.8H75.71l-.41,1.56h1.78Z"/><path d="M84,65.68a3,3,0,0,1,1.29.25,2.11,2.11,0,0,1,.79.64,2.6,2.6,0,0,1,.4.88,4.07,4.07,0,0,1,.11,1V72a.35.35,0,0,1-.16.31.72.72,0,0,1-.36.11.76.76,0,0,1-.37-.1.35.35,0,0,1-.16-.32v-1.8h-3.1V71.9a.33.33,0,0,1-.17.31.75.75,0,0,1-.36.1.65.65,0,0,1-.36-.1.33.33,0,0,1-.16-.31V68.23a4.68,4.68,0,0,1,.07-.78,2.19,2.19,0,0,1,.33-.83,2.24,2.24,0,0,1,.8-.67A3,3,0,0,1,84,65.68Zm1.54,3.39V68a1.09,1.09,0,0,0-.14-.54,1.35,1.35,0,0,0-.35-.4,1.67,1.67,0,0,0-.5-.25,1.77,1.77,0,0,0-.56-.08,1.62,1.62,0,0,0-.58.07,1.49,1.49,0,0,0-.49.24,1.31,1.31,0,0,0-.35.42,1.35,1.35,0,0,0-.13.59v1Z"/><path d="M90.38,69.57a.43.43,0,0,1-.36-.15.54.54,0,0,1,0-.68.48.48,0,0,1,.38-.15,1.68,1.68,0,0,0,.8-.21,1,1,0,0,0,.4-.51.89.89,0,0,0,0-.51,1.21,1.21,0,0,0-.21-.46,1.45,1.45,0,0,0-.4-.34,1,1,0,0,0-.5-.13,1.77,1.77,0,0,0-.75.13,1.66,1.66,0,0,0-.55.52.53.53,0,0,1-.7.16.41.41,0,0,1-.24-.26.45.45,0,0,1,.06-.41,2.14,2.14,0,0,1,.84-.82,2.59,2.59,0,0,1,1.51-.31,3.37,3.37,0,0,1,.63.13,2,2,0,0,1,.65.33,1.83,1.83,0,0,1,.51.61,2.18,2.18,0,0,1,.22.95,3,3,0,0,1-.06.65,1.62,1.62,0,0,1-.18.44,1.31,1.31,0,0,1-.23.31l-.22.21a2.64,2.64,0,0,1,.26.2,1.38,1.38,0,0,1,.29.3,1.67,1.67,0,0,1,.22.42,1.38,1.38,0,0,1,.09.52,2,2,0,0,1-.22.93,1.75,1.75,0,0,1-.51.59,2.05,2.05,0,0,1-.64.33,2.45,2.45,0,0,1-.6.12,3.82,3.82,0,0,1-1.36-.13,1.85,1.85,0,0,1-1.06-.79.4.4,0,0,1-.07-.38.77.77,0,0,1,.2-.34.69.69,0,0,1,.33-.14.34.34,0,0,1,.33.14,1.63,1.63,0,0,0,.68.59,2.06,2.06,0,0,0,.81.09.83.83,0,0,0,.31-.08,1.45,1.45,0,0,0,.34-.19,1.63,1.63,0,0,0,.27-.31.83.83,0,0,0,.11-.43.75.75,0,0,0-.41-.73A2.2,2.2,0,0,0,90.38,69.57Z"/><path d="M99.59,70.15a.58.58,0,0,1,.37,0,.55.55,0,0,1,.28.24.47.47,0,0,1,0,.39A2.12,2.12,0,0,1,99.21,72a3.7,3.7,0,0,1-1.73.4A3.29,3.29,0,0,1,96,72.11a3,3,0,0,1-1-.77,3.17,3.17,0,0,1-.63-1.08,4,4,0,0,1-.2-1.22,3.41,3.41,0,0,1,.26-1.32,3.64,3.64,0,0,1,.72-1.08,3.5,3.5,0,0,1,1-.72,3.19,3.19,0,0,1,1.26-.26,2.82,2.82,0,0,1,1.35.25,2,2,0,0,1,.66.52.46.46,0,0,1,.1.39.61.61,0,0,1-.19.32.62.62,0,0,1-.33.15.33.33,0,0,1-.32-.12,1.29,1.29,0,0,0-.45-.29,2.15,2.15,0,0,0-.82-.12,2,2,0,0,0-1.49.61,2.3,2.3,0,0,0-.6,1.7,2.36,2.36,0,0,0,.57,1.64,2.33,2.33,0,0,0,2.73.35,2.07,2.07,0,0,0,.61-.65A.45.45,0,0,1,99.59,70.15Z"/><path d="M103.53,65.78a2.47,2.47,0,0,1,1.22.28,2.57,2.57,0,0,1,.83.74,3.15,3.15,0,0,1,.48,1,4.8,4.8,0,0,1,.16,1.19,4.51,4.51,0,0,1-.17,1.23,3.2,3.2,0,0,1-.48,1,2.37,2.37,0,0,1-.84.73,2.8,2.8,0,0,1-2.4,0,2.34,2.34,0,0,1-.83-.73,3.24,3.24,0,0,1-.5-1,4.51,4.51,0,0,1-.16-1.23,4.71,4.71,0,0,1,.15-1.18,3.34,3.34,0,0,1,.47-1,2.61,2.61,0,0,1,.84-.74A2.49,2.49,0,0,1,103.53,65.78Zm0,1.1a1.52,1.52,0,0,0-.81.2,1.55,1.55,0,0,0-.51.51,2,2,0,0,0-.27.7,4.87,4.87,0,0,0-.07.75,3.48,3.48,0,0,0,.09.79,2.38,2.38,0,0,0,.28.69,1.65,1.65,0,0,0,.52.5,1.5,1.5,0,0,0,2-.5,1.94,1.94,0,0,0,.29-.69,3.48,3.48,0,0,0,.09-.79,3.27,3.27,0,0,0-.08-.76,2.28,2.28,0,0,0-.28-.7,1.62,1.62,0,0,0-.51-.5A1.46,1.46,0,0,0,103.53,66.88Z"/><path d="M108.52,71.25h3a.44.44,0,0,1,.37.15.52.52,0,0,1,.12.33.53.53,0,0,1-.13.33.46.46,0,0,1-.36.15h-2.81a1.23,1.23,0,0,1-.81-.26.91.91,0,0,1-.31-.75V67a1.22,1.22,0,0,1,.25-.85,1.27,1.27,0,0,1,.95-.28h2.8a.41.41,0,0,1,.35.15.57.57,0,0,1,.11.33.52.52,0,0,1-.12.33.43.43,0,0,1-.36.15h-3v1.85h3a.48.48,0,0,1,.38.15.51.51,0,0,1,0,.66.48.48,0,0,1-.38.15h-3Z"/><path d="M114.57,66.81v1.85h3a.48.48,0,0,1,.38.15.51.51,0,0,1,0,.66.48.48,0,0,1-.38.15h-3V72a.3.3,0,0,1-.16.28.63.63,0,0,1-.33.09.6.6,0,0,1-.35-.1.29.29,0,0,1-.15-.27V67a1.22,1.22,0,0,1,.26-.85,1.24,1.24,0,0,1,.94-.28h2.81a.39.39,0,0,1,.34.15.51.51,0,0,1,0,.66.43.43,0,0,1-.36.15Z"/><path class="cls-3" d="M30.31,0c10.22.23,18.5,3.84,24,12.77A15.4,15.4,0,0,1,56.77,23.9a25.16,25.16,0,0,0-.63,5c.12,4.42-2.37,6.93-5.83,9a7.36,7.36,0,0,0-2.24,3.13c-1.15,2.42-1.91,5-3.22,7.35a7.69,7.69,0,0,1-3.47,3.26c-4.14,1.67-8.48,2.5-13,1.38a24,24,0,0,0-3.93-.7C15.83,51.7,10.29,46.53,6,39.61a64.43,64.43,0,0,1-4.88-8.82A13.27,13.27,0,0,1,.08,24.18C1.91,10.94,10.5,2.54,23.77.69,26,.39,28.18.22,30.31,0Z"/><path d="M9.54,71.88l.34-1.35H8.12L7.72,72a.57.57,0,0,1-.27.33.62.62,0,0,1-.37.06.48.48,0,0,1-.29-.15.32.32,0,0,1-.06-.33l.36-1.35H6.37A.41.41,0,0,1,6,70.39a.41.41,0,0,1-.09-.3.48.48,0,0,1,.11-.3.4.4,0,0,1,.33-.15h1l.43-1.56h-1A.42.42,0,0,1,6.47,68a.48.48,0,0,1,0-.61.37.37,0,0,1,.33-.14H8l.26-1.11a.53.53,0,0,1,.25-.37.74.74,0,0,1,.37-.1.63.63,0,0,1,.32.15.34.34,0,0,1,.09.32L9,67.2h1.76L11,66.07a.53.53,0,0,1,.23-.34.64.64,0,0,1,.37-.09.48.48,0,0,1,.32.13.38.38,0,0,1,.09.35l-.26,1.08h.81a.33.33,0,0,1,.29.14.6.6,0,0,1,.1.3.56.56,0,0,1-.13.31.42.42,0,0,1-.35.13h-1l-.38,1.56h1.06a.34.34,0,0,1,.3.15.46.46,0,0,1,.08.3.59.59,0,0,1-.14.3.41.41,0,0,1-.34.14h-1.2L10.52,72a.49.49,0,0,1-.25.32.72.72,0,0,1-.37.07.52.52,0,0,1-.31-.14A.31.31,0,0,1,9.54,71.88Zm.94-3.8H8.75l-.41,1.56h1.78Z"/><path d="M19.45,70.15a.58.58,0,0,1,.37,0,.55.55,0,0,1,.28.24.47.47,0,0,1,0,.39A2.12,2.12,0,0,1,19.07,72a3.7,3.7,0,0,1-1.73.4,3.29,3.29,0,0,1-1.45-.29,3,3,0,0,1-1-.77,3.17,3.17,0,0,1-.63-1.08A4,4,0,0,1,14,69a3.41,3.41,0,0,1,.26-1.32A3.64,3.64,0,0,1,15,66.64a3.5,3.5,0,0,1,1-.72,3.19,3.19,0,0,1,1.26-.26,2.82,2.82,0,0,1,1.35.25,2,2,0,0,1,.66.52.46.46,0,0,1,.1.39.61.61,0,0,1-.19.32.62.62,0,0,1-.33.15.33.33,0,0,1-.32-.12,1.29,1.29,0,0,0-.45-.29,2.15,2.15,0,0,0-.82-.12,2,2,0,0,0-1.49.61,2.3,2.3,0,0,0-.6,1.7,2.36,2.36,0,0,0,.57,1.64,2,2,0,0,0,1.56.64,2,2,0,0,0,1.17-.29,2.07,2.07,0,0,0,.61-.65A.45.45,0,0,1,19.45,70.15Z"/><path d="M22.62,66.81v1.85h3a.48.48,0,0,1,.38.15.51.51,0,0,1,0,.66.48.48,0,0,1-.38.15h-3V72a.3.3,0,0,1-.16.28.63.63,0,0,1-.33.09.57.57,0,0,1-.34-.1.29.29,0,0,1-.15-.27V67a1.22,1.22,0,0,1,.25-.85,1.27,1.27,0,0,1,.95-.28h2.8A.41.41,0,0,1,26,66a.57.57,0,0,1,.11.33.52.52,0,0,1-.12.33.43.43,0,0,1-.36.15Z"/><path d="M27.64,66.52a.65.65,0,0,1,.17-.5.7.7,0,0,1,.5-.17h1.75a3.48,3.48,0,0,1,1.36.24,2.59,2.59,0,0,1,.92.65,2.5,2.5,0,0,1,.53,1A4.1,4.1,0,0,1,33,68.88a3.47,3.47,0,0,1-.8,2.5,2.79,2.79,0,0,1-2.13.83H28.36a.86.86,0,0,1-.5-.14.59.59,0,0,1-.22-.55Zm2.44,4.71A1.93,1.93,0,0,0,31,71a1.54,1.54,0,0,0,.58-.52,2.1,2.1,0,0,0,.31-.72A3.61,3.61,0,0,0,32,69a2.3,2.3,0,0,0-.49-1.56,1.68,1.68,0,0,0-1.36-.58H28.69v4.37Z"/><path d="M35.53,66.81v1.85h3a.46.46,0,0,1,.38.15.48.48,0,0,1,0,.66.46.46,0,0,1-.38.15h-3V72a.31.31,0,0,1-.15.28.69.69,0,0,1-.34.09.57.57,0,0,1-.34-.1.29.29,0,0,1-.15-.27V67a1.17,1.17,0,0,1,.26-.85,1.23,1.23,0,0,1,.94-.28h2.81a.41.41,0,0,1,.34.15.57.57,0,0,1,.11.33.52.52,0,0,1-.12.33.43.43,0,0,1-.36.15Z"/><path d="M41.53,66.81v1.85h3a.46.46,0,0,1,.38.15.48.48,0,0,1,0,.66.46.46,0,0,1-.38.15h-3V72a.31.31,0,0,1-.15.28.69.69,0,0,1-.34.09.57.57,0,0,1-.34-.1.29.29,0,0,1-.15-.27V67a1.17,1.17,0,0,1,.26-.85,1.23,1.23,0,0,1,.94-.28h2.81a.41.41,0,0,1,.34.15.57.57,0,0,1,.11.33.52.52,0,0,1-.12.33.43.43,0,0,1-.36.15Z"/><path d="M47.53,66.81v1.85h3a.46.46,0,0,1,.38.15.48.48,0,0,1,0,.66.46.46,0,0,1-.38.15h-3V72a.31.31,0,0,1-.15.28.69.69,0,0,1-.34.09.57.57,0,0,1-.34-.1.29.29,0,0,1-.15-.27V67a1.17,1.17,0,0,1,.26-.85,1.23,1.23,0,0,1,.94-.28h2.81a.41.41,0,0,1,.34.15.57.57,0,0,1,.11.33.52.52,0,0,1-.12.33.43.43,0,0,1-.36.15Z"/></g></g></svg>