<svg xmlns="http://www.w3.org/2000/svg" viewBox="0 0 191 72.52"><defs><style>.cls-1{fill:#ffd820;}.cls-2{fill:#ffb49f;}.cls-3{fill:#ec7751;}</style></defs><g id="Layer_2" data-name="Layer 2"><g id="Layer_1-2" data-name="Layer 1"><path class="cls-1" d="M30.31,0c10.22.23,18.5,3.84,24,12.77A15.4,15.4,0,0,1,56.77,23.9a25.16,25.16,0,0,0-.63,5c.12,4.42-2.37,6.93-5.83,9a7.36,7.36,0,0,0-2.24,3.13c-1.15,2.42-1.91,5-3.22,7.35a7.69,7.69,0,0,1-3.47,3.26c-4.14,1.67-8.48,2.5-13,1.38a24,24,0,0,0-3.93-.7C15.83,51.7,10.29,46.53,6,39.61a64.43,64.43,0,0,1-4.88-8.82A13.27,13.27,0,0,1,.08,24.18C1.91,10.94,10.5,2.54,23.77.69,26,.39,28.18.22,30.31,0Z"/><path d="M10.51,71.88l.34-1.35H9.1L8.69,72a.57.57,0,0,1-.27.33.62.62,0,0,1-.37.06.48.48,0,0,1-.29-.15.32.32,0,0,1-.06-.33l.36-1.35H7.34a.41.41,0,0,1-.44-.44.48.48,0,0,1,.11-.3.4.4,0,0,1,.33-.15h1l.44-1.56h-1A.39.39,0,0,1,7.45,68a.48.48,0,0,1-.12-.31.53.53,0,0,1,.11-.3.38.38,0,0,1,.34-.14H8.93l.26-1.11a.53.53,0,0,1,.25-.37.75.75,0,0,1,.38-.1.6.6,0,0,1,.31.15.32.32,0,0,1,.09.32L9.94,67.2h1.75L12,66.07a.48.48,0,0,1,.22-.34.65.65,0,0,1,.38-.09.46.46,0,0,1,.31.13.36.36,0,0,1,.09.35l-.26,1.08h.82a.31.31,0,0,1,.28.14.51.51,0,0,1,.1.3.56.56,0,0,1-.13.31.42.42,0,0,1-.35.13h-1l-.39,1.56h1.06a.34.34,0,0,1,.3.15.46.46,0,0,1,.08.3.52.52,0,0,1-.14.3.4.4,0,0,1-.34.14h-1.2L11.5,72a.53.53,0,0,1-.26.32.72.72,0,0,1-.37.07.47.47,0,0,1-.3-.14A.3.3,0,0,1,10.51,71.88Zm.94-3.8H9.72l-.41,1.56h1.78Z"/><path d="M16.37,66.81v1.85h3a.48.48,0,0,1,.38.15.51.51,0,0,1,0,.66.48.48,0,0,1-.38.15h-3V72a.3.3,0,0,1-.16.28.63.63,0,0,1-.33.09.6.6,0,0,1-.35-.1.29.29,0,0,1-.15-.27V67a1.22,1.22,0,0,1,.26-.85,1.24,1.24,0,0,1,.94-.28h2.81a.39.39,0,0,1,.34.15.51.51,0,0,1,0,.66.43.43,0,0,1-.36.15Z"/><path d="M22.37,66.81v1.85h3a.48.48,0,0,1,.38.15.51.51,0,0,1,0,.66.48.48,0,0,1-.38.15h-3V72a.3.3,0,0,1-.16.28.63.63,0,0,1-.33.09.6.6,0,0,1-.35-.1.29.29,0,0,1-.15-.27V67a1.22,1.22,0,0,1,.26-.85,1.24,1.24,0,0,1,.94-.28h2.81a.39.39,0,0,1,.34.15.51.51,0,0,1,0,.66.43.43,0,0,1-.36.15Z"/><path d="M27.38,66.52a.65.65,0,0,1,.18-.5.69.69,0,0,1,.5-.17h1.75a3.4,3.4,0,0,1,1.35.24,2.55,2.55,0,0,1,.93.65,2.64,2.64,0,0,1,.53,1,4.1,4.1,0,0,1,.16,1.18,3.47,3.47,0,0,1-.79,2.5,2.82,2.82,0,0,1-2.13.83H28.1a.83.83,0,0,1-.49-.14.59.59,0,0,1-.23-.55Zm2.45,4.71a1.93,1.93,0,0,0,.92-.2,1.62,1.62,0,0,0,.58-.52,2.1,2.1,0,0,0,.31-.72,3.61,3.61,0,0,0,.09-.79,2.35,2.35,0,0,0-.49-1.56,1.68,1.68,0,0,0-1.36-.58H28.44v4.37Z"/><path d="M38.4,68.16l-.82,4a.42.42,0,0,1-.22.31.63.63,0,0,1-.38.06.61.61,0,0,1-.34-.17.4.4,0,0,1-.11-.39L37,70a2.09,2.09,0,0,1-.43.11,2.45,2.45,0,0,1-.48,0,2.37,2.37,0,0,1-1.71-.63,2.22,2.22,0,0,1-.67-1.72,2.42,2.42,0,0,1,.18-1,2.17,2.17,0,0,1,.51-.75,2.22,2.22,0,0,1,.75-.47,2.42,2.42,0,0,1,.94-.18,2.86,2.86,0,0,1,1,.17,1.89,1.89,0,0,1,.78.51,2,2,0,0,1,.48.85A3,3,0,0,1,38.4,68.16Zm-2.35,1a1.32,1.32,0,0,0,1-.36,1.32,1.32,0,0,0-1-2.26,1.27,1.27,0,0,0-.94.37,1.35,1.35,0,0,0,0,1.89A1.36,1.36,0,0,0,36.05,69.12Z"/><path d="M43.61,71.38a.73.73,0,0,1,.12.34.58.58,0,0,1-.11.34.37.37,0,0,1-.32.15H40.56a1.44,1.44,0,0,1-.46-.08.55.55,0,0,1-.31-.4s0-.12,0-.21v-.8c0-.16,0-.35,0-.55a1.19,1.19,0,0,1,.17-.72,1.08,1.08,0,0,1,.67-.29l.36,0,.36,0,.36,0L42.1,69a1,1,0,0,0,.8-.56A1.35,1.35,0,0,0,43,68a2.25,2.25,0,0,0,0-.45,1,1,0,0,0-.35-.69,1.33,1.33,0,0,0-.9-.25,1.13,1.13,0,0,0-.74.23.81.81,0,0,0-.32.42.58.58,0,0,1-.17.34.56.56,0,0,1-.4.14.57.57,0,0,1-.42-.14.43.43,0,0,1-.11-.36,1.72,1.72,0,0,1,.18-.6,1.76,1.76,0,0,1,.43-.52,2.15,2.15,0,0,1,.66-.38,2.64,2.64,0,0,1,.87-.16,2.73,2.73,0,0,1,1,.18,2.13,2.13,0,0,1,.71.46,2,2,0,0,1,.39.62,2.31,2.31,0,0,1,.16.64c0,.2,0,.43,0,.69a2.35,2.35,0,0,1-.19.77,1.73,1.73,0,0,1-.53.65,1.91,1.91,0,0,1-1,.36L42,70l-.24,0-.23,0-.3,0c-.16,0-.27.06-.31.13a.6.6,0,0,0-.07.33v.38c0,.15,0,.24.07.28s.15.06.34.06H43.3A.36.36,0,0,1,43.61,71.38Z"/><path d="M47.57,65.78a2.47,2.47,0,0,1,1.22.28,2.57,2.57,0,0,1,.83.74,3.15,3.15,0,0,1,.48,1A4.8,4.8,0,0,1,50.26,69a4.51,4.51,0,0,1-.17,1.23,3.2,3.2,0,0,1-.48,1,2.37,2.37,0,0,1-.84.73,2.8,2.8,0,0,1-2.4,0,2.34,2.34,0,0,1-.83-.73,3.24,3.24,0,0,1-.5-1A4.51,4.51,0,0,1,44.88,69,4.71,4.71,0,0,1,45,67.86a3.34,3.34,0,0,1,.47-1,2.61,2.61,0,0,1,.84-.74A2.49,2.49,0,0,1,47.57,65.78Zm0,1.1a1.52,1.52,0,0,0-.81.2,1.55,1.55,0,0,0-.51.51,2,2,0,0,0-.27.7,4.87,4.87,0,0,0-.07.75,3.48,3.48,0,0,0,.09.79,2.38,2.38,0,0,0,.28.69,1.65,1.65,0,0,0,.52.5,1.5,1.5,0,0,0,2-.5,1.94,1.94,0,0,0,.29-.69,3.48,3.48,0,0,0,.09-.79,3.27,3.27,0,0,0-.08-.76,2.28,2.28,0,0,0-.28-.7,1.62,1.62,0,0,0-.51-.5A1.46,1.46,0,0,0,47.57,66.88Z"/><path class="cls-2" d="M97.31,0c10.22.23,18.5,3.84,24,12.77a15.4,15.4,0,0,1,2.43,11.13,25.16,25.16,0,0,0-.63,5c.12,4.42-2.37,6.93-5.83,9a7.36,7.36,0,0,0-2.24,3.13c-1.15,2.42-1.91,5-3.22,7.35a7.69,7.69,0,0,1-3.47,3.26c-4.14,1.67-8.48,2.5-13,1.38a24,24,0,0,0-3.93-.7C82.83,51.7,77.29,46.53,73,39.61a64.43,64.43,0,0,1-4.88-8.82,13.27,13.27,0,0,1-1.06-6.61C68.91,10.94,77.5,2.54,90.77.69,93,.39,95.18.22,97.31,0Z"/><path d="M76.79,71.88l.34-1.35H75.38L75,72a.57.57,0,0,1-.27.33.62.62,0,0,1-.37.06.48.48,0,0,1-.29-.15.32.32,0,0,1-.06-.33l.36-1.35h-.72a.41.41,0,0,1-.44-.44.48.48,0,0,1,.11-.3.4.4,0,0,1,.33-.15h1L75,68.08h-1a.39.39,0,0,1-.33-.13.48.48,0,0,1-.12-.31.53.53,0,0,1,.11-.3.38.38,0,0,1,.34-.14h1.15l.26-1.11a.53.53,0,0,1,.25-.37.75.75,0,0,1,.38-.1.6.6,0,0,1,.31.15.32.32,0,0,1,.09.32l-.28,1.11H78l.29-1.13a.48.48,0,0,1,.22-.34.65.65,0,0,1,.38-.09.46.46,0,0,1,.31.13.36.36,0,0,1,.09.35L79,67.2h.82a.31.31,0,0,1,.28.14.51.51,0,0,1,.1.3.56.56,0,0,1-.13.31.42.42,0,0,1-.35.13h-1l-.39,1.56h1.06a.34.34,0,0,1,.3.15.46.46,0,0,1,.08.3.52.52,0,0,1-.14.3.4.4,0,0,1-.34.14h-1.2L77.78,72a.53.53,0,0,1-.26.32.72.72,0,0,1-.37.07.47.47,0,0,1-.3-.14A.3.3,0,0,1,76.79,71.88Zm.94-3.8H76l-.41,1.56h1.78Z"/><path d="M82.65,66.81v1.85h3a.48.48,0,0,1,.38.15.51.51,0,0,1,0,.66.48.48,0,0,1-.38.15h-3V72a.3.3,0,0,1-.16.28.63.63,0,0,1-.33.09.6.6,0,0,1-.35-.1.29.29,0,0,1-.15-.27V67a1.22,1.22,0,0,1,.26-.85,1.24,1.24,0,0,1,.94-.28h2.81A.39.39,0,0,1,86,66a.51.51,0,0,1,0,.66.43.43,0,0,1-.36.15Z"/><path d="M88.65,66.81v1.85h3a.48.48,0,0,1,.38.15.51.51,0,0,1,0,.66.48.48,0,0,1-.38.15h-3V72a.3.3,0,0,1-.16.28.63.63,0,0,1-.33.09.6.6,0,0,1-.35-.1.29.29,0,0,1-.15-.27V67a1.22,1.22,0,0,1,.26-.85,1.24,1.24,0,0,1,.94-.28h2.81A.39.39,0,0,1,92,66a.51.51,0,0,1,0,.66.43.43,0,0,1-.36.15Z"/><path d="M94.53,72.21a.87.87,0,0,1-.64-.21.8.8,0,0,1-.23-.56V66.69a.94.94,0,0,1,.14-.62.74.74,0,0,1,.63-.22h2a2.14,2.14,0,0,1,1.44.45,1.54,1.54,0,0,1,.56,1.11,1.63,1.63,0,0,1-.18,1,1.45,1.45,0,0,1-.62.52,1.27,1.27,0,0,1,1,.63,1.8,1.8,0,0,1,.25,1.13,1.86,1.86,0,0,1-.46,1.09,1.47,1.47,0,0,1-1.17.48Zm1.94-5.37h-1.7v1.58h1.77a.73.73,0,0,0,.6-.25.79.79,0,0,0-.67-1.33Zm.12,2.56H94.77v1.8h2.28a.67.67,0,0,0,.6-.27.91.91,0,0,0,.13-.63,1.13,1.13,0,0,0-.35-.61A1.17,1.17,0,0,0,96.59,69.4Z"/><path d="M101.1,66.64v1.2c0,.15,0,.24.07.27s.13,0,.27,0a2.94,2.94,0,0,1,.5-.07,2.21,2.21,0,0,1,.63,0,2,2,0,0,1,1,.34,1.91,1.91,0,0,1,.54.64,2.27,2.27,0,0,1,.23.74,3.93,3.93,0,0,1,0,.68,2.35,2.35,0,0,1-.18.69,2.18,2.18,0,0,1-.44.66,2.32,2.32,0,0,1-.73.48,2.58,2.58,0,0,1-1,.16,2.38,2.38,0,0,1-1.48-.49,1.52,1.52,0,0,1-.58-1.07.5.5,0,0,1,.08-.37.61.61,0,0,1,.4-.19.57.57,0,0,1,.41.08.48.48,0,0,1,.19.31.85.85,0,0,0,.28.44,1,1,0,0,0,.7.25,1.39,1.39,0,0,0,1-.25,1.14,1.14,0,0,0,.44-.83,1.18,1.18,0,0,0-.24-.87,1.21,1.21,0,0,0-.87-.42,1.85,1.85,0,0,0-.54,0l-.41.11a2.56,2.56,0,0,1-.34.1.87.87,0,0,1-.36,0,.45.45,0,0,1-.4-.32,2.88,2.88,0,0,1-.08-.81c0-.19,0-.39,0-.6s0-.42,0-.61,0-.35,0-.49a1,1,0,0,1,0-.29.55.55,0,0,1,.31-.39,1.18,1.18,0,0,1,.46-.09h2.59a.37.37,0,0,1,.32.15.55.55,0,0,1,.11.34.66.66,0,0,1-.12.34.35.35,0,0,1-.31.15Z"/><path d="M108.74,65.68a3,3,0,0,1,1.28.25,2,2,0,0,1,.79.64,2.42,2.42,0,0,1,.4.88,4.09,4.09,0,0,1,.12,1V72a.36.36,0,0,1-.17.31.66.66,0,0,1-.36.11.76.76,0,0,1-.37-.1.38.38,0,0,1-.16-.32v-1.8h-3.09V71.9a.34.34,0,0,1-.17.31.75.75,0,0,1-.36.1.66.66,0,0,1-.37-.1.33.33,0,0,1-.16-.31V68.23a4.68,4.68,0,0,1,.07-.78,2.06,2.06,0,0,1,.34-.83,2.2,2.2,0,0,1,.79-.67A3.09,3.09,0,0,1,108.74,65.68Zm1.53,3.39V68a1,1,0,0,0-.14-.54,1.35,1.35,0,0,0-.35-.4,1.62,1.62,0,0,0-.49-.25,1.83,1.83,0,0,0-.57-.08,1.54,1.54,0,0,0-.57.07,1.32,1.32,0,0,0-.49.24,1.19,1.19,0,0,0-.35.42,1.22,1.22,0,0,0-.13.59v1Z"/><path d="M115.29,65.78a2.47,2.47,0,0,1,1.22.28,2.57,2.57,0,0,1,.83.74,3.15,3.15,0,0,1,.48,1A4.8,4.8,0,0,1,118,69a4.51,4.51,0,0,1-.17,1.23,3.2,3.2,0,0,1-.48,1,2.37,2.37,0,0,1-.84.73,2.8,2.8,0,0,1-2.4,0,2.34,2.34,0,0,1-.83-.73,3.24,3.24,0,0,1-.5-1A4.51,4.51,0,0,1,112.6,69a4.71,4.71,0,0,1,.15-1.18,3.34,3.34,0,0,1,.47-1,2.61,2.61,0,0,1,.84-.74A2.49,2.49,0,0,1,115.29,65.78Zm0,1.1a1.52,1.52,0,0,0-.81.2,1.55,1.55,0,0,0-.51.51,2,2,0,0,0-.27.7,4.87,4.87,0,0,0-.07.75,3.48,3.48,0,0,0,.09.79,2.38,2.38,0,0,0,.28.69,1.65,1.65,0,0,0,.52.5,1.5,1.5,0,0,0,2-.5,1.94,1.94,0,0,0,.29-.69,3.48,3.48,0,0,0,.09-.79,3.27,3.27,0,0,0-.08-.76,2.28,2.28,0,0,0-.28-.7,1.62,1.62,0,0,0-.51-.5A1.46,1.46,0,0,0,115.29,66.88Z"/><path class="cls-3" d="M164.31,0c10.22.23,18.5,3.84,24,12.77a15.4,15.4,0,0,1,2.43,11.13,25.16,25.16,0,0,0-.63,5c.12,4.42-2.37,6.93-5.83,9a7.36,7.36,0,0,0-2.24,3.13c-1.15,2.42-1.91,5-3.22,7.35a7.69,7.69,0,0,1-3.47,3.26c-4.14,1.67-8.48,2.5-13,1.38a24,24,0,0,0-3.93-.7c-8.64-.66-14.18-5.83-18.45-12.75a64.43,64.43,0,0,1-4.88-8.82,13.27,13.27,0,0,1-1.06-6.61C135.91,10.94,144.5,2.54,157.77.69,160,.39,162.18.22,164.31,0Z"/><path d="M144.61,71.88l.33-1.35h-1.75L142.78,72a.51.51,0,0,1-.27.33.58.58,0,0,1-.36.06.54.54,0,0,1-.3-.15.34.34,0,0,1,0-.33l.36-1.35h-.72a.4.4,0,0,1-.35-.14.41.41,0,0,1-.09-.3.43.43,0,0,1,.11-.3.4.4,0,0,1,.33-.15h1l.43-1.56h-1a.42.42,0,0,1-.33-.13.53.53,0,0,1-.11-.31.47.47,0,0,1,.11-.3.37.37,0,0,1,.33-.14H143l.27-1.11a.55.55,0,0,1,.24-.37.77.77,0,0,1,.38-.1.57.57,0,0,1,.31.15.34.34,0,0,1,.1.32L144,67.2h1.75l.29-1.13a.49.49,0,0,1,.23-.34.62.62,0,0,1,.37-.09.44.44,0,0,1,.31.13.38.38,0,0,1,.1.35l-.26,1.08h.81a.3.3,0,0,1,.28.14.53.53,0,0,1,.11.3.56.56,0,0,1-.13.31.43.43,0,0,1-.35.13h-1l-.38,1.56h1.05a.32.32,0,0,1,.3.15.41.41,0,0,1,.09.3.61.61,0,0,1-.15.3.39.39,0,0,1-.33.14h-1.2L145.59,72a.5.5,0,0,1-.26.32.66.66,0,0,1-.36.07.52.52,0,0,1-.31-.14A.31.31,0,0,1,144.61,71.88Zm.93-3.8h-1.72l-.41,1.56h1.77Z"/><path d="M150.46,71.25h3a.45.45,0,0,1,.37.15.52.52,0,0,1,.12.33.61.61,0,0,1-.14.33.43.43,0,0,1-.35.15h-2.81a1.2,1.2,0,0,1-.81-.26.91.91,0,0,1-.32-.75V67a1,1,0,0,1,1.2-1.13h2.81a.41.41,0,0,1,.34.15.51.51,0,0,1,.11.33.52.52,0,0,1-.12.33.43.43,0,0,1-.36.15h-3v1.85h3a.46.46,0,0,1,.38.15.48.48,0,0,1,0,.66.46.46,0,0,1-.38.15h-3Z"/><path d="M155.53,66.52a.69.69,0,0,1,.17-.5.7.7,0,0,1,.5-.17H158a3.48,3.48,0,0,1,1.36.24,2.59,2.59,0,0,1,.92.65,2.5,2.5,0,0,1,.53,1,4.1,4.1,0,0,1,.17,1.18,3.47,3.47,0,0,1-.8,2.5,2.79,2.79,0,0,1-2.13.83h-1.75a.86.86,0,0,1-.5-.14.59.59,0,0,1-.22-.55ZM158,71.23a1.91,1.91,0,0,0,.91-.2,1.66,1.66,0,0,0,.59-.52,2.29,2.29,0,0,0,.3-.72,3.61,3.61,0,0,0,.09-.79,2.3,2.3,0,0,0-.49-1.56,1.68,1.68,0,0,0-1.36-.58h-1.44v4.37Z"/><path d="M162.27,66.88a.4.4,0,0,1-.35-.15.6.6,0,0,1-.12-.36.66.66,0,0,1,.11-.36.35.35,0,0,1,.31-.16h3.51a.8.8,0,0,1,.41.09.41.41,0,0,1,.19.2.6.6,0,0,1,0,.3,2.16,2.16,0,0,1,0,.35l-1.22,5.13a.47.47,0,0,1-.22.39.62.62,0,0,1-.41.07.46.46,0,0,1-.34-.17.58.58,0,0,1-.06-.43l1.2-4.9Z"/><path d="M168,66.88a.4.4,0,0,1-.35-.15.6.6,0,0,1-.12-.36.66.66,0,0,1,.11-.36.35.35,0,0,1,.31-.16h3.51a.8.8,0,0,1,.41.09.41.41,0,0,1,.19.2.6.6,0,0,1,0,.3,2.16,2.16,0,0,1,0,.35l-1.22,5.13a.47.47,0,0,1-.22.39.62.62,0,0,1-.41.07.46.46,0,0,1-.34-.17.58.58,0,0,1-.06-.43l1.2-4.9Z"/><path d="M174.7,66.64v1.2c0,.15,0,.24.07.27s.13,0,.27,0a2.94,2.94,0,0,1,.5-.07,2.21,2.21,0,0,1,.63,0,2,2,0,0,1,1,.34,1.91,1.91,0,0,1,.54.64,2.27,2.27,0,0,1,.23.74,3.93,3.93,0,0,1,0,.68,2.35,2.35,0,0,1-.18.69,2.18,2.18,0,0,1-.44.66,2.32,2.32,0,0,1-.73.48,2.58,2.58,0,0,1-1.05.16,2.38,2.38,0,0,1-1.48-.49,1.52,1.52,0,0,1-.58-1.07.5.5,0,0,1,.08-.37.61.61,0,0,1,.4-.19.57.57,0,0,1,.41.08.48.48,0,0,1,.19.31.85.85,0,0,0,.28.44,1,1,0,0,0,.7.25,1.39,1.39,0,0,0,1-.25,1.14,1.14,0,0,0,.44-.83,1.18,1.18,0,0,0-.24-.87,1.21,1.21,0,0,0-.87-.42,1.85,1.85,0,0,0-.54,0l-.41.11a2.56,2.56,0,0,1-.34.1.87.87,0,0,1-.36,0,.45.45,0,0,1-.4-.32,2.88,2.88,0,0,1-.08-.81c0-.19,0-.39,0-.6s0-.42,0-.61,0-.35,0-.49a1,1,0,0,1,0-.29.55.55,0,0,1,.31-.39,1.18,1.18,0,0,1,.46-.09h2.59a.37.37,0,0,1,.32.15.55.55,0,0,1,.11.34.66.66,0,0,1-.12.34.35.35,0,0,1-.31.15Z"/><path d="M182.33,72.13a.57.57,0,0,1-.4.13.65.65,0,0,1-.4-.12.41.41,0,0,1-.15-.34V67l-.58.48a.59.59,0,0,1-.44.16.39.39,0,0,1-.35-.2.49.49,0,0,1-.1-.44.85.85,0,0,1,.27-.36l1.1-.86a.75.75,0,0,1,.41-.2.74.74,0,0,1,.41.06.59.59,0,0,1,.27.27,1.3,1.3,0,0,1,.11.37v5.5A.45.45,0,0,1,182.33,72.13Z"/></g></g></svg>