<svg xmlns="http://www.w3.org/2000/svg" viewBox="0 0 159.11 167.44"><g id="Layer_2" data-name="Layer 2"><g id="Layer_1-2" data-name="Layer 1"><path d="M0,75.74a1.56,1.56,0,0,1,.23-.89.65.65,0,0,1,.55-.29.65.65,0,0,1,.53.29,1.49,1.49,0,0,1,.25.89v1.82A6.52,6.52,0,0,1,3.39,75a4.13,4.13,0,0,1,2.54-.82q2.87,0,4.47,3.27a16,16,0,0,1,1.46,7.27A16.22,16.22,0,0,1,10.4,92Q8.8,95.35,5.93,95.34a4.3,4.3,0,0,1-2.79-1,5.18,5.18,0,0,1-1.58-2.15v6.61a1.75,1.75,0,0,1-.25,1,.55.55,0,0,1-.53.3.65.65,0,0,1-.55-.33,2.16,2.16,0,0,1-.23-1Zm2.59,3.12a14.65,14.65,0,0,0-1,5.9,14.51,14.51,0,0,0,1,5.86c.79,1.76,1.9,2.64,3.34,2.64s2.5-.88,3.29-2.64a14.15,14.15,0,0,0,1.06-5.86,14.28,14.28,0,0,0-1.06-5.9c-.79-1.76-1.88-2.63-3.29-2.63S3.38,77.1,2.59,78.86Z"/><path d="M24.26,77.52a15.69,15.69,0,0,1,1.51,7.31,15.62,15.62,0,0,1-1.51,7.28q-1.68,3.3-4.65,3.3t-4.67-3.3a15.88,15.88,0,0,1-1.48-7.28,16,16,0,0,1,1.48-7.31q1.68-3.26,4.67-3.26T24.26,77.52Zm-8.14,1.41A14.11,14.11,0,0,0,15,84.83a14,14,0,0,0,1.08,5.87q1.26,2.63,3.49,2.63t3.45-2.63a13.68,13.68,0,0,0,1.13-5.87,13.61,13.61,0,0,0-1.13-5.9q-1.23-2.62-3.45-2.63T16.12,78.93Z"/><path d="M28.07,75.74a1.56,1.56,0,0,1,.23-.89.65.65,0,0,1,.55-.29.65.65,0,0,1,.53.29,1.42,1.42,0,0,1,.25.89v1.82A6.52,6.52,0,0,1,31.46,75,4.13,4.13,0,0,1,34,74.18q2.86,0,4.48,3.27a16.12,16.12,0,0,1,1.45,7.27A16.36,16.36,0,0,1,38.48,92Q36.86,95.35,34,95.34a4.3,4.3,0,0,1-2.79-1,5.18,5.18,0,0,1-1.58-2.15v6.61a1.67,1.67,0,0,1-.25,1,.55.55,0,0,1-.53.3.65.65,0,0,1-.55-.33,2.16,2.16,0,0,1-.23-1Zm2.59,3.12a14.65,14.65,0,0,0-1,5.9,14.51,14.51,0,0,0,1,5.86c.79,1.76,1.9,2.64,3.34,2.64s2.51-.88,3.29-2.64a14.15,14.15,0,0,0,1.06-5.86,14.28,14.28,0,0,0-1.06-5.9c-.78-1.76-1.88-2.63-3.29-2.63S31.45,77.1,30.66,78.86Z"/><path d="M54.29,81c0,.7-.2,1-.62,1H42.21c-.4,0-.61-.34-.61-1s.19-1,.61-1H53.67C54.09,80,54.29,80.34,54.29,81Z"/><path d="M66.67,94.71a.67.67,0,0,1-1.1,0,1.53,1.53,0,0,1-.23-.86V92.22a7.31,7.31,0,0,1-1.83,2.15,4.18,4.18,0,0,1-2.64,1,3.6,3.6,0,0,1-3.17-1.86,7.37,7.37,0,0,1-1.05-4V75.3a1.76,1.76,0,0,1,.22-1,.67.67,0,0,1,.56-.33.63.63,0,0,1,.52.33,1.6,1.6,0,0,1,.25,1V89.47a4.79,4.79,0,0,0,.68,2.6,2.25,2.25,0,0,0,2,1.19,3.57,3.57,0,0,0,2.44-1.08,9.16,9.16,0,0,0,2-2.82V75.3a1.76,1.76,0,0,1,.23-1,.62.62,0,0,1,1.1,0,1.6,1.6,0,0,1,.25,1V93.85A1.39,1.39,0,0,1,66.67,94.71Z"/><path d="M69.78,75.74a1.56,1.56,0,0,1,.22-.89.67.67,0,0,1,.56-.29.63.63,0,0,1,.52.29,1.43,1.43,0,0,1,.26.89v1.82A6.52,6.52,0,0,1,73.17,75a4.13,4.13,0,0,1,2.54-.82q2.87,0,4.47,3.27a16.11,16.11,0,0,1,1.46,7.27A16.35,16.35,0,0,1,80.18,92q-1.61,3.31-4.47,3.31a4.3,4.3,0,0,1-2.79-1,5.1,5.1,0,0,1-1.58-2.15v6.61a1.67,1.67,0,0,1-.26,1,.54.54,0,0,1-.52.3.67.67,0,0,1-.56-.33,2.16,2.16,0,0,1-.22-1Zm2.59,3.12a14.65,14.65,0,0,0-1,5.9,14.51,14.51,0,0,0,1,5.86c.78,1.76,1.9,2.64,3.34,2.64s2.5-.88,3.29-2.64a14.31,14.31,0,0,0,1.06-5.86A14.45,14.45,0,0,0,79,78.86c-.79-1.76-1.88-2.63-3.29-2.63S73.15,77.1,72.37,78.86Z"/><path d="M102.1,93.81a1.63,1.63,0,0,1-.28.93.61.61,0,0,1-.53.26.76.76,0,0,1-.53-.33,1.5,1.5,0,0,1-.22-.86V92.22a5.86,5.86,0,0,1-1.61,2.19,4.21,4.21,0,0,1-2.74,1q-2.89,0-4.5-3.3a16.45,16.45,0,0,1-1.43-7.28,16.53,16.53,0,0,1,1.43-7.31q1.61-3.26,4.5-3.26a4,4,0,0,1,2.49.81,6.43,6.43,0,0,1,1.86,2.57V68a1.56,1.56,0,0,1,.22-.89.7.7,0,0,1,.56-.26.65.65,0,0,1,.52.29,1.53,1.53,0,0,1,.26.93ZM92.87,78.93a14.82,14.82,0,0,0-1,5.9,14.74,14.74,0,0,0,1,5.87c.79,1.75,1.9,2.63,3.32,2.63s2.5-.88,3.29-2.63a14.2,14.2,0,0,0,1.06-5.87,14.28,14.28,0,0,0-1.06-5.9c-.79-1.75-1.88-2.63-3.29-2.63S93.66,77.18,92.87,78.93Z"/><path d="M114.3,88.29a.65.65,0,0,1,.63,0,.86.86,0,0,1,.42.56,1.84,1.84,0,0,1,0,1,8.85,8.85,0,0,1-2.11,4,4.5,4.5,0,0,1-3.32,1.45q-2.69,0-4.27-3.27a16.7,16.7,0,0,1-1.43-7.27,17,17,0,0,1,1.43-7.35q1.59-3.27,4.27-3.27t4.3,3.27a16.75,16.75,0,0,1,1.46,7.35v.59H105.8a14,14,0,0,0,1.08,5.31c.76,1.7,1.77,2.56,3,2.56a3.06,3.06,0,0,0,2.52-1.3,8.81,8.81,0,0,0,1.38-2.9A1.26,1.26,0,0,1,114.3,88.29Zm-.28-5a12.71,12.71,0,0,0-1.08-4.64c-.77-1.63-1.78-2.44-3-2.44s-2.23.8-3,2.41a12.49,12.49,0,0,0-1.08,4.67Z"/><path d="M126,75.78a6.31,6.31,0,0,1,1.23,3.64,1.47,1.47,0,0,1-.23.89.93.93,0,0,1-.58.37.67.67,0,0,1-.57-.22,1.24,1.24,0,0,1-.31-.82,3.81,3.81,0,0,0-.9-2.49,3.28,3.28,0,0,0-2.54-.92A3,3,0,0,0,120,77a2.93,2.93,0,0,0-.86,2.16,3.62,3.62,0,0,0,.75,2.41,7.45,7.45,0,0,0,3,1.74,7.23,7.23,0,0,1,3.72,2.42,6.44,6.44,0,0,1,1,3.89,6.17,6.17,0,0,1-1.23,4,4.56,4.56,0,0,1-3.82,1.71,4.79,4.79,0,0,1-3.82-1.53,6.75,6.75,0,0,1-1.41-4.41,1.23,1.23,0,0,1,.23-.85.69.69,0,0,1,1.08-.08,1.11,1.11,0,0,1,.27.78,4.51,4.51,0,0,0,.83,2.93,3.47,3.47,0,0,0,2.84,1.08,3.22,3.22,0,0,0,2.57-1.08,3.74,3.74,0,0,0,.88-2.6,3.48,3.48,0,0,0-.76-2.37,8,8,0,0,0-3.36-2,7.21,7.21,0,0,1-3.25-2.15,5.71,5.71,0,0,1-1.1-3.67,5.44,5.44,0,0,1,1.33-3.9,4.31,4.31,0,0,1,3.29-1.34A4.72,4.72,0,0,1,126,75.78Z"/><path d="M131.86,67.36a2.62,2.62,0,0,1,.33,1.37,2.51,2.51,0,0,1-.33,1.3,1,1,0,0,1-.92.59A1,1,0,0,1,130,70a2.48,2.48,0,0,1-.31-1.3,2.72,2.72,0,0,1,.31-1.37,1,1,0,0,1,.93-.6A1,1,0,0,1,131.86,67.36Zm-1.48,7.08a.7.7,0,0,1,.56-.29.69.69,0,0,1,.55.26,1.19,1.19,0,0,1,.25.81V94.11a1.42,1.42,0,0,1-.25.89.65.65,0,0,1-.55.34.68.68,0,0,1-.56-.3,1.78,1.78,0,0,1-.22-.93V75.22A1.19,1.19,0,0,1,130.38,74.44Z"/><path d="M134.79,74.78a.68.68,0,0,1,.56-.3.64.64,0,0,1,.52.3,1.43,1.43,0,0,1,.26.89V78A6.85,6.85,0,0,1,138,75.19a4.1,4.1,0,0,1,2.76-1A3.71,3.71,0,0,1,144,76a7,7,0,0,1,1.11,4V94.11a1.69,1.69,0,0,1-.25.93.67.67,0,0,1-.53.3.66.66,0,0,1-.55-.3,1.69,1.69,0,0,1-.23-.93V80.05a4.69,4.69,0,0,0-.7-2.64,2.39,2.39,0,0,0-2.09-1.18,3.54,3.54,0,0,0-2.56,1.11,9.39,9.39,0,0,0-2.06,3.52V94.07a1.68,1.68,0,0,1-.26,1,.74.74,0,0,1-.52.33.67.67,0,0,1-.56-.33,1.64,1.64,0,0,1-.22-.93V75.67A1.56,1.56,0,0,1,134.79,74.78Z"/><path d="M157.75,74.78a.72.72,0,0,1,1.11,0,1.26,1.26,0,0,1,.25.81V93.67A6.55,6.55,0,0,1,157.65,98a5.51,5.51,0,0,1-4.5,2,5.84,5.84,0,0,1-3.37-.93,5.41,5.41,0,0,1-2.08-2.78,1.38,1.38,0,0,1-.08-.93,1,1,0,0,1,.38-.63.51.51,0,0,1,.55-.15.78.78,0,0,1,.48.52,4,4,0,0,0,1.41,2.08,4.41,4.41,0,0,0,2.74.78,4.12,4.12,0,0,0,3.29-1.33,4.29,4.29,0,0,0,1.05-2.94V91.51a5.42,5.42,0,0,1-1.58,2.19,4.26,4.26,0,0,1-2.76,1c-1.93,0-3.43-1.06-4.5-3.16a15.37,15.37,0,0,1-1.43-7.09,15.71,15.71,0,0,1,1.43-7q1.63-3.22,4.5-3.23a4.08,4.08,0,0,1,2.51.82,7,7,0,0,1,1.83,2.56v-2A1.32,1.32,0,0,1,157.75,74.78Zm-7.92,4a16.07,16.07,0,0,0,0,11.32c.78,1.66,1.88,2.49,3.32,2.49s2.53-.83,3.32-2.49a13.42,13.42,0,0,0,1.05-5.71,13.5,13.5,0,0,0-1.05-5.61c-.8-1.73-1.91-2.59-3.32-2.59S150.64,77.09,149.83,78.82Z"/><path d="M74.28,116.84a31.76,31.76,0,0,1-1,8.07,23.2,23.2,0,0,1-2.82,6.72,15,15,0,0,1-4.17,4.4,9.07,9.07,0,0,1-5.18,1.59H49.47A9.1,9.1,0,0,1,44.28,136a14.82,14.82,0,0,1-4.16-4.4,23.2,23.2,0,0,1-2.82-6.72,31.32,31.32,0,0,1-1-8.07v-7.27H18.21V122a66.27,66.27,0,0,0,2.28,17.6A52.11,52.11,0,0,0,26.69,154,34,34,0,0,0,36,163.78a19.67,19.67,0,0,0,11.31,3.66h16a19.67,19.67,0,0,0,11.31-3.66A34.89,34.89,0,0,0,83.94,154a50.47,50.47,0,0,0,6.29-14.42A66.68,66.68,0,0,0,92.5,122V109.57H74.28Z"/><path d="M36.27,50.6a30,30,0,0,1,1-7.94,25.46,25.46,0,0,1,2.82-6.73,14.51,14.51,0,0,1,4.16-4.52,9.1,9.1,0,0,1,5.19-1.59H61.09a9.07,9.07,0,0,1,5.18,1.59,14.65,14.65,0,0,1,4.17,4.52,25.46,25.46,0,0,1,2.82,6.73,30.37,30.37,0,0,1,1,7.94v8.88H92.5V45.71a67.63,67.63,0,0,0-2.27-17.84,50.66,50.66,0,0,0-6.29-14.43A34.71,34.71,0,0,0,74.6,3.67,19.61,19.61,0,0,0,63.29,0h-16A19.61,19.61,0,0,0,36,3.67a33.83,33.83,0,0,0-9.27,9.77,52.31,52.31,0,0,0-6.2,14.43,67.21,67.21,0,0,0-2.28,17.84V59.48H36.27Z"/><polygon points="139.62 0.98 118.57 0.98 106.17 31.29 121.4 31.29 121.4 59.48 139.62 59.48 139.62 0.98"/><rect x="121.4" y="109.57" width="18.22" height="57.88"/></g></g></svg>