<svg xmlns="http://www.w3.org/2000/svg" viewBox="0 0 1953.71 735.58"><defs><style>.cls-1{fill:#654ec5;}</style></defs><g id="Layer_2" data-name="Layer 2"><g id="Layer_1-2" data-name="Layer 1"><path class="cls-1" d="M0,0C1.22,229.23,2.63,494.37,2.63,494.73c0,13.66,17.79,36.26,24.07,45.86,26.41,40.38,60.76,72.88,97.25,99C252.48,731.42,418.21,764,561.21,708.12c45.88-17.91,90.45-43.92,137.8-55.89,53.73-13.58,108.91-1.43,161.22,15,122.07,38.47,253.93,76.37,380.87,65.41C1346.2,723.61,1459,671.67,1510,554c26.29-60.72,30.81-132.25,66.37-188.68,33-52.28,87.12-88,140.27-117.11,77.7-42.6,163-78.83,206.19-160.47A319.32,319.32,0,0,0,1953.71,0Z"/></g></g></svg>