<svg xmlns="http://www.w3.org/2000/svg" xmlns:xlink="http://www.w3.org/1999/xlink" viewBox="0 0 1176.64 476.27"><defs><style>.cls-1{fill:none;}.cls-2{clip-path:url(#clip-path);}.cls-3,.cls-4{opacity:0.1;}.cls-3{fill:url(#linear-gradient);}.cls-4{fill:url(#linear-gradient-2);}.cls-5{fill:#3b04e5;opacity:0.7;}.cls-6{fill:url(#linear-gradient-3);}.cls-7{fill:url(#linear-gradient-4);}.cls-8{fill:url(#linear-gradient-5);}.cls-9{fill:url(#linear-gradient-6);}.cls-10{fill:url(#linear-gradient-7);}.cls-11{fill:url(#linear-gradient-8);}.cls-12{fill:url(#linear-gradient-9);}.cls-13{fill:url(#linear-gradient-10);}.cls-14{fill:url(#linear-gradient-11);}.cls-15{fill:url(#linear-gradient-12);}.cls-16{fill:#23067c;}.cls-17{fill:#4109c9;}.cls-18{opacity:0.2;}.cls-19{fill:#fff;}</style><clipPath id="clip-path" transform="translate(-915.07 -551.67)"><rect class="cls-1" width="1920.76" height="1000"/></clipPath><linearGradient id="linear-gradient" x1="1128.87" y1="1053.07" x2="1119.47" y2="862.12" gradientUnits="userSpaceOnUse"><stop offset="0.26" stop-color="#fff"/><stop offset="0.33" stop-color="#faf9fe"/><stop offset="0.43" stop-color="#ece7fa"/><stop offset="0.54" stop-color="#d6c9f3"/><stop offset="0.66" stop-color="#b6a1ea"/><stop offset="0.79" stop-color="#8d6cdf"/><stop offset="0.93" stop-color="#5d2dd1"/><stop offset="1" stop-color="#4109c9"/></linearGradient><linearGradient id="linear-gradient-2" x1="1784" y1="803.91" x2="1774.61" y2="612.96" xlink:href="#linear-gradient"/><linearGradient id="linear-gradient-3" x1="1256.13" y1="943.59" x2="1347.5" y2="943.59" gradientUnits="userSpaceOnUse"><stop offset="0.16" stop-color="#3b04e5" stop-opacity="0.6"/><stop offset="0.98" stop-color="#4161c9"/></linearGradient><linearGradient id="linear-gradient-4" x1="3896.89" y1="-898.15" x2="3988.26" y2="-898.15" gradientTransform="matrix(1.1, -0.6, 0.59, 1.07, -2555.19, 4271.91)" xlink:href="#linear-gradient-3"/><linearGradient id="linear-gradient-5" x1="11948.82" y1="14.06" x2="11956.6" y2="414.64" gradientTransform="matrix(-1.07, 0.52, 0.71, 1.46, 14603.95, -5655.88)" gradientUnits="userSpaceOnUse"><stop offset="0.16" stop-color="#3b04e5" stop-opacity="0.6"/><stop offset="0.98" stop-color="#4109c9"/></linearGradient><linearGradient id="linear-gradient-6" x1="11945.58" y1="67.57" x2="11951.96" y2="396.42" gradientTransform="matrix(-1.07, 0.52, 0.71, 1.46, 14603.95, -5655.88)" gradientUnits="userSpaceOnUse"><stop offset="0.16" stop-color="#4c12f1"/><stop offset="0.98" stop-color="#130042"/></linearGradient><linearGradient id="linear-gradient-7" x1="1815.04" y1="709.59" x2="1822.82" y2="1110.17" gradientTransform="matrix(1, 0, 0, 1, 0, 0)" xlink:href="#linear-gradient-5"/><linearGradient id="linear-gradient-8" x1="1811.79" y1="763.11" x2="1818.18" y2="1091.96" gradientTransform="matrix(1, 0, 0, 1, 0, 0)" xlink:href="#linear-gradient-6"/><linearGradient id="linear-gradient-9" x1="13859.2" y1="789.91" x2="13938.61" y2="801.26" gradientTransform="matrix(-1, 0, 0, 1, 15512.08, 0)" gradientUnits="userSpaceOnUse"><stop offset="0.41" stop-color="#fbb5bd"/><stop offset="0.52" stop-color="#f8b3ba"/><stop offset="0.62" stop-color="#eeadb1"/><stop offset="0.7" stop-color="#dda2a2"/><stop offset="0.75" stop-color="#ce9995"/></linearGradient><linearGradient id="linear-gradient-10" x1="1454.89" y1="789.91" x2="1534.3" y2="801.26" gradientTransform="matrix(1, 0, 0, 1, 0, 0)" xlink:href="#linear-gradient-9"/><linearGradient id="linear-gradient-11" x1="1549.89" y1="653.15" x2="1557.38" y2="1038.95" gradientUnits="userSpaceOnUse"><stop offset="0.16" stop-color="#33ffe4"/><stop offset="0.44" stop-color="#1dc8b3"/><stop offset="0.68" stop-color="#0da190"/><stop offset="0.86" stop-color="#04887a"/><stop offset="0.98" stop-color="#007f72"/></linearGradient><linearGradient id="linear-gradient-12" x1="1550.89" y1="653.48" x2="1558.37" y2="1038.78" gradientUnits="userSpaceOnUse"><stop offset="0.16" stop-color="#33ffe4"/><stop offset="0.22" stop-color="#2ef2d8"/><stop offset="0.47" stop-color="#1ac1ac"/><stop offset="0.69" stop-color="#0c9d8d"/><stop offset="0.86" stop-color="#038779"/><stop offset="0.98" stop-color="#007f72"/></linearGradient></defs><g id="Layer_2" data-name="Layer 2"><g id="Layer_1-2" data-name="Layer 1"><g class="cls-2"><path class="cls-3" d="M1252.92,856.72a98.87,98.87,0,0,0-40.13,8.21,79,79,0,0,0-147.57-21.86,79.51,79.51,0,0,0-38.83-1.78c-33,6.42-56.36,30.55-54.41,55.09a49.75,49.75,0,0,0-13.63-1.88c-23.91,0-43.28,16.58-43.28,37s19.37,37.05,43.28,37.05A48,48,0,0,0,984,961.36c12.75,8.69,30.93,14.12,51.12,14.12,28.06,0,52.19-10.51,63.29-25.64a79,79,0,0,0,87.73-9.57c13.23,16.86,38.16,28.23,66.77,28.23,42.44,0,76.85-25,76.85-55.89S1295.36,856.72,1252.92,856.72Z" transform="translate(-915.07 -551.67)"/><path class="cls-4" d="M1908.05,607.56a98.86,98.86,0,0,0-40.12,8.21,79,79,0,0,0-147.57-21.86,79.51,79.51,0,0,0-38.83-1.78c-33,6.42-56.36,30.55-54.41,55.09a49.82,49.82,0,0,0-13.64-1.88c-23.9,0-43.27,16.58-43.27,37s19.37,37,43.27,37a48,48,0,0,0,25.67-7.23c12.75,8.69,30.93,14.12,51.12,14.12,28.06,0,52.19-10.51,63.28-25.64a79,79,0,0,0,87.73-9.57c13.24,16.86,38.17,28.23,66.77,28.23,42.45,0,76.85-25,76.85-55.89S1950.5,607.56,1908.05,607.56Z" transform="translate(-915.07 -551.67)"/><path class="cls-5" d="M1077,1002.06l451.72-111.3s113-13.84,165.65-20,226.43-42,226.43-42v173.36Z" transform="translate(-915.07 -551.67)"/><path class="cls-6" d="M1278.79,999l4.69-20.61S1243.83,968,1260,943c0,0,12.52-12.27,26.6,28l9.4-24.74s-19.83-18.44-9.4-29.91,6.79,17.21,12.53,22.95l12-25.64s-11-26,0-25.49,4.17,24,4.17,24,26.09-14.61,31.3-3.13-13.56,22.44-33.39,10.44c0,0-10.3,14.44-11.41,26.78,0,0,8.86,5.64,19.76-8,0,0,18.78-1,16.7,12s-13.57,12-20.87,12-17.74-8.87-17.74-8.87l-12,45.65Z" transform="translate(-915.07 -551.67)"/><path class="cls-7" d="M1263.88,1009.59,1257,984.75S1207.26,997.5,1210.4,961c0,0,6.6-20.64,45.68,13.92l-4.14-32.08s-32.6-7.75-27.84-26.29,17.54,14.3,27.21,17l-1.8-34.62s-27.27-21.18-14.92-27.23,18.64,23.12,18.64,23.12,20.15-31.32,32.61-22.21-1.8,32.14-30.63,31.27c0,0-2.89,21.63,3.12,35.49,0,0,13.05.68,17.05-20.46,0,0,20-12.43,25.39,2.76s-7.9,21-15.94,25.39-24.7,1.22-24.7,1.22l13.51,56Z" transform="translate(-915.07 -551.67)"/><path class="cls-8" d="M1862,955.26s-28-92.83-14-96.29,31.86,20.63,31.86,20.63l-31-34.11s-5.24-62.9,18.92-71.27l13.4,14.81s-15.52-57.95,12.07-71.24l31.91,17.34-28.49-28.8s31.37-8.57,46.11-51.65,21.71-54.63,35.92-53.29,70.19,167.38,81,183.42-7.37,21.54-7.37,21.54l15.72,8.78s5.32,95.58,21,115-40.15-5.34-40.15-5.34L2064.37,942l-162.18,85.92Z" transform="translate(-915.07 -551.67)"/><path class="cls-9" d="M1979.46,668s37.4,238-45,344.36" transform="translate(-915.07 -551.67)"/><path class="cls-10" d="M1928.74,958.18s-12.65-59-24.51-57.14-16.6,20-16.6,20l11.07-27.21s-19-36.28-40.33-34.46l-4.74,11.79s-9.4-36.28-35.14-36.28L1800.65,853l11.07-23.59S1784.84,833,1758,813.06s-36.37-24.49-46.65-20,7.91,111.57,5.54,123.36,13.44,10,13.44,10l-8.7,9.07s30.84,54.42,26.1,69.38,28.46-13.68,28.46-13.68l-5.53,13.68,154.18,4.33Z" transform="translate(-915.07 -551.67)"/><path class="cls-11" d="M1735,830.29s58.52,142,159.72,178.93" transform="translate(-915.07 -551.67)"/><path class="cls-12" d="M1627,825.3l.6,3.77c1.25,7.61,3.18,15.37-.55,22.65s-11.89,9.86-19.65,10.15c-33,1.24-29.9,0-29.9,0l-4.33-18s30.13-8.62,34.23-8.62-18.84-40-19.12-65.15,7.53-37.66,7.53-37.66c.53-.85,5.41,3.2,5.68,3.46,6.12,5.73,9.62,14.34,12.36,22C1621.55,779.67,1623.49,802.7,1627,825.3Z" transform="translate(-915.07 -551.67)"/><path class="cls-13" d="M1480.78,825.3c-.2,1.26-.39,2.51-.6,3.77-1.25,7.61-3.18,15.37.55,22.65s11.89,9.86,19.65,10.15c33,1.24,29.9,0,29.9,0l4.33-18s-30.12-8.62-34.23-8.62,18.84-40,19.12-65.15-7.53-37.66-7.53-37.66c-.53-.85-5.41,3.2-5.68,3.46-6.12,5.73-9.61,14.34-12.36,22C1486.21,779.67,1484.27,802.7,1480.78,825.3Z" transform="translate(-915.07 -551.67)"/><path class="cls-14" d="M1485.35,902.51c-5.25,5.84-1.64,12.39,23.42,25,15.11,7.59,30.61,15.85,47.65,16.1,17.45.26,36.68-3.51,50.23-14.2s21.06-20.06,19.44-27.38C1579.8,944.59,1512,916.35,1485.35,902.51Z" transform="translate(-915.07 -551.67)"/><path class="cls-15" d="M1617.29,892.83c-8.81-4.38-10-7.76-12.41-17.31-1.38-5.43-7.48-44.7-15.84-44.7l6.62-7.22c-2.1-47.89,11.7-87.8,11.7-87.8-3-6.74-18.32-4.66-18.32-4.66l-32.73,4.53-32.72-4.53s-15-1.27-18,5.46c0,0,20.27,46.33,18.18,94.22h-.2c-3.16,0-10.9,25.24-11.73,27.64-3.57,10.47.93,26.2-8.45,32.07-7.46,4.68-14.64,8.18-18.06,12,26.6,13.84,94.45,42.08,140.74-.51C1625.31,898.49,1622.49,895.42,1617.29,892.83Z" transform="translate(-915.07 -551.67)"/><path class="cls-16" d="M1559.47,620.35c-57.86-6.52-53.58,87.43-40.25,126.9,7,20.61,29.87,35.34,30.42,57.08.5,20.11,4.53,44.76,25.56,48.71,33.23,6.26,71.86-6.53,102.07-35,17.33-16.31-11.83-59.46-29.28-71.65-21-14.63-50.74-28.43-55.5-56.33C1587.65,661.75,1591.43,624,1559.47,620.35Z" transform="translate(-915.07 -551.67)"/><path class="cls-17" d="M1559.12,611.36c-60.16-4.78-52.8,89-37.75,128,7.86,20.4,32.07,34.43,33.31,56.14,1.15,20.09,6.1,44.6,28,47.93,34.63,5.25,74.27-8.7,104.69-38,17.45-16.83-14.11-59.08-32.59-70.74-22.18-14-53.47-26.89-59.28-54.64C1589.63,651.89,1592.36,614,1559.12,611.36Z" transform="translate(-915.07 -551.67)"/><g class="cls-18"><path class="cls-19" d="M1588.5,673.49a101.78,101.78,0,0,0,14.59,29.86,109.21,109.21,0,0,0,10.5,12.82,50.28,50.28,0,0,0,13.54,9.85l1.9.93,1.94.81c.66.26,1.3.54,2,.77l2,.67c.67.21,1.31.46,2,.64l2.09.57c1.4.39,2.78.83,4.17,1.28a55.7,55.7,0,0,1,8,3.46,69.91,69.91,0,0,1,7.55,4.54,50.9,50.9,0,0,1,12.47,12.46c.84,1.22,1.63,2.45,2.38,3.72s1.41,2.57,2,3.89,1.18,2.66,1.67,4c.26.67.5,1.35.73,2l.37,1a5.39,5.39,0,0,0,.36.75l-.06.51a1.28,1.28,0,0,1-.66-.35c-.15-.14-.28-.28-.41-.42a9.4,9.4,0,0,1-.71-.85c-.46-.57-.89-1.14-1.31-1.72-.86-1.13-1.69-2.27-2.57-3.36s-1.73-2.19-2.63-3.23-1.81-2.09-2.75-3.09a104.93,104.93,0,0,0-12.14-11c-2.15-1.68-4.4-3.27-6.72-4.75s-4.73-2.85-7.15-4.25c-4.77-2.83-10.26-4.88-15.28-7.64l-1.9-1-1.87-1.08c-1.26-.68-2.46-1.46-3.7-2.19s-2.42-1.57-3.65-2.32-2.39-1.64-3.57-2.48a54.82,54.82,0,0,1-12.41-12.29,63.75,63.75,0,0,1-8.08-15.5,51.93,51.93,0,0,1-3.24-17Z" transform="translate(-915.07 -551.67)"/></g></g></g></g></svg>