<svg xmlns="http://www.w3.org/2000/svg" xmlns:xlink="http://www.w3.org/1999/xlink" viewBox="0 0 1920 537.28"><defs><style>.cls-1{opacity:0.1;fill:url(#radial-gradient);}</style><radialGradient id="radial-gradient" cx="960" cy="406.49" r="737.17" gradientUnits="userSpaceOnUse"><stop offset="0.26" stop-color="#23067c"/><stop offset="0.41" stop-color="#250682"/><stop offset="0.61" stop-color="#2c0794"/><stop offset="0.84" stop-color="#3808b1"/><stop offset="1" stop-color="#4109c9"/></radialGradient></defs><g id="Layer_2" data-name="Layer 2"><g id="Layer_1-2" data-name="Layer 1"><path class="cls-1" d="M1920,150V0c-36.24,2.21-72.57,3.44-108.69,6.89-42.26,4-84.4,9.53-126.46,15.3-42.55,5.84-85,12.5-127.4,19.32-57.53,9.26-115,19-172.45,28.53-47.63,7.87-95.19,16.25-142.94,23.32-40,5.93-80.19,10.89-120.41,15.16-30,3.18-58.84-3.66-86.2-15.38-30.41-13-60.28-27.38-90.2-41.56C907.73,33.8,869.63,17.71,829,8.48c-37.89-8.59-76.15-10-114.77-7C654.76,6.18,598.11,22.65,542,41.42,505.83,53.51,469.73,65.69,432.46,74,359.38,90.27,287.74,84.37,217.55,59.52c-32.77-11.6-65-24.8-97.54-37C92.49,12.28,64.28,4.41,34.92,1.6,23.34.49,11.64.5,0,0V537.28H1920Z"/></g></g></svg>