<svg xmlns="http://www.w3.org/2000/svg" xmlns:xlink="http://www.w3.org/1999/xlink" viewBox="0 0 1920 512.36"><defs><style>.cls-1{opacity:0.1;fill:url(#radial-gradient);}</style><radialGradient id="radial-gradient" cx="960" cy="394.03" r="733.78" gradientUnits="userSpaceOnUse"><stop offset="0.26" stop-color="#23067c"/><stop offset="0.41" stop-color="#250682"/><stop offset="0.61" stop-color="#2c0794"/><stop offset="0.84" stop-color="#3808b1"/><stop offset="1" stop-color="#4109c9"/></radialGradient></defs><g id="Layer_2" data-name="Layer 2"><g id="Layer_1-2" data-name="Layer 1"><path class="cls-1" d="M1920,100.14V.15C1887.08,2,1854.08,3,1821.25,5.89c-37,3.23-73.85,7.91-110.72,12.33-35.38,4.23-70.68,9.13-106.06,13.37-39.69,4.75-79.36,9.69-119.15,13.43-38.46,3.61-77,6.32-115.62,8.45-39.63,2.18-79.28.91-118.89-1.82-78-5.39-155-18.62-232.09-31.27C971.72,12.67,924.58,6,877,2.34,810.37-2.75,744.09.21,678.6,13.77,626.8,24.5,575.36,37,523.72,48.54c-40.2,9-80.75,15.55-122.06,16.6-52.41,1.34-103.5-7-153.94-20.51C208.51,34.1,169.4,23.14,129.9,13.84,87.28,3.81,43.82-.17,0,.15V512.36H1920Z"/></g></g></svg>