<svg xmlns="http://www.w3.org/2000/svg" xmlns:xlink="http://www.w3.org/1999/xlink" viewBox="0 0 1920 562.29"><defs><style>.cls-1{opacity:0.1;fill:url(#radial-gradient);}</style><radialGradient id="radial-gradient" cx="960" cy="418.99" r="740.66" gradientUnits="userSpaceOnUse"><stop offset="0.26" stop-color="#23067c"/><stop offset="0.41" stop-color="#250682"/><stop offset="0.61" stop-color="#2c0794"/><stop offset="0.84" stop-color="#3808b1"/><stop offset="1" stop-color="#4109c9"/></radialGradient></defs><g id="Layer_2" data-name="Layer 2"><g id="Layer_1-2" data-name="Layer 1"><path class="cls-1" d="M1920,200V0c-32.29,0-64.07,4.66-95.7,10.55-68,12.67-134.55,31-201.51,47.89C1564,73.24,1505.2,87.66,1445.38,97.56c-48.74,8.07-97.71,13.47-147.24,10.34-42.66-2.7-84.6-10-126.05-20.34C1120,74.62,1069.42,57,1018.46,40.5,976.32,26.87,933.87,14.59,890.18,6.65,818.22-6.41,748.35.14,680.08,26.3,639.6,41.81,600.8,60.92,561.72,79.48c-31.88,15.14-64,29.6-98,39.73-60.67,18.1-119.7,13.4-177.53-11.62-33.09-14.32-64-32.81-95.39-50.24C156.27,38.18,121,20.77,82.49,10.59A310.06,310.06,0,0,0,0,0V562.29H1920Z"/></g></g></svg>