<svg xmlns="http://www.w3.org/2000/svg" viewBox="0 0 34 40"><defs><style>.cls-1{fill:#537a6e;}</style></defs><g id="Layer_2" data-name="Layer 2"><g id="Layer_1-2" data-name="Layer 1"><path class="cls-1" d="M33.92,26.11c0-.07-.05-.14-.07-.21l-.44-.67A4.85,4.85,0,0,0,30.76,24c-3.45-.64-9.13.17-14.55,1.75S5.57,29.73,3,32.12a5,5,0,0,0-1.6,2.34v1s0,.06,0,.09a2.13,2.13,0,0,0,.4.76c1.34,1.62,5.27,1.84,9.92,1.18A7.13,7.13,0,0,1,11.31,36c-3.7.5-6.4.35-7.65-.19-.42-.17-.68-.39-.75-.65a1.07,1.07,0,0,1,.22-.83c1.08-1.76,5.9-4.77,13.48-7V30a5.18,5.18,0,0,0-3.21,4.79,5.29,5.29,0,0,0,.07.8h0a5.45,5.45,0,0,0,.29,1.07c.07.17.14.34.22.5a5.15,5.15,0,0,0,9.73-2.38c0-.14,0-.27,0-.4a4.51,4.51,0,0,0-.07-.53,5.39,5.39,0,0,0-.31-1.08h0a5.12,5.12,0,0,0-2-2.36,5.07,5.07,0,0,0-2.75-.81l-.37,0V26.88c6.66-1.74,11.64-1.77,13.48-1,.42.18.68.4.75.65a1.1,1.1,0,0,1-.22.84c-.72,1.17-3.11,2.89-6.86,4.57a7.26,7.26,0,0,1,.44,1.53c4.59-2,8-4.44,8.22-6.63A2.13,2.13,0,0,0,33.92,26.11Z"/><path class="cls-1" d="M26.37,14.42l-1-3.42A13,13,0,0,0,12.94,1.65c-.24,0-.49,0-.74,0A2.32,2.32,0,0,0,10,0,2.35,2.35,0,0,0,7.63,2.36a2,2,0,0,0,0,.42A12.8,12.8,0,0,0,1.6,8.4,13,13,0,0,0,.53,18.31l1,3.43L1.39,34.46A5,5,0,0,1,3,32.12l0,0v-2H3l.09-8.3v-.23L3,21.29,2,17.86A11.47,11.47,0,0,1,3,9.16,11.33,11.33,0,0,1,8.31,4.22l1.13-.5L9.22,2.5c0-.08,0-.12,0-.14A.78.78,0,0,1,10,1.58a.76.76,0,0,1,.72.55l.36,1.19,1.23-.08h.65a11.42,11.42,0,0,1,10.92,8.21l1,3.43.07.22.12.2,4.58,7,1.16,1.74a4.81,4.81,0,0,1,2.62,1.18Z"/></g></g></svg>