<svg xmlns="http://www.w3.org/2000/svg" viewBox="0 0 56 53"><defs><style>.cls-1{fill:#537a6e;}.cls-2{fill:none;stroke:#537a6e;stroke-miterlimit:10;stroke-width:2px;}</style></defs><g id="Layer_2" data-name="Layer 2"><g id="Layer_1-2" data-name="Layer 1"><path class="cls-1" d="M27.38,2a1.43,1.43,0,0,1,1.43,1.43v6.5a1.43,1.43,0,0,1-1.43,1.43H8.83A1.44,1.44,0,0,1,7.4,9.93V3.43A1.44,1.44,0,0,1,8.83,2H27.38m0-2H8.83A3.44,3.44,0,0,0,5.4,3.43v6.5a3.43,3.43,0,0,0,3.43,3.43H27.38a3.43,3.43,0,0,0,3.43-3.43V3.43A3.44,3.44,0,0,0,27.38,0Z"/><rect class="cls-1" x="0.57" y="25.47" width="19.94" height="15.91"/><path class="cls-1" d="M25.33,13.86l8.16,7,0,0,0,0a1.7,1.7,0,0,1,.66,1.33v19a7,7,0,0,0-6.62,5.63,6,6,0,0,0-.09.83H3.87A1.81,1.81,0,0,1,2,46V22.21a1.7,1.7,0,0,1,.66-1.33l0,0,0,0,8.16-7H25.33m.74-2H10.14L1.42,19.31A3.69,3.69,0,0,0,0,22.21V46a3.8,3.8,0,0,0,3.87,3.74h26a4.45,4.45,0,0,1-.3-2.5,5.06,5.06,0,0,1,5.1-4h1.55v-21a3.69,3.69,0,0,0-1.42-2.9l-8.72-7.45Z"/><path class="cls-2" d="M41.45,42.57H33.72a4.8,4.8,0,0,0-4.88,4.72,4.5,4.5,0,0,0,.36,1.76,4.87,4.87,0,0,0,4.52,3h7.73a4.72,4.72,0,1,0,0-9.43Z"/><line class="cls-2" x1="37.58" y1="42.57" x2="37.58" y2="52"/><path class="cls-1" d="M45.27,27.94h0a2.46,2.46,0,0,1,1.65.63l6.37,5.82a2.12,2.12,0,0,1,.09,3.08l-.71.72a2.48,2.48,0,0,1-3.4.09l-6.36-5.81a2.11,2.11,0,0,1-.09-3.09l.71-.72a2.42,2.42,0,0,1,1.74-.72m0-2a4.41,4.41,0,0,0-3.17,1.32l-.71.72a4.11,4.11,0,0,0,.17,6l6.36,5.82a4.49,4.49,0,0,0,6.17-.16l.71-.73a4.11,4.11,0,0,0-.16-6L48.27,27.1a4.39,4.39,0,0,0-3-1.16Z"/><line class="cls-2" x1="51.45" y1="30" x2="44.74" y2="36.85"/></g></g></svg>