<svg xmlns="http://www.w3.org/2000/svg" viewBox="0 0 56.71 57.7"><defs><style>.cls-1,.cls-2{fill:none;}.cls-2{stroke:#537a6e;stroke-miterlimit:10;stroke-width:2px;}.cls-3{fill:#537a6e;}</style></defs><g id="Layer_2" data-name="Layer 2"><g id="Layer_1-2" data-name="Layer 1"><path class="cls-1" d="M44.58,45.69,45,46c-.07-.15-.17-.28-.24-.43Z"/><path class="cls-2" d="M40.67,41.53a9.54,9.54,0,0,1,0-8.32L7.58,4C5,2,2,4.89,4,7.58L32.1,41.69a9.2,9.2,0,0,1,8.57-.16Z"/><ellipse class="cls-3" cx="26.99" cy="27.88" rx="2.1" ry="2.13"/><polyline class="cls-2" points="32.6 26.5 32.6 33.75 40.67 41.53"/><ellipse class="cls-2" cx="36.64" cy="48.65" rx="7.94" ry="8.05"/><ellipse class="cls-2" cx="36.64" cy="48.65" rx="3.77" ry="3.82"/><ellipse class="cls-2" cx="47.78" cy="37.36" rx="3.77" ry="3.82"/><ellipse class="cls-2" cx="47.78" cy="37.36" rx="7.94" ry="8.05"/><path class="cls-2" d="M41.07.7,47.29,7a8,8,0,0,1,0,11.14L17.9,47.94a7.68,7.68,0,0,1-11,0L.71,41.64"/><line class="cls-2" x1="3.78" y1="38.86" x2="10.56" y2="45.73"/><line class="cls-2" x1="7.17" y1="35.42" x2="13.94" y2="42.29"/><line class="cls-2" x1="10.69" y1="31.85" x2="17.47" y2="38.72"/><line class="cls-2" x1="14.08" y1="28.41" x2="20.86" y2="35.28"/><line class="cls-2" x1="27.55" y1="14.75" x2="34.32" y2="21.63"/><line class="cls-2" x1="30.94" y1="11.32" x2="37.71" y2="18.19"/><line class="cls-2" x1="34.32" y1="7.88" x2="41.1" y2="14.75"/><line class="cls-2" x1="37.71" y1="4.45" x2="44.49" y2="11.32"/></g></g></svg>