<svg xmlns="http://www.w3.org/2000/svg" viewBox="0 0 33.28 51.2"><defs><style>.cls-1{fill:#5e887c;}</style></defs><g id="Layer_2" data-name="Layer 2"><g id="Layer_1-2" data-name="Layer 1"><path class="cls-1" d="M33.28,17.07A16.88,16.88,0,0,0,16.64,0,16.88,16.88,0,0,0,0,17.07,16.94,16.94,0,0,0,14.11,33.91v2.5H10.59a2.44,2.44,0,0,0,0,4.88h3.52v7.47a2.38,2.38,0,1,0,4.75,0V41.29h3.83a2.44,2.44,0,0,0,0-4.88H18.86V34A16.94,16.94,0,0,0,33.28,17.07ZM16.64,29.26a11.16,11.16,0,0,1-2.53-.3A12.13,12.13,0,0,1,4.75,17.07,12.06,12.06,0,0,1,16.64,4.88,12.06,12.06,0,0,1,28.53,17.07a12.14,12.14,0,0,1-9.67,12A11.61,11.61,0,0,1,16.64,29.26Z"/></g></g></svg>