<svg xmlns="http://www.w3.org/2000/svg" viewBox="0 0 686.5 1028.03"><defs><style>.cls-1,.cls-2,.cls-3,.cls-4{font-size:19px;}.cls-1,.cls-9{fill:#ff5b40;}.cls-1,.cls-11,.cls-2{font-family:OwnglyphEuiyeonChae, Ownglyph EuiyeonChae;}.cls-2{fill:#898989;}.cls-3,.cls-4,.cls-8,.cls-9{font-family:Dongle-Regular, Dongle;}.cls-11,.cls-4,.cls-5{fill:#fff;}.cls-6{fill:#f8986e;}.cls-7{fill:#c0bdda;}.cls-8,.cls-9{font-size:24px;}.cls-8{fill:#565656;}.cls-10{fill:none;stroke:#b0c1b8;stroke-miterlimit:10;stroke-width:0.5px;}.cls-11{font-size:22px;}.cls-12{fill:#afcd87;}</style></defs><g id="Layer_2" data-name="Layer 2"><g id="Layer_1-2" data-name="Layer 1"><text class="cls-1" transform="translate(44.32 15.2)">일</text><text class="cls-2" transform="translate(141.98 15.2)">월</text><text class="cls-2" transform="translate(239.53 15.2)">화</text><text class="cls-2" transform="translate(338.25 15.2)">수</text><text class="cls-2" transform="translate(436.7 15.2)">목</text><text class="cls-2" transform="translate(534.68 15.2)">금</text><text class="cls-2" transform="translate(632.56 15.2)">토</text><text class="cls-3" transform="translate(39.4 247.39)">3</text><text class="cls-3" transform="translate(130.2 255.64)">4</text><text class="cls-3" transform="translate(232.93 255.64)">5</text><text class="cls-3" transform="translate(330.15 256.56)">6</text><text class="cls-3" transform="translate(446.63 255.64)">7</text><text class="cls-3" transform="translate(518.17 249.22)">8</text><text class="cls-3" transform="translate(636.49 267.57)">9</text><text class="cls-3" transform="translate(24.72 462.93)">10</text><text class="cls-4" transform="translate(113.69 466.6)">11</text><text class="cls-4" transform="translate(221 471.18)">12</text><text class="cls-4" transform="translate(365.92 482.19)">13</text><text class="cls-4" transform="translate(460.39 477.6)">14</text><text class="cls-4" transform="translate(594.3 486.78)">16</text><text class="cls-4" transform="translate(526.43 473.02)">15</text><text class="cls-3" transform="translate(33.9 693.15)">17</text><text class="cls-3" transform="translate(165.05 689.48)">18</text><text class="cls-4" transform="translate(216.42 680.3)">19</text><text class="cls-3" transform="translate(342.99 682.14)">20</text><text class="cls-3" transform="translate(422.79 683.97)">21</text><text class="cls-3" transform="translate(519.09 682.14)">22</text><text class="cls-4" transform="translate(619.98 672.97)">23</text><text class="cls-3" transform="translate(17.39 879.34)">24</text><text class="cls-3" transform="translate(117.36 872)">25</text><text class="cls-3" transform="translate(227.42 876.58)">26</text><text class="cls-3" transform="translate(330.15 878.42)">27</text><text class="cls-3" transform="translate(432.88 880.25)">28</text><text class="cls-3" transform="translate(532.85 888.51)">29</text><text class="cls-3" transform="translate(619.98 880.25)">30</text><rect class="cls-5" x="98" y="698.03" width="98" height="165"/><rect class="cls-5" x="196" y="698.03" width="98" height="165"/><rect class="cls-5" x="98" y="368.03" width="98" height="165"/><rect class="cls-5" x="98" y="533.03" width="98" height="165"/><rect class="cls-5" x="294" y="698.03" width="98" height="165"/><rect class="cls-5" x="490" y="533.03" width="98" height="165"/><rect class="cls-5" x="490" y="203.03" width="98" height="165"/><rect class="cls-5" x="392" y="698.03" width="98" height="165"/><rect class="cls-5" x="490" y="368.03" width="98" height="165"/><rect class="cls-5" x="490" y="698.03" width="98" height="165"/><rect class="cls-5" x="196" y="203.03" width="98" height="165"/><rect class="cls-5" x="392" y="533.03" width="98" height="165"/><rect class="cls-5" x="196" y="533.03" width="98" height="165"/><rect class="cls-5" x="294" y="533.03" width="98" height="165"/><rect class="cls-5" x="98" y="203.03" width="98" height="165"/><rect class="cls-5" x="196" y="368.03" width="98" height="165"/><rect class="cls-5" x="294" y="368.03" width="98" height="165"/><rect class="cls-5" x="294" y="203.03" width="98" height="165"/><rect class="cls-5" x="392" y="368.03" width="98" height="165"/><polygon class="cls-5" points="588 368.03 686 368.03 686 236.03 686 203.03 588 203.03 588 368.03"/><rect class="cls-5" x="392" y="203.03" width="98" height="165"/><polygon class="cls-5" points="98 698.03 0 698.03 0 830.03 0 863.03 98 863.03 98 698.03"/><rect class="cls-5" x="490" y="863.03" width="98" height="165"/><rect class="cls-5" x="294" y="863.03" width="98" height="165"/><rect class="cls-5" x="392" y="863.03" width="98" height="165"/><rect class="cls-5" x="196" y="863.03" width="98" height="165"/><rect class="cls-5" x="98" y="863.03" width="98" height="165"/><polygon class="cls-5" points="588 863.03 686 863.03 686 830.03 686 698.03 588 698.03 588 863.03"/><polygon class="cls-5" points="588 698.03 686 698.03 686 632.03 686 533.03 588 533.03 588 698.03"/><polygon class="cls-5" points="686 368.03 588 368.03 588 533.03 686 533.03 686 434.03 686 368.03"/><rect class="cls-5" x="588" y="863.03" width="98" height="165"/><rect class="cls-5" y="863.03" width="98" height="165"/><rect class="cls-5" x="98" y="38.03" width="98" height="165"/><rect class="cls-5" x="392" y="38.03" width="98" height="165"/><rect class="cls-5" x="294" y="38.03" width="98" height="165"/><rect class="cls-5" x="196" y="38.03" width="98" height="165"/><rect class="cls-5" x="490" y="38.03" width="98" height="165"/><rect class="cls-6" x="490" y="77.75" width="98" height="26" rx="13"/><rect class="cls-7" x="294" y="407.75" width="98" height="26" rx="13"/><polygon class="cls-5" points="98 368.03 0 368.03 0 434.03 0 533.03 98 533.03 98 368.03"/><polygon class="cls-5" points="98 203.03 0 203.03 0 236.03 0 368.03 98 368.03 98 203.03"/><polygon class="cls-5" points="98 533.03 0 533.03 0 632.03 0 698.03 98 698.03 98 533.03"/><rect class="cls-5" x="588" y="38.03" width="98" height="165"/><rect class="cls-5" y="38.03" width="98" height="165"/><text class="cls-8" transform="translate(535.64 61.71)">1</text><text class="cls-8" transform="translate(633.04 61.71)">2</text><text class="cls-9" transform="translate(45.04 226.71)">3</text><text class="cls-8" transform="translate(143.04 226.71)">4</text><text class="cls-8" transform="translate(241.04 226.71)">5</text><text class="cls-8" transform="translate(339.04 226.71)">6</text><text class="cls-8" transform="translate(437.04 226.71)">7</text><text class="cls-8" transform="translate(534.98 226.71)">8</text><text class="cls-8" transform="translate(633.04 226.71)">9</text><text class="cls-9" transform="translate(41.44 391.71)">10</text><text class="cls-8" transform="translate(140.28 391.71)">11</text><text class="cls-8" transform="translate(237.68 391.71)">12</text><text class="cls-8" transform="translate(335.68 391.71)">13</text><text class="cls-8" transform="translate(433.68 391.71)">14</text><text class="cls-8" transform="translate(531.68 391.71)">15</text><text class="cls-8" transform="translate(629.68 391.71)">16</text><text class="cls-9" transform="translate(41.68 556.71)">17</text><text class="cls-8" transform="translate(139.62 556.71)">18</text><text class="cls-8" transform="translate(237.68 556.71)">19</text><text class="cls-8" transform="translate(334.84 556.71)">20</text><text class="cls-8" transform="translate(433.68 556.71)">21</text><text class="cls-8" transform="translate(531.08 556.71)">22</text><text class="cls-8" transform="translate(629.08 556.71)">23</text><text class="cls-9" transform="translate(41.08 721.71)">24</text><text class="cls-8" transform="translate(139.08 721.71)">25</text><text class="cls-8" transform="translate(237.08 721.71)">26</text><text class="cls-8" transform="translate(335.08 721.71)">27</text><text class="cls-8" transform="translate(433.02 721.71)">28</text><text class="cls-8" transform="translate(531.08 721.71)">29</text><text class="cls-8" transform="translate(628.84 721.71)">30</text><text class="cls-9" transform="translate(41.68 886.71)">31</text><line class="cls-10" y1="863.03" x2="686" y2="863.03"/><line class="cls-10" x1="0.5" y1="698.03" x2="686.5" y2="698.03"/><line class="cls-10" x1="0.5" y1="533.03" x2="686.5" y2="533.03"/><line class="cls-10" x1="0.5" y1="368.03" x2="686.5" y2="368.03"/><line class="cls-10" x1="0.5" y1="203.03" x2="686.5" y2="203.03"/><line class="cls-10" x1="0.5" y1="38.03" x2="686.5" y2="38.03"/><text class="cls-11" transform="translate(500 97.91)">산책</text><rect class="cls-12" x="294" y="438.75" width="98" height="26" rx="13"/><text class="cls-11" transform="translate(304 458.91)">사료 구매</text><text class="cls-11" transform="translate(304 427.91)">병원가는 날</text></g></g></svg>