<svg xmlns="http://www.w3.org/2000/svg" viewBox="0 0 74 56"><defs><style>.cls-1{fill:none;stroke:#565656;}.cls-1,.cls-2{stroke-miterlimit:10;stroke-width:2px;}.cls-2{fill:#fff;stroke:#537a6e;}</style></defs><g id="Layer_2" data-name="Layer 2"><g id="Layer_1-2" data-name="Layer 1"><path class="cls-1" d="M72.26,40.37l-10-11.74c2.87-2.34,7.49-7.2,7.49-12.09a15.45,15.45,0,1,0-30.9,0c0,4.89,4.62,9.75,7.5,12.09l-10,11.74A4,4,0,0,0,39.6,46.7H69A4,4,0,0,0,72.26,40.37Z"/><path class="cls-1" d="M1.74,40.37l10-11.74c-2.87-2.34-7.49-7.2-7.49-12.09a15.45,15.45,0,1,1,30.9,0c0,4.89-4.62,9.75-7.5,12.09l10,11.74A4,4,0,0,1,34.4,46.7H5A4,4,0,0,1,1.74,40.37Z"/><path class="cls-2" d="M56.67,48.41,45.8,36.21c3.12-2.42,8.14-7.48,8.14-12.56,0-8.92-7.52-16.15-16.79-16.15S20.36,14.73,20.36,23.65c0,5.08,5,10.14,8.14,12.56L17.64,48.41A4.17,4.17,0,0,0,21.18,55H53.12A4.17,4.17,0,0,0,56.67,48.41Z"/></g></g></svg>