<svg xmlns="http://www.w3.org/2000/svg" viewBox="0 0 58 44"><defs><style>.cls-1{fill:none;stroke:#565656;stroke-miterlimit:10;stroke-width:2px;}.cls-2{fill:#565656;}</style></defs><g id="Layer_2" data-name="Layer 2"><g id="Layer_1-2" data-name="Layer 1"><path class="cls-1" d="M54.1,12.34C49.85,6.25,40.59-.78,35.76,2.05a3.89,3.89,0,0,0-.62.47,12.17,12.17,0,0,0-12.09.18,4.2,4.2,0,0,0-.81-.65C17.42-.78,8.15,6.25,3.9,12.34c-6,8.61-1.16,12.8,1.22,14.19a9.39,9.39,0,0,0,4.8,1.37c.24,0,.48,0,.72,0C11.14,37.49,17.86,43,29.26,43s18.11-5.5,18.62-15.11h.19a9.4,9.4,0,0,0,4.81-1.37C55.26,25.14,60.13,21,54.1,12.34Z"/><ellipse class="cls-2" cx="21.01" cy="19.2" rx="3.25" ry="3.18"/><ellipse class="cls-2" cx="36.86" cy="19.2" rx="3.25" ry="3.18"/><path class="cls-2" d="M40.93,27.16a.92.92,0,0,0-1.07.73s-.8,4-3.42,5a4.83,4.83,0,0,1-3.69-.43,13.92,13.92,0,0,1-2.56-1.59v-.16l0-3.35a4.6,4.6,0,0,0,3.07-3.77c0-1.53-1.82-1.62-4.06-1.62s-4.07.09-4.07,1.62a4.59,4.59,0,0,0,3.15,3.79l0,3.3v.19a13.53,13.53,0,0,1-2.68,1.65,4.76,4.76,0,0,1-3.57.37c-2.62-.94-3.41-4.92-3.42-5a.92.92,0,0,0-1.07-.73.9.9,0,0,0-.74,1.05c0,.21,1,5,4.59,6.34a5.39,5.39,0,0,0,1.84.31,6.59,6.59,0,0,0,1.91-.3,13,13,0,0,0,4.06-2.15,13.4,13.4,0,0,0,4,2.13,6.76,6.76,0,0,0,2,.32,5.39,5.39,0,0,0,1.84-.31c3.62-1.31,4.56-6.13,4.59-6.34A.9.9,0,0,0,40.93,27.16Z"/></g></g></svg>