<svg xmlns="http://www.w3.org/2000/svg" viewBox="0 0 92.38 70.23"><defs><style>.cls-1{fill:none;stroke:#b0c1b8;stroke-miterlimit:10;stroke-width:2px;}.cls-2{fill:#b0c1b8;}</style></defs><g id="Layer_2" data-name="Layer 2"><g id="Layer_1-2" data-name="Layer 1"><path class="cls-1" d="M86.71,19.42C79.84,9.53,64.89-1.9,57.1,2.71a6.37,6.37,0,0,0-1,.75,19.5,19.5,0,0,0-19.5.31,6.61,6.61,0,0,0-1.32-1.06C27.49-1.9,12.55,9.53,5.67,19.42c-9.72,14-1.85,20.79,2,23.06A15.13,15.13,0,0,0,15.4,44.7a11.48,11.48,0,0,0,1.17-.07c.8,15.65,11.65,24.6,30.05,24.6s29.22-8.94,30.05-24.55l.3,0a15.24,15.24,0,0,0,7.76-2.22C88.57,40.21,96.43,33.42,86.71,19.42Z"/><ellipse class="cls-2" cx="33.29" cy="30.39" rx="5.25" ry="5.13"/><ellipse class="cls-2" cx="58.88" cy="30.39" rx="5.25" ry="5.13"/><path class="cls-2" d="M65,42.72a1.49,1.49,0,0,0-1.74,1.17c0,.07-1.28,6.5-5.51,8-1.68.6-3.67.36-6-.69a22.74,22.74,0,0,1-4.13-2.57v-.27l.05-5.4c2.84-.9,4.95-4,4.95-6.08,0-2.47-2.94-2.62-6.56-2.62s-6.57.15-6.57,2.62c0,2.12,2.17,5.27,5.09,6.12l0,5.33v.3a22.16,22.16,0,0,1-4.31,2.66,7.71,7.71,0,0,1-5.76.6c-4.24-1.52-5.51-7.95-5.52-8a1.5,1.5,0,0,0-1.74-1.17,1.47,1.47,0,0,0-1.2,1.7c.06.33,1.58,8.12,7.42,10.23a8.65,8.65,0,0,0,3,.51,11.13,11.13,0,0,0,3.09-.48,21.17,21.17,0,0,0,6.56-3.49,21.16,21.16,0,0,0,6.44,3.45,11,11,0,0,0,3.21.52,8.75,8.75,0,0,0,3-.51c5.83-2.11,7.35-9.9,7.41-10.23A1.47,1.47,0,0,0,65,42.72Z"/></g></g></svg>