<svg xmlns="http://www.w3.org/2000/svg" viewBox="0 0 56 54"><defs><style>.cls-1{fill:#565656;}.cls-2{fill:#5e887c;}</style></defs><g id="Layer_2" data-name="Layer 2"><g id="Layer_1-2" data-name="Layer 1"><path class="cls-1" d="M48.26,4.7h-3.5V0H40.19V4.7H17.33V0H12.76V4.7h-5A7.7,7.7,0,0,0,0,12.35v34A7.7,7.7,0,0,0,7.74,54H48.26A7.7,7.7,0,0,0,56,46.36v-34A7.7,7.7,0,0,0,48.26,4.7Zm5.07,41.66a5,5,0,0,1-5.07,5H7.74a5,5,0,0,1-5.07-5V20.13H53.33ZM2.67,17.5V12.35a5,5,0,0,1,5.07-5H48.26a5,5,0,0,1,5.07,5V17.5Z"/><path class="cls-2" d="M28.46,25.91l2.14,6.5h6.91a.48.48,0,0,1,.29.87l-5.6,4,2.14,6.5a.48.48,0,0,1-.74.53l-5.6-4-5.6,4a.48.48,0,0,1-.74-.53l2.14-6.5-5.6-4a.48.48,0,0,1,.29-.87H25.4l2.14-6.5A.49.49,0,0,1,28.46,25.91Z"/></g></g></svg>