<svg xmlns="http://www.w3.org/2000/svg" viewBox="0 0 56 42"><defs><style>.cls-1{fill:#537a6e;}.cls-2{fill:none;stroke:#537a6e;stroke-linecap:round;stroke-miterlimit:10;}.cls-3{fill:#fff;}</style></defs><g id="Layer_2" data-name="Layer 2"><g id="Layer_1-2" data-name="Layer 1"><path class="cls-1" d="M42.94,19.06l.36-.16,0,0Z"/><path class="cls-1" d="M45.65,17.91a3,3,0,0,0,.9-.15,5.19,5.19,0,0,0-.95.14Z"/><path class="cls-1" d="M8.56,17.29a3.76,3.76,0,0,1-1.52-3,3.56,3.56,0,0,1,3.42-3.67,3,3,0,0,1,.92.16l1.09.18-.06-1.15a3.56,3.56,0,0,1,3.42-3.67,3.27,3.27,0,0,1,2.45,1.13l.6.68.61-.68a3.26,3.26,0,0,1,2.45-1.13h.81V5.28a3.54,3.54,0,0,1,3.41-3.66,3.48,3.48,0,0,1,3.36,3.05L29.88,7,31,5a3.35,3.35,0,0,1,2.9-1.75,3.49,3.49,0,0,1,3.34,2.92l.23,1.19,1-.67a3.24,3.24,0,0,1,1.78-.55,3.55,3.55,0,0,1,3.41,3.67l0,1.3,1.08-.33a3.13,3.13,0,0,1,.93-.16,3.55,3.55,0,0,1,3.41,3.67,3.62,3.62,0,0,1-2.51,3.52,4.36,4.36,0,0,1,2.3.53,5.37,5.37,0,0,0,1.83-4A5.11,5.11,0,0,0,45.26,9a5.13,5.13,0,0,0-5-4.49,4.61,4.61,0,0,0-1.72.33,5.07,5.07,0,0,0-4.64-3.23,4.83,4.83,0,0,0-3.29,1.29A5,5,0,0,0,26.16,0a5.13,5.13,0,0,0-5,4.54,4.8,4.8,0,0,0-2.3,1,4.79,4.79,0,0,0-3-1.09,5.11,5.11,0,0,0-5,4.49,5.13,5.13,0,0,0-5.43,5.27A5.36,5.36,0,0,0,7,18.09c.08-.06.16-.14.24-.21A4,4,0,0,1,8.56,17.29Z"/><path class="cls-1" d="M55.64,34,50.8,20.66a6.11,6.11,0,0,0-.32-.74,3.94,3.94,0,0,0-1.63-1.63,4.36,4.36,0,0,0-2.3-.53,3,3,0,0,1-.9.15h0a4.06,4.06,0,0,0-.91.35c-.43.23-.9.44-1.39.65l-.36.16a38.07,38.07,0,0,1-14.2,2.5c-6.82,0-12.86-1.47-16.73-3.74a3.84,3.84,0,0,0-.35-.18,4.58,4.58,0,0,0-3.1-.35,4,4,0,0,0-1.28.59c-.08.07-.16.15-.24.21A5.84,5.84,0,0,0,5.2,20.66L.36,34A6,6,0,0,0,6,42H50A6,6,0,0,0,55.64,34Z"/><path class="cls-2" d="M17.62,12.23c-.94-2.29.46-5,3.14-6.14S26.37,6,27.32,8.23"/><path class="cls-3" d="M38.82,32.63h0a3.64,3.64,0,0,0,0-4.82,3.73,3.73,0,0,0-5.24.33A4.38,4.38,0,0,0,32.46,30H23.59a4.22,4.22,0,0,0-1.14-2,3.73,3.73,0,0,0-5.24-.32,3.64,3.64,0,0,0,0,4.82h0a3.71,3.71,0,0,0,.33,5.23,3.74,3.74,0,0,0,5.16-1,4.48,4.48,0,0,0,.76-1.51h9.09a4.37,4.37,0,0,0,.81,1.7,3.73,3.73,0,0,0,5.16,1A3.71,3.71,0,0,0,38.82,32.63Z"/></g></g></svg>