<svg xmlns="http://www.w3.org/2000/svg" viewBox="0 0 57.72 58.74"><defs><style>.cls-1{fill:none;stroke:#537a6e;stroke-linecap:round;stroke-miterlimit:10;stroke-width:2px;}.cls-2{fill:#537a6e;}</style></defs><g id="Layer_2" data-name="Layer 2"><g id="Layer_1-2" data-name="Layer 1"><path class="cls-1" d="M52.42,14.59q8.59,23.73,0,42.89a.44.44,0,0,1-.4.26H10a.44.44,0,0,1-.42-.55C13.47,43.12,14,29,9.56,14.86v0"/><path class="cls-1" d="M37.91,14H8.9L8.49,2.55,14.6,6.79,19,2l6.23,4.41L30.31,2l5.6,4.78L41.43,2l5.33,4.41L52.81,2s-.31,11.36-.34,12.28"/><path class="cls-1" d="M9.66,14.29s-19.49,20.37,0,43.33"/><path class="cls-2" d="M39.35,47.59a10.19,10.19,0,0,1-1.27,1.84c-1.63,1.63-3.9,1.22-5.45-1-.48-.67-.79-1.41-1.22-2.1a4.57,4.57,0,0,0-4.28-2.2c-.81,0-1.55.27-2.35.32-2.53.16-4.09-1.09-4.21-3.32-.27-5,7.32-9.73,12.9-8a9,9,0,0,1,5.33,4.56A11.12,11.12,0,0,1,39.35,47.59Z"/><ellipse class="cls-2" cx="25" cy="28.27" rx="3.21" ry="4.57" transform="translate(-1.15 1.06) rotate(-2.37)"/><ellipse class="cls-2" cx="45.4" cy="39.09" rx="4.36" ry="3.13" transform="translate(-13.21 26.67) rotate(-28.76)"/><ellipse class="cls-2" cx="33.97" cy="26.61" rx="5.14" ry="3.68" transform="translate(-2.25 50.07) rotate(-71.01)"/><ellipse class="cls-2" cx="41.82" cy="30.59" rx="5.3" ry="3.77" transform="translate(-8.09 44.51) rotate(-51.77)"/></g></g></svg>