<svg xmlns="http://www.w3.org/2000/svg" viewBox="0 0 54 54"><defs><style>.cls-1{fill:#fff;}.cls-2{fill:#bc9c95;}</style></defs><g id="Layer_2" data-name="Layer 2"><g id="Layer_1-2" data-name="Layer 1"><circle class="cls-1" cx="27" cy="27" r="27"/><path class="cls-2" d="M41.71,29.67l-7.75,0a6.14,6.14,0,0,0,4.86-2.79,5.19,5.19,0,0,0,0-5.41C35.34,16.15,25.63,23,23.23,17c-.89-2.27,1.13-3.73,2.87-4.75,0,0-13.4-1.7-13.4,12.11a5.44,5.44,0,0,0,5.54,5.34H12.29A5.44,5.44,0,0,0,6.75,35v1.5a5.44,5.44,0,0,0,5.54,5.34H41.71a5.44,5.44,0,0,0,5.54-5.34V35A5.45,5.45,0,0,0,41.71,29.67Z"/></g></g></svg>