<svg xmlns="http://www.w3.org/2000/svg" viewBox="0 0 51.2 51.2"><defs><style>.cls-1{fill:#5e887c;}</style></defs><g id="Layer_2" data-name="Layer 2"><g id="Layer_1-2" data-name="Layer 1"><path class="cls-1" d="M50.27,3.68a.45.45,0,0,0,0-.11,2.94,2.94,0,0,0-.14-.64,1.36,1.36,0,0,0-.1-.21c0-.1-.11-.2-.17-.3a2.84,2.84,0,0,0-.43-.54,2.28,2.28,0,0,0-.22-.22,2.6,2.6,0,0,0-.83-.46,1.91,1.91,0,0,0-.28-.07A3.43,3.43,0,0,0,47.61,1l-12-1a2.92,2.92,0,1,0-.49,5.81l5.77.48-8.24,8.23a20.32,20.32,0,1,0,8.21,16.3,20.21,20.21,0,0,0-4.08-12.19L45,10.42,45.38,15a2.9,2.9,0,0,0,2.9,2.66h.25a2.91,2.91,0,0,0,2.66-3.14ZM30.72,41.12a14.55,14.55,0,1,1-2.27-22.43,14.14,14.14,0,0,1,2.27,1.85,15.3,15.3,0,0,1,1.86,2.26,14.55,14.55,0,0,1-1.86,18.32Z"/></g></g></svg>