<svg xmlns="http://www.w3.org/2000/svg" viewBox="0 0 44.11 42"><defs><style>.cls-1{fill:none;stroke:#8d9e96;stroke-miterlimit:10;stroke-width:2px;}.cls-2{fill:#8d9e96;}</style></defs><g id="Layer_2" data-name="Layer 2"><g id="Layer_1-2" data-name="Layer 1"><path class="cls-1" d="M42.38,20.49a.74.74,0,0,0,.49-1.28L24.14,2a3.15,3.15,0,0,0-4.53,0L1.24,18.81a.73.73,0,0,0,.47,1.27l3.23,0V35a6,6,0,0,0,5.9,6H32.91a6,6,0,0,0,5.89-6V20.45Z"/><path class="cls-2" d="M16.41,40.36V32.67a5.65,5.65,0,1,1,11.29,0s0,7.69,0,7.69"/></g></g></svg>