<svg xmlns="http://www.w3.org/2000/svg" viewBox="0 0 64 54"><defs><style>.cls-1{fill:#537a6e;}.cls-2{fill:#fff;}</style></defs><g id="Layer_2" data-name="Layer 2"><g id="Layer_1-2" data-name="Layer 1"><path class="cls-1" d="M52.63,44.61a22.36,22.36,0,0,1-.73,4.58c-1.63,4.54-6.34,5.9-11.29,3.33-1.52-.79-2.79-1.88-4.24-2.75a9.88,9.88,0,0,0-10.2-.09c-1.51.8-2.71,2-4.19,2.8-4.68,2.65-8.79,1.79-11.07-2.22-5.12-9,5.05-24.82,17.32-26.75A19.12,19.12,0,0,1,42.58,27,22.33,22.33,0,0,1,52.63,44.61Z"/><ellipse class="cls-1" cx="7.53" cy="22.26" rx="6.81" ry="9.44" transform="translate(-9.93 6.54) rotate(-29.32)"/><ellipse class="cls-1" cx="56.39" cy="23.24" rx="9.18" ry="6.52" transform="translate(3.66 53.88) rotate(-52.56)"/><ellipse class="cls-1" cx="23.13" cy="10.84" rx="7.81" ry="10.62" transform="translate(-0.99 2.44) rotate(-5.92)"/><ellipse class="cls-1" cx="41.76" cy="10.88" rx="11.04" ry="7.94" transform="translate(20.8 48.6) rotate(-75.54)"/><rect class="cls-2" x="28.07" y="27.63" width="6.04" height="18.04"/><rect class="cls-2" x="28.07" y="27.63" width="6.04" height="18.04" transform="translate(67.74 5.56) rotate(90)"/></g></g></svg>