<svg xmlns="http://www.w3.org/2000/svg" viewBox="0 0 41 33"><defs><style>.cls-1{fill:#fdc31a;}.cls-2{fill:none;stroke:#3a3a3a;stroke-miterlimit:10;stroke-width:2px;}</style></defs><g id="Layer_2" data-name="Layer 2"><g id="Layer_1-2" data-name="Layer 1"><path class="cls-1" d="M32.52,0a8.52,8.52,0,0,0-8.36,7.26l-.16,1L25,8.6a6.77,6.77,0,0,1,4.34,4.89l.23,1,1-.08a6.64,6.64,0,0,1,4.9,1.63l.63.57.73-.44A8.74,8.74,0,0,0,41,8.69,8.6,8.6,0,0,0,32.52,0Z"/><path class="cls-2" d="M38.66,23.41a8.87,8.87,0,0,0-3-6.66A8.47,8.47,0,0,0,30,14.58c-.24,0-.49,0-.72,0a8.77,8.77,0,0,0-5.65-6.36,8.41,8.41,0,0,0-2.75-.48,8.68,8.68,0,0,0-8.48,7.3,8.28,8.28,0,0,0-2.82-.49A8.84,8.84,0,0,0,7.69,32H32A8.78,8.78,0,0,0,38.66,23.41Z"/></g></g></svg>