<svg xmlns="http://www.w3.org/2000/svg" viewBox="0 0 249.98 249.99"><defs><style>.cls-1{fill:#b0c1b8;opacity:0.25;}.cls-2{fill:#537a6e;}</style></defs><g id="Layer_2" data-name="Layer 2"><g id="Layer_1-2" data-name="Layer 1"><path class="cls-1" d="M125,8.86A116.16,116.16,0,1,0,241.15,125,116.28,116.28,0,0,0,125,8.86Zm0,223.89A107.74,107.74,0,1,1,232.74,125,107.74,107.74,0,0,1,125,232.75Z" transform="translate(0 0)"/><path class="cls-2" d="M72.24,238.33c-62.4-29-89.61-103.45-60.66-165.88A14.06,14.06,0,0,1,30.25,65.6h0a14.06,14.06,0,0,1,6.82,18.66,96.81,96.81,0,1,0,87.34-56.15A14.06,14.06,0,1,1,124.25,0a125,125,0,1,1-52,238.33Z" transform="translate(0 0)"/><path class="cls-2" d="M89.48,148.91a15.42,15.42,0,0,1-10.55-3.65,11.72,11.72,0,0,1-4.15-9.15,11.07,11.07,0,0,1,6-10.1,9.43,9.43,0,0,1-3.7-7.8,9.94,9.94,0,0,1,3.4-7.8,13,13,0,0,1,8.9-3,13.34,13.34,0,0,1,9.05,3,9.75,9.75,0,0,1,3.55,7.75,9.31,9.31,0,0,1-3.8,7.8,10.9,10.9,0,0,1,6.1,10.1,11.64,11.64,0,0,1-4.2,9.15A15.59,15.59,0,0,1,89.48,148.91Zm0-5.9a8.58,8.58,0,0,0,5.8-1.9,6.29,6.29,0,0,0,2.2-5,6.07,6.07,0,0,0-2.25-5,8.71,8.71,0,0,0-5.75-1.85,8.53,8.53,0,0,0-5.7,1.85,6.15,6.15,0,0,0-2.2,5,6.38,6.38,0,0,0,2.15,5A8.41,8.41,0,0,0,89.48,143Zm-.1-19.4a6.08,6.08,0,0,0,4.25-1.6,5,5,0,0,0,1.75-3.8,4.56,4.56,0,0,0-1.7-3.65,6.36,6.36,0,0,0-4.3-1.45,6.26,6.26,0,0,0-4.2,1.45,4.59,4.59,0,0,0-1.7,3.65,5.07,5.07,0,0,0,1.7,3.8A6,6,0,0,0,89.38,123.61Z" transform="translate(0 0)"/><path class="cls-2" d="M113.58,147.91a3.5,3.5,0,0,1-3.6-3.5,5,5,0,0,1,1.7-3.5l8.7-8.2a48,48,0,0,0,6-6.7,11.23,11.23,0,0,0,2.3-6.6,5.46,5.46,0,0,0-2-4.55,6.78,6.78,0,0,0-4.35-1.55,7.16,7.16,0,0,0-4.15,1.35,6.49,6.49,0,0,0-2.55,4.25,2.7,2.7,0,0,1-1.2,2,3.84,3.84,0,0,1-2.1.65,3.47,3.47,0,0,1-2.2-.8,2.44,2.44,0,0,1-.9-2.2,10.09,10.09,0,0,1,2.25-6.15,12.88,12.88,0,0,1,5.1-3.7,16.22,16.22,0,0,1,6.25-1.25,14.92,14.92,0,0,1,6.2,1.3,11.54,11.54,0,0,1,4.75,3.85,10.9,10.9,0,0,1,1.85,6.55,16.11,16.11,0,0,1-1.3,6,23.2,23.2,0,0,1-5.1,7.15l-7.9,7.8c-.47.46-.63.88-.5,1.25s.53.55,1.2.55h11.3a3.44,3.44,0,0,1,2.55.85,3,3,0,0,1,.85,2.25,2.65,2.65,0,0,1-3,3Z" transform="translate(0 0)"/><path class="cls-2" d="M143.78,117.51a9.49,9.49,0,0,1,3-7.1,10.21,10.21,0,0,1,7.4-2.9,10,10,0,0,1,7.3,2.85,9.62,9.62,0,0,1,2.9,7.15,9.32,9.32,0,0,1-2.9,7,10.2,10.2,0,0,1-7.3,2.75,10.47,10.47,0,0,1-7.4-2.8A9.18,9.18,0,0,1,143.78,117.51Zm10.7,30.1a2.69,2.69,0,0,1-4,.7,2.2,2.2,0,0,1-1-1.9,2.91,2.91,0,0,1,.7-2l27.8-35.7a3,3,0,0,1,2.4-1.2,2.68,2.68,0,0,1,1.9.75,2.44,2.44,0,0,1,.8,1.85,3,3,0,0,1-.7,1.9Zm-4.8-30.1q0,4.69,4.5,4.7a4.54,4.54,0,0,0,3.35-1.25,5.37,5.37,0,0,0-.05-6.95,4.47,4.47,0,0,0-3.3-1.3,4.26,4.26,0,0,0-3.3,1.3A4.94,4.94,0,0,0,149.68,117.51Zm19.5,21.4a9.37,9.37,0,0,1,3-7,10.77,10.77,0,0,1,14.65,0,9.4,9.4,0,0,1,2.95,7,9.53,9.53,0,0,1-2.95,7.15,10.9,10.9,0,0,1-14.7,0A9.53,9.53,0,0,1,169.18,138.91Zm5.9,0a5,5,0,0,0,1.2,3.5,4.17,4.17,0,0,0,3.2,1.3,4.45,4.45,0,0,0,3.35-1.3,4.87,4.87,0,0,0,1.25-3.5,4.67,4.67,0,0,0-1.25-3.45,4.5,4.5,0,0,0-3.35-1.25,4.21,4.21,0,0,0-3.2,1.25A4.76,4.76,0,0,0,175.08,138.91Z" transform="translate(0 0)"/></g></g></svg>