<svg xmlns="http://www.w3.org/2000/svg" xmlns:xlink="http://www.w3.org/1999/xlink" viewBox="0 0 1159.44 720.62"><defs><style>.cls-1,.cls-5{fill:none;}.cls-2{clip-path:url(#clip-path);}.cls-3{fill:#b0eaca;}.cls-10,.cls-4{fill:#387c55;}.cls-4,.cls-5{opacity:0.2;}.cls-5{stroke:#387c55;stroke-width:2px;}.cls-5,.cls-6{stroke-miterlimit:10;}.cls-11,.cls-12,.cls-6{fill:#fff;}.cls-6{stroke:#43b592;stroke-width:3px;}.cls-7{fill:#43b592;}.cls-8{font-size:92.02px;fill:#ffd926;font-family:GodoB-KSCpc-EUC-H, Godo B;}.cls-9{fill:#c2fff8;}.cls-11{font-size:24.07px;font-family:NanumSquareRoundOTFR-KSCpc-EUC-H, NanumSquareRoundOTF;}</style><clipPath id="clip-path" transform="translate(342.72 62.78)"><rect class="cls-1" width="688" height="500"/></clipPath></defs><g id="Layer_2" data-name="Layer 2"><g id="Layer_1-2" data-name="Layer 1"><g class="cls-2"><rect class="cls-3" x="342.45" y="62.29" width="688" height="500"/><path class="cls-4" d="M373.09,179.66H846.23a0,0,0,0,1,0,0V321.56a0,0,0,0,1,0,0H373.09a70.95,70.95,0,0,1-70.95-70.95v0a70.95,70.95,0,0,1,70.95-70.95Z" transform="translate(333.69 542.19) rotate(-45)"/><path class="cls-4" d="M-301.28,344.36H171.86a0,0,0,0,1,0,0V486.26a0,0,0,0,1,0,0H-301.28a70.95,70.95,0,0,1-70.95-70.95v0a70.95,70.95,0,0,1,70.95-70.95Z" transform="translate(465.36 842.6) rotate(135)"/><circle class="cls-4" cx="404.64" cy="184.95" r="19.93"/><circle class="cls-3" cx="404.64" cy="184.95" r="12.26"/><circle class="cls-4" cx="994.44" cy="457.79" r="29.22"/><circle class="cls-5" cx="416.9" cy="552.97" r="43.11"/><circle class="cls-5" cx="912.36" cy="44.11" r="43.11"/><circle class="cls-3" cx="994.44" cy="457.79" r="17.97"/><path class="cls-6" d="M131,78.71V447.08H507.7c1.84-1.87,2.89-4.79,3.37-8.31H140.61V136.32H546.86V391a58,58,0,0,0,9.59-7.62V78.71Z" transform="translate(342.72 62.78)"/><polygon class="cls-7" points="889.58 199.1 483.33 199.1 483.33 502.74 854.75 502.74 889.58 460.79 889.58 199.1"/><text class="cls-8" transform="translate(511.78 347.37)">매일매일<tspan class="cls-9"><tspan x="0" y="110.42">산책체크</tspan></tspan></text><rect class="cls-7" x="790.65" y="114.73" width="40.62" height="60.6" rx="20.31"/><rect class="cls-7" x="545.32" y="114.73" width="40.62" height="60.6" rx="20.31"/><polygon class="cls-10" points="869.25 266.68 507.34 266.68 525.44 245.63 507.34 224.58 869.25 224.58 851.16 245.63 869.25 266.68"/><text class="cls-11" transform="translate(552.4 251.25)">하루에 한 번! 놓칠 수 없는</text><path class="cls-12" d="M511.81,442.56a25.05,25.05,0,0,0,.75-3.58c1.77-12.81-3.58-32.87-5.82-40.48A40.36,40.36,0,0,0,520.57,401c11.25,0,20.95-4.73,27.1-8.69a65.09,65.09,0,0,0,7.09-5.28c-.76,7.34-3.83,15-9.15,22.94-7.82,11.63-19,21.46-27,27.67C516,439.58,513.69,441.25,511.81,442.56Z" transform="translate(342.72 62.78)"/><path class="cls-7" d="M552.68,390.59a53.36,53.36,0,0,1-8.31,18.49c-7.72,11.47-18.79,21.19-26.71,27.32-1.27,1-2.48,1.89-3.61,2.71,1.6-11.75-2.59-29.28-5.1-38.31a41.67,41.67,0,0,0,11.62,1.65c11.62,0,21.59-4.86,27.91-8.93,1.56-1,3-2,4.2-2.93m3.77-7.21a58,58,0,0,1-9.59,7.62c-6.44,4.15-15.68,8.45-26.29,8.45a39.13,39.13,0,0,1-16.19-3.52s8.84,27.28,6.69,42.84c-.48,3.52-1.53,6.44-3.37,8.31a143.43,143.43,0,0,0,11.79-8.31c8.39-6.49,19.52-16.35,27.37-28,5.64-8.39,9.59-17.71,9.59-27.37Z" transform="translate(342.72 62.78)"/><line class="cls-5" x1="443.77" y1="391.63" x2="327.52" y2="507.87"/><line class="cls-5" x1="916.9" y1="428.57" x2="1067.56" y2="277.91"/></g></g></g></svg>