<svg xmlns="http://www.w3.org/2000/svg" viewBox="0 0 688.5 500.5"><defs><style>.cls-1,.cls-2,.cls-8{fill:none;}.cls-1{stroke:#8d9e96;}.cls-1,.cls-11,.cls-2,.cls-8{stroke-miterlimit:10;}.cls-1,.cls-2{stroke-width:0.5px;}.cls-2{stroke:#b0c1b8;}.cls-3{font-size:19px;}.cls-3,.cls-9{fill:#537a6e;}.cls-12,.cls-13,.cls-3,.cls-9{font-family:CookieRunOTF-Regular-KSCpc-EUC-H, CookieRunOTF;}.cls-4{letter-spacing:-0.02em;}.cls-5{letter-spacing:-0.01em;}.cls-6{letter-spacing:-0.11em;}.cls-7{letter-spacing:0em;}.cls-8{stroke:#537a6e;}.cls-11,.cls-8{stroke-width:2px;}.cls-9{font-size:28px;}.cls-10{letter-spacing:-0.02em;}.cls-11{fill:#fff;stroke:#5e887c;}.cls-12,.cls-13{font-size:24px;fill:#b0c1b8;}.cls-13{letter-spacing:-0.01em;}.cls-14{letter-spacing:0em;}.cls-15{letter-spacing:-0.02em;}.cls-16{letter-spacing:-0.01em;}.cls-17{letter-spacing:-0.03em;}.cls-18{fill:#5e887c;}</style></defs><g id="Layer_2" data-name="Layer 2"><g id="Layer_1-2" data-name="Layer 1"><rect class="cls-1" x="0.25" y="0.25" width="688" height="500"/><line class="cls-2" x1="609.25" y1="114.42" x2="79.25" y2="114.42"/><text class="cls-3" transform="translate(84.61 96.89)">SUN</text><text class="cls-3" transform="translate(162.02 96.89)"><tspan class="cls-4">M</tspan><tspan class="cls-5" x="16.53" y="0">O</tspan><tspan x="30.82" y="0">N</tspan></text><text class="cls-3" transform="translate(246.08 96.9)">TUE</text><text class="cls-3" transform="translate(323.72 96.9)">WED</text><text class="cls-3" transform="translate(404.97 96.89)">THU</text><text class="cls-3" transform="translate(484.79 96.89)">FRI</text><text class="cls-3" transform="translate(552.17 96.9)">S<tspan class="cls-6" x="10.91" y="0">A</tspan><tspan class="cls-7" x="22.1" y="0">T</tspan></text><polyline class="cls-8" points="415.4 45.97 425.39 35.88 415.39 25.97"/><polyline class="cls-8" points="255.43 45.97 245.44 35.88 255.44 25.97"/><text class="cls-9" transform="translate(276.5 42.65)"><tspan class="cls-10">202</tspan><tspan x="48.44" y="0">0 . 10</tspan></text><circle class="cls-11" cx="504.25" cy="166.21" r="25"/><text class="cls-12" transform="translate(577.47 171.93)">2</text><text class="cls-12" transform="translate(576.76 231.93)">9</text><text class="cls-12" transform="translate(496.49 231.93)">8</text><text class="cls-12" transform="translate(417.3 231.93)">7</text><text class="cls-12" transform="translate(336.76 231.93)">6</text><text class="cls-12" transform="translate(257.16 231.93)">5</text><text class="cls-12" transform="translate(176.79 231.93)">4</text><text class="cls-13" transform="translate(174.31 291.93)">1<tspan class="cls-14" x="9.82" y="0">1</tspan></text><text class="cls-12" transform="translate(91.3 291.93)">10</text><text class="cls-12" transform="translate(92.27 351.93)">17</text><text class="cls-12" transform="translate(171.46 351.93)">18</text><text class="cls-12" transform="translate(251.73 351.93)">19</text><text class="cls-12" transform="translate(329.79 351.93)"><tspan class="cls-15">2</tspan><tspan x="13.08" y="0">0</tspan></text><text class="cls-12" transform="translate(330.52 411.93)">27</text><text class="cls-13" transform="translate(409.83 411.93)">2<tspan class="cls-14" x="13.32" y="0">8</tspan></text><text class="cls-13" transform="translate(490.1 411.93)">2<tspan class="cls-14" x="13.32" y="0">9</tspan></text><text class="cls-12" transform="translate(569.33 411.93)"><tspan class="cls-15">3</tspan><tspan x="13.99" y="0">0</tspan></text><text class="cls-12" transform="translate(92.11 471.93)"><tspan class="cls-16">3</tspan><tspan x="14.23" y="0">1</tspan></text><text class="cls-13" transform="translate(250.1 411.93)">2<tspan class="cls-14" x="13.32" y="0">6</tspan></text><text class="cls-12" transform="translate(170.74 411.93)"><tspan class="cls-17">2</tspan><tspan x="12.84" y="0">5</tspan></text><text class="cls-12" transform="translate(90.01 411.93)">24</text><text class="cls-12" transform="translate(412.44 351.93)">21</text><text class="cls-13" transform="translate(490.81 351.93)">2<tspan class="cls-14" x="13.32" y="0">2</tspan></text><text class="cls-12" transform="translate(570.47 351.93)"><tspan class="cls-15">2</tspan><tspan x="13.08" y="0">3</tspan></text><text class="cls-12" transform="translate(252.44 291.93)">12</text><text class="cls-13" transform="translate(332.11 291.93)">1<tspan class="cls-14" x="9.82" y="0">3</tspan></text><text class="cls-12" transform="translate(411.76 291.93)">14</text><text class="cls-12" transform="translate(492.13 291.93)">15</text><text class="cls-12" transform="translate(571.73 291.93)">16</text><text class="cls-12" transform="translate(97.01 231.93)">3</text><path class="cls-18" d="M517.14,177.3a13.82,13.82,0,0,1-.45,2.88c-1,2.86-4,3.71-7.06,2.09-.95-.49-1.74-1.18-2.65-1.72a6.13,6.13,0,0,0-6.38-.06c-.94.5-1.69,1.23-2.61,1.76-2.93,1.67-5.5,1.13-6.92-1.4-3.2-5.69,3.15-15.63,10.82-16.84a11.91,11.91,0,0,1,9,2.19A14.05,14.05,0,0,1,517.14,177.3Z"/><ellipse class="cls-18" cx="488.95" cy="163.22" rx="4.27" ry="5.93" transform="translate(-18.22 255.35) rotate(-28.76)"/><ellipse class="cls-18" cx="519.49" cy="163.84" rx="5.76" ry="4.08" transform="translate(76.96 481.46) rotate(-53.17)"/><ellipse class="cls-18" cx="498.7" cy="156.03" rx="4.88" ry="6.69" transform="translate(-13.18 51.02) rotate(-5.78)"/><ellipse class="cls-18" cx="510.35" cy="156.06" rx="6.95" ry="4.96" transform="translate(234.31 612.8) rotate(-75.85)"/></g></g></svg>