<svg xmlns="http://www.w3.org/2000/svg" viewBox="0 0 60 60"><defs><style>.cls-1{fill:#5e887c;}.cls-2{fill:#fff;}.cls-3{fill:#537a6e;}</style></defs><g id="Layer_2" data-name="Layer 2"><g id="Layer_1-2" data-name="Layer 1"><circle class="cls-1" cx="30" cy="30" r="30"/><path class="cls-2" d="M51.52,21.71c-3.65-5.22-11.59-11.25-15.73-8.82a3.88,3.88,0,0,0-.53.4,10.44,10.44,0,0,0-10.36.16,3.32,3.32,0,0,0-.69-.56c-4.14-2.43-12.08,3.6-15.73,8.82-5.16,7.39-1,11,1,12.18a8.16,8.16,0,0,0,4.12,1.17l.62,0c.43,8.25,6.19,13,16,13s15.52-4.72,16-13h.16a8.16,8.16,0,0,0,4.13-1.17C52.5,32.69,56.68,29.1,51.52,21.71Z"/><ellipse class="cls-3" cx="23.15" cy="27.6" rx="2.79" ry="2.73"/><ellipse class="cls-3" cx="36.74" cy="27.6" rx="2.79" ry="2.73"/><path class="cls-3" d="M40.23,34.43a.78.78,0,0,0-.92.62s-.69,3.45-2.94,4.26a4.13,4.13,0,0,1-3.15-.37A11.76,11.76,0,0,1,31,37.57v-.14l0-2.87a4,4,0,0,0,2.63-3.23c0-1.31-1.56-1.39-3.49-1.39s-3.48.08-3.48,1.39a3.94,3.94,0,0,0,2.7,3.25l0,2.83v.16A11.47,11.47,0,0,1,27.14,39a4.09,4.09,0,0,1-3.06.32c-2.25-.81-2.92-4.23-2.93-4.26a.79.79,0,0,0-.92-.62.77.77,0,0,0-.64.9c0,.17.84,4.31,3.94,5.43A4.59,4.59,0,0,0,25.1,41a6.05,6.05,0,0,0,1.64-.25,11.38,11.38,0,0,0,3.49-1.86,11.56,11.56,0,0,0,3.42,1.84,5.84,5.84,0,0,0,1.7.27,4.64,4.64,0,0,0,1.58-.27c3.1-1.12,3.9-5.26,3.93-5.43A.77.77,0,0,0,40.23,34.43Z"/></g></g></svg>