<svg xmlns="http://www.w3.org/2000/svg" viewBox="0 0 21 21"><defs><style>.cls-1{fill:#fff;stroke:#8d9e96;stroke-miterlimit:10;}.cls-2{fill:#8d9e96;}</style></defs><g id="Layer_2" data-name="Layer 2"><g id="Layer_1-2" data-name="Layer 1"><path class="cls-1" d="M15.83,2A9.92,9.92,0,0,0,10.5.5h0a10,10,0,0,0-10,10h0a10,10,0,0,0,10,10h0a10,10,0,0,0,10-10h0A10,10,0,0,0,15.83,2Z"/><path class="cls-2" d="M12.83,4.07l-7,7.42-.21.74L4.81,15a.52.52,0,0,0,.1.5h0A.13.13,0,0,0,5,15.6a.49.49,0,0,0,.3.12l.15,0,2.64-.86.69-.23,7-7.42ZM6.37,14.82,5.64,14,6,12.67l0-.14,1.72,1.82-.13.05Zm2-.6-.09.09L6.11,12l.09-.09,6.63-7L15,7.19Z"/><path class="cls-2" d="M15.92,16.93H6.78a.32.32,0,0,1,0-.63h9.14a.32.32,0,0,1,0,.63Z"/></g></g></svg>