<svg xmlns="http://www.w3.org/2000/svg" viewBox="0 0 39 41"><defs><style>.cls-1{fill:#537a6e;}.cls-2{fill:none;stroke:#537a6e;stroke-linecap:round;stroke-miterlimit:10;stroke-width:2px;}</style></defs><g id="Layer_2" data-name="Layer 2"><g id="Layer_1-2" data-name="Layer 1"><path class="cls-1" d="M27.44,0,3.56,23.66,2.83,26,.08,34.94a1.65,1.65,0,0,0,.35,1.61l0,0a.61.61,0,0,0,.26.19,1.65,1.65,0,0,0,1,.38,1.89,1.89,0,0,0,.51-.07l9-2.74,2.37-.72L37.49,10ZM5.4,34.27,2.9,31.8l1.36-4.38L4.39,27l5.87,5.82-.44.14Zm7-1.9-.29.29L4.52,25.19l.3-.29L27.44,2.49,35,10Z"/><line class="cls-2" x1="6.8" y1="40" x2="38" y2="40"/></g></g></svg>