<svg xmlns="http://www.w3.org/2000/svg" viewBox="0 0 56 46"><defs><style>.cls-1{fill:#565656;}.cls-2{fill:#5e887c;}</style></defs><g id="Layer_2" data-name="Layer 2"><g id="Layer_1-2" data-name="Layer 1"><path class="cls-1" d="M28.43,46a2,2,0,0,1-1.2-.39L12.46,35.1H2.66A2.74,2.74,0,0,1,0,32.3V13.7a2.74,2.74,0,0,1,2.66-2.8h9.8L27.23.39a2,2,0,0,1,2.2-.13,2.28,2.28,0,0,1,1.15,2V43.75a2.27,2.27,0,0,1-1.15,2A2.1,2.1,0,0,1,28.43,46ZM2.66,13.33a.36.36,0,0,0-.34.37V32.3a.36.36,0,0,0,.34.37H13.17L28.26,43.4V2.6L13.17,13.33Z"/><path class="cls-2" d="M39.07,39.68A1.16,1.16,0,0,1,38,38.85a1.22,1.22,0,0,1,.72-1.54c4-1.43,6.95-7.45,6.95-14.31S42.73,10.12,38.7,8.69A1.22,1.22,0,0,1,38,7.15a1.15,1.15,0,0,1,1.47-.76C44.46,8.17,48,15,48,23s-3.5,14.83-8.52,16.61A.94.94,0,0,1,39.07,39.68Z"/><path class="cls-1" d="M47.11,44.73A1.17,1.17,0,0,1,46.05,44a1.25,1.25,0,0,1,.59-1.61c4.08-1.92,7-10.08,7-19.4s-3-17.48-7-19.4A1.25,1.25,0,0,1,46.05,2a1.15,1.15,0,0,1,1.54-.61C52.54,3.71,56,12.61,56,23s-3.46,19.29-8.42,21.62A1,1,0,0,1,47.11,44.73Z"/></g></g></svg>