<svg xmlns="http://www.w3.org/2000/svg" viewBox="0 0 30 20"><defs><style>.cls-1{fill:#5e887c;}.cls-2{fill:#8d9e96;}</style></defs><g id="Layer_2" data-name="Layer 2"><g id="Layer_1-2" data-name="Layer 1"><path class="cls-1" d="M20,1a9,9,0,0,1,0,18H1V1H20m0-1H0V20H20A10,10,0,0,0,20,0Z"/><path class="cls-2" d="M7.41,6.84a.32.32,0,0,1,.22-.06.36.36,0,0,1,.24.07,1.93,1.93,0,0,0,.68.1,2.51,2.51,0,0,1,.73.11.51.51,0,0,0,.27.08.35.35,0,0,1,.26.1,1.08,1.08,0,0,0,.29.13.34.34,0,0,1,.19.09.27.27,0,0,0,.19.1.34.34,0,0,1,.21.09c.05,0,.09.08.12.08s.06,0,.1.08A1.06,1.06,0,0,0,11.2,8a1,1,0,0,1,.27.16l.21.31a1.15,1.15,0,0,1,.22.36.34.34,0,0,0,.1.19.43.43,0,0,1,.09.25.3.3,0,0,0,.1.22.49.49,0,0,1,.13.26.45.45,0,0,0,.1.26,2.24,2.24,0,0,1,.07.82,1.8,1.8,0,0,1-.1.84.5.5,0,0,0-.11.34.58.58,0,0,1-.09.35,1.29,1.29,0,0,0-.29.41.4.4,0,0,1-.11.17,1.44,1.44,0,0,0-.29.5s-.08.11-.24.19a2.66,2.66,0,0,0-.38.23.3.3,0,0,1-.18.09.22.22,0,0,0-.17.11.27.27,0,0,1-.22.1.33.33,0,0,0-.19.06.71.71,0,0,1-.35.13,10.73,10.73,0,0,1-1.8,0,1.41,1.41,0,0,1-.57-.13.29.29,0,0,0-.19-.06A.35.35,0,0,1,7,14.08c-.06-.07-.11-.1-.15-.1a.45.45,0,0,1-.17-.09,1.28,1.28,0,0,0-.23-.14.31.31,0,0,1-.19-.13A.94.94,0,0,0,6,13.34a2,2,0,0,1-.51-.71,1,1,0,0,0-.15-.21,3.53,3.53,0,0,1-.21-.36C5.06,12,5,11.88,5,11.81a.68.68,0,0,1-.1-.34.74.74,0,0,0-.09-.38q-.15-.18,0-.57a1.22,1.22,0,0,0,.12-.44A.57.57,0,0,1,5,9.72a.32.32,0,0,0,.08-.2.76.76,0,0,1,.09-.29A.94.94,0,0,0,5.25,9c0-.1.14-.29.42-.55a.35.35,0,0,0,.17-.27A.25.25,0,0,1,5.92,8,.34.34,0,0,0,6,7.73a.23.23,0,0,1,.19-.17.55.55,0,0,0,.21-.12c.06-.07.11-.11.15-.11a.63.63,0,0,0,.25-.13A3.85,3.85,0,0,1,7.21,7ZM9.64,8.38a.66.66,0,0,1-.27-.1,2.11,2.11,0,0,0-.79-.08,2,2,0,0,0-.78.08.79.79,0,0,1-.37.1A.5.5,0,0,0,7,8.57c-.09.1-.13.17-.13.21s0,.1-.11.16-.1.09-.1.12,0,.08-.1.17a.45.45,0,0,0-.09.23.53.53,0,0,1-.08.23.38.38,0,0,0-.11.23.57.57,0,0,1-.12.18.37.37,0,0,0-.07.25.74.74,0,0,1-.08.34,1.57,1.57,0,0,0,0,.48,1,1,0,0,0,.14.44.56.56,0,0,1,.12.2.36.36,0,0,0,.11.21.7.7,0,0,1,.08.16A2.83,2.83,0,0,0,7,12.8q.14.15.21.15a.33.33,0,0,1,.18.1.49.49,0,0,0,.32.1H8a1.4,1.4,0,0,0,.57.06,2.88,2.88,0,0,0,.64,0l.27,0a.29.29,0,0,0,.22-.08.32.32,0,0,1,.18-.1l.21-.09a2.83,2.83,0,0,1,.34-.32,1.09,1.09,0,0,1,.27-.23s0-.05.09-.15A.67.67,0,0,1,11,12a.21.21,0,0,0,.08-.17.63.63,0,0,1,.1-.28,2,2,0,0,0,.11-.85,1.57,1.57,0,0,0-.11-.77.36.36,0,0,1-.1-.23A.23.23,0,0,0,11,9.52a.56.56,0,0,1-.09-.17,1.2,1.2,0,0,0-.35-.46c-.23-.22-.37-.32-.43-.32s-.09,0-.15-.1A.75.75,0,0,0,9.64,8.38Z"/><path class="cls-2" d="M16.14,6.72a.67.67,0,0,1,.33-.08.51.51,0,0,1,.3.05.13.13,0,0,0,.16,0,2.68,2.68,0,0,1,.68,0,2.13,2.13,0,0,1,.74.07,1.88,1.88,0,0,0,.3.12c.18,0,.26.21.26.49a.52.52,0,0,1-.15.38.61.61,0,0,1-.59.25.56.56,0,0,0-.23,0,3.44,3.44,0,0,1-.8.05A3.3,3.3,0,0,1,16.29,8,.26.26,0,0,0,16,8a2.36,2.36,0,0,1-.71.06,1.48,1.48,0,0,0-.62.06,2.84,2.84,0,0,0,0,.84,4.66,4.66,0,0,0,0,.67.36.36,0,0,0,.07.18,1.09,1.09,0,0,0,.57.1A2.16,2.16,0,0,0,16,9.84a1.91,1.91,0,0,1,.66-.07,1.83,1.83,0,0,0,.52,0,3.51,3.51,0,0,1,.66,0h.65l.13.15.21.26a.37.37,0,0,1,.12.34c0,.15,0,.25-.1.28a.94.94,0,0,0-.18.12,2.38,2.38,0,0,1-.92.08c-.41,0-.65,0-.73,0a.31.31,0,0,0-.2.09.29.29,0,0,1-.46,0c-.09-.1-.2-.1-.32,0s-.1.07-.12.07L15.75,11a.88.88,0,0,0-.46-.08,1,1,0,0,0-.4,0,2.79,2.79,0,0,0-.06.9,3,3,0,0,0,.07,1,.74.74,0,0,1,.1.47,1.13,1.13,0,0,1-.06.46.35.35,0,0,0-.11.21.26.26,0,0,1-.13.21l-.2.12a.51.51,0,0,1-.3.09.69.69,0,0,1-.45-.19l-.12-.15,0-.67c0-.49,0-.9,0-1.22s0-.77,0-1.33,0-.86-.06-.91A3.28,3.28,0,0,1,13.42,9V8.13L13.33,8a.27.27,0,0,1-.1-.19.34.34,0,0,0-.08-.2.59.59,0,0,1-.11-.3A.36.36,0,0,1,13.15,7a.48.48,0,0,1,.35-.12l1.37-.06A5.19,5.19,0,0,0,16.14,6.72Z"/><path class="cls-2" d="M22.56,6.72a.67.67,0,0,1,.33-.08.51.51,0,0,1,.3.05.13.13,0,0,0,.16,0,2.74,2.74,0,0,1,.68,0,2.24,2.24,0,0,1,.75.07,1.48,1.48,0,0,0,.29.12c.18,0,.27.21.27.49a.49.49,0,0,1-.16.38.61.61,0,0,1-.59.25.51.51,0,0,0-.22,0,3.63,3.63,0,0,1-.81.05A3.36,3.36,0,0,1,22.71,8a.26.26,0,0,0-.27,0,2.28,2.28,0,0,1-.7.06,1.51,1.51,0,0,0-.63.06,3.32,3.32,0,0,0-.05.84c0,.38,0,.6,0,.67a.48.48,0,0,0,.07.18,1.09,1.09,0,0,0,.57.1,2.16,2.16,0,0,0,.63-.06A2,2,0,0,1,23,9.77a1.83,1.83,0,0,0,.52,0,3.51,3.51,0,0,1,.66,0h.65l.13.15.21.26a.4.4,0,0,1,.13.34c0,.15,0,.25-.11.28l-.18.12a2.34,2.34,0,0,1-.92.08c-.41,0-.65,0-.73,0a.34.34,0,0,0-.2.09.29.29,0,0,1-.46,0c-.09-.1-.19-.1-.32,0a.32.32,0,0,1-.11.07.32.32,0,0,1-.13-.07.86.86,0,0,0-.45-.08,1,1,0,0,0-.41,0,2.79,2.79,0,0,0-.06.9,2.82,2.82,0,0,0,.08,1,.83.83,0,0,1,.09.47,1.13,1.13,0,0,1-.06.46.41.41,0,0,0-.11.21.26.26,0,0,1-.13.21,1.73,1.73,0,0,0-.2.12.49.49,0,0,1-.3.09.69.69,0,0,1-.45-.19l-.12-.15,0-.67a10.41,10.41,0,0,1,0-1.22c0-.32,0-.77,0-1.33S19.91,10,19.9,10A3.28,3.28,0,0,1,19.84,9V8.13L19.75,8a.32.32,0,0,1-.1-.19.29.29,0,0,0-.08-.2.59.59,0,0,1-.11-.3A.39.39,0,0,1,19.57,7a.48.48,0,0,1,.35-.12l1.37-.06A5.12,5.12,0,0,0,22.56,6.72Z"/></g></g></svg>