<svg xmlns="http://www.w3.org/2000/svg" viewBox="0 0 30 20"><defs><style>.cls-1{fill:#5e887c;}.cls-2{fill:#fff;}</style></defs><g id="Layer_2" data-name="Layer 2"><g id="Layer_1-2" data-name="Layer 1"><path class="cls-1" d="M10,0a10,10,0,0,0,0,20H30V0Z"/><path class="cls-2" d="M9.78,6.84A.29.29,0,0,1,10,6.78a.36.36,0,0,1,.24.07,2.08,2.08,0,0,0,.69.1,2.58,2.58,0,0,1,.73.11.51.51,0,0,0,.26.08.39.39,0,0,1,.27.1,1,1,0,0,0,.28.13.31.31,0,0,1,.19.09.3.3,0,0,0,.19.1.34.34,0,0,1,.21.09s.09.08.13.08.06,0,.09.08a1,1,0,0,0,.3.22c.16.08.25.13.26.16a3,3,0,0,0,.22.31,1.15,1.15,0,0,1,.22.36.39.39,0,0,0,.09.19.38.38,0,0,1,.1.25.33.33,0,0,0,.09.22.5.5,0,0,1,.14.26.44.44,0,0,0,.09.26,2.13,2.13,0,0,1,.08.82,1.74,1.74,0,0,1-.11.84.49.49,0,0,0-.1.34.52.52,0,0,1-.1.35,1.17,1.17,0,0,0-.28.41s0,.09-.12.17a1.36,1.36,0,0,0-.28.5s-.08.11-.25.19a3.39,3.39,0,0,0-.38.23.26.26,0,0,1-.18.09.26.26,0,0,0-.17.11.27.27,0,0,1-.22.1.38.38,0,0,0-.19.06.66.66,0,0,1-.34.13,10.74,10.74,0,0,1-1.8,0,1.41,1.41,0,0,1-.57-.13.33.33,0,0,0-.19-.06.33.33,0,0,1-.23-.11C9.28,14,9.23,14,9.2,14A.46.46,0,0,1,9,13.89a1,1,0,0,0-.22-.14.29.29,0,0,1-.19-.13,1.32,1.32,0,0,0-.25-.28,2,2,0,0,1-.51-.71.72.72,0,0,0-.16-.21,2.45,2.45,0,0,1-.2-.36c-.07-.1-.12-.18-.18-.25a.6.6,0,0,1-.09-.34.64.64,0,0,0-.1-.38q-.15-.18,0-.57a1,1,0,0,0,.13-.44.65.65,0,0,1,.11-.36.28.28,0,0,0,.09-.2.91.91,0,0,1,.08-.29A.78.78,0,0,0,7.62,9c0-.1.14-.29.42-.55a.38.38,0,0,0,.17-.27A.23.23,0,0,1,8.28,8a.34.34,0,0,0,.12-.23.23.23,0,0,1,.19-.17.75.75,0,0,0,.21-.12c.06-.07.11-.11.15-.11A.63.63,0,0,0,9.2,7.2,3,3,0,0,1,9.58,7ZM12,8.38a.66.66,0,0,1-.28-.1,2.07,2.07,0,0,0-.79-.08,2,2,0,0,0-.78.08.75.75,0,0,1-.37.1.48.48,0,0,0-.4.19c-.09.1-.14.17-.14.21a.22.22,0,0,1-.1.16C9.08,9,9,9,9,9.06A.45.45,0,0,1,9,9.23a.48.48,0,0,0-.1.23.49.49,0,0,1-.07.23.4.4,0,0,0-.12.23.42.42,0,0,1-.11.18.37.37,0,0,0-.08.25.74.74,0,0,1-.07.34,1.3,1.3,0,0,0,0,.48,1,1,0,0,0,.14.44.43.43,0,0,1,.11.2.38.38,0,0,0,.12.21.5.5,0,0,1,.07.16,2.73,2.73,0,0,0,.54.62c.08.1.15.15.2.15a.32.32,0,0,1,.19.1.45.45,0,0,0,.32.1h.27a1.4,1.4,0,0,0,.57.06,3,3,0,0,0,.65,0l.27,0a.26.26,0,0,0,.21-.08.4.4,0,0,1,.18-.1l.21-.09a3.13,3.13,0,0,1,.35-.32,1.53,1.53,0,0,1,.26-.23s.06-.05.1-.15a.55.55,0,0,1,.17-.19.21.21,0,0,0,.07-.17.68.68,0,0,1,.11-.28,2.11,2.11,0,0,0,.1-.85,1.62,1.62,0,0,0-.1-.77.37.37,0,0,1-.11-.23.22.22,0,0,0-.07-.17,1,1,0,0,1-.1-.17,1.1,1.1,0,0,0-.35-.46c-.22-.22-.36-.32-.43-.32s-.08,0-.15-.1A.75.75,0,0,0,12,8.38Z"/><path class="cls-2" d="M16.3,7.41c.12-.1.2-.15.27-.15a.58.58,0,0,1,.3.17c.46.41.69.68.69.79a.45.45,0,0,0,.09.25.28.28,0,0,1,.1.17s.06.12.2.27.19.25.19.3a.14.14,0,0,0,.06.12.32.32,0,0,1,.12.17,6.77,6.77,0,0,0,1,1.16.63.63,0,0,1,.21.3,1.05,1.05,0,0,0,.19.25,1.93,1.93,0,0,1,.35.49,1.26,1.26,0,0,0,.18.21,3,3,0,0,0,.25.25.78.78,0,0,0,.19.13s.11.08.21.21.28.18.38,0l.1-.1,0-1.67A8.6,8.6,0,0,1,21.47,9a.22.22,0,0,0,0-.34c-.09-.07-.09-.15,0-.23a.6.6,0,0,0,.09-.26,1,1,0,0,1,.33-.59.33.33,0,0,1,.32-.13.59.59,0,0,1,.31.12c.07.06.11.08.13.08a.18.18,0,0,1,.1.06.16.16,0,0,1,.07.13.29.29,0,0,0,.07.18,1.69,1.69,0,0,1,.08.71,1.79,1.79,0,0,1-.08.72.5.5,0,0,0-.07.29,4.48,4.48,0,0,1-.15,1.49,1.8,1.8,0,0,0-.08.7,3.34,3.34,0,0,1-.08.66,3.38,3.38,0,0,0-.11.95c0,.19,0,.33,0,.41a.65.65,0,0,1-.05.21.18.18,0,0,1-.1.11l-.22.05a1.12,1.12,0,0,1-.48,0,.86.86,0,0,1-.49-.25c-.14-.14-.22-.21-.25-.21a1,1,0,0,1-.23-.17.83.83,0,0,0-.24-.17,7.28,7.28,0,0,1-.75-.74,10.61,10.61,0,0,1-.77-.82.52.52,0,0,1-.07-.11.24.24,0,0,1,0-.12l-.33-.34a2.45,2.45,0,0,1-.3-.36,1.47,1.47,0,0,0-.46-.61c-.09-.06-.13-.1-.13-.11s0-.12-.13-.2a.6.6,0,0,0-.16-.11.3.3,0,0,0-.05.18.28.28,0,0,1-.08.2,1.61,1.61,0,0,0-.07.69,1.46,1.46,0,0,1-.1.72l-.09.07v2.07l-.14.18q-.14.17-.21.18s-.14,0-.3,0a.56.56,0,0,1-.4-.18.63.63,0,0,1-.17-.25.25.25,0,0,0-.1-.17.32.32,0,0,1,0-.4c.06,0,.08-.16.08-.33a1.11,1.11,0,0,1,0-.36,6.27,6.27,0,0,0,.15-1.52,1.79,1.79,0,0,1,.08-.7,1.4,1.4,0,0,0,.09-.63,3.13,3.13,0,0,1,.15-1.08,1.19,1.19,0,0,0,.08-.59V7.56Z"/></g></g></svg>