<svg xmlns="http://www.w3.org/2000/svg" viewBox="0 0 80 28"><defs><style>.cls-1{fill:#8d9e96;}.cls-2{fill:#fff;}</style></defs><g id="Layer_2" data-name="Layer 2"><g id="Layer_1-2" data-name="Layer 1"><path class="cls-1" d="M13.33,0C6,0,0,6.27,0,14S6,28,13.33,28H40V0Z"/><path class="cls-1" d="M66.67,1C73.47,1,79,6.83,79,14S73.47,27,66.67,27H41V1H66.67m0-1H40V28H66.67C74,28,80,21.73,80,14S74,0,66.67,0Z"/><path class="cls-2" d="M12.31,10.18a.3.3,0,0,1,.23-.1,1.15,1.15,0,0,1,.78.48l.18.18V12.2a8,8,0,0,0,.06,1.4c0,.12.2.17.47.15l.74-.08c1.23,0,2-.06,2.23-.08a1.66,1.66,0,0,1,1.34.16.75.75,0,0,1,.43.82.88.88,0,0,1-.24.39,1,1,0,0,1-.32.25c-.2,0-1.79.07-4.76.11l-1.49,0H10.49A2,2,0,0,1,9,15a1,1,0,0,1-.25-.43.74.74,0,0,1,.1-.72,1.83,1.83,0,0,1,.86-.08,6.65,6.65,0,0,0,2.1,0c.07-.05.09-.19.06-.4s0-.77.05-1.46a4.27,4.27,0,0,1,.12-1.36A1.2,1.2,0,0,1,12.31,10.18ZM15,6.62a3.44,3.44,0,0,1,.65,0A2.26,2.26,0,0,1,17,7a1.59,1.59,0,0,1,.26.34,2.08,2.08,0,0,1,.07.56q0,.43,0,1.26c-.05,1.06-.08,1.66-.1,1.78a1,1,0,0,0,0,.51,1.25,1.25,0,0,1-.28.93.54.54,0,0,1-.67.2,1,1,0,0,1-.6-.65,3,3,0,0,1,0-1c0-.49.05-1,.05-1.54s0-.71,0-.81a.33.33,0,0,0-.23-.23c-.09,0-1.22,0-3.4.08l-1,0-.23-.14A1.19,1.19,0,0,1,10.51,8a.78.78,0,0,1-.15-.51.81.81,0,0,1,.2-.55l.21-.21,1.19,0L14,6.67A3.16,3.16,0,0,0,15,6.62ZM13.05,16h.7a3.41,3.41,0,0,1,1.63.39,3.62,3.62,0,0,1,.41.3l.54.44a2.37,2.37,0,0,1,.36.36,2,2,0,0,1,.43.69.58.58,0,0,0,.11.24,1.91,1.91,0,0,1,.15,1.25c0,.23,0,.44,0,.64a.83.83,0,0,1-.11.45.46.46,0,0,0-.12.21,1.46,1.46,0,0,1-.41.7,2.62,2.62,0,0,1-.75.66,4.61,4.61,0,0,1-1.65.45.88.88,0,0,1-.56-.08,1.45,1.45,0,0,0-.53-.13A2.76,2.76,0,0,1,12.06,22a2.83,2.83,0,0,1-.57-.56,4.18,4.18,0,0,1-.47-.61,3.06,3.06,0,0,1-.19-.73,5.06,5.06,0,0,1-.09-.76,5.17,5.17,0,0,1,.33-1.73,1.9,1.9,0,0,1,.21-.48,3.51,3.51,0,0,1,.33-.45,3.37,3.37,0,0,1,.27-.27l.3-.13a.44.44,0,0,1,.28-.1.7.7,0,0,0,.32-.1Zm1.49,1.62a1.91,1.91,0,0,0-1,0,1.52,1.52,0,0,0-.86.85,4.44,4.44,0,0,0-.23.82l-.13.56.1.35a1.1,1.1,0,0,0,.31.53,1.22,1.22,0,0,0,.4.35,3.4,3.4,0,0,0,.74.05l.66,0,.25-.19a2.8,2.8,0,0,0,.83-.82,1.77,1.77,0,0,0,.16-.91v-.64l-.16-.29A1.82,1.82,0,0,0,14.54,17.58Z"/><path class="cls-2" d="M19.81,10.32a.65.65,0,0,1,.43-.11,3.5,3.5,0,0,0,.63.08l.92,0a1.67,1.67,0,0,0,.68,0,.47.47,0,0,1,.33,0,7.65,7.65,0,0,0,1,.08h.81l.3.21a.82.82,0,0,1,.33,1,6.31,6.31,0,0,0-.18.71,2.11,2.11,0,0,1-.17.72,4.27,4.27,0,0,0-.26.62,2.35,2.35,0,0,0-.15.53,2.54,2.54,0,0,1-.26.62,5.1,5.1,0,0,1-.5.81,13.05,13.05,0,0,1-1.9,2.16.91.91,0,0,1-.56.21,1.49,1.49,0,0,1-.48-.05.65.65,0,0,1-.28-.56,1.24,1.24,0,0,1,.49-.83l.53-.5a8.26,8.26,0,0,0,1.09-1.33,6.17,6.17,0,0,0,.81-1.68,3,3,0,0,1,.18-.45c.16-.41.18-.69.05-.85s-.17-.06-.41,0a2.69,2.69,0,0,1-.73-.05l-1.2-.11c-.54,0-.9,0-1.08-.05a.85.85,0,0,1-.7-.55A.5.5,0,0,1,19.81,10.32ZM30.2,9.6a.29.29,0,0,1,.31,0,1.58,1.58,0,0,1,.33.22,1.22,1.22,0,0,1,.27.36l.12.32,0,1.7a29.57,29.57,0,0,1-.15,4,8.06,8.06,0,0,0,0,1.57c.05.69.07,1.1.07,1.22a.88.88,0,0,1-.1.4.67.67,0,0,1-.6.4.73.73,0,0,1-.47-.19,1,1,0,0,1-.35-.45,16.48,16.48,0,0,1,0-1.91,10.47,10.47,0,0,0,0-1.83,2.27,2.27,0,0,0-.77-.06,3.36,3.36,0,0,0-.81,0c-.07,0-.11.1-.12.25s0,.63,0,1.43v1.54l-.18.24a.51.51,0,0,1-.33.34.69.69,0,0,1-.88-.39l-.18-.3.05-1.25c0-.81,0-1.35.05-1.62a3.4,3.4,0,0,0,.08-.85c0-.36,0-.84,0-1.46s0-1.32.07-2.08V10.05l.18-.21a.65.65,0,0,1,.36-.23.87.87,0,0,1,.45.17.68.68,0,0,1,.42.39,3.72,3.72,0,0,1,0,1,11.48,11.48,0,0,0,0,2.56l0,.13h.81c.52,0,.82,0,.88-.11s.18-.39.13-.79a2.42,2.42,0,0,1,0-.85,8.85,8.85,0,0,0,0-1C29.77,10.22,29.91,9.72,30.2,9.6Z"/><path class="cls-1" d="M43.19,9a.93.93,0,0,1,.75.07,1.05,1.05,0,0,1,.62.6,2.21,2.21,0,0,1,0,.93,10.59,10.59,0,0,0,0,1.38l0,.64,1.11,0a11.25,11.25,0,0,0,1.33,0,.38.38,0,0,0,.32-.2,1.21,1.21,0,0,0,0-.66c0-.37,0-.64,0-.8a4.32,4.32,0,0,0-.05-.64,1,1,0,0,1,.2-.9.54.54,0,0,1,.28-.2,1.42,1.42,0,0,1,.51.12,1.32,1.32,0,0,1,.78.53,4.6,4.6,0,0,1,.08,1.28c0,2.94,0,4.71.08,5.29a1.59,1.59,0,0,1-.36,1.33,1.57,1.57,0,0,1-1.31.53l-.64,0c-.17,0-.68,0-1.54,0-.63,0-1,0-1.21,0a3.11,3.11,0,0,1-.62-.2,1.4,1.4,0,0,1-.38-.31,1.3,1.3,0,0,1-.25-.36,7.28,7.28,0,0,1-.08-1.57,7,7,0,0,0-.1-1.67,2.47,2.47,0,0,1,0-1,14,14,0,0,0,.07-2.64,1.55,1.55,0,0,1,0-1C43,9.18,43.07,9.05,43.19,9Zm4.18,5.56-.1-.13H44.69l0,.13a1,1,0,0,0,0,.59,4.16,4.16,0,0,1,.09.8,1,1,0,0,0,.07.46c0,.08.41.11,1.07.09q1.29,0,1.44-.21a1.67,1.67,0,0,0,.08-.69c0-.41,0-.65,0-.72A.36.36,0,0,0,47.37,14.57Zm4.51-5.2a.83.83,0,0,1,.18-.28A1.09,1.09,0,0,1,52.49,9a1.51,1.51,0,0,1,.47.05,2.28,2.28,0,0,1,.37.32l.25.29.05.94c0,.51,0,1.19,0,2,0,3.53.1,5.55.15,6a1.47,1.47,0,0,0,.13.53.91.91,0,0,1-.05.51,1.3,1.3,0,0,1-.29.43.62.62,0,0,1-.37.21,1,1,0,0,1-.58-.31,1.51,1.51,0,0,1-.48-.65A33.39,33.39,0,0,1,52,14.23c0-2.47-.07-3.86-.1-4.18A1.1,1.1,0,0,1,51.88,9.37Z"/><path class="cls-1" d="M58.29,10.18a.3.3,0,0,1,.23-.1,1.15,1.15,0,0,1,.78.48l.18.18V12.2a8,8,0,0,0,.06,1.4c.05.12.2.17.47.15l.74-.08c1.23,0,2-.06,2.23-.08a1.66,1.66,0,0,1,1.34.16.75.75,0,0,1,.43.82.88.88,0,0,1-.24.39,1,1,0,0,1-.32.25c-.2,0-1.79.07-4.76.11l-1.49,0H56.47A2,2,0,0,1,55,15a1,1,0,0,1-.25-.43.74.74,0,0,1,.1-.72,1.83,1.83,0,0,1,.86-.08,6.65,6.65,0,0,0,2.1,0c.07-.05.09-.19.06-.4s0-.77,0-1.46a4.27,4.27,0,0,1,.12-1.36A1.2,1.2,0,0,1,58.29,10.18Zm2.64-3.56a3.36,3.36,0,0,1,.65,0A2.26,2.26,0,0,1,63,7a1.59,1.59,0,0,1,.26.34,2.62,2.62,0,0,1,.07.56q0,.43,0,1.26c0,1.06-.08,1.66-.1,1.78a1.14,1.14,0,0,0,0,.51,1.2,1.2,0,0,1-.27.93.54.54,0,0,1-.67.2,1,1,0,0,1-.6-.65,3,3,0,0,1,0-1c0-.49.05-1,.05-1.54s0-.71,0-.81a.33.33,0,0,0-.23-.23c-.09,0-1.22,0-3.4.08l-1,0-.23-.14A1.19,1.19,0,0,1,56.49,8a.78.78,0,0,1-.15-.51.81.81,0,0,1,.2-.55l.2-.21,1.2,0L60,6.67A3.16,3.16,0,0,0,60.93,6.62ZM59,16h.71a3.41,3.41,0,0,1,1.63.39,3.62,3.62,0,0,1,.41.3l.54.44a3,3,0,0,1,.36.36,2,2,0,0,1,.43.69.67.67,0,0,0,.1.24,1.84,1.84,0,0,1,.16,1.25c0,.23,0,.44,0,.64a.83.83,0,0,1-.11.45.46.46,0,0,0-.12.21,1.46,1.46,0,0,1-.41.7,2.62,2.62,0,0,1-.75.66,4.61,4.61,0,0,1-1.65.45.88.88,0,0,1-.56-.08,1.45,1.45,0,0,0-.53-.13A2.71,2.71,0,0,1,58,22a2.83,2.83,0,0,1-.57-.56,4.18,4.18,0,0,1-.47-.61,3.06,3.06,0,0,1-.19-.73,5.06,5.06,0,0,1-.09-.76,5.17,5.17,0,0,1,.33-1.73,1.59,1.59,0,0,1,.21-.48,3.51,3.51,0,0,1,.33-.45,3.37,3.37,0,0,1,.27-.27l.3-.13a.44.44,0,0,1,.28-.1.7.7,0,0,0,.32-.1Zm1.5,1.62a1.91,1.91,0,0,0-1,0,1.57,1.57,0,0,0-.87.85,5.73,5.73,0,0,0-.22.82l-.13.56.1.35a1.1,1.1,0,0,0,.31.53,1.13,1.13,0,0,0,.4.35,3.4,3.4,0,0,0,.74.05l.65,0,.26-.19a2.8,2.8,0,0,0,.83-.82,1.77,1.77,0,0,0,.16-.91v-.64l-.16-.29A1.82,1.82,0,0,0,60.52,17.58Z"/><path class="cls-1" d="M65.79,10.32a.65.65,0,0,1,.43-.11,3.37,3.37,0,0,0,.63.08l.92,0a1.67,1.67,0,0,0,.68,0,.47.47,0,0,1,.33,0,7.65,7.65,0,0,0,1,.08h.81l.3.21a.82.82,0,0,1,.33,1,6.31,6.31,0,0,0-.18.71,2.11,2.11,0,0,1-.17.72,4.27,4.27,0,0,0-.26.62,2.35,2.35,0,0,0-.15.53,2.34,2.34,0,0,1-.27.62,4.5,4.5,0,0,1-.49.81,13.05,13.05,0,0,1-1.9,2.16.93.93,0,0,1-.56.21A1.49,1.49,0,0,1,66.8,18a.65.65,0,0,1-.28-.56,1.24,1.24,0,0,1,.49-.83l.53-.5a8.26,8.26,0,0,0,1.09-1.33,6.17,6.17,0,0,0,.81-1.68,4.7,4.7,0,0,1,.17-.45c.17-.41.19-.69,0-.85s-.16-.06-.4,0a2.79,2.79,0,0,1-.74-.05l-1.19-.11c-.54,0-.9,0-1.09-.05a.85.85,0,0,1-.69-.55A.5.5,0,0,1,65.79,10.32ZM76.18,9.6a.29.29,0,0,1,.31,0,1.58,1.58,0,0,1,.33.22,1.22,1.22,0,0,1,.27.36l.12.32,0,1.7a29.57,29.57,0,0,1-.15,4,8.06,8.06,0,0,0,0,1.57c0,.69.07,1.1.07,1.22a.88.88,0,0,1-.1.4.67.67,0,0,1-.61.4.73.73,0,0,1-.46-.19,1,1,0,0,1-.35-.45,16.48,16.48,0,0,1,0-1.91,10.47,10.47,0,0,0,0-1.83,2.27,2.27,0,0,0-.77-.06,3.36,3.36,0,0,0-.81,0c-.07,0-.11.1-.12.25s0,.63,0,1.43v1.54l-.18.24a.51.51,0,0,1-.33.34.69.69,0,0,1-.88-.39l-.18-.3,0-1.25c0-.81,0-1.35.05-1.62a3.4,3.4,0,0,0,.08-.85c0-.36,0-.84,0-1.46s0-1.32.07-2.08V10.05l.18-.21a.65.65,0,0,1,.36-.23.87.87,0,0,1,.45.17.68.68,0,0,1,.42.39,3.72,3.72,0,0,1,0,1,11.48,11.48,0,0,0,0,2.56l0,.13h.81c.52,0,.82,0,.88-.11s.18-.39.13-.79a2.42,2.42,0,0,1,0-.85,8.85,8.85,0,0,0,0-1C75.75,10.22,75.89,9.72,76.18,9.6Z"/></g></g></svg>