<svg xmlns="http://www.w3.org/2000/svg" viewBox="0 0 54 56"><defs><style>.cls-1{fill:#8d9e96;}</style></defs><g id="Layer_2" data-name="Layer 2"><g id="Layer_1-2" data-name="Layer 1"><path class="cls-1" d="M36.31,34a6.27,6.27,0,0,0-2.17-4.61c-2.4-2.21-5.42-2.33-8.49-2.64a5.69,5.69,0,0,1-3.57-1.5,4.44,4.44,0,0,1-1.14-2.56A5,5,0,0,1,22,18.57a6.17,6.17,0,0,1,4.7-2,5.82,5.82,0,0,1,5.63,4.28A1.45,1.45,0,0,0,33.74,22h.12a1.42,1.42,0,0,0,1.33-1.8,8.88,8.88,0,0,0-7-6.41V11.57a.52.52,0,0,0-.52-.52H25.77a.52.52,0,0,0-.52.52v2.17a8.77,8.77,0,0,0-5.46,2.89A7.9,7.9,0,0,0,18,23.09,7.41,7.41,0,0,0,20,27.31c1.94,2,4.74,2.24,7.34,2.49a8,8,0,0,1,4.85,1.76A3.44,3.44,0,0,1,33.38,34c0,2.32-3.06,4.28-6.67,4.28s-6.66-2-6.66-4.28a2.69,2.69,0,0,1,.19-1,1.49,1.49,0,0,0-.36-1.72l-.1-.08a1.4,1.4,0,0,0-2.18.52A5.66,5.66,0,0,0,17.12,34c0,3.68,3.47,6.63,8.13,7.15v2.14a.52.52,0,0,0,.52.53h1.89a.52.52,0,0,0,.52-.53V41.13C32.84,40.61,36.31,37.66,36.31,34Z"/><path class="cls-1" d="M54,27.27A27.17,27.17,0,0,0,27,0a27.3,27.3,0,0,0-8.79,53H3.09v3H50.33V53H35.79A27.29,27.29,0,0,0,54,27.27Zm-51.07,0A24.22,24.22,0,0,1,27,3a24.32,24.32,0,0,1,0,48.63A24.22,24.22,0,0,1,2.93,27.27Z"/></g></g></svg>