<svg xmlns="http://www.w3.org/2000/svg" viewBox="0 0 40 40"><defs><style>.cls-1{fill:#537a6e;}</style></defs><g id="Layer_2" data-name="Layer 2"><g id="Layer_1-2" data-name="Layer 1"><path class="cls-1" d="M36.4,25a.76.76,0,0,1-.21,0,.85.85,0,0,1-.63-1l2.53-10.32A6.84,6.84,0,0,0,33,5.37L18.75,1.91a6.82,6.82,0,0,0-6.91,2.28.87.87,0,0,1-1.21.11.85.85,0,0,1-.11-1.21A8.55,8.55,0,0,1,19.16.25L33.45,3.71A8.55,8.55,0,0,1,39.76,14L37.23,24.35A.86.86,0,0,1,36.4,25Z"/><path class="cls-1" d="M23.29,8.29H8.58A8.57,8.57,0,0,0,0,16.83V31.46A8.57,8.57,0,0,0,8.58,40H23.29a8.57,8.57,0,0,0,8.58-8.54V16.83A8.57,8.57,0,0,0,23.29,8.29ZM8.58,10H23.29a6.85,6.85,0,0,1,6.87,6.83v9.79a9.1,9.1,0,0,1-6.72,3.55A6.72,6.72,0,0,1,18,27.53c-2.38-2.9-5.6-6.15-9.46-5.52-2.86.47-5.12,2.81-6.81,5.21V16.83A6.85,6.85,0,0,1,8.58,10ZM23.29,38.29H8.58a6.85,6.85,0,0,1-6.86-6.83V30.39c1.58-2.68,4-6.18,7.09-6.69s5.77,2.37,7.85,4.91a8.56,8.56,0,0,0,6.67,3.27h.14a10.47,10.47,0,0,0,6.69-2.78v2.36A6.85,6.85,0,0,1,23.29,38.29Z"/><circle class="cls-1" cx="21.98" cy="20.91" r="3"/></g></g></svg>