<svg xmlns="http://www.w3.org/2000/svg" viewBox="0 0 83 83"><defs><style>.cls-1,.cls-2{fill:none;stroke:#8d9e96;stroke-miterlimit:10;}.cls-1{stroke-width:3px;}.cls-2{stroke-width:2px;}.cls-3{fill:#8d9e96;}</style></defs><g id="Layer_2" data-name="Layer 2"><g id="Layer_1-2" data-name="Layer 1"><circle class="cls-1" cx="41.5" cy="41.5" r="40"/><path class="cls-2" d="M70.19,30.46c-4.87-7-15.45-15-21-11.76a5,5,0,0,0-.7.53,13.9,13.9,0,0,0-13.81.22,4.77,4.77,0,0,0-.94-.75c-5.51-3.24-16.09,4.8-21,11.76-6.89,9.85-1.32,14.62,1.4,16.22a10.79,10.79,0,0,0,5.49,1.56c.27,0,.55,0,.82,0,.57,11,8.25,17.3,21.28,17.3s20.69-6.29,21.28-17.27h.21a10.83,10.83,0,0,0,5.5-1.56C71.51,45.08,77.08,40.31,70.19,30.46Z"/><ellipse class="cls-3" cx="32.36" cy="38.3" rx="3.71" ry="3.63"/><ellipse class="cls-3" cx="50.49" cy="38.3" rx="3.71" ry="3.63"/><path class="cls-3" d="M55.14,47.4a1,1,0,0,0-1.23.83S53,52.83,50,53.9a5.49,5.49,0,0,1-4.21-.49,15.58,15.58,0,0,1-2.93-1.82V51.4l0-3.82a5.28,5.28,0,0,0,3.51-4.3c0-1.75-2.09-1.85-4.65-1.85s-4.65.1-4.65,1.85a5.27,5.27,0,0,0,3.6,4.33l0,3.77v.21a15.5,15.5,0,0,1-3.05,1.88,5.44,5.44,0,0,1-4.08.43c-3-1.07-3.9-5.63-3.91-5.67a1.06,1.06,0,0,0-1.23-.83,1,1,0,0,0-.85,1.2c0,.23,1.12,5.75,5.25,7.24a6.18,6.18,0,0,0,2.1.36,7.77,7.77,0,0,0,2.18-.34,14.68,14.68,0,0,0,4.65-2.47,15.43,15.43,0,0,0,4.56,2.45,8.18,8.18,0,0,0,2.27.36,6.2,6.2,0,0,0,2.11-.36c4.13-1.49,5.2-7,5.25-7.24A1,1,0,0,0,55.14,47.4Z"/></g></g></svg>