<svg xmlns="http://www.w3.org/2000/svg" viewBox="0 0 38 38.13"><defs><style>.cls-1{fill:none;stroke:#8d9e96;stroke-miterlimit:10;stroke-width:2px;}.cls-2{fill:#8d9e96;}</style></defs><g id="Layer_2" data-name="Layer 2"><g id="Layer_1-2" data-name="Layer 1"><path class="cls-1" d="M29.6,31.37a2.76,2.76,0,0,1-2.33,1.29H11.06V34a3.16,3.16,0,0,0,3.14,3.16H33.86A3.16,3.16,0,0,0,37,34V13.36a3.15,3.15,0,0,0-3.14-3.15h-.28v14.9Z"/><path class="cls-2" d="M31.66,2.31H26.87V1.08a1.08,1.08,0,1,0-2.15,0V2.31H14.44V1.08a1.08,1.08,0,1,0-2.15,0V2.31H5.84A2.78,2.78,0,0,0,3.07,5.09V24.51L.38,29.18a2.79,2.79,0,0,0,2.4,4.18H28.12a2.75,2.75,0,0,0,2.33-1.28l4-6.26V5.09A2.78,2.78,0,0,0,31.66,2.31Zm.62,8.61V25.19l-3.64,5.72a.63.63,0,0,1-.52.29H2.78a.61.61,0,0,1-.54-.31.62.62,0,0,1,0-.62l3-5.18v-20a.62.62,0,0,1,.62-.62h6.45V6.59a1.08,1.08,0,1,0,2.15,0V4.47H24.72V6.59a1.08,1.08,0,1,0,2.15,0V4.47h4.79a.62.62,0,0,1,.62.62v5.83Z"/><path class="cls-2" d="M24.5,13l-6.12,6.89-3.55-4.32a1.08,1.08,0,0,0-1.52-.15A1.09,1.09,0,0,0,13.17,17l4.35,5.29a1.08,1.08,0,0,0,.81.4h0a1.06,1.06,0,0,0,.8-.37l7-7.83A1.09,1.09,0,0,0,26,12.91,1.07,1.07,0,0,0,24.5,13Z"/></g></g></svg>