<svg xmlns="http://www.w3.org/2000/svg" viewBox="0 0 49 57"><defs><style>.cls-1{fill:none;stroke:#565656;stroke-miterlimit:10;stroke-width:2px;}.cls-2{fill:#565656;}.cls-3{fill:#5e887c;}</style></defs><g id="Layer_2" data-name="Layer 2"><g id="Layer_1-2" data-name="Layer 1"><polyline class="cls-1" points="35.07 14.85 22.88 14.85 22.88 2.4"/><rect class="cls-2" x="7.94" y="20.72" width="19.76" height="2.8"/><path class="cls-2" d="M27.7,30.08V29H7.94v2.8H24.16A11.47,11.47,0,0,1,27.7,30.08Z"/><path class="cls-2" d="M22.05,37.32H7.94v2.8h13.7a4.06,4.06,0,0,1-.1-.77A4.8,4.8,0,0,1,22.05,37.32Z"/><path class="cls-1" d="M32,28.88a10.2,10.2,0,0,1,4.44,1V13.35L24.38,1H1V46.26H23.67a10.87,10.87,0,0,1-2.23-6.57A10.7,10.7,0,0,1,32,28.88Z"/><path class="cls-3" d="M48.69,55.15,41,47.3a12,12,0,0,0-4.07-18.38,11.25,11.25,0,0,0-9.76,0,11.6,11.6,0,0,0-3.86,3,11.82,11.82,0,0,0-2.38,4.36,12.11,12.11,0,0,0-.55,3.46A10.71,10.71,0,0,0,20.49,41a12,12,0,0,0,2.34,5.91,11.42,11.42,0,0,0,16.66,1.91l7.7,7.85a1,1,0,0,0,.75.32,1.06,1.06,0,0,0,.75-.32A1.11,1.11,0,0,0,48.69,55.15ZM24.51,45.6a10.19,10.19,0,0,1-1.94-5.05,7.88,7.88,0,0,1-.07-.86A10,10,0,0,1,23,36.86a9.68,9.68,0,0,1,1.95-3.56,9.41,9.41,0,0,1,3.15-2.42,9.07,9.07,0,0,1,8,0,9.76,9.76,0,0,1,5.53,8.8A9.64,9.64,0,0,1,32,49.42,9.4,9.4,0,0,1,24.51,45.6Z"/></g></g></svg>