<svg xmlns="http://www.w3.org/2000/svg" viewBox="0 0 42.71 42"><defs><style>.cls-1{fill:none;stroke:#8d9e96;stroke-miterlimit:10;stroke-width:2px;}</style></defs><g id="Layer_2" data-name="Layer 2"><g id="Layer_1-2" data-name="Layer 1"><ellipse class="cls-1" cx="21.36" cy="21" rx="7.67" ry="7.8"/><path class="cls-1" d="M36,21c0-.54,0-1.07-.09-1.6l5.43-3.18L35.5,5.9,30.1,9.07a14.34,14.34,0,0,0-2.82-1.69V1H15.56V7.32A14.58,14.58,0,0,0,12.73,9L7.28,5.78,1.42,16.1l5.39,3.16A14.26,14.26,0,0,0,6.7,21c0,.54,0,1.07.08,1.6L1.36,25.78,7.22,36.1l5.39-3.17a13.87,13.87,0,0,0,2.82,1.69V41H27.15V34.68A14.66,14.66,0,0,0,30,33l5.44,3.2L41.29,25.9l-5.38-3.16A16.58,16.58,0,0,0,36,21Z"/></g></g></svg>