<svg xmlns="http://www.w3.org/2000/svg" viewBox="0 0 38 40"><defs><style>.cls-1{fill:#537a6e;}</style></defs><g id="Layer_2" data-name="Layer 2"><g id="Layer_1-2" data-name="Layer 1"><path class="cls-1" d="M29.94,24.19a8.1,8.1,0,0,0-6.06,2.74L15.7,22.41A7.67,7.67,0,0,0,16.13,20a7.61,7.61,0,0,0-.36-2.19l8.44-4.35a8.11,8.11,0,0,0,5.73,2.35A8,8,0,0,0,38,7.9a8.07,8.07,0,0,0-16.13,0,7.77,7.77,0,0,0,.58,2.9L14.27,15A8.08,8.08,0,0,0,8.06,12.1a7.9,7.9,0,1,0,0,15.8,8.09,8.09,0,0,0,6.06-2.73l8.18,4.52a7.67,7.67,0,0,0-.43,2.41,8.07,8.07,0,1,0,8.07-7.91Z"/></g></g></svg>