<svg xmlns="http://www.w3.org/2000/svg" viewBox="0 0 56 40"><defs><style>.cls-1{fill:#537a6e;}</style></defs><g id="Layer_2" data-name="Layer 2"><g id="Layer_1-2" data-name="Layer 1"><path class="cls-1" d="M51.66,11.6h0c1.49-4.36,0-9-3.61-10.86-4-2-9,.17-11.21,4.83a10.61,10.61,0,0,0-1,4.94L16.41,17.44a9.76,9.76,0,0,0-4-3.62C8,11.56,2.71,13.06.75,17.17c-1.81,3.77-.23,8.41,3.5,10.9h0c-1.65,4.9.4,10.07,4.57,11.53s8.9-1.33,10.55-6.23a10.75,10.75,0,0,0,.55-4l19.87-7.11a10.16,10.16,0,0,0,3,3.21c4.18,2.82,9.55,2,12-1.83S55.84,14.42,51.66,11.6Z"/></g></g></svg>