<svg xmlns="http://www.w3.org/2000/svg" viewBox="0 0 38 40"><defs><style>.cls-1{fill:#8d9e96;}</style></defs><g id="Layer_2" data-name="Layer 2"><g id="Layer_1-2" data-name="Layer 1"><path class="cls-1" d="M32.38,0H8.31A5.66,5.66,0,0,0,2.69,5.69v5.23H0V13H2.69v5.9H0v2.12H2.69V27H0v2.12H2.69v5.23A5.66,5.66,0,0,0,8.31,40H32.38A5.66,5.66,0,0,0,38,34.31V5.69A5.66,5.66,0,0,0,32.38,0ZM35.9,34.31a3.55,3.55,0,0,1-3.52,3.57H8.31a3.55,3.55,0,0,1-3.52-3.57V29.08H9.4V27H4.79v-5.9H9.4V18.94H4.79V13H9.4V10.92H4.79V5.69A3.55,3.55,0,0,1,8.31,2.12H32.38A3.55,3.55,0,0,1,35.9,5.69Z"/><rect class="cls-1" x="13.78" y="26.96" width="4.29" height="2.12"/><rect class="cls-1" x="13.78" y="10.92" width="15.6" height="2.12"/><rect class="cls-1" x="13.78" y="18.94" width="15.6" height="2.12"/><path class="cls-1" d="M25.4,33h-.12a1,1,0,0,1-.79-.51L22.22,28.5A1.08,1.08,0,0,1,22.6,27a1,1,0,0,1,1.43.39l1.56,2.7,4.25-4.58a1,1,0,0,1,1.48,0,1.08,1.08,0,0,1,.05,1.5l-5.21,5.61A1.06,1.06,0,0,1,25.4,33Z"/></g></g></svg>