<svg xmlns="http://www.w3.org/2000/svg" viewBox="0 0 56 51"><defs><style>.cls-1{fill:#537a6e;}.cls-2{fill:none;stroke:#537a6e;stroke-miterlimit:10;stroke-width:2px;}</style></defs><g id="Layer_2" data-name="Layer 2"><g id="Layer_1-2" data-name="Layer 1"><path class="cls-1" d="M13.45,13.93c-.58,2-2.89,3.56-5.65,3.56S2.73,16,2.14,13.93H13.45m2.05-2H.1a5.56,5.56,0,0,0-.1,1c0,3.62,3.49,6.56,7.8,6.56s7.79-2.94,7.79-6.56a6.64,6.64,0,0,0-.09-1Z"/><path class="cls-1" d="M26.48,13.93a4.58,4.58,0,0,1-8.93,0h8.93m2-2h-13a6.63,6.63,0,0,0-.08,1,6.58,6.58,0,0,0,13.15,0,6.63,6.63,0,0,0-.08-1Z"/><path class="cls-1" d="M39,13.93a4.34,4.34,0,0,1-8.54,0H39m2-2H28.38a6.63,6.63,0,0,0-.08,1,6.38,6.38,0,1,0,12.76,0,6.63,6.63,0,0,0-.08-1Z"/><path class="cls-1" d="M53.86,13.93c-.59,2-2.9,3.56-5.66,3.56S43.13,16,42.55,13.93H53.86m2-2H40.5a6.64,6.64,0,0,0-.09,1c0,3.62,3.49,6.56,7.79,6.56S56,16.55,56,12.93a5.56,5.56,0,0,0-.1-1Z"/><path class="cls-1" d="M45.52,2l6.33,7.93H4.15l1-1.29L10.48,2h35m1-2h-37L3.62,7.39.13,11.77l0,.16H56L46.48,0Z"/><line class="cls-2" x1="20.2" y1="0.84" x2="15.59" y2="11.34"/><line class="cls-2" x1="36.98" y1="0.84" x2="41.59" y2="11.34"/><line class="cls-2" x1="28.59" y1="0.63" x2="28.59" y2="11.81"/><path class="cls-2" d="M50.45,17.9V46.2a3.91,3.91,0,0,1-4,3.8H10.28a3.91,3.91,0,0,1-4-3.8V17.9"/><path class="cls-1" d="M37.11,41.56a9.24,9.24,0,0,1-.31,2c-.69,2-2.69,2.54-4.79,1.43-.64-.34-1.18-.81-1.8-1.18a4.12,4.12,0,0,0-4.33,0c-.64.34-1.15.85-1.78,1.21-2,1.14-3.73.77-4.7-1-2.17-3.91,2.14-10.73,7.35-11.56a8.09,8.09,0,0,1,6.1,1.5A9.7,9.7,0,0,1,37.11,41.56Z"/><ellipse class="cls-1" cx="17.96" cy="31.9" rx="2.9" ry="4.06" transform="translate(-12.88 12.17) rotate(-28.01)"/><ellipse class="cls-1" cx="38.71" cy="32.32" rx="3.94" ry="2.78" transform="translate(-10.19 44.64) rotate(-54)"/><ellipse class="cls-1" cx="24.59" cy="26.97" rx="3.32" ry="4.59" transform="translate(-2.51 2.53) rotate(-5.6)"/><ellipse class="cls-1" cx="32.5" cy="26.98" rx="4.77" ry="3.37" transform="translate(-1.43 52.15) rotate(-76.26)"/></g></g></svg>