<svg xmlns="http://www.w3.org/2000/svg" viewBox="0 0 110.53 110.53"><defs><style>.cls-1{fill:#ececec;}.cls-2{fill:#1e120d;}.cls-3{fill:#fff;}.cls-4{fill:none;stroke:#1e120d;stroke-miterlimit:10;stroke-width:0.98px;}.cls-5{fill:#ffc2b0;}</style></defs><g id="Layer_2" data-name="Layer 2"><g id="OBJECTS"><circle class="cls-1" cx="55.27" cy="55.27" r="55.27"/><circle class="cls-2" cx="55.27" cy="49.82" r="25.28"/><ellipse class="cls-2" cx="55.27" cy="24.54" rx="13.61" ry="11.58"/><path class="cls-3" d="M84.21,62.79c0,2.43-2.95,5.86-6.33,4.87-2.33-.68-5.3-2.44-5.3-4.87s3.39-4.85,5.81-4.85C82.3,57.94,84.21,60.37,84.21,62.79Z"/><path class="cls-3" d="M26.33,62.79c0,2.43,2.94,5.86,6.32,4.87C35,67,38,65.22,38,62.79s-3.4-4.85-5.82-4.85C28.23,57.94,26.33,60.37,26.33,62.79Z"/><path class="cls-3" d="M78.38,56.49c.43,16.91-7.58,33.08-21.49,33.44s-24-14.09-24.38-31S41.42,29,55.33,28.67,77.94,39.57,78.38,56.49Z"/><path class="cls-2" d="M79.35,65c.26-.88.63-1.62.79-2.3a1.57,1.57,0,0,0,0-.91,3.18,3.18,0,0,0-.72-.92,1.57,1.57,0,0,1,1.36.49,1.75,1.75,0,0,1,.31,1.56,3,3,0,0,1-.66,1.26A2.94,2.94,0,0,1,79.35,65Z"/><path class="cls-2" d="M31.54,65a2.79,2.79,0,0,1-1.09-.82,3,3,0,0,1-.67-1.26,1.78,1.78,0,0,1,.31-1.56,1.6,1.6,0,0,1,1.37-.49,2.86,2.86,0,0,0-.72.92,1.65,1.65,0,0,0,0,.91C30.9,63.33,31.28,64.07,31.54,65Z"/><polyline class="cls-4" points="55.92 57.88 58.55 63.34 55.36 65.4"/><ellipse class="cls-2" cx="45.38" cy="56.69" rx="0.93" ry="1.19"/><ellipse class="cls-2" cx="66.05" cy="56.69" rx="0.93" ry="1.19"/><path class="cls-4" d="M53.28,70.91a4.19,4.19,0,0,0,4.15,3.25,3.75,3.75,0,0,0,4-3.25"/><circle class="cls-5" cx="41.77" cy="65.4" r="4.54"/><circle class="cls-5" cx="69.65" cy="65.4" r="4.54"/><path class="cls-2" d="M31.37,57.33s12-3.26,24-24.49c0,0,11,21.85,23.64,24.29a28.23,28.23,0,0,0-.71-12c-5.19-20.74-33.64-23.63-43.58-4.69C32.31,45,30.76,49.67,31.37,57.33Z"/></g></g></svg>