<svg xmlns="http://www.w3.org/2000/svg" viewBox="0 0 47.06 40"><defs><style>.cls-1{fill:#537a6e;}</style></defs><g id="Layer_2" data-name="Layer 2"><g id="Layer_1-2" data-name="Layer 1"><path class="cls-1" d="M38.7,33a16.73,16.73,0,0,1-.54,3.4C37,39.8,33.5,40.8,29.86,38.9c-1.12-.58-2.05-1.39-3.12-2a7.22,7.22,0,0,0-7.5-.07c-1.11.59-2,1.45-3.08,2.07-3.44,2-6.46,1.33-8.14-1.64-3.76-6.7,3.71-18.39,12.74-19.82A14,14,0,0,1,31.31,20,16.58,16.58,0,0,1,38.7,33Z"/><ellipse class="cls-1" cx="5.53" cy="16.49" rx="5.02" ry="6.98" transform="translate(-7.25 4.7) rotate(-28.76)"/><ellipse class="cls-1" cx="41.46" cy="17.21" rx="6.78" ry="4.81" transform="translate(2.83 40.08) rotate(-53.17)"/><ellipse class="cls-1" cx="17.01" cy="8.03" rx="5.74" ry="7.86" transform="translate(-0.72 1.75) rotate(-5.78)"/><ellipse class="cls-1" cx="30.71" cy="8.06" rx="8.18" ry="5.84" transform="translate(15.39 35.86) rotate(-75.85)"/></g></g></svg>