<svg xmlns="http://www.w3.org/2000/svg" viewBox="0 0 49.06 42"><defs><style>.cls-1{fill:none;stroke:#8d9e96;stroke-miterlimit:10;stroke-width:2px;}</style></defs><g id="Layer_2" data-name="Layer 2"><g id="Layer_1-2" data-name="Layer 1"><path class="cls-1" d="M39.7,34a16.73,16.73,0,0,1-.54,3.4C38,40.8,34.5,41.8,30.86,39.9c-1.12-.58-2.05-1.39-3.12-2a7.22,7.22,0,0,0-7.5-.07c-1.11.59-2,1.45-3.08,2.07-3.44,2-6.46,1.33-8.14-1.64-3.76-6.7,3.71-18.39,12.74-19.82A14,14,0,0,1,32.31,21,16.58,16.58,0,0,1,39.7,34Z"/><ellipse class="cls-1" cx="6.53" cy="17.49" rx="5.02" ry="6.98" transform="translate(-7.61 5.3) rotate(-28.76)"/><ellipse class="cls-1" cx="42.46" cy="18.21" rx="6.78" ry="4.81" transform="translate(2.43 41.28) rotate(-53.17)"/><ellipse class="cls-1" cx="18.01" cy="9.03" rx="5.74" ry="7.86" transform="translate(-0.82 1.86) rotate(-5.78)"/><ellipse class="cls-1" cx="31.71" cy="9.06" rx="8.18" ry="5.84" transform="translate(15.18 37.59) rotate(-75.85)"/></g></g></svg>